<svg width="48" height="48" viewBox="0 0 48 48" fill="none" xmlns="http://www.w3.org/2000/svg">
<g clip-path="url(#clip0_301_469)">
<path d="M35.0464 30.2059C34.6511 30.206 34.2646 30.0888 33.9358 29.8693C33.607 29.6497 33.3508 29.3375 33.1994 28.9723C33.048 28.6071 33.0084 28.2052 33.0854 27.8174C33.1625 27.4296 33.3528 27.0734 33.6323 26.7938C33.9118 26.5142 34.2679 26.3238 34.6557 26.2466C35.0434 26.1694 35.4453 26.2089 35.8106 26.3601C36.1759 26.5113 36.4882 26.7675 36.7079 27.0962C36.9276 27.4248 37.0449 27.8113 37.0449 28.2066C37.0443 28.7366 36.8336 29.2446 36.459 29.6194C36.0843 29.9942 35.5763 30.2051 35.0464 30.2059ZM12.954 30.2059C12.5586 30.206 12.1721 30.0888 11.8434 29.8693C11.5146 29.6497 11.2583 29.3375 11.107 28.9723C10.9556 28.6071 10.916 28.2052 10.993 27.8174C11.0701 27.4296 11.2604 27.0734 11.5399 26.7938C11.8194 26.5142 12.1755 26.3238 12.5633 26.2466C12.951 26.1694 13.3529 26.2089 13.7182 26.3601C14.0835 26.5113 14.3957 26.7675 14.6154 27.0962C14.8351 27.4248 14.9524 27.8113 14.9525 28.2066C14.952 28.7366 14.7413 29.2447 14.3667 29.6195C13.992 29.9943 13.4839 30.2052 12.954 30.2059ZM35.7632 18.1661L39.7576 11.2477C39.8123 11.1532 39.8477 11.0488 39.862 10.9406C39.8764 10.8324 39.8692 10.7224 39.841 10.617C39.8128 10.5115 39.7641 10.4127 39.6977 10.326C39.6313 10.2394 39.5485 10.1667 39.454 10.112C39.3595 10.0574 39.2552 10.0219 39.147 10.0076C39.0388 9.99331 38.9288 10.0005 38.8234 10.0286C38.7179 10.0568 38.619 10.1055 38.5324 10.1719C38.4458 10.2383 38.3731 10.3211 38.3184 10.4156L34.2735 17.4214C31.1804 16.0097 27.7065 15.2237 23.9998 15.2237C20.2931 15.2237 16.8196 16.0109 13.7265 17.4214L9.68196 10.4156C9.6274 10.3211 9.55476 10.2383 9.46818 10.1718C9.38161 10.1054 9.28279 10.0566 9.17737 10.0283C9.07195 10.0001 8.962 9.99286 8.8538 10.0071C8.74559 10.0213 8.64124 10.0567 8.54672 10.1113C8.45219 10.1659 8.36934 10.2385 8.30289 10.3251C8.23644 10.4116 8.18769 10.5105 8.15943 10.6159C8.13117 10.7213 8.12395 10.8313 8.13818 10.9395C8.15242 11.0477 8.18782 11.152 8.24238 11.2465L12.2372 18.1661C5.37791 21.8969 0.686269 28.8409 0 37.0453H48.0004C47.3134 28.8409 42.6221 21.8969 35.7632 18.1661Z" fill="#3DDC84"/>
</g>
<defs>
<clipPath id="clip0_301_469">
<rect width="48" height="48" fill="white"/>
</clipPath>
</defs>
</svg>
