<svg width="40" height="40" viewBox="0 0 40 40" fill="none" xmlns="http://www.w3.org/2000/svg">
<path d="M0.25 8.86056C0.25 4.10508 4.10508 0.25 8.86056 0.25H31.1394C35.8949 0.25 39.75 4.10508 39.75 8.86056V31.1394C39.75 35.8949 35.8949 39.75 31.1394 39.75H8.86056C4.10508 39.75 0.25 35.8949 0.25 31.1394V8.86056Z" fill="white" stroke="#C6CED9" stroke-width="0.5"/>
<g clip-path="url(#clip0_808_22378)">
<path fill-rule="evenodd" clip-rule="evenodd" d="M12.6079 20.0014C12.6106 17.4968 13.8562 15.2884 15.7552 13.9502C16.1704 14.1909 16.5486 14.4739 16.858 14.7992C17.469 15.4233 18.1513 16.8012 18.6247 17.9887C18.7464 18.2876 18.8601 18.5891 18.9712 18.8932C18.4501 19.9523 17.9822 20.8495 17.5705 21.6388C16.6325 23.4375 15.9867 24.6756 15.6705 25.9918C13.8192 24.6482 12.6132 22.4663 12.6079 20.0014ZM18.9765 21.2547C19.1246 20.9188 19.2753 20.5856 19.4287 20.2524C20.3068 23.3785 20.8622 25.2377 21.8566 26.5072C22.0073 26.6976 22.1713 26.8642 22.3432 27.0229C21.5895 27.2742 20.8013 27.4011 20.0079 27.4038C19.1378 27.4038 18.2756 27.2477 17.4584 26.9489C17.4425 26.7426 17.4319 26.5416 17.4319 26.3485C17.4319 25.8619 17.4822 25.4255 17.5642 25.0711C17.7916 24.0793 18.4131 22.5295 18.9765 21.2547Z" fill="#91DC47"/>
<path d="M26.4585 28.4911C25.4773 28.3695 24.668 28.2187 23.9619 27.9701C22.7347 28.5811 21.3806 28.8958 20.0106 28.8958C15.0993 28.8958 11.1163 24.9154 11.1163 20.0015C11.1163 17.3356 12.2906 14.9447 14.1498 13.3155C13.6526 13.1965 13.1343 13.1251 12.6053 13.1251C9.99494 13.1489 7.24175 14.593 6.09392 18.494C5.98549 19.0626 6.01194 19.491 6.01194 19.9988C6.01194 27.7321 12.28 34.0002 20.0133 34.0002C24.7474 34.0002 28.9314 31.6463 31.465 28.0495C30.0951 28.3906 28.778 28.5546 27.6487 28.5573C27.2229 28.5599 26.8261 28.5361 26.4585 28.4911" fill="#63B132"/>
<path d="M23.827 25.7776C23.9142 25.8199 24.1099 25.8913 24.3824 25.968C26.2178 24.6218 27.408 22.4531 27.4132 19.9988C27.4053 15.9126 24.0967 12.6067 20.0079 12.5988C19.2172 12.6014 18.4343 12.7283 17.6832 12.977C19.1854 14.6908 19.9101 17.1398 20.6083 19.8163V19.8189C20.6109 19.8216 20.8331 20.5621 21.2139 21.546C21.5921 22.5298 22.1343 23.7437 22.7215 24.6324C23.1129 25.2275 23.536 25.6533 23.827 25.7776" fill="#90B4FE"/>
<path d="M20.0107 6C15.3215 6 11.1719 8.30887 8.63028 11.8475C9.95266 11.0197 11.3015 10.7209 12.481 10.7315C14.1076 10.7368 15.3876 11.2419 16.0012 11.5857C16.1467 11.6704 16.2895 11.7603 16.427 11.8581C17.5537 11.3609 18.7729 11.1044 20.0054 11.107C24.9193 11.107 28.8997 15.09 28.9023 20.0013C28.9023 22.4795 27.8894 24.7169 26.2549 26.3302C26.6569 26.3752 27.0827 26.4043 27.5191 26.4016C29.0689 26.4016 30.7457 26.0605 32.002 25.0026C32.8218 24.3123 33.5068 23.302 33.8877 21.7865C33.9617 21.202 34.004 20.607 34.004 20.0013C34.0093 12.2681 27.7413 6 20.0107 6" fill="#5881D8"/>
</g>
<defs>
<clipPath id="clip0_808_22378">
<rect width="28" height="28" fill="white" transform="translate(6.00781 6)"/>
</clipPath>
</defs>
</svg>
