<svg width="40" height="40" viewBox="0 0 40 40" fill="none" xmlns="http://www.w3.org/2000/svg">
<path d="M0.25 8.86056C0.25 4.10508 4.10508 0.25 8.86056 0.25H31.1394C35.8949 0.25 39.75 4.10508 39.75 8.86056V31.1394C39.75 35.8949 35.8949 39.75 31.1394 39.75H8.86056C4.10508 39.75 0.25 35.8949 0.25 31.1394V8.86056Z" fill="white" stroke="#C6CED9" stroke-width="0.5"/>
<g clip-path="url(#clip0_807_3780)">
<g filter="url(#filter0_f_807_3780)">
<path fill-rule="evenodd" clip-rule="evenodd" d="M29.6705 31.7583L25.2468 25.4894H14.7313L10.3298 31.7574L29.6705 31.7583Z" fill="black" fill-opacity="0.57"/>
</g>
<path fill-rule="evenodd" clip-rule="evenodd" d="M27.783 26.4294L26.1491 29.8426L25.0247 25.5924L27.783 26.4294ZM12.7387 26.4294L13.851 29.8426L14.9754 25.5924L12.7387 26.4294Z" fill="#7F8082"/>
<path fill-rule="evenodd" clip-rule="evenodd" d="M7.54669 15.1465L7.54584 15.1478L9.86528 29.8428H13.8517L13.526 26.4295H15.5714L15.8319 29.8428H24.1833L24.4438 26.4295H26.4761L26.1505 29.8428H30.1629L32.4534 15.1465H7.54669Z" fill="url(#paint0_linear_807_3780)" stroke="#D6D6D6" stroke-width="0.121225" stroke-linejoin="round"/>
<path fill-rule="evenodd" clip-rule="evenodd" d="M13.2444 24.1799L14.4434 19.6876L14.3591 10.6149L12.1104 15.1472L13.2444 24.1799Z" fill="url(#paint1_radial_807_3780)"/>
<path fill-rule="evenodd" clip-rule="evenodd" d="M21.8553 9.72534H26.8244L26.7224 20.7083H21.4715L21.8553 9.72534ZM18.261 9.73227L13.421 9.73524L13.5357 20.6693H18.4633L18.261 9.73227Z" fill="#293441"/>
<path fill-rule="evenodd" clip-rule="evenodd" d="M13.922 19.6868L13.2445 24.1793H26.7952L25.9891 19.7189L13.922 19.6868Z" fill="#2D3948"/>
<path fill-rule="evenodd" clip-rule="evenodd" d="M26.7952 24.18L25.6185 19.7195L25.6627 10.5853L27.9393 15.1461L26.7952 24.18Z" fill="url(#paint2_linear_807_3780)"/>
<path fill-rule="evenodd" clip-rule="evenodd" d="M13.2548 24.1799L14.4428 19.6874L14.3585 10.6147L12.11 15.1476L13.2548 24.1799Z" fill="url(#paint3_linear_807_3780)"/>
<path fill-rule="evenodd" clip-rule="evenodd" d="M17.753 12.2637L18.2004 21.8017H21.6856L22.247 12.2637H17.753Z" fill="#2D3B48"/>
<path fill-rule="evenodd" clip-rule="evenodd" d="M32.4534 15.1464L26.7574 6.03528H13.2155L7.54669 15.1464H12.1106L14.347 10.6317H18.0241L17.7529 12.2636H22.2468L22.0092 10.5823H25.6719L27.939 15.1464H32.4534Z" fill="url(#paint4_linear_807_3780)" stroke="#D6D6D6" stroke-width="0.121225" stroke-linejoin="round"/>
<path opacity="0.45" fill-rule="evenodd" clip-rule="evenodd" d="M22.0095 10.5823L25.7033 10.5853L27.9393 15.1464L26.7951 24.1799H18.2004L22.6429 15.1464L22.0095 10.5823Z" fill="#363F49"/>
<path opacity="0.3" fill-rule="evenodd" clip-rule="evenodd" d="M22.6428 15.1465L18.2004 24.18H13.2445L12.1106 15.1466L22.6428 15.1465Z" fill="url(#paint5_linear_807_3780)"/>
<path opacity="0.2" fill-rule="evenodd" clip-rule="evenodd" d="M14.347 10.6317H18.0241L17.7529 12.2636H22.2468L22.6427 15.1464H12.1105L14.347 10.6317Z" fill="url(#paint6_linear_807_3780)"/>
<g opacity="0.8" filter="url(#filter1_f_807_3780)">
<path d="M23.6958 21.2159C24.0452 21.2159 24.3284 20.2117 24.3284 18.9731C24.3284 17.7344 24.0452 16.7302 23.6958 16.7302C23.3464 16.7302 23.0632 17.7344 23.0632 18.9731C23.0632 20.2117 23.3464 21.2159 23.6958 21.2159Z" fill="#05F0FF"/>
</g>
<g filter="url(#filter2_f_807_3780)">
<path opacity="0.9" d="M23.6958 20.992C23.9674 20.992 24.1875 20.1029 24.1875 19.0062C24.1875 17.9096 23.9674 17.0205 23.6958 17.0205C23.4242 17.0205 23.2041 17.9096 23.2041 19.0062C23.2041 20.1029 23.4242 20.992 23.6958 20.992Z" fill="white" stroke="#06EFFE" stroke-width="0.121258"/>
<path opacity="0.9" d="M23.6958 20.848C23.9674 20.848 24.1875 20.0259 24.1875 19.0117C24.1875 17.9976 23.9674 17.1754 23.6958 17.1754C23.4242 17.1754 23.2041 17.9976 23.2041 19.0117C23.2041 20.0259 23.4242 20.848 23.6958 20.848Z" fill="#FEFFFF" stroke="#06EFFE" stroke-width="0.12118"/>
</g>
<g opacity="0.8" filter="url(#filter3_f_807_3780)">
<path d="M16.54 21.5324C16.8893 21.5324 17.1726 20.5283 17.1726 19.2896C17.1726 18.0509 16.8893 17.0468 16.54 17.0468C16.1906 17.0468 15.9073 18.0509 15.9073 19.2896C15.9073 20.5283 16.1906 21.5324 16.54 21.5324Z" fill="#05F0FF"/>
</g>
<g filter="url(#filter4_f_807_3780)">
<path opacity="0.9" d="M16.54 21.3085C16.8115 21.3085 17.0317 20.4195 17.0317 19.3228C17.0317 18.2261 16.8115 17.337 16.54 17.337C16.2684 17.337 16.0483 18.2261 16.0483 19.3228C16.0483 20.4195 16.2684 21.3085 16.54 21.3085Z" fill="white" stroke="#06EFFE" stroke-width="0.121258"/>
<path opacity="0.9" d="M16.54 21.1646C16.8115 21.1646 17.0317 20.3424 17.0317 19.3283C17.0317 18.3141 16.8115 17.4919 16.54 17.4919C16.2684 17.4919 16.0483 18.3141 16.0483 19.3283C16.0483 20.3424 16.2684 21.1646 16.54 21.1646Z" fill="#FEFFFF" stroke="#06EFFE" stroke-width="0.12118"/>
</g>
<path d="M14.347 10.6317H18.0241L17.7529 12.2636H22.2468L22.0092 10.5823L25.703 10.5853L27.939 15.1464L26.7949 24.1799H13.2444L12.1105 15.1465L14.347 10.6317Z" stroke="#D6D6D6" stroke-width="0.121225" stroke-linejoin="round"/>
<g opacity="0.343">
<path fill-rule="evenodd" clip-rule="evenodd" d="M27.902 15.1465H12.0994Z" fill="white"/>
<path d="M27.902 15.1465H12.0994" stroke="white" stroke-width="0.121225"/>
</g>
</g>
<defs>
<filter id="filter0_f_807_3780" x="6.92728" y="22.0868" width="26.1458" height="13.074" filterUnits="userSpaceOnUse" color-interpolation-filters="sRGB">
<feFlood flood-opacity="0" result="BackgroundImageFix"/>
<feBlend mode="normal" in="SourceGraphic" in2="BackgroundImageFix" result="shape"/>
<feGaussianBlur stdDeviation="1.70128" result="effect1_foregroundBlur_807_3780"/>
</filter>
<filter id="filter1_f_807_3780" x="22.3329" y="16" width="2.72572" height="5.94605" filterUnits="userSpaceOnUse" color-interpolation-filters="sRGB">
<feFlood flood-opacity="0" result="BackgroundImageFix"/>
<feBlend mode="normal" in="SourceGraphic" in2="BackgroundImageFix" result="shape"/>
<feGaussianBlur stdDeviation="0.365114" result="effect1_foregroundBlur_807_3780"/>
</filter>
<filter id="filter2_f_807_3780" x="22.891" y="16.7074" width="1.60951" height="4.59767" filterUnits="userSpaceOnUse" color-interpolation-filters="sRGB">
<feFlood flood-opacity="0" result="BackgroundImageFix"/>
<feBlend mode="normal" in="SourceGraphic" in2="BackgroundImageFix" result="shape"/>
<feGaussianBlur stdDeviation="0.126225" result="effect1_foregroundBlur_807_3780"/>
</filter>
<filter id="filter3_f_807_3780" x="15.1771" y="16.3165" width="2.72572" height="5.94605" filterUnits="userSpaceOnUse" color-interpolation-filters="sRGB">
<feFlood flood-opacity="0" result="BackgroundImageFix"/>
<feBlend mode="normal" in="SourceGraphic" in2="BackgroundImageFix" result="shape"/>
<feGaussianBlur stdDeviation="0.365114" result="effect1_foregroundBlur_807_3780"/>
</filter>
<filter id="filter4_f_807_3780" x="15.7352" y="17.0239" width="1.60951" height="4.59767" filterUnits="userSpaceOnUse" color-interpolation-filters="sRGB">
<feFlood flood-opacity="0" result="BackgroundImageFix"/>
<feBlend mode="normal" in="SourceGraphic" in2="BackgroundImageFix" result="shape"/>
<feGaussianBlur stdDeviation="0.126225" result="effect1_foregroundBlur_807_3780"/>
</filter>
<linearGradient id="paint0_linear_807_3780" x1="9268.74" y1="5772.95" x2="4178.73" y2="215.059" gradientUnits="userSpaceOnUse">
<stop stop-color="#ACACAC"/>
<stop offset="1" stop-color="#E9E9E9"/>
</linearGradient>
<radialGradient id="paint1_radial_807_3780" cx="0" cy="0" r="1" gradientUnits="userSpaceOnUse" gradientTransform="translate(27348 -7202.33) rotate(-85.4139) scale(437.675 1303.94)">
<stop stop-color="#25303B"/>
<stop offset="1" stop-color="#25303B" stop-opacity="0"/>
</radialGradient>
<linearGradient id="paint2_linear_807_3780" x1="784.965" y1="4241.78" x2="-220.484" y2="2202.85" gradientUnits="userSpaceOnUse">
<stop stop-color="#24303A"/>
<stop offset="1" stop-color="#394958"/>
</linearGradient>
<linearGradient id="paint3_linear_807_3780" x1="328.683" y1="4232.63" x2="1327.48" y2="2192.33" gradientUnits="userSpaceOnUse">
<stop stop-color="#24303A"/>
<stop offset="1" stop-color="#394958"/>
</linearGradient>
<linearGradient id="paint4_linear_807_3780" x1="8797.79" y1="982.66" x2="2696.22" y2="2655.89" gradientUnits="userSpaceOnUse">
<stop stop-color="#E5E5E5"/>
<stop offset="1" stop-color="white"/>
</linearGradient>
<linearGradient id="paint5_linear_807_3780" x1="1931.38" y1="1733.27" x2="1931.38" y2="2887.26" gradientUnits="userSpaceOnUse">
<stop stop-color="white"/>
<stop offset="0.5" stop-color="white" stop-opacity="0.532"/>
<stop offset="1" stop-color="white" stop-opacity="0"/>
</linearGradient>
<linearGradient id="paint6_linear_807_3780" x1="2055.3" y1="869.302" x2="2055.3" y2="581.065" gradientUnits="userSpaceOnUse">
<stop stop-color="white"/>
<stop offset="1" stop-color="white" stop-opacity="0"/>
</linearGradient>
<clipPath id="clip0_807_3780">
<rect width="28" height="28" fill="white" transform="translate(6 6)"/>
</clipPath>
</defs>
</svg>
