<svg width="48" height="48" viewBox="0 0 48 48" fill="none" xmlns="http://www.w3.org/2000/svg">
<g clip-path="url(#clip0_301_562)">
<path d="M45.6794 14.1008C45.6794 13.2987 45.5085 12.5756 45.1535 11.9707C44.8116 11.3659 44.2988 10.8663 43.6152 10.4719C37.9351 7.1979 32.2419 3.924 26.5618 0.650051C25.0234 -0.230897 23.5508 -0.204589 22.0256 0.689485C19.7641 2.0175 8.43024 8.51273 5.0643 10.4719C3.67054 11.2739 3 12.5098 3 14.1139V33.889C3 34.6779 3.17092 35.3747 3.49962 35.9796C3.84151 36.5976 4.36745 37.1235 5.0643 37.5311C8.44342 39.4902 19.7641 45.9723 22.0256 47.3134C23.5508 48.2073 25.0365 48.2468 26.5618 47.3529C32.2419 44.0658 37.9351 40.805 43.6152 37.5311C44.3251 37.1235 44.8379 36.6107 45.1798 35.9796C45.5085 35.3747 45.6794 34.6779 45.6794 33.889V14.1008Z" fill="#9A4993"/>
<path d="M24.3924 23.9224L3.47339 35.9662C3.81528 36.5842 4.34121 37.1101 5.03806 37.5177C8.41719 39.4768 19.7379 45.9589 21.9994 47.3001C23.5246 48.1942 25.0104 48.2336 26.5356 47.3395C32.2156 44.0524 37.9088 40.7916 43.5889 37.5177C44.2989 37.1101 44.8117 36.5974 45.1535 35.9662L24.3924 23.9224Z" fill="#6A1577"/>
<path d="M18.1994 27.4855C19.4222 29.6156 21.71 31.0488 24.3265 31.0488C26.9693 31.0488 29.2703 29.6024 30.4799 27.4461L24.3923 23.9224L18.1994 27.4855Z" fill="#6A1577"/>
<path d="M45.6794 14.1007C45.6794 13.2987 45.5084 12.5756 45.1535 11.9707L24.3923 23.9225L45.1797 35.9664C45.5084 35.3616 45.6794 34.6647 45.6794 33.8758V14.1007Z" fill="#813084"/>
<path fill-rule="evenodd" clip-rule="evenodd" d="M30.48 27.4463C29.2704 29.5895 26.9695 31.049 24.3266 31.049C21.697 31.049 19.4092 29.6158 18.1996 27.4858C17.6079 26.4471 17.266 25.2637 17.266 23.9883C17.266 20.0833 20.4216 16.9277 24.3266 16.9277C26.93 16.9277 29.2047 18.3477 30.4275 20.4514L36.594 16.9014C34.1353 12.6676 29.5597 9.81445 24.3135 9.81445C16.4771 9.81445 10.1396 16.1651 10.1396 23.9883C10.1396 26.5522 10.8233 28.9716 12.0198 31.049C14.4654 35.2959 19.0673 38.1622 24.3266 38.1622C29.5992 38.1622 34.2011 35.2827 36.6466 31.0095L30.48 27.4463ZM38.2771 20.6348H36.8702V27.4325H38.2771V20.6348ZM39.9862 20.6348H41.393V27.4325H39.9862V20.6348Z" fill="white"/>
<path fill-rule="evenodd" clip-rule="evenodd" d="M35.7393 21.7788H42.5369V23.1857H35.7393V21.7788ZM35.7393 24.882H42.537V26.2889H35.7393V24.882Z" fill="white"/>
</g>
<defs>
<clipPath id="clip0_301_562">
<rect width="48" height="48" fill="white"/>
</clipPath>
</defs>
</svg>
