<svg width="40" height="40" viewBox="0 0 40 40" fill="none" xmlns="http://www.w3.org/2000/svg">
<path d="M0.25 8.86056C0.25 4.10508 4.10508 0.25 8.86056 0.25H31.1394C35.8949 0.25 39.75 4.10508 39.75 8.86056V31.1394C39.75 35.8949 35.8949 39.75 31.1394 39.75H8.86056C4.10508 39.75 0.25 35.8949 0.25 31.1394V8.86056Z" fill="white" stroke="#C6CED9" stroke-width="0.5"/>
<g clip-path="url(#clip0_391_16106)">
<path d="M19.1115 30.7702L22.3413 34H30.9635L23.4231 26.4597" fill="#0D47A1"/>
<path fill-rule="evenodd" clip-rule="evenodd" d="M8.34119 19.9989L12.6529 24.3106L30.9635 6H22.3412L8.34119 19.9989ZM22.3412 18.9178H30.9635L23.4231 26.4593L19.1114 22.1476L22.3412 18.9178Z" fill="#42A5F5" fill-opacity="0.8"/>
<path d="M14.8099 26.4616L19.1148 22.1556L23.4198 26.4605L19.1148 30.7665L14.8099 26.4616Z" fill="#42A5F5"/>
<path d="M19.1149 30.7669L23.4198 26.462L24.0207 27.0629L19.7158 31.3678L19.1149 30.7669Z" fill="url(#paint0_linear_391_16106)"/>
<path d="M19.1115 30.7703L25.5088 28.5601L23.4231 26.4586" fill="url(#paint1_linear_391_16106)"/>
</g>
<defs>
<linearGradient id="paint0_linear_391_16106" x1="20.9677" y1="28.9141" x2="21.5686" y2="29.5151" gradientUnits="userSpaceOnUse">
<stop offset="0.2" stop-opacity="0.15"/>
<stop offset="0.85" stop-color="#616161" stop-opacity="0.01"/>
</linearGradient>
<linearGradient id="paint1_linear_391_16106" x1="19.113" y1="30.7703" x2="25.5103" y2="30.7703" gradientUnits="userSpaceOnUse">
<stop offset="0.2" stop-opacity="0.55"/>
<stop offset="0.85" stop-color="#616161" stop-opacity="0.01"/>
</linearGradient>
<clipPath id="clip0_391_16106">
<rect width="28" height="28" fill="white" transform="translate(6.00781 6)"/>
</clipPath>
</defs>
</svg>
