<svg width="48" height="48" viewBox="0 0 48 48" fill="none" xmlns="http://www.w3.org/2000/svg">
<g clip-path="url(#clip0_301_756)">
<path fill-rule="evenodd" clip-rule="evenodd" d="M5 23.9981L12.3915 31.3895L43.781 0H29L5 23.9981ZM29.0001 22.1449H43.7811L30.8547 35.0732L23.4632 27.6817L29.0001 22.1449Z" fill="#42A5F5" fill-opacity="0.8"/>
<path d="M23.4633 42.4633L29.0001 48.0001H43.7811L30.8547 35.0737" fill="#0D47A1"/>
<path d="M16.0893 35.0771L23.4691 27.6953L30.849 35.0752L23.4691 42.4569L16.0893 35.0771Z" fill="#42A5F5"/>
<path d="M23.4691 42.4575L30.849 35.0776L31.8791 36.1078L24.4993 43.4876L23.4691 42.4575Z" fill="url(#paint0_linear_301_756)"/>
<path d="M23.4633 42.4633L34.4302 38.6744L30.8547 35.0718" fill="url(#paint1_linear_301_756)"/>
</g>
<defs>
<linearGradient id="paint0_linear_301_756" x1="26.6453" y1="39.2813" x2="27.6756" y2="40.3115" gradientUnits="userSpaceOnUse">
<stop offset="0.2" stop-opacity="0.15"/>
<stop offset="0.85" stop-color="#616161" stop-opacity="0.01"/>
</linearGradient>
<linearGradient id="paint1_linear_301_756" x1="23.4659" y1="42.4634" x2="34.4326" y2="42.4634" gradientUnits="userSpaceOnUse">
<stop offset="0.2" stop-opacity="0.55"/>
<stop offset="0.85" stop-color="#616161" stop-opacity="0.01"/>
</linearGradient>
<clipPath id="clip0_301_756">
<rect width="48" height="48" fill="white"/>
</clipPath>
</defs>
</svg>
