<svg width="96" height="96" viewBox="0 0 96 96" fill="none" xmlns="http://www.w3.org/2000/svg">
<path fill-rule="evenodd" clip-rule="evenodd" d="M21.2653 0C9.52083 0 0 9.52083 0 21.2653V21.2653V74.7347C0 86.4792 9.52083 96 21.2653 96V96H74.7347C86.4792 96 96 86.4792 96 74.7347V74.7347V21.2653C96 9.52083 86.4792 0 74.7347 0V0H21.2653Z" fill="#FAFAFB"/>
<path fill-rule="evenodd" clip-rule="evenodd" d="M23.6657 48.9725C23.541 48.9725 23.5099 48.879 23.5722 48.7856L24.0084 48.0065C24.0707 47.9131 24.1954 47.8196 24.32 47.8196H30.5521C30.6768 47.8196 30.7391 47.9131 30.7391 48.0377L30.6768 48.7856C30.6768 48.9102 30.5521 49.0037 30.4587 49.0037L23.6657 48.9725Z" fill="#00ACD7"/>
<path fill-rule="evenodd" clip-rule="evenodd" d="M16.1246 46.1068C16 46.1068 15.9688 46.0445 16.0312 45.951L16.6855 45.1097C16.7479 45.0162 16.9037 44.9539 17.0283 44.9539H31.2375C31.3622 44.9539 31.4245 45.0473 31.3933 45.1408L31.144 45.8887C31.1129 46.0133 30.9882 46.0756 30.8636 46.0756L16.1246 46.1068Z" fill="#00ACD7"/>
<path fill-rule="evenodd" clip-rule="evenodd" d="M20.8297 43.2396C20.7051 43.2396 20.6739 43.1773 20.7362 43.0838L21.3906 42.2425C21.4529 42.149 21.6087 42.0867 21.7334 42.0867H32.8577C32.9823 42.0867 33.0135 42.1802 32.9512 42.2736L32.4215 43.0838C32.3591 43.1773 32.2033 43.2708 32.1098 43.2708L20.8297 43.2396Z" fill="#00ACD7"/>
<path fill-rule="evenodd" clip-rule="evenodd" d="M56.0098 42.6791C54.0467 43.1776 52.7068 43.5516 50.7749 44.0501C50.3074 44.1748 50.2763 44.2059 49.8712 43.7385C49.4038 43.2088 49.061 42.866 48.4066 42.5544C46.4435 41.5884 44.5427 41.8689 42.7666 43.0218C40.6477 44.3929 39.557 46.4183 39.5882 48.9423C39.6194 51.4352 41.3332 53.4918 43.7949 53.8345C45.9138 54.115 47.69 53.3671 49.0922 51.7779C49.3726 51.4352 49.6219 51.0613 49.9335 50.625C48.8117 50.625 47.4095 50.625 43.9195 50.625C43.2652 50.625 43.1094 50.2199 43.3275 49.6902C43.7326 48.7242 44.4804 47.1039 44.9167 46.2937C45.0101 46.1067 45.2283 45.7951 45.6957 45.7951H57.0381C56.9758 46.6365 56.9758 47.4778 56.8512 48.3191C56.5084 50.5627 55.6671 52.6193 54.296 54.4266C52.0524 57.3868 49.1233 59.2253 45.4152 59.7239C42.3615 60.129 39.5259 59.5369 37.033 57.6673C34.7272 55.9223 33.4184 53.6164 33.0756 50.7496C32.6706 47.3531 33.6677 44.2994 35.7243 41.6196C37.9367 38.7217 40.8658 36.8832 44.4493 36.2288C47.3783 35.6991 50.1828 36.0419 52.7068 37.7557C54.3583 38.8463 55.5424 40.342 56.3214 42.1493C56.5084 42.4298 56.3838 42.5856 56.0098 42.6791V42.6791Z" fill="#00ACD7"/>
<path fill-rule="evenodd" clip-rule="evenodd" d="M66.3242 59.9106C63.4886 59.8483 60.9022 59.0381 58.721 57.1685C56.8825 55.5793 55.7296 53.5539 55.3557 51.1545C54.7948 47.6334 55.7607 44.5173 57.8797 41.744C60.1544 38.7526 62.8965 37.1946 66.6046 36.5402C69.783 35.9793 72.7744 36.2909 75.4854 38.1294C77.9471 39.8121 79.4739 42.0868 79.879 45.0782C80.4088 49.2849 79.1935 52.7126 76.2956 55.6416C74.239 57.7294 71.715 59.0381 68.817 59.6302C67.9757 59.786 67.1344 59.8172 66.3242 59.9106V59.9106ZM73.7401 47.3222C73.709 46.9171 73.709 46.6055 73.6466 46.2939C73.0857 43.209 70.2501 41.464 67.2899 42.1495C64.3919 42.8039 62.5223 44.6424 61.8368 47.5715C61.2759 50.002 62.46 52.4637 64.7035 53.4608C66.4174 54.2087 68.1312 54.1152 69.7827 53.2739C72.2444 51.9963 73.5843 50.002 73.7401 47.3222V47.3222Z" fill="#00ACD7"/>
</svg>
