<svg width="40" height="40" viewBox="0 0 40 40" fill="none" xmlns="http://www.w3.org/2000/svg">
<path d="M0.25 8.86056C0.25 4.10508 4.10508 0.25 8.86056 0.25H31.1394C35.8949 0.25 39.75 4.10508 39.75 8.86056V31.1394C39.75 35.8949 35.8949 39.75 31.1394 39.75H8.86056C4.10508 39.75 0.25 35.8949 0.25 31.1394V8.86056Z" fill="white" stroke="#C6CED9" stroke-width="0.5"/>
<path fill-rule="evenodd" clip-rule="evenodd" d="M9.35373 20.4255C9.29919 20.4255 9.28556 20.3846 9.31283 20.3437L9.50369 20.0029C9.53095 19.962 9.58548 19.9211 9.64001 19.9211H12.3666C12.4211 19.9211 12.4484 19.962 12.4484 20.0165L12.4211 20.3437C12.4211 20.3982 12.3666 20.4391 12.3257 20.4391L9.35373 20.4255Z" fill="#00ACD7"/>
<path fill-rule="evenodd" clip-rule="evenodd" d="M6.05453 19.1717C6 19.1717 5.98637 19.1444 6.01363 19.1035L6.29992 18.7355C6.32719 18.6946 6.39535 18.6673 6.44988 18.6673H12.6664C12.7209 18.6673 12.7482 18.7082 12.7346 18.7491L12.6255 19.0763C12.6119 19.1308 12.5574 19.1581 12.5028 19.1581L6.05453 19.1717Z" fill="#00ACD7"/>
<path fill-rule="evenodd" clip-rule="evenodd" d="M8.113 17.9173C8.05847 17.9173 8.04484 17.89 8.0721 17.8492L8.35839 17.4811C8.38566 17.4402 8.45382 17.4129 8.50835 17.4129H13.3752C13.4298 17.4129 13.4434 17.4538 13.4161 17.4947L13.1844 17.8492C13.1571 17.89 13.089 17.9309 13.0481 17.9309L8.113 17.9173Z" fill="#00ACD7"/>
<path fill-rule="evenodd" clip-rule="evenodd" d="M23.5045 17.6721C22.6456 17.8902 22.0594 18.0538 21.2141 18.2719C21.0097 18.3265 20.996 18.3401 20.8188 18.1356C20.6143 17.9038 20.4643 17.7539 20.1781 17.6176C19.3192 17.1949 18.4876 17.3176 17.7105 17.822C16.7835 18.4219 16.3064 19.308 16.32 20.4123C16.3336 21.5029 17.0834 22.4027 18.1604 22.5526C19.0874 22.6753 19.8645 22.3481 20.478 21.6529C20.6007 21.5029 20.7097 21.3393 20.8461 21.1484C20.3553 21.1484 19.7418 21.1484 18.2149 21.1484C17.9287 21.1484 17.8605 20.9712 17.9559 20.7395C18.1331 20.3168 18.4603 19.6079 18.6512 19.2535C18.6921 19.1717 18.7875 19.0354 18.992 19.0354H23.9543C23.9271 19.4034 23.9271 19.7715 23.8725 20.1396C23.7226 21.1212 23.3545 22.0209 22.7547 22.8116C21.7731 24.1067 20.4916 24.9111 18.8693 25.1292C17.5333 25.3064 16.2927 25.0474 15.2021 24.2294C14.1933 23.466 13.6207 22.4572 13.4707 21.203C13.2935 19.717 13.7298 18.381 14.6295 17.2086C15.5975 15.9407 16.8789 15.1364 18.4467 14.8501C19.7282 14.6184 20.9551 14.7683 22.0594 15.5181C22.7819 15.9953 23.3 16.6496 23.6408 17.4403C23.7226 17.563 23.668 17.6312 23.5045 17.6721V17.6721Z" fill="#00ACD7"/>
<path fill-rule="evenodd" clip-rule="evenodd" d="M28.0168 25.2109C26.7762 25.1837 25.6447 24.8292 24.6904 24.0112C23.8861 23.316 23.3817 22.4298 23.2181 21.3801C22.9727 19.8396 23.3953 18.4763 24.3223 17.263C25.3175 15.9543 26.5172 15.2726 28.1395 14.9864C29.53 14.741 30.8388 14.8773 32.0248 15.6816C33.1018 16.4178 33.7698 17.413 33.947 18.7217C34.1788 20.5622 33.6471 22.0618 32.3793 23.3432C31.4795 24.2566 30.3753 24.8292 29.1074 25.0882C28.7393 25.1564 28.3713 25.17 28.0168 25.2109V25.2109ZM31.2615 19.7034C31.2478 19.5262 31.2478 19.3898 31.2206 19.2535C30.9752 17.9039 29.7346 17.1404 28.4395 17.4404C27.1716 17.7267 26.3537 18.531 26.0538 19.8125C25.8084 20.8758 26.3264 21.9528 27.308 22.3891C28.0578 22.7162 28.8076 22.6753 29.5301 22.3073C30.6071 21.7483 31.1933 20.8758 31.2615 19.7034V19.7034Z" fill="#00ACD7"/>
</svg>
