<svg width="70" height="42" viewBox="0 0 70 42" fill="none" xmlns="http://www.w3.org/2000/svg">
<path d="M44.0884 4.75C40.0355 4.75 36.75 8.03554 36.75 12.0884V29.9116C36.75 33.9645 40.0355 37.25 44.0884 37.25H61.9116C65.9645 37.25 69.25 33.9645 69.25 29.9116V12.0884C69.25 8.03554 65.9645 4.75 61.9116 4.75H44.0884Z" fill="white" stroke="#C6CED9" stroke-width="0.5"/>
<path d="M58.1517 23.893C57.9672 23.893 57.7869 23.8383 57.6335 23.7359C57.48 23.6334 57.3604 23.4877 57.2898 23.3173C57.2192 23.1468 57.2007 22.9593 57.2366 22.7783C57.2726 22.5974 57.3614 22.4311 57.4918 22.3007C57.6223 22.1702 57.7885 22.0813 57.9694 22.0453C58.1503 22.0092 58.3379 22.0277 58.5084 22.0982C58.6788 22.1688 58.8245 22.2884 58.9271 22.4417C59.0296 22.5951 59.0843 22.7755 59.0844 22.96C59.0841 23.2073 58.9858 23.4444 58.8109 23.6193C58.6361 23.7942 58.399 23.8926 58.1517 23.893ZM47.842 23.893C47.6575 23.893 47.4772 23.8383 47.3237 23.7359C47.1703 23.6334 47.0507 23.4877 46.9801 23.3173C46.9095 23.1468 46.891 22.9593 46.9269 22.7783C46.9629 22.5974 47.0517 22.4311 47.1821 22.3007C47.3125 22.1702 47.4787 22.0813 47.6597 22.0453C47.8406 22.0092 48.0282 22.0277 48.1987 22.0982C48.3691 22.1688 48.5148 22.2884 48.6174 22.4417C48.7199 22.5951 48.7746 22.7755 48.7747 22.96C48.7744 23.2073 48.6761 23.4444 48.5013 23.6193C48.3264 23.7942 48.0893 23.8926 47.842 23.893ZM58.4862 18.2744L60.3503 15.0458C60.3758 15.0017 60.3923 14.953 60.399 14.9025C60.4057 14.852 60.4024 14.8007 60.3892 14.7515C60.3761 14.7022 60.3533 14.6561 60.3223 14.6157C60.2914 14.5752 60.2527 14.5413 60.2086 14.5158C60.1645 14.4903 60.1158 14.4738 60.0653 14.4671C60.0148 14.4604 59.9635 14.4637 59.9143 14.4769C59.8651 14.4901 59.8189 14.5128 59.7785 14.5438C59.7381 14.5747 59.7042 14.6134 59.6787 14.6575L57.791 17.9269C56.3476 17.2681 54.7265 16.9012 52.9967 16.9012C51.2669 16.9012 49.646 17.2686 48.2025 17.9269L46.3151 14.6575C46.2896 14.6134 46.2557 14.5747 46.2153 14.5437C46.1749 14.5127 46.1288 14.4899 46.0796 14.4768C46.0304 14.4636 45.9791 14.4602 45.9286 14.4668C45.8781 14.4735 45.8294 14.49 45.7853 14.5155C45.7412 14.5409 45.7025 14.5748 45.6715 14.6152C45.6405 14.6556 45.6178 14.7017 45.6046 14.7509C45.5914 14.8001 45.588 14.8514 45.5947 14.9019C45.6013 14.9524 45.6178 15.0011 45.6433 15.0452L47.5075 18.2744C44.3065 20.0154 42.1171 23.256 41.7969 27.0847H64.1969C63.8763 23.256 61.687 20.0154 58.4862 18.2744Z" fill="#3DDC84"/>
<path d="M9.86056 0.75C4.82894 0.75 0.75 4.82894 0.75 9.86056V32.1394C0.75 37.1711 4.82894 41.25 9.86056 41.25H32.1394C37.1711 41.25 41.25 37.1711 41.25 32.1394V9.86056C41.25 4.82894 37.1711 0.75 32.1394 0.75H9.86056Z" fill="white" stroke="#C6CED9" stroke-width="0.5"/>
<g clip-path="url(#clip0_391_16060)">
<path fill-rule="evenodd" clip-rule="evenodd" d="M17.2275 27.7274C17.4785 27.5256 17.7894 27.4218 18.0951 27.3346C17.9968 27.4272 17.8222 27.5418 17.8987 27.7001C18.046 27.8912 18.3188 27.913 18.5371 27.9622C19.4591 28.0766 20.3922 28.153 21.3144 28.082C22.0127 28.0384 22.7 27.913 23.3823 27.7928C23.7749 28.022 24.1842 28.2184 24.6042 28.393C23.9604 28.6822 23.2676 28.8677 22.5748 28.9988C21.4071 29.2059 20.2012 29.2333 19.028 29.0478C18.5097 28.9551 17.9804 28.835 17.5113 28.5785C17.3312 28.475 17.1403 28.3549 17.0639 28.153C17.0038 27.9947 17.102 27.8258 17.2275 27.7274" fill="#0B6FB6"/>
<path fill-rule="evenodd" clip-rule="evenodd" d="M14.1993 29.2715C14.7014 29.1024 15.2197 28.9659 15.749 28.9497C15.9618 28.9442 16.1799 28.9551 16.3654 29.0642C15.7326 29.1024 15.0995 29.2606 14.5321 29.5498C14.4067 29.6207 14.2647 29.7026 14.2157 29.8499C14.2157 30.0189 14.4067 30.0736 14.5321 30.1281C15.3234 30.4227 16.1689 30.5155 16.9985 30.6029C19.47 30.8102 21.958 30.7556 24.4297 30.5319C25.3628 30.4282 26.3012 30.3246 27.207 30.0681C27.4961 29.9698 27.8234 29.8717 28.0145 29.6152C28.1291 29.4625 28.0529 29.2715 27.9383 29.1406C28.1236 29.2444 28.3856 29.3753 28.3476 29.6263C28.2766 29.8881 28.009 30.0244 27.7908 30.15C27.0924 30.5047 26.323 30.6847 25.5592 30.843C23.3386 31.2793 21.0633 31.3777 18.8043 31.3122C17.102 31.252 15.3997 31.0884 13.7191 30.7994C13.4191 30.7284 13.0808 30.6682 12.8625 30.4338C12.7207 30.27 12.8461 30.0408 12.9824 29.9209C13.3263 29.6045 13.7683 29.4297 14.1993 29.2715" fill="#0B6FB6"/>
<path fill-rule="evenodd" clip-rule="evenodd" d="M27.7963 31.1376C28.3476 30.9466 28.9366 30.7447 29.3458 30.3082C29.2748 30.7829 28.8656 31.1103 28.4618 31.323C27.6873 31.7269 26.8195 31.9123 25.9576 32.065C24.135 32.3543 22.2856 32.4251 20.4357 32.3926C19.1753 32.3543 17.9041 32.3052 16.6654 32.0432C16.3708 31.9615 16.0543 31.9068 15.7979 31.7323C16.9 31.9178 18.0187 31.9943 19.1373 32.0379C20.976 32.0923 22.8202 32.0216 24.6481 31.7921C25.7066 31.6449 26.7705 31.4649 27.7963 31.1376" fill="#0B6FB6"/>
<path fill-rule="evenodd" clip-rule="evenodd" d="M27.7963 31.1376C28.3476 30.9466 28.9366 30.7447 29.3458 30.3082C29.2748 30.7829 28.8656 31.1103 28.4618 31.323C27.6873 31.7269 26.8195 31.9123 25.9576 32.065C24.135 32.3543 22.2856 32.4251 20.4357 32.3926C19.1753 32.3543 17.9041 32.3052 16.6654 32.0432C16.3708 31.9615 16.0543 31.9068 15.7979 31.7323C16.9 31.9178 18.0187 31.9943 19.1373 32.0379C20.976 32.0923 22.8202 32.0216 24.6481 31.7921C25.7066 31.6449 26.7705 31.4649 27.7963 31.1376Z" stroke="#0B6FB6" stroke-width="0.658824"/>
<path fill-rule="evenodd" clip-rule="evenodd" d="M16.5944 25.3486C16.8782 25.1249 17.2166 24.9994 17.5548 24.8793C17.4458 25.0103 17.2929 25.1358 17.282 25.3158C17.2765 25.4303 17.3694 25.5177 17.462 25.5723C17.642 25.6649 17.8439 25.6977 18.046 25.725C19.0934 25.8342 20.1519 25.8943 21.2105 25.8233C22.1761 25.7741 23.1366 25.6159 24.0916 25.4467C24.3534 25.6923 24.6644 25.8615 24.9918 26.0088C23.8403 26.347 22.6564 26.5435 21.467 26.6363C20.3431 26.7126 19.2027 26.7073 18.084 26.527C17.642 26.4453 17.1893 26.3525 16.7856 26.1451C16.6219 26.0579 16.4364 25.9433 16.3872 25.7523C16.3545 25.5886 16.4745 25.4412 16.5944 25.3486" fill="#0B6FB6"/>
<path fill-rule="evenodd" clip-rule="evenodd" d="M23.3278 10C23.8404 10.5838 24.0096 11.4187 23.8624 12.1717C23.7039 13.0174 23.2348 13.7649 22.6838 14.4088C22.2419 14.9272 21.7343 15.3854 21.2052 15.811C20.5886 16.3074 19.9829 16.8422 19.5956 17.5407C19.2681 18.1081 19.1918 18.8064 19.4154 19.4231C19.7809 20.4815 20.6323 21.2673 21.0961 22.2658C20.5831 21.8129 20.0811 21.3438 19.6118 20.8472C19.1208 20.3233 18.657 19.7668 18.3515 19.112C18.1442 18.6537 18.0514 18.119 18.2096 17.6334C18.3679 17.1369 18.7225 16.7386 19.0772 16.3675C20.0647 15.3799 21.2814 14.6543 22.2471 13.6504C22.7822 13.0992 23.224 12.439 23.3767 11.6806C23.5023 11.1241 23.4421 10.5512 23.3278 10" fill="#E11F22"/>
<path fill-rule="evenodd" clip-rule="evenodd" d="M22.5199 16.215C23.5784 15.4346 24.817 14.9382 26.0719 14.578C25.0791 15.2109 24.0424 15.7892 23.1857 16.6022C22.8745 16.9023 22.5801 17.2461 22.4437 17.6662C22.3399 17.9773 22.3835 18.321 22.5092 18.6157C22.7384 19.1394 23.1255 19.565 23.4202 20.0452C23.6713 20.4544 23.7148 20.9782 23.5241 21.4202C23.2347 22.0694 22.6674 22.5442 22.078 22.9206C22.0016 22.9643 21.9361 23.0461 21.8433 23.057C22.2363 22.7024 22.5417 22.2004 22.5309 21.6602C22.5199 21.2565 22.2962 20.9019 22.0344 20.6126C21.4942 19.9688 21.0412 19.1503 21.1341 18.2828C21.2269 17.4152 21.8488 16.7169 22.5199 16.215" fill="#E11F22"/>
<path fill-rule="evenodd" clip-rule="evenodd" d="M26.2743 22.5223C26.5032 22.2442 26.8689 22.1732 27.2016 22.1295C27.7802 22.0532 28.3967 22.2005 28.8331 22.5988C29.1933 22.9206 29.3952 23.4227 29.3187 23.9083C29.237 24.4703 28.8603 24.9396 28.435 25.2942C27.6656 25.9107 26.7162 26.2708 25.7667 26.5109C25.8214 26.4508 25.8813 26.3962 25.9522 26.3527C26.6725 25.9653 27.3872 25.5124 27.9166 24.8795C28.2383 24.4867 28.4894 23.9737 28.3858 23.4554C28.2768 22.8552 27.6929 22.4187 27.0981 22.386C26.8142 22.3587 26.5471 22.4679 26.2743 22.5223" fill="#0B6FB6"/>
<path fill-rule="evenodd" clip-rule="evenodd" d="M15.307 23.0188C16.3109 22.5877 17.4021 22.3096 18.4988 22.3259C17.8604 22.5114 17.2057 22.6696 16.6055 22.9534C16.4636 23.0297 16.3 23.1007 16.2181 23.248C16.1746 23.3626 16.2945 23.4389 16.3817 23.4771C16.7527 23.6299 17.1621 23.6517 17.5604 23.69C18.9571 23.7828 20.3594 23.7282 21.751 23.6408C23.1256 23.5536 24.4899 23.3681 25.8483 23.1498C25.5484 23.2916 25.2427 23.4336 24.9646 23.6135C24.8226 23.7118 24.6482 23.7391 24.4899 23.7773C22.8202 24.1483 21.1068 24.2628 19.4046 24.2901C18.7443 24.2956 18.0896 24.2847 17.4349 24.2411C16.7038 24.192 15.9671 24.1374 15.2524 23.9464C15.045 23.8863 14.8268 23.8208 14.6631 23.6735C14.5812 23.6082 14.5812 23.4771 14.6522 23.4007C14.8322 23.2152 15.0833 23.128 15.307 23.0188" fill="#0B6FB6"/>
</g>
<defs>
<clipPath id="clip0_391_16060">
<rect width="22.4" height="22.4" fill="white" transform="translate(10 10)"/>
</clipPath>
</defs>
</svg>
