<svg width="40" height="40" viewBox="0 0 40 40" fill="none" xmlns="http://www.w3.org/2000/svg">
<path d="M0.25 8.86056C0.25 4.10508 4.10508 0.25 8.86056 0.25H31.1394C35.8949 0.25 39.75 4.10508 39.75 8.86056V31.1394C39.75 35.8949 35.8949 39.75 31.1394 39.75H8.86056C4.10508 39.75 0.25 35.8949 0.25 31.1394V8.86056Z" fill="white" stroke="#C6CED9" stroke-width="0.5"/>
<g clip-path="url(#clip0_810_3854)">
<path fill-rule="evenodd" clip-rule="evenodd" d="M15.0421 28.1592C15.3559 27.907 15.7445 27.7773 16.1266 27.6682C16.0038 27.784 15.7855 27.9273 15.8811 28.1251C16.0653 28.364 16.4062 28.3913 16.6791 28.4528C17.8317 28.5958 18.998 28.6912 20.1507 28.6025C21.0236 28.548 21.8828 28.3913 22.7356 28.241C23.2264 28.5275 23.7381 28.773 24.263 28.9913C23.4583 29.3527 22.5922 29.5846 21.7262 29.7485C20.2666 30.0074 18.7592 30.0417 17.2928 29.8098C16.6448 29.6939 15.9833 29.5438 15.3969 29.2232C15.1717 29.0938 14.9331 28.9436 14.8376 28.6912C14.7625 28.4934 14.8852 28.2822 15.0421 28.1592" fill="#0B6FB6"/>
<path fill-rule="evenodd" clip-rule="evenodd" d="M11.2568 30.0894C11.8845 29.878 12.5324 29.7074 13.1939 29.6871C13.4599 29.6802 13.7327 29.6938 13.9645 29.8303C13.1734 29.878 12.3822 30.0758 11.6729 30.4372C11.5161 30.5259 11.3387 30.6282 11.2773 30.8124C11.2773 31.0236 11.5161 31.092 11.6729 31.1601C12.6619 31.5284 13.7189 31.6443 14.7558 31.7536C17.8453 32.0127 20.9552 31.9445 24.0449 31.6648C25.2112 31.5353 26.3842 31.4057 27.5165 31.0851C27.8779 30.9623 28.2871 30.8396 28.5258 30.519C28.6692 30.3281 28.5739 30.0894 28.4306 29.9257C28.6623 30.0554 28.9898 30.2191 28.9422 30.5328C28.8535 30.8601 28.5189 31.0305 28.2462 31.1875C27.3733 31.6309 26.4115 31.8559 25.4567 32.0537C22.681 32.5991 19.8368 32.7221 17.0132 32.6403C14.8852 32.565 12.7574 32.3605 10.6566 31.9992C10.2816 31.9105 9.85881 31.8352 9.58592 31.5422C9.40865 31.3375 9.56542 31.051 9.7358 30.9011C10.1656 30.5056 10.7181 30.2871 11.2568 30.0894" fill="#0B6FB6"/>
<path fill-rule="evenodd" clip-rule="evenodd" d="M28.2531 32.422C28.9422 32.1832 29.6786 31.9309 30.19 31.3853C30.1013 31.9786 29.5898 32.3879 29.0851 32.6537C28.1169 33.1587 27.0322 33.3904 25.9548 33.5813C23.6765 33.9429 21.3648 34.0314 19.0524 33.9908C17.4769 33.9429 15.8879 33.8816 14.3396 33.5541C13.9713 33.4519 13.5757 33.3835 13.2551 33.1654C14.6328 33.3973 16.0312 33.4929 17.4294 33.5473C19.7278 33.6154 22.033 33.527 24.3179 33.2402C25.641 33.0562 26.9709 32.8312 28.2531 32.422" fill="#0B6FB6"/>
<path fill-rule="evenodd" clip-rule="evenodd" d="M28.2531 32.422C28.9422 32.1832 29.6786 31.9309 30.19 31.3853C30.1013 31.9786 29.5898 32.3879 29.0851 32.6537C28.1169 33.1587 27.0322 33.3904 25.9548 33.5813C23.6765 33.9429 21.3648 34.0314 19.0524 33.9908C17.4769 33.9429 15.8879 33.8816 14.3396 33.5541C13.9713 33.4519 13.5757 33.3835 13.2551 33.1654C14.6328 33.3973 16.0312 33.4929 17.4294 33.5473C19.7278 33.6154 22.033 33.527 24.3179 33.2402C25.641 33.0562 26.9709 32.8312 28.2531 32.422Z" stroke="#0B6FB6" stroke-width="0.658824"/>
<path fill-rule="evenodd" clip-rule="evenodd" d="M14.2508 25.1859C14.6055 24.9062 15.0285 24.7493 15.4512 24.5992C15.315 24.7629 15.1239 24.9199 15.1103 25.1448C15.1034 25.288 15.2195 25.3972 15.3353 25.4655C15.5603 25.5812 15.8127 25.6222 16.0652 25.6563C17.3746 25.7928 18.6976 25.8679 20.0209 25.7792C21.2279 25.7177 22.4285 25.5199 23.6222 25.3085C23.9496 25.6155 24.3382 25.8269 24.7475 26.0111C23.3082 26.4338 21.8283 26.6795 20.3415 26.7954C18.9366 26.8909 17.5112 26.8842 16.1128 26.6588C15.5603 26.5567 14.9944 26.4407 14.4898 26.1814C14.2851 26.0724 14.0532 25.9292 13.9917 25.6905C13.9509 25.4858 14.1009 25.3016 14.2508 25.1859" fill="#0B6FB6"/>
<path fill-rule="evenodd" clip-rule="evenodd" d="M22.6675 6C23.3082 6.72977 23.5198 7.77344 23.3358 8.71459C23.1377 9.77169 22.5512 10.7061 21.8625 11.511C21.3101 12.159 20.6756 12.7318 20.0143 13.2638C19.2435 13.8843 18.4863 14.5528 18.0022 15.4259C17.5929 16.1351 17.4974 17.0081 17.7771 17.7788C18.2339 19.1019 19.2981 20.0841 19.8778 21.3322C19.2366 20.7661 18.6092 20.1797 18.0225 19.559C17.4087 18.9042 16.829 18.2085 16.4471 17.39C16.188 16.8172 16.072 16.1487 16.2698 15.5418C16.4676 14.9211 16.9108 14.4232 17.3543 13.9594C18.5887 12.7249 20.1095 11.8178 21.3167 10.563C21.9855 9.87402 22.5378 9.04881 22.7287 8.10076C22.8856 7.4051 22.8103 6.68894 22.6675 6" fill="#E11F22"/>
<path fill-rule="evenodd" clip-rule="evenodd" d="M21.6578 13.7687C22.9809 12.7932 24.5291 12.1727 26.0977 11.7225C24.8568 12.5136 23.5609 13.2365 22.49 14.2528C22.101 14.6278 21.733 15.0577 21.5625 15.5828C21.4328 15.9716 21.4872 16.4013 21.6443 16.7696C21.9308 17.4243 22.4147 17.9562 22.7831 18.5565C23.097 19.068 23.1514 19.7228 22.913 20.2753C22.5512 21.0867 21.8421 21.6802 21.1054 22.1507C21.0098 22.2053 20.928 22.3077 20.812 22.3213C21.3032 21.878 21.685 21.2506 21.6715 20.5752C21.6578 20.0706 21.3781 19.6273 21.0508 19.2657C20.3757 18.461 19.8094 17.4379 19.9255 16.3535C20.0414 15.2691 20.8189 14.3961 21.6578 13.7687" fill="#E11F22"/>
<path fill-rule="evenodd" clip-rule="evenodd" d="M26.3506 21.6528C26.6367 21.3052 27.0938 21.2165 27.5096 21.1618C28.2329 21.0664 29.0035 21.2506 29.5491 21.7484C29.9992 22.1507 30.2516 22.7783 30.156 23.3853C30.0538 24.0878 29.583 24.6744 29.0514 25.1177C28.0897 25.8883 26.9029 26.3385 25.716 26.6386C25.7844 26.5634 25.8592 26.4952 25.9479 26.4408C26.8483 25.9565 27.7417 25.3904 28.4034 24.5993C28.8055 24.1083 29.1194 23.4671 28.9899 22.8192C28.8536 22.0689 28.1238 21.5233 27.3803 21.4825C27.0254 21.4483 26.6915 21.5848 26.3506 21.6528" fill="#0B6FB6"/>
<path fill-rule="evenodd" clip-rule="evenodd" d="M12.6414 22.2736C13.8963 21.7347 15.2604 21.387 16.6312 21.4073C15.8332 21.6392 15.0149 21.837 14.2646 22.1917C14.0872 22.2872 13.8827 22.3759 13.7804 22.5601C13.7259 22.7032 13.8758 22.7987 13.9849 22.8464C14.4486 23.0374 14.9603 23.0647 15.4582 23.1126C17.2041 23.2285 18.957 23.1603 20.6965 23.051C22.4148 22.942 24.1202 22.7101 25.8181 22.4372C25.4433 22.6145 25.0611 22.7919 24.7135 23.0169C24.536 23.1398 24.3179 23.1739 24.1202 23.2216C22.033 23.6854 19.8912 23.8285 17.7634 23.8626C16.9381 23.8695 16.1197 23.8559 15.3014 23.8013C14.3875 23.74 13.4667 23.6718 12.5732 23.433C12.3139 23.3579 12.0412 23.276 11.8366 23.0919C11.7342 23.0102 11.7342 22.8464 11.8229 22.7509C12.0479 22.5191 12.3618 22.41 12.6414 22.2736" fill="#0B6FB6"/>
</g>
<defs>
<clipPath id="clip0_810_3854">
<rect width="28" height="28" fill="white" transform="translate(6.00781 6)"/>
</clipPath>
</defs>
</svg>
