<svg width="134" height="146" viewBox="0 0 134 146" fill="none" xmlns="http://www.w3.org/2000/svg">
<g filter="url(#filter0_d_265_12434)">
<path fill-rule="evenodd" clip-rule="evenodd" d="M40.2653 0C28.5208 0 19 9.52083 19 21.2653V21.2653V74.7347C19 86.4792 28.5208 96 40.2653 96V96H93.7347C105.479 96 115 86.4792 115 74.7347V74.7347V21.2653C115 9.52083 105.479 0 93.7347 0V0H40.2653Z" fill="#FAFAFB"/>
</g>
<g clip-path="url(#clip0_265_12434)">
<path fill-rule="evenodd" clip-rule="evenodd" d="M54.2311 68.9808C55.0378 68.3323 56.0372 67.9987 57.0198 67.7183C56.7039 68.0159 56.1427 68.3845 56.3885 68.8931C56.8621 69.5076 57.7388 69.5775 58.4405 69.7357C61.4042 70.1034 64.4033 70.3488 67.3674 70.1206C69.6121 69.9807 71.8213 69.5775 74.0142 69.1912C75.2763 69.9279 76.592 70.5592 77.9418 71.1205C75.8726 72.0499 73.6456 72.6462 71.4187 73.0675C67.6656 73.7333 63.7893 73.8215 60.0185 73.2252C58.3523 72.9271 56.6512 72.5412 55.1433 71.7168C54.5642 71.3841 53.9507 70.9978 53.7053 70.3488C53.5121 69.8402 53.8275 69.2971 54.2311 68.9808" fill="#0B6FB6"/>
<path fill-rule="evenodd" clip-rule="evenodd" d="M44.4975 73.9441C46.1114 73.4005 47.7775 72.9619 49.4786 72.9097C50.1626 72.8919 50.8639 72.9269 51.4602 73.2778C49.4259 73.4005 47.3912 73.9091 45.5674 74.8385C45.1642 75.0666 44.7079 75.3298 44.5502 75.8033C44.5502 76.3465 45.1642 76.5223 45.5674 76.6973C48.1106 77.6444 50.8284 77.9426 53.4949 78.2235C61.4392 78.8897 69.4362 78.7143 77.381 77.9953C80.3801 77.6622 83.3965 77.329 86.3079 76.5046C87.2373 76.1887 88.2895 75.8733 88.9035 75.0489C89.272 74.5581 89.0271 73.9441 88.6585 73.5232C89.2543 73.8568 90.0965 74.2777 89.9742 75.0844C89.7461 75.9261 88.8857 76.3642 88.1845 76.7678C85.9398 77.908 83.4665 78.4866 81.0114 78.9952C73.8738 80.3977 66.5603 80.714 59.2995 80.5036C53.8275 80.31 48.3561 79.7841 42.9541 78.8552C41.9897 78.627 40.9026 78.4334 40.2008 77.6799C39.745 77.1536 40.1481 76.4169 40.5862 76.0315C41.6915 75.0144 43.1123 74.4526 44.4975 73.9441" fill="#0B6FB6"/>
<path fill-rule="evenodd" clip-rule="evenodd" d="M88.2021 79.9424C89.9741 79.3283 91.8675 78.6793 93.1827 77.2764C92.9546 78.8021 91.6393 79.8546 90.3413 80.5382C87.8517 81.8366 85.0625 82.4325 82.292 82.9233C76.4337 83.8532 70.4891 84.0809 64.5432 83.9763C60.4919 83.8532 56.4057 83.6955 52.4244 82.8533C51.4773 82.5906 50.4602 82.4147 49.6357 81.8539C53.1784 82.4502 56.7743 82.6961 60.3697 82.836C66.2797 83.011 72.2075 82.7838 78.0831 82.0461C81.4853 81.573 84.9048 80.9945 88.2021 79.9424" fill="#0B6FB6"/>
<path fill-rule="evenodd" clip-rule="evenodd" d="M88.2021 79.9424C89.9741 79.3283 91.8675 78.6793 93.1827 77.2764C92.9546 78.8021 91.6393 79.8546 90.3413 80.5382C87.8517 81.8366 85.0625 82.4325 82.292 82.9233C76.4337 83.8532 70.4891 84.0809 64.5432 83.9763C60.4919 83.8532 56.4057 83.6955 52.4244 82.8533C51.4773 82.5906 50.4602 82.4147 49.6357 81.8539C53.1784 82.4502 56.7743 82.6961 60.3697 82.836C66.2797 83.011 72.2075 82.7838 78.0831 82.0461C81.4853 81.573 84.9048 80.9945 88.2021 79.9424Z" stroke="#0B6FB6" stroke-width="1.05882"/>
<path fill-rule="evenodd" clip-rule="evenodd" d="M52.196 61.3348C53.1081 60.6158 54.1957 60.2123 55.2828 59.8264C54.9324 60.2473 54.4411 60.6508 54.4061 61.2294C54.3884 61.5975 54.687 61.8784 54.9847 62.0538C55.5632 62.3515 56.2122 62.457 56.8617 62.5447C60.2285 62.8955 63.6307 63.0887 67.0334 62.8605C70.1371 62.7024 73.2243 62.1938 76.2939 61.6502C77.1356 62.4397 78.135 62.9832 79.1876 63.4568C75.4863 64.5439 71.6809 65.1757 67.8578 65.4738C64.2452 65.7192 60.5798 65.7019 56.9839 65.1225C55.5632 64.8598 54.108 64.5617 52.8104 63.8949C52.2841 63.6145 51.6879 63.2464 51.5297 62.6324C51.4247 62.1061 51.8106 61.6325 52.196 61.3348" fill="#0B6FB6"/>
<path fill-rule="evenodd" clip-rule="evenodd" d="M73.839 12C75.4865 13.8766 76.0305 16.5603 75.5574 18.9804C75.0479 21.6986 73.5399 24.1015 71.7688 26.1712C70.3486 27.8373 68.717 29.3103 67.0163 30.6783C65.0343 32.2739 63.0873 33.9928 61.8425 36.2379C60.7899 38.0617 60.5445 40.3064 61.2635 42.2884C62.4383 45.6907 65.1748 48.2162 66.6655 51.4258C65.0166 49.9701 63.4032 48.4621 61.8948 46.8659C60.3164 45.1821 58.8257 43.3933 57.8435 41.2886C57.1773 39.8156 56.8791 38.0967 57.3877 36.5361C57.8963 34.9399 59.0361 33.6596 60.1764 32.4671C63.3505 29.2925 67.2613 26.9601 70.3654 23.7333C72.0851 21.9618 73.5054 19.8398 73.9962 17.402C74.3998 15.6131 74.2062 13.7716 73.839 12" fill="#E11F22"/>
<path fill-rule="evenodd" clip-rule="evenodd" d="M71.2429 31.9766C74.6452 29.4683 78.6264 27.8727 82.66 26.7151C79.469 28.7493 76.1368 30.6082 73.3831 33.2214C72.3828 34.1858 71.4366 35.2911 70.998 36.6414C70.6644 37.6413 70.8044 38.7461 71.2084 39.6932C71.9451 41.3766 73.1895 42.7446 74.1366 44.288C74.9438 45.6033 75.0838 47.2872 74.4707 48.7079C73.5403 50.7944 71.717 52.3205 69.8227 53.5304C69.5768 53.6708 69.3664 53.9339 69.0683 53.9689C70.3313 52.8291 71.3129 51.2157 71.2784 49.4791C71.2429 48.1816 70.524 47.0417 69.6823 46.1119C67.9461 44.0426 66.49 41.4116 66.7886 38.6234C67.0867 35.8347 69.086 33.59 71.2429 31.9766" fill="#E11F22"/>
<path fill-rule="evenodd" clip-rule="evenodd" d="M83.3098 52.2502C84.0456 51.3563 85.2209 51.1281 86.2903 50.9877C88.15 50.7423 90.1316 51.2158 91.5345 52.4961C92.6921 53.5305 93.3411 55.1444 93.0952 56.7051C92.8325 58.5116 91.6218 60.02 90.2547 61.1599C87.7819 63.1414 84.7301 64.299 81.6782 65.0707C81.8541 64.8775 82.0464 64.7021 82.2745 64.5621C84.5896 63.3168 86.887 61.8611 88.5886 59.8269C89.6225 58.5643 90.4297 56.9155 90.0966 55.2494C89.7462 53.3201 87.8696 51.9171 85.9576 51.8121C85.045 51.7244 84.1865 52.0753 83.3098 52.2502" fill="#0B6FB6"/>
<path fill-rule="evenodd" clip-rule="evenodd" d="M48.0578 53.8463C51.2846 52.4606 54.7923 51.5666 58.3173 51.6189C56.2653 52.2152 54.161 52.7237 52.2318 53.6359C51.7755 53.8813 51.2496 54.1094 50.9865 54.583C50.8465 54.9511 51.2319 55.1965 51.5123 55.3193C52.7049 55.8106 54.0206 55.8805 55.3009 56.0037C59.7902 56.3018 64.2978 56.1264 68.7708 55.8455C73.1892 55.5651 77.5745 54.9689 81.9407 54.2671C80.9768 54.723 79.9942 55.1793 79.1002 55.7578C78.6439 56.0737 78.0831 56.1614 77.5745 56.2841C72.2076 57.4767 66.7002 57.8448 61.2287 57.9325C59.1062 57.9502 57.002 57.9153 54.8977 57.7748C52.5476 57.6171 50.1798 57.4417 47.8824 56.8277C47.2157 56.6345 46.5144 56.4241 45.9881 55.9505C45.725 55.7406 45.725 55.3193 45.9531 55.0738C46.5317 54.4776 47.3388 54.1971 48.0578 53.8463" fill="#0B6FB6"/>
</g>
<defs>
<filter id="filter0_d_265_12434" x="0" y="0" width="134" height="146" filterUnits="userSpaceOnUse" color-interpolation-filters="sRGB">
<feFlood flood-opacity="0" result="BackgroundImageFix"/>
<feColorMatrix in="SourceAlpha" type="matrix" values="0 0 0 0 0 0 0 0 0 0 0 0 0 0 0 0 0 0 127 0" result="hardAlpha"/>
<feOffset dy="31"/>
<feGaussianBlur stdDeviation="9.5"/>
<feColorMatrix type="matrix" values="0 0 0 0 0.0117647 0 0 0 0 0.00784314 0 0 0 0 0.0509804 0 0 0 0.05 0"/>
<feBlend mode="normal" in2="BackgroundImageFix" result="effect1_dropShadow_265_12434"/>
<feBlend mode="normal" in="SourceGraphic" in2="effect1_dropShadow_265_12434" result="shape"/>
</filter>
<clipPath id="clip0_265_12434">
<rect width="72" height="72" fill="white" transform="translate(31 12)"/>
</clipPath>
</defs>
</svg>
