<svg width="96" height="96" viewBox="0 0 96 96" fill="none" xmlns="http://www.w3.org/2000/svg">
<path fill-rule="evenodd" clip-rule="evenodd" d="M21.2653 0C9.52083 0 0 9.52083 0 21.2653V74.7347C0 86.4792 9.52083 96 21.2653 96H74.7347C86.4792 96 96 86.4792 96 74.7347V21.2653C96 9.52083 86.4792 0 74.7347 0H21.2653Z" fill="#F7DF1E"/>
<g clip-path="url(#clip0_265_12422)">
<path d="M77.3334 16H18.6667C17.1939 16 16 17.1939 16 18.6667V77.3333C16 78.8061 17.1939 80 18.6667 80H77.3333C78.8061 80 80 78.8061 80 77.3334V18.6667C80 17.1939 78.8061 16 77.3334 16Z" fill="#F7DF1E"/>
<path d="M58.992 66.0004C60.2812 68.1053 61.9584 69.6525 64.9247 69.6525C67.4167 69.6525 69.0085 68.407 69.0085 66.6861C69.0085 64.6239 67.373 63.8935 64.6301 62.6938L63.1266 62.0487C58.7868 60.1998 55.9038 57.8836 55.9038 52.9871C55.9038 48.4766 59.3405 45.043 64.7114 45.043C68.5351 45.043 71.2841 46.3738 73.265 49.8582L68.5819 52.8652C67.5507 51.0163 66.4384 50.2879 64.7114 50.2879C62.9499 50.2879 61.8334 51.4054 61.8334 52.8652C61.8334 54.6694 62.9509 55.3998 65.5312 56.5173L67.0347 57.1613C72.1445 59.3526 75.0296 61.5865 75.0296 66.6089C75.0296 72.0235 70.7761 74.9899 65.0639 74.9899C59.4786 74.9899 55.8702 72.3283 54.1046 68.8398L58.992 66.0004ZM37.7471 66.5216C38.6918 68.1978 39.5512 69.6149 41.6175 69.6149C43.5934 69.6149 44.8399 68.8418 44.8399 65.8359V45.3863H50.8539V65.9171C50.8539 72.1444 47.2028 74.9787 41.8735 74.9787C37.0583 74.9787 34.2697 72.4868 32.8516 69.4854L37.7471 66.5216Z" fill="black"/>
</g>
<defs>
<clipPath id="clip0_265_12422">
<rect width="64" height="64" fill="white" transform="translate(16 16)"/>
</clipPath>
</defs>
</svg>
