<svg width="40" height="40" viewBox="0 0 40 40" fill="none" xmlns="http://www.w3.org/2000/svg">
<path d="M0.25 8.86056C0.25 4.10508 4.10508 0.25 8.86056 0.25H31.1394C35.8949 0.25 39.75 4.10508 39.75 8.86056V31.1394C39.75 35.8949 35.8949 39.75 31.1394 39.75H8.86056C4.10508 39.75 0.25 35.8949 0.25 31.1394V8.86056Z" fill="white" stroke="#C6CED9" stroke-width="0.5"/>
<g clip-path="url(#clip0_391_16177)">
<path fill-rule="evenodd" clip-rule="evenodd" d="M19.392 6.31817H19.3949L8.42087 12.6524C8.00983 12.8894 7.75781 13.327 7.75781 13.7999V26.4772C7.75781 26.9503 8.00983 27.388 8.42087 27.6247L19.3957 33.964C19.806 34.2002 20.3118 34.2002 20.7216 33.964L31.6947 27.6247C32.1036 27.388 32.3562 26.9501 32.3562 26.4772V13.7999C32.3562 13.327 32.1036 12.8894 31.692 12.6524L20.7207 6.31817C20.5148 6.20017 20.2856 6.14117 20.0564 6.14117C19.8271 6.14117 19.5979 6.20017 19.392 6.31817Z" fill="url(#paint0_linear_391_16177)"/>
<path fill-rule="evenodd" clip-rule="evenodd" d="M8.02954 27.2822C8.13465 27.4185 8.26573 27.5365 8.42046 27.6248L17.8342 33.0627L19.4023 33.9639C19.6366 34.0993 19.9038 34.1567 20.1666 34.1372C20.2539 34.1302 20.3414 34.1136 20.427 34.0895L32.0012 12.8965C31.9125 12.8002 31.8088 12.7195 31.6928 12.6517L24.5071 8.50202L20.7089 6.3167C20.6009 6.25438 20.4839 6.21003 20.3649 6.17877L8.02954 27.2822Z" fill="url(#paint1_linear_391_16177)"/>
<path fill-rule="evenodd" clip-rule="evenodd" d="M19.9319 6.14871L19.9254 6.14832C19.7412 6.16668 19.5611 6.22392 19.3954 6.31809L8.45239 12.6339L20.2523 34.1265C20.4164 34.103 20.5777 34.0481 20.7237 33.9639L31.6979 27.6246C32.0293 27.4326 32.2582 27.1103 32.334 26.7434V26.7111L20.3097 6.17C20.221 6.15261 20.1323 6.14343 20.0413 6.14343C20.0047 6.14343 19.9684 6.14519 19.9319 6.14871Z" fill="url(#paint2_linear_391_16177)"/>
</g>
<defs>
<linearGradient id="paint0_linear_391_16177" x1="20.057" y1="-7.85883" x2="-7.70975" y2="16.5347" gradientUnits="userSpaceOnUse">
<stop stop-color="#3E863D"/>
<stop offset="1" stop-color="#5AAD45"/>
</linearGradient>
<linearGradient id="paint1_linear_391_16177" x1="16.7574" y1="2.64626" x2="2.2713" y2="22.1054" gradientUnits="userSpaceOnUse">
<stop stop-color="#76AC64"/>
<stop offset="0.525602" stop-color="#3E863D"/>
<stop offset="1" stop-color="#3E863D"/>
</linearGradient>
<linearGradient id="paint2_linear_391_16177" x1="7.78603" y1="34.5169" x2="32.334" y2="34.5169" gradientUnits="userSpaceOnUse">
<stop stop-color="#6BBF46"/>
<stop offset="1" stop-color="#3E863D"/>
</linearGradient>
<clipPath id="clip0_391_16177">
<rect width="28" height="28" fill="white" transform="translate(6.00781 6.00391)"/>
</clipPath>
</defs>
</svg>
