<svg width="48" height="48" viewBox="0 0 48 48" fill="none" xmlns="http://www.w3.org/2000/svg">
<g clip-path="url(#clip0_301_542)">
<rect y="3" width="3" height="42" fill="#03020D"/>
<rect x="10" width="3" height="10" transform="rotate(90 10 0)" fill="#03020D"/>
<rect x="10" y="45" width="3" height="10" transform="rotate(90 10 45)" fill="#03020D"/>
<rect x="48" width="3" height="10" transform="rotate(90 48 0)" fill="#03020D"/>
<rect x="48" y="45" width="3" height="10" transform="rotate(90 48 45)" fill="#03020D"/>
<rect x="45" y="3" width="3" height="42" fill="#03020D"/>
<path d="M33.0681 31.276C31.3401 32.536 29.1801 33.364 26.5881 33.364C21.0801 33.364 17.0481 29.548 17.0481 24.22C17.0481 18.82 20.9721 14.968 26.3001 14.968L34.0401 17.344V12.268C32.0601 11.548 29.2521 10.792 26.1561 10.792C18.4161 10.792 12.4041 16.228 12.4041 24.22C12.4041 32.212 18.4161 37.648 26.1561 37.648C29.5041 37.648 32.6361 36.676 34.6881 35.38L33.0681 31.276Z" fill="#03020D"/>
</g>
<defs>
<clipPath id="clip0_301_542">
<rect width="48" height="48" fill="white"/>
</clipPath>
</defs>
</svg>
