<svg width="68" height="40" viewBox="0 0 68 40" fill="none" xmlns="http://www.w3.org/2000/svg">
<path d="M36.25 11.0884C36.25 7.31168 39.3117 4.25 43.0884 4.25H60.9116C64.6883 4.25 67.75 7.31168 67.75 11.0884V28.9116C67.75 32.6883 64.6883 35.75 60.9116 35.75H43.0884C39.3117 35.75 36.25 32.6883 36.25 28.9116V11.0884Z" fill="white" stroke="#C6CED9" stroke-width="0.5"/>
<g clip-path="url(#clip0_391_16161)">
<path d="M40.7969 19.9969C40.7969 26.1825 45.8113 31.1969 51.9969 31.1969C58.1825 31.1969 63.1969 26.1825 63.1969 19.9969C63.1969 13.8113 58.1825 8.79688 51.9969 8.79688C45.8113 8.79688 40.7969 13.8113 40.7969 19.9969Z" fill="url(#paint0_linear_391_16161)"/>
<path d="M45.0669 26.9269L45.0669 26.9266C41.2402 23.0998 41.2402 16.8945 45.0669 13.0674C48.8945 9.23982 55.0993 9.23982 58.9269 13.0674C62.7537 16.8945 62.7537 23.0993 58.9269 26.9269C55.0993 30.7536 48.8945 30.7536 45.0669 26.9269ZM45.8593 26.1345C49.249 29.5244 54.7448 29.5244 58.1345 26.1345C61.5242 22.7448 61.5242 17.2489 58.1345 13.8593C54.7448 10.4696 49.249 10.4696 45.8593 13.8593C42.4694 17.2489 42.4694 22.7448 45.8593 26.1345Z" fill="white"/>
<path d="M45.8593 22.1753C48.1552 24.4713 51.8784 24.4713 54.1747 22.1753C56.4707 19.8787 56.4707 16.1553 54.1747 13.8593C51.8787 11.5633 48.1555 11.5633 45.8593 13.8593C43.5633 16.1553 43.5633 19.8787 45.8593 22.1753ZM45.0668 22.9668C42.3335 20.2332 42.3335 15.8011 45.0668 13.0674C47.8008 10.3338 52.2329 10.3338 54.9665 13.0674C57.7004 15.8011 57.7004 20.2332 54.9665 22.9668C52.2329 25.7005 47.8008 25.7005 45.0671 22.9668L45.0668 22.9668Z" fill="white"/>
<path d="M45.8592 18.215C47.0618 19.4179 49.012 19.4179 50.2149 18.215C51.4178 17.0124 51.4178 15.0622 50.2149 13.8593C49.012 12.6564 47.0621 12.6564 45.8592 13.8593C44.6564 15.0622 44.6564 17.0121 45.8592 18.215ZM45.0668 19.0074C43.4269 17.3666 43.4269 14.7077 45.0668 13.0675C46.7076 11.4272 49.3665 11.4272 51.0068 13.0675C52.647 14.7077 52.647 17.3669 51.0068 19.0071C49.3665 20.6473 46.7074 20.6473 45.0671 19.0071L45.0668 19.0074Z" fill="white"/>
</g>
<path d="M0.25 8.86056C0.25 4.10508 4.10508 0.25 8.86056 0.25H31.1394C35.8949 0.25 39.75 4.10508 39.75 8.86056V31.1394C39.75 35.8949 35.8949 39.75 31.1394 39.75H8.86056C4.10508 39.75 0.25 35.8949 0.25 31.1394V8.86056Z" fill="white" stroke="#C6CED9" stroke-width="0.5"/>
<g clip-path="url(#clip1_391_16161)">
<path fill-rule="evenodd" clip-rule="evenodd" d="M12.3761 15.9633H8.22353L6.00781 27.0729H8.16155L8.75034 24.1289H10.6097C11.2397 24.1289 11.8492 24.0567 12.438 23.912C13.0268 23.7673 13.5794 23.4264 14.0959 22.8894C14.5196 22.4657 14.8499 21.9907 15.0876 21.4639C15.3355 20.9371 15.4957 20.4 15.5679 19.8524C15.7539 18.6541 15.5732 17.7089 15.0256 17.0169C14.478 16.325 13.5949 15.9736 12.3761 15.9633ZM10.0333 17.7453L10.0364 17.7298L10.0209 17.7453H10.0333ZM10.0333 17.7453L9.10677 22.3782C9.16875 22.3884 9.23073 22.3936 9.29271 22.3936H9.50963C10.5013 22.4039 11.3277 22.3059 11.9887 22.0993C12.6497 21.8823 13.0941 21.1284 13.3213 19.8371C13.5072 18.7524 13.3213 18.1274 12.7635 17.9622C12.2159 17.797 11.5292 17.7196 10.7027 17.7298C10.5787 17.74 10.4601 17.7453 10.3463 17.7453H10.0333Z" fill="black"/>
<path d="M18.0212 13.0039H20.1595L19.5552 15.9634H21.4765C22.5301 15.9841 23.3151 16.201 23.8317 16.6141C24.3585 17.0272 24.5134 17.8125 24.2965 18.9693L23.2584 24.129H21.0892L22.0808 19.2017C22.184 18.6851 22.153 18.3185 21.9878 18.1016C21.8227 17.8847 21.4663 17.7762 20.9187 17.7762L19.1988 17.7607L17.9283 24.129H15.79L18.0212 13.0039V13.0039" fill="black"/>
<path fill-rule="evenodd" clip-rule="evenodd" d="M30.7452 15.9633H26.5927L24.377 27.0729H26.5307L27.1195 24.1289H28.9788C29.6088 24.1289 30.2184 24.0567 30.8072 23.912C31.396 23.7673 31.9485 23.4264 32.4651 22.8894C32.8887 22.4657 33.2191 21.9907 33.4567 21.4639C33.7046 20.9371 33.8649 20.4 33.9371 19.8524C34.123 18.6541 33.9423 17.7089 33.3948 17.0169C32.8472 16.325 31.964 15.9736 30.7452 15.9633ZM28.4025 17.7453L28.4056 17.7298L28.3901 17.7453H28.4025ZM28.4025 17.7453L27.476 22.3782C27.5379 22.3884 27.5999 22.3936 27.6619 22.3936H27.8788C28.8705 22.4039 29.6969 22.3059 30.3579 22.0993C31.0189 21.8823 31.4633 21.1284 31.6905 19.8371C31.8764 18.7524 31.6905 18.1274 31.1327 17.9622C30.5851 17.797 29.8984 17.7196 29.0719 17.7298C28.9479 17.74 28.8292 17.7453 28.7155 17.7453H28.4025Z" fill="black"/>
</g>
<defs>
<linearGradient id="paint0_linear_391_16161" x1="63.1969" y1="19.9969" x2="40.7969" y2="19.9969" gradientUnits="userSpaceOnUse">
<stop stop-color="#4BC0CE"/>
<stop offset="1" stop-color="#4BA898"/>
</linearGradient>
<clipPath id="clip0_391_16161">
<rect width="22.4" height="22.4" fill="white" transform="translate(40.7969 8.79688)"/>
</clipPath>
<clipPath id="clip1_391_16161">
<rect width="28" height="28" fill="white" transform="translate(6.00781 6.00391)"/>
</clipPath>
</defs>
</svg>
