<svg width="48" height="48" viewBox="0 0 48 48" fill="none" xmlns="http://www.w3.org/2000/svg">
<path fill-rule="evenodd" clip-rule="evenodd" d="M10.917 17.0732H3.79837L0 36.1182H3.69212L4.70147 31.0714H7.88892C8.96894 31.0714 10.0139 30.9476 11.0232 30.6995C12.0326 30.4515 12.9798 29.8671 13.8654 28.9465C14.5916 28.2203 15.1579 27.4059 15.5653 26.5028C15.9903 25.5996 16.265 24.679 16.3888 23.7403C16.7075 21.686 16.3978 20.0657 15.4591 18.8795C14.5204 17.6932 13.0064 17.0908 10.917 17.0732ZM6.90086 20.1281L6.90617 20.1015L6.87961 20.1281H6.90086ZM6.90086 20.1281L5.31245 28.0701C5.4187 28.0876 5.52495 28.0967 5.63119 28.0967H6.00306C7.70303 28.1142 9.11984 27.9463 10.253 27.592C11.3861 27.2201 12.1479 25.9276 12.5373 23.7139C12.8561 21.8546 12.5373 20.7831 11.5811 20.4999C10.6424 20.2168 9.46514 20.084 8.04834 20.1015C7.83584 20.119 7.63236 20.1281 7.43741 20.1281H6.90086Z" fill="black"/>
<path d="M20.5945 12H24.2601L23.2242 17.0733H26.5178C28.3241 17.1089 29.6697 17.4808 30.5553 18.1889C31.4584 18.8971 31.724 20.2432 31.3521 22.2264L29.5725 31.0715H25.8538L27.5538 22.6248C27.7307 21.7392 27.6776 21.1108 27.3944 20.7389C27.1112 20.367 26.5003 20.1811 25.5616 20.1811L22.6132 20.1545L20.4351 31.0715H16.7696L20.5945 12Z" fill="black"/>
<path fill-rule="evenodd" clip-rule="evenodd" d="M42.407 17.0732H35.2884L31.49 36.1182H35.1821L36.1915 31.0714H39.3789C40.4589 31.0714 41.5039 30.9476 42.5132 30.6995C43.5226 30.4515 44.4698 29.8671 45.3554 28.9465C46.0816 28.2203 46.6479 27.4059 47.0553 26.5028C47.4803 25.5996 47.755 24.679 47.8787 23.7403C48.1975 21.686 47.8878 20.0657 46.9491 18.8795C46.0104 17.6932 44.4964 17.0908 42.407 17.0732ZM38.3909 20.1281L38.3962 20.1015L38.3696 20.1281H38.3909ZM38.3909 20.1281L36.8025 28.0701C36.9087 28.0876 37.015 28.0967 37.1212 28.0967H37.4931C39.193 28.1142 40.6098 27.9463 41.743 27.592C42.8761 27.2201 43.6379 25.9276 44.0273 23.7139C44.3461 21.8546 44.0273 20.7831 43.0711 20.4999C42.1324 20.2168 40.9552 20.084 39.5383 20.1015C39.3259 20.119 39.1224 20.1281 38.9274 20.1281H38.3909Z" fill="black"/>
</svg>
