<svg width="96" height="96" viewBox="0 0 96 96" fill="none" xmlns="http://www.w3.org/2000/svg">
<path fill-rule="evenodd" clip-rule="evenodd" d="M21.2653 0C9.52083 0 0 9.52083 0 21.2653V21.2653V74.7347C0 86.4792 9.52083 96 21.2653 96V96H74.7347C86.4792 96 96 86.4792 96 74.7347V74.7347V21.2653C96 9.52083 86.4792 0 74.7347 0V0H21.2653Z" fill="#FAFAFB"/>
<g clip-path="url(#clip0_265_12447)">
<path fill-rule="evenodd" clip-rule="evenodd" d="M47.8594 80.2911C38.4288 80.2911 30.7837 78.8085 30.7837 76.9799C30.7837 75.1519 38.4288 73.6687 47.8594 73.6687C57.2905 73.6687 64.9356 75.1519 64.9356 76.9799C64.9356 78.8085 57.2905 80.2911 47.8594 80.2911" fill="url(#paint0_radial_265_12447)"/>
<path fill-rule="evenodd" clip-rule="evenodd" d="M47.8594 80.2911C38.4288 80.2911 30.7837 78.8085 30.7837 76.9799C30.7837 75.1519 38.4288 73.6687 47.8594 73.6687C57.2905 73.6687 64.9356 75.1519 64.9356 76.9799C64.9356 78.8085 57.2905 80.2911 47.8594 80.2911" fill="url(#paint1_radial_265_12447)"/>
<path fill-rule="evenodd" clip-rule="evenodd" d="M54.874 60.6383C56.1948 60.6383 57.265 61.7204 57.265 63.0583C57.265 64.4017 56.1948 65.4943 54.874 65.4943C53.558 65.4943 52.4831 64.4017 52.4831 63.0583C52.4831 61.7204 53.558 60.6383 54.874 60.6383ZM62.0317 29.9109V35.5692C62.0317 39.9565 58.3128 43.6481 54.0719 43.6481H41.3438C37.8578 43.6481 34.9727 46.6322 34.9727 50.1236V62.2573C34.9727 65.7101 37.9751 67.742 41.3438 68.7322C45.3773 69.9185 49.245 70.133 54.0719 68.7322C57.2794 67.8036 60.4425 65.9341 60.4425 62.2573V57.4007H47.715V55.7819H66.8136C70.5171 55.7819 71.8972 53.1989 73.1854 49.3218C74.5157 45.3304 74.4588 41.4918 73.1854 36.3709C72.2699 32.6846 70.5218 29.9109 66.8136 29.9109H62.0317V29.9109Z" fill="url(#paint2_linear_265_12447)"/>
<path fill-rule="evenodd" clip-rule="evenodd" d="M21.3335 42.8652V42.7958C21.337 40.7881 21.6426 38.8098 22.2306 36.3709C23.2451 32.1365 26.4875 29.9109 30.191 29.9109H47.7153V28.292H34.9729V23.4354C34.9729 19.7586 35.9518 17.7647 41.3441 16.8119C43.1745 16.4883 45.255 16.3023 47.4332 16.2922C49.6114 16.2821 51.8827 16.4474 54.0722 16.8119C57.5298 17.3884 60.4428 19.9826 60.4428 23.4354V35.5692C60.4428 39.1275 57.6145 42.0447 54.0722 42.0447H41.3441C37.0232 42.0447 33.3837 45.7541 33.3837 49.96V55.7819H29.0029C25.2995 55.7819 23.1361 53.094 22.2306 49.3218C21.6298 46.8297 21.3369 44.8306 21.3335 42.8652H21.3335ZM40.542 20.1973C39.2206 20.1973 38.151 21.2899 38.151 22.6333C38.151 23.9713 39.2206 25.0539 40.542 25.0539C41.8581 25.0539 42.933 23.9713 42.933 22.6333C42.933 21.2899 41.8581 20.1973 40.542 20.1973Z" fill="#4786CF"/>
</g>
<defs>
<radialGradient id="paint0_radial_265_12447" cx="0" cy="0" r="1" gradientUnits="userSpaceOnUse" gradientTransform="translate(47.8594 76.9799) rotate(-90) scale(3.31055 75.0582)">
<stop stop-color="#C6C6C6"/>
<stop offset="1" stop-color="white"/>
</radialGradient>
<radialGradient id="paint1_radial_265_12447" cx="0" cy="0" r="1" gradientUnits="userSpaceOnUse" gradientTransform="translate(47.8594 76.9799) rotate(-90) scale(3.31055 75.0582)">
<stop stop-color="#C6C6C6"/>
<stop offset="1" stop-color="white"/>
</radialGradient>
<linearGradient id="paint2_linear_265_12447" x1="67.7698" y1="53.1693" x2="57.1504" y2="38.4547" gradientUnits="userSpaceOnUse">
<stop stop-color="#FFD33A"/>
<stop offset="1" stop-color="#FFE873"/>
</linearGradient>
<clipPath id="clip0_265_12447">
<rect width="64" height="64" fill="white" transform="translate(16 16)"/>
</clipPath>
</defs>
</svg>
