<svg width="96" height="96" viewBox="0 0 96 96" fill="none" xmlns="http://www.w3.org/2000/svg">
<path fill-rule="evenodd" clip-rule="evenodd" d="M21.2653 0C9.52083 0 0 9.52083 0 21.2653V21.2653V74.7347C0 86.4792 9.52083 96 21.2653 96V96H74.7347C86.4792 96 96 86.4792 96 74.7347V74.7347V21.2653C96 9.52083 86.4792 0 74.7347 0V0H21.2653Z" fill="#03020D"/>
<rect width="64" height="64" transform="translate(16 16)" fill="#03020D"/>
<path d="M80 48.5039C80 44.2642 74.6906 40.2462 66.5503 37.7546C68.4288 29.4578 67.5939 22.8569 63.9152 20.7436C63.0672 20.2479 62.0758 20.013 60.9931 20.013V22.9221C61.5931 22.9221 62.0758 23.0395 62.4802 23.2613C64.2544 24.2788 65.024 28.1533 64.424 33.1366C64.2805 34.3628 64.0456 35.6543 63.7586 36.9719C61.2018 36.3457 58.4101 35.863 55.4749 35.5499C53.7138 33.1366 51.8875 30.945 50.0481 29.0273C54.3008 25.0746 58.2927 22.9091 61.0061 22.9091V20C57.4187 20 52.7224 22.5569 47.9739 26.9923C43.2254 22.583 38.5291 20.0522 34.9417 20.0522V22.9613C37.6421 22.9613 41.647 25.1137 45.8997 29.0404C44.0734 30.958 42.247 33.1366 40.512 35.5499C37.5638 35.863 34.7721 36.3457 32.2152 36.9849C31.9152 35.6804 31.6934 34.415 31.5369 33.2018C30.9238 28.2185 31.6804 24.3441 33.4415 23.3135C33.8329 23.0787 34.3416 22.9743 34.9417 22.9743V20.0652C33.8459 20.0652 32.8545 20.3 31.9935 20.7958C28.3278 22.9091 27.5059 29.4969 29.3975 37.7676C21.2833 40.2723 16 44.2772 16 48.5039C16 52.7436 21.3094 56.7615 29.4496 59.2531C27.5711 67.5499 28.406 74.1508 32.0848 76.2641C32.9327 76.7599 33.9242 76.9947 35.02 76.9947C38.6074 76.9947 43.3037 74.4378 48.0522 70.0024C52.8006 74.4117 57.4969 76.9425 61.0844 76.9425C62.1802 76.9425 63.1716 76.7077 64.0326 76.212C67.6983 74.0986 68.5202 67.5108 66.6286 59.2401C74.7167 56.7485 80 52.7305 80 48.5039ZM63.0151 39.8027C62.5324 41.4855 61.9323 43.2205 61.254 44.9556C60.7191 43.9119 60.1582 42.8683 59.545 41.8247C58.945 40.7811 58.3057 39.7635 57.6665 38.7721C59.5189 39.0461 61.3061 39.3852 63.0151 39.8027ZM57.0403 53.6959C56.0228 55.457 54.9792 57.1268 53.8964 58.6792C51.9527 58.8487 49.9829 58.9401 48 58.9401C46.0302 58.9401 44.0603 58.8487 42.1296 58.6922C41.0469 57.1398 39.9902 55.4831 38.9727 53.735C37.9812 52.0261 37.0811 50.2911 36.2593 48.543C37.0681 46.7949 37.9812 45.0469 38.9596 43.3379C39.9772 41.5768 41.0208 39.907 42.1035 38.3547C44.0473 38.1851 46.0171 38.0938 48 38.0938C49.9698 38.0938 51.9397 38.1851 53.8704 38.3416C54.9531 39.894 56.0098 41.5507 57.0273 43.2988C58.0187 45.0077 58.9189 46.7428 59.7407 48.4908C58.9189 50.2389 58.0187 51.9869 57.0403 53.6959ZM61.254 52C61.9584 53.7481 62.5585 55.4961 63.0542 57.192C61.3453 57.6094 59.545 57.9617 57.6796 58.2356C58.3188 57.2311 58.958 56.2006 59.5581 55.1439C60.1582 54.1003 60.7191 53.0436 61.254 52ZM48.0261 65.9193C46.8129 64.6669 45.5997 63.2711 44.3995 61.7448C45.5736 61.797 46.7737 61.8361 47.9869 61.8361C49.2132 61.8361 50.4264 61.81 51.6135 61.7448C50.4395 63.2711 49.2262 64.6669 48.0261 65.9193ZM38.3204 58.2356C36.468 57.9617 34.6808 57.6225 32.9719 57.205C33.4545 55.5222 34.0546 53.7872 34.733 52.0522C35.2678 53.0958 35.8288 54.1394 36.4419 55.183C37.055 56.2267 37.6812 57.2442 38.3204 58.2356ZM47.9609 31.0885C49.1741 32.3408 50.3873 33.7366 51.5874 35.2629C50.4134 35.2108 49.2132 35.1716 48 35.1716C46.7737 35.1716 45.5605 35.1977 44.3734 35.2629C45.5475 33.7366 46.7607 32.3408 47.9609 31.0885ZM38.3074 38.7721C37.6682 39.7766 37.0289 40.8072 36.4289 41.8638C35.8288 42.9075 35.2678 43.9511 34.733 44.9947C34.0285 43.2466 33.4285 41.4986 32.9327 39.8027C34.6417 39.3983 36.4419 39.0461 38.3074 38.7721ZM26.5014 55.1048C21.8834 53.1349 18.896 50.552 18.896 48.5039C18.896 46.4558 21.8834 43.8598 26.5014 41.903C27.6233 41.4203 28.8496 40.9898 30.115 40.5854C30.8585 43.1423 31.8369 45.8035 33.0501 48.53C31.85 51.2434 30.8846 53.8915 30.1541 56.4354C28.8626 56.031 27.6364 55.5874 26.5014 55.1048ZM33.5198 73.7464C31.7456 72.7289 30.9759 68.8544 31.576 63.8712C31.7195 62.6449 31.9543 61.3534 32.2413 60.0359C34.7982 60.662 37.5899 61.1447 40.5251 61.4578C42.2862 63.8712 44.1125 66.0628 45.9519 67.9804C41.6991 71.9331 37.7073 74.0986 34.9939 74.0986C34.4068 74.0856 33.9111 73.9682 33.5198 73.7464ZM64.4631 63.8059C65.0762 68.7892 64.3196 72.6637 62.5585 73.6942C62.1671 73.9291 61.6584 74.0334 61.0583 74.0334C58.3579 74.0334 54.353 71.8809 50.1003 67.9543C51.9266 66.0367 53.7529 63.8581 55.488 61.4448C58.4362 61.1317 61.2279 60.649 63.7847 60.0098C64.0848 61.3273 64.3196 62.5927 64.4631 63.8059ZM69.4855 55.1048C68.3636 55.5874 67.1374 56.0179 65.872 56.4223C65.1284 53.8655 64.15 51.2042 62.9368 48.4778C64.137 45.7644 65.1023 43.1162 65.8328 40.5724C67.1243 40.9768 68.3506 41.4203 69.4986 41.903C74.1166 43.8728 77.1039 46.4558 77.1039 48.5039C77.0909 50.552 74.1035 53.148 69.4855 55.1048Z" fill="#61DAFB"/>
<path d="M47.9871 54.4656C51.2796 54.4656 53.9487 51.7965 53.9487 48.5039C53.9487 45.2114 51.2796 42.5422 47.9871 42.5422C44.6945 42.5422 42.0254 45.2114 42.0254 48.5039C42.0254 51.7965 44.6945 54.4656 47.9871 54.4656Z" fill="#61DAFB"/>
</svg>
