<svg width="40" height="40" viewBox="0 0 40 40" fill="none" xmlns="http://www.w3.org/2000/svg">
<path fill-rule="evenodd" clip-rule="evenodd" d="M8.86056 0C3.96701 0 0 3.96701 0 8.86056V31.1394C0 36.033 3.96701 40 8.86056 40H31.1394C36.033 40 40 36.033 40 31.1394V8.86056C40 3.96701 36.033 0 31.1394 0H8.86056Z" fill="#03020D"/>
<g clip-path="url(#clip0_391_16137)">
<path d="M34.0078 20.2204C34.0078 18.3656 31.6849 16.6077 28.1236 15.5176C28.9454 11.8878 28.5802 8.9999 26.9707 8.07532C26.5997 7.85844 26.166 7.75571 25.6923 7.75571V9.02843C25.9548 9.02843 26.166 9.0798 26.3429 9.17682C27.1191 9.62199 27.4558 11.3171 27.1933 13.4972C27.1305 14.0337 27.0278 14.5988 26.9022 15.1752C25.7836 14.9012 24.5622 14.6901 23.2781 14.5531C22.5076 13.4972 21.7086 12.5384 20.9039 11.6995C22.7644 9.97014 24.5109 9.02273 25.698 9.02273V7.75C24.1285 7.75 22.0739 8.86863 19.9964 10.8091C17.9189 8.88005 15.8643 7.77283 14.2948 7.77283V9.04556C15.4762 9.04556 17.2284 9.98726 19.0889 11.7052C18.2899 12.5441 17.4909 13.4972 16.7318 14.5531C15.442 14.6901 14.2206 14.9012 13.102 15.1809C12.9707 14.6102 12.8737 14.0566 12.8052 13.5258C12.537 11.3456 12.868 9.65053 13.6385 9.19965C13.8097 9.09692 14.0323 9.05126 14.2948 9.05126V7.77854C13.8154 7.77854 13.3816 7.88127 13.005 8.09815C11.4012 9.02273 11.0416 11.9049 11.8692 15.5233C8.31927 16.6191 6.00781 18.3713 6.00781 20.2204C6.00781 22.0753 8.33068 23.8332 11.892 24.9233C11.0702 28.5531 11.4355 31.441 13.0449 32.3656C13.4159 32.5825 13.8496 32.6852 14.3291 32.6852C15.8986 32.6852 17.9532 31.5666 20.0306 29.6261C22.1081 31.5551 24.1627 32.6624 25.7322 32.6624C26.2116 32.6624 26.6454 32.5596 27.0221 32.3427C28.6258 31.4182 28.9854 28.536 28.1578 24.9176C31.6964 23.8275 34.0078 22.0696 34.0078 20.2204ZM26.5769 16.4137C26.3657 17.1499 26.1032 17.909 25.8064 18.6681C25.5724 18.2115 25.327 17.7549 25.0588 17.2983C24.7962 16.8417 24.5166 16.3966 24.2369 15.9628C25.0474 16.0827 25.8293 16.231 26.5769 16.4137ZM23.963 22.492C23.5178 23.2624 23.0612 23.993 22.5875 24.6721C21.7371 24.7463 20.8753 24.7863 20.0078 24.7863C19.146 24.7863 18.2842 24.7463 17.4395 24.6778C16.9658 23.9987 16.5035 23.2739 16.0584 22.5091C15.6246 21.7614 15.2308 21.0023 14.8712 20.2376C15.2251 19.4728 15.6246 18.708 16.0527 17.9604C16.4978 17.1899 16.9544 16.4593 17.4281 15.7802C18.2785 15.706 19.1403 15.666 20.0078 15.666C20.8696 15.666 21.7314 15.706 22.5761 15.7745C23.0498 16.4536 23.5121 17.1785 23.9573 17.9432C24.391 18.6909 24.7848 19.45 25.1444 20.2147C24.7848 20.9795 24.391 21.7443 23.963 22.492ZM25.8064 21.75C26.1146 22.5148 26.3772 23.2796 26.594 24.0215C25.8464 24.2041 25.0588 24.3582 24.2426 24.4781C24.5223 24.0386 24.8019 23.5878 25.0645 23.1255C25.327 22.6689 25.5724 22.2066 25.8064 21.75ZM20.0192 27.8397C19.4885 27.2918 18.9577 26.6811 18.4326 26.0134C18.9463 26.0362 19.4713 26.0533 20.0021 26.0533C20.5386 26.0533 21.0694 26.0419 21.5887 26.0134C21.0751 26.6811 20.5443 27.2918 20.0192 27.8397ZM15.773 24.4781C14.9626 24.3582 14.1807 24.2098 13.433 24.0272C13.6442 23.291 13.9067 22.5319 14.2035 21.7728C14.4375 22.2294 14.6829 22.686 14.9511 23.1426C15.2194 23.5992 15.4933 24.0443 15.773 24.4781ZM19.9907 12.6012C20.5215 13.1491 21.0522 13.7598 21.5773 14.4275C21.0637 14.4047 20.5386 14.3876 20.0078 14.3876C19.4713 14.3876 18.9406 14.399 18.4212 14.4275C18.9348 13.7598 19.4656 13.1491 19.9907 12.6012ZM15.7673 15.9628C15.4876 16.4023 15.208 16.8531 14.9454 17.3154C14.6829 17.772 14.4375 18.2286 14.2035 18.6852C13.8953 17.9204 13.6328 17.1556 13.4159 16.4137C14.1635 16.2368 14.9511 16.0827 15.7673 15.9628ZM10.6022 23.1083C8.5818 22.2465 7.27483 21.1165 7.27483 20.2204C7.27483 19.3244 8.5818 18.1886 10.6022 17.3326C11.093 17.1214 11.6295 16.933 12.1831 16.7561C12.5084 17.8747 12.9365 19.039 13.4673 20.2319C12.9422 21.419 12.5198 22.5776 12.2002 23.6905C11.6352 23.5136 11.0987 23.3195 10.6022 23.1083ZM13.6727 31.2641C12.8965 30.8189 12.5598 29.1238 12.8223 26.9436C12.8851 26.4072 12.9878 25.8421 13.1134 25.2657C14.232 25.5396 15.4534 25.7508 16.7375 25.8878C17.508 26.9436 18.307 27.9025 19.1118 28.7414C17.2512 30.4708 15.5048 31.4182 14.3176 31.4182C14.0608 31.4125 13.8439 31.3611 13.6727 31.2641ZM27.2104 26.9151C27.4787 29.0953 27.1476 30.7904 26.3772 31.2412C26.2059 31.344 25.9834 31.3896 25.7208 31.3896C24.5394 31.3896 22.7873 30.4479 20.9267 28.73C21.7257 27.8911 22.5247 26.9379 23.2838 25.8821C24.5737 25.7451 25.795 25.5339 26.9136 25.2543C27.0449 25.8307 27.1476 26.3843 27.2104 26.9151ZM29.4077 23.1083C28.9169 23.3195 28.3804 23.5079 27.8268 23.6848C27.5015 22.5661 27.0734 21.4019 26.5427 20.209C27.0677 19.0219 27.4901 17.8633 27.8097 16.7504C28.3747 16.9273 28.9112 17.1214 29.4134 17.3326C31.4338 18.1944 32.7408 19.3244 32.7408 20.2204C32.7351 21.1165 31.4281 22.2522 29.4077 23.1083Z" fill="#61DAFB"/>
<path d="M20.0022 22.8287C21.4426 22.8287 22.6104 21.661 22.6104 20.2205C22.6104 18.78 21.4426 17.6122 20.0022 17.6122C18.5617 17.6122 17.3939 18.78 17.3939 20.2205C17.3939 21.661 18.5617 22.8287 20.0022 22.8287Z" fill="#61DAFB"/>
</g>
<defs>
<clipPath id="clip0_391_16137">
<rect width="28" height="28" fill="white" transform="translate(6.00781 6)"/>
</clipPath>
</defs>
</svg>
