<svg width="48" height="48" viewBox="0 0 48 48" fill="none" xmlns="http://www.w3.org/2000/svg">
<path d="M37.1738 31.582L9.77924 47.8489L45.2502 45.4417L47.982 9.6748L37.1736 31.5818L37.1738 31.582Z" fill="url(#paint0_linear_301_688)"/>
<path d="M45.3082 45.4174L42.2595 24.375L33.9551 35.3407L45.3082 45.4175V45.4174Z" fill="url(#paint1_linear_301_688)"/>
<path d="M45.3495 45.4173L23.014 43.6641L9.89764 47.803L45.3495 45.4173Z" fill="url(#paint2_linear_301_688)"/>
<path d="M9.92926 47.8077L15.5091 29.5283L3.23047 32.1535L9.92908 47.8075L9.92926 47.8077Z" fill="url(#paint3_linear_301_688)"/>
<path d="M33.953 35.401L28.8187 15.291L14.1262 29.0636L33.953 35.4013V35.401Z" fill="url(#paint4_linear_301_688)"/>
<path d="M46.8172 15.5738L32.9285 4.23047L29.061 16.7339L46.8172 15.5738Z" fill="url(#paint5_linear_301_688)"/>
<path d="M40.3221 0.186406L32.1536 4.70071L27 0.125977L40.3221 0.186594V0.186406Z" fill="url(#paint6_linear_301_688)"/>
<path d="M0 38.285L3.42188 32.0442L0.653803 24.6094L0 38.285Z" fill="url(#paint7_linear_301_688)"/>
<path d="M0.46991 24.375L3.25492 32.2747L15.3564 29.5597L29.1723 16.7195L33.0714 4.3349L26.9321 0L16.4944 3.90625C13.2058 6.96498 6.82458 13.0169 6.59453 13.1306C6.36675 13.247 2.38068 20.7811 0.46991 24.375Z" fill="white"/>
<path d="M10.2488 10.1832C17.3761 3.11652 26.5641 -1.05855 30.0901 2.49905C33.6142 6.05666 29.877 14.7022 22.7498 21.7666C15.6225 28.8308 6.54834 33.2359 3.02462 29.6783C-0.501363 26.1231 3.12157 17.2475 10.2488 10.1832Z" fill="url(#paint8_linear_301_688)"/>
<path d="M9.9292 47.8004L15.4653 29.4629L33.8511 35.3695C27.2035 41.6031 19.8098 46.8729 9.9292 47.8004Z" fill="url(#paint9_linear_301_688)"/>
<path d="M29.1965 16.6831L33.9166 35.3791C39.4697 29.5403 44.4535 23.2631 46.8944 15.499L29.1967 16.6831H29.1965Z" fill="url(#paint10_linear_301_688)"/>
<path d="M46.8462 15.5937C48.7353 9.89301 49.1711 1.71474 40.2638 0.196289L32.9548 4.23338L46.8462 15.5937Z" fill="url(#paint11_linear_301_688)"/>
<path d="M0 38.2036C0.261672 47.6123 7.0497 47.7525 9.94127 47.835L3.26205 32.2363L0 38.2036Z" fill="#9E1209"/>
<path d="M29.2229 16.7128C33.49 19.3355 42.09 24.6028 42.2643 24.6996C42.5354 24.8521 45.972 18.9044 46.7519 15.543L29.2229 16.7128H29.2229Z" fill="url(#paint12_radial_301_688)"/>
<path d="M15.458 29.4629L22.8588 43.7415C27.2349 41.3682 30.6619 38.4766 33.8002 35.3793L15.458 29.4629Z" fill="url(#paint13_radial_301_688)"/>
<path d="M3.23308 32.2551L2.18451 44.7415C4.16305 47.4443 6.88519 47.6792 9.74023 47.4686C7.67453 42.3272 3.54784 32.0469 3.23308 32.2551Z" fill="url(#paint14_linear_301_688)"/>
<path d="M32.9116 4.26465L47.6141 6.3279C46.8293 3.00298 44.4197 0.857269 40.3124 0.186523L32.9116 4.26465H32.9116Z" fill="url(#paint15_linear_301_688)"/>
<defs>
<linearGradient id="paint0_linear_301_688" x1="51.1118" y1="47.1782" x2="41.0011" y2="29.2737" gradientUnits="userSpaceOnUse">
<stop stop-color="#FB7655"/>
<stop stop-color="#FB7655"/>
<stop offset="0.41" stop-color="#E42B1E"/>
<stop offset="0.99" stop-color="#990000"/>
<stop offset="1" stop-color="#990000"/>
</linearGradient>
<linearGradient id="paint1_linear_301_688" x1="67.988" y1="-4.34297" x2="22.8218" y2="-6.91127" gradientUnits="userSpaceOnUse">
<stop stop-color="#871101"/>
<stop stop-color="#871101"/>
<stop offset="0.99" stop-color="#911209"/>
<stop offset="1" stop-color="#911209"/>
</linearGradient>
<linearGradient id="paint2_linear_301_688" x1="2787.28" y1="559.152" x2="2787.11" y2="-83.0883" gradientUnits="userSpaceOnUse">
<stop stop-color="#871101"/>
<stop stop-color="#871101"/>
<stop offset="0.99" stop-color="#911209"/>
<stop offset="1" stop-color="#911209"/>
</linearGradient>
<linearGradient id="paint3_linear_301_688" x1="4.95882" y1="34.187" x2="12.9106" y2="44.7077" gradientUnits="userSpaceOnUse">
<stop stop-color="white"/>
<stop stop-color="white"/>
<stop offset="0.23" stop-color="#E57252"/>
<stop offset="0.46" stop-color="#DE3B20"/>
<stop offset="0.99" stop-color="#A60003"/>
<stop offset="1" stop-color="#A60003"/>
</linearGradient>
<linearGradient id="paint4_linear_301_688" x1="16.647" y1="18.9674" x2="17.4356" y2="32.3795" gradientUnits="userSpaceOnUse">
<stop stop-color="white"/>
<stop stop-color="white"/>
<stop offset="0.23" stop-color="#E4714E"/>
<stop offset="0.56" stop-color="#BE1A0D"/>
<stop offset="0.99" stop-color="#A80D00"/>
<stop offset="1" stop-color="#A80D00"/>
</linearGradient>
<linearGradient id="paint5_linear_301_688" x1="21.8588" y1="2.59181" x2="22.9686" y2="22.0427" gradientUnits="userSpaceOnUse">
<stop stop-color="white"/>
<stop stop-color="white"/>
<stop offset="0.18" stop-color="#E46342"/>
<stop offset="0.4" stop-color="#C82410"/>
<stop offset="0.99" stop-color="#A80D00"/>
<stop offset="1" stop-color="#A80D00"/>
</linearGradient>
<linearGradient id="paint6_linear_301_688" x1="88.161" y1="7.30165" x2="89.301" y2="-33.6935" gradientUnits="userSpaceOnUse">
<stop stop-color="white"/>
<stop stop-color="white"/>
<stop offset="0.54" stop-color="#C81F11"/>
<stop offset="0.99" stop-color="#BF0905"/>
<stop offset="1" stop-color="#BF0905"/>
</linearGradient>
<linearGradient id="paint7_linear_301_688" x1="-11.5097" y1="52.7515" x2="1.41807" y2="53.2588" gradientUnits="userSpaceOnUse">
<stop stop-color="white"/>
<stop stop-color="white"/>
<stop offset="0.31" stop-color="#DE4024"/>
<stop offset="0.99" stop-color="#BF190B"/>
<stop offset="1" stop-color="#BF190B"/>
</linearGradient>
<linearGradient id="paint8_linear_301_688" x1="14.7096" y1="56.1927" x2="51.8461" y2="17.7878" gradientUnits="userSpaceOnUse">
<stop stop-color="#BD0012"/>
<stop stop-color="#BD0012"/>
<stop offset="0.07" stop-color="white"/>
<stop offset="0.17" stop-color="white"/>
<stop offset="0.27" stop-color="#C82F1C"/>
<stop offset="0.33" stop-color="#820C01"/>
<stop offset="0.46" stop-color="#A31601"/>
<stop offset="0.72" stop-color="#B31301"/>
<stop offset="0.99" stop-color="#E82609"/>
<stop offset="1" stop-color="#E82609"/>
</linearGradient>
<linearGradient id="paint9_linear_301_688" x1="27.0623" y1="39.0831" x2="17.4223" y2="32.1926" gradientUnits="userSpaceOnUse">
<stop stop-color="#8C0C01"/>
<stop stop-color="#8C0C01"/>
<stop offset="0.54" stop-color="#990C00"/>
<stop offset="0.99" stop-color="#A80D0E"/>
<stop offset="1" stop-color="#A80D0E"/>
</linearGradient>
<linearGradient id="paint10_linear_301_688" x1="48.563" y1="20.9218" x2="35.2147" y2="13.4078" gradientUnits="userSpaceOnUse">
<stop stop-color="#7E110B"/>
<stop stop-color="#7E110B"/>
<stop offset="0.99" stop-color="#9E0C00"/>
<stop offset="1" stop-color="#9E0C00"/>
</linearGradient>
<linearGradient id="paint11_linear_301_688" x1="49.8144" y1="8.93051" x2="44.4604" y2="3.76955" gradientUnits="userSpaceOnUse">
<stop stop-color="#79130D"/>
<stop stop-color="#79130D"/>
<stop offset="0.99" stop-color="#9E120B"/>
<stop offset="1" stop-color="#9E120B"/>
</linearGradient>
<radialGradient id="paint12_radial_301_688" cx="0" cy="0" r="1" gradientUnits="userSpaceOnUse" gradientTransform="translate(34.8324 19.226) scale(12.1954 6.37254)">
<stop stop-color="#A80D00"/>
<stop stop-color="#A80D00"/>
<stop offset="0.99" stop-color="#7E0E08"/>
<stop offset="1" stop-color="#7E0E08"/>
</radialGradient>
<radialGradient id="paint13_radial_301_688" cx="0" cy="0" r="1" gradientUnits="userSpaceOnUse" gradientTransform="translate(17.9432 35.2971) scale(16.212 12.6203)">
<stop stop-color="#A30C00"/>
<stop stop-color="#A30C00"/>
<stop offset="0.99" stop-color="#800E08"/>
<stop offset="1" stop-color="#800E08"/>
</radialGradient>
<linearGradient id="paint14_linear_301_688" x1="11.381" y1="31.0991" x2="-7.14952" y2="27.3358" gradientUnits="userSpaceOnUse">
<stop stop-color="#8B2114"/>
<stop stop-color="#8B2114"/>
<stop offset="0.43" stop-color="#9E100A"/>
<stop offset="0.99" stop-color="#B3100C"/>
<stop offset="1" stop-color="#B3100C"/>
</linearGradient>
<linearGradient id="paint15_linear_301_688" x1="10.0241" y1="0.0798988" x2="11.6397" y2="23.5054" gradientUnits="userSpaceOnUse">
<stop stop-color="#B31000"/>
<stop stop-color="#B31000"/>
<stop offset="0.44" stop-color="#910F08"/>
<stop offset="0.99" stop-color="#791C12"/>
<stop offset="1" stop-color="#791C12"/>
</linearGradient>
</defs>
</svg>
