<svg width="40" height="40" viewBox="0 0 40 40" fill="none" xmlns="http://www.w3.org/2000/svg">
<path d="M0.25 8.86056C0.25 4.10508 4.10508 0.25 8.86056 0.25H31.1394C35.8949 0.25 39.75 4.10508 39.75 8.86056V31.1394C39.75 35.8949 35.8949 39.75 31.1394 39.75H8.86056C4.10508 39.75 0.25 35.8949 0.25 31.1394V8.86056Z" fill="white" stroke="#C6CED9" stroke-width="0.5"/>
<g clip-path="url(#clip0_391_16149)">
<path d="M27.6926 24.4228L11.7124 33.9119L32.4038 32.5077L33.9973 11.6436L27.6925 24.4227L27.6926 24.4228Z" fill="url(#paint0_linear_391_16149)"/>
<path d="M32.4376 32.4935L30.6592 20.2188L25.8149 26.6154L32.4376 32.4936V32.4935Z" fill="url(#paint1_linear_391_16149)"/>
<path d="M32.4617 32.4934L19.4327 31.4707L11.7815 33.8851L32.4617 32.4934Z" fill="url(#paint2_linear_391_16149)"/>
<path d="M11.7998 33.8878L15.0547 23.2249L7.89221 24.7562L11.7997 33.8877L11.7998 33.8878Z" fill="url(#paint3_linear_391_16149)"/>
<path d="M6.00781 28.3329L8.00391 24.6925L6.3892 20.3555L6.00781 28.3329Z" fill="url(#paint4_linear_391_16149)"/>
<path d="M25.8137 26.6505L22.8187 14.9197L14.248 22.9538L25.8137 26.6508V26.6505Z" fill="url(#paint5_linear_391_16149)"/>
<path d="M33.3179 15.0847L25.2161 8.46777L22.9601 15.7614L33.3179 15.0847V15.0847Z" fill="url(#paint6_linear_391_16149)"/>
<path d="M29.529 6.10874L24.7641 8.74208L21.7578 6.07349L29.529 6.10885V6.10874Z" fill="url(#paint7_linear_391_16149)"/>
<path d="M6.28198 20.2188L7.90657 24.8269L14.9658 23.2431L23.025 15.753L25.2995 8.52869L21.7182 6L15.6296 8.27865C13.7112 10.0629 9.98887 13.5932 9.85468 13.6595C9.7218 13.7274 7.3966 18.1223 6.28198 20.2188Z" fill="white"/>
<path d="M11.9863 11.9402C16.1438 7.81795 21.5035 5.38249 23.5604 7.45776C25.6161 9.53303 23.436 14.5763 19.2785 18.6971C15.1209 22.8179 9.82764 25.3876 7.77214 23.3123C5.71532 21.2385 7.82869 16.061 11.9863 11.9402Z" fill="url(#paint8_linear_391_16149)"/>
<path d="M11.7999 33.8836L15.0293 23.1867L25.7544 26.6322C21.8766 30.2685 17.5636 33.3426 11.7999 33.8836Z" fill="url(#paint9_linear_391_16149)"/>
<path d="M6.00781 28.2854C6.16045 33.7738 10.1201 33.8556 11.8069 33.9037L7.91067 24.8045L6.00781 28.2854Z" fill="#9E1209"/>
<path d="M7.89377 24.8155L7.2821 32.0992C8.43625 33.6758 10.0242 33.8129 11.6896 33.69C10.4846 30.6909 8.07738 24.694 7.89377 24.8155Z" fill="url(#paint10_linear_391_16149)"/>
<path d="M23.0391 15.7318L25.7924 26.6378C29.0317 23.2318 31.939 19.5701 33.3628 15.0411L23.0392 15.7318H23.0391Z" fill="url(#paint11_linear_391_16149)"/>
<path d="M15.025 23.1867L19.3422 31.5159C21.8949 30.1315 23.894 28.4447 25.7247 26.6379L15.025 23.1867Z" fill="url(#paint12_radial_391_16149)"/>
<path d="M33.3347 15.0963C34.4367 11.7709 34.691 7.00026 29.495 6.1145L25.2314 8.46947L33.3347 15.0963V15.0963Z" fill="url(#paint13_linear_391_16149)"/>
<path d="M23.0544 15.7491C25.5436 17.279 30.5602 20.3516 30.6619 20.4081C30.8201 20.497 32.8247 17.0276 33.2797 15.0667L23.0544 15.7491H23.0544Z" fill="url(#paint14_radial_391_16149)"/>
<path d="M25.2062 8.48773L33.7827 9.6913C33.3249 7.75176 31.9192 6.50009 29.5233 6.10883L25.2062 8.48773H25.2062Z" fill="url(#paint15_linear_391_16149)"/>
</g>
<defs>
<linearGradient id="paint0_linear_391_16149" x1="35.8231" y1="33.5206" x2="29.9251" y2="23.0763" gradientUnits="userSpaceOnUse">
<stop stop-color="#FB7655"/>
<stop stop-color="#FB7655"/>
<stop offset="0.41" stop-color="#E42B1E"/>
<stop offset="0.99" stop-color="#990000"/>
<stop offset="1" stop-color="#990000"/>
</linearGradient>
<linearGradient id="paint1_linear_391_16149" x1="45.6675" y1="3.4666" x2="19.3205" y2="1.96843" gradientUnits="userSpaceOnUse">
<stop stop-color="#871101"/>
<stop stop-color="#871101"/>
<stop offset="0.99" stop-color="#911209"/>
<stop offset="1" stop-color="#911209"/>
</linearGradient>
<linearGradient id="paint2_linear_391_16149" x1="1631.92" y1="332.172" x2="1631.82" y2="-42.4682" gradientUnits="userSpaceOnUse">
<stop stop-color="#871101"/>
<stop stop-color="#871101"/>
<stop offset="0.99" stop-color="#911209"/>
<stop offset="1" stop-color="#911209"/>
</linearGradient>
<linearGradient id="paint3_linear_391_16149" x1="8.90042" y1="25.9424" x2="13.5389" y2="32.0795" gradientUnits="userSpaceOnUse">
<stop stop-color="white"/>
<stop stop-color="white"/>
<stop offset="0.23" stop-color="#E57252"/>
<stop offset="0.46" stop-color="#DE3B20"/>
<stop offset="0.99" stop-color="#A60003"/>
<stop offset="1" stop-color="#A60003"/>
</linearGradient>
<linearGradient id="paint4_linear_391_16149" x1="-0.706176" y1="36.7717" x2="6.83502" y2="37.0676" gradientUnits="userSpaceOnUse">
<stop stop-color="white"/>
<stop stop-color="white"/>
<stop offset="0.31" stop-color="#DE4024"/>
<stop offset="0.99" stop-color="#BF190B"/>
<stop offset="1" stop-color="#BF190B"/>
</linearGradient>
<linearGradient id="paint5_linear_391_16149" x1="15.7185" y1="17.0643" x2="16.1785" y2="24.888" gradientUnits="userSpaceOnUse">
<stop stop-color="white"/>
<stop stop-color="white"/>
<stop offset="0.23" stop-color="#E4714E"/>
<stop offset="0.56" stop-color="#BE1A0D"/>
<stop offset="0.99" stop-color="#A80D00"/>
<stop offset="1" stop-color="#A80D00"/>
</linearGradient>
<linearGradient id="paint6_linear_391_16149" x1="18.7588" y1="7.51189" x2="19.4061" y2="18.8582" gradientUnits="userSpaceOnUse">
<stop stop-color="white"/>
<stop stop-color="white"/>
<stop offset="0.18" stop-color="#E46342"/>
<stop offset="0.4" stop-color="#C82410"/>
<stop offset="0.99" stop-color="#A80D00"/>
<stop offset="1" stop-color="#A80D00"/>
</linearGradient>
<linearGradient id="paint7_linear_391_16149" x1="57.435" y1="10.2593" x2="58.1001" y2="-13.6545" gradientUnits="userSpaceOnUse">
<stop stop-color="white"/>
<stop stop-color="white"/>
<stop offset="0.54" stop-color="#C81F11"/>
<stop offset="0.99" stop-color="#BF0905"/>
<stop offset="1" stop-color="#BF0905"/>
</linearGradient>
<linearGradient id="paint8_linear_391_16149" x1="14.5884" y1="38.7791" x2="36.2513" y2="16.3762" gradientUnits="userSpaceOnUse">
<stop stop-color="#BD0012"/>
<stop stop-color="#BD0012"/>
<stop offset="0.07" stop-color="white"/>
<stop offset="0.17" stop-color="white"/>
<stop offset="0.27" stop-color="#C82F1C"/>
<stop offset="0.33" stop-color="#820C01"/>
<stop offset="0.46" stop-color="#A31601"/>
<stop offset="0.72" stop-color="#B31301"/>
<stop offset="0.99" stop-color="#E82609"/>
<stop offset="1" stop-color="#E82609"/>
</linearGradient>
<linearGradient id="paint9_linear_391_16149" x1="21.7942" y1="28.7985" x2="16.1709" y2="24.779" gradientUnits="userSpaceOnUse">
<stop stop-color="#8C0C01"/>
<stop stop-color="#8C0C01"/>
<stop offset="0.54" stop-color="#990C00"/>
<stop offset="0.99" stop-color="#A80D0E"/>
<stop offset="1" stop-color="#A80D0E"/>
</linearGradient>
<linearGradient id="paint10_linear_391_16149" x1="12.6467" y1="24.1412" x2="1.83725" y2="21.9459" gradientUnits="userSpaceOnUse">
<stop stop-color="#8B2114"/>
<stop stop-color="#8B2114"/>
<stop offset="0.43" stop-color="#9E100A"/>
<stop offset="0.99" stop-color="#B3100C"/>
<stop offset="1" stop-color="#B3100C"/>
</linearGradient>
<linearGradient id="paint11_linear_391_16149" x1="34.3361" y1="18.2044" x2="26.5497" y2="13.8212" gradientUnits="userSpaceOnUse">
<stop stop-color="#7E110B"/>
<stop stop-color="#7E110B"/>
<stop offset="0.99" stop-color="#9E0C00"/>
<stop offset="1" stop-color="#9E0C00"/>
</linearGradient>
<radialGradient id="paint12_radial_391_16149" cx="0" cy="0" r="1" gradientUnits="userSpaceOnUse" gradientTransform="translate(16.4747 26.59) scale(9.45699 7.36184)">
<stop stop-color="#A30C00"/>
<stop stop-color="#A30C00"/>
<stop offset="0.99" stop-color="#800E08"/>
<stop offset="1" stop-color="#800E08"/>
</radialGradient>
<linearGradient id="paint13_linear_391_16149" x1="35.0662" y1="11.2095" x2="31.9431" y2="8.1989" gradientUnits="userSpaceOnUse">
<stop stop-color="#79130D"/>
<stop stop-color="#79130D"/>
<stop offset="0.99" stop-color="#9E120B"/>
<stop offset="1" stop-color="#9E120B"/>
</linearGradient>
<radialGradient id="paint14_radial_391_16149" cx="0" cy="0" r="1" gradientUnits="userSpaceOnUse" gradientTransform="translate(26.3266 17.2151) scale(7.11401 3.71732)">
<stop stop-color="#A80D00"/>
<stop stop-color="#A80D00"/>
<stop offset="0.99" stop-color="#7E0E08"/>
<stop offset="1" stop-color="#7E0E08"/>
</radialGradient>
<linearGradient id="paint15_linear_391_16149" x1="11.8551" y1="6.04663" x2="12.7976" y2="19.7115" gradientUnits="userSpaceOnUse">
<stop stop-color="#B31000"/>
<stop stop-color="#B31000"/>
<stop offset="0.44" stop-color="#910F08"/>
<stop offset="0.99" stop-color="#791C12"/>
<stop offset="1" stop-color="#791C12"/>
</linearGradient>
<clipPath id="clip0_391_16149">
<rect width="28" height="28" fill="white" transform="translate(6.00781 6)"/>
</clipPath>
</defs>
</svg>
