<svg width="96" height="96" viewBox="0 0 96 96" fill="none" xmlns="http://www.w3.org/2000/svg">
<g clip-path="url(#clip0_265_12468)">
<path fill-rule="evenodd" clip-rule="evenodd" d="M21.2653 0C9.52083 0 0 9.52083 0 21.2653V21.2653V74.7347C0 86.4792 9.52083 96 21.2653 96V96H74.7347C86.4792 96 96 86.4792 96 74.7347V74.7347V21.2653C96 9.52083 86.4792 0 74.7347 0V0H21.2653Z" fill="url(#paint0_linear_265_12468)"/>
<path fill-rule="evenodd" clip-rule="evenodd" d="M21.2484 0.0761719C9.51287 0.0761719 0 9.58904 0 21.3246V21.3246V45.5087L9.84917 56.1108C9.84917 56.1108 9.84994 56.1108 9.84994 56.1115V56.1115C9.94854 56.2859 22.6831 78.5669 49.4836 78.5669V78.5669C61.5913 78.5669 65.1096 72.3581 71.1118 72.3581V72.3581C77.3205 72.3581 81.0458 78.5669 81.0458 78.5669V78.5669C84.6681 69.6669 75.665 59.5259 75.665 59.5259V59.5259C75.665 59.5259 85.9101 35.8292 54.2453 14.3049V14.3049C54.2446 14.3042 54.2446 14.3034 54.2438 14.3034V14.3034L40.2145 0.0761719H21.2484Z" fill="url(#paint1_linear_265_12468)"/>
<path fill-rule="evenodd" clip-rule="evenodd" d="M54.3204 14.3105C85.9864 35.8352 75.7415 59.533 75.7415 59.533C75.7415 59.533 84.7446 69.6743 81.1226 78.574C81.1226 78.574 77.3973 72.3649 71.1882 72.3649C65.1862 72.3649 61.6677 78.574 49.5601 78.574C22.6543 78.574 9.92578 56.118 9.92578 56.118C34.1519 72.0817 50.6984 60.7748 50.6984 60.7748C39.7696 54.4265 16.5488 24.1415 16.5488 24.1415C36.7888 41.3572 45.5242 45.8731 45.5242 45.8731C40.2949 41.5673 25.6553 20.5196 25.6553 20.5196C37.3689 32.3714 60.6329 48.8741 60.6329 48.8741C67.2686 30.6322 54.3204 14.3105 54.3204 14.3105" fill="#FEFEFE"/>
</g>
<defs>
<linearGradient id="paint0_linear_265_12468" x1="5.62517" y1="-12.5175" x2="-12.5175" y2="90.3748" gradientUnits="userSpaceOnUse">
<stop stop-color="#FAAE41"/>
<stop offset="1" stop-color="#EF3E31"/>
</linearGradient>
<linearGradient id="paint1_linear_265_12468" x1="9.75147" y1="-4.73029" x2="-2.45975" y2="70.679" gradientUnits="userSpaceOnUse">
<stop stop-color="#E29F3A"/>
<stop offset="1" stop-color="#D43929"/>
</linearGradient>
<clipPath id="clip0_265_12468">
<rect width="96" height="96" fill="white"/>
</clipPath>
</defs>
</svg>
