<svg width="40" height="40" viewBox="0 0 40 40" fill="none" xmlns="http://www.w3.org/2000/svg">
<path d="M0.25 8.86056C0.25 4.10508 4.10508 0.25 8.86056 0.25H31.1394C35.8949 0.25 39.75 4.10508 39.75 8.86056V31.1394C39.75 35.8949 35.8949 39.75 31.1394 39.75H8.86056C4.10508 39.75 0.25 35.8949 0.25 31.1394V8.86056Z" fill="white" stroke="#C6CED9" stroke-width="0.5"/>
<path d="M32.5495 25.6V12.5333L21.2328 6V11.0167L25.6661 13.5833C25.8411 13.7 25.8411 13.9333 25.6661 13.9917L20.4161 17.025C20.2411 17.1417 20.0661 17.0833 19.9495 17.025L14.6995 13.9917C14.5245 13.9333 14.5245 13.6417 14.6995 13.5833L19.1328 11.0167V6L7.75781 12.5333V25.6V25.5417V25.6L12.0745 23.0917V17.9583C12.0745 17.7833 12.3078 17.6667 12.4245 17.725L17.6745 20.7583C17.8495 20.875 17.9078 20.9917 17.9078 21.1667V27.2333C17.9078 27.4083 17.6745 27.525 17.5578 27.4667L13.1245 24.9L8.80781 27.4083L20.1245 34L31.4411 27.4667L27.1245 24.9583L22.6911 27.525C22.5161 27.6417 22.3411 27.525 22.3411 27.2917V21.225C22.3411 21.05 22.4578 20.875 22.5745 20.8167L27.8245 17.7833C27.9995 17.6667 28.1745 17.7833 28.1745 18.0167V23.15L32.5495 25.6Z" fill="#4C4C4C"/>
<path d="M20.1245 34L31.4411 27.4667L27.1245 24.9583L22.6911 27.525C22.5161 27.6417 22.3411 27.525 22.3411 27.2917V21.225C22.3411 21.05 22.4578 20.875 22.5745 20.8167L27.8245 17.7833C27.9995 17.6667 28.1745 17.7833 28.1745 18.0167V23.15L32.4911 25.6583V12.5333L20.1245 19.7083V34Z" fill="black"/>
<path d="M21.2328 6V11.0167L25.6661 13.5833C25.8411 13.7 25.8411 13.9333 25.6661 13.9917L20.4161 17.025C20.2411 17.1417 20.0661 17.0833 19.9495 17.025L14.6995 13.9917C14.5245 13.9333 14.5245 13.6417 14.6995 13.5833L19.1328 11.0167V6L7.75781 12.5333L20.1245 19.7083L32.4911 12.5333L21.2328 6Z" fill="#808080"/>
<path d="M17.6161 27.525L13.1828 24.9583L8.86615 27.4667L20.1828 34V19.7083L7.75781 12.5333V25.6V25.5417V25.6L12.0745 23.0917V17.9583C12.0745 17.7833 12.3078 17.6667 12.4245 17.725L17.6745 20.7583C17.8495 20.875 17.9078 20.9917 17.9078 21.1667V27.2333C17.9661 27.4667 17.7911 27.6417 17.6161 27.525V27.525Z" fill="#4C4C4C"/>
</svg>
