<svg width="200" height="140" viewBox="0 0 200 140" fill="none" xmlns="http://www.w3.org/2000/svg">
<g clip-path="url(#clip0_37_10562)">
<g clip-path="url(#clip1_37_10562)">
<rect x="-252" y="-1" width="614" height="143" fill="url(#paint0_linear_37_10562)"/>
<g clip-path="url(#clip2_37_10562)">
<path d="M-248.724 23.8298H364.042" stroke="#E6EAF0" stroke-width="0.510638"/>
<path d="M-248.724 48.3404H364.042" stroke="#E6EAF0" stroke-width="0.510638"/>
<path d="M-248.724 72.8511H364.042" stroke="#E6EAF0" stroke-width="0.510638"/>
<path d="M-248.724 97.3617H364.042" stroke="#E6EAF0" stroke-width="0.510638"/>
<path d="M-248.724 121.872H364.042" stroke="#E6EAF0" stroke-width="0.510638"/>
<path d="M20.8936 -0.680851V1175.83" stroke="#E6EAF0" stroke-width="0.510638"/>
<path d="M45.4043 -0.680851V1175.83" stroke="#E6EAF0" stroke-width="0.510638"/>
<path d="M69.9149 -0.680851V1175.83" stroke="#E6EAF0" stroke-width="0.510638"/>
<path d="M94.4255 -0.680851V1175.83" stroke="#E6EAF0" stroke-width="0.510638"/>
<path d="M118.936 -0.680851V1175.83" stroke="#E6EAF0" stroke-width="0.510638"/>
<path d="M143.447 -0.680851V1175.83" stroke="#E6EAF0" stroke-width="0.510638"/>
<path d="M167.957 -0.680851V1175.83" stroke="#E6EAF0" stroke-width="0.510638"/>
<path d="M192.468 -0.680851V1175.83" stroke="#E6EAF0" stroke-width="0.510638"/>
</g>
<rect x="-140" y="-1" width="223" height="143" fill="url(#paint1_linear_37_10562)"/>
<rect x="-250.766" y="-1.3617" width="614.128" height="187.234" fill="url(#paint2_linear_37_10562)"/>
<path d="M167.957 72.8511V73.2596H168.366V72.8511H167.957ZM168.366 -0.340424C168.366 -0.566038 168.183 -0.748934 167.957 -0.748934C167.732 -0.748934 167.549 -0.566038 167.549 -0.340424H167.957H168.366ZM135.638 73.2596C135.864 73.2596 136.047 73.0767 136.047 72.8511C136.047 72.6255 135.864 72.4426 135.638 72.4426V72.8511V73.2596ZM137.723 72.4426C137.498 72.4426 137.315 72.6255 137.315 72.8511C137.315 73.0767 137.498 73.2596 137.723 73.2596V72.8511V72.4426ZM139.809 73.2596C140.034 73.2596 140.217 73.0767 140.217 72.8511C140.217 72.6255 140.034 72.4426 139.809 72.4426V72.8511V73.2596ZM141.894 72.4426C141.668 72.4426 141.485 72.6255 141.485 72.8511C141.485 73.0767 141.668 73.2596 141.894 73.2596V72.8511V72.4426ZM143.979 73.2596C144.204 73.2596 144.387 73.0767 144.387 72.8511C144.387 72.6255 144.204 72.4426 143.979 72.4426V72.8511V73.2596ZM146.064 72.4426C145.838 72.4426 145.655 72.6255 145.655 72.8511C145.655 73.0767 145.838 73.2596 146.064 73.2596V72.8511V72.4426ZM148.149 73.2596C148.375 73.2596 148.557 73.0767 148.557 72.8511C148.557 72.6255 148.375 72.4426 148.149 72.4426V72.8511V73.2596ZM150.234 72.4426C150.008 72.4426 149.826 72.6255 149.826 72.8511C149.826 73.0767 150.008 73.2596 150.234 73.2596V72.8511V72.4426ZM152.319 73.2596C152.545 73.2596 152.728 73.0767 152.728 72.8511C152.728 72.6255 152.545 72.4426 152.319 72.4426V72.8511V73.2596ZM154.404 72.4426C154.179 72.4426 153.996 72.6255 153.996 72.8511C153.996 73.0767 154.179 73.2596 154.404 73.2596V72.8511V72.4426ZM156.489 73.2596C156.715 73.2596 156.898 73.0767 156.898 72.8511C156.898 72.6255 156.715 72.4426 156.489 72.4426V72.8511V73.2596ZM158.574 72.4426C158.349 72.4426 158.166 72.6255 158.166 72.8511C158.166 73.0767 158.349 73.2596 158.574 73.2596V72.8511V72.4426ZM160.66 73.2596C160.885 73.2596 161.068 73.0767 161.068 72.8511C161.068 72.6255 160.885 72.4426 160.66 72.4426V72.8511V73.2596ZM162.745 72.4426C162.519 72.4426 162.336 72.6255 162.336 72.8511C162.336 73.0767 162.519 73.2596 162.745 73.2596V72.8511V72.4426ZM164.83 73.2596C165.055 73.2596 165.238 73.0767 165.238 72.8511C165.238 72.6255 165.055 72.4426 164.83 72.4426V72.8511V73.2596ZM166.915 72.4426C166.689 72.4426 166.506 72.6255 166.506 72.8511C166.506 73.0767 166.689 73.2596 166.915 73.2596V72.8511V72.4426ZM168.366 71.8638C168.366 71.6382 168.183 71.4553 167.957 71.4553C167.732 71.4553 167.549 71.6382 167.549 71.8638H167.957H168.366ZM167.549 69.8894C167.549 70.115 167.732 70.2979 167.957 70.2979C168.183 70.2979 168.366 70.115 168.366 69.8894H167.957H167.549ZM168.366 67.9149C168.366 67.6893 168.183 67.5064 167.957 67.5064C167.732 67.5064 167.549 67.6893 167.549 67.9149H167.957H168.366ZM167.549 65.9404C167.549 66.1661 167.732 66.3489 167.957 66.3489C168.183 66.3489 168.366 66.1661 168.366 65.9404H167.957H167.549ZM168.366 63.966C168.366 63.7404 168.183 63.5575 167.957 63.5575C167.732 63.5575 167.549 63.7404 167.549 63.966H167.957H168.366ZM167.549 61.9915C167.549 62.2171 167.732 62.4 167.957 62.4C168.183 62.4 168.366 62.2171 168.366 61.9915H167.957H167.549ZM168.366 60.017C168.366 59.7914 168.183 59.6085 167.957 59.6085C167.732 59.6085 167.549 59.7914 167.549 60.017H167.957H168.366ZM167.549 58.0426C167.549 58.2682 167.732 58.4511 167.957 58.4511C168.183 58.4511 168.366 58.2682 168.366 58.0426H167.957H167.549ZM168.366 56.0681C168.366 55.8425 168.183 55.6596 167.957 55.6596C167.732 55.6596 167.549 55.8425 167.549 56.0681H167.957H168.366ZM167.549 54.0936C167.549 54.3192 167.732 54.5021 167.957 54.5021C168.183 54.5021 168.366 54.3192 168.366 54.0936H167.957H167.549ZM168.366 52.0786C168.366 51.853 168.183 51.6701 167.957 51.6701C167.732 51.6701 167.549 51.853 167.549 52.0786H167.957H168.366ZM167.549 50.0229C167.549 50.2485 167.732 50.4314 167.957 50.4314C168.183 50.4314 168.366 50.2485 168.366 50.0229H167.957H167.549ZM168.366 47.9673C168.366 47.7417 168.183 47.5588 167.957 47.5588C167.732 47.5588 167.549 47.7417 167.549 47.9673H167.957H168.366ZM167.549 45.9116C167.549 46.1372 167.732 46.3201 167.957 46.3201C168.183 46.3201 168.366 46.1372 168.366 45.9116H167.957H167.549ZM168.366 43.856C168.366 43.6304 168.183 43.4475 167.957 43.4475C167.732 43.4475 167.549 43.6304 167.549 43.856H167.957H168.366ZM167.549 41.8003C167.549 42.0259 167.732 42.2088 167.957 42.2088C168.183 42.2088 168.366 42.0259 168.366 41.8003H167.957H167.549ZM168.366 39.7447C168.366 39.5191 168.183 39.3362 167.957 39.3362C167.732 39.3362 167.549 39.5191 167.549 39.7447H167.957H168.366ZM167.549 37.689C167.549 37.9147 167.732 38.0976 167.957 38.0976C168.183 38.0976 168.366 37.9147 168.366 37.689H167.957H167.549ZM168.366 35.6334C168.366 35.4078 168.183 35.2249 167.957 35.2249C167.732 35.2249 167.549 35.4078 167.549 35.6334H167.957H168.366ZM167.549 33.5777C167.549 33.8034 167.732 33.9863 167.957 33.9863C168.183 33.9863 168.366 33.8034 168.366 33.5777H167.957H167.549ZM168.366 31.5221C168.366 31.2965 168.183 31.1136 167.957 31.1136C167.732 31.1136 167.549 31.2965 167.549 31.5221H167.957H168.366ZM167.549 29.4665C167.549 29.6921 167.732 29.875 167.957 29.875C168.183 29.875 168.366 29.6921 168.366 29.4665H167.957H167.549ZM168.366 27.4108C168.366 27.1852 168.183 27.0023 167.957 27.0023C167.732 27.0023 167.549 27.1852 167.549 27.4108H167.957H168.366ZM167.549 25.3552C167.549 25.5808 167.732 25.7637 167.957 25.7637C168.183 25.7637 168.366 25.5808 168.366 25.3552H167.957H167.549ZM168.366 23.2995C168.366 23.0739 168.183 22.891 167.957 22.891C167.732 22.891 167.549 23.0739 167.549 23.2995H167.957H168.366ZM167.549 21.2439C167.549 21.4695 167.732 21.6524 167.957 21.6524C168.183 21.6524 168.366 21.4695 168.366 21.2439H167.957H167.549ZM168.366 19.1882C168.366 18.9626 168.183 18.7797 167.957 18.7797C167.732 18.7797 167.549 18.9626 167.549 19.1882H167.957H168.366ZM167.549 17.1326C167.549 17.3582 167.732 17.5411 167.957 17.5411C168.183 17.5411 168.366 17.3582 168.366 17.1326H167.957H167.549ZM168.366 15.0769C168.366 14.8513 168.183 14.6684 167.957 14.6684C167.732 14.6684 167.549 14.8513 167.549 15.0769H167.957H168.366ZM167.549 13.0213C167.549 13.2469 167.732 13.4298 167.957 13.4298C168.183 13.4298 168.366 13.2469 168.366 13.0213H167.957H167.549ZM168.366 10.9656C168.366 10.74 168.183 10.5571 167.957 10.5571C167.732 10.5571 167.549 10.74 167.549 10.9656H167.957H168.366ZM167.549 8.91C167.549 9.13561 167.732 9.31851 167.957 9.31851C168.183 9.31851 168.366 9.13561 168.366 8.91H167.957H167.549ZM168.366 6.85435C168.366 6.62874 168.183 6.44584 167.957 6.44584C167.732 6.44584 167.549 6.62874 167.549 6.85435H167.957H168.366ZM167.549 4.79871C167.549 5.02432 167.732 5.20722 167.957 5.20722C168.183 5.20722 168.366 5.02432 168.366 4.79871H167.957H167.549ZM168.366 2.74306C168.366 2.51745 168.183 2.33455 167.957 2.33455C167.732 2.33455 167.549 2.51745 167.549 2.74306H167.957H168.366ZM167.549 0.687416C167.549 0.913031 167.732 1.09593 167.957 1.09593C168.183 1.09593 168.366 0.913031 168.366 0.687416H167.957H167.549ZM134.596 72.8511V73.2596H135.638V72.8511V72.4426H134.596V72.8511ZM137.723 72.8511V73.2596H139.809V72.8511V72.4426H137.723V72.8511ZM141.894 72.8511V73.2596H143.979V72.8511V72.4426H141.894V72.8511ZM146.064 72.8511V73.2596H148.149V72.8511V72.4426H146.064V72.8511ZM150.234 72.8511V73.2596H152.319V72.8511V72.4426H150.234V72.8511ZM154.404 72.8511V73.2596H156.489V72.8511V72.4426H154.404V72.8511ZM158.574 72.8511V73.2596H160.66V72.8511V72.4426H158.574V72.8511ZM162.745 72.8511V73.2596H164.83V72.8511V72.4426H162.745V72.8511ZM166.915 72.8511V73.2596H167.957V72.8511V72.4426H166.915V72.8511ZM167.957 72.8511H168.366V71.8638H167.957H167.549V72.8511H167.957ZM167.957 69.8894H168.366V67.9149H167.957H167.549V69.8894H167.957ZM167.957 65.9404H168.366V63.966H167.957H167.549V65.9404H167.957ZM167.957 61.9915H168.366V60.017H167.957H167.549V61.9915H167.957ZM167.957 58.0426H168.366V56.0681H167.957H167.549V58.0426H167.957ZM167.957 54.0936H168.366V53.1064H167.957H167.549V54.0936H167.957ZM167.957 53.1064H168.366V52.0786H167.957H167.549V53.1064H167.957ZM167.957 50.0229H168.366V47.9673H167.957H167.549V50.0229H167.957ZM167.957 45.9116H168.366V43.856H167.957H167.549V45.9116H167.957ZM167.957 41.8003H168.366V39.7447H167.957H167.549V41.8003H167.957ZM167.957 37.689H168.366V35.6334H167.957H167.549V37.689H167.957ZM167.957 33.5777H168.366V31.5221H167.957H167.549V33.5777H167.957ZM167.957 29.4665H168.366V27.4108H167.957H167.549V29.4665H167.957ZM167.957 25.3552H168.366V23.2995H167.957H167.549V25.3552H167.957ZM167.957 21.2439H168.366V19.1882H167.957H167.549V21.2439H167.957ZM167.957 17.1326H168.366V15.0769H167.957H167.549V17.1326H167.957ZM167.957 13.0213H168.366V10.9656H167.957H167.549V13.0213H167.957ZM167.957 8.91H168.366V6.85435H167.957H167.549V8.91H167.957ZM167.957 4.79871H168.366V2.74306H167.957H167.549V4.79871H167.957ZM167.957 0.687416H168.366V-0.340424H167.957H167.549V0.687416H167.957Z" fill="url(#paint3_linear_37_10562)"/>
<path d="M131.055 72.9192C131.055 74.1225 132.031 75.0979 133.234 75.0979C134.437 75.0979 135.413 74.1225 135.413 72.9192C135.413 71.7159 134.437 70.7405 133.234 70.7405C132.031 70.7405 131.055 71.7159 131.055 72.9192ZM79.4468 97.3618V97.7703H116.213V97.3618V96.9533H79.4468V97.3618ZM118.936 94.6384H119.345V75.6426H118.936H118.528V94.6384H118.936ZM121.66 72.9192V73.3277H133.234V72.9192V72.5107H121.66V72.9192ZM118.936 75.6426H119.345C119.345 74.3641 120.381 73.3277 121.66 73.3277V72.9192V72.5107C119.93 72.5107 118.528 73.9129 118.528 75.6426H118.936ZM116.213 97.3618V97.7703C117.942 97.7703 119.345 96.3681 119.345 94.6384H118.936H118.528C118.528 95.9168 117.491 96.9533 116.213 96.9533V97.3618Z" fill="url(#paint4_linear_37_10562)"/>
<path d="M67.7362 48.3404C67.7362 49.5437 68.7116 50.5191 69.9149 50.5191C71.1182 50.5191 72.0937 49.5437 72.0937 48.3404C72.0937 47.1371 71.1182 46.1617 69.9149 46.1617C68.7116 46.1617 67.7362 47.1371 67.7362 48.3404ZM-28.1276 23.4213C-28.3532 23.4213 -28.5361 23.6042 -28.5361 23.8298C-28.5361 24.0554 -28.3532 24.2383 -28.1276 24.2383V23.8298V23.4213ZM45.4043 48.3404V48.7489H69.9149V48.3404V47.9319H45.4043V48.3404ZM45.4043 48.3404V47.9319H23.6171V48.3404V48.7489H45.4043V48.3404ZM20.8937 45.617H21.3022V26.5532H20.8937H20.4851V45.617H20.8937ZM18.1702 23.8298V23.4213H-3.61699V23.8298V24.2383H18.1702V23.8298ZM-3.61699 23.8298V23.4213H-28.1276V23.8298V24.2383H-3.61699V23.8298ZM20.8937 26.5532H21.3022C21.3022 24.8235 19.9 23.4213 18.1702 23.4213V23.8298V24.2383C19.4487 24.2383 20.4851 25.2747 20.4851 26.5532H20.8937ZM23.6171 48.3404V47.9319C22.3386 47.9319 21.3022 46.8955 21.3022 45.617H20.8937H20.4851C20.4851 47.3467 21.8873 48.7489 23.6171 48.7489V48.3404Z" fill="url(#paint5_linear_37_10562)"/>
</g>
</g>
<defs>
<linearGradient id="paint0_linear_37_10562" x1="55" y1="142" x2="55" y2="-1" gradientUnits="userSpaceOnUse">
<stop stop-color="white"/>
<stop offset="1" stop-color="white" stop-opacity="0"/>
</linearGradient>
<linearGradient id="paint1_linear_37_10562" x1="-140" y1="67.2126" x2="68.9455" y2="124.638" gradientUnits="userSpaceOnUse">
<stop stop-color="white"/>
<stop offset="0.409733" stop-color="white"/>
<stop offset="1" stop-color="white" stop-opacity="0"/>
</linearGradient>
<linearGradient id="paint2_linear_37_10562" x1="52.2128" y1="217.872" x2="56.2979" y2="-1.36171" gradientUnits="userSpaceOnUse">
<stop stop-color="white"/>
<stop offset="1" stop-color="white" stop-opacity="0"/>
</linearGradient>
<linearGradient id="paint3_linear_37_10562" x1="165.575" y1="66.383" x2="168.979" y2="8.85107" gradientUnits="userSpaceOnUse">
<stop stop-color="#C6CED9"/>
<stop offset="1" stop-color="#C6CED9" stop-opacity="0.2"/>
</linearGradient>
<linearGradient id="paint4_linear_37_10562" x1="108.383" y1="94.9787" x2="79.4468" y2="97.3617" gradientUnits="userSpaceOnUse">
<stop stop-color="#C6CED9"/>
<stop offset="1" stop-color="#C6CED9" stop-opacity="0.2"/>
</linearGradient>
<linearGradient id="paint5_linear_37_10562" x1="-3.61699" y1="48.6809" x2="69.9149" y2="48.6809" gradientUnits="userSpaceOnUse">
<stop stop-color="#C6CED9" stop-opacity="0.2"/>
<stop offset="0.370516" stop-color="#C6CED9"/>
<stop offset="1" stop-color="#C6CED9"/>
</linearGradient>
<clipPath id="clip0_37_10562">
<rect width="200" height="140" fill="white"/>
</clipPath>
<clipPath id="clip1_37_10562">
<rect width="286" height="142" fill="white" transform="translate(-86)"/>
</clipPath>
<clipPath id="clip2_37_10562">
<rect width="614.128" height="170.894" fill="white" transform="translate(-249.404 -1.3617)"/>
</clipPath>
</defs>
</svg>
