<svg width="660" height="282" viewBox="0 0 660 282" fill="none" xmlns="http://www.w3.org/2000/svg">
<g clip-path="url(#clip0_1_3823)">
<g clip-path="url(#clip1_1_3823)">
<path d="M-239 35H661" stroke="#E6EAF0" style="stroke:#E6EAF0;stroke:color(display-p3 0.9020 0.9176 0.9412);stroke-opacity:1;" stroke-width="0.75"/>
<path d="M-239 71H661" stroke="#E6EAF0" style="stroke:#E6EAF0;stroke:color(display-p3 0.9020 0.9176 0.9412);stroke-opacity:1;" stroke-width="0.75"/>
<path d="M-239 107H661" stroke="#E6EAF0" style="stroke:#E6EAF0;stroke:color(display-p3 0.9020 0.9176 0.9412);stroke-opacity:1;" stroke-width="0.75"/>
<path d="M-239 143H661" stroke="#E6EAF0" style="stroke:#E6EAF0;stroke:color(display-p3 0.9020 0.9176 0.9412);stroke-opacity:1;" stroke-width="0.75"/>
<path d="M-239 179H661" stroke="#E6EAF0" style="stroke:#E6EAF0;stroke:color(display-p3 0.9020 0.9176 0.9412);stroke-opacity:1;" stroke-width="0.75"/>
<path d="M-239 215H661" stroke="#E6EAF0" style="stroke:#E6EAF0;stroke:color(display-p3 0.9020 0.9176 0.9412);stroke-opacity:1;" stroke-width="0.75"/>
<path d="M-239 251H661" stroke="#E6EAF0" style="stroke:#E6EAF0;stroke:color(display-p3 0.9020 0.9176 0.9412);stroke-opacity:1;" stroke-width="0.75"/>
<path d="M13 -1V1727" stroke="#E6EAF0" style="stroke:#E6EAF0;stroke:color(display-p3 0.9020 0.9176 0.9412);stroke-opacity:1;" stroke-width="0.75"/>
<path d="M49 -1V1727" stroke="#E6EAF0" style="stroke:#E6EAF0;stroke:color(display-p3 0.9020 0.9176 0.9412);stroke-opacity:1;" stroke-width="0.75"/>
<path d="M85 -1V1727" stroke="#E6EAF0" style="stroke:#E6EAF0;stroke:color(display-p3 0.9020 0.9176 0.9412);stroke-opacity:1;" stroke-width="0.75"/>
<path d="M121 -1V1727" stroke="#E6EAF0" style="stroke:#E6EAF0;stroke:color(display-p3 0.9020 0.9176 0.9412);stroke-opacity:1;" stroke-width="0.75"/>
<path d="M157 -1V1727" stroke="#E6EAF0" style="stroke:#E6EAF0;stroke:color(display-p3 0.9020 0.9176 0.9412);stroke-opacity:1;" stroke-width="0.75"/>
<path d="M193 -1V1727" stroke="#E6EAF0" style="stroke:#E6EAF0;stroke:color(display-p3 0.9020 0.9176 0.9412);stroke-opacity:1;" stroke-width="0.75"/>
<path d="M229 -1V1727" stroke="#E6EAF0" style="stroke:#E6EAF0;stroke:color(display-p3 0.9020 0.9176 0.9412);stroke-opacity:1;" stroke-width="0.75"/>
<path d="M265 -1V1727" stroke="#E6EAF0" style="stroke:#E6EAF0;stroke:color(display-p3 0.9020 0.9176 0.9412);stroke-opacity:1;" stroke-width="0.75"/>
<path d="M301 -1V1727" stroke="#E6EAF0" style="stroke:#E6EAF0;stroke:color(display-p3 0.9020 0.9176 0.9412);stroke-opacity:1;" stroke-width="0.75"/>
<path d="M337 -1V1727" stroke="#E6EAF0" style="stroke:#E6EAF0;stroke:color(display-p3 0.9020 0.9176 0.9412);stroke-opacity:1;" stroke-width="0.75"/>
<path d="M373 -1V1727" stroke="#E6EAF0" style="stroke:#E6EAF0;stroke:color(display-p3 0.9020 0.9176 0.9412);stroke-opacity:1;" stroke-width="0.75"/>
<path d="M409 -1V1727" stroke="#E6EAF0" style="stroke:#E6EAF0;stroke:color(display-p3 0.9020 0.9176 0.9412);stroke-opacity:1;" stroke-width="0.75"/>
<path d="M445 -1V1727" stroke="#E6EAF0" style="stroke:#E6EAF0;stroke:color(display-p3 0.9020 0.9176 0.9412);stroke-opacity:1;" stroke-width="0.75"/>
<path d="M481 -1V1727" stroke="#E6EAF0" style="stroke:#E6EAF0;stroke:color(display-p3 0.9020 0.9176 0.9412);stroke-opacity:1;" stroke-width="0.75"/>
<path d="M517 -1V1727" stroke="#E6EAF0" style="stroke:#E6EAF0;stroke:color(display-p3 0.9020 0.9176 0.9412);stroke-opacity:1;" stroke-width="0.75"/>
<path d="M553 -1V1727" stroke="#E6EAF0" style="stroke:#E6EAF0;stroke:color(display-p3 0.9020 0.9176 0.9412);stroke-opacity:1;" stroke-width="0.75"/>
<path d="M589 -1V1727" stroke="#E6EAF0" style="stroke:#E6EAF0;stroke:color(display-p3 0.9020 0.9176 0.9412);stroke-opacity:1;" stroke-width="0.75"/>
<path d="M625 -1V1727" stroke="#E6EAF0" style="stroke:#E6EAF0;stroke:color(display-p3 0.9020 0.9176 0.9412);stroke-opacity:1;" stroke-width="0.75"/>
</g>
<rect x="-239" y="-1" width="463" height="283" fill="url(#paint0_linear_1_3823)"/>
<rect x="-242" y="-2" width="902" height="284" fill="url(#paint1_linear_1_3823)"/>
<path d="M373 107V107.6H373.6V107H373ZM373.6 -0.5C373.6 -0.831371 373.331 -1.1 373 -1.1C372.669 -1.1 372.4 -0.831371 372.4 -0.5H373H373.6ZM325.531 107.6C325.863 107.6 326.131 107.331 326.131 107C326.131 106.669 325.863 106.4 325.531 106.4V107V107.6ZM328.594 106.4C328.262 106.4 327.994 106.669 327.994 107C327.994 107.331 328.262 107.6 328.594 107.6V107V106.4ZM331.656 107.6C331.988 107.6 332.256 107.331 332.256 107C332.256 106.669 331.988 106.4 331.656 106.4V107V107.6ZM334.719 106.4C334.387 106.4 334.119 106.669 334.119 107C334.119 107.331 334.387 107.6 334.719 107.6V107V106.4ZM337.781 107.6C338.113 107.6 338.381 107.331 338.381 107C338.381 106.669 338.113 106.4 337.781 106.4V107V107.6ZM340.844 106.4C340.512 106.4 340.244 106.669 340.244 107C340.244 107.331 340.512 107.6 340.844 107.6V107V106.4ZM343.906 107.6C344.238 107.6 344.506 107.331 344.506 107C344.506 106.669 344.238 106.4 343.906 106.4V107V107.6ZM346.969 106.4C346.637 106.4 346.369 106.669 346.369 107C346.369 107.331 346.637 107.6 346.969 107.6V107V106.4ZM350.031 107.6C350.363 107.6 350.631 107.331 350.631 107C350.631 106.669 350.363 106.4 350.031 106.4V107V107.6ZM353.094 106.4C352.762 106.4 352.494 106.669 352.494 107C352.494 107.331 352.762 107.6 353.094 107.6V107V106.4ZM356.156 107.6C356.488 107.6 356.756 107.331 356.756 107C356.756 106.669 356.488 106.4 356.156 106.4V107V107.6ZM359.219 106.4C358.887 106.4 358.619 106.669 358.619 107C358.619 107.331 358.887 107.6 359.219 107.6V107V106.4ZM362.281 107.6C362.613 107.6 362.881 107.331 362.881 107C362.881 106.669 362.613 106.4 362.281 106.4V107V107.6ZM365.344 106.4C365.012 106.4 364.744 106.669 364.744 107C364.744 107.331 365.012 107.6 365.344 107.6V107V106.4ZM368.406 107.6C368.738 107.6 369.006 107.331 369.006 107C369.006 106.669 368.738 106.4 368.406 106.4V107V107.6ZM371.469 106.4C371.137 106.4 370.869 106.669 370.869 107C370.869 107.331 371.137 107.6 371.469 107.6V107V106.4ZM373.6 105.55C373.6 105.219 373.331 104.95 373 104.95C372.669 104.95 372.4 105.219 372.4 105.55H373H373.6ZM372.4 102.65C372.4 102.981 372.669 103.25 373 103.25C373.331 103.25 373.6 102.981 373.6 102.65H373H372.4ZM373.6 99.75C373.6 99.4186 373.331 99.15 373 99.15C372.669 99.15 372.4 99.4186 372.4 99.75H373H373.6ZM372.4 96.85C372.4 97.1814 372.669 97.45 373 97.45C373.331 97.45 373.6 97.1814 373.6 96.85H373H372.4ZM373.6 93.95C373.6 93.6186 373.331 93.35 373 93.35C372.669 93.35 372.4 93.6186 372.4 93.95H373H373.6ZM372.4 91.05C372.4 91.3814 372.669 91.65 373 91.65C373.331 91.65 373.6 91.3814 373.6 91.05H373H372.4ZM373.6 88.15C373.6 87.8186 373.331 87.55 373 87.55C372.669 87.55 372.4 87.8186 372.4 88.15H373H373.6ZM372.4 85.25C372.4 85.5814 372.669 85.85 373 85.85C373.331 85.85 373.6 85.5814 373.6 85.25H373H372.4ZM373.6 82.35C373.6 82.0186 373.331 81.75 373 81.75C372.669 81.75 372.4 82.0186 372.4 82.35H373H373.6ZM372.4 79.45C372.4 79.7814 372.669 80.05 373 80.05C373.331 80.05 373.6 79.7814 373.6 79.45H373H372.4ZM373.6 76.4904C373.6 76.159 373.331 75.8904 373 75.8904C372.669 75.8904 372.4 76.159 372.4 76.4904H373H373.6ZM372.4 73.4712C372.4 73.8025 372.669 74.0712 373 74.0712C373.331 74.0712 373.6 73.8025 373.6 73.4712H373H372.4ZM373.6 70.4519C373.6 70.1206 373.331 69.8519 373 69.8519C372.669 69.8519 372.4 70.1206 372.4 70.4519H373H373.6ZM372.4 67.4327C372.4 67.7641 372.669 68.0327 373 68.0327C373.331 68.0327 373.6 67.7641 373.6 67.4327H373H372.4ZM373.6 64.4135C373.6 64.0821 373.331 63.8135 373 63.8135C372.669 63.8135 372.4 64.0821 372.4 64.4135H373H373.6ZM372.4 61.3942C372.4 61.7256 372.669 61.9942 373 61.9942C373.331 61.9942 373.6 61.7256 373.6 61.3942H373H372.4ZM373.6 58.375C373.6 58.0436 373.331 57.775 373 57.775C372.669 57.775 372.4 58.0436 372.4 58.375H373H373.6ZM372.4 55.3558C372.4 55.6871 372.669 55.9558 373 55.9558C373.331 55.9558 373.6 55.6871 373.6 55.3558H373H372.4ZM373.6 52.3365C373.6 52.0052 373.331 51.7365 373 51.7365C372.669 51.7365 372.4 52.0052 372.4 52.3365H373H373.6ZM372.4 49.3173C372.4 49.6487 372.669 49.9173 373 49.9173C373.331 49.9173 373.6 49.6487 373.6 49.3173H373H372.4ZM373.6 46.2981C373.6 45.9667 373.331 45.6981 373 45.6981C372.669 45.6981 372.4 45.9667 372.4 46.2981H373H373.6ZM372.4 43.2789C372.4 43.6102 372.669 43.8788 373 43.8788C373.331 43.8788 373.6 43.6102 373.6 43.2789H373H372.4ZM373.6 40.2596C373.6 39.9282 373.331 39.6596 373 39.6596C372.669 39.6596 372.4 39.9282 372.4 40.2596H373H373.6ZM372.4 37.2404C372.4 37.5718 372.669 37.8404 373 37.8404C373.331 37.8404 373.6 37.5718 373.6 37.2404H373H372.4ZM373.6 34.2212C373.6 33.8898 373.331 33.6212 373 33.6212C372.669 33.6212 372.4 33.8898 372.4 34.2212H373H373.6ZM372.4 31.2019C372.4 31.5333 372.669 31.8019 373 31.8019C373.331 31.8019 373.6 31.5333 373.6 31.2019H373H372.4ZM373.6 28.1827C373.6 27.8513 373.331 27.5827 373 27.5827C372.669 27.5827 372.4 27.8513 372.4 28.1827H373H373.6ZM372.4 25.1635C372.4 25.4948 372.669 25.7635 373 25.7635C373.331 25.7635 373.6 25.4948 373.6 25.1635H373H372.4ZM373.6 22.1442C373.6 21.8129 373.331 21.5442 373 21.5442C372.669 21.5442 372.4 21.8129 372.4 22.1442H373H373.6ZM372.4 19.125C372.4 19.4564 372.669 19.725 373 19.725C373.331 19.725 373.6 19.4564 373.6 19.125H373H372.4ZM373.6 16.1058C373.6 15.7744 373.331 15.5058 373 15.5058C372.669 15.5058 372.4 15.7744 372.4 16.1058H373H373.6ZM372.4 13.0865C372.4 13.4179 372.669 13.6865 373 13.6865C373.331 13.6865 373.6 13.4179 373.6 13.0865H373H372.4ZM373.6 10.0673C373.6 9.73594 373.331 9.46732 373 9.46732C372.669 9.46732 372.4 9.73594 372.4 10.0673H373H373.6ZM372.4 7.04808C372.4 7.37945 372.669 7.64808 373 7.64808C373.331 7.64808 373.6 7.37945 373.6 7.04808H373H372.4ZM373.6 4.02884C373.6 3.69747 373.331 3.42884 373 3.42884C372.669 3.42884 372.4 3.69747 372.4 4.02884H373H373.6ZM372.4 1.00961C372.4 1.34098 372.669 1.60961 373 1.60961C373.331 1.60961 373.6 1.34098 373.6 1.00961H373H372.4ZM324 107V107.6H325.531V107V106.4H324V107ZM328.594 107V107.6H331.656V107V106.4H328.594V107ZM334.719 107V107.6H337.781V107V106.4H334.719V107ZM340.844 107V107.6H343.906V107V106.4H340.844V107ZM346.969 107V107.6H350.031V107V106.4H346.969V107ZM353.094 107V107.6H356.156V107V106.4H353.094V107ZM359.219 107V107.6H362.281V107V106.4H359.219V107ZM365.344 107V107.6H368.406V107V106.4H365.344V107ZM371.469 107V107.6H373V107V106.4H371.469V107ZM373 107H373.6V105.55H373H372.4V107H373ZM373 102.65H373.6V99.75H373H372.4V102.65H373ZM373 96.85H373.6V93.95H373H372.4V96.85H373ZM373 91.05H373.6V88.15H373H372.4V91.05H373ZM373 85.25H373.6V82.35H373H372.4V85.25H373ZM373 79.45H373.6V78H373H372.4V79.45H373ZM373 78H373.6V76.4904H373H372.4V78H373ZM373 73.4712H373.6V70.4519H373H372.4V73.4712H373ZM373 67.4327H373.6V64.4135H373H372.4V67.4327H373ZM373 61.3942H373.6V58.375H373H372.4V61.3942H373ZM373 55.3558H373.6V52.3365H373H372.4V55.3558H373ZM373 49.3173H373.6V46.2981H373H372.4V49.3173H373ZM373 43.2789H373.6V40.2596H373H372.4V43.2789H373ZM373 37.2404H373.6V34.2212H373H372.4V37.2404H373ZM373 31.2019H373.6V28.1827H373H372.4V31.2019H373ZM373 25.1635H373.6V22.1442H373H372.4V25.1635H373ZM373 19.125H373.6V16.1058H373H372.4V19.125H373ZM373 13.0865H373.6V10.0673H373H372.4V13.0865H373ZM373 7.04808H373.6V4.02884H373H372.4V7.04808H373ZM373 1.00961H373.6V-0.5H373H372.4V1.00961H373Z" fill="url(#paint2_linear_1_3823)"/>
<path d="M318.8 107.1C318.8 108.867 320.233 110.3 322 110.3C323.767 110.3 325.2 108.867 325.2 107.1C325.2 105.333 323.767 103.9 322 103.9C320.233 103.9 318.8 105.333 318.8 107.1ZM243 143V143.6H297V143V142.4H243V143ZM301 139H301.6V111.1H301H300.4V139H301ZM305 107.1V107.7H322V107.1V106.5H305V107.1ZM301 111.1H301.6C301.6 109.222 303.122 107.7 305 107.7V107.1V106.5C302.459 106.5 300.4 108.56 300.4 111.1H301ZM297 143V143.6C299.541 143.6 301.6 141.541 301.6 139H301H300.4C300.4 140.878 298.878 142.4 297 142.4V143Z" fill="url(#paint3_linear_1_3823)"/>
<path d="M589 35.6C589.331 35.6 589.6 35.3314 589.6 35C589.6 34.6686 589.331 34.4 589 34.4V35V35.6ZM513.8 143C513.8 144.767 515.233 146.2 517 146.2C518.767 146.2 520.2 144.767 520.2 143C520.2 141.233 518.767 139.8 517 139.8C515.233 139.8 513.8 141.233 513.8 143ZM589 35V34.4H557V35V35.6H589V35ZM553 39H552.4V67H553H553.6V39H553ZM549 71V70.4H521V71V71.6H549V71ZM517 75H516.4V107H517H517.6V75H517ZM517 107H516.4V143H517H517.6V107H517ZM521 71V70.4C518.459 70.4 516.4 72.4595 516.4 75H517H517.6C517.6 73.1222 519.122 71.6 521 71.6V71ZM553 67H552.4C552.4 68.8778 550.878 70.4 549 70.4V71V71.6C551.541 71.6 553.6 69.5405 553.6 67H553ZM557 35V34.4C554.459 34.4 552.4 36.4595 552.4 39H553H553.6C553.6 37.1222 555.122 35.6 557 35.6V35Z" fill="url(#paint4_linear_1_3823)"/>
<path d="M225.8 71C225.8 72.7673 227.233 74.2 229 74.2C230.767 74.2 232.2 72.7673 232.2 71C232.2 69.2327 230.767 67.8 229 67.8C227.233 67.8 225.8 69.2327 225.8 71ZM85 34.4C84.6686 34.4 84.4 34.6686 84.4 35C84.4 35.3314 84.6686 35.6 85 35.6V35V34.4ZM193 71V71.6H229V71V70.4H193V71ZM193 71V70.4H161V71V71.6H193V71ZM157 67H157.6V39H157H156.4V67H157ZM153 35V34.4H85V35V35.6H153V35ZM157 39H157.6C157.6 36.4595 155.541 34.4 153 34.4V35V35.6C154.878 35.6 156.4 37.1222 156.4 39H157ZM161 71V70.4C159.122 70.4 157.6 68.8778 157.6 67H157H156.4C156.4 69.5405 158.459 71.6 161 71.6V71Z" fill="url(#paint5_linear_1_3823)"/>
</g>
<defs>
<linearGradient id="paint0_linear_1_3823" x1="-239" y1="133.994" x2="191.564" y2="258.965" gradientUnits="userSpaceOnUse">
<stop stop-color="white" style="stop-color:white;stop-opacity:1;"/>
<stop offset="0.409733" stop-color="white" style="stop-color:white;stop-opacity:1;"/>
<stop offset="1" stop-color="white" stop-opacity="0" style="stop-color:none;stop-opacity:0;"/>
</linearGradient>
<linearGradient id="paint1_linear_1_3823" x1="203" y1="330.538" x2="209.399" y2="-1.99233" gradientUnits="userSpaceOnUse">
<stop stop-color="white" style="stop-color:white;stop-opacity:1;"/>
<stop offset="1" stop-color="white" stop-opacity="0" style="stop-color:none;stop-opacity:0;"/>
</linearGradient>
<linearGradient id="paint2_linear_1_3823" x1="369.5" y1="97.5" x2="374.5" y2="13" gradientUnits="userSpaceOnUse">
<stop stop-color="#C6CED9" style="stop-color:#C6CED9;stop-color:color(display-p3 0.7765 0.8078 0.8510);stop-opacity:1;"/>
<stop offset="1" stop-color="#C6CED9" stop-opacity="0.2" style="stop-color:#C6CED9;stop-color:color(display-p3 0.7765 0.8078 0.8510);stop-opacity:0.2;"/>
</linearGradient>
<linearGradient id="paint3_linear_1_3823" x1="285.5" y1="139.5" x2="243" y2="143" gradientUnits="userSpaceOnUse">
<stop stop-color="#C6CED9" style="stop-color:#C6CED9;stop-color:color(display-p3 0.7765 0.8078 0.8510);stop-opacity:1;"/>
<stop offset="1" stop-color="#C6CED9" stop-opacity="0.2" style="stop-color:#C6CED9;stop-color:color(display-p3 0.7765 0.8078 0.8510);stop-opacity:0.2;"/>
</linearGradient>
<linearGradient id="paint4_linear_1_3823" x1="603.968" y1="40.9771" x2="537.032" y2="135.023" gradientUnits="userSpaceOnUse">
<stop stop-color="#C6CED9" stop-opacity="0.1" style="stop-color:#C6CED9;stop-color:color(display-p3 0.7765 0.8078 0.8510);stop-opacity:0.1;"/>
<stop offset="0.459342" stop-color="#C6CED9" style="stop-color:#C6CED9;stop-color:color(display-p3 0.7765 0.8078 0.8510);stop-opacity:1;"/>
<stop offset="1" stop-color="#C6CED9" style="stop-color:#C6CED9;stop-color:color(display-p3 0.7765 0.8078 0.8510);stop-opacity:1;"/>
</linearGradient>
<linearGradient id="paint5_linear_1_3823" x1="121" y1="71.5" x2="229" y2="71.5" gradientUnits="userSpaceOnUse">
<stop stop-color="#C6CED9" stop-opacity="0.2" style="stop-color:#C6CED9;stop-color:color(display-p3 0.7765 0.8078 0.8510);stop-opacity:0.2;"/>
<stop offset="0.370516" stop-color="#C6CED9" style="stop-color:#C6CED9;stop-color:color(display-p3 0.7765 0.8078 0.8510);stop-opacity:1;"/>
<stop offset="1" stop-color="#C6CED9" style="stop-color:#C6CED9;stop-color:color(display-p3 0.7765 0.8078 0.8510);stop-opacity:1;"/>
</linearGradient>
<clipPath id="clip0_1_3823">
<rect width="660" height="282" fill="white" style="fill:white;fill-opacity:1;"/>
</clipPath>
<clipPath id="clip1_1_3823">
<rect width="900" height="275" fill="white" style="fill:white;fill-opacity:1;" transform="translate(-240 -2)"/>
</clipPath>
</defs>
</svg>
