<svg width="48" height="48" viewBox="0 0 48 48" fill="none" xmlns="http://www.w3.org/2000/svg">
<path d="M39 10C39 6.13401 31.3888 3 22 3C12.6112 3 5 6.13401 5 10" stroke="#03020D" stroke-width="1.5" stroke-miterlimit="10"/>
<path d="M39 18C39 21.866 31.3888 25 22 25C12.6112 25 5 21.866 5 18" stroke="#03020D" stroke-width="1.5" stroke-miterlimit="10"/>
<path d="M5 26C5 29.6251 11.6922 32.6066 20.2671 32.9641" stroke="#03020D" stroke-width="1.5" stroke-miterlimit="10" stroke-linecap="round"/>
<path d="M39 10C39 13.866 31.3888 17 22 17C12.6112 17 5 13.866 5 10" stroke="#03020D" stroke-width="1.5" stroke-miterlimit="10"/>
<path d="M5 34C5 37.6953 11.9538 40.7218 20.7671 40.9819" stroke="#03020D" stroke-width="1.5" stroke-miterlimit="10" stroke-linecap="round"/>
<path d="M5 10V34" stroke="#03020D" stroke-width="1.5" stroke-miterlimit="10"/>
<path d="M39 10V25" stroke="#03020D" stroke-width="1.5" stroke-miterlimit="10" stroke-linecap="round"/>
<circle cx="33.5" cy="37" r="10.5" fill="#FF5416"/>
<path d="M28.5 37C28.5 39.7614 30.5355 42 33.0464 42H35.996V32H33.0464C30.5355 32 28.5 34.2386 28.5 37Z" stroke="white" stroke-width="1.5" stroke-linejoin="round"/>
<path d="M36.0013 34.5L38.5 34.5" stroke="white" stroke-width="1.5" stroke-linecap="round" stroke-linejoin="round"/>
<path d="M36.0013 39.5L38.5 39.5" stroke="white" stroke-width="1.5" stroke-linecap="round" stroke-linejoin="round"/>
</svg>
