<svg width="230" height="238" viewBox="0 0 230 238" fill="none" xmlns="http://www.w3.org/2000/svg">
<g filter="url(#filter0_dd_567_16681)">
<path d="M210.5 81V80.5H210H29.3132C27.2072 80.5 25.5 82.2072 25.5 84.3132V110.687C25.5 112.793 27.2072 114.5 29.3132 114.5H206.687C208.793 114.5 210.5 112.793 210.5 110.687V81Z" fill="#F0F2F5" stroke="#00B3EC"/>
<circle cx="123.947" cy="103.9" r="6.07423" stroke="#A8A8A8" stroke-width="1.10441"/>
<path d="M119.529 108.456L128.365 99.6206" stroke="#A8A8A8" stroke-width="1.10441"/>
<path d="M107.986 87.9987L107.986 87.9987C108.067 87.9238 108.165 87.8503 108.288 87.8026C108.414 87.7533 108.539 87.7428 108.657 87.7509L108.661 87.7511L108.661 87.7511C108.695 87.7538 108.723 87.7605 108.73 87.7622L108.731 87.7623C108.742 87.7651 108.752 87.768 108.759 87.77C108.773 87.7741 108.786 87.7786 108.797 87.7825C108.82 87.7905 108.849 87.801 108.881 87.8131C108.945 87.8376 109.035 87.8726 109.145 87.9164C109.365 88.0042 109.675 88.1302 110.052 88.2848C110.806 88.5941 111.83 89.0194 112.943 89.4861L113.13 89.5642C115.32 90.4829 117.973 91.5953 119.106 92.0692L119.107 92.0695C119.689 92.314 120.228 92.5427 120.628 92.7141C120.827 92.7998 120.993 92.8714 121.111 92.9238C121.171 92.9498 121.22 92.9717 121.256 92.9883C121.274 92.9965 121.29 93.0043 121.304 93.0111L121.305 93.0115C121.312 93.0146 121.342 93.0293 121.371 93.0478C121.371 93.0479 121.371 93.048 121.371 93.0481L121.143 93.3936C121.427 93.5811 121.43 94.0222 121.151 94.2154L107.986 87.9987ZM107.986 87.9987L107.984 88.0004M107.986 87.9987L107.984 88.0004M107.984 88.0004C107.784 88.1864 107.676 88.4448 107.693 88.7209L107.693 88.7212M107.984 88.0004L107.693 88.7212M107.693 88.7212C107.697 88.7828 107.715 88.8386 107.719 88.85C107.719 88.8506 107.719 88.8512 107.719 88.8515C107.727 88.8755 107.737 88.9022 107.747 88.9297C107.768 88.9855 107.798 89.0608 107.837 89.156C107.916 89.3473 108.037 89.6312 108.207 90.0255C108.548 90.8146 109.091 92.0535 109.902 93.8941L109.902 93.8943M107.693 88.7212L109.902 93.8943M109.902 93.8943C110.829 95.9959 111.769 98.1344 112.282 99.3C112.429 99.6344 112.541 99.8887 112.607 100.039L109.902 93.8943Z" fill="#03020D" stroke="white" stroke-width="0.828303"/>
<path d="M40.1181 93.2918V102.019H39.0613V94.3997H39.0101L36.8794 95.8145V94.7406L39.0613 93.2918H40.1181ZM43.6294 100.826L43.5613 101.286C43.513 101.61 43.4391 101.957 43.3397 102.326C43.2431 102.695 43.1422 103.043 43.0371 103.37C42.932 103.697 42.8453 103.957 42.7772 104.15H42.0101C42.0471 103.968 42.0953 103.728 42.155 103.43C42.2147 103.131 42.2743 102.797 42.334 102.428C42.3965 102.062 42.4476 101.687 42.4874 101.303L42.5385 100.826H43.6294ZM45.4757 102.019V101.252L48.3564 98.0986C48.6944 97.7293 48.9728 97.4082 49.1916 97.1355C49.4103 96.86 49.5723 96.6014 49.6774 96.36C49.7853 96.1156 49.8393 95.86 49.8393 95.5929C49.8393 95.2861 49.7654 95.0205 49.6177 94.796C49.4728 94.5716 49.274 94.3983 49.0211 94.2761C48.7683 94.154 48.4842 94.0929 48.1689 94.0929C47.8336 94.0929 47.541 94.1625 47.291 94.3017C47.0439 94.4381 46.8521 94.6298 46.7157 94.877C46.5822 95.1242 46.5154 95.4139 46.5154 95.7463H45.5098C45.5098 95.235 45.6277 94.7861 45.8635 94.3997C46.0993 94.0134 46.4203 93.7122 46.8265 93.4963C47.2356 93.2804 47.6944 93.1725 48.2029 93.1725C48.7143 93.1725 49.1674 93.2804 49.5623 93.4963C49.9572 93.7122 50.2669 94.0034 50.4913 94.3699C50.7157 94.7364 50.8279 95.144 50.8279 95.5929C50.8279 95.9139 50.7697 96.2278 50.6532 96.5347C50.5396 96.8386 50.3407 97.1781 50.0566 97.5531C49.7754 97.9253 49.3848 98.3798 48.8848 98.9168L46.9245 101.013V101.082H50.9814V102.019H45.4757ZM53.014 102.019L56.9174 94.2975V94.2293H52.4174V93.2918H58.0083V94.2804L54.122 102.019H53.014ZM62.2164 102.138C61.6312 102.138 61.1142 102.035 60.6653 101.827C60.2193 101.617 59.8713 101.329 59.6213 100.962C59.3713 100.593 59.2477 100.172 59.2505 99.7009C59.2477 99.3315 59.3201 98.9906 59.4679 98.6781C59.6156 98.3628 59.8173 98.1 60.073 97.8898C60.3315 97.6767 60.6199 97.5418 60.938 97.485V97.4338C60.5204 97.3259 60.188 97.0915 59.9409 96.7307C59.6937 96.3671 59.5716 95.9537 59.5744 95.4906C59.5716 95.0475 59.6838 94.6511 59.911 94.3017C60.1383 93.9523 60.4508 93.6767 60.8485 93.475C61.2491 93.2733 61.7051 93.1725 62.2164 93.1725C62.7221 93.1725 63.1738 93.2733 63.5716 93.475C63.9693 93.6767 64.2818 93.9523 64.5091 94.3017C64.7392 94.6511 64.8556 95.0475 64.8585 95.4906C64.8556 95.9537 64.7292 96.3671 64.4792 96.7307C64.2321 97.0915 63.9039 97.3259 63.4949 97.4338V97.485C63.8102 97.5418 64.0943 97.6767 64.3471 97.8898C64.6 98.1 64.8017 98.3628 64.9522 98.6781C65.1028 98.9906 65.1795 99.3315 65.1824 99.7009C65.1795 100.172 65.0517 100.593 64.7988 100.962C64.5488 101.329 64.2008 101.617 63.7548 101.827C63.3116 102.035 62.7988 102.138 62.2164 102.138ZM62.2164 101.201C62.6113 101.201 62.9522 101.137 63.2392 101.009C63.5261 100.881 63.7477 100.701 63.9039 100.468C64.0602 100.235 64.1397 99.9622 64.1426 99.6497C64.1397 99.3202 64.0545 99.029 63.8869 98.7761C63.7193 98.5233 63.4906 98.3244 63.2008 98.1796C62.9139 98.0347 62.5858 97.9622 62.2164 97.9622C61.8443 97.9622 61.5119 98.0347 61.2193 98.1796C60.9295 98.3244 60.7008 98.5233 60.5332 98.7761C60.3684 99.029 60.2875 99.3202 60.2903 99.6497C60.2875 99.9622 60.3627 100.235 60.5162 100.468C60.6724 100.701 60.8954 100.881 61.1852 101.009C61.475 101.137 61.8187 101.201 62.2164 101.201ZM62.2164 97.0588C62.5289 97.0588 62.8059 96.9963 63.0474 96.8713C63.2917 96.7463 63.4835 96.5716 63.6227 96.3472C63.7619 96.1227 63.8329 95.86 63.8358 95.5588C63.8329 95.2634 63.7633 95.0063 63.627 94.7875C63.4906 94.5659 63.3017 94.3955 63.0602 94.2761C62.8187 94.154 62.5375 94.0929 62.2164 94.0929C61.8897 94.0929 61.6042 94.154 61.3599 94.2761C61.1156 94.3955 60.9267 94.5659 60.7931 94.7875C60.6596 95.0063 60.5943 95.2634 60.5971 95.5588C60.5943 95.86 60.661 96.1227 60.7974 96.3472C60.9366 96.5716 61.1284 96.7463 61.3727 96.8713C61.617 96.9963 61.8983 97.0588 62.2164 97.0588ZM68.2985 90.4793V104.832H67.4462V90.4793H68.2985Z" fill="#A8A8A8"/>
</g>
<path d="M147.438 64.3132C147.438 62.4834 148.922 61 150.752 61H207.691C209.521 61 211.005 62.4834 211.005 64.3132V80.8792H147.438V64.3132Z" fill="#00B3EC"/>
<path d="M161.075 70.1387H159.614C159.573 69.8991 159.496 69.6868 159.384 69.502C159.272 69.3145 159.132 69.1556 158.966 69.0254C158.799 68.8952 158.609 68.7975 158.396 68.7324C158.185 68.6647 157.957 68.6309 157.712 68.6309C157.277 68.6309 156.892 68.7402 156.556 68.959C156.22 69.1751 155.957 69.4928 155.767 69.9121C155.576 70.3288 155.481 70.8379 155.481 71.4395C155.481 72.0514 155.576 72.5671 155.767 72.9863C155.959 73.403 156.222 73.7181 156.556 73.9316C156.892 74.1426 157.276 74.248 157.708 74.248C157.948 74.248 158.172 74.2168 158.38 74.1543C158.591 74.0892 158.78 73.9941 158.946 73.8691C159.116 73.7441 159.257 73.5905 159.372 73.4082C159.489 73.2259 159.57 73.0176 159.614 72.7832L161.075 72.791C161.021 73.1712 160.902 73.528 160.72 73.8613C160.54 74.1947 160.304 74.4889 160.013 74.7441C159.721 74.9967 159.38 75.1947 158.989 75.3379C158.599 75.4785 158.165 75.5488 157.688 75.5488C156.985 75.5488 156.358 75.3861 155.806 75.0605C155.254 74.735 154.819 74.265 154.501 73.6504C154.183 73.0358 154.024 72.2988 154.024 71.4395C154.024 70.5775 154.185 69.8405 154.505 69.2285C154.825 68.6139 155.261 68.1439 155.813 67.8184C156.366 67.4928 156.991 67.3301 157.688 67.3301C158.134 67.3301 158.548 67.3926 158.931 67.5176C159.313 67.6426 159.655 67.8262 159.954 68.0684C160.254 68.3079 160.5 68.6022 160.692 68.9512C160.888 69.2975 161.015 69.6934 161.075 70.1387ZM164.066 75.5605C163.686 75.5605 163.344 75.4928 163.039 75.3574C162.737 75.2194 162.497 75.0163 162.32 74.748C162.146 74.4798 162.059 74.1491 162.059 73.7559C162.059 73.4173 162.121 73.1374 162.246 72.916C162.371 72.6947 162.542 72.5176 162.758 72.3848C162.974 72.252 163.217 72.1517 163.488 72.084C163.762 72.0137 164.044 71.9629 164.336 71.9316C164.688 71.8952 164.973 71.8626 165.191 71.834C165.41 71.8027 165.569 71.7559 165.668 71.6934C165.77 71.6283 165.82 71.528 165.82 71.3926V71.3691C165.82 71.0749 165.733 70.847 165.559 70.6855C165.384 70.5241 165.133 70.4434 164.805 70.4434C164.458 70.4434 164.184 70.5189 163.98 70.6699C163.78 70.821 163.645 70.9993 163.574 71.2051L162.254 71.0176C162.358 70.653 162.53 70.3483 162.77 70.1035C163.009 69.8561 163.302 69.6712 163.648 69.5488C163.995 69.4238 164.378 69.3613 164.797 69.3613C165.086 69.3613 165.374 69.3952 165.66 69.4629C165.947 69.5306 166.208 69.6426 166.445 69.7988C166.682 69.9525 166.872 70.1621 167.016 70.4277C167.161 70.6934 167.234 71.0254 167.234 71.4238V75.4395H165.875V74.6152H165.828C165.742 74.7819 165.621 74.9382 165.465 75.084C165.311 75.2272 165.117 75.3431 164.883 75.4316C164.651 75.5176 164.379 75.5605 164.066 75.5605ZM164.434 74.5215C164.717 74.5215 164.964 74.4655 165.172 74.3535C165.38 74.2389 165.54 74.0879 165.652 73.9004C165.767 73.7129 165.824 73.5085 165.824 73.2871V72.5801C165.78 72.6165 165.704 72.6504 165.598 72.6816C165.493 72.7129 165.376 72.7402 165.246 72.7637C165.116 72.7871 164.987 72.8079 164.859 72.8262C164.732 72.8444 164.621 72.86 164.527 72.873C164.316 72.9017 164.128 72.9486 163.961 73.0137C163.794 73.0788 163.663 73.1699 163.566 73.2871C163.47 73.4017 163.422 73.5501 163.422 73.7324C163.422 73.9928 163.517 74.1895 163.707 74.3223C163.897 74.4551 164.139 74.5215 164.434 74.5215ZM168.656 75.4395V69.4395H170.027V70.4395H170.09C170.199 70.0931 170.387 69.8262 170.652 69.6387C170.921 69.4486 171.227 69.3535 171.57 69.3535C171.648 69.3535 171.736 69.3574 171.832 69.3652C171.931 69.3704 172.013 69.3796 172.078 69.3926V70.6934C172.018 70.6725 171.923 70.6543 171.793 70.6387C171.665 70.6204 171.542 70.6113 171.422 70.6113C171.164 70.6113 170.932 70.6673 170.727 70.7793C170.523 70.8887 170.363 71.041 170.246 71.2363C170.129 71.4316 170.07 71.6569 170.07 71.9121V75.4395H168.656ZM174.432 67.4395V75.4395H173.018V67.4395H174.432ZM178.503 75.5566C177.917 75.5566 177.409 75.4277 176.979 75.1699C176.55 74.9121 176.216 74.5514 175.979 74.0879C175.745 73.6243 175.628 73.0827 175.628 72.4629C175.628 71.8431 175.745 71.3001 175.979 70.834C176.216 70.3678 176.55 70.0059 176.979 69.748C177.409 69.4902 177.917 69.3613 178.503 69.3613C179.089 69.3613 179.597 69.4902 180.026 69.748C180.456 70.0059 180.788 70.3678 181.022 70.834C181.259 71.3001 181.378 71.8431 181.378 72.4629C181.378 73.0827 181.259 73.6243 181.022 74.0879C180.788 74.5514 180.456 74.9121 180.026 75.1699C179.597 75.4277 179.089 75.5566 178.503 75.5566ZM178.511 74.4238C178.828 74.4238 179.094 74.3366 179.308 74.1621C179.521 73.985 179.68 73.748 179.784 73.4512C179.891 73.1543 179.944 72.8236 179.944 72.459C179.944 72.0918 179.891 71.7598 179.784 71.4629C179.68 71.1634 179.521 70.9251 179.308 70.748C179.094 70.571 178.828 70.4824 178.511 70.4824C178.185 70.4824 177.914 70.571 177.698 70.748C177.485 70.9251 177.325 71.1634 177.218 71.4629C177.114 71.7598 177.062 72.0918 177.062 72.459C177.062 72.8236 177.114 73.1543 177.218 73.4512C177.325 73.748 177.485 73.985 177.698 74.1621C177.914 74.3366 178.185 74.4238 178.511 74.4238ZM187.32 71.0254L186.031 71.166C185.995 71.0358 185.931 70.9134 185.84 70.7988C185.751 70.6842 185.632 70.5918 185.48 70.5215C185.329 70.4512 185.145 70.416 184.926 70.416C184.632 70.416 184.384 70.4798 184.184 70.6074C183.986 70.735 183.888 70.9004 183.891 71.1035C183.888 71.278 183.952 71.4199 184.082 71.5293C184.215 71.6387 184.434 71.7285 184.738 71.7988L185.762 72.0176C186.329 72.14 186.751 72.334 187.027 72.5996C187.306 72.8652 187.447 73.2129 187.449 73.6426C187.447 74.0202 187.336 74.3535 187.117 74.6426C186.901 74.929 186.6 75.153 186.215 75.3145C185.829 75.4759 185.387 75.5566 184.887 75.5566C184.152 75.5566 183.561 75.403 183.113 75.0957C182.665 74.7858 182.398 74.3548 182.313 73.8027L183.691 73.6699C183.754 73.9408 183.887 74.1452 184.09 74.2832C184.293 74.4212 184.557 74.4902 184.883 74.4902C185.219 74.4902 185.488 74.4212 185.691 74.2832C185.897 74.1452 186 73.9746 186 73.7715C186 73.5996 185.934 73.4577 185.801 73.3457C185.671 73.2337 185.467 73.1478 185.191 73.0879L184.168 72.873C183.592 72.7533 183.167 72.5514 182.891 72.2676C182.615 71.9811 182.478 71.6191 182.48 71.1816C182.478 70.8118 182.578 70.4915 182.781 70.2207C182.987 69.9473 183.272 69.7363 183.637 69.5879C184.004 69.4368 184.427 69.3613 184.906 69.3613C185.609 69.3613 186.163 69.5111 186.566 69.8105C186.973 70.11 187.224 70.515 187.32 71.0254Z" fill="white"/>
<path d="M201.693 68.7306H201.141V67.6262C201.141 66.1022 199.904 64.8652 198.38 64.8652C196.855 64.8652 195.619 66.1022 195.619 67.6262V68.7306H195.066C194.459 68.7306 193.962 69.2276 193.962 69.835V75.357C193.962 75.9645 194.459 76.4614 195.066 76.4614H201.693C202.3 76.4614 202.797 75.9645 202.797 75.357V69.835C202.797 69.2276 202.3 68.7306 201.693 68.7306ZM198.38 73.7004C197.772 73.7004 197.275 73.2035 197.275 72.596C197.275 71.9886 197.772 71.4916 198.38 71.4916C198.987 71.4916 199.484 71.9886 199.484 72.596C199.484 73.2035 198.987 73.7004 198.38 73.7004ZM196.723 68.7306V67.6262C196.723 66.7096 197.463 65.9696 198.38 65.9696C199.296 65.9696 200.036 66.7096 200.036 67.6262V68.7306H196.723Z" fill="white"/>
<path d="M26.8318 71V62.5664H32.317V63.8471H28.3596V66.1367H32.0329V67.4174H28.3596V69.7193H32.3499V71H26.8318ZM35.3005 67.2938V71H33.8098V64.6748H35.2346V65.7496H35.3087C35.4542 65.3954 35.6862 65.114 36.0047 64.9054C36.3259 64.6967 36.7226 64.5924 37.1947 64.5924C37.6313 64.5924 38.0115 64.6858 38.3354 64.8724C38.6621 65.0591 38.9147 65.3295 39.0931 65.6837C39.2743 66.0378 39.3636 66.4675 39.3608 66.9726V71H37.8701V67.2032C37.8701 66.7804 37.7603 66.4496 37.5407 66.2108C37.3238 65.9719 37.0232 65.8525 36.6388 65.8525C36.378 65.8525 36.146 65.9102 35.9429 66.0255C35.7425 66.138 35.5846 66.3014 35.4693 66.5155C35.3568 66.7296 35.3005 66.9891 35.3005 67.2938ZM44.0347 64.6748V65.8278H40.3985V64.6748H44.0347ZM41.2963 63.1594H42.787V69.0975C42.787 69.2979 42.8172 69.4516 42.8776 69.5587C42.9407 69.663 43.0231 69.7344 43.1247 69.7728C43.2262 69.8113 43.3388 69.8305 43.4623 69.8305C43.5557 69.8305 43.6408 69.8236 43.7176 69.8099C43.7973 69.7962 43.8577 69.7838 43.8988 69.7728L44.15 70.9382C44.0704 70.9657 43.9565 70.9959 43.8082 71.0288C43.6627 71.0618 43.4843 71.081 43.2729 71.0865C42.8995 71.0975 42.5632 71.0412 42.264 70.9176C41.9648 70.7914 41.7273 70.5964 41.5516 70.3329C41.3786 70.0693 41.2935 69.7399 41.2963 69.3446V63.1594ZM45.2814 71V64.6748H46.7269V65.729H46.7928C46.9081 65.3638 47.1057 65.0825 47.3857 64.8848C47.6685 64.6844 47.9911 64.5842 48.3535 64.5842C48.4358 64.5842 48.5278 64.5883 48.6294 64.5965C48.7337 64.602 48.8202 64.6116 48.8888 64.6254V65.9966C48.8257 65.9747 48.7255 65.9555 48.5882 65.939C48.4537 65.9198 48.3233 65.9102 48.197 65.9102C47.9252 65.9102 47.6809 65.9692 47.464 66.0872C47.2498 66.2025 47.081 66.3631 46.9575 66.569C46.8339 66.7749 46.7722 67.0124 46.7722 67.2815V71H45.2814ZM50.9982 73.372C50.7951 73.372 50.607 73.3555 50.4341 73.3225C50.2639 73.2923 50.128 73.2567 50.0264 73.2155L50.3723 72.0542C50.5892 72.1173 50.7827 72.1475 50.9529 72.1448C51.1232 72.1421 51.2728 72.0885 51.4018 71.9842C51.5336 71.8826 51.6448 71.7124 51.7354 71.4736L51.863 71.1318L49.5693 64.6748H51.1506L52.6084 69.4516H52.6743L54.1362 64.6748H55.7216L53.189 71.7659C53.071 72.1009 52.9145 72.3878 52.7196 72.6266C52.5246 72.8682 52.2858 73.0521 52.003 73.1784C51.723 73.3074 51.3881 73.372 50.9982 73.372ZM63.0434 62.5664V71H61.5156V64.053H61.4662L59.4937 65.3131V63.9129L61.5897 62.5664H63.0434Z" fill="#03020D"/>
<g filter="url(#filter1_dd_567_16681)">
<path d="M26 151.313C26 149.483 27.4834 148 29.3132 148H206.687C208.517 148 210 149.483 210 151.313V177.687C210 179.517 208.517 181 206.687 181H29.3132C27.4834 181 26 179.517 26 177.687V151.313Z" fill="white"/>
<path d="M37.0998 168.972V160.244H42.3668V161.182H38.1566V164.131H42.0941V165.068H38.1566V168.034H42.435V168.972H37.0998ZM46.6069 169.108C46.0614 169.108 45.5799 168.97 45.1623 168.695C44.7447 168.416 44.418 168.024 44.1822 167.519C43.9464 167.01 43.8285 166.409 43.8285 165.716C43.8285 165.028 43.9464 164.432 44.1822 163.926C44.418 163.421 44.7461 163.03 45.1665 162.754C45.587 162.479 46.0728 162.341 46.6239 162.341C47.0501 162.341 47.3867 162.412 47.6339 162.554C47.8839 162.693 48.0742 162.852 48.2049 163.031C48.3384 163.207 48.4421 163.352 48.516 163.466H48.6012V160.244H49.6069V168.972H48.6353V167.966H48.516C48.4421 168.085 48.337 168.236 48.2006 168.418C48.0643 168.597 47.8697 168.757 47.6168 168.899C47.364 169.038 47.0273 169.108 46.6069 169.108ZM46.7433 168.205C47.1467 168.205 47.4876 168.1 47.766 167.889C48.0444 167.676 48.256 167.382 48.4009 167.007C48.5458 166.629 48.6183 166.193 48.6183 165.699C48.6183 165.21 48.5472 164.783 48.4052 164.416C48.2631 164.047 48.0529 163.76 47.7745 163.555C47.4961 163.348 47.1523 163.244 46.7433 163.244C46.3171 163.244 45.962 163.354 45.6779 163.573C45.3967 163.788 45.185 164.082 45.043 164.455C44.9038 164.824 44.8342 165.239 44.8342 165.699C44.8342 166.165 44.9052 166.588 45.0472 166.969C45.1921 167.347 45.4052 167.648 45.6864 167.872C45.9705 168.094 46.3228 168.205 46.7433 168.205ZM51.5884 168.972V162.426H52.5941V168.972H51.5884ZM52.0998 161.335C51.9038 161.335 51.7347 161.269 51.5927 161.135C51.4535 161.002 51.3839 160.841 51.3839 160.653C51.3839 160.466 51.4535 160.305 51.5927 160.172C51.7347 160.038 51.9038 159.972 52.0998 159.972C52.2958 159.972 52.4634 160.038 52.6026 160.172C52.7447 160.305 52.8157 160.466 52.8157 160.653C52.8157 160.841 52.7447 161.002 52.6026 161.135C52.4634 161.269 52.2958 161.335 52.0998 161.335ZM57.2827 162.426V163.278H53.8906V162.426H57.2827ZM54.8793 160.858H55.8849V167.097C55.8849 167.381 55.9261 167.594 56.0085 167.736C56.0938 167.875 56.2017 167.969 56.3324 168.017C56.4659 168.063 56.6065 168.085 56.7543 168.085C56.8651 168.085 56.956 168.08 57.027 168.068C57.098 168.054 57.1548 168.043 57.1974 168.034L57.402 168.938C57.3338 168.963 57.2386 168.989 57.1165 169.014C56.9943 169.043 56.8395 169.057 56.652 169.057C56.3679 169.057 56.0895 168.996 55.8168 168.874C55.5469 168.752 55.3224 168.565 55.1435 168.315C54.9673 168.065 54.8793 167.75 54.8793 167.369V160.858ZM65.017 162.426V163.278H61.625V162.426H65.017ZM62.6136 160.858H63.6193V167.097C63.6193 167.381 63.6605 167.594 63.7429 167.736C63.8281 167.875 63.9361 167.969 64.0668 168.017C64.2003 168.063 64.3409 168.085 64.4886 168.085C64.5994 168.085 64.6903 168.08 64.7614 168.068C64.8324 168.054 64.8892 168.043 64.9318 168.034L65.1364 168.938C65.0682 168.963 64.973 168.989 64.8509 169.014C64.7287 169.043 64.5739 169.057 64.3864 169.057C64.1023 169.057 63.8239 168.996 63.5511 168.874C63.2813 168.752 63.0568 168.565 62.8778 168.315C62.7017 168.065 62.6136 167.75 62.6136 167.369V160.858ZM69.1186 169.108C68.5277 169.108 68.0092 168.967 67.5632 168.686C67.12 168.405 66.7734 168.011 66.5234 167.506C66.2763 167 66.1527 166.409 66.1527 165.733C66.1527 165.051 66.2763 164.456 66.5234 163.948C66.7734 163.439 67.12 163.044 67.5632 162.763C68.0092 162.482 68.5277 162.341 69.1186 162.341C69.7095 162.341 70.2266 162.482 70.6697 162.763C71.1158 163.044 71.4624 163.439 71.7095 163.948C71.9595 164.456 72.0845 165.051 72.0845 165.733C72.0845 166.409 71.9595 167 71.7095 167.506C71.4624 168.011 71.1158 168.405 70.6697 168.686C70.2266 168.967 69.7095 169.108 69.1186 169.108ZM69.1186 168.205C69.5675 168.205 69.9368 168.09 70.2266 167.859C70.5163 167.629 70.7308 167.327 70.87 166.952C71.0092 166.577 71.0788 166.171 71.0788 165.733C71.0788 165.296 71.0092 164.888 70.87 164.51C70.7308 164.132 70.5163 163.827 70.2266 163.594C69.9368 163.361 69.5675 163.244 69.1186 163.244C68.6697 163.244 68.3004 163.361 68.0107 163.594C67.7209 163.827 67.5064 164.132 67.3672 164.51C67.228 164.888 67.1584 165.296 67.1584 165.733C67.1584 166.171 67.228 166.577 67.3672 166.952C67.5064 167.327 67.7209 167.629 68.0107 167.859C68.3004 168.09 68.6697 168.205 69.1186 168.205ZM78.0004 160.244V168.972H76.9947V160.244H78.0004ZM82.5014 169.108C81.9105 169.108 81.392 168.967 80.946 168.686C80.5028 168.405 80.1562 168.011 79.9062 167.506C79.6591 167 79.5355 166.409 79.5355 165.733C79.5355 165.051 79.6591 164.456 79.9062 163.948C80.1562 163.439 80.5028 163.044 80.946 162.763C81.392 162.482 81.9105 162.341 82.5014 162.341C83.0923 162.341 83.6094 162.482 84.0526 162.763C84.4986 163.044 84.8452 163.439 85.0923 163.948C85.3423 164.456 85.4673 165.051 85.4673 165.733C85.4673 166.409 85.3423 167 85.0923 167.506C84.8452 168.011 84.4986 168.405 84.0526 168.686C83.6094 168.967 83.0923 169.108 82.5014 169.108ZM82.5014 168.205C82.9503 168.205 83.3196 168.09 83.6094 167.859C83.8991 167.629 84.1136 167.327 84.2528 166.952C84.392 166.577 84.4616 166.171 84.4616 165.733C84.4616 165.296 84.392 164.888 84.2528 164.51C84.1136 164.132 83.8991 163.827 83.6094 163.594C83.3196 163.361 82.9503 163.244 82.5014 163.244C82.0526 163.244 81.6832 163.361 81.3935 163.594C81.1037 163.827 80.8892 164.132 80.75 164.51C80.6108 164.888 80.5412 165.296 80.5412 165.733C80.5412 166.171 80.6108 166.577 80.75 166.952C80.8892 167.327 81.1037 167.629 81.3935 167.859C81.6832 168.09 82.0526 168.205 82.5014 168.205ZM89.6616 169.108C89.0479 169.108 88.5195 168.963 88.0763 168.673C87.6332 168.384 87.2923 167.984 87.0536 167.476C86.815 166.967 86.6957 166.386 86.6957 165.733C86.6957 165.068 86.8178 164.482 87.0621 163.973C87.3093 163.462 87.6531 163.063 88.0934 162.776C88.5366 162.486 89.0536 162.341 89.6445 162.341C90.1048 162.341 90.5195 162.426 90.8888 162.597C91.2582 162.767 91.5607 163.006 91.7965 163.313C92.0323 163.619 92.1786 163.977 92.2354 164.386H91.2298C91.1531 164.088 90.9826 163.824 90.7184 163.594C90.457 163.361 90.1048 163.244 89.6616 163.244C89.2695 163.244 88.9258 163.347 88.6303 163.551C88.3377 163.753 88.109 164.038 87.9442 164.408C87.7823 164.774 87.7013 165.205 87.7013 165.699C87.7013 166.205 87.7809 166.645 87.94 167.02C88.1019 167.395 88.3292 167.686 88.6218 167.894C88.9173 168.101 89.2638 168.205 89.6616 168.205C89.9229 168.205 90.1602 168.159 90.3732 168.068C90.5863 167.977 90.7667 167.847 90.9144 167.676C91.0621 167.506 91.1673 167.301 91.2298 167.063H92.2354C92.1786 167.449 92.038 167.797 91.8136 168.107C91.592 168.413 91.2979 168.658 90.9315 168.84C90.5678 169.019 90.1445 169.108 89.6616 169.108ZM94.6431 166.585L94.6261 165.341H94.8306L97.6942 162.426H98.9386L95.8874 165.511H95.8022L94.6431 166.585ZM93.7056 168.972V160.244H94.7113V168.972H93.7056ZM97.8647 168.972L95.3079 165.733L96.0238 165.034L99.1431 168.972H97.8647ZM103.608 168.972V162.426H104.58V163.449H104.665C104.801 163.1 105.021 162.828 105.325 162.635C105.629 162.439 105.994 162.341 106.42 162.341C106.852 162.341 107.212 162.439 107.499 162.635C107.788 162.828 108.014 163.1 108.176 163.449H108.244C108.412 163.111 108.663 162.842 108.999 162.644C109.334 162.442 109.736 162.341 110.205 162.341C110.79 162.341 111.268 162.524 111.641 162.891C112.013 163.254 112.199 163.821 112.199 164.591V168.972H111.193V164.591C111.193 164.108 111.061 163.763 110.797 163.555C110.533 163.348 110.222 163.244 109.864 163.244C109.403 163.244 109.047 163.384 108.794 163.662C108.541 163.938 108.415 164.287 108.415 164.71V168.972H107.392V164.489C107.392 164.117 107.271 163.817 107.03 163.59C106.788 163.359 106.477 163.244 106.097 163.244C105.835 163.244 105.591 163.314 105.364 163.453C105.139 163.592 104.957 163.786 104.818 164.033C104.682 164.277 104.614 164.56 104.614 164.881V168.972H103.608ZM116.782 169.108C116.151 169.108 115.607 168.969 115.15 168.69C114.695 168.409 114.344 168.017 114.097 167.514C113.853 167.009 113.731 166.421 113.731 165.75C113.731 165.08 113.853 164.489 114.097 163.977C114.344 163.463 114.688 163.063 115.129 162.776C115.572 162.486 116.089 162.341 116.68 162.341C117.021 162.341 117.357 162.398 117.69 162.511C118.022 162.625 118.325 162.81 118.597 163.065C118.87 163.318 119.087 163.653 119.249 164.071C119.411 164.489 119.492 165.003 119.492 165.614V166.04H114.447V165.171H118.469C118.469 164.801 118.396 164.472 118.248 164.182C118.103 163.892 117.896 163.663 117.626 163.496C117.359 163.328 117.043 163.244 116.68 163.244C116.279 163.244 115.933 163.344 115.64 163.543C115.35 163.739 115.127 163.994 114.971 164.31C114.815 164.625 114.737 164.963 114.737 165.324V165.903C114.737 166.398 114.822 166.817 114.992 167.161C115.165 167.502 115.406 167.761 115.712 167.94C116.019 168.117 116.376 168.205 116.782 168.205C117.046 168.205 117.285 168.168 117.498 168.094C117.714 168.017 117.9 167.903 118.056 167.753C118.212 167.6 118.333 167.409 118.418 167.182L119.39 167.455C119.288 167.784 119.116 168.074 118.874 168.324C118.633 168.571 118.335 168.764 117.979 168.903C117.624 169.04 117.225 169.108 116.782 169.108Z" fill="#A8A8A8"/>
</g>
<path d="M26.8318 138.253V129.819H32.317V131.1H28.3596V133.39H32.0329V134.67H28.3596V136.972H32.3499V138.253H26.8318ZM35.3005 134.547V138.253H33.8098V131.928H35.2346V133.002H35.3087C35.4542 132.648 35.6862 132.367 36.0047 132.158C36.3259 131.95 36.7226 131.845 37.1947 131.845C37.6313 131.845 38.0115 131.939 38.3354 132.125C38.6621 132.312 38.9147 132.582 39.0931 132.937C39.2743 133.291 39.3636 133.72 39.3608 134.226V138.253H37.8701V134.456C37.8701 134.033 37.7603 133.703 37.5407 133.464C37.3238 133.225 37.0232 133.105 36.6388 133.105C36.378 133.105 36.146 133.163 35.9429 133.278C35.7425 133.391 35.5846 133.554 35.4693 133.768C35.3568 133.983 35.3005 134.242 35.3005 134.547ZM44.0347 131.928V133.081H40.3985V131.928H44.0347ZM41.2963 130.412H42.787V136.35C42.787 136.551 42.8172 136.705 42.8776 136.812C42.9407 136.916 43.0231 136.987 43.1247 137.026C43.2262 137.064 43.3388 137.083 43.4623 137.083C43.5557 137.083 43.6408 137.077 43.7176 137.063C43.7973 137.049 43.8577 137.037 43.8988 137.026L44.15 138.191C44.0704 138.219 43.9565 138.249 43.8082 138.282C43.6627 138.315 43.4843 138.334 43.2729 138.339C42.8995 138.35 42.5632 138.294 42.264 138.171C41.9648 138.044 41.7273 137.849 41.5516 137.586C41.3786 137.322 41.2935 136.993 41.2963 136.597V130.412ZM45.2814 138.253V131.928H46.7269V132.982H46.7928C46.9081 132.617 47.1057 132.335 47.3857 132.138C47.6685 131.937 47.9911 131.837 48.3535 131.837C48.4358 131.837 48.5278 131.841 48.6294 131.849C48.7337 131.855 48.8202 131.865 48.8888 131.878V133.25C48.8257 133.228 48.7255 133.208 48.5882 133.192C48.4537 133.173 48.3233 133.163 48.197 133.163C47.9252 133.163 47.6809 133.222 47.464 133.34C47.2498 133.455 47.081 133.616 46.9575 133.822C46.8339 134.028 46.7722 134.265 46.7722 134.534V138.253H45.2814ZM50.9982 140.625C50.7951 140.625 50.607 140.608 50.4341 140.575C50.2639 140.545 50.128 140.51 50.0264 140.468L50.3723 139.307C50.5892 139.37 50.7827 139.4 50.9529 139.398C51.1232 139.395 51.2728 139.341 51.4018 139.237C51.5336 139.136 51.6448 138.965 51.7354 138.726L51.863 138.385L49.5693 131.928H51.1506L52.6084 136.705H52.6743L54.1362 131.928H55.7216L53.189 139.019C53.071 139.354 52.9145 139.641 52.7196 139.88C52.5246 140.121 52.2858 140.305 52.003 140.431C51.723 140.56 51.3881 140.625 50.9982 140.625ZM59.6131 138.253V137.149L62.541 134.279C62.821 133.996 63.0543 133.745 63.241 133.525C63.4277 133.306 63.5677 133.093 63.6611 132.887C63.7544 132.681 63.8011 132.462 63.8011 132.228C63.8011 131.962 63.7407 131.734 63.6199 131.545C63.4991 131.353 63.333 131.204 63.1216 131.1C62.9102 130.996 62.67 130.944 62.401 130.944C62.1237 130.944 61.8807 131.001 61.6721 131.116C61.4634 131.229 61.3015 131.39 61.1861 131.598C61.0736 131.807 61.0173 132.055 61.0173 132.344H59.5637C59.5637 131.808 59.6858 131.343 59.9302 130.948C60.1745 130.552 60.5108 130.246 60.9391 130.029C61.3701 129.812 61.8642 129.704 62.4215 129.704C62.9871 129.704 63.484 129.81 63.9123 130.021C64.3405 130.232 64.6727 130.522 64.9088 130.89C65.1477 131.258 65.2671 131.678 65.2671 132.15C65.2671 132.466 65.2067 132.776 65.0859 133.081C64.9651 133.385 64.7523 133.723 64.4476 134.094C64.1456 134.464 63.7215 134.913 63.1751 135.44L61.7215 136.919V136.976H65.3947V138.253H59.6131Z" fill="#03020D"/>
<defs>
<filter id="filter0_dd_567_16681" x="23.4972" y="78.9982" width="189.006" height="38.0055" filterUnits="userSpaceOnUse" color-interpolation-filters="sRGB">
<feFlood flood-opacity="0" result="BackgroundImageFix"/>
<feColorMatrix in="SourceAlpha" type="matrix" values="0 0 0 0 0 0 0 0 0 0 0 0 0 0 0 0 0 0 127 0" result="hardAlpha"/>
<feMorphology radius="0.500918" operator="erode" in="SourceAlpha" result="effect1_dropShadow_567_16681"/>
<feOffset dy="0.500918"/>
<feGaussianBlur stdDeviation="0.500918"/>
<feComposite in2="hardAlpha" operator="out"/>
<feColorMatrix type="matrix" values="0 0 0 0 0 0 0 0 0 0 0 0 0 0 0 0 0 0 0.1 0"/>
<feBlend mode="normal" in2="BackgroundImageFix" result="effect1_dropShadow_567_16681"/>
<feColorMatrix in="SourceAlpha" type="matrix" values="0 0 0 0 0 0 0 0 0 0 0 0 0 0 0 0 0 0 127 0" result="hardAlpha"/>
<feOffset dy="0.500918"/>
<feGaussianBlur stdDeviation="0.751377"/>
<feComposite in2="hardAlpha" operator="out"/>
<feColorMatrix type="matrix" values="0 0 0 0 0 0 0 0 0 0 0 0 0 0 0 0 0 0 0.1 0"/>
<feBlend mode="normal" in2="effect1_dropShadow_567_16681" result="effect2_dropShadow_567_16681"/>
<feBlend mode="normal" in="SourceGraphic" in2="effect2_dropShadow_567_16681" result="shape"/>
</filter>
<filter id="filter1_dd_567_16681" x="24.4972" y="146.998" width="187.006" height="36.0055" filterUnits="userSpaceOnUse" color-interpolation-filters="sRGB">
<feFlood flood-opacity="0" result="BackgroundImageFix"/>
<feColorMatrix in="SourceAlpha" type="matrix" values="0 0 0 0 0 0 0 0 0 0 0 0 0 0 0 0 0 0 127 0" result="hardAlpha"/>
<feMorphology radius="0.500918" operator="erode" in="SourceAlpha" result="effect1_dropShadow_567_16681"/>
<feOffset dy="0.500918"/>
<feGaussianBlur stdDeviation="0.500918"/>
<feComposite in2="hardAlpha" operator="out"/>
<feColorMatrix type="matrix" values="0 0 0 0 0 0 0 0 0 0 0 0 0 0 0 0 0 0 0.1 0"/>
<feBlend mode="normal" in2="BackgroundImageFix" result="effect1_dropShadow_567_16681"/>
<feColorMatrix in="SourceAlpha" type="matrix" values="0 0 0 0 0 0 0 0 0 0 0 0 0 0 0 0 0 0 127 0" result="hardAlpha"/>
<feOffset dy="0.500918"/>
<feGaussianBlur stdDeviation="0.751377"/>
<feComposite in2="hardAlpha" operator="out"/>
<feColorMatrix type="matrix" values="0 0 0 0 0 0 0 0 0 0 0 0 0 0 0 0 0 0 0.1 0"/>
<feBlend mode="normal" in2="effect1_dropShadow_567_16681" result="effect2_dropShadow_567_16681"/>
<feBlend mode="normal" in="SourceGraphic" in2="effect2_dropShadow_567_16681" result="shape"/>
</filter>
</defs>
</svg>
