<svg width="230" height="238" viewBox="0 0 230 238" fill="none" xmlns="http://www.w3.org/2000/svg">
<g filter="url(#filter0_dd_567_16641)">
<rect x="22.35" y="64.35" width="186.073" height="111.765" rx="7.08573" fill="white"/>
<mask id="path-3-inside-1_567_16641" fill="white">
<path d="M22 67.7179C22 65.6645 23.6645 64 25.7179 64H205.055C207.108 64 208.773 65.6645 208.773 67.7179V92.1163H22V67.7179Z"/>
</mask>
<path d="M22 67.7179C22 65.6645 23.6645 64 25.7179 64H205.055C207.108 64 208.773 65.6645 208.773 67.7179V92.1163H22V67.7179Z" fill="white"/>
<path d="M33.0469 83.5801H47.105" stroke="#76767C" stroke-width="1.00416" stroke-linecap="round" stroke-linejoin="round"/>
<path d="M41.0799 83.58V72.5343C41.0799 72.4011 41.027 72.2734 40.9328 72.1793C40.8387 72.0851 40.7109 72.0322 40.5778 72.0322H34.5529C34.4197 72.0322 34.292 72.0851 34.1978 72.1793C34.1037 72.2734 34.0508 72.4011 34.0508 72.5343V83.58" stroke="#76767C" stroke-width="1.00416" stroke-linecap="round" stroke-linejoin="round"/>
<path d="M46.1009 83.58V76.5509C46.1009 76.4177 46.048 76.29 45.9538 76.1959C45.8596 76.1017 45.7319 76.0488 45.5988 76.0488H41.0801" stroke="#76767C" stroke-width="1.00416" stroke-linecap="round" stroke-linejoin="round"/>
<path d="M36.0596 74.5425H38.0679" stroke="#76767C" stroke-width="1.00416" stroke-linecap="round" stroke-linejoin="round"/>
<path d="M37.0635 78.5591H39.0718" stroke="#76767C" stroke-width="1.00416" stroke-linecap="round" stroke-linejoin="round"/>
<path d="M36.0596 81.0698H38.0679" stroke="#76767C" stroke-width="1.00416" stroke-linecap="round" stroke-linejoin="round"/>
<path d="M43.0889 81.0698H44.093" stroke="#76767C" stroke-width="1.00416" stroke-linecap="round" stroke-linejoin="round"/>
<path d="M43.0889 78.5591H44.093" stroke="#76767C" stroke-width="1.00416" stroke-linecap="round" stroke-linejoin="round"/>
<path d="M62.3753 76.6444H61.0402C60.9889 76.3592 60.8933 76.1081 60.7535 75.8913C60.6137 75.6745 60.4426 75.4905 60.24 75.3393C60.0375 75.1881 59.8107 75.074 59.5596 74.997C59.3115 74.92 59.0476 74.8815 58.768 74.8815C58.2631 74.8815 57.8109 75.0084 57.4116 75.2623C57.015 75.5162 56.7012 75.8885 56.4702 76.3791C56.2419 76.8698 56.1278 77.4689 56.1278 78.1763C56.1278 78.8895 56.2419 79.4914 56.4702 79.9821C56.7012 80.4728 57.0165 80.8436 57.4158 81.0947C57.8152 81.3457 58.2645 81.4712 58.7637 81.4712C59.0405 81.4712 59.3029 81.4341 59.5511 81.36C59.8021 81.2829 60.0289 81.1703 60.2315 81.0219C60.434 80.8736 60.6052 80.6924 60.745 80.4785C60.8876 80.2617 60.986 80.0135 61.0402 79.7339L62.3753 79.7382C62.304 80.169 62.1656 80.5655 61.9602 80.9278C61.7577 81.2872 61.4966 81.5982 61.1771 81.8606C60.8605 82.1202 60.4982 82.3213 60.0903 82.464C59.6823 82.6066 59.2373 82.6779 58.7552 82.6779C57.9964 82.6779 57.3203 82.4982 56.7269 82.1388C56.1335 81.7765 55.6657 81.2587 55.3234 80.5855C54.9839 79.9122 54.8142 79.1092 54.8142 78.1763C54.8142 77.2406 54.9853 76.4376 55.3276 75.7672C55.67 75.094 56.1378 74.5776 56.7312 74.2182C57.3245 73.8559 57.9992 73.6748 58.7552 73.6748C59.2202 73.6748 59.6538 73.7418 60.056 73.8759C60.4611 74.0071 60.8248 74.2011 61.1472 74.4578C61.4695 74.7117 61.7363 75.0227 61.9474 75.3907C62.1585 75.7558 62.3011 76.1737 62.3753 76.6444ZM66.6233 82.6908C66.0071 82.6908 65.4694 82.5495 65.0101 82.2671C64.5508 81.9847 64.1942 81.5896 63.9403 81.0818C63.6865 80.574 63.5595 79.9807 63.5595 79.3017C63.5595 78.6199 63.6865 78.0237 63.9403 77.5131C64.1942 77.0024 64.5508 76.6059 65.0101 76.3235C65.4694 76.0411 66.0071 75.8999 66.6233 75.8999C67.2395 75.8999 67.7772 76.0411 68.2365 76.3235C68.6958 76.6059 69.0524 77.0024 69.3063 77.5131C69.5602 78.0237 69.6871 78.6199 69.6871 79.3017C69.6871 79.9807 69.5602 80.574 69.3063 81.0818C69.0524 81.5896 68.6958 81.9847 68.2365 82.2671C67.7772 82.5495 67.2395 82.6908 66.6233 82.6908ZM66.6276 81.6167C67.027 81.6167 67.3579 81.5112 67.6203 81.3001C67.8828 81.089 68.0768 80.808 68.2023 80.4571C68.3307 80.1062 68.3949 79.7197 68.3949 79.2975C68.3949 78.8781 68.3307 78.493 68.2023 78.1421C68.0768 77.7884 67.8828 77.5045 67.6203 77.2906C67.3579 77.0766 67.027 76.9696 66.6276 76.9696C66.2254 76.9696 65.8916 77.0766 65.6263 77.2906C65.3639 77.5045 65.1684 77.7884 65.0401 78.1421C64.9145 78.493 64.8518 78.8781 64.8518 79.2975C64.8518 79.7197 64.9145 80.1062 65.0401 80.4571C65.1684 80.808 65.3639 81.089 65.6263 81.3001C65.8916 81.5112 66.2254 81.6167 66.6276 81.6167ZM71.1153 82.5581V75.9855H72.3434V77.0552H72.4247C72.5616 76.6929 72.7855 76.4105 73.0965 76.208C73.4074 76.0026 73.7797 75.8999 74.2133 75.8999C74.6526 75.8999 75.0206 76.0026 75.3173 76.208C75.6169 76.4134 75.8379 76.6958 75.9806 77.0552H76.049C76.2059 76.7043 76.4556 76.4248 76.7979 76.2165C77.1402 76.0054 77.5481 75.8999 78.0217 75.8999C78.6179 75.8999 79.1043 76.0867 79.4809 76.4604C79.8603 76.8341 80.05 77.3975 80.05 78.1507V82.5581H78.7705V78.2705C78.7705 77.8255 78.6493 77.5031 78.4068 77.3034C78.1643 77.1037 77.8748 77.0039 77.5382 77.0039C77.1217 77.0039 76.7979 77.1322 76.5668 77.389C76.3357 77.6429 76.2202 77.9695 76.2202 78.3689V82.5581H74.945V78.1892C74.945 77.8326 74.8338 77.5459 74.6113 77.3291C74.3888 77.1123 74.0992 77.0039 73.7426 77.0039C73.5001 77.0039 73.2762 77.0681 73.0708 77.1964C72.8683 77.3219 72.7042 77.4974 72.5787 77.7228C72.4561 77.9481 72.3947 78.2091 72.3947 78.5058V82.5581H71.1153ZM81.7648 85.0228V75.9855H83.0143V77.0509H83.1213C83.1954 76.914 83.3024 76.7557 83.4422 76.576C83.582 76.3962 83.776 76.2393 84.0242 76.1053C84.2723 75.9683 84.6004 75.8999 85.0083 75.8999C85.539 75.8999 86.0125 76.034 86.429 76.3021C86.8455 76.5703 87.1721 76.9568 87.4089 77.4617C87.6485 77.9667 87.7683 78.5743 87.7683 79.2846C87.7683 79.9949 87.65 80.604 87.4132 81.1118C87.1764 81.6167 86.8512 82.0061 86.4376 82.28C86.0239 82.551 85.5518 82.6865 85.0212 82.6865C84.6218 82.6865 84.2952 82.6194 84.0413 82.4854C83.7902 82.3513 83.5934 82.1944 83.4508 82.0147C83.3081 81.8349 83.1983 81.6752 83.1213 81.5354H83.0443V85.0228H81.7648ZM83.0186 79.2718C83.0186 79.7339 83.0856 80.139 83.2197 80.487C83.3538 80.8351 83.5478 81.1075 83.8017 81.3043C84.0555 81.4983 84.3665 81.5953 84.7345 81.5953C85.1168 81.5953 85.4363 81.494 85.693 81.2915C85.9497 81.0861 86.1437 80.808 86.275 80.4571C86.409 80.1062 86.4761 79.7111 86.4761 79.2718C86.4761 78.8382 86.4105 78.4488 86.2792 78.1036C86.1509 77.7584 85.9569 77.486 85.6973 77.2863C85.4405 77.0866 85.1196 76.9868 84.7345 76.9868C84.3636 76.9868 84.0498 77.0823 83.7931 77.2735C83.5392 77.4646 83.3466 77.7313 83.2154 78.0736C83.0842 78.416 83.0186 78.8153 83.0186 79.2718ZM91.1146 82.7036C90.6981 82.7036 90.3215 82.6266 89.9849 82.4725C89.6483 82.3156 89.3816 82.0888 89.1847 81.7922C88.9907 81.4955 88.8937 81.1317 88.8937 80.701C88.8937 80.3301 88.9651 80.0249 89.1077 79.7853C89.2503 79.5456 89.4429 79.3559 89.6854 79.2162C89.9279 79.0764 90.1989 78.9708 90.4984 78.8995C90.7979 78.8282 91.1032 78.774 91.4141 78.7369C91.8078 78.6913 92.1273 78.6542 92.3726 78.6256C92.618 78.5943 92.7963 78.5443 92.9075 78.4759C93.0188 78.4074 93.0744 78.2962 93.0744 78.1421V78.1122C93.0744 77.7384 92.9688 77.4489 92.7577 77.2435C92.5495 77.0381 92.2386 76.9354 91.8249 76.9354C91.3941 76.9354 91.0547 77.031 90.8065 77.2221C90.5612 77.4104 90.3914 77.6201 90.2973 77.8511L89.0949 77.5773C89.2375 77.1779 89.4457 76.8555 89.7196 76.6102C89.9963 76.362 90.3144 76.1823 90.6738 76.071C91.0333 75.9569 91.4113 75.8999 91.8078 75.8999C92.0702 75.8999 92.3484 75.9313 92.6422 75.994C92.9389 76.0539 93.2156 76.1652 93.4723 76.3278C93.7319 76.4904 93.9445 76.7229 94.1099 77.0253C94.2754 77.3248 94.3581 77.7142 94.3581 78.1935V82.5581H93.1086V81.6595H93.0573C92.9745 81.825 92.8505 81.9876 92.685 82.1473C92.5195 82.3071 92.307 82.4397 92.0474 82.5453C91.7878 82.6508 91.4769 82.7036 91.1146 82.7036ZM91.3927 81.6766C91.7465 81.6766 92.0488 81.6067 92.2999 81.4669C92.5538 81.3272 92.7463 81.1446 92.8776 80.9192C93.0116 80.691 93.0787 80.4471 93.0787 80.1875V79.3402C93.033 79.3859 92.9446 79.4287 92.8134 79.4686C92.685 79.5057 92.5381 79.5385 92.3726 79.567C92.2072 79.5927 92.046 79.617 91.8891 79.6398C91.7322 79.6597 91.601 79.6769 91.4954 79.6911C91.2472 79.7225 91.0204 79.7753 90.815 79.8495C90.6125 79.9236 90.4499 80.0306 90.3272 80.1704C90.2074 80.3073 90.1475 80.4899 90.1475 80.7181C90.1475 81.0348 90.2645 81.2744 90.4984 81.437C90.7323 81.5967 91.0304 81.6766 91.3927 81.6766ZM97.3417 78.6556V82.5581H96.0623V75.9855H97.2903V77.0552H97.3717C97.5228 76.7072 97.7596 76.4276 98.082 76.2165C98.4072 76.0054 98.8166 75.8999 99.3101 75.8999C99.7579 75.8999 100.15 75.994 100.487 76.1823C100.823 76.3677 101.084 76.6444 101.27 77.0124C101.455 77.3804 101.548 77.8354 101.548 78.3775V82.5581H100.269V78.5315C100.269 78.0551 100.144 77.6828 99.8963 77.4147C99.6481 77.1437 99.3072 77.0082 98.8736 77.0082C98.5769 77.0082 98.313 77.0723 98.082 77.2007C97.8538 77.3291 97.6726 77.5174 97.5385 77.7655C97.4073 78.0109 97.3417 78.3076 97.3417 78.6556ZM103.837 85.0228C103.646 85.0228 103.472 85.0072 103.315 84.9758C103.158 84.9473 103.041 84.9159 102.964 84.8816L103.272 83.8333C103.506 83.896 103.715 83.9231 103.897 83.9146C104.08 83.906 104.241 83.8375 104.381 83.7092C104.523 83.5808 104.649 83.3711 104.757 83.0802L104.916 82.6437L102.511 75.9855H103.88L105.545 81.0861H105.613L107.278 75.9855H108.651L105.943 83.4353C105.817 83.7776 105.657 84.0672 105.463 84.304C105.269 84.5436 105.038 84.7233 104.77 84.8431C104.502 84.9629 104.191 85.0228 103.837 85.0228Z" fill="#76767C"/>
<path d="M21.3 67.7179C21.3 65.2779 23.2779 63.3 25.7179 63.3H205.055C207.495 63.3 209.473 65.2779 209.473 67.7179L208.073 67.7179C208.073 66.0511 206.722 64.7 205.055 64.7H25.7179C24.0511 64.7 22.7 66.0511 22.7 67.7179L21.3 67.7179ZM208.773 92.1163H22H208.773ZM21.3 92.1163V67.7179C21.3 65.2779 23.2779 63.3 25.7179 63.3L25.7179 64.7C24.0511 64.7 22.7 66.0511 22.7 67.7179V92.1163H21.3ZM205.055 63.3C207.495 63.3 209.473 65.2779 209.473 67.7179V92.1163H208.073V67.7179C208.073 66.0511 206.722 64.7 205.055 64.7L205.055 63.3Z" fill="#D9D9DA" mask="url(#path-3-inside-1_567_16641)"/>
<rect x="22.5" y="92.6162" width="185.773" height="41.1745" fill="white"/>
<path d="M44.958 105.517C46.1347 107.824 46.7983 110.436 46.7983 113.204C46.7983 115.971 46.1347 118.584 44.958 120.891C47.682 119.41 49.531 116.523 49.531 113.204C49.531 109.885 47.682 106.998 44.958 105.517Z" fill="#00B3EC"/>
<path d="M41.026 105.333C40.6304 104.773 39.9566 104.471 39.2809 104.588C35.1689 105.302 32.042 108.887 32.042 113.203C32.042 117.519 35.1689 121.105 39.2809 121.819C39.9566 121.936 40.6304 121.634 41.0259 121.074C42.5965 118.849 43.5192 116.134 43.5192 113.203C43.5192 110.273 42.5966 107.558 41.026 105.333Z" fill="#0290CD"/>
<path d="M63.6688 111.679H62.6076C62.5448 111.373 62.435 111.105 62.2781 110.874C62.124 110.643 61.9358 110.449 61.7132 110.292C61.4936 110.133 61.2497 110.013 60.9815 109.933C60.7134 109.853 60.4338 109.813 60.1428 109.813C59.6122 109.813 59.1315 109.947 58.7008 110.215C58.2729 110.483 57.932 110.878 57.6781 111.401C57.427 111.923 57.3015 112.563 57.3015 113.322C57.3015 114.081 57.427 114.721 57.6781 115.243C57.932 115.765 58.2729 116.16 58.7008 116.428C59.1315 116.697 59.6122 116.831 60.1428 116.831C60.4338 116.831 60.7134 116.791 60.9815 116.711C61.2497 116.631 61.4936 116.513 61.7132 116.356C61.9358 116.196 62.124 116.001 62.2781 115.769C62.435 115.536 62.5448 115.267 62.6076 114.965H63.6688C63.5889 115.413 63.4434 115.814 63.2323 116.167C63.0212 116.521 62.7588 116.822 62.445 117.07C62.1312 117.316 61.7789 117.502 61.388 117.631C61.0001 117.759 60.585 117.823 60.1428 117.823C59.3954 117.823 58.7307 117.641 58.1488 117.276C57.5668 116.911 57.109 116.391 56.7752 115.718C56.4414 115.045 56.2745 114.246 56.2745 113.322C56.2745 112.398 56.4414 111.599 56.7752 110.926C57.109 110.252 57.5668 109.733 58.1488 109.368C58.7307 109.003 59.3954 108.82 60.1428 108.82C60.585 108.82 61.0001 108.884 61.388 109.013C61.7789 109.141 62.1312 109.329 62.445 109.578C62.7588 109.823 63.0212 110.123 63.2323 110.476C63.4434 110.827 63.5889 111.228 63.6688 111.679ZM69.3888 115.016V111.131H70.3987V117.704H69.3888V116.591H69.3204C69.1663 116.925 68.9267 117.209 68.6015 117.443C68.2763 117.674 67.8655 117.789 67.3691 117.789C66.9583 117.789 66.5932 117.699 66.2737 117.52C65.9542 117.337 65.7031 117.063 65.5205 116.698C65.338 116.33 65.2467 115.866 65.2467 115.307V111.131H66.2565V115.239C66.2565 115.718 66.3906 116.1 66.6588 116.386C66.9298 116.671 67.275 116.814 67.6943 116.814C67.9454 116.814 68.2007 116.749 68.4603 116.621C68.7227 116.493 68.9424 116.296 69.1192 116.03C69.299 115.765 69.3888 115.427 69.3888 115.016ZM76.9039 112.603L75.9968 112.86C75.9397 112.709 75.8556 112.562 75.7443 112.419C75.6359 112.273 75.4876 112.154 75.2993 112.06C75.111 111.965 74.87 111.918 74.5761 111.918C74.1739 111.918 73.8387 112.011 73.5705 112.196C73.3052 112.379 73.1726 112.612 73.1726 112.894C73.1726 113.145 73.2639 113.343 73.4465 113.489C73.629 113.634 73.9143 113.755 74.3023 113.852L75.2779 114.092C75.8656 114.235 76.3034 114.453 76.5916 114.747C76.8797 115.038 77.0238 115.413 77.0238 115.872C77.0238 116.249 76.9154 116.585 76.6985 116.882C76.4846 117.179 76.1851 117.413 75.7999 117.584C75.4148 117.755 74.967 117.841 74.4563 117.841C73.7859 117.841 73.2311 117.695 72.7918 117.404C72.3524 117.113 72.0743 116.688 71.9573 116.129L72.9159 115.889C73.0071 116.243 73.1797 116.508 73.4336 116.685C73.6904 116.862 74.0256 116.95 74.4392 116.95C74.9099 116.95 75.2836 116.851 75.5603 116.651C75.8399 116.448 75.9797 116.206 75.9797 115.924C75.9797 115.695 75.8998 115.504 75.74 115.35C75.5803 115.193 75.335 115.076 75.004 114.999L73.9086 114.742C73.3067 114.6 72.8645 114.379 72.5821 114.079C72.3025 113.777 72.1627 113.399 72.1627 112.945C72.1627 112.574 72.2669 112.246 72.4751 111.961C72.6862 111.676 72.9729 111.452 73.3352 111.289C73.7003 111.127 74.114 111.045 74.5761 111.045C75.2265 111.045 75.7372 111.188 76.108 111.473C76.4817 111.759 76.747 112.135 76.9039 112.603ZM81.4023 111.131V111.987H77.9962V111.131H81.4023ZM78.9889 109.556H79.9988V115.821C79.9988 116.106 80.0401 116.32 80.1229 116.463C80.2085 116.602 80.3169 116.697 80.4481 116.745C80.5822 116.791 80.7234 116.814 80.8717 116.814C80.983 116.814 81.0743 116.808 81.1456 116.796C81.2169 116.782 81.2739 116.771 81.3167 116.762L81.5221 117.669C81.4537 117.695 81.3581 117.721 81.2354 117.746C81.1128 117.775 80.9573 117.789 80.769 117.789C80.4837 117.789 80.2042 117.728 79.9303 117.605C79.6593 117.483 79.4339 117.296 79.2542 117.045C79.0774 116.794 78.9889 116.477 78.9889 116.095V109.556ZM85.5209 117.841C84.9276 117.841 84.4069 117.699 83.9591 117.417C83.514 117.134 83.166 116.739 82.915 116.232C82.6668 115.724 82.5427 115.13 82.5427 114.452C82.5427 113.767 82.6668 113.169 82.915 112.659C83.166 112.148 83.514 111.751 83.9591 111.469C84.4069 111.187 84.9276 111.045 85.5209 111.045C86.1143 111.045 86.6335 111.187 87.0785 111.469C87.5264 111.751 87.8744 112.148 88.1226 112.659C88.3736 113.169 88.4992 113.767 88.4992 114.452C88.4992 115.13 88.3736 115.724 88.1226 116.232C87.8744 116.739 87.5264 117.134 87.0785 117.417C86.6335 117.699 86.1143 117.841 85.5209 117.841ZM85.5209 116.933C85.9716 116.933 86.3425 116.818 86.6335 116.587C86.9245 116.356 87.1398 116.052 87.2796 115.675C87.4194 115.299 87.4893 114.891 87.4893 114.452C87.4893 114.012 87.4194 113.603 87.2796 113.223C87.1398 112.844 86.9245 112.537 86.6335 112.303C86.3425 112.07 85.9716 111.953 85.5209 111.953C85.0702 111.953 84.6993 112.07 84.4084 112.303C84.1174 112.537 83.902 112.844 83.7622 113.223C83.6224 113.603 83.5525 114.012 83.5525 114.452C83.5525 114.891 83.6224 115.299 83.7622 115.675C83.902 116.052 84.1174 116.356 84.4084 116.587C84.6993 116.818 85.0702 116.933 85.5209 116.933ZM90.0407 117.704V111.131H91.0163V112.158H91.1019C91.2388 111.807 91.4599 111.535 91.7652 111.341C92.0704 111.144 92.437 111.045 92.8649 111.045C93.2985 111.045 93.6594 111.144 93.9475 111.341C94.2385 111.535 94.4652 111.807 94.6279 112.158H94.6963C94.8646 111.818 95.1171 111.549 95.4537 111.349C95.7903 111.147 96.194 111.045 96.6647 111.045C97.2523 111.045 97.733 111.229 98.1067 111.597C98.4804 111.963 98.6673 112.532 98.6673 113.305V117.704H97.6574V113.305C97.6574 112.82 97.5248 112.473 97.2595 112.265C96.9942 112.057 96.6818 111.953 96.3224 111.953C95.8602 111.953 95.5022 112.092 95.2483 112.372C94.9944 112.649 94.8675 112.999 94.8675 113.425V117.704H93.8405V113.202C93.8405 112.828 93.7193 112.527 93.4768 112.299C93.2343 112.068 92.9219 111.953 92.5397 111.953C92.2772 111.953 92.0319 112.022 91.8037 112.162C91.5783 112.302 91.3957 112.496 91.2559 112.744C91.119 112.99 91.0505 113.273 91.0505 113.596V117.704H90.0407ZM103.269 117.841C102.636 117.841 102.09 117.701 101.631 117.421C101.174 117.139 100.822 116.745 100.574 116.24C100.328 115.732 100.206 115.142 100.206 114.469C100.206 113.795 100.328 113.202 100.574 112.689C100.822 112.172 101.167 111.77 101.609 111.482C102.054 111.191 102.573 111.045 103.167 111.045C103.509 111.045 103.847 111.102 104.181 111.217C104.515 111.331 104.818 111.516 105.092 111.773C105.366 112.027 105.584 112.363 105.747 112.783C105.91 113.202 105.991 113.718 105.991 114.332V114.76H100.925V113.887H104.964C104.964 113.516 104.89 113.185 104.741 112.894C104.596 112.603 104.388 112.373 104.117 112.205C103.849 112.037 103.532 111.953 103.167 111.953C102.765 111.953 102.416 112.052 102.123 112.252C101.832 112.449 101.608 112.706 101.451 113.022C101.294 113.339 101.215 113.678 101.215 114.041V114.623C101.215 115.119 101.301 115.54 101.472 115.885C101.646 116.227 101.887 116.488 102.195 116.668C102.503 116.845 102.861 116.933 103.269 116.933C103.535 116.933 103.774 116.896 103.988 116.822C104.205 116.745 104.392 116.631 104.549 116.48C104.706 116.326 104.827 116.135 104.913 115.906L105.888 116.18C105.786 116.511 105.613 116.802 105.37 117.053C105.128 117.301 104.828 117.495 104.472 117.635C104.115 117.772 103.714 117.841 103.269 117.841ZM107.527 117.704V111.131H108.503V112.124H108.571C108.691 111.798 108.908 111.535 109.222 111.332C109.535 111.13 109.889 111.028 110.283 111.028C110.357 111.028 110.45 111.03 110.561 111.033C110.672 111.035 110.756 111.04 110.813 111.045V112.072C110.779 112.064 110.701 112.051 110.578 112.034C110.458 112.014 110.331 112.004 110.197 112.004C109.878 112.004 109.592 112.071 109.341 112.205C109.093 112.336 108.896 112.519 108.751 112.753C108.608 112.984 108.537 113.248 108.537 113.544V117.704H107.527ZM119.165 112.851V113.793H115.331V112.851H119.165ZM129.261 111.131C129.209 110.697 129.001 110.361 128.636 110.121C128.271 109.881 127.823 109.762 127.292 109.762C126.904 109.762 126.565 109.824 126.274 109.95C125.986 110.075 125.76 110.248 125.598 110.468C125.438 110.687 125.358 110.937 125.358 111.217C125.358 111.45 125.414 111.652 125.525 111.82C125.639 111.985 125.784 112.124 125.961 112.235C126.138 112.343 126.324 112.433 126.518 112.505C126.712 112.573 126.89 112.629 127.053 112.671L127.943 112.911C128.171 112.971 128.425 113.054 128.704 113.159C128.987 113.265 129.256 113.409 129.513 113.591C129.773 113.771 129.987 114.002 130.155 114.285C130.323 114.567 130.407 114.914 130.407 115.324C130.407 115.798 130.283 116.226 130.035 116.608C129.79 116.99 129.43 117.294 128.957 117.52C128.486 117.745 127.914 117.858 127.241 117.858C126.613 117.858 126.07 117.756 125.61 117.554C125.154 117.351 124.795 117.069 124.532 116.707C124.273 116.344 124.126 115.924 124.091 115.444H125.187C125.215 115.775 125.327 116.049 125.521 116.266C125.717 116.48 125.966 116.64 126.265 116.745C126.568 116.848 126.893 116.899 127.241 116.899C127.646 116.899 128.01 116.834 128.332 116.702C128.654 116.568 128.91 116.383 129.098 116.146C129.286 115.906 129.38 115.627 129.38 115.307C129.38 115.016 129.299 114.78 129.136 114.597C128.974 114.414 128.76 114.266 128.495 114.152C128.229 114.038 127.943 113.938 127.634 113.852L126.556 113.544C125.871 113.348 125.329 113.067 124.93 112.701C124.531 112.336 124.331 111.858 124.331 111.268C124.331 110.777 124.464 110.349 124.729 109.984C124.997 109.616 125.357 109.331 125.807 109.128C126.261 108.923 126.767 108.82 127.326 108.82C127.891 108.82 128.393 108.922 128.833 109.124C129.272 109.324 129.62 109.598 129.877 109.946C130.136 110.294 130.273 110.689 130.287 111.131H129.261ZM132.015 120.168V111.131H132.991V112.175H133.111C133.185 112.061 133.287 111.915 133.419 111.739C133.553 111.559 133.744 111.399 133.992 111.259C134.243 111.117 134.583 111.045 135.011 111.045C135.564 111.045 136.052 111.184 136.474 111.46C136.896 111.737 137.226 112.129 137.462 112.637C137.699 113.145 137.818 113.744 137.818 114.434C137.818 115.13 137.699 115.734 137.462 116.244C137.226 116.752 136.898 117.146 136.478 117.425C136.059 117.702 135.575 117.841 135.028 117.841C134.605 117.841 134.267 117.771 134.013 117.631C133.76 117.488 133.564 117.327 133.427 117.147C133.29 116.965 133.185 116.814 133.111 116.694H133.025V120.168H132.015ZM133.008 114.417C133.008 114.914 133.081 115.352 133.226 115.731C133.372 116.108 133.584 116.403 133.864 116.617C134.143 116.828 134.486 116.933 134.891 116.933C135.313 116.933 135.665 116.822 135.948 116.6C136.233 116.374 136.447 116.072 136.589 115.692C136.735 115.31 136.808 114.885 136.808 114.417C136.808 113.955 136.736 113.539 136.594 113.168C136.454 112.794 136.241 112.499 135.956 112.282C135.674 112.062 135.319 111.953 134.891 111.953C134.48 111.953 134.135 112.057 133.855 112.265C133.576 112.47 133.364 112.758 133.222 113.129C133.079 113.497 133.008 113.927 133.008 114.417ZM142.028 117.841C141.435 117.841 140.914 117.699 140.466 117.417C140.021 117.134 139.673 116.739 139.422 116.232C139.174 115.724 139.05 115.13 139.05 114.452C139.05 113.767 139.174 113.169 139.422 112.659C139.673 112.148 140.021 111.751 140.466 111.469C140.914 111.187 141.435 111.045 142.028 111.045C142.622 111.045 143.141 111.187 143.586 111.469C144.034 111.751 144.382 112.148 144.63 112.659C144.881 113.169 145.006 113.767 145.006 114.452C145.006 115.13 144.881 115.724 144.63 116.232C144.382 116.739 144.034 117.134 143.586 117.417C143.141 117.699 142.622 117.841 142.028 117.841ZM142.028 116.933C142.479 116.933 142.85 116.818 143.141 116.587C143.432 116.356 143.647 116.052 143.787 115.675C143.927 115.299 143.997 114.891 143.997 114.452C143.997 114.012 143.927 113.603 143.787 113.223C143.647 112.844 143.432 112.537 143.141 112.303C142.85 112.07 142.479 111.953 142.028 111.953C141.577 111.953 141.207 112.07 140.916 112.303C140.625 112.537 140.409 112.844 140.269 113.223C140.13 113.603 140.06 114.012 140.06 114.452C140.06 114.891 140.13 115.299 140.269 115.675C140.409 116.052 140.625 116.356 140.916 116.587C141.207 116.818 141.577 116.933 142.028 116.933ZM146.548 117.704V111.131H147.524V112.124H147.592C147.712 111.798 147.929 111.535 148.242 111.332C148.556 111.13 148.91 111.028 149.304 111.028C149.378 111.028 149.471 111.03 149.582 111.033C149.693 111.035 149.777 111.04 149.834 111.045V112.072C149.8 112.064 149.722 112.051 149.599 112.034C149.479 112.014 149.352 112.004 149.218 112.004C148.899 112.004 148.613 112.071 148.362 112.205C148.114 112.336 147.917 112.519 147.772 112.753C147.629 112.984 147.558 113.248 147.558 113.544V117.704H146.548ZM154.302 111.131V111.987H150.895V111.131H154.302ZM151.888 109.556H152.898V115.821C152.898 116.106 152.939 116.32 153.022 116.463C153.108 116.602 153.216 116.697 153.347 116.745C153.481 116.791 153.623 116.814 153.771 116.814C153.882 116.814 153.974 116.808 154.045 116.796C154.116 116.782 154.173 116.771 154.216 116.762L154.421 117.669C154.353 117.695 154.257 117.721 154.135 117.746C154.012 117.775 153.857 117.789 153.668 117.789C153.383 117.789 153.103 117.728 152.83 117.605C152.559 117.483 152.333 117.296 152.154 117.045C151.977 116.794 151.888 116.477 151.888 116.095V109.556ZM160.359 112.603L159.451 112.86C159.394 112.709 159.31 112.562 159.199 112.419C159.091 112.273 158.942 112.154 158.754 112.06C158.566 111.965 158.325 111.918 158.031 111.918C157.629 111.918 157.293 112.011 157.025 112.196C156.76 112.379 156.627 112.612 156.627 112.894C156.627 113.145 156.719 113.343 156.901 113.489C157.084 113.634 157.369 113.755 157.757 113.852L158.733 114.092C159.32 114.235 159.758 114.453 160.046 114.747C160.334 115.038 160.478 115.413 160.478 115.872C160.478 116.249 160.37 116.585 160.153 116.882C159.939 117.179 159.64 117.413 159.255 117.584C158.87 117.755 158.422 117.841 157.911 117.841C157.241 117.841 156.686 117.695 156.246 117.404C155.807 117.113 155.529 116.688 155.412 116.129L156.371 115.889C156.462 116.243 156.634 116.508 156.888 116.685C157.145 116.862 157.48 116.95 157.894 116.95C158.365 116.95 158.738 116.851 159.015 116.651C159.295 116.448 159.434 116.206 159.434 115.924C159.434 115.695 159.354 115.504 159.195 115.35C159.035 115.193 158.79 115.076 158.459 114.999L157.363 114.742C156.761 114.6 156.319 114.379 156.037 114.079C155.757 113.777 155.617 113.399 155.617 112.945C155.617 112.574 155.722 112.246 155.93 111.961C156.141 111.676 156.428 111.452 156.79 111.289C157.155 111.127 157.569 111.045 158.031 111.045C158.681 111.045 159.192 111.188 159.563 111.473C159.936 111.759 160.202 112.135 160.359 112.603ZM161.776 115.906V115.033L165.627 108.94H166.261V110.292H165.833L162.923 114.897V114.965H168.109V115.906H161.776ZM165.901 117.704V115.641V115.235V108.94H166.911V117.704H165.901ZM175.618 108.94H176.679V114.742C176.679 115.342 176.538 115.876 176.255 116.347C175.976 116.815 175.581 117.184 175.07 117.455C174.559 117.724 173.96 117.858 173.273 117.858C172.585 117.858 171.986 117.724 171.476 117.455C170.965 117.184 170.569 116.815 170.286 116.347C170.007 115.876 169.867 115.342 169.867 114.742V108.94H170.928V114.657C170.928 115.085 171.022 115.466 171.21 115.799C171.399 116.13 171.667 116.391 172.015 116.582C172.366 116.771 172.785 116.865 173.273 116.865C173.761 116.865 174.18 116.771 174.531 116.582C174.882 116.391 175.15 116.13 175.335 115.799C175.524 115.466 175.618 115.085 175.618 114.657V108.94Z" fill="#0D062D"/>
<rect x="22.5" y="92.6162" width="185.773" height="41.1745" stroke="#FF723F"/>
<path d="M22.35 134.641H208.423V172.748C208.423 174.608 206.915 176.116 205.055 176.116H25.7179C23.8578 176.116 22.35 174.608 22.35 172.748V134.641Z" fill="white"/>
<rect width="20.0831" height="20.0831" transform="translate(32.042 145.337)" fill="white"/>
<path d="M39.6106 153.821C41.5827 152.877 43.1261 151.277 44.0122 149.276C43.4405 148.676 42.6974 148.247 41.8971 147.99L41.4684 147.847C41.4398 147.904 41.4113 147.99 41.4113 148.047C40.7253 149.991 39.3248 151.563 37.4385 152.449C36.1237 153.078 35.152 154.221 34.6947 155.593L34.5518 156.021C34.6089 156.05 34.6947 156.079 34.7518 156.079C35.2949 156.279 35.8379 156.536 36.3524 156.85C37.0669 155.564 38.2102 154.478 39.6106 153.821Z" fill="#087443"/>
<path d="M47.8999 153.935C46.8424 155.536 45.3848 156.822 43.5842 157.679C42.1265 158.365 41.0119 159.651 40.4974 161.195L40.3545 161.681C40.8975 162.166 41.5549 162.538 42.2694 162.767L42.6982 162.91C42.7267 162.852 42.7553 162.767 42.7553 162.71C43.4413 160.766 44.8418 159.194 46.7281 158.308C48.0429 157.679 49.0432 156.536 49.4719 155.164L49.6148 154.735C49.0146 154.564 48.443 154.278 47.8999 153.935Z" fill="#16B364"/>
<path d="M39.2109 160.194C39.9254 158.479 41.2402 157.078 42.9265 156.278C44.4699 155.535 45.756 154.392 46.642 152.991C45.9847 152.362 45.4416 151.648 45.0415 150.791C43.984 152.734 42.3263 154.306 40.297 155.278C39.1252 155.821 38.182 156.764 37.6104 157.907C38.2391 158.507 38.7536 159.251 39.1537 160.079C39.1537 160.079 39.1823 160.137 39.2109 160.194Z" fill="#099250"/>
<path d="M66.2635 153.853H65.2023C65.1395 153.548 65.0297 153.28 64.8728 153.049C64.7188 152.818 64.5305 152.624 64.308 152.467C64.0883 152.307 63.8444 152.188 63.5763 152.108C63.3081 152.028 63.0285 151.988 62.7376 151.988C62.2069 151.988 61.7263 152.122 61.2955 152.39C60.8676 152.658 60.5267 153.053 60.2728 153.575C60.0218 154.097 59.8963 154.738 59.8963 155.497C59.8963 156.255 60.0218 156.896 60.2728 157.418C60.5267 157.94 60.8676 158.335 61.2955 158.603C61.7263 158.871 62.2069 159.005 62.7376 159.005C63.0285 159.005 63.3081 158.966 63.5763 158.886C63.8444 158.806 64.0883 158.687 64.308 158.531C64.5305 158.371 64.7188 158.175 64.8728 157.944C65.0297 157.71 65.1395 157.442 65.2023 157.14H66.2635C66.1836 157.588 66.0381 157.988 65.827 158.342C65.6159 158.696 65.3535 158.997 65.0397 159.245C64.7259 159.49 64.3736 159.677 63.9828 159.806C63.5948 159.934 63.1797 159.998 62.7376 159.998C61.9901 159.998 61.3255 159.816 60.7435 159.451C60.1616 159.085 59.7037 158.566 59.3699 157.893C59.0362 157.22 58.8693 156.421 58.8693 155.497C58.8693 154.572 59.0362 153.774 59.3699 153.1C59.7037 152.427 60.1616 151.908 60.7435 151.543C61.3255 151.178 61.9901 150.995 62.7376 150.995C63.1797 150.995 63.5948 151.059 63.9828 151.188C64.3736 151.316 64.7259 151.504 65.0397 151.752C65.3535 151.998 65.6159 152.297 65.827 152.651C66.0381 153.002 66.1836 153.403 66.2635 153.853ZM71.9836 157.191V153.306H72.9934V159.878H71.9836V158.766H71.9151C71.761 159.1 71.5214 159.383 71.1962 159.617C70.871 159.848 70.4602 159.964 69.9638 159.964C69.553 159.964 69.1879 159.874 68.8684 159.694C68.5489 159.512 68.2978 159.238 68.1153 158.873C67.9327 158.505 67.8414 158.041 67.8414 157.482V153.306H68.8513V157.414C68.8513 157.893 68.9854 158.275 69.2535 158.56C69.5245 158.846 69.8697 158.988 70.289 158.988C70.5401 158.988 70.7954 158.924 71.055 158.796C71.3174 158.667 71.5371 158.471 71.714 158.205C71.8937 157.94 71.9836 157.602 71.9836 157.191ZM79.4987 154.778L78.5915 155.035C78.5345 154.883 78.4503 154.736 78.339 154.594C78.2306 154.448 78.0823 154.328 77.894 154.234C77.7057 154.14 77.4647 154.093 77.1709 154.093C76.7686 154.093 76.4334 154.186 76.1653 154.371C75.9 154.554 75.7673 154.786 75.7673 155.069C75.7673 155.32 75.8586 155.518 76.0412 155.664C76.2238 155.809 76.509 155.93 76.897 156.027L77.8726 156.267C78.4603 156.41 78.8982 156.628 79.1863 156.922C79.4744 157.213 79.6185 157.588 79.6185 158.047C79.6185 158.424 79.5101 158.76 79.2933 159.057C79.0793 159.354 78.7798 159.587 78.3947 159.759C78.0096 159.93 77.5617 160.015 77.051 160.015C76.3807 160.015 75.8258 159.87 75.3865 159.579C74.9472 159.288 74.669 158.863 74.5521 158.304L75.5106 158.064C75.6019 158.418 75.7745 158.683 76.0283 158.86C76.2851 159.037 76.6203 159.125 77.0339 159.125C77.5046 159.125 77.8783 159.025 78.155 158.826C78.4346 158.623 78.5744 158.381 78.5744 158.098C78.5744 157.87 78.4945 157.679 78.3348 157.525C78.175 157.368 77.9297 157.251 77.5988 157.174L76.5033 156.917C75.9014 156.775 75.4592 156.554 75.1768 156.254C74.8972 155.952 74.7575 155.574 74.7575 155.12C74.7575 154.749 74.8616 154.421 75.0698 154.136C75.2809 153.851 75.5676 153.627 75.9299 153.464C76.2951 153.301 76.7087 153.22 77.1709 153.22C77.8213 153.22 78.3319 153.363 78.7028 153.648C79.0765 153.933 79.3418 154.31 79.4987 154.778ZM83.997 153.306V154.162H80.5909V153.306H83.997ZM81.5836 151.731H82.5935V157.996C82.5935 158.281 82.6349 158.495 82.7176 158.637C82.8032 158.777 82.9116 158.871 83.0428 158.92C83.1769 158.966 83.3181 158.988 83.4664 158.988C83.5777 158.988 83.669 158.983 83.7403 158.971C83.8116 158.957 83.8687 158.946 83.9115 158.937L84.1169 159.844C84.0484 159.87 83.9528 159.896 83.8302 159.921C83.7075 159.95 83.552 159.964 83.3637 159.964C83.0785 159.964 82.7989 159.903 82.525 159.78C82.254 159.657 82.0287 159.47 81.849 159.219C81.6721 158.968 81.5836 158.652 81.5836 158.269V151.731ZM88.1156 160.015C87.5223 160.015 87.0017 159.874 86.5538 159.592C86.1088 159.309 85.7607 158.914 85.5097 158.406C85.2615 157.899 85.1374 157.305 85.1374 156.626C85.1374 155.942 85.2615 155.344 85.5097 154.833C85.7607 154.323 86.1088 153.926 86.5538 153.644C87.0017 153.361 87.5223 153.22 88.1156 153.22C88.709 153.22 89.2282 153.361 89.6732 153.644C90.1211 153.926 90.4691 154.323 90.7173 154.833C90.9684 155.344 91.0939 155.942 91.0939 156.626C91.0939 157.305 90.9684 157.899 90.7173 158.406C90.4691 158.914 90.1211 159.309 89.6732 159.592C89.2282 159.874 88.709 160.015 88.1156 160.015ZM88.1156 159.108C88.5664 159.108 88.9372 158.993 89.2282 158.762C89.5192 158.531 89.7346 158.227 89.8743 157.85C90.0141 157.474 90.084 157.066 90.084 156.626C90.084 156.187 90.0141 155.778 89.8743 155.398C89.7346 155.019 89.5192 154.712 89.2282 154.478C88.9372 154.244 88.5664 154.127 88.1156 154.127C87.6649 154.127 87.2941 154.244 87.0031 154.478C86.7121 154.712 86.4967 155.019 86.3569 155.398C86.2172 155.778 86.1473 156.187 86.1473 156.626C86.1473 157.066 86.2172 157.474 86.3569 157.85C86.4967 158.227 86.7121 158.531 87.0031 158.762C87.2941 158.993 87.6649 159.108 88.1156 159.108ZM92.6354 159.878V153.306H93.611V154.333H93.6966C93.8336 153.982 94.0546 153.709 94.3599 153.515C94.6651 153.319 95.0317 153.22 95.4596 153.22C95.8932 153.22 96.2541 153.319 96.5422 153.515C96.8332 153.709 97.06 153.982 97.2226 154.333H97.291C97.4594 153.993 97.7118 153.724 98.0484 153.524C98.3851 153.321 98.7887 153.22 99.2594 153.22C99.8471 153.22 100.328 153.404 100.701 153.772C101.075 154.137 101.262 154.706 101.262 155.48V159.878H100.252V155.48C100.252 154.995 100.12 154.648 99.8542 154.44C99.5889 154.231 99.2765 154.127 98.9171 154.127C98.455 154.127 98.0969 154.267 97.843 154.547C97.5892 154.823 97.4622 155.174 97.4622 155.599V159.878H96.4352V155.377C96.4352 155.003 96.314 154.702 96.0715 154.474C95.829 154.243 95.5167 154.127 95.1344 154.127C94.8719 154.127 94.6266 154.197 94.3984 154.337C94.173 154.477 93.9905 154.671 93.8507 154.919C93.7137 155.164 93.6453 155.448 93.6453 155.771V159.878H92.6354ZM105.864 160.015C105.231 160.015 104.685 159.876 104.225 159.596C103.769 159.314 103.417 158.92 103.168 158.415C102.923 157.907 102.8 157.317 102.8 156.643C102.8 155.97 102.923 155.377 103.168 154.863C103.417 154.347 103.762 153.945 104.204 153.657C104.649 153.366 105.168 153.22 105.761 153.22C106.104 153.22 106.442 153.277 106.776 153.391C107.109 153.505 107.413 153.691 107.687 153.948C107.961 154.202 108.179 154.538 108.342 154.957C108.504 155.377 108.586 155.893 108.586 156.507V156.934H103.519V156.061H107.559C107.559 155.691 107.484 155.36 107.336 155.069C107.191 154.778 106.982 154.548 106.711 154.38C106.443 154.212 106.127 154.127 105.761 154.127C105.359 154.127 105.011 154.227 104.717 154.427C104.426 154.624 104.202 154.88 104.046 155.197C103.889 155.514 103.81 155.853 103.81 156.216V156.797C103.81 157.294 103.896 157.715 104.067 158.06C104.241 158.402 104.482 158.663 104.79 158.843C105.098 159.02 105.456 159.108 105.864 159.108C106.129 159.108 106.369 159.071 106.583 158.997C106.8 158.92 106.987 158.806 107.144 158.655C107.3 158.501 107.422 158.309 107.507 158.081L108.483 158.355C108.38 158.686 108.208 158.977 107.965 159.228C107.723 159.476 107.423 159.67 107.067 159.81C106.71 159.947 106.309 160.015 105.864 160.015ZM110.122 159.878V153.306H111.097V154.299H111.166C111.286 153.973 111.503 153.709 111.816 153.507C112.13 153.304 112.484 153.203 112.878 153.203C112.952 153.203 113.044 153.204 113.156 153.207C113.267 153.21 113.351 153.214 113.408 153.22V154.247C113.374 154.239 113.295 154.226 113.173 154.209C113.053 154.189 112.926 154.179 112.792 154.179C112.472 154.179 112.187 154.246 111.936 154.38C111.688 154.511 111.491 154.694 111.346 154.928C111.203 155.159 111.132 155.422 111.132 155.719V159.878H110.122ZM121.76 155.026V155.967H117.926V155.026H121.76ZM131.855 153.306C131.804 152.872 131.596 152.536 131.23 152.296C130.865 152.056 130.417 151.936 129.887 151.936C129.499 151.936 129.159 151.999 128.868 152.125C128.58 152.25 128.355 152.423 128.192 152.643C128.033 152.862 127.953 153.112 127.953 153.391C127.953 153.625 128.008 153.826 128.12 153.995C128.234 154.16 128.379 154.299 128.556 154.41C128.733 154.518 128.918 154.608 129.112 154.679C129.306 154.748 129.485 154.803 129.647 154.846L130.537 155.086C130.765 155.146 131.019 155.228 131.299 155.334C131.581 155.44 131.851 155.584 132.108 155.766C132.367 155.946 132.581 156.177 132.75 156.459C132.918 156.742 133.002 157.088 133.002 157.499C133.002 157.973 132.878 158.401 132.63 158.783C132.384 159.165 132.025 159.469 131.551 159.694C131.081 159.92 130.509 160.032 129.836 160.032C129.208 160.032 128.664 159.931 128.205 159.729C127.749 159.526 127.389 159.244 127.127 158.881C126.867 158.519 126.72 158.098 126.686 157.619H127.782C127.81 157.95 127.921 158.224 128.115 158.441C128.312 158.655 128.56 158.814 128.86 158.92C129.162 159.023 129.487 159.074 129.836 159.074C130.241 159.074 130.604 159.008 130.927 158.877C131.249 158.743 131.504 158.558 131.693 158.321C131.881 158.081 131.975 157.802 131.975 157.482C131.975 157.191 131.894 156.954 131.731 156.772C131.569 156.589 131.355 156.441 131.089 156.327C130.824 156.213 130.537 156.113 130.229 156.027L129.151 155.719C128.466 155.522 127.924 155.241 127.525 154.876C127.125 154.511 126.926 154.033 126.926 153.443C126.926 152.952 127.058 152.524 127.324 152.159C127.592 151.791 127.951 151.506 128.402 151.303C128.856 151.098 129.362 150.995 129.921 150.995C130.486 150.995 130.988 151.096 131.427 151.299C131.867 151.499 132.215 151.772 132.471 152.12C132.731 152.468 132.868 152.864 132.882 153.306H131.855ZM135.62 155.925V159.878H134.61V151.115H135.62V154.333H135.705C135.859 153.993 136.09 153.724 136.399 153.524C136.709 153.321 137.123 153.22 137.639 153.22C138.087 153.22 138.48 153.31 138.816 153.49C139.153 153.667 139.414 153.939 139.599 154.307C139.788 154.672 139.882 155.137 139.882 155.702V159.878H138.872V155.771C138.872 155.248 138.736 154.845 138.465 154.56C138.197 154.271 137.825 154.127 137.348 154.127C137.018 154.127 136.721 154.197 136.458 154.337C136.199 154.477 135.993 154.681 135.842 154.949C135.694 155.217 135.62 155.542 135.62 155.925ZM144.399 160.015C143.806 160.015 143.285 159.874 142.837 159.592C142.392 159.309 142.044 158.914 141.793 158.406C141.545 157.899 141.421 157.305 141.421 156.626C141.421 155.942 141.545 155.344 141.793 154.833C142.044 154.323 142.392 153.926 142.837 153.644C143.285 153.361 143.806 153.22 144.399 153.22C144.993 153.22 145.512 153.361 145.957 153.644C146.405 153.926 146.753 154.323 147.001 154.833C147.252 155.344 147.378 155.942 147.378 156.626C147.378 157.305 147.252 157.899 147.001 158.406C146.753 158.914 146.405 159.309 145.957 159.592C145.512 159.874 144.993 160.015 144.399 160.015ZM144.399 159.108C144.85 159.108 145.221 158.993 145.512 158.762C145.803 158.531 146.018 158.227 146.158 157.85C146.298 157.474 146.368 157.066 146.368 156.626C146.368 156.187 146.298 155.778 146.158 155.398C146.018 155.019 145.803 154.712 145.512 154.478C145.221 154.244 144.85 154.127 144.399 154.127C143.949 154.127 143.578 154.244 143.287 154.478C142.996 154.712 142.78 155.019 142.641 155.398C142.501 155.778 142.431 156.187 142.431 156.626C142.431 157.066 142.501 157.474 142.641 157.85C142.78 158.227 142.996 158.531 143.287 158.762C143.578 158.993 143.949 159.108 144.399 159.108ZM151.675 160.015C151.042 160.015 150.495 159.876 150.036 159.596C149.579 159.314 149.227 158.92 148.979 158.415C148.734 157.907 148.611 157.317 148.611 156.643C148.611 155.97 148.734 155.377 148.979 154.863C149.227 154.347 149.572 153.945 150.015 153.657C150.46 153.366 150.979 153.22 151.572 153.22C151.914 153.22 152.252 153.277 152.586 153.391C152.92 153.505 153.224 153.691 153.498 153.948C153.772 154.202 153.99 154.538 154.152 154.957C154.315 155.377 154.396 155.893 154.396 156.507V156.934H149.33V156.061H153.369C153.369 155.691 153.295 155.36 153.147 155.069C153.001 154.778 152.793 154.548 152.522 154.38C152.254 154.212 151.937 154.127 151.572 154.127C151.17 154.127 150.822 154.227 150.528 154.427C150.237 154.624 150.013 154.88 149.856 155.197C149.699 155.514 149.621 155.853 149.621 156.216V156.797C149.621 157.294 149.706 157.715 149.878 158.06C150.052 158.402 150.293 158.663 150.601 158.843C150.909 159.02 151.267 159.108 151.675 159.108C151.94 159.108 152.18 159.071 152.394 158.997C152.611 158.92 152.797 158.806 152.954 158.655C153.111 158.501 153.232 158.309 153.318 158.081L154.294 158.355C154.191 158.686 154.018 158.977 153.776 159.228C153.533 159.476 153.234 159.67 152.877 159.81C152.521 159.947 152.12 160.015 151.675 160.015ZM156.069 151.115H157.336L160.314 158.389H160.417L163.395 151.115H164.662V159.878H163.669V153.22H163.583L160.845 159.878H159.886L157.148 153.22H157.062V159.878H156.069V151.115ZM168.587 160.032C168.17 160.032 167.792 159.954 167.453 159.797C167.113 159.637 166.844 159.408 166.644 159.108C166.444 158.806 166.345 158.441 166.345 158.013C166.345 157.636 166.419 157.331 166.567 157.097C166.715 156.86 166.914 156.675 167.162 156.541C167.41 156.407 167.684 156.307 167.983 156.241C168.286 156.173 168.59 156.119 168.895 156.079C169.294 156.027 169.618 155.989 169.866 155.963C170.117 155.935 170.3 155.887 170.414 155.822C170.531 155.756 170.589 155.642 170.589 155.48V155.445C170.589 155.023 170.474 154.695 170.243 154.461C170.015 154.227 169.668 154.11 169.203 154.11C168.721 154.11 168.343 154.216 168.069 154.427C167.795 154.638 167.603 154.863 167.491 155.103L166.533 154.761C166.704 154.361 166.932 154.05 167.217 153.828C167.506 153.602 167.819 153.446 168.159 153.357C168.501 153.266 168.838 153.22 169.169 153.22C169.38 153.22 169.622 153.246 169.896 153.297C170.173 153.346 170.44 153.447 170.696 153.601C170.956 153.755 171.171 153.988 171.342 154.299C171.514 154.609 171.599 155.026 171.599 155.548V159.878H170.589V158.988H170.538C170.47 159.131 170.355 159.284 170.196 159.446C170.036 159.609 169.823 159.747 169.558 159.861C169.293 159.975 168.969 160.032 168.587 160.032ZM168.741 159.125C169.14 159.125 169.477 159.047 169.751 158.89C170.027 158.733 170.236 158.531 170.375 158.282C170.518 158.034 170.589 157.773 170.589 157.499V156.575C170.547 156.626 170.452 156.673 170.307 156.716C170.164 156.756 169.999 156.792 169.811 156.823C169.625 156.852 169.444 156.877 169.267 156.9C169.093 156.92 168.952 156.937 168.844 156.952C168.581 156.986 168.336 157.041 168.108 157.118C167.882 157.193 167.7 157.305 167.56 157.456C167.423 157.605 167.354 157.807 167.354 158.064C167.354 158.415 167.484 158.68 167.744 158.86C168.006 159.037 168.339 159.125 168.741 159.125ZM174.196 153.306L175.77 155.993L177.345 153.306H178.509L176.386 156.592L178.509 159.878H177.345L175.77 157.328L174.196 159.878H173.032L175.12 156.592L173.032 153.306H174.196ZM180.703 153.306L182.278 155.993L183.852 153.306H185.016L182.894 156.592L185.016 159.878H183.852L182.278 157.328L180.703 159.878H179.539L181.627 156.592L179.539 153.306H180.703Z" fill="#0D062D"/>
<path d="M22.35 134.641H208.423V172.748C208.423 174.608 206.915 176.116 205.055 176.116H25.7179C23.8578 176.116 22.35 174.608 22.35 172.748V134.641Z" stroke="#D9D9DA" stroke-width="0.7"/>
<rect x="22.35" y="64.35" width="186.073" height="111.765" rx="7.08573" stroke="#D9D9DA" stroke-width="0.7"/>
<path d="M170.852 78.0572C170.852 75.8388 172.65 74.0405 174.868 74.0405H203.885C206.103 74.0405 207.901 75.8388 207.901 78.0571V93.0655H170.852V78.0572Z" fill="#FF723F"/>
<path d="M178.432 88.0532H177.15L180.029 80.0532H181.424L184.303 88.0532H183.021L180.76 81.5063H180.697L178.432 88.0532ZM178.646 84.9204H182.803V85.936H178.646V84.9204ZM185.364 88.0532V82.0532H186.485V83.0298H186.56C186.685 82.6991 186.889 82.4412 187.173 82.2563C187.457 82.0688 187.797 81.9751 188.192 81.9751C188.593 81.9751 188.929 82.0688 189.2 82.2563C189.474 82.4438 189.675 82.7017 189.806 83.0298H189.868C190.011 82.7095 190.239 82.4543 190.552 82.2642C190.864 82.0715 191.237 81.9751 191.669 81.9751C192.213 81.9751 192.657 82.1457 193.001 82.4868C193.347 82.828 193.521 83.3423 193.521 84.0298V88.0532H192.353V84.1392C192.353 83.7329 192.242 83.4386 192.021 83.2563C191.799 83.0741 191.535 82.9829 191.228 82.9829C190.847 82.9829 190.552 83.1001 190.341 83.3345C190.13 83.5662 190.024 83.8644 190.024 84.229V88.0532H188.86V84.0649C188.86 83.7394 188.759 83.4777 188.556 83.2798C188.353 83.0819 188.088 82.9829 187.763 82.9829C187.541 82.9829 187.337 83.0415 187.149 83.1587C186.965 83.2733 186.815 83.4334 186.7 83.6392C186.588 83.8449 186.532 84.0832 186.532 84.354V88.0532H185.364ZM195.086 88.0532V82.0532H196.254V88.0532H195.086ZM195.676 81.1274C195.473 81.1274 195.298 81.0597 195.152 80.9243C195.009 80.7863 194.938 80.6222 194.938 80.4321C194.938 80.2394 195.009 80.0754 195.152 79.9399C195.298 79.8019 195.473 79.7329 195.676 79.7329C195.879 79.7329 196.052 79.8019 196.195 79.9399C196.341 80.0754 196.414 80.2394 196.414 80.4321C196.414 80.6222 196.341 80.7863 196.195 80.9243C196.052 81.0597 195.879 81.1274 195.676 81.1274ZM197.825 88.0532V82.0532H198.954V83.0063H199.017C199.126 82.6834 199.319 82.4295 199.595 82.2446C199.873 82.0571 200.188 81.9634 200.54 81.9634C200.613 81.9634 200.699 81.966 200.798 81.9712C200.899 81.9764 200.979 81.9829 201.036 81.9907V83.1079C200.989 83.0949 200.906 83.0806 200.786 83.0649C200.666 83.0467 200.547 83.0376 200.427 83.0376C200.151 83.0376 199.905 83.0962 199.688 83.2134C199.475 83.328 199.306 83.4881 199.181 83.6938C199.056 83.897 198.993 84.1287 198.993 84.3892V88.0532H197.825Z" fill="white"/>
</g>
<defs>
<filter id="filter0_dd_567_16641" x="20.4972" y="62.9982" width="189.778" height="115.471" filterUnits="userSpaceOnUse" color-interpolation-filters="sRGB">
<feFlood flood-opacity="0" result="BackgroundImageFix"/>
<feColorMatrix in="SourceAlpha" type="matrix" values="0 0 0 0 0 0 0 0 0 0 0 0 0 0 0 0 0 0 127 0" result="hardAlpha"/>
<feMorphology radius="0.500918" operator="erode" in="SourceAlpha" result="effect1_dropShadow_567_16641"/>
<feOffset dy="0.500918"/>
<feGaussianBlur stdDeviation="0.500918"/>
<feComposite in2="hardAlpha" operator="out"/>
<feColorMatrix type="matrix" values="0 0 0 0 0 0 0 0 0 0 0 0 0 0 0 0 0 0 0.1 0"/>
<feBlend mode="normal" in2="BackgroundImageFix" result="effect1_dropShadow_567_16641"/>
<feColorMatrix in="SourceAlpha" type="matrix" values="0 0 0 0 0 0 0 0 0 0 0 0 0 0 0 0 0 0 127 0" result="hardAlpha"/>
<feOffset dy="0.500918"/>
<feGaussianBlur stdDeviation="0.751377"/>
<feComposite in2="hardAlpha" operator="out"/>
<feColorMatrix type="matrix" values="0 0 0 0 0 0 0 0 0 0 0 0 0 0 0 0 0 0 0.1 0"/>
<feBlend mode="normal" in2="effect1_dropShadow_567_16641" result="effect2_dropShadow_567_16641"/>
<feBlend mode="normal" in="SourceGraphic" in2="effect2_dropShadow_567_16641" result="shape"/>
</filter>
</defs>
</svg>
