<svg width="323" height="164" viewBox="0 0 323 164" fill="none" xmlns="http://www.w3.org/2000/svg">
<g clip-path="url(#clip0_237_8249)">
<rect x="-127.701" width="622.631" height="172.569" fill="url(#paint0_linear_237_8249)"/>
<g clip-path="url(#clip1_237_8249)">
<rect x="273.35" y="25.5403" width="24.85" height="24.85" fill="#EEF1F6"/>
<rect x="99.4" y="100.09" width="24.85" height="24.85" fill="#EEF1F6"/>
<path d="M-124.25 0.690277H497" stroke="#E6EAF0" stroke-width="0.517708"/>
<path d="M-124.25 25.5404H497" stroke="#E6EAF0" stroke-width="0.517708"/>
<path d="M-124.25 50.3904H497" stroke="#E6EAF0" stroke-width="0.517708"/>
<path d="M-124.25 75.2404H497" stroke="#E6EAF0" stroke-width="0.517708"/>
<path d="M-124.25 100.09H497" stroke="#E6EAF0" stroke-width="0.517708"/>
<path d="M-124.25 124.94H497" stroke="#E6EAF0" stroke-width="0.517708"/>
<path d="M-124.25 149.79H497" stroke="#E6EAF0" stroke-width="0.517708"/>
<path d="M0 0.690369V1193.49" stroke="#E6EAF0" stroke-width="0.517708"/>
<path d="M24.85 0.690369V1193.49" stroke="#E6EAF0" stroke-width="0.517708"/>
<path d="M49.7 0.690369V1193.49" stroke="#E6EAF0" stroke-width="0.517708"/>
<path d="M74.55 0.690369V1193.49" stroke="#E6EAF0" stroke-width="0.517708"/>
<path d="M99.4 0.690369V1193.49" stroke="#E6EAF0" stroke-width="0.517708"/>
<path d="M124.25 0.690369V1193.49" stroke="#E6EAF0" stroke-width="0.517708"/>
<path d="M149.1 0.690369V1193.49" stroke="#E6EAF0" stroke-width="0.517708"/>
<path d="M173.95 0.690369V1193.49" stroke="#E6EAF0" stroke-width="0.517708"/>
<path d="M198.8 0.690369V1193.49" stroke="#E6EAF0" stroke-width="0.517708"/>
<path d="M223.65 0.690369V1193.49" stroke="#E6EAF0" stroke-width="0.517708"/>
<path d="M248.5 0.690369V1193.49" stroke="#E6EAF0" stroke-width="0.517708"/>
<path d="M273.35 0.690369V1193.49" stroke="#E6EAF0" stroke-width="0.517708"/>
<path d="M298.2 0.690369V1193.49" stroke="#E6EAF0" stroke-width="0.517708"/>
<path d="M323.05 0.690369V1193.49" stroke="#E6EAF0" stroke-width="0.517708"/>
</g>
<rect x="-124.25" y="0.690277" width="237.456" height="166.357" fill="url(#paint1_linear_237_8249)"/>
<rect x="-126.321" width="622.631" height="189.826" fill="url(#paint2_linear_237_8249)"/>
<rect x="196.729" y="49.0096" width="26.2306" height="26.2306" fill="#EEF1F6" stroke="#D9DDE4" stroke-width="1.38056"/>
<rect x="194.658" y="46.9389" width="4.83194" height="4.83194" fill="white" stroke="#D9DDE4" stroke-width="1.03542"/>
<rect x="194.658" y="73.1694" width="4.83194" height="4.83194" fill="white" stroke="#D9DDE4" stroke-width="1.03542"/>
<rect x="220.199" y="46.9388" width="4.83194" height="4.83194" fill="white" stroke="#D9DDE4" stroke-width="1.03542"/>
<rect x="220.199" y="73.1694" width="4.83194" height="4.83194" fill="white" stroke="#D9DDE4" stroke-width="1.03542"/>
</g>
<defs>
<linearGradient id="paint0_linear_237_8249" x1="183.614" y1="172.569" x2="183.614" y2="0" gradientUnits="userSpaceOnUse">
<stop stop-color="white"/>
<stop offset="1" stop-color="white" stop-opacity="0"/>
</linearGradient>
<linearGradient id="paint1_linear_237_8249" x1="-124.25" y1="80.0444" x2="109.922" y2="139.256" gradientUnits="userSpaceOnUse">
<stop stop-color="white"/>
<stop offset="0.409733" stop-color="white"/>
<stop offset="1" stop-color="white" stop-opacity="0"/>
</linearGradient>
<linearGradient id="paint2_linear_237_8249" x1="184.994" y1="189.826" x2="184.994" y2="0" gradientUnits="userSpaceOnUse">
<stop stop-color="white"/>
<stop offset="1" stop-color="white" stop-opacity="0"/>
</linearGradient>
<clipPath id="clip0_237_8249">
<rect width="323" height="164" fill="white"/>
</clipPath>
<clipPath id="clip1_237_8249">
<rect width="622.631" height="173.26" fill="white" transform="translate(-124.94)"/>
</clipPath>
</defs>
</svg>
