<svg width="720" height="238" viewBox="0 0 720 238" fill="none" xmlns="http://www.w3.org/2000/svg">
<g clip-path="url(#clip0_180_12971)">
<rect x="-185" width="902" height="250" fill="url(#paint0_linear_180_12971)"/>
<g clip-path="url(#clip1_180_12971)">
<rect x="396" y="37" width="36" height="36" fill="#EEF1F6"/>
<rect x="144" y="145" width="36" height="36" fill="#EEF1F6"/>
<rect x="504" y="109" width="72" height="72" fill="#EEF1F6"/>
<path d="M-180 1H720" stroke="#E6EAF0" stroke-width="0.75"/>
<path d="M-180 37H720" stroke="#E6EAF0" stroke-width="0.75"/>
<path d="M-180 73H720" stroke="#E6EAF0" stroke-width="0.75"/>
<path d="M-180 109H720" stroke="#E6EAF0" stroke-width="0.75"/>
<path d="M-180 145H720" stroke="#E6EAF0" stroke-width="0.75"/>
<path d="M-180 181H720" stroke="#E6EAF0" stroke-width="0.75"/>
<path d="M-180 217H720" stroke="#E6EAF0" stroke-width="0.75"/>
<path d="M0 1V1729" stroke="#E6EAF0" stroke-width="0.75"/>
<path d="M36 1V1729" stroke="#E6EAF0" stroke-width="0.75"/>
<path d="M72 1V1729" stroke="#E6EAF0" stroke-width="0.75"/>
<path d="M108 1V1729" stroke="#E6EAF0" stroke-width="0.75"/>
<path d="M144 1V1729" stroke="#E6EAF0" stroke-width="0.75"/>
<path d="M180 1V1729" stroke="#E6EAF0" stroke-width="0.75"/>
<path d="M216 1V1729" stroke="#E6EAF0" stroke-width="0.75"/>
<path d="M252 1V1729" stroke="#E6EAF0" stroke-width="0.75"/>
<path d="M288 1V1729" stroke="#E6EAF0" stroke-width="0.75"/>
<path d="M324 1V1729" stroke="#E6EAF0" stroke-width="0.75"/>
<path d="M360 1V1729" stroke="#E6EAF0" stroke-width="0.75"/>
<path d="M396 1V1729" stroke="#E6EAF0" stroke-width="0.75"/>
<path d="M432 1V1729" stroke="#E6EAF0" stroke-width="0.75"/>
<path d="M468 1V1729" stroke="#E6EAF0" stroke-width="0.75"/>
<path d="M504 1V1729" stroke="#E6EAF0" stroke-width="0.75"/>
<path d="M540 1V1729" stroke="#E6EAF0" stroke-width="0.75"/>
<path d="M576 1V1729" stroke="#E6EAF0" stroke-width="0.75"/>
<path d="M612 1V1729" stroke="#E6EAF0" stroke-width="0.75"/>
<path d="M648 1V1729" stroke="#E6EAF0" stroke-width="0.75"/>
<path d="M684 1V1729" stroke="#E6EAF0" stroke-width="0.75"/>
<path d="M720 1V1729" stroke="#E6EAF0" stroke-width="0.75"/>
</g>
<rect x="-180" y="1" width="344" height="241" fill="url(#paint1_linear_180_12971)"/>
<rect x="-183" width="902" height="275" fill="url(#paint2_linear_180_12971)"/>
<rect x="285" y="71" width="38" height="38" fill="#EEF1F6" stroke="#D9DDE4" stroke-width="2"/>
<rect x="282" y="68" width="7" height="7" fill="white" stroke="#D9DDE4" stroke-width="1.5"/>
<rect x="282" y="106" width="7" height="7" fill="white" stroke="#D9DDE4" stroke-width="1.5"/>
<rect x="319" y="68" width="7" height="7" fill="white" stroke="#D9DDE4" stroke-width="1.5"/>
<rect x="319" y="106" width="7" height="7" fill="white" stroke="#D9DDE4" stroke-width="1.5"/>
</g>
<defs>
<linearGradient id="paint0_linear_180_12971" x1="266" y1="250" x2="266" y2="0" gradientUnits="userSpaceOnUse">
<stop stop-color="white"/>
<stop offset="1" stop-color="white" stop-opacity="0"/>
</linearGradient>
<linearGradient id="paint1_linear_180_12971" x1="-180" y1="115.96" x2="159.244" y2="201.739" gradientUnits="userSpaceOnUse">
<stop stop-color="white"/>
<stop offset="0.409733" stop-color="white"/>
<stop offset="1" stop-color="white" stop-opacity="0"/>
</linearGradient>
<linearGradient id="paint2_linear_180_12971" x1="268" y1="275" x2="268" y2="0" gradientUnits="userSpaceOnUse">
<stop stop-color="white"/>
<stop offset="1" stop-color="white" stop-opacity="0"/>
</linearGradient>
<clipPath id="clip0_180_12971">
<rect width="720" height="238" fill="white"/>
</clipPath>
<clipPath id="clip1_180_12971">
<rect width="902" height="251" fill="white" transform="translate(-181)"/>
</clipPath>
</defs>
</svg>
