<svg width="173" height="154" viewBox="0 0 173 154" fill="none" xmlns="http://www.w3.org/2000/svg">
<g filter="url(#filter0_dddd_180_31893d)">
<path d="M82.6447 6.04228L24.4443 37.381C22.1132 38.6362 22.1172 41.9814 24.4513 43.231L82.6615 74.3959C85.0204 75.6588 87.8546 75.6588 90.2135 74.3959L148.424 43.231C150.758 41.9814 150.762 38.6362 148.431 37.381L90.2303 6.04228C87.8625 4.7673 85.0125 4.7673 82.6447 6.04228Z" fill="#2C3344"/>
<path d="M82.6447 6.04228L24.4443 37.381C22.1132 38.6362 22.1172 41.9814 24.4513 43.231L82.6615 74.3959C85.0204 75.6588 87.8546 75.6588 90.2135 74.3959L148.424 43.231C150.758 41.9814 150.762 38.6362 148.431 37.381L90.2303 6.04228C87.8625 4.7673 85.0125 4.7673 82.6447 6.04228Z" stroke="url(#paint0_linear_180_31893d)" stroke-width="1.15278" stroke-linecap="round" stroke-linejoin="round"/>
</g>
<defs>
<filter id="filter0_dddd_180_31893d" x="0.0135212" y="0.71977" width="172.848" height="152.895" filterUnits="userSpaceOnUse" color-interpolation-filters="sRGB">
<feFlood flood-opacity="0" result="BackgroundImageFix"/>
<feColorMatrix in="SourceAlpha" type="matrix" values="0 0 0 0 0 0 0 0 0 0 0 0 0 0 0 0 0 0 127 0" result="hardAlpha"/>
<feOffset dy="3.79"/>
<feGaussianBlur stdDeviation="3.79"/>
<feColorMatrix type="matrix" values="0 0 0 0 0 0 0 0 0 0 0 0 0 0 0 0 0 0 0.3 0"/>
<feBlend mode="normal" in2="BackgroundImageFix" result="effect1_dropShadow_180_31893d"/>
<feColorMatrix in="SourceAlpha" type="matrix" values="0 0 0 0 0 0 0 0 0 0 0 0 0 0 0 0 0 0 127 0" result="hardAlpha"/>
<feOffset dy="13.8967"/>
<feGaussianBlur stdDeviation="6.94833"/>
<feColorMatrix type="matrix" values="0 0 0 0 0 0 0 0 0 0 0 0 0 0 0 0 0 0 0.2 0"/>
<feBlend mode="normal" in2="effect1_dropShadow_180_31893d" result="effect2_dropShadow_180_31893d"/>
<feColorMatrix in="SourceAlpha" type="matrix" values="0 0 0 0 0 0 0 0 0 0 0 0 0 0 0 0 0 0 127 0" result="hardAlpha"/>
<feOffset dy="31.5833"/>
<feGaussianBlur stdDeviation="9.47499"/>
<feColorMatrix type="matrix" values="0 0 0 0 0 0 0 0 0 0 0 0 0 0 0 0 0 0 0.15 0"/>
<feBlend mode="normal" in2="effect2_dropShadow_180_31893d" result="effect3_dropShadow_180_31893d"/>
<feColorMatrix in="SourceAlpha" type="matrix" values="0 0 0 0 0 0 0 0 0 0 0 0 0 0 0 0 0 0 127 0" result="hardAlpha"/>
<feOffset dy="55.5866"/>
<feGaussianBlur stdDeviation="11.0542"/>
<feColorMatrix type="matrix" values="0 0 0 0 0 0 0 0 0 0 0 0 0 0 0 0 0 0 0.15 0"/>
<feBlend mode="normal" in2="effect3_dropShadow_180_31893d" result="effect4_dropShadow_180_31893d"/>
<feBlend mode="normal" in="SourceGraphic" in2="effect4_dropShadow_180_31893d" result="shape"/>
</filter>
<linearGradient id="paint0_linear_180_31893d" x1="86.4375" y1="4" x2="86.4375" y2="76.4175" gradientUnits="userSpaceOnUse">
<stop stop-color="#3F4555"/>
<stop offset="1" stop-color="#2C3344"/>
</linearGradient>
</defs>
</svg>
