<svg width="173" height="154" viewBox="0 0 173 154" fill="none" xmlns="http://www.w3.org/2000/svg">
<g filter="url(#filter0_dddd_180_31892)">
<path d="M82.6447 6.04228L24.4443 37.381C22.1132 38.6362 22.1172 41.9814 24.4513 43.231L82.6615 74.3959C85.0204 75.6588 87.8546 75.6588 90.2135 74.3959L148.457 43.2134C150.777 41.9713 150.781 38.6463 148.464 37.3986L90.2303 6.04228C87.8625 4.7673 85.0125 4.7673 82.6447 6.04228Z" fill="#F6F8FA"/>
<path d="M82.6447 6.04228L24.4443 37.381C22.1132 38.6362 22.1172 41.9814 24.4513 43.231L82.6615 74.3959C85.0204 75.6588 87.8546 75.6588 90.2135 74.3959L148.457 43.2134C150.777 41.9713 150.781 38.6463 148.464 37.3986L90.2303 6.04228C87.8625 4.7673 85.0125 4.7673 82.6447 6.04228Z" stroke="url(#paint0_linear_180_31892)" stroke-width="1.15278" stroke-linecap="round" stroke-linejoin="round"/>
</g>
<defs>
<filter id="filter0_dddd_180_31892" x="0.0135212" y="0.71977" width="172.87" height="152.895" filterUnits="userSpaceOnUse" color-interpolation-filters="sRGB">
<feFlood flood-opacity="0" result="BackgroundImageFix"/>
<feColorMatrix in="SourceAlpha" type="matrix" values="0 0 0 0 0 0 0 0 0 0 0 0 0 0 0 0 0 0 127 0" result="hardAlpha"/>
<feOffset dy="3.79"/>
<feGaussianBlur stdDeviation="3.79"/>
<feColorMatrix type="matrix" values="0 0 0 0 0.0117647 0 0 0 0 0.00784314 0 0 0 0 0.0509804 0 0 0 0.03 0"/>
<feBlend mode="normal" in2="BackgroundImageFix" result="effect1_dropShadow_180_31892"/>
<feColorMatrix in="SourceAlpha" type="matrix" values="0 0 0 0 0 0 0 0 0 0 0 0 0 0 0 0 0 0 127 0" result="hardAlpha"/>
<feOffset dy="13.8967"/>
<feGaussianBlur stdDeviation="6.94833"/>
<feColorMatrix type="matrix" values="0 0 0 0 0.0117647 0 0 0 0 0.00784314 0 0 0 0 0.0509804 0 0 0 0.02 0"/>
<feBlend mode="normal" in2="effect1_dropShadow_180_31892" result="effect2_dropShadow_180_31892"/>
<feColorMatrix in="SourceAlpha" type="matrix" values="0 0 0 0 0 0 0 0 0 0 0 0 0 0 0 0 0 0 127 0" result="hardAlpha"/>
<feOffset dy="31.5833"/>
<feGaussianBlur stdDeviation="9.47499"/>
<feColorMatrix type="matrix" values="0 0 0 0 0.0117647 0 0 0 0 0.00784314 0 0 0 0 0.0509804 0 0 0 0.01 0"/>
<feBlend mode="normal" in2="effect2_dropShadow_180_31892" result="effect3_dropShadow_180_31892"/>
<feColorMatrix in="SourceAlpha" type="matrix" values="0 0 0 0 0 0 0 0 0 0 0 0 0 0 0 0 0 0 127 0" result="hardAlpha"/>
<feOffset dy="55.5866"/>
<feGaussianBlur stdDeviation="11.0542"/>
<feColorMatrix type="matrix" values="0 0 0 0 0.0117647 0 0 0 0 0.00784314 0 0 0 0 0.0509804 0 0 0 0.01 0"/>
<feBlend mode="normal" in2="effect3_dropShadow_180_31892" result="effect4_dropShadow_180_31892"/>
<feBlend mode="normal" in="SourceGraphic" in2="effect4_dropShadow_180_31892" result="shape"/>
</filter>
<linearGradient id="paint0_linear_180_31892" x1="86.4375" y1="4" x2="86.4375" y2="76.4175" gradientUnits="userSpaceOnUse">
<stop stop-color="#EEF1F6"/>
<stop offset="1" stop-color="#C6CED9"/>
</linearGradient>
</defs>
</svg>
