<svg width="333" height="358" viewBox="0 0 333 358" fill="none" xmlns="http://www.w3.org/2000/svg">
<g opacity="0.5">
<ellipse cx="330.9" cy="14.0683" rx="1.11983" ry="1.11983" transform="rotate(90 330.9 14.0683)" fill="#89929F"/>
<ellipse cx="315.222" cy="14.0683" rx="1.11983" ry="1.11983" transform="rotate(90 315.222 14.0683)" fill="#89929F"/>
<ellipse cx="299.545" cy="14.0683" rx="1.11983" ry="1.11983" transform="rotate(90 299.545 14.0683)" fill="#89929F"/>
<ellipse cx="283.867" cy="14.0683" rx="1.11983" ry="1.11983" transform="rotate(90 283.867 14.0683)" fill="#89929F"/>
<ellipse cx="268.19" cy="14.0683" rx="1.11983" ry="1.11983" transform="rotate(90 268.19 14.0683)" fill="#89929F"/>
<ellipse cx="252.512" cy="14.0683" rx="1.11983" ry="1.11983" transform="rotate(90 252.512 14.0683)" fill="#89929F"/>
<ellipse cx="236.835" cy="14.0683" rx="1.11983" ry="1.11983" transform="rotate(90 236.835 14.0683)" fill="#89929F"/>
<ellipse cx="221.157" cy="14.0683" rx="1.11983" ry="1.11983" transform="rotate(90 221.157 14.0683)" fill="#89929F"/>
<ellipse cx="205.479" cy="14.0683" rx="1.11983" ry="1.11983" transform="rotate(90 205.479 14.0683)" fill="#89929F"/>
<ellipse cx="189.802" cy="14.0683" rx="1.11983" ry="1.11983" transform="rotate(90 189.802 14.0683)" fill="#89929F"/>
<ellipse cx="174.124" cy="14.0683" rx="1.11983" ry="1.11983" transform="rotate(90 174.124 14.0683)" fill="#89929F"/>
<ellipse cx="158.446" cy="14.0683" rx="1.11983" ry="1.11983" transform="rotate(90 158.446 14.0683)" fill="#89929F"/>
<ellipse cx="142.769" cy="14.0683" rx="1.11983" ry="1.11983" transform="rotate(90 142.769 14.0683)" fill="#89929F"/>
<ellipse cx="127.091" cy="14.0683" rx="1.11983" ry="1.11983" transform="rotate(90 127.091 14.0683)" fill="#89929F"/>
<ellipse cx="111.413" cy="14.0683" rx="1.11983" ry="1.11983" transform="rotate(90 111.413 14.0683)" fill="#89929F"/>
<ellipse cx="95.7359" cy="14.0683" rx="1.11983" ry="1.11983" transform="rotate(90 95.7359 14.0683)" fill="#89929F"/>
<ellipse cx="80.0582" cy="14.0683" rx="1.11983" ry="1.11983" transform="rotate(90 80.0582 14.0683)" fill="#89929F"/>
<ellipse cx="64.3807" cy="14.0683" rx="1.11983" ry="1.11983" transform="rotate(90 64.3807 14.0683)" fill="#89929F"/>
<ellipse cx="48.7029" cy="14.0683" rx="1.11983" ry="1.11983" transform="rotate(90 48.7029 14.0683)" fill="#89929F"/>
<ellipse cx="33.0254" cy="14.0683" rx="1.11983" ry="1.11983" transform="rotate(90 33.0254 14.0683)" fill="#89929F"/>
<ellipse cx="17.3477" cy="14.0683" rx="1.11983" ry="1.11983" transform="rotate(90 17.3477 14.0683)" fill="#89929F"/>
<ellipse cx="1.66996" cy="14.0683" rx="1.11983" ry="1.11983" transform="rotate(90 1.66996 14.0683)" fill="#89929F"/>
<ellipse cx="330.9" cy="29.7458" rx="1.11983" ry="1.11983" transform="rotate(90 330.9 29.7458)" fill="#89929F"/>
<ellipse cx="315.222" cy="29.7458" rx="1.11983" ry="1.11983" transform="rotate(90 315.222 29.7458)" fill="#89929F"/>
<ellipse cx="299.545" cy="29.7458" rx="1.11983" ry="1.11983" transform="rotate(90 299.545 29.7458)" fill="#89929F"/>
<ellipse cx="283.867" cy="29.7458" rx="1.11983" ry="1.11983" transform="rotate(90 283.867 29.7458)" fill="#89929F"/>
<ellipse cx="268.19" cy="29.7458" rx="1.11983" ry="1.11983" transform="rotate(90 268.19 29.7458)" fill="#89929F"/>
<ellipse cx="252.512" cy="29.7458" rx="1.11983" ry="1.11983" transform="rotate(90 252.512 29.7458)" fill="#89929F"/>
<ellipse cx="236.835" cy="29.7458" rx="1.11983" ry="1.11983" transform="rotate(90 236.835 29.7458)" fill="#89929F"/>
<ellipse cx="221.157" cy="29.7458" rx="1.11983" ry="1.11983" transform="rotate(90 221.157 29.7458)" fill="#89929F"/>
<ellipse cx="205.479" cy="29.7458" rx="1.11983" ry="1.11983" transform="rotate(90 205.479 29.7458)" fill="#89929F"/>
<ellipse cx="189.802" cy="29.7458" rx="1.11983" ry="1.11983" transform="rotate(90 189.802 29.7458)" fill="#89929F"/>
<ellipse cx="174.124" cy="29.7458" rx="1.11983" ry="1.11983" transform="rotate(90 174.124 29.7458)" fill="#89929F"/>
<ellipse cx="158.446" cy="29.7458" rx="1.11983" ry="1.11983" transform="rotate(90 158.446 29.7458)" fill="#89929F"/>
<ellipse cx="142.769" cy="29.7458" rx="1.11983" ry="1.11983" transform="rotate(90 142.769 29.7458)" fill="#89929F"/>
<ellipse cx="127.091" cy="29.7458" rx="1.11983" ry="1.11983" transform="rotate(90 127.091 29.7458)" fill="#89929F"/>
<ellipse cx="111.413" cy="29.7458" rx="1.11983" ry="1.11983" transform="rotate(90 111.413 29.7458)" fill="#89929F"/>
<ellipse cx="95.7359" cy="29.7458" rx="1.11983" ry="1.11983" transform="rotate(90 95.7359 29.7458)" fill="#89929F"/>
<ellipse cx="80.0582" cy="29.7458" rx="1.11983" ry="1.11983" transform="rotate(90 80.0582 29.7458)" fill="#89929F"/>
<ellipse cx="64.3807" cy="29.7458" rx="1.11983" ry="1.11983" transform="rotate(90 64.3807 29.7458)" fill="#89929F"/>
<ellipse cx="48.7029" cy="29.7458" rx="1.11983" ry="1.11983" transform="rotate(90 48.7029 29.7458)" fill="#89929F"/>
<ellipse cx="33.0252" cy="29.7458" rx="1.11983" ry="1.11983" transform="rotate(90 33.0252 29.7458)" fill="#89929F"/>
<ellipse cx="17.3477" cy="29.7458" rx="1.11983" ry="1.11983" transform="rotate(90 17.3477 29.7458)" fill="#89929F"/>
<ellipse cx="1.66996" cy="29.7458" rx="1.11983" ry="1.11983" transform="rotate(90 1.66996 29.7458)" fill="#89929F"/>
<ellipse cx="330.9" cy="45.4235" rx="1.11983" ry="1.11983" transform="rotate(90 330.9 45.4235)" fill="#89929F"/>
<ellipse cx="315.222" cy="45.4235" rx="1.11983" ry="1.11983" transform="rotate(90 315.222 45.4235)" fill="#89929F"/>
<ellipse cx="299.545" cy="45.4235" rx="1.11983" ry="1.11983" transform="rotate(90 299.545 45.4235)" fill="#89929F"/>
<ellipse cx="283.867" cy="45.4235" rx="1.11983" ry="1.11983" transform="rotate(90 283.867 45.4235)" fill="#89929F"/>
<ellipse cx="268.19" cy="45.4235" rx="1.11983" ry="1.11983" transform="rotate(90 268.19 45.4235)" fill="#89929F"/>
<ellipse cx="252.512" cy="45.4235" rx="1.11983" ry="1.11983" transform="rotate(90 252.512 45.4235)" fill="#89929F"/>
<ellipse cx="236.835" cy="45.4235" rx="1.11983" ry="1.11983" transform="rotate(90 236.835 45.4235)" fill="#89929F"/>
<ellipse cx="221.157" cy="45.4235" rx="1.11983" ry="1.11983" transform="rotate(90 221.157 45.4235)" fill="#89929F"/>
<ellipse cx="205.479" cy="45.4235" rx="1.11983" ry="1.11983" transform="rotate(90 205.479 45.4235)" fill="#89929F"/>
<ellipse cx="189.802" cy="45.4235" rx="1.11983" ry="1.11983" transform="rotate(90 189.802 45.4235)" fill="#89929F"/>
<ellipse cx="174.124" cy="45.4235" rx="1.11983" ry="1.11983" transform="rotate(90 174.124 45.4235)" fill="#89929F"/>
<ellipse cx="158.446" cy="45.4235" rx="1.11983" ry="1.11983" transform="rotate(90 158.446 45.4235)" fill="#89929F"/>
<ellipse cx="142.769" cy="45.4235" rx="1.11983" ry="1.11983" transform="rotate(90 142.769 45.4235)" fill="#89929F"/>
<ellipse cx="127.091" cy="45.4235" rx="1.11983" ry="1.11983" transform="rotate(90 127.091 45.4235)" fill="#89929F"/>
<ellipse cx="111.413" cy="45.4235" rx="1.11983" ry="1.11983" transform="rotate(90 111.413 45.4235)" fill="#89929F"/>
<ellipse cx="95.7359" cy="45.4235" rx="1.11983" ry="1.11983" transform="rotate(90 95.7359 45.4235)" fill="#89929F"/>
<ellipse cx="80.0582" cy="45.4235" rx="1.11983" ry="1.11983" transform="rotate(90 80.0582 45.4235)" fill="#89929F"/>
<ellipse cx="64.3807" cy="45.4235" rx="1.11983" ry="1.11983" transform="rotate(90 64.3807 45.4235)" fill="#89929F"/>
<ellipse cx="48.7029" cy="45.4235" rx="1.11983" ry="1.11983" transform="rotate(90 48.7029 45.4235)" fill="#89929F"/>
<ellipse cx="33.0254" cy="45.4235" rx="1.11983" ry="1.11983" transform="rotate(90 33.0254 45.4235)" fill="#89929F"/>
<ellipse cx="17.3477" cy="45.4235" rx="1.11983" ry="1.11983" transform="rotate(90 17.3477 45.4235)" fill="#89929F"/>
<ellipse cx="1.67021" cy="45.4235" rx="1.11983" ry="1.11983" transform="rotate(90 1.67021 45.4235)" fill="#89929F"/>
<ellipse cx="330.9" cy="61.101" rx="1.11983" ry="1.11983" transform="rotate(90 330.9 61.101)" fill="#89929F"/>
<ellipse cx="315.222" cy="61.101" rx="1.11983" ry="1.11983" transform="rotate(90 315.222 61.101)" fill="#89929F"/>
<ellipse cx="299.545" cy="61.101" rx="1.11983" ry="1.11983" transform="rotate(90 299.545 61.101)" fill="#89929F"/>
<ellipse cx="283.867" cy="61.101" rx="1.11983" ry="1.11983" transform="rotate(90 283.867 61.101)" fill="#89929F"/>
<ellipse cx="268.19" cy="61.101" rx="1.11983" ry="1.11983" transform="rotate(90 268.19 61.101)" fill="#89929F"/>
<ellipse cx="252.512" cy="61.101" rx="1.11983" ry="1.11983" transform="rotate(90 252.512 61.101)" fill="#89929F"/>
<ellipse cx="236.835" cy="61.101" rx="1.11983" ry="1.11983" transform="rotate(90 236.835 61.101)" fill="#89929F"/>
<ellipse cx="221.157" cy="61.101" rx="1.11983" ry="1.11983" transform="rotate(90 221.157 61.101)" fill="#89929F"/>
<ellipse cx="205.479" cy="61.101" rx="1.11983" ry="1.11983" transform="rotate(90 205.479 61.101)" fill="#89929F"/>
<ellipse cx="189.802" cy="61.101" rx="1.11983" ry="1.11983" transform="rotate(90 189.802 61.101)" fill="#89929F"/>
<ellipse cx="174.124" cy="61.101" rx="1.11983" ry="1.11983" transform="rotate(90 174.124 61.101)" fill="#89929F"/>
<ellipse cx="158.446" cy="61.101" rx="1.11983" ry="1.11983" transform="rotate(90 158.446 61.101)" fill="#89929F"/>
<ellipse cx="142.769" cy="61.101" rx="1.11983" ry="1.11983" transform="rotate(90 142.769 61.101)" fill="#89929F"/>
<ellipse cx="127.091" cy="61.101" rx="1.11983" ry="1.11983" transform="rotate(90 127.091 61.101)" fill="#89929F"/>
<ellipse cx="111.414" cy="61.101" rx="1.11983" ry="1.11983" transform="rotate(90 111.414 61.101)" fill="#89929F"/>
<ellipse cx="95.7359" cy="61.101" rx="1.11983" ry="1.11983" transform="rotate(90 95.7359 61.101)" fill="#89929F"/>
<ellipse cx="80.0584" cy="61.101" rx="1.11983" ry="1.11983" transform="rotate(90 80.0584 61.101)" fill="#89929F"/>
<ellipse cx="64.3807" cy="61.101" rx="1.11983" ry="1.11983" transform="rotate(90 64.3807 61.101)" fill="#89929F"/>
<ellipse cx="48.7029" cy="61.101" rx="1.11983" ry="1.11983" transform="rotate(90 48.7029 61.101)" fill="#89929F"/>
<ellipse cx="33.0254" cy="61.101" rx="1.11983" ry="1.11983" transform="rotate(90 33.0254 61.101)" fill="#89929F"/>
<ellipse cx="17.3477" cy="61.101" rx="1.11983" ry="1.11983" transform="rotate(90 17.3477 61.101)" fill="#89929F"/>
<ellipse cx="1.67021" cy="61.101" rx="1.11983" ry="1.11983" transform="rotate(90 1.67021 61.101)" fill="#89929F"/>
<ellipse cx="330.9" cy="76.779" rx="1.11983" ry="1.11983" transform="rotate(90 330.9 76.779)" fill="#89929F"/>
<ellipse cx="315.222" cy="76.779" rx="1.11983" ry="1.11983" transform="rotate(90 315.222 76.779)" fill="#89929F"/>
<ellipse cx="299.545" cy="76.779" rx="1.11983" ry="1.11983" transform="rotate(90 299.545 76.779)" fill="#89929F"/>
<ellipse cx="283.867" cy="76.779" rx="1.11983" ry="1.11983" transform="rotate(90 283.867 76.779)" fill="#89929F"/>
<ellipse cx="268.19" cy="76.779" rx="1.11983" ry="1.11983" transform="rotate(90 268.19 76.779)" fill="#89929F"/>
<ellipse cx="252.512" cy="76.779" rx="1.11983" ry="1.11983" transform="rotate(90 252.512 76.779)" fill="#89929F"/>
<ellipse cx="236.835" cy="76.779" rx="1.11983" ry="1.11983" transform="rotate(90 236.835 76.779)" fill="#89929F"/>
<ellipse cx="221.157" cy="76.779" rx="1.11983" ry="1.11983" transform="rotate(90 221.157 76.779)" fill="#89929F"/>
<ellipse cx="205.479" cy="76.779" rx="1.11983" ry="1.11983" transform="rotate(90 205.479 76.779)" fill="#89929F"/>
<ellipse cx="189.802" cy="76.779" rx="1.11983" ry="1.11983" transform="rotate(90 189.802 76.779)" fill="#89929F"/>
<ellipse cx="174.124" cy="76.779" rx="1.11983" ry="1.11983" transform="rotate(90 174.124 76.779)" fill="#89929F"/>
<ellipse cx="158.446" cy="76.779" rx="1.11983" ry="1.11983" transform="rotate(90 158.446 76.779)" fill="#89929F"/>
<ellipse cx="142.769" cy="76.779" rx="1.11983" ry="1.11983" transform="rotate(90 142.769 76.779)" fill="#89929F"/>
<ellipse cx="127.091" cy="76.779" rx="1.11983" ry="1.11983" transform="rotate(90 127.091 76.779)" fill="#89929F"/>
<ellipse cx="111.414" cy="76.779" rx="1.11983" ry="1.11983" transform="rotate(90 111.414 76.779)" fill="#89929F"/>
<ellipse cx="95.7359" cy="76.779" rx="1.11983" ry="1.11983" transform="rotate(90 95.7359 76.779)" fill="#89929F"/>
<ellipse cx="80.0582" cy="76.779" rx="1.11983" ry="1.11983" transform="rotate(90 80.0582 76.779)" fill="#89929F"/>
<ellipse cx="64.3807" cy="76.779" rx="1.11983" ry="1.11983" transform="rotate(90 64.3807 76.779)" fill="#89929F"/>
<ellipse cx="48.7029" cy="76.779" rx="1.11983" ry="1.11983" transform="rotate(90 48.7029 76.779)" fill="#89929F"/>
<ellipse cx="33.0254" cy="76.779" rx="1.11983" ry="1.11983" transform="rotate(90 33.0254 76.779)" fill="#89929F"/>
<ellipse cx="17.3477" cy="76.779" rx="1.11983" ry="1.11983" transform="rotate(90 17.3477 76.779)" fill="#89929F"/>
<ellipse cx="1.67021" cy="76.779" rx="1.11983" ry="1.11983" transform="rotate(90 1.67021 76.779)" fill="#89929F"/>
<ellipse cx="330.9" cy="92.4565" rx="1.11983" ry="1.11983" transform="rotate(90 330.9 92.4565)" fill="#89929F"/>
<ellipse cx="315.223" cy="92.4563" rx="1.11983" ry="1.11983" transform="rotate(90 315.223 92.4563)" fill="#89929F"/>
<ellipse cx="299.545" cy="92.4565" rx="1.11983" ry="1.11983" transform="rotate(90 299.545 92.4565)" fill="#89929F"/>
<ellipse cx="283.867" cy="92.4563" rx="1.11983" ry="1.11983" transform="rotate(90 283.867 92.4563)" fill="#89929F"/>
<ellipse cx="268.19" cy="92.4563" rx="1.11983" ry="1.11983" transform="rotate(90 268.19 92.4563)" fill="#89929F"/>
<ellipse cx="252.512" cy="92.4565" rx="1.11983" ry="1.11983" transform="rotate(90 252.512 92.4565)" fill="#89929F"/>
<ellipse cx="236.835" cy="92.4563" rx="1.11983" ry="1.11983" transform="rotate(90 236.835 92.4563)" fill="#89929F"/>
<ellipse cx="221.157" cy="92.4565" rx="1.11983" ry="1.11983" transform="rotate(90 221.157 92.4565)" fill="#89929F"/>
<ellipse cx="205.479" cy="92.4563" rx="1.11983" ry="1.11983" transform="rotate(90 205.479 92.4563)" fill="#89929F"/>
<ellipse cx="189.802" cy="92.4563" rx="1.11983" ry="1.11983" transform="rotate(90 189.802 92.4563)" fill="#89929F"/>
<ellipse cx="174.124" cy="92.4563" rx="1.11983" ry="1.11983" transform="rotate(90 174.124 92.4563)" fill="#89929F"/>
<ellipse cx="158.446" cy="92.4565" rx="1.11983" ry="1.11983" transform="rotate(90 158.446 92.4565)" fill="#89929F"/>
<ellipse cx="142.769" cy="92.4565" rx="1.11983" ry="1.11983" transform="rotate(90 142.769 92.4565)" fill="#89929F"/>
<ellipse cx="127.091" cy="92.4565" rx="1.11983" ry="1.11983" transform="rotate(90 127.091 92.4565)" fill="#89929F"/>
<ellipse cx="111.413" cy="92.4565" rx="1.11983" ry="1.11983" transform="rotate(90 111.413 92.4565)" fill="#89929F"/>
<ellipse cx="95.7359" cy="92.4565" rx="1.11983" ry="1.11983" transform="rotate(90 95.7359 92.4565)" fill="#89929F"/>
<ellipse cx="80.0584" cy="92.4563" rx="1.11983" ry="1.11983" transform="rotate(90 80.0584 92.4563)" fill="#89929F"/>
<ellipse cx="64.3807" cy="92.4565" rx="1.11983" ry="1.11983" transform="rotate(90 64.3807 92.4565)" fill="#89929F"/>
<ellipse cx="48.7029" cy="92.4565" rx="1.11983" ry="1.11983" transform="rotate(90 48.7029 92.4565)" fill="#89929F"/>
<ellipse cx="33.0252" cy="92.4565" rx="1.11983" ry="1.11983" transform="rotate(90 33.0252 92.4565)" fill="#89929F"/>
<ellipse cx="17.3477" cy="92.4565" rx="1.11983" ry="1.11983" transform="rotate(90 17.3477 92.4565)" fill="#89929F"/>
<ellipse cx="1.66996" cy="92.4565" rx="1.11983" ry="1.11983" transform="rotate(90 1.66996 92.4565)" fill="#89929F"/>
<ellipse cx="330.9" cy="108.134" rx="1.11983" ry="1.11983" transform="rotate(90 330.9 108.134)" fill="#89929F"/>
<ellipse cx="315.222" cy="108.134" rx="1.11983" ry="1.11983" transform="rotate(90 315.222 108.134)" fill="#89929F"/>
<ellipse cx="299.545" cy="108.134" rx="1.11983" ry="1.11983" transform="rotate(90 299.545 108.134)" fill="#89929F"/>
<ellipse cx="283.867" cy="108.134" rx="1.11983" ry="1.11983" transform="rotate(90 283.867 108.134)" fill="#89929F"/>
<ellipse cx="268.19" cy="108.134" rx="1.11983" ry="1.11983" transform="rotate(90 268.19 108.134)" fill="#89929F"/>
<ellipse cx="252.512" cy="108.134" rx="1.11983" ry="1.11983" transform="rotate(90 252.512 108.134)" fill="#89929F"/>
<ellipse cx="236.835" cy="108.134" rx="1.11983" ry="1.11983" transform="rotate(90 236.835 108.134)" fill="#89929F"/>
<ellipse cx="221.157" cy="108.134" rx="1.11983" ry="1.11983" transform="rotate(90 221.157 108.134)" fill="#89929F"/>
<ellipse cx="205.479" cy="108.134" rx="1.11983" ry="1.11983" transform="rotate(90 205.479 108.134)" fill="#89929F"/>
<ellipse cx="189.802" cy="108.134" rx="1.11983" ry="1.11983" transform="rotate(90 189.802 108.134)" fill="#89929F"/>
<ellipse cx="174.124" cy="108.134" rx="1.11983" ry="1.11983" transform="rotate(90 174.124 108.134)" fill="#89929F"/>
<ellipse cx="158.446" cy="108.134" rx="1.11983" ry="1.11983" transform="rotate(90 158.446 108.134)" fill="#89929F"/>
<ellipse cx="142.769" cy="108.134" rx="1.11983" ry="1.11983" transform="rotate(90 142.769 108.134)" fill="#89929F"/>
<ellipse cx="127.091" cy="108.134" rx="1.11983" ry="1.11983" transform="rotate(90 127.091 108.134)" fill="#89929F"/>
<ellipse cx="111.413" cy="108.134" rx="1.11983" ry="1.11983" transform="rotate(90 111.413 108.134)" fill="#89929F"/>
<ellipse cx="95.7359" cy="108.134" rx="1.11983" ry="1.11983" transform="rotate(90 95.7359 108.134)" fill="#89929F"/>
<ellipse cx="80.0582" cy="108.134" rx="1.11983" ry="1.11983" transform="rotate(90 80.0582 108.134)" fill="#89929F"/>
<ellipse cx="64.3807" cy="108.134" rx="1.11983" ry="1.11983" transform="rotate(90 64.3807 108.134)" fill="#89929F"/>
<ellipse cx="48.7029" cy="108.134" rx="1.11983" ry="1.11983" transform="rotate(90 48.7029 108.134)" fill="#89929F"/>
<ellipse cx="33.0252" cy="108.134" rx="1.11983" ry="1.11983" transform="rotate(90 33.0252 108.134)" fill="#89929F"/>
<ellipse cx="17.3477" cy="108.134" rx="1.11983" ry="1.11983" transform="rotate(90 17.3477 108.134)" fill="#89929F"/>
<ellipse cx="1.66996" cy="108.134" rx="1.11983" ry="1.11983" transform="rotate(90 1.66996 108.134)" fill="#89929F"/>
<ellipse cx="330.9" cy="123.812" rx="1.11983" ry="1.11983" transform="rotate(90 330.9 123.812)" fill="#89929F"/>
<ellipse cx="315.222" cy="123.812" rx="1.11983" ry="1.11983" transform="rotate(90 315.222 123.812)" fill="#89929F"/>
<ellipse cx="299.545" cy="123.812" rx="1.11983" ry="1.11983" transform="rotate(90 299.545 123.812)" fill="#89929F"/>
<ellipse cx="283.867" cy="123.812" rx="1.11983" ry="1.11983" transform="rotate(90 283.867 123.812)" fill="#89929F"/>
<ellipse cx="268.19" cy="123.812" rx="1.11983" ry="1.11983" transform="rotate(90 268.19 123.812)" fill="#89929F"/>
<ellipse cx="252.512" cy="123.812" rx="1.11983" ry="1.11983" transform="rotate(90 252.512 123.812)" fill="#89929F"/>
<ellipse cx="236.835" cy="123.812" rx="1.11983" ry="1.11983" transform="rotate(90 236.835 123.812)" fill="#89929F"/>
<ellipse cx="221.157" cy="123.812" rx="1.11983" ry="1.11983" transform="rotate(90 221.157 123.812)" fill="#89929F"/>
<ellipse cx="205.479" cy="123.812" rx="1.11983" ry="1.11983" transform="rotate(90 205.479 123.812)" fill="#89929F"/>
<ellipse cx="189.802" cy="123.812" rx="1.11983" ry="1.11983" transform="rotate(90 189.802 123.812)" fill="#89929F"/>
<ellipse cx="174.124" cy="123.812" rx="1.11983" ry="1.11983" transform="rotate(90 174.124 123.812)" fill="#89929F"/>
<ellipse cx="158.446" cy="123.812" rx="1.11983" ry="1.11983" transform="rotate(90 158.446 123.812)" fill="#89929F"/>
<ellipse cx="142.769" cy="123.812" rx="1.11983" ry="1.11983" transform="rotate(90 142.769 123.812)" fill="#89929F"/>
<ellipse cx="127.091" cy="123.812" rx="1.11983" ry="1.11983" transform="rotate(90 127.091 123.812)" fill="#89929F"/>
<ellipse cx="111.413" cy="123.812" rx="1.11983" ry="1.11983" transform="rotate(90 111.413 123.812)" fill="#89929F"/>
<ellipse cx="95.7359" cy="123.812" rx="1.11983" ry="1.11983" transform="rotate(90 95.7359 123.812)" fill="#89929F"/>
<ellipse cx="80.0582" cy="123.812" rx="1.11983" ry="1.11983" transform="rotate(90 80.0582 123.812)" fill="#89929F"/>
<ellipse cx="64.3807" cy="123.812" rx="1.11983" ry="1.11983" transform="rotate(90 64.3807 123.812)" fill="#89929F"/>
<ellipse cx="48.7029" cy="123.812" rx="1.11983" ry="1.11983" transform="rotate(90 48.7029 123.812)" fill="#89929F"/>
<ellipse cx="33.0254" cy="123.812" rx="1.11983" ry="1.11983" transform="rotate(90 33.0254 123.812)" fill="#89929F"/>
<ellipse cx="17.3477" cy="123.812" rx="1.11983" ry="1.11983" transform="rotate(90 17.3477 123.812)" fill="#89929F"/>
<ellipse cx="1.67021" cy="123.812" rx="1.11983" ry="1.11983" transform="rotate(90 1.67021 123.812)" fill="#89929F"/>
<ellipse cx="330.9" cy="139.489" rx="1.11983" ry="1.11983" transform="rotate(90 330.9 139.489)" fill="#89929F"/>
<ellipse cx="315.222" cy="139.489" rx="1.11983" ry="1.11983" transform="rotate(90 315.222 139.489)" fill="#89929F"/>
<ellipse cx="299.545" cy="139.489" rx="1.11983" ry="1.11983" transform="rotate(90 299.545 139.489)" fill="#89929F"/>
<ellipse cx="283.867" cy="139.489" rx="1.11983" ry="1.11983" transform="rotate(90 283.867 139.489)" fill="#89929F"/>
<ellipse cx="268.19" cy="139.489" rx="1.11983" ry="1.11983" transform="rotate(90 268.19 139.489)" fill="#89929F"/>
<ellipse cx="252.512" cy="139.489" rx="1.11983" ry="1.11983" transform="rotate(90 252.512 139.489)" fill="#89929F"/>
<ellipse cx="236.835" cy="139.489" rx="1.11983" ry="1.11983" transform="rotate(90 236.835 139.489)" fill="#89929F"/>
<ellipse cx="221.157" cy="139.489" rx="1.11983" ry="1.11983" transform="rotate(90 221.157 139.489)" fill="#89929F"/>
<ellipse cx="205.479" cy="139.489" rx="1.11983" ry="1.11983" transform="rotate(90 205.479 139.489)" fill="#89929F"/>
<ellipse cx="189.802" cy="139.489" rx="1.11983" ry="1.11983" transform="rotate(90 189.802 139.489)" fill="#89929F"/>
<ellipse cx="174.124" cy="139.489" rx="1.11983" ry="1.11983" transform="rotate(90 174.124 139.489)" fill="#89929F"/>
<ellipse cx="158.446" cy="139.489" rx="1.11983" ry="1.11983" transform="rotate(90 158.446 139.489)" fill="#89929F"/>
<ellipse cx="142.769" cy="139.489" rx="1.11983" ry="1.11983" transform="rotate(90 142.769 139.489)" fill="#89929F"/>
<ellipse cx="127.091" cy="139.489" rx="1.11983" ry="1.11983" transform="rotate(90 127.091 139.489)" fill="#89929F"/>
<ellipse cx="111.414" cy="139.489" rx="1.11983" ry="1.11983" transform="rotate(90 111.414 139.489)" fill="#89929F"/>
<ellipse cx="95.7359" cy="139.489" rx="1.11983" ry="1.11983" transform="rotate(90 95.7359 139.489)" fill="#89929F"/>
<ellipse cx="80.0582" cy="139.489" rx="1.11983" ry="1.11983" transform="rotate(90 80.0582 139.489)" fill="#89929F"/>
<ellipse cx="64.3807" cy="139.489" rx="1.11983" ry="1.11983" transform="rotate(90 64.3807 139.489)" fill="#89929F"/>
<ellipse cx="48.7029" cy="139.489" rx="1.11983" ry="1.11983" transform="rotate(90 48.7029 139.489)" fill="#89929F"/>
<ellipse cx="33.0254" cy="139.489" rx="1.11983" ry="1.11983" transform="rotate(90 33.0254 139.489)" fill="#89929F"/>
<ellipse cx="17.3477" cy="139.489" rx="1.11983" ry="1.11983" transform="rotate(90 17.3477 139.489)" fill="#89929F"/>
<ellipse cx="1.67021" cy="139.489" rx="1.11983" ry="1.11983" transform="rotate(90 1.67021 139.489)" fill="#89929F"/>
<ellipse cx="330.9" cy="155.167" rx="1.11983" ry="1.11983" transform="rotate(90 330.9 155.167)" fill="#89929F"/>
<ellipse cx="315.222" cy="155.167" rx="1.11983" ry="1.11983" transform="rotate(90 315.222 155.167)" fill="#89929F"/>
<ellipse cx="299.545" cy="155.167" rx="1.11983" ry="1.11983" transform="rotate(90 299.545 155.167)" fill="#89929F"/>
<ellipse cx="283.867" cy="155.167" rx="1.11983" ry="1.11983" transform="rotate(90 283.867 155.167)" fill="#89929F"/>
<ellipse cx="268.19" cy="155.167" rx="1.11983" ry="1.11983" transform="rotate(90 268.19 155.167)" fill="#89929F"/>
<ellipse cx="252.512" cy="155.167" rx="1.11983" ry="1.11983" transform="rotate(90 252.512 155.167)" fill="#89929F"/>
<ellipse cx="236.835" cy="155.167" rx="1.11983" ry="1.11983" transform="rotate(90 236.835 155.167)" fill="#89929F"/>
<ellipse cx="221.157" cy="155.167" rx="1.11983" ry="1.11983" transform="rotate(90 221.157 155.167)" fill="#89929F"/>
<ellipse cx="205.479" cy="155.167" rx="1.11983" ry="1.11983" transform="rotate(90 205.479 155.167)" fill="#89929F"/>
<ellipse cx="189.802" cy="155.167" rx="1.11983" ry="1.11983" transform="rotate(90 189.802 155.167)" fill="#89929F"/>
<ellipse cx="174.124" cy="155.167" rx="1.11983" ry="1.11983" transform="rotate(90 174.124 155.167)" fill="#89929F"/>
<ellipse cx="158.446" cy="155.167" rx="1.11983" ry="1.11983" transform="rotate(90 158.446 155.167)" fill="#89929F"/>
<ellipse cx="142.769" cy="155.167" rx="1.11983" ry="1.11983" transform="rotate(90 142.769 155.167)" fill="#89929F"/>
<ellipse cx="127.091" cy="155.167" rx="1.11983" ry="1.11983" transform="rotate(90 127.091 155.167)" fill="#89929F"/>
<ellipse cx="111.413" cy="155.167" rx="1.11983" ry="1.11983" transform="rotate(90 111.413 155.167)" fill="#89929F"/>
<ellipse cx="95.7359" cy="155.167" rx="1.11983" ry="1.11983" transform="rotate(90 95.7359 155.167)" fill="#89929F"/>
<ellipse cx="80.0582" cy="155.167" rx="1.11983" ry="1.11983" transform="rotate(90 80.0582 155.167)" fill="#89929F"/>
<ellipse cx="64.3807" cy="155.167" rx="1.11983" ry="1.11983" transform="rotate(90 64.3807 155.167)" fill="#89929F"/>
<ellipse cx="48.7029" cy="155.167" rx="1.11983" ry="1.11983" transform="rotate(90 48.7029 155.167)" fill="#89929F"/>
<ellipse cx="33.0254" cy="155.167" rx="1.11983" ry="1.11983" transform="rotate(90 33.0254 155.167)" fill="#89929F"/>
<ellipse cx="17.3477" cy="155.167" rx="1.11983" ry="1.11983" transform="rotate(90 17.3477 155.167)" fill="#89929F"/>
<ellipse cx="1.67021" cy="155.167" rx="1.11983" ry="1.11983" transform="rotate(90 1.67021 155.167)" fill="#89929F"/>
<ellipse cx="330.9" cy="170.845" rx="1.11983" ry="1.11983" transform="rotate(90 330.9 170.845)" fill="#89929F"/>
<ellipse cx="315.222" cy="170.845" rx="1.11983" ry="1.11983" transform="rotate(90 315.222 170.845)" fill="#89929F"/>
<ellipse cx="299.545" cy="170.845" rx="1.11983" ry="1.11983" transform="rotate(90 299.545 170.845)" fill="#89929F"/>
<ellipse cx="283.867" cy="170.845" rx="1.11983" ry="1.11983" transform="rotate(90 283.867 170.845)" fill="#89929F"/>
<ellipse cx="268.19" cy="170.845" rx="1.11983" ry="1.11983" transform="rotate(90 268.19 170.845)" fill="#89929F"/>
<ellipse cx="252.512" cy="170.845" rx="1.11983" ry="1.11983" transform="rotate(90 252.512 170.845)" fill="#89929F"/>
<ellipse cx="236.835" cy="170.845" rx="1.11983" ry="1.11983" transform="rotate(90 236.835 170.845)" fill="#89929F"/>
<ellipse cx="221.157" cy="170.845" rx="1.11983" ry="1.11983" transform="rotate(90 221.157 170.845)" fill="#89929F"/>
<ellipse cx="205.479" cy="170.845" rx="1.11983" ry="1.11983" transform="rotate(90 205.479 170.845)" fill="#89929F"/>
<ellipse cx="189.802" cy="170.845" rx="1.11983" ry="1.11983" transform="rotate(90 189.802 170.845)" fill="#89929F"/>
<ellipse cx="174.124" cy="170.845" rx="1.11983" ry="1.11983" transform="rotate(90 174.124 170.845)" fill="#89929F"/>
<ellipse cx="158.446" cy="170.845" rx="1.11983" ry="1.11983" transform="rotate(90 158.446 170.845)" fill="#89929F"/>
<ellipse cx="142.769" cy="170.845" rx="1.11983" ry="1.11983" transform="rotate(90 142.769 170.845)" fill="#89929F"/>
<ellipse cx="127.091" cy="170.845" rx="1.11983" ry="1.11983" transform="rotate(90 127.091 170.845)" fill="#89929F"/>
<ellipse cx="111.413" cy="170.845" rx="1.11983" ry="1.11983" transform="rotate(90 111.413 170.845)" fill="#89929F"/>
<ellipse cx="95.7359" cy="170.845" rx="1.11983" ry="1.11983" transform="rotate(90 95.7359 170.845)" fill="#89929F"/>
<ellipse cx="80.0582" cy="170.845" rx="1.11983" ry="1.11983" transform="rotate(90 80.0582 170.845)" fill="#89929F"/>
<ellipse cx="64.3804" cy="170.845" rx="1.11983" ry="1.11983" transform="rotate(90 64.3804 170.845)" fill="#89929F"/>
<ellipse cx="48.7029" cy="170.845" rx="1.11983" ry="1.11983" transform="rotate(90 48.7029 170.845)" fill="#89929F"/>
<ellipse cx="33.0252" cy="170.845" rx="1.11983" ry="1.11983" transform="rotate(90 33.0252 170.845)" fill="#89929F"/>
<ellipse cx="17.3477" cy="170.845" rx="1.11983" ry="1.11983" transform="rotate(90 17.3477 170.845)" fill="#89929F"/>
<ellipse cx="1.66996" cy="170.845" rx="1.11983" ry="1.11983" transform="rotate(90 1.66996 170.845)" fill="#89929F"/>
<ellipse cx="330.9" cy="186.522" rx="1.11983" ry="1.11983" transform="rotate(90 330.9 186.522)" fill="#89929F"/>
<ellipse cx="315.222" cy="186.522" rx="1.11983" ry="1.11983" transform="rotate(90 315.222 186.522)" fill="#89929F"/>
<ellipse cx="299.545" cy="186.522" rx="1.11983" ry="1.11983" transform="rotate(90 299.545 186.522)" fill="#89929F"/>
<ellipse cx="283.867" cy="186.522" rx="1.11983" ry="1.11983" transform="rotate(90 283.867 186.522)" fill="#89929F"/>
<ellipse cx="268.19" cy="186.522" rx="1.11983" ry="1.11983" transform="rotate(90 268.19 186.522)" fill="#89929F"/>
<ellipse cx="252.512" cy="186.522" rx="1.11983" ry="1.11983" transform="rotate(90 252.512 186.522)" fill="#89929F"/>
<ellipse cx="236.835" cy="186.522" rx="1.11983" ry="1.11983" transform="rotate(90 236.835 186.522)" fill="#89929F"/>
<ellipse cx="221.157" cy="186.522" rx="1.11983" ry="1.11983" transform="rotate(90 221.157 186.522)" fill="#89929F"/>
<ellipse cx="205.479" cy="186.522" rx="1.11983" ry="1.11983" transform="rotate(90 205.479 186.522)" fill="#89929F"/>
<ellipse cx="189.802" cy="186.522" rx="1.11983" ry="1.11983" transform="rotate(90 189.802 186.522)" fill="#89929F"/>
<ellipse cx="174.124" cy="186.522" rx="1.11983" ry="1.11983" transform="rotate(90 174.124 186.522)" fill="#89929F"/>
<ellipse cx="158.446" cy="186.522" rx="1.11983" ry="1.11983" transform="rotate(90 158.446 186.522)" fill="#89929F"/>
<ellipse cx="142.769" cy="186.522" rx="1.11983" ry="1.11983" transform="rotate(90 142.769 186.522)" fill="#89929F"/>
<ellipse cx="127.091" cy="186.522" rx="1.11983" ry="1.11983" transform="rotate(90 127.091 186.522)" fill="#89929F"/>
<ellipse cx="111.413" cy="186.522" rx="1.11983" ry="1.11983" transform="rotate(90 111.413 186.522)" fill="#89929F"/>
<ellipse cx="95.7359" cy="186.522" rx="1.11983" ry="1.11983" transform="rotate(90 95.7359 186.522)" fill="#89929F"/>
<ellipse cx="80.0582" cy="186.522" rx="1.11983" ry="1.11983" transform="rotate(90 80.0582 186.522)" fill="#89929F"/>
<ellipse cx="64.3807" cy="186.522" rx="1.11983" ry="1.11983" transform="rotate(90 64.3807 186.522)" fill="#89929F"/>
<ellipse cx="48.7029" cy="186.522" rx="1.11983" ry="1.11983" transform="rotate(90 48.7029 186.522)" fill="#89929F"/>
<ellipse cx="33.0254" cy="186.522" rx="1.11983" ry="1.11983" transform="rotate(90 33.0254 186.522)" fill="#89929F"/>
<ellipse cx="17.3477" cy="186.522" rx="1.11983" ry="1.11983" transform="rotate(90 17.3477 186.522)" fill="#89929F"/>
<ellipse cx="1.67021" cy="186.522" rx="1.11983" ry="1.11983" transform="rotate(90 1.67021 186.522)" fill="#89929F"/>
<ellipse cx="330.9" cy="202.2" rx="1.11983" ry="1.11983" transform="rotate(90 330.9 202.2)" fill="#89929F"/>
<ellipse cx="315.222" cy="202.2" rx="1.11983" ry="1.11983" transform="rotate(90 315.222 202.2)" fill="#89929F"/>
<ellipse cx="299.545" cy="202.2" rx="1.11983" ry="1.11983" transform="rotate(90 299.545 202.2)" fill="#89929F"/>
<ellipse cx="283.867" cy="202.2" rx="1.11983" ry="1.11983" transform="rotate(90 283.867 202.2)" fill="#89929F"/>
<ellipse cx="268.19" cy="202.2" rx="1.11983" ry="1.11983" transform="rotate(90 268.19 202.2)" fill="#89929F"/>
<ellipse cx="252.512" cy="202.2" rx="1.11983" ry="1.11983" transform="rotate(90 252.512 202.2)" fill="#89929F"/>
<ellipse cx="236.835" cy="202.2" rx="1.11983" ry="1.11983" transform="rotate(90 236.835 202.2)" fill="#89929F"/>
<ellipse cx="221.157" cy="202.2" rx="1.11983" ry="1.11983" transform="rotate(90 221.157 202.2)" fill="#89929F"/>
<ellipse cx="205.479" cy="202.2" rx="1.11983" ry="1.11983" transform="rotate(90 205.479 202.2)" fill="#89929F"/>
<ellipse cx="189.802" cy="202.2" rx="1.11983" ry="1.11983" transform="rotate(90 189.802 202.2)" fill="#89929F"/>
<ellipse cx="174.124" cy="202.2" rx="1.11983" ry="1.11983" transform="rotate(90 174.124 202.2)" fill="#89929F"/>
<ellipse cx="158.446" cy="202.2" rx="1.11983" ry="1.11983" transform="rotate(90 158.446 202.2)" fill="#89929F"/>
<ellipse cx="142.769" cy="202.2" rx="1.11983" ry="1.11983" transform="rotate(90 142.769 202.2)" fill="#89929F"/>
<ellipse cx="127.091" cy="202.2" rx="1.11983" ry="1.11983" transform="rotate(90 127.091 202.2)" fill="#89929F"/>
<ellipse cx="111.413" cy="202.2" rx="1.11983" ry="1.11983" transform="rotate(90 111.413 202.2)" fill="#89929F"/>
<ellipse cx="95.7359" cy="202.2" rx="1.11983" ry="1.11983" transform="rotate(90 95.7359 202.2)" fill="#89929F"/>
<ellipse cx="80.0584" cy="202.2" rx="1.11983" ry="1.11983" transform="rotate(90 80.0584 202.2)" fill="#89929F"/>
<ellipse cx="64.3807" cy="202.2" rx="1.11983" ry="1.11983" transform="rotate(90 64.3807 202.2)" fill="#89929F"/>
<ellipse cx="48.7029" cy="202.2" rx="1.11983" ry="1.11983" transform="rotate(90 48.7029 202.2)" fill="#89929F"/>
<ellipse cx="33.0254" cy="202.2" rx="1.11983" ry="1.11983" transform="rotate(90 33.0254 202.2)" fill="#89929F"/>
<ellipse cx="17.3479" cy="202.2" rx="1.11983" ry="1.11983" transform="rotate(90 17.3479 202.2)" fill="#89929F"/>
<ellipse cx="1.67021" cy="202.2" rx="1.11983" ry="1.11983" transform="rotate(90 1.67021 202.2)" fill="#89929F"/>
<ellipse cx="330.9" cy="217.878" rx="1.11983" ry="1.11983" transform="rotate(90 330.9 217.878)" fill="#89929F"/>
<ellipse cx="315.223" cy="217.878" rx="1.11983" ry="1.11983" transform="rotate(90 315.223 217.878)" fill="#89929F"/>
<ellipse cx="299.545" cy="217.878" rx="1.11983" ry="1.11983" transform="rotate(90 299.545 217.878)" fill="#89929F"/>
<ellipse cx="283.867" cy="217.878" rx="1.11983" ry="1.11983" transform="rotate(90 283.867 217.878)" fill="#89929F"/>
<ellipse cx="268.19" cy="217.878" rx="1.11983" ry="1.11983" transform="rotate(90 268.19 217.878)" fill="#89929F"/>
<ellipse cx="252.512" cy="217.878" rx="1.11983" ry="1.11983" transform="rotate(90 252.512 217.878)" fill="#89929F"/>
<ellipse cx="236.835" cy="217.878" rx="1.11983" ry="1.11983" transform="rotate(90 236.835 217.878)" fill="#89929F"/>
<ellipse cx="221.157" cy="217.878" rx="1.11983" ry="1.11983" transform="rotate(90 221.157 217.878)" fill="#89929F"/>
<ellipse cx="205.479" cy="217.878" rx="1.11983" ry="1.11983" transform="rotate(90 205.479 217.878)" fill="#89929F"/>
<ellipse cx="189.802" cy="217.878" rx="1.11983" ry="1.11983" transform="rotate(90 189.802 217.878)" fill="#89929F"/>
<ellipse cx="174.124" cy="217.878" rx="1.11983" ry="1.11983" transform="rotate(90 174.124 217.878)" fill="#89929F"/>
<ellipse cx="158.446" cy="217.878" rx="1.11983" ry="1.11983" transform="rotate(90 158.446 217.878)" fill="#89929F"/>
<ellipse cx="142.769" cy="217.878" rx="1.11983" ry="1.11983" transform="rotate(90 142.769 217.878)" fill="#89929F"/>
<ellipse cx="127.091" cy="217.878" rx="1.11983" ry="1.11983" transform="rotate(90 127.091 217.878)" fill="#89929F"/>
<ellipse cx="111.414" cy="217.878" rx="1.11983" ry="1.11983" transform="rotate(90 111.414 217.878)" fill="#89929F"/>
<ellipse cx="95.7359" cy="217.878" rx="1.11983" ry="1.11983" transform="rotate(90 95.7359 217.878)" fill="#89929F"/>
<ellipse cx="80.0582" cy="217.878" rx="1.11983" ry="1.11983" transform="rotate(90 80.0582 217.878)" fill="#89929F"/>
<ellipse cx="64.3807" cy="217.878" rx="1.11983" ry="1.11983" transform="rotate(90 64.3807 217.878)" fill="#89929F"/>
<ellipse cx="48.7029" cy="217.878" rx="1.11983" ry="1.11983" transform="rotate(90 48.7029 217.878)" fill="#89929F"/>
<ellipse cx="33.0254" cy="217.878" rx="1.11983" ry="1.11983" transform="rotate(90 33.0254 217.878)" fill="#89929F"/>
<ellipse cx="17.3477" cy="217.878" rx="1.11983" ry="1.11983" transform="rotate(90 17.3477 217.878)" fill="#89929F"/>
<ellipse cx="1.67021" cy="217.878" rx="1.11983" ry="1.11983" transform="rotate(90 1.67021 217.878)" fill="#89929F"/>
<ellipse cx="330.9" cy="233.555" rx="1.11983" ry="1.11983" transform="rotate(90 330.9 233.555)" fill="#89929F"/>
<ellipse cx="315.222" cy="233.555" rx="1.11983" ry="1.11983" transform="rotate(90 315.222 233.555)" fill="#89929F"/>
<ellipse cx="299.545" cy="233.555" rx="1.11983" ry="1.11983" transform="rotate(90 299.545 233.555)" fill="#89929F"/>
<ellipse cx="283.867" cy="233.555" rx="1.11983" ry="1.11983" transform="rotate(90 283.867 233.555)" fill="#89929F"/>
<ellipse cx="268.19" cy="233.555" rx="1.11983" ry="1.11983" transform="rotate(90 268.19 233.555)" fill="#89929F"/>
<ellipse cx="252.512" cy="233.555" rx="1.11983" ry="1.11983" transform="rotate(90 252.512 233.555)" fill="#89929F"/>
<ellipse cx="236.835" cy="233.555" rx="1.11983" ry="1.11983" transform="rotate(90 236.835 233.555)" fill="#89929F"/>
<ellipse cx="221.157" cy="233.555" rx="1.11983" ry="1.11983" transform="rotate(90 221.157 233.555)" fill="#89929F"/>
<ellipse cx="205.479" cy="233.555" rx="1.11983" ry="1.11983" transform="rotate(90 205.479 233.555)" fill="#89929F"/>
<ellipse cx="189.802" cy="233.555" rx="1.11983" ry="1.11983" transform="rotate(90 189.802 233.555)" fill="#89929F"/>
<ellipse cx="174.124" cy="233.555" rx="1.11983" ry="1.11983" transform="rotate(90 174.124 233.555)" fill="#89929F"/>
<ellipse cx="158.446" cy="233.555" rx="1.11983" ry="1.11983" transform="rotate(90 158.446 233.555)" fill="#89929F"/>
<ellipse cx="142.769" cy="233.555" rx="1.11983" ry="1.11983" transform="rotate(90 142.769 233.555)" fill="#89929F"/>
<ellipse cx="127.091" cy="233.555" rx="1.11983" ry="1.11983" transform="rotate(90 127.091 233.555)" fill="#89929F"/>
<ellipse cx="111.413" cy="233.555" rx="1.11983" ry="1.11983" transform="rotate(90 111.413 233.555)" fill="#89929F"/>
<ellipse cx="95.7359" cy="233.555" rx="1.11983" ry="1.11983" transform="rotate(90 95.7359 233.555)" fill="#89929F"/>
<ellipse cx="80.0582" cy="233.555" rx="1.11983" ry="1.11983" transform="rotate(90 80.0582 233.555)" fill="#89929F"/>
<ellipse cx="64.3804" cy="233.555" rx="1.11983" ry="1.11983" transform="rotate(90 64.3804 233.555)" fill="#89929F"/>
<ellipse cx="48.7029" cy="233.555" rx="1.11983" ry="1.11983" transform="rotate(90 48.7029 233.555)" fill="#89929F"/>
<ellipse cx="33.0254" cy="233.555" rx="1.11983" ry="1.11983" transform="rotate(90 33.0254 233.555)" fill="#89929F"/>
<ellipse cx="17.3477" cy="233.555" rx="1.11983" ry="1.11983" transform="rotate(90 17.3477 233.555)" fill="#89929F"/>
<ellipse cx="1.67021" cy="233.555" rx="1.11983" ry="1.11983" transform="rotate(90 1.67021 233.555)" fill="#89929F"/>
<ellipse cx="330.9" cy="249.233" rx="1.11983" ry="1.11983" transform="rotate(90 330.9 249.233)" fill="#89929F"/>
<ellipse cx="315.222" cy="249.233" rx="1.11983" ry="1.11983" transform="rotate(90 315.222 249.233)" fill="#89929F"/>
<ellipse cx="299.545" cy="249.233" rx="1.11983" ry="1.11983" transform="rotate(90 299.545 249.233)" fill="#89929F"/>
<ellipse cx="283.867" cy="249.233" rx="1.11983" ry="1.11983" transform="rotate(90 283.867 249.233)" fill="#89929F"/>
<ellipse cx="268.19" cy="249.233" rx="1.11983" ry="1.11983" transform="rotate(90 268.19 249.233)" fill="#89929F"/>
<ellipse cx="252.512" cy="249.233" rx="1.11983" ry="1.11983" transform="rotate(90 252.512 249.233)" fill="#89929F"/>
<ellipse cx="236.835" cy="249.233" rx="1.11983" ry="1.11983" transform="rotate(90 236.835 249.233)" fill="#89929F"/>
<ellipse cx="221.157" cy="249.233" rx="1.11983" ry="1.11983" transform="rotate(90 221.157 249.233)" fill="#89929F"/>
<ellipse cx="205.479" cy="249.233" rx="1.11983" ry="1.11983" transform="rotate(90 205.479 249.233)" fill="#89929F"/>
<ellipse cx="189.802" cy="249.233" rx="1.11983" ry="1.11983" transform="rotate(90 189.802 249.233)" fill="#89929F"/>
<ellipse cx="174.124" cy="249.233" rx="1.11983" ry="1.11983" transform="rotate(90 174.124 249.233)" fill="#89929F"/>
<ellipse cx="158.446" cy="249.233" rx="1.11983" ry="1.11983" transform="rotate(90 158.446 249.233)" fill="#89929F"/>
<ellipse cx="142.769" cy="249.233" rx="1.11983" ry="1.11983" transform="rotate(90 142.769 249.233)" fill="#89929F"/>
<ellipse cx="127.091" cy="249.233" rx="1.11983" ry="1.11983" transform="rotate(90 127.091 249.233)" fill="#89929F"/>
<ellipse cx="111.413" cy="249.233" rx="1.11983" ry="1.11983" transform="rotate(90 111.413 249.233)" fill="#89929F"/>
<ellipse cx="95.7359" cy="249.233" rx="1.11983" ry="1.11983" transform="rotate(90 95.7359 249.233)" fill="#89929F"/>
<ellipse cx="80.0582" cy="249.233" rx="1.11983" ry="1.11983" transform="rotate(90 80.0582 249.233)" fill="#89929F"/>
<ellipse cx="64.3807" cy="249.233" rx="1.11983" ry="1.11983" transform="rotate(90 64.3807 249.233)" fill="#89929F"/>
<ellipse cx="48.7029" cy="249.233" rx="1.11983" ry="1.11983" transform="rotate(90 48.7029 249.233)" fill="#89929F"/>
<ellipse cx="33.0254" cy="249.233" rx="1.11983" ry="1.11983" transform="rotate(90 33.0254 249.233)" fill="#89929F"/>
<ellipse cx="17.3477" cy="249.233" rx="1.11983" ry="1.11983" transform="rotate(90 17.3477 249.233)" fill="#89929F"/>
<ellipse cx="1.66996" cy="249.233" rx="1.11983" ry="1.11983" transform="rotate(90 1.66996 249.233)" fill="#89929F"/>
<ellipse cx="330.9" cy="264.91" rx="1.11983" ry="1.11983" transform="rotate(90 330.9 264.91)" fill="#89929F"/>
<ellipse cx="315.222" cy="264.91" rx="1.11983" ry="1.11983" transform="rotate(90 315.222 264.91)" fill="#89929F"/>
<ellipse cx="299.545" cy="264.91" rx="1.11983" ry="1.11983" transform="rotate(90 299.545 264.91)" fill="#89929F"/>
<ellipse cx="283.867" cy="264.91" rx="1.11983" ry="1.11983" transform="rotate(90 283.867 264.91)" fill="#89929F"/>
<ellipse cx="268.19" cy="264.91" rx="1.11983" ry="1.11983" transform="rotate(90 268.19 264.91)" fill="#89929F"/>
<ellipse cx="252.512" cy="264.91" rx="1.11983" ry="1.11983" transform="rotate(90 252.512 264.91)" fill="#89929F"/>
<ellipse cx="236.835" cy="264.91" rx="1.11983" ry="1.11983" transform="rotate(90 236.835 264.91)" fill="#89929F"/>
<ellipse cx="221.157" cy="264.91" rx="1.11983" ry="1.11983" transform="rotate(90 221.157 264.91)" fill="#89929F"/>
<ellipse cx="205.479" cy="264.91" rx="1.11983" ry="1.11983" transform="rotate(90 205.479 264.91)" fill="#89929F"/>
<ellipse cx="189.802" cy="264.91" rx="1.11983" ry="1.11983" transform="rotate(90 189.802 264.91)" fill="#89929F"/>
<ellipse cx="174.124" cy="264.91" rx="1.11983" ry="1.11983" transform="rotate(90 174.124 264.91)" fill="#89929F"/>
<ellipse cx="158.446" cy="264.91" rx="1.11983" ry="1.11983" transform="rotate(90 158.446 264.91)" fill="#89929F"/>
<ellipse cx="142.769" cy="264.91" rx="1.11983" ry="1.11983" transform="rotate(90 142.769 264.91)" fill="#89929F"/>
<ellipse cx="127.091" cy="264.91" rx="1.11983" ry="1.11983" transform="rotate(90 127.091 264.91)" fill="#89929F"/>
<ellipse cx="111.413" cy="264.91" rx="1.11983" ry="1.11983" transform="rotate(90 111.413 264.91)" fill="#89929F"/>
<ellipse cx="95.7359" cy="264.91" rx="1.11983" ry="1.11983" transform="rotate(90 95.7359 264.91)" fill="#89929F"/>
<ellipse cx="80.0582" cy="264.91" rx="1.11983" ry="1.11983" transform="rotate(90 80.0582 264.91)" fill="#89929F"/>
<ellipse cx="64.3807" cy="264.91" rx="1.11983" ry="1.11983" transform="rotate(90 64.3807 264.91)" fill="#89929F"/>
<ellipse cx="48.7029" cy="264.91" rx="1.11983" ry="1.11983" transform="rotate(90 48.7029 264.91)" fill="#89929F"/>
<ellipse cx="33.0252" cy="264.91" rx="1.11983" ry="1.11983" transform="rotate(90 33.0252 264.91)" fill="#89929F"/>
<ellipse cx="17.3477" cy="264.91" rx="1.11983" ry="1.11983" transform="rotate(90 17.3477 264.91)" fill="#89929F"/>
<ellipse cx="1.66996" cy="264.91" rx="1.11983" ry="1.11983" transform="rotate(90 1.66996 264.91)" fill="#89929F"/>
<ellipse cx="330.9" cy="280.588" rx="1.11983" ry="1.11983" transform="rotate(90 330.9 280.588)" fill="#89929F"/>
<ellipse cx="315.222" cy="280.588" rx="1.11983" ry="1.11983" transform="rotate(90 315.222 280.588)" fill="#89929F"/>
<ellipse cx="299.545" cy="280.588" rx="1.11983" ry="1.11983" transform="rotate(90 299.545 280.588)" fill="#89929F"/>
<ellipse cx="283.867" cy="280.588" rx="1.11983" ry="1.11983" transform="rotate(90 283.867 280.588)" fill="#89929F"/>
<ellipse cx="268.19" cy="280.588" rx="1.11983" ry="1.11983" transform="rotate(90 268.19 280.588)" fill="#89929F"/>
<ellipse cx="252.512" cy="280.588" rx="1.11983" ry="1.11983" transform="rotate(90 252.512 280.588)" fill="#89929F"/>
<ellipse cx="236.835" cy="280.588" rx="1.11983" ry="1.11983" transform="rotate(90 236.835 280.588)" fill="#89929F"/>
<ellipse cx="221.157" cy="280.588" rx="1.11983" ry="1.11983" transform="rotate(90 221.157 280.588)" fill="#89929F"/>
<ellipse cx="205.479" cy="280.588" rx="1.11983" ry="1.11983" transform="rotate(90 205.479 280.588)" fill="#89929F"/>
<ellipse cx="189.802" cy="280.588" rx="1.11983" ry="1.11983" transform="rotate(90 189.802 280.588)" fill="#89929F"/>
<ellipse cx="174.124" cy="280.588" rx="1.11983" ry="1.11983" transform="rotate(90 174.124 280.588)" fill="#89929F"/>
<ellipse cx="158.446" cy="280.588" rx="1.11983" ry="1.11983" transform="rotate(90 158.446 280.588)" fill="#89929F"/>
<ellipse cx="142.769" cy="280.588" rx="1.11983" ry="1.11983" transform="rotate(90 142.769 280.588)" fill="#89929F"/>
<ellipse cx="127.091" cy="280.588" rx="1.11983" ry="1.11983" transform="rotate(90 127.091 280.588)" fill="#89929F"/>
<ellipse cx="111.413" cy="280.588" rx="1.11983" ry="1.11983" transform="rotate(90 111.413 280.588)" fill="#89929F"/>
<ellipse cx="95.7359" cy="280.588" rx="1.11983" ry="1.11983" transform="rotate(90 95.7359 280.588)" fill="#89929F"/>
<ellipse cx="80.0582" cy="280.588" rx="1.11983" ry="1.11983" transform="rotate(90 80.0582 280.588)" fill="#89929F"/>
<ellipse cx="64.3807" cy="280.588" rx="1.11983" ry="1.11983" transform="rotate(90 64.3807 280.588)" fill="#89929F"/>
<ellipse cx="48.7029" cy="280.588" rx="1.11983" ry="1.11983" transform="rotate(90 48.7029 280.588)" fill="#89929F"/>
<ellipse cx="33.0254" cy="280.588" rx="1.11983" ry="1.11983" transform="rotate(90 33.0254 280.588)" fill="#89929F"/>
<ellipse cx="17.3477" cy="280.588" rx="1.11983" ry="1.11983" transform="rotate(90 17.3477 280.588)" fill="#89929F"/>
<ellipse cx="1.67021" cy="280.588" rx="1.11983" ry="1.11983" transform="rotate(90 1.67021 280.588)" fill="#89929F"/>
<ellipse cx="330.9" cy="296.266" rx="1.11983" ry="1.11983" transform="rotate(90 330.9 296.266)" fill="#89929F"/>
<ellipse cx="315.222" cy="296.266" rx="1.11983" ry="1.11983" transform="rotate(90 315.222 296.266)" fill="#89929F"/>
<ellipse cx="299.545" cy="296.266" rx="1.11983" ry="1.11983" transform="rotate(90 299.545 296.266)" fill="#89929F"/>
<ellipse cx="283.867" cy="296.266" rx="1.11983" ry="1.11983" transform="rotate(90 283.867 296.266)" fill="#89929F"/>
<ellipse cx="268.19" cy="296.266" rx="1.11983" ry="1.11983" transform="rotate(90 268.19 296.266)" fill="#89929F"/>
<ellipse cx="252.512" cy="296.266" rx="1.11983" ry="1.11983" transform="rotate(90 252.512 296.266)" fill="#89929F"/>
<ellipse cx="236.835" cy="296.266" rx="1.11983" ry="1.11983" transform="rotate(90 236.835 296.266)" fill="#89929F"/>
<ellipse cx="221.157" cy="296.266" rx="1.11983" ry="1.11983" transform="rotate(90 221.157 296.266)" fill="#89929F"/>
<ellipse cx="205.479" cy="296.266" rx="1.11983" ry="1.11983" transform="rotate(90 205.479 296.266)" fill="#89929F"/>
<ellipse cx="189.802" cy="296.266" rx="1.11983" ry="1.11983" transform="rotate(90 189.802 296.266)" fill="#89929F"/>
<ellipse cx="174.124" cy="296.266" rx="1.11983" ry="1.11983" transform="rotate(90 174.124 296.266)" fill="#89929F"/>
<ellipse cx="158.446" cy="296.266" rx="1.11983" ry="1.11983" transform="rotate(90 158.446 296.266)" fill="#89929F"/>
<ellipse cx="142.769" cy="296.266" rx="1.11983" ry="1.11983" transform="rotate(90 142.769 296.266)" fill="#89929F"/>
<ellipse cx="127.091" cy="296.266" rx="1.11983" ry="1.11983" transform="rotate(90 127.091 296.266)" fill="#89929F"/>
<ellipse cx="111.414" cy="296.266" rx="1.11983" ry="1.11983" transform="rotate(90 111.414 296.266)" fill="#89929F"/>
<ellipse cx="95.7359" cy="296.266" rx="1.11983" ry="1.11983" transform="rotate(90 95.7359 296.266)" fill="#89929F"/>
<ellipse cx="80.0582" cy="296.266" rx="1.11983" ry="1.11983" transform="rotate(90 80.0582 296.266)" fill="#89929F"/>
<ellipse cx="64.3807" cy="296.266" rx="1.11983" ry="1.11983" transform="rotate(90 64.3807 296.266)" fill="#89929F"/>
<ellipse cx="48.7029" cy="296.266" rx="1.11983" ry="1.11983" transform="rotate(90 48.7029 296.266)" fill="#89929F"/>
<ellipse cx="33.0254" cy="296.266" rx="1.11983" ry="1.11983" transform="rotate(90 33.0254 296.266)" fill="#89929F"/>
<ellipse cx="17.3477" cy="296.266" rx="1.11983" ry="1.11983" transform="rotate(90 17.3477 296.266)" fill="#89929F"/>
<ellipse cx="1.67021" cy="296.266" rx="1.11983" ry="1.11983" transform="rotate(90 1.67021 296.266)" fill="#89929F"/>
<ellipse cx="330.9" cy="311.943" rx="1.11983" ry="1.11983" transform="rotate(90 330.9 311.943)" fill="#89929F"/>
<ellipse cx="315.222" cy="311.943" rx="1.11983" ry="1.11983" transform="rotate(90 315.222 311.943)" fill="#89929F"/>
<ellipse cx="299.545" cy="311.943" rx="1.11983" ry="1.11983" transform="rotate(90 299.545 311.943)" fill="#89929F"/>
<ellipse cx="283.867" cy="311.943" rx="1.11983" ry="1.11983" transform="rotate(90 283.867 311.943)" fill="#89929F"/>
<ellipse cx="268.19" cy="311.943" rx="1.11983" ry="1.11983" transform="rotate(90 268.19 311.943)" fill="#89929F"/>
<ellipse cx="252.512" cy="311.943" rx="1.11983" ry="1.11983" transform="rotate(90 252.512 311.943)" fill="#89929F"/>
<ellipse cx="236.835" cy="311.943" rx="1.11983" ry="1.11983" transform="rotate(90 236.835 311.943)" fill="#89929F"/>
<ellipse cx="221.157" cy="311.943" rx="1.11983" ry="1.11983" transform="rotate(90 221.157 311.943)" fill="#89929F"/>
<ellipse cx="205.479" cy="311.943" rx="1.11983" ry="1.11983" transform="rotate(90 205.479 311.943)" fill="#89929F"/>
<ellipse cx="189.802" cy="311.943" rx="1.11983" ry="1.11983" transform="rotate(90 189.802 311.943)" fill="#89929F"/>
<ellipse cx="174.124" cy="311.943" rx="1.11983" ry="1.11983" transform="rotate(90 174.124 311.943)" fill="#89929F"/>
<ellipse cx="158.446" cy="311.943" rx="1.11983" ry="1.11983" transform="rotate(90 158.446 311.943)" fill="#89929F"/>
<ellipse cx="142.769" cy="311.943" rx="1.11983" ry="1.11983" transform="rotate(90 142.769 311.943)" fill="#89929F"/>
<ellipse cx="127.091" cy="311.943" rx="1.11983" ry="1.11983" transform="rotate(90 127.091 311.943)" fill="#89929F"/>
<ellipse cx="111.413" cy="311.943" rx="1.11983" ry="1.11983" transform="rotate(90 111.413 311.943)" fill="#89929F"/>
<ellipse cx="95.7359" cy="311.943" rx="1.11983" ry="1.11983" transform="rotate(90 95.7359 311.943)" fill="#89929F"/>
<ellipse cx="80.0582" cy="311.943" rx="1.11983" ry="1.11983" transform="rotate(90 80.0582 311.943)" fill="#89929F"/>
<ellipse cx="64.3807" cy="311.943" rx="1.11983" ry="1.11983" transform="rotate(90 64.3807 311.943)" fill="#89929F"/>
<ellipse cx="48.7029" cy="311.943" rx="1.11983" ry="1.11983" transform="rotate(90 48.7029 311.943)" fill="#89929F"/>
<ellipse cx="33.0254" cy="311.943" rx="1.11983" ry="1.11983" transform="rotate(90 33.0254 311.943)" fill="#89929F"/>
<ellipse cx="17.3477" cy="311.943" rx="1.11983" ry="1.11983" transform="rotate(90 17.3477 311.943)" fill="#89929F"/>
<ellipse cx="1.67021" cy="311.943" rx="1.11983" ry="1.11983" transform="rotate(90 1.67021 311.943)" fill="#89929F"/>
<ellipse cx="330.9" cy="327.621" rx="1.11983" ry="1.11983" transform="rotate(90 330.9 327.621)" fill="#89929F"/>
<ellipse cx="315.222" cy="327.621" rx="1.11983" ry="1.11983" transform="rotate(90 315.222 327.621)" fill="#89929F"/>
<ellipse cx="299.545" cy="327.621" rx="1.11983" ry="1.11983" transform="rotate(90 299.545 327.621)" fill="#89929F"/>
<ellipse cx="283.867" cy="327.621" rx="1.11983" ry="1.11983" transform="rotate(90 283.867 327.621)" fill="#89929F"/>
<ellipse cx="268.19" cy="327.621" rx="1.11983" ry="1.11983" transform="rotate(90 268.19 327.621)" fill="#89929F"/>
<ellipse cx="252.512" cy="327.621" rx="1.11983" ry="1.11983" transform="rotate(90 252.512 327.621)" fill="#89929F"/>
<ellipse cx="236.835" cy="327.621" rx="1.11983" ry="1.11983" transform="rotate(90 236.835 327.621)" fill="#89929F"/>
<ellipse cx="221.157" cy="327.621" rx="1.11983" ry="1.11983" transform="rotate(90 221.157 327.621)" fill="#89929F"/>
<ellipse cx="205.479" cy="327.621" rx="1.11983" ry="1.11983" transform="rotate(90 205.479 327.621)" fill="#89929F"/>
<ellipse cx="189.802" cy="327.621" rx="1.11983" ry="1.11983" transform="rotate(90 189.802 327.621)" fill="#89929F"/>
<ellipse cx="174.124" cy="327.621" rx="1.11983" ry="1.11983" transform="rotate(90 174.124 327.621)" fill="#89929F"/>
<ellipse cx="158.446" cy="327.621" rx="1.11983" ry="1.11983" transform="rotate(90 158.446 327.621)" fill="#89929F"/>
<ellipse cx="142.769" cy="327.621" rx="1.11983" ry="1.11983" transform="rotate(90 142.769 327.621)" fill="#89929F"/>
<ellipse cx="127.091" cy="327.621" rx="1.11983" ry="1.11983" transform="rotate(90 127.091 327.621)" fill="#89929F"/>
<ellipse cx="111.413" cy="327.621" rx="1.11983" ry="1.11983" transform="rotate(90 111.413 327.621)" fill="#89929F"/>
<ellipse cx="95.7359" cy="327.621" rx="1.11983" ry="1.11983" transform="rotate(90 95.7359 327.621)" fill="#89929F"/>
<ellipse cx="80.0582" cy="327.621" rx="1.11983" ry="1.11983" transform="rotate(90 80.0582 327.621)" fill="#89929F"/>
<ellipse cx="64.3807" cy="327.621" rx="1.11983" ry="1.11983" transform="rotate(90 64.3807 327.621)" fill="#89929F"/>
<ellipse cx="48.7029" cy="327.621" rx="1.11983" ry="1.11983" transform="rotate(90 48.7029 327.621)" fill="#89929F"/>
<ellipse cx="33.0252" cy="327.621" rx="1.11983" ry="1.11983" transform="rotate(90 33.0252 327.621)" fill="#89929F"/>
<ellipse cx="17.3477" cy="327.621" rx="1.11983" ry="1.11983" transform="rotate(90 17.3477 327.621)" fill="#89929F"/>
<ellipse cx="1.66996" cy="327.621" rx="1.11983" ry="1.11983" transform="rotate(90 1.66996 327.621)" fill="#89929F"/>
<ellipse cx="330.9" cy="343.299" rx="1.11983" ry="1.11983" transform="rotate(90 330.9 343.299)" fill="#89929F"/>
<ellipse cx="315.222" cy="343.299" rx="1.11983" ry="1.11983" transform="rotate(90 315.222 343.299)" fill="#89929F"/>
<ellipse cx="299.545" cy="343.299" rx="1.11983" ry="1.11983" transform="rotate(90 299.545 343.299)" fill="#89929F"/>
<ellipse cx="283.867" cy="343.299" rx="1.11983" ry="1.11983" transform="rotate(90 283.867 343.299)" fill="#89929F"/>
<ellipse cx="268.19" cy="343.299" rx="1.11983" ry="1.11983" transform="rotate(90 268.19 343.299)" fill="#89929F"/>
<ellipse cx="252.512" cy="343.299" rx="1.11983" ry="1.11983" transform="rotate(90 252.512 343.299)" fill="#89929F"/>
<ellipse cx="236.835" cy="343.299" rx="1.11983" ry="1.11983" transform="rotate(90 236.835 343.299)" fill="#89929F"/>
<ellipse cx="221.157" cy="343.299" rx="1.11983" ry="1.11983" transform="rotate(90 221.157 343.299)" fill="#89929F"/>
<ellipse cx="205.479" cy="343.299" rx="1.11983" ry="1.11983" transform="rotate(90 205.479 343.299)" fill="#89929F"/>
<ellipse cx="189.802" cy="343.299" rx="1.11983" ry="1.11983" transform="rotate(90 189.802 343.299)" fill="#89929F"/>
<ellipse cx="174.124" cy="343.299" rx="1.11983" ry="1.11983" transform="rotate(90 174.124 343.299)" fill="#89929F"/>
<ellipse cx="158.446" cy="343.299" rx="1.11983" ry="1.11983" transform="rotate(90 158.446 343.299)" fill="#89929F"/>
<ellipse cx="142.769" cy="343.299" rx="1.11983" ry="1.11983" transform="rotate(90 142.769 343.299)" fill="#89929F"/>
<ellipse cx="127.091" cy="343.299" rx="1.11983" ry="1.11983" transform="rotate(90 127.091 343.299)" fill="#89929F"/>
<ellipse cx="111.414" cy="343.299" rx="1.11983" ry="1.11983" transform="rotate(90 111.414 343.299)" fill="#89929F"/>
<ellipse cx="95.7359" cy="343.299" rx="1.11983" ry="1.11983" transform="rotate(90 95.7359 343.299)" fill="#89929F"/>
<ellipse cx="80.0582" cy="343.299" rx="1.11983" ry="1.11983" transform="rotate(90 80.0582 343.299)" fill="#89929F"/>
<ellipse cx="64.3804" cy="343.299" rx="1.11983" ry="1.11983" transform="rotate(90 64.3804 343.299)" fill="#89929F"/>
<ellipse cx="48.7029" cy="343.299" rx="1.11983" ry="1.11983" transform="rotate(90 48.7029 343.299)" fill="#89929F"/>
<ellipse cx="33.0252" cy="343.299" rx="1.11983" ry="1.11983" transform="rotate(90 33.0252 343.299)" fill="#89929F"/>
<ellipse cx="17.3477" cy="343.299" rx="1.11983" ry="1.11983" transform="rotate(90 17.3477 343.299)" fill="#89929F"/>
<ellipse cx="1.66996" cy="343.299" rx="1.11983" ry="1.11983" transform="rotate(90 1.66996 343.299)" fill="#89929F"/>
<ellipse cx="330.9" cy="358.976" rx="1.11983" ry="1.11983" transform="rotate(90 330.9 358.976)" fill="#89929F"/>
<ellipse cx="315.222" cy="358.976" rx="1.11983" ry="1.11983" transform="rotate(90 315.222 358.976)" fill="#89929F"/>
<ellipse cx="299.545" cy="358.976" rx="1.11983" ry="1.11983" transform="rotate(90 299.545 358.976)" fill="#89929F"/>
<ellipse cx="283.867" cy="358.976" rx="1.11983" ry="1.11983" transform="rotate(90 283.867 358.976)" fill="#89929F"/>
<ellipse cx="268.19" cy="358.976" rx="1.11983" ry="1.11983" transform="rotate(90 268.19 358.976)" fill="#89929F"/>
<ellipse cx="252.512" cy="358.976" rx="1.11983" ry="1.11983" transform="rotate(90 252.512 358.976)" fill="#89929F"/>
<ellipse cx="236.835" cy="358.976" rx="1.11983" ry="1.11983" transform="rotate(90 236.835 358.976)" fill="#89929F"/>
<ellipse cx="221.157" cy="358.976" rx="1.11983" ry="1.11983" transform="rotate(90 221.157 358.976)" fill="#89929F"/>
<ellipse cx="205.479" cy="358.976" rx="1.11983" ry="1.11983" transform="rotate(90 205.479 358.976)" fill="#89929F"/>
<ellipse cx="189.802" cy="358.976" rx="1.11983" ry="1.11983" transform="rotate(90 189.802 358.976)" fill="#89929F"/>
<ellipse cx="174.124" cy="358.976" rx="1.11983" ry="1.11983" transform="rotate(90 174.124 358.976)" fill="#89929F"/>
<ellipse cx="158.446" cy="358.976" rx="1.11983" ry="1.11983" transform="rotate(90 158.446 358.976)" fill="#89929F"/>
<ellipse cx="142.769" cy="358.976" rx="1.11983" ry="1.11983" transform="rotate(90 142.769 358.976)" fill="#89929F"/>
<ellipse cx="127.091" cy="358.976" rx="1.11983" ry="1.11983" transform="rotate(90 127.091 358.976)" fill="#89929F"/>
<ellipse cx="111.413" cy="358.976" rx="1.11983" ry="1.11983" transform="rotate(90 111.413 358.976)" fill="#89929F"/>
<ellipse cx="95.7359" cy="358.976" rx="1.11983" ry="1.11983" transform="rotate(90 95.7359 358.976)" fill="#89929F"/>
<ellipse cx="80.0582" cy="358.976" rx="1.11983" ry="1.11983" transform="rotate(90 80.0582 358.976)" fill="#89929F"/>
<ellipse cx="64.3807" cy="358.976" rx="1.11983" ry="1.11983" transform="rotate(90 64.3807 358.976)" fill="#89929F"/>
<ellipse cx="48.7029" cy="358.976" rx="1.11983" ry="1.11983" transform="rotate(90 48.7029 358.976)" fill="#89929F"/>
<ellipse cx="33.0252" cy="358.976" rx="1.11983" ry="1.11983" transform="rotate(90 33.0252 358.976)" fill="#89929F"/>
<ellipse cx="17.3477" cy="358.976" rx="1.11983" ry="1.11983" transform="rotate(90 17.3477 358.976)" fill="#89929F"/>
<ellipse cx="1.67021" cy="358.976" rx="1.11983" ry="1.11983" transform="rotate(90 1.67021 358.976)" fill="#89929F"/>
</g>
</svg>
