<svg width="140" height="163" viewBox="0 0 140 163" fill="none" xmlns="http://www.w3.org/2000/svg">
<g filter="url(#filter0_ddddd_265_11228)">
<path fill-rule="evenodd" clip-rule="evenodd" d="M43.2653 5C31.5208 5 22 14.5208 22 26.2653V79.7347C22 91.4792 31.5208 101 43.2653 101H96.7347C108.479 101 118 91.4792 118 79.7347V26.2653C118 14.5208 108.479 5 96.7347 5H43.2653Z" fill="#512BD4"/>
</g>
<g clip-path="url(#clip0_265_11228)">
<path d="M103 17H37C35.3431 17 34 18.3431 34 20V86C34 87.6568 35.3431 89 37 89H103C104.657 89 106 87.6568 106 86V20C106 18.3431 104.657 17 103 17Z" fill="#512BD4"/>
<path d="M46.8322 63.0001C46.3232 63.0001 45.8904 62.8305 45.5341 62.4912C45.1777 62.1432 44.9995 61.73 44.9995 61.2515C44.9995 60.7643 45.1777 60.3468 45.5341 59.9988C45.8904 59.6508 46.3232 59.4768 46.8322 59.4768C47.3498 59.4768 47.7868 59.6508 48.1432 59.9988C48.508 60.3468 48.6904 60.7643 48.6904 61.2515C48.6904 61.73 48.508 62.1432 48.1432 62.4912C47.7868 62.8305 47.3498 63.0001 46.8322 63.0001Z" fill="white"/>
<path d="M96.0004 46.6361H90.7567V62.7129H87.7275V46.6361H82.4966V44H96.0004V46.6361Z" fill="white"/>
<path d="M81.4393 62.7129H71.1938V44H81.0321V46.6361H74.2231V51.934H80.4976V54.557H74.2231V60.0899H81.4393V62.7129Z" fill="white"/>
<path d="M67.184 62.7129H63.8749L55.1567 48.9588C54.9361 48.6108 54.7536 48.2497 54.6095 47.8757H54.533C54.6009 48.2759 54.6349 49.1328 54.6349 50.4464V62.7129H51.7075V44H55.233L63.6586 57.4278C64.0149 57.9847 64.244 58.3675 64.3459 58.5762H64.3967C64.3119 58.0804 64.2695 57.2409 64.2695 56.0576V44H67.184V62.7129Z" fill="white"/>
</g>
<defs>
<filter id="filter0_ddddd_265_11228" x="0" y="0" width="140" height="178" filterUnits="userSpaceOnUse" color-interpolation-filters="sRGB">
<feFlood flood-opacity="0" result="BackgroundImageFix"/>
<feColorMatrix in="SourceAlpha" type="matrix" values="0 0 0 0 0 0 0 0 0 0 0 0 0 0 0 0 0 0 127 0" result="hardAlpha"/>
<feOffset/>
<feColorMatrix type="matrix" values="0 0 0 0 0.0117647 0 0 0 0 0.00784314 0 0 0 0 0.0509804 0 0 0 0.1 0"/>
<feBlend mode="normal" in2="BackgroundImageFix" result="effect1_dropShadow_265_11228"/>
<feColorMatrix in="SourceAlpha" type="matrix" values="0 0 0 0 0 0 0 0 0 0 0 0 0 0 0 0 0 0 127 0" result="hardAlpha"/>
<feOffset dy="3"/>
<feGaussianBlur stdDeviation="4"/>
<feColorMatrix type="matrix" values="0 0 0 0 0.0117647 0 0 0 0 0.00784314 0 0 0 0 0.0509804 0 0 0 0.1 0"/>
<feBlend mode="normal" in2="effect1_dropShadow_265_11228" result="effect2_dropShadow_265_11228"/>
<feColorMatrix in="SourceAlpha" type="matrix" values="0 0 0 0 0 0 0 0 0 0 0 0 0 0 0 0 0 0 127 0" result="hardAlpha"/>
<feOffset dy="14"/>
<feGaussianBlur stdDeviation="7"/>
<feColorMatrix type="matrix" values="0 0 0 0 0.0117647 0 0 0 0 0.00784314 0 0 0 0 0.0509804 0 0 0 0.09 0"/>
<feBlend mode="normal" in2="effect2_dropShadow_265_11228" result="effect3_dropShadow_265_11228"/>
<feColorMatrix in="SourceAlpha" type="matrix" values="0 0 0 0 0 0 0 0 0 0 0 0 0 0 0 0 0 0 127 0" result="hardAlpha"/>
<feOffset dy="31"/>
<feGaussianBlur stdDeviation="9.5"/>
<feColorMatrix type="matrix" values="0 0 0 0 0.0117647 0 0 0 0 0.00784314 0 0 0 0 0.0509804 0 0 0 0.05 0"/>
<feBlend mode="normal" in2="effect3_dropShadow_265_11228" result="effect4_dropShadow_265_11228"/>
<feColorMatrix in="SourceAlpha" type="matrix" values="0 0 0 0 0 0 0 0 0 0 0 0 0 0 0 0 0 0 127 0" result="hardAlpha"/>
<feOffset dy="55"/>
<feGaussianBlur stdDeviation="11"/>
<feColorMatrix type="matrix" values="0 0 0 0 0.0117647 0 0 0 0 0.00784314 0 0 0 0 0.0509804 0 0 0 0.01 0"/>
<feBlend mode="normal" in2="effect4_dropShadow_265_11228" result="effect5_dropShadow_265_11228"/>
<feBlend mode="normal" in="SourceGraphic" in2="effect5_dropShadow_265_11228" result="shape"/>
</filter>
<clipPath id="clip0_265_11228">
<rect width="72" height="72" fill="white" transform="translate(34 17)"/>
</clipPath>
</defs>
</svg>
