<svg width="140" height="163" viewBox="0 0 140 163" fill="none" xmlns="http://www.w3.org/2000/svg">
<g filter="url(#filter0_ddddd_265_11236)">
<path fill-rule="evenodd" clip-rule="evenodd" d="M43.9318 5C32.1873 5 22.6665 14.5208 22.6665 26.2653V79.7347C22.6665 91.4792 32.1873 101 43.9318 101H97.4012C109.146 101 118.667 91.4792 118.667 79.7347V26.2653C118.667 14.5208 109.146 5 97.4012 5H43.9318Z" fill="#03020D"/>
</g>
<g clip-path="url(#clip0_265_11236)">
<path d="M68.6177 77.6176L76.0001 85H95.7081L78.473 67.7649" fill="#0D47A1"/>
<path fill-rule="evenodd" clip-rule="evenodd" d="M44 52.9974L53.8553 62.8527L95.708 21H76L44 52.9974ZM76.0001 50.5264H95.7081L78.473 67.7641L68.6177 57.9088L76.0001 50.5264Z" fill="#42A5F5" fill-opacity="0.8"/>
<path d="M58.7856 67.7694L68.6254 57.927L78.4652 67.7668L68.6254 77.6092L58.7856 67.7694Z" fill="#42A5F5"/>
<path d="M68.6255 77.6101L78.4653 67.7703L79.8388 69.1438L69.999 78.9836L68.6255 77.6101Z" fill="url(#paint0_linear_265_11236)"/>
<path d="M68.6177 77.6178L83.2403 72.5659L78.473 67.7625" fill="url(#paint1_linear_265_11236)"/>
</g>
<defs>
<filter id="filter0_ddddd_265_11236" x="0.666504" y="0" width="140" height="178" filterUnits="userSpaceOnUse" color-interpolation-filters="sRGB">
<feFlood flood-opacity="0" result="BackgroundImageFix"/>
<feColorMatrix in="SourceAlpha" type="matrix" values="0 0 0 0 0 0 0 0 0 0 0 0 0 0 0 0 0 0 127 0" result="hardAlpha"/>
<feOffset/>
<feColorMatrix type="matrix" values="0 0 0 0 0.0117647 0 0 0 0 0.00784314 0 0 0 0 0.0509804 0 0 0 0.1 0"/>
<feBlend mode="normal" in2="BackgroundImageFix" result="effect1_dropShadow_265_11236"/>
<feColorMatrix in="SourceAlpha" type="matrix" values="0 0 0 0 0 0 0 0 0 0 0 0 0 0 0 0 0 0 127 0" result="hardAlpha"/>
<feOffset dy="3"/>
<feGaussianBlur stdDeviation="4"/>
<feColorMatrix type="matrix" values="0 0 0 0 0.0117647 0 0 0 0 0.00784314 0 0 0 0 0.0509804 0 0 0 0.1 0"/>
<feBlend mode="normal" in2="effect1_dropShadow_265_11236" result="effect2_dropShadow_265_11236"/>
<feColorMatrix in="SourceAlpha" type="matrix" values="0 0 0 0 0 0 0 0 0 0 0 0 0 0 0 0 0 0 127 0" result="hardAlpha"/>
<feOffset dy="14"/>
<feGaussianBlur stdDeviation="7"/>
<feColorMatrix type="matrix" values="0 0 0 0 0.0117647 0 0 0 0 0.00784314 0 0 0 0 0.0509804 0 0 0 0.09 0"/>
<feBlend mode="normal" in2="effect2_dropShadow_265_11236" result="effect3_dropShadow_265_11236"/>
<feColorMatrix in="SourceAlpha" type="matrix" values="0 0 0 0 0 0 0 0 0 0 0 0 0 0 0 0 0 0 127 0" result="hardAlpha"/>
<feOffset dy="31"/>
<feGaussianBlur stdDeviation="9.5"/>
<feColorMatrix type="matrix" values="0 0 0 0 0.0117647 0 0 0 0 0.00784314 0 0 0 0 0.0509804 0 0 0 0.05 0"/>
<feBlend mode="normal" in2="effect3_dropShadow_265_11236" result="effect4_dropShadow_265_11236"/>
<feColorMatrix in="SourceAlpha" type="matrix" values="0 0 0 0 0 0 0 0 0 0 0 0 0 0 0 0 0 0 127 0" result="hardAlpha"/>
<feOffset dy="55"/>
<feGaussianBlur stdDeviation="11"/>
<feColorMatrix type="matrix" values="0 0 0 0 0.0117647 0 0 0 0 0.00784314 0 0 0 0 0.0509804 0 0 0 0.01 0"/>
<feBlend mode="normal" in2="effect4_dropShadow_265_11236" result="effect5_dropShadow_265_11236"/>
<feBlend mode="normal" in="SourceGraphic" in2="effect5_dropShadow_265_11236" result="shape"/>
</filter>
<linearGradient id="paint0_linear_265_11236" x1="72.8605" y1="73.3752" x2="74.2341" y2="74.7488" gradientUnits="userSpaceOnUse">
<stop offset="0.2" stop-opacity="0.15"/>
<stop offset="0.85" stop-color="#616161" stop-opacity="0.01"/>
</linearGradient>
<linearGradient id="paint1_linear_265_11236" x1="68.6212" y1="77.618" x2="83.2435" y2="77.618" gradientUnits="userSpaceOnUse">
<stop offset="0.2" stop-opacity="0.55"/>
<stop offset="0.85" stop-color="#616161" stop-opacity="0.01"/>
</linearGradient>
<clipPath id="clip0_265_11236">
<rect width="64" height="64" fill="white" transform="translate(38.6665 21)"/>
</clipPath>
</defs>
</svg>
