<svg width="140" height="163" viewBox="0 0 140 163" fill="none" xmlns="http://www.w3.org/2000/svg">
<g filter="url(#filter0_ddddd_265_11241)">
<path fill-rule="evenodd" clip-rule="evenodd" d="M43.2653 5C31.5208 5 22 14.5208 22 26.2653V79.7347C22 91.4792 31.5208 101 43.2653 101H96.7347C108.479 101 118 91.4792 118 79.7347V26.2653C118 14.5208 108.479 5 96.7347 5H43.2653Z" fill="#FAFAFB"/>
</g>
<path fill-rule="evenodd" clip-rule="evenodd" d="M45.6657 53.9725C45.541 53.9725 45.5099 53.879 45.5722 53.7856L46.0084 53.0065C46.0707 52.9131 46.1954 52.8196 46.32 52.8196H52.5521C52.6768 52.8196 52.7391 52.9131 52.7391 53.0377L52.6768 53.7856C52.6768 53.9102 52.5521 54.0037 52.4587 54.0037L45.6657 53.9725Z" fill="#00ACD7"/>
<path fill-rule="evenodd" clip-rule="evenodd" d="M38.1246 51.1068C38 51.1068 37.9688 51.0445 38.0312 50.951L38.6855 50.1097C38.7479 50.0162 38.9037 49.9539 39.0283 49.9539H53.2375C53.3622 49.9539 53.4245 50.0473 53.3933 50.1408L53.144 50.8887C53.1129 51.0133 52.9882 51.0756 52.8636 51.0756L38.1246 51.1068Z" fill="#00ACD7"/>
<path fill-rule="evenodd" clip-rule="evenodd" d="M42.8297 48.2396C42.7051 48.2396 42.6739 48.1773 42.7362 48.0838L43.3906 47.2425C43.4529 47.149 43.6087 47.0867 43.7334 47.0867H54.8577C54.9823 47.0867 55.0135 47.1802 54.9512 47.2736L54.4215 48.0838C54.3591 48.1773 54.2033 48.2708 54.1098 48.2708L42.8297 48.2396Z" fill="#00ACD7"/>
<path fill-rule="evenodd" clip-rule="evenodd" d="M78.0098 47.6791C76.0467 48.1776 74.7068 48.5516 72.7749 49.0501C72.3074 49.1748 72.2763 49.2059 71.8712 48.7385C71.4038 48.2088 71.061 47.866 70.4066 47.5544C68.4435 46.5884 66.5427 46.8689 64.7666 48.0218C62.6477 49.3929 61.557 51.4183 61.5882 53.9423C61.6194 56.4352 63.3332 58.4918 65.7949 58.8345C67.9138 59.115 69.69 58.3671 71.0922 56.7779C71.3726 56.4352 71.6219 56.0613 71.9335 55.625C70.8117 55.625 69.4095 55.625 65.9195 55.625C65.2652 55.625 65.1094 55.2199 65.3275 54.6902C65.7326 53.7242 66.4804 52.1039 66.9167 51.2937C67.0101 51.1067 67.2283 50.7951 67.6957 50.7951H79.0381C78.9758 51.6365 78.9758 52.4778 78.8512 53.3191C78.5084 55.5627 77.6671 57.6193 76.296 59.4266C74.0524 62.3869 71.1233 64.2253 67.4152 64.7239C64.3615 65.129 61.5259 64.5369 59.033 62.6673C56.7272 60.9223 55.4184 58.6164 55.0756 55.7496C54.6706 52.3531 55.6677 49.2994 57.7243 46.6196C59.9367 43.7217 62.8658 41.8832 66.4493 41.2288C69.3783 40.6991 72.1828 41.0419 74.7068 42.7557C76.3583 43.8463 77.5424 45.342 78.3214 47.1493C78.5084 47.4298 78.3838 47.5856 78.0098 47.6791Z" fill="#00ACD7"/>
<path fill-rule="evenodd" clip-rule="evenodd" d="M88.3242 64.9106C85.4886 64.8483 82.9022 64.0381 80.721 62.1685C78.8825 60.5793 77.7296 58.5539 77.3557 56.1545C76.7948 52.6334 77.7607 49.5173 79.8797 46.744C82.1544 43.7526 84.8965 42.1946 88.6046 41.5402C91.783 40.9793 94.7744 41.2909 97.4854 43.1294C99.9471 44.8121 101.474 47.0868 101.879 50.0782C102.409 54.2849 101.193 57.7126 98.2956 60.6416C96.239 62.7294 93.715 64.0381 90.817 64.6302C89.9757 64.786 89.1344 64.8172 88.3242 64.9106ZM95.7401 52.3222C95.709 51.9171 95.709 51.6055 95.6466 51.2939C95.0857 48.209 92.2501 46.464 89.2899 47.1495C86.3919 47.8039 84.5223 49.6424 83.8368 52.5715C83.2759 55.002 84.46 57.4637 86.7035 58.4608C88.4174 59.2087 90.1312 59.1152 91.7827 58.2739C94.2444 56.9963 95.5843 55.002 95.7401 52.3222Z" fill="#00ACD7"/>
<defs>
<filter id="filter0_ddddd_265_11241" x="0" y="0" width="140" height="178" filterUnits="userSpaceOnUse" color-interpolation-filters="sRGB">
<feFlood flood-opacity="0" result="BackgroundImageFix"/>
<feColorMatrix in="SourceAlpha" type="matrix" values="0 0 0 0 0 0 0 0 0 0 0 0 0 0 0 0 0 0 127 0" result="hardAlpha"/>
<feOffset/>
<feColorMatrix type="matrix" values="0 0 0 0 0.0117647 0 0 0 0 0.00784314 0 0 0 0 0.0509804 0 0 0 0.1 0"/>
<feBlend mode="normal" in2="BackgroundImageFix" result="effect1_dropShadow_265_11241"/>
<feColorMatrix in="SourceAlpha" type="matrix" values="0 0 0 0 0 0 0 0 0 0 0 0 0 0 0 0 0 0 127 0" result="hardAlpha"/>
<feOffset dy="3"/>
<feGaussianBlur stdDeviation="4"/>
<feColorMatrix type="matrix" values="0 0 0 0 0.0117647 0 0 0 0 0.00784314 0 0 0 0 0.0509804 0 0 0 0.1 0"/>
<feBlend mode="normal" in2="effect1_dropShadow_265_11241" result="effect2_dropShadow_265_11241"/>
<feColorMatrix in="SourceAlpha" type="matrix" values="0 0 0 0 0 0 0 0 0 0 0 0 0 0 0 0 0 0 127 0" result="hardAlpha"/>
<feOffset dy="14"/>
<feGaussianBlur stdDeviation="7"/>
<feColorMatrix type="matrix" values="0 0 0 0 0.0117647 0 0 0 0 0.00784314 0 0 0 0 0.0509804 0 0 0 0.09 0"/>
<feBlend mode="normal" in2="effect2_dropShadow_265_11241" result="effect3_dropShadow_265_11241"/>
<feColorMatrix in="SourceAlpha" type="matrix" values="0 0 0 0 0 0 0 0 0 0 0 0 0 0 0 0 0 0 127 0" result="hardAlpha"/>
<feOffset dy="31"/>
<feGaussianBlur stdDeviation="9.5"/>
<feColorMatrix type="matrix" values="0 0 0 0 0.0117647 0 0 0 0 0.00784314 0 0 0 0 0.0509804 0 0 0 0.05 0"/>
<feBlend mode="normal" in2="effect3_dropShadow_265_11241" result="effect4_dropShadow_265_11241"/>
<feColorMatrix in="SourceAlpha" type="matrix" values="0 0 0 0 0 0 0 0 0 0 0 0 0 0 0 0 0 0 127 0" result="hardAlpha"/>
<feOffset dy="55"/>
<feGaussianBlur stdDeviation="11"/>
<feColorMatrix type="matrix" values="0 0 0 0 0.0117647 0 0 0 0 0.00784314 0 0 0 0 0.0509804 0 0 0 0.01 0"/>
<feBlend mode="normal" in2="effect4_dropShadow_265_11241" result="effect5_dropShadow_265_11241"/>
<feBlend mode="normal" in="SourceGraphic" in2="effect5_dropShadow_265_11241" result="shape"/>
</filter>
</defs>
</svg>
