<svg width="140" height="163" viewBox="0 0 140 163" fill="none" xmlns="http://www.w3.org/2000/svg">
<g filter="url(#filter0_ddddd_265_11217)">
<path fill-rule="evenodd" clip-rule="evenodd" d="M43.9318 5C32.1873 5 22.6665 14.5208 22.6665 26.2653V79.7347C22.6665 91.4792 32.1873 101 43.9318 101H97.4012C109.146 101 118.667 91.4792 118.667 79.7347V26.2653C118.667 14.5208 109.146 5 97.4012 5H43.9318Z" fill="#FAFAFB"/>
</g>
<g clip-path="url(#clip0_265_11217)">
<path fill-rule="evenodd" clip-rule="evenodd" d="M57.8976 73.9808C58.7043 73.3323 59.7037 72.9987 60.6863 72.7183C60.3704 73.0159 59.8092 73.3845 60.055 73.8931C60.5286 74.5076 61.4053 74.5775 62.107 74.7357C65.0707 75.1034 68.0698 75.3488 71.0339 75.1206C73.2786 74.9807 75.4878 74.5775 77.6807 74.1912C78.9428 74.9279 80.2585 75.5592 81.6083 76.1205C79.5391 77.0499 77.3121 77.6462 75.0852 78.0675C71.3321 78.7333 67.4558 78.8215 63.685 78.2252C62.0188 77.9271 60.3177 77.5412 58.8098 76.7168C58.2307 76.3841 57.6172 75.9978 57.3718 75.3488C57.1786 74.8402 57.494 74.2971 57.8976 73.9808Z" fill="#0B6FB6"/>
<path fill-rule="evenodd" clip-rule="evenodd" d="M48.164 78.9441C49.7779 78.4005 51.444 77.9619 53.1451 77.9097C53.8291 77.8919 54.5304 77.9269 55.1267 78.2778C53.0924 78.4005 51.0577 78.9091 49.2339 79.8385C48.8307 80.0666 48.3744 80.3298 48.2167 80.8033C48.2167 81.3465 48.8307 81.5223 49.2339 81.6973C51.7771 82.6444 54.4949 82.9426 57.1614 83.2235C65.1057 83.8897 73.1027 83.7143 81.0475 82.9953C84.0466 82.6622 87.063 82.329 89.9744 81.5046C90.9038 81.1887 91.956 80.8733 92.57 80.0489C92.9385 79.5581 92.6936 78.9441 92.325 78.5232C92.9208 78.8568 93.763 79.2777 93.6407 80.0844C93.4126 80.9261 92.5522 81.3642 91.851 81.7678C89.6063 82.908 87.133 83.4866 84.6779 83.9952C77.5403 85.3977 70.2268 85.714 62.966 85.5036C57.4941 85.31 52.0226 84.7841 46.6206 83.8552C45.6562 83.627 44.5691 83.4334 43.8674 82.6799C43.4115 82.1536 43.8146 81.4169 44.2528 81.0315C45.358 80.0144 46.7788 79.4526 48.164 78.9441Z" fill="#0B6FB6"/>
<path fill-rule="evenodd" clip-rule="evenodd" d="M91.8686 84.9424C93.6406 84.3283 95.534 83.6793 96.8492 82.2764C96.6211 83.8021 95.3058 84.8546 94.0078 85.5382C91.5182 86.8366 88.729 87.4325 85.9585 87.9233C80.1003 88.8532 74.1556 89.0809 68.2097 88.9763C64.1584 88.8532 60.0722 88.6955 56.0909 87.8533C55.1438 87.5906 54.1267 87.4147 53.3022 86.8539C56.8449 87.4502 60.4408 87.6961 64.0362 87.836C69.9462 88.011 75.874 87.7838 81.7496 87.0461C85.1518 86.573 88.5713 85.9945 91.8686 84.9424Z" fill="#0B6FB6"/>
<path fill-rule="evenodd" clip-rule="evenodd" d="M91.8686 84.9424C93.6406 84.3283 95.534 83.6793 96.8492 82.2764C96.6211 83.8021 95.3058 84.8546 94.0078 85.5382C91.5182 86.8366 88.729 87.4325 85.9585 87.9233C80.1003 88.8532 74.1556 89.0809 68.2097 88.9763C64.1584 88.8532 60.0722 88.6955 56.0909 87.8533C55.1438 87.5906 54.1267 87.4147 53.3022 86.8539C56.8449 87.4502 60.4408 87.6961 64.0362 87.836C69.9462 88.011 75.874 87.7838 81.7496 87.0461C85.1518 86.573 88.5713 85.9945 91.8686 84.9424Z" stroke="#0B6FB6" stroke-width="1.05882"/>
<path fill-rule="evenodd" clip-rule="evenodd" d="M55.8625 66.3348C56.7746 65.6158 57.8622 65.2123 58.9493 64.8264C58.5989 65.2473 58.1076 65.6508 58.0726 66.2294C58.0549 66.5975 58.3535 66.8784 58.6512 67.0538C59.2297 67.3515 59.8787 67.457 60.5282 67.5447C63.895 67.8955 67.2972 68.0887 70.6999 67.8605C73.8036 67.7024 76.8908 67.1938 79.9604 66.6502C80.8021 67.4397 81.8015 67.9832 82.8541 68.4568C79.1528 69.5439 75.3474 70.1757 71.5243 70.4738C67.9117 70.7192 64.2463 70.7019 60.6504 70.1225C59.2297 69.8598 57.7745 69.5617 56.4769 68.8949C55.9506 68.6145 55.3544 68.2464 55.1962 67.6324C55.0912 67.1061 55.4771 66.6325 55.8625 66.3348Z" fill="#0B6FB6"/>
<path fill-rule="evenodd" clip-rule="evenodd" d="M77.5055 17C79.153 18.8766 79.697 21.5603 79.2239 23.9804C78.7144 26.6986 77.2064 29.1015 75.4353 31.1712C74.0151 32.8373 72.3835 34.3103 70.6828 35.6783C68.7008 37.2739 66.7538 38.9928 65.509 41.2379C64.4564 43.0617 64.211 45.3064 64.93 47.2884C66.1048 50.6907 68.8413 53.2162 70.332 56.4258C68.6831 54.9701 67.0697 53.4621 65.5613 51.866C63.9829 50.1821 62.4922 48.3933 61.51 46.2886C60.8438 44.8156 60.5456 43.0967 61.0542 41.5361C61.5628 39.9399 62.7026 38.6596 63.8429 37.4671C67.017 34.2925 70.9278 31.9601 74.0319 28.7333C75.7516 26.9618 77.1719 24.8398 77.6627 22.402C78.0663 20.6131 77.8727 18.7716 77.5055 17Z" fill="#E11F22"/>
<path fill-rule="evenodd" clip-rule="evenodd" d="M74.9094 36.9766C78.3117 34.4683 82.2929 32.8727 86.3265 31.7151C83.1356 33.7493 79.8033 35.6082 77.0496 38.2214C76.0493 39.1858 75.1031 40.2911 74.6645 41.6414C74.3309 42.6413 74.4709 43.7461 74.8749 44.6932C75.6116 46.3766 76.856 47.7446 77.8031 49.288C78.6103 50.6033 78.7503 52.2872 78.1372 53.7079C77.2069 55.7944 75.3835 57.3205 73.4892 58.5304C73.2433 58.6708 73.0329 58.9339 72.7348 58.9689C73.9978 57.8291 74.9794 56.2157 74.9449 54.4791C74.9095 53.1816 74.1905 52.0417 73.3488 51.1119C71.6126 49.0426 70.1565 46.4116 70.4551 43.6234C70.7532 40.8347 72.7525 38.59 74.9094 36.9766Z" fill="#E11F22"/>
<path fill-rule="evenodd" clip-rule="evenodd" d="M86.9763 57.2502C87.7121 56.3563 88.8874 56.1281 89.9568 55.9877C91.8165 55.7423 93.7981 56.2158 95.2011 57.4961C96.3586 58.5305 97.0076 60.1444 96.7617 61.7051C96.499 63.5116 95.2883 65.02 93.9212 66.1599C91.4484 68.1414 88.3966 69.299 85.3447 70.0707C85.5206 69.8775 85.7129 69.7021 85.941 69.5621C88.2561 68.3168 90.5535 66.8611 92.2551 64.8269C93.2891 63.5643 94.0962 61.9155 93.7631 60.2494C93.4127 58.3201 91.5361 56.9171 89.6241 56.8121C88.7115 56.7244 87.853 57.0753 86.9763 57.2502Z" fill="#0B6FB6"/>
<path fill-rule="evenodd" clip-rule="evenodd" d="M51.7243 58.8463C54.9511 57.4606 58.4588 56.5666 61.9838 56.6189C59.9318 57.2152 57.8275 57.7237 55.8983 58.6359C55.442 58.8813 54.9161 59.1094 54.653 59.583C54.513 59.9511 54.8984 60.1965 55.1788 60.3193C56.3714 60.8106 57.6871 60.8805 58.9674 61.0037C63.4567 61.3018 67.9643 61.1264 72.4373 60.8455C76.8557 60.5651 81.241 59.9689 85.6072 59.2671C84.6433 59.723 83.6607 60.1793 82.7667 60.7578C82.3104 61.0737 81.7496 61.1614 81.241 61.2841C75.8741 62.4767 70.3667 62.8448 64.8952 62.9325C62.7727 62.9502 60.6685 62.9153 58.5642 62.7748C56.2141 62.6171 53.8463 62.4417 51.5489 61.8277C50.8822 61.6345 50.1809 61.4241 49.6546 60.9505C49.3915 60.7406 49.3915 60.3193 49.6196 60.0738C50.1982 59.4776 51.0053 59.1971 51.7243 58.8463Z" fill="#0B6FB6"/>
</g>
<defs>
<filter id="filter0_ddddd_265_11217" x="0.666504" y="0" width="140" height="178" filterUnits="userSpaceOnUse" color-interpolation-filters="sRGB">
<feFlood flood-opacity="0" result="BackgroundImageFix"/>
<feColorMatrix in="SourceAlpha" type="matrix" values="0 0 0 0 0 0 0 0 0 0 0 0 0 0 0 0 0 0 127 0" result="hardAlpha"/>
<feOffset/>
<feColorMatrix type="matrix" values="0 0 0 0 0.0117647 0 0 0 0 0.00784314 0 0 0 0 0.0509804 0 0 0 0.1 0"/>
<feBlend mode="normal" in2="BackgroundImageFix" result="effect1_dropShadow_265_11217"/>
<feColorMatrix in="SourceAlpha" type="matrix" values="0 0 0 0 0 0 0 0 0 0 0 0 0 0 0 0 0 0 127 0" result="hardAlpha"/>
<feOffset dy="3"/>
<feGaussianBlur stdDeviation="4"/>
<feColorMatrix type="matrix" values="0 0 0 0 0.0117647 0 0 0 0 0.00784314 0 0 0 0 0.0509804 0 0 0 0.1 0"/>
<feBlend mode="normal" in2="effect1_dropShadow_265_11217" result="effect2_dropShadow_265_11217"/>
<feColorMatrix in="SourceAlpha" type="matrix" values="0 0 0 0 0 0 0 0 0 0 0 0 0 0 0 0 0 0 127 0" result="hardAlpha"/>
<feOffset dy="14"/>
<feGaussianBlur stdDeviation="7"/>
<feColorMatrix type="matrix" values="0 0 0 0 0.0117647 0 0 0 0 0.00784314 0 0 0 0 0.0509804 0 0 0 0.09 0"/>
<feBlend mode="normal" in2="effect2_dropShadow_265_11217" result="effect3_dropShadow_265_11217"/>
<feColorMatrix in="SourceAlpha" type="matrix" values="0 0 0 0 0 0 0 0 0 0 0 0 0 0 0 0 0 0 127 0" result="hardAlpha"/>
<feOffset dy="31"/>
<feGaussianBlur stdDeviation="9.5"/>
<feColorMatrix type="matrix" values="0 0 0 0 0.0117647 0 0 0 0 0.00784314 0 0 0 0 0.0509804 0 0 0 0.05 0"/>
<feBlend mode="normal" in2="effect3_dropShadow_265_11217" result="effect4_dropShadow_265_11217"/>
<feColorMatrix in="SourceAlpha" type="matrix" values="0 0 0 0 0 0 0 0 0 0 0 0 0 0 0 0 0 0 127 0" result="hardAlpha"/>
<feOffset dy="55"/>
<feGaussianBlur stdDeviation="11"/>
<feColorMatrix type="matrix" values="0 0 0 0 0.0117647 0 0 0 0 0.00784314 0 0 0 0 0.0509804 0 0 0 0.01 0"/>
<feBlend mode="normal" in2="effect4_dropShadow_265_11217" result="effect5_dropShadow_265_11217"/>
<feBlend mode="normal" in="SourceGraphic" in2="effect5_dropShadow_265_11217" result="shape"/>
</filter>
<clipPath id="clip0_265_11217">
<rect width="72" height="72" fill="white" transform="translate(34.6665 17)"/>
</clipPath>
</defs>
</svg>
