<svg width="140" height="163" viewBox="0 0 140 163" fill="none" xmlns="http://www.w3.org/2000/svg">
<g filter="url(#filter0_ddddd_265_11208)">
<path fill-rule="evenodd" clip-rule="evenodd" d="M43.2653 5C31.5208 5 22 14.5208 22 26.2653V79.7347C22 91.4792 31.5208 101 43.2653 101H96.7347C108.479 101 118 91.4792 118 79.7347V26.2653C118 14.5208 108.479 5 96.7347 5H43.2653Z" fill="#F7DF1E"/>
</g>
<g clip-path="url(#clip0_265_11208)">
<path d="M99.3334 21H40.6667C39.1939 21 38 22.1939 38 23.6667V82.3333C38 83.8061 39.1939 85 40.6667 85H99.3333C100.806 85 102 83.8061 102 82.3334V23.6667C102 22.1939 100.806 21 99.3334 21Z" fill="#F7DF1E"/>
<path d="M80.992 71.0004C82.2812 73.1053 83.9584 74.6525 86.9247 74.6525C89.4166 74.6525 91.0085 73.407 91.0085 71.6861C91.0085 69.6239 89.373 68.8935 86.6301 67.6938L85.1266 67.0487C80.7868 65.1998 77.9038 62.8836 77.9038 57.9871C77.9038 53.4766 81.3405 50.043 86.7114 50.043C90.5351 50.043 93.2841 51.3738 95.265 54.8582L90.5819 57.8652C89.5507 56.0163 88.4384 55.2879 86.7114 55.2879C84.9499 55.2879 83.8334 56.4054 83.8334 57.8652C83.8334 59.6694 84.9509 60.3998 87.5312 61.5173L89.0347 62.1613C94.1445 64.3526 97.0296 66.5865 97.0296 71.6089C97.0296 77.0235 92.7761 79.9899 87.0639 79.9899C81.4786 79.9899 77.8702 77.3283 76.1046 73.8398L80.992 71.0004ZM59.7471 71.5216C60.6918 73.1978 61.5512 74.6149 63.6175 74.6149C65.5934 74.6149 66.8399 73.8418 66.8399 70.8359V50.3863H72.8539V70.9171C72.8539 77.1444 69.2028 79.9787 63.8735 79.9787C59.0583 79.9787 56.2697 77.4868 54.8516 74.4854L59.7471 71.5216Z" fill="black"/>
</g>
<defs>
<filter id="filter0_ddddd_265_11208" x="0" y="0" width="140" height="178" filterUnits="userSpaceOnUse" color-interpolation-filters="sRGB">
<feFlood flood-opacity="0" result="BackgroundImageFix"/>
<feColorMatrix in="SourceAlpha" type="matrix" values="0 0 0 0 0 0 0 0 0 0 0 0 0 0 0 0 0 0 127 0" result="hardAlpha"/>
<feOffset/>
<feColorMatrix type="matrix" values="0 0 0 0 0.0117647 0 0 0 0 0.00784314 0 0 0 0 0.0509804 0 0 0 0.1 0"/>
<feBlend mode="normal" in2="BackgroundImageFix" result="effect1_dropShadow_265_11208"/>
<feColorMatrix in="SourceAlpha" type="matrix" values="0 0 0 0 0 0 0 0 0 0 0 0 0 0 0 0 0 0 127 0" result="hardAlpha"/>
<feOffset dy="3"/>
<feGaussianBlur stdDeviation="4"/>
<feColorMatrix type="matrix" values="0 0 0 0 0.0117647 0 0 0 0 0.00784314 0 0 0 0 0.0509804 0 0 0 0.1 0"/>
<feBlend mode="normal" in2="effect1_dropShadow_265_11208" result="effect2_dropShadow_265_11208"/>
<feColorMatrix in="SourceAlpha" type="matrix" values="0 0 0 0 0 0 0 0 0 0 0 0 0 0 0 0 0 0 127 0" result="hardAlpha"/>
<feOffset dy="14"/>
<feGaussianBlur stdDeviation="7"/>
<feColorMatrix type="matrix" values="0 0 0 0 0.0117647 0 0 0 0 0.00784314 0 0 0 0 0.0509804 0 0 0 0.09 0"/>
<feBlend mode="normal" in2="effect2_dropShadow_265_11208" result="effect3_dropShadow_265_11208"/>
<feColorMatrix in="SourceAlpha" type="matrix" values="0 0 0 0 0 0 0 0 0 0 0 0 0 0 0 0 0 0 127 0" result="hardAlpha"/>
<feOffset dy="31"/>
<feGaussianBlur stdDeviation="9.5"/>
<feColorMatrix type="matrix" values="0 0 0 0 0.0117647 0 0 0 0 0.00784314 0 0 0 0 0.0509804 0 0 0 0.05 0"/>
<feBlend mode="normal" in2="effect3_dropShadow_265_11208" result="effect4_dropShadow_265_11208"/>
<feColorMatrix in="SourceAlpha" type="matrix" values="0 0 0 0 0 0 0 0 0 0 0 0 0 0 0 0 0 0 127 0" result="hardAlpha"/>
<feOffset dy="55"/>
<feGaussianBlur stdDeviation="11"/>
<feColorMatrix type="matrix" values="0 0 0 0 0.0117647 0 0 0 0 0.00784314 0 0 0 0 0.0509804 0 0 0 0.01 0"/>
<feBlend mode="normal" in2="effect4_dropShadow_265_11208" result="effect5_dropShadow_265_11208"/>
<feBlend mode="normal" in="SourceGraphic" in2="effect5_dropShadow_265_11208" result="shape"/>
</filter>
<clipPath id="clip0_265_11208">
<rect width="64" height="64" fill="white" transform="translate(38 21)"/>
</clipPath>
</defs>
</svg>
