<svg width="466" height="280" viewBox="0 0 466 280" fill="none" xmlns="http://www.w3.org/2000/svg">
<g clip-path="url(#clip0_1_2)">
<mask id="mask0_1_2" style="mask-type:luminance" maskUnits="userSpaceOnUse" x="0" y="0" width="466" height="280">
<path d="M466 0H0V280H466V0Z" fill="white"/>
</mask>
<g mask="url(#mask0_1_2)">
<path d="M466 0H0V280H466V0Z" fill="#FAFAFB"/>
<g filter="url(#filter0_dddd_1_2)">
<path d="M343.867 74H121.133C115.537 74 111 78.5366 111 84.1328V152.341C111 157.937 115.537 162.474 121.133 162.474H343.867C349.463 162.474 354 157.937 354 152.341V84.1328C354 78.5366 349.463 74 343.867 74Z" fill="url(#paint0_linear_1_2)"/>
<path d="M129.681 102.063L127.297 93.4657H128.661L130.336 100.124H130.416L132.158 93.4657H133.51L135.252 100.128H135.332L137.002 93.4657H138.371L135.982 102.063H134.677L132.867 95.6235H132.8L130.991 102.063H129.681ZM141.593 102.193C140.989 102.193 140.461 102.055 140.011 101.778C139.56 101.501 139.21 101.113 138.961 100.615C138.712 100.117 138.588 99.5346 138.588 98.8686C138.588 98.1997 138.712 97.6147 138.961 97.1138C139.21 96.6128 139.56 96.2238 140.011 95.9467C140.461 95.6697 140.989 95.5311 141.593 95.5311C142.198 95.5311 142.725 95.6697 143.176 95.9467C143.627 96.2238 143.976 96.6128 144.225 97.1138C144.475 97.6147 144.599 98.1997 144.599 98.8686C144.599 99.5346 144.475 100.117 144.225 100.615C143.976 101.113 143.627 101.501 143.176 101.778C142.725 102.055 142.198 102.193 141.593 102.193ZM141.598 101.14C141.989 101.14 142.314 101.036 142.571 100.829C142.829 100.622 143.019 100.346 143.142 100.002C143.268 99.6578 143.331 99.2786 143.331 98.8644C143.331 98.4529 143.268 98.0751 143.142 97.7309C143.019 97.3839 142.829 97.1054 142.571 96.8955C142.314 96.6856 141.989 96.5806 141.598 96.5806C141.203 96.5806 140.875 96.6856 140.615 96.8955C140.358 97.1054 140.166 97.3839 140.04 97.7309C139.917 98.0751 139.855 98.4529 139.855 98.8644C139.855 99.2786 139.917 99.6578 140.04 100.002C140.166 100.346 140.358 100.622 140.615 100.829C140.875 101.036 141.203 101.14 141.598 101.14ZM146.059 102.063V95.6151H147.264V96.6646H147.344C147.478 96.3092 147.698 96.0321 148.003 95.8334C148.308 95.6319 148.673 95.5311 149.099 95.5311C149.53 95.5311 149.891 95.6319 150.182 95.8334C150.476 96.0349 150.693 96.312 150.832 96.6646H150.9C151.054 96.3204 151.298 96.0461 151.634 95.8418C151.97 95.6347 152.37 95.5311 152.835 95.5311C153.42 95.5311 153.897 95.7144 154.266 96.0811C154.639 96.4477 154.825 97.0004 154.825 97.7393V102.063H153.57V97.8568C153.57 97.4202 153.451 97.104 153.213 96.9081C152.975 96.7122 152.691 96.6142 152.361 96.6142C151.952 96.6142 151.634 96.7402 151.408 96.992C151.181 97.2411 151.068 97.5616 151.068 97.9534V102.063H149.817V97.7771C149.817 97.4272 149.707 97.146 149.489 96.9333C149.271 96.7206 148.987 96.6142 148.637 96.6142C148.399 96.6142 148.179 96.6772 147.978 96.8031C147.779 96.9263 147.618 97.0984 147.495 97.3195C147.375 97.5406 147.315 97.7967 147.315 98.0877V102.063H146.059ZM159.345 102.193C158.71 102.193 158.163 102.058 157.704 101.786C157.248 101.512 156.895 101.127 156.646 100.632C156.4 100.134 156.277 99.55 156.277 98.8811C156.277 98.2207 156.4 97.6385 156.646 97.1348C156.895 96.631 157.242 96.2378 157.687 95.9551C158.135 95.6725 158.658 95.5311 159.257 95.5311C159.621 95.5311 159.974 95.5913 160.315 95.7117C160.656 95.832 160.963 96.0209 161.234 96.2784C161.506 96.5359 161.72 96.8703 161.877 97.2817C162.033 97.6903 162.112 98.1871 162.112 98.772V99.217H156.986V98.2766H160.882C160.882 97.9464 160.815 97.6539 160.68 97.3992C160.546 97.1418 160.357 96.9389 160.114 96.7905C159.873 96.6422 159.59 96.568 159.266 96.568C158.913 96.568 158.605 96.6548 158.342 96.8283C158.082 96.999 157.88 97.2229 157.737 97.5C157.598 97.7743 157.528 98.0723 157.528 98.3942V99.1288C157.528 99.5598 157.603 99.9264 157.754 100.229C157.908 100.531 158.122 100.762 158.397 100.921C158.671 101.078 158.991 101.156 159.358 101.156C159.596 101.156 159.813 101.123 160.009 101.056C160.204 100.986 160.374 100.882 160.517 100.745C160.659 100.608 160.768 100.439 160.844 100.237L162.032 100.451C161.937 100.801 161.766 101.107 161.52 101.371C161.276 101.631 160.97 101.834 160.6 101.979C160.234 102.122 159.815 102.193 159.345 102.193ZM164.819 98.2347V102.063H163.564V95.6151H164.768V96.6646H164.848C164.996 96.3232 165.229 96.0489 165.545 95.8418C165.864 95.6347 166.266 95.5311 166.75 95.5311C167.189 95.5311 167.574 95.6235 167.904 95.8082C168.235 95.9901 168.491 96.2616 168.673 96.6226C168.854 96.9836 168.945 97.43 168.945 97.9618V102.063H167.69V98.1129C167.69 97.6455 167.568 97.2803 167.325 97.0172C167.081 96.7514 166.747 96.6184 166.322 96.6184C166.031 96.6184 165.772 96.6814 165.545 96.8073C165.321 96.9333 165.143 97.118 165.012 97.3615C164.883 97.6022 164.819 97.8932 164.819 98.2347ZM171.767 93.4657V94.2717C171.767 94.5096 171.722 94.7601 171.632 95.0232C171.546 95.2835 171.423 95.5339 171.263 95.7746C171.104 96.0153 170.916 96.2224 170.701 96.3959L170.079 95.9509C170.244 95.7103 170.387 95.4542 170.507 95.1827C170.631 94.9112 170.692 94.6118 170.692 94.2843V93.4657H171.767ZM177.057 97.1893L175.919 97.3909C175.871 97.2453 175.796 97.1068 175.692 96.9753C175.592 96.8437 175.454 96.736 175.281 96.652C175.107 96.568 174.89 96.5261 174.63 96.5261C174.275 96.5261 173.978 96.6058 173.74 96.7653C173.502 96.9221 173.383 97.125 173.383 97.3741C173.383 97.5896 173.463 97.7631 173.623 97.8946C173.782 98.0262 174.04 98.1339 174.395 98.2179L175.419 98.4529C176.013 98.5901 176.455 98.8014 176.746 99.0868C177.037 99.3723 177.183 99.7431 177.183 100.199C177.183 100.586 177.071 100.93 176.847 101.232C176.626 101.531 176.316 101.767 175.919 101.937C175.524 102.108 175.067 102.193 174.546 102.193C173.824 102.193 173.235 102.039 172.779 101.732C172.323 101.421 172.043 100.98 171.939 100.409L173.152 100.225C173.228 100.541 173.383 100.78 173.618 100.942C173.854 101.102 174.16 101.182 174.538 101.182C174.949 101.182 175.278 101.096 175.524 100.926C175.771 100.752 175.894 100.541 175.894 100.292C175.894 100.09 175.818 99.9209 175.667 99.7837C175.519 99.6466 175.291 99.543 174.983 99.4731L173.891 99.2338C173.29 99.0966 172.845 98.8783 172.556 98.5789C172.271 98.2794 172.128 97.9002 172.128 97.4412C172.128 97.0606 172.235 96.7276 172.447 96.4421C172.66 96.1566 172.954 95.9341 173.329 95.7746C173.704 95.6123 174.133 95.5311 174.618 95.5311C175.314 95.5311 175.863 95.6823 176.263 95.9845C176.663 96.284 176.928 96.6856 177.057 97.1893ZM186.641 97.1893L185.504 97.3909C185.456 97.2453 185.381 97.1068 185.277 96.9753C185.176 96.8437 185.039 96.736 184.866 96.652C184.692 96.568 184.475 96.5261 184.215 96.5261C183.859 96.5261 183.563 96.6058 183.325 96.7653C183.087 96.9221 182.968 97.125 182.968 97.3741C182.968 97.5896 183.048 97.7631 183.207 97.8946C183.367 98.0262 183.624 98.1339 183.98 98.2179L185.004 98.4529C185.597 98.5901 186.04 98.8014 186.331 99.0868C186.622 99.3723 186.767 99.7431 186.767 100.199C186.767 100.586 186.655 100.93 186.431 101.232C186.21 101.531 185.901 101.767 185.504 101.937C185.109 102.108 184.651 102.193 184.131 102.193C183.409 102.193 182.82 102.039 182.364 101.732C181.907 101.421 181.628 100.98 181.524 100.409L182.737 100.225C182.813 100.541 182.968 100.78 183.203 100.942C183.438 101.102 183.745 101.182 184.123 101.182C184.534 101.182 184.863 101.096 185.109 100.926C185.355 100.752 185.478 100.541 185.478 100.292C185.478 100.09 185.403 99.9209 185.252 99.7837C185.103 99.6466 184.875 99.543 184.568 99.4731L183.476 99.2338C182.874 99.0966 182.429 98.8783 182.141 98.5789C181.856 98.2794 181.713 97.9002 181.713 97.4412C181.713 97.0606 181.819 96.7276 182.032 96.4421C182.245 96.1566 182.538 95.9341 182.914 95.7746C183.289 95.6123 183.718 95.5311 184.202 95.5311C184.899 95.5311 185.448 95.6823 185.848 95.9845C186.248 96.284 186.513 96.6856 186.641 97.1893ZM188.206 102.063V95.6151H189.462V102.063H188.206ZM188.84 94.6202C188.622 94.6202 188.435 94.5474 188.278 94.4019C188.124 94.2535 188.047 94.0772 188.047 93.8729C188.047 93.6658 188.124 93.4895 188.278 93.344C188.435 93.1956 188.622 93.1215 188.84 93.1215C189.059 93.1215 189.245 93.1956 189.399 93.344C189.555 93.4895 189.634 93.6658 189.634 93.8729C189.634 94.0772 189.555 94.2535 189.399 94.4019C189.245 94.5474 189.059 94.6202 188.84 94.6202ZM192.465 98.2347V102.063H191.209V95.6151H192.414V96.6646H192.494C192.642 96.3232 192.875 96.0489 193.191 95.8418C193.51 95.6347 193.912 95.5311 194.396 95.5311C194.835 95.5311 195.22 95.6235 195.55 95.8082C195.88 95.9901 196.136 96.2616 196.318 96.6226C196.5 96.9836 196.591 97.43 196.591 97.9618V102.063H195.336V98.1129C195.336 97.6455 195.214 97.2803 194.971 97.0172C194.727 96.7514 194.393 96.6184 193.968 96.6184C193.676 96.6184 193.418 96.6814 193.191 96.8073C192.967 96.9333 192.789 97.118 192.658 97.3615C192.529 97.6022 192.465 97.8932 192.465 98.2347ZM201.037 104.616C200.525 104.616 200.084 104.548 199.715 104.414C199.348 104.28 199.049 104.102 198.817 103.881C198.584 103.66 198.411 103.418 198.296 103.155L199.375 102.71C199.45 102.833 199.551 102.963 199.677 103.1C199.806 103.24 199.979 103.359 200.198 103.457C200.419 103.555 200.703 103.604 201.05 103.604C201.526 103.604 201.919 103.488 202.23 103.255C202.54 103.026 202.696 102.659 202.696 102.156V100.888H202.616C202.54 101.025 202.431 101.177 202.288 101.345C202.148 101.513 201.955 101.659 201.709 101.782C201.463 101.905 201.142 101.967 200.748 101.967C200.238 101.967 199.779 101.848 199.371 101.61C198.965 101.369 198.643 101.015 198.405 100.548C198.17 100.078 198.053 99.4997 198.053 98.814C198.053 98.1283 198.169 97.5406 198.401 97.0508C198.636 96.561 198.958 96.186 199.366 95.9257C199.775 95.6627 200.238 95.5311 200.756 95.5311C201.156 95.5311 201.479 95.5983 201.726 95.7326C201.972 95.8642 202.164 96.0181 202.301 96.1944C202.441 96.3707 202.549 96.5261 202.624 96.6604H202.717V95.6151H203.947V102.206C203.947 102.76 203.818 103.215 203.56 103.57C203.303 103.926 202.954 104.189 202.515 104.36C202.078 104.53 201.586 104.616 201.037 104.616ZM201.025 100.926C201.386 100.926 201.691 100.842 201.94 100.674C202.192 100.503 202.382 100.259 202.511 99.9432C202.642 99.6242 202.708 99.2422 202.708 98.7972C202.708 98.3634 202.644 97.9814 202.515 97.6511C202.386 97.3209 202.197 97.0634 201.948 96.8787C201.699 96.6912 201.391 96.5974 201.025 96.5974C200.647 96.5974 200.332 96.6954 200.08 96.8913C199.828 97.0844 199.638 97.3475 199.509 97.6805C199.383 98.0136 199.32 98.3858 199.32 98.7972C199.32 99.2198 199.385 99.5906 199.513 99.9097C199.642 100.229 199.832 100.478 200.084 100.657C200.339 100.836 200.652 100.926 201.025 100.926ZM206.944 93.4657V102.063H205.689V93.4657H206.944ZM211.471 102.193C210.836 102.193 210.289 102.058 209.83 101.786C209.373 101.512 209.021 101.127 208.772 100.632C208.525 100.134 208.402 99.55 208.402 98.8811C208.402 98.2207 208.525 97.6385 208.772 97.1348C209.021 96.631 209.368 96.2378 209.813 95.9551C210.261 95.6725 210.784 95.5311 211.383 95.5311C211.747 95.5311 212.099 95.5913 212.441 95.7117C212.782 95.832 213.089 96.0209 213.36 96.2784C213.632 96.5359 213.846 96.8703 214.002 97.2817C214.159 97.6903 214.238 98.1871 214.238 98.772V99.217H209.112V98.2766H213.008C213.008 97.9464 212.94 97.6539 212.806 97.3992C212.672 97.1418 212.483 96.9389 212.239 96.7905C211.999 96.6422 211.716 96.568 211.391 96.568C211.039 96.568 210.731 96.6548 210.468 96.8283C210.207 96.999 210.006 97.2229 209.863 97.5C209.723 97.7743 209.653 98.0723 209.653 98.3942V99.1288C209.653 99.5598 209.729 99.9264 209.88 100.229C210.034 100.531 210.248 100.762 210.522 100.921C210.797 101.078 211.117 101.156 211.484 101.156C211.722 101.156 211.938 101.123 212.134 101.056C212.33 100.986 212.5 100.882 212.642 100.745C212.785 100.608 212.894 100.439 212.97 100.237L214.158 100.451C214.063 100.801 213.892 101.107 213.646 101.371C213.402 101.631 213.096 101.834 212.726 101.979C212.36 102.122 211.941 102.193 211.471 102.193ZM220.521 97.1893L219.384 97.3909C219.336 97.2453 219.26 97.1068 219.157 96.9753C219.056 96.8437 218.919 96.736 218.745 96.652C218.572 96.568 218.355 96.5261 218.095 96.5261C217.739 96.5261 217.443 96.6058 217.205 96.7653C216.967 96.9221 216.848 97.125 216.848 97.3741C216.848 97.5896 216.928 97.7631 217.087 97.8946C217.247 98.0262 217.504 98.1339 217.86 98.2179L218.884 98.4529C219.477 98.5901 219.92 98.8014 220.211 99.0868C220.502 99.3723 220.647 99.7431 220.647 100.199C220.647 100.586 220.535 100.93 220.311 101.232C220.09 101.531 219.781 101.767 219.384 101.937C218.989 102.108 218.531 102.193 218.011 102.193C217.289 102.193 216.7 102.039 216.243 101.732C215.787 101.421 215.507 100.98 215.404 100.409L216.617 100.225C216.693 100.541 216.848 100.78 217.083 100.942C217.318 101.102 217.625 101.182 218.002 101.182C218.414 101.182 218.743 101.096 218.989 100.926C219.235 100.752 219.358 100.541 219.358 100.292C219.358 100.09 219.283 99.9209 219.132 99.7837C218.983 99.6466 218.755 99.543 218.447 99.4731L217.356 99.2338C216.754 99.0966 216.309 98.8783 216.021 98.5789C215.736 98.2794 215.593 97.9002 215.593 97.4412C215.593 97.0606 215.699 96.7276 215.912 96.4421C216.125 96.1566 216.418 95.9341 216.793 95.7746C217.168 95.6123 217.598 95.5311 218.082 95.5311C218.779 95.5311 219.328 95.6823 219.728 95.9845C220.128 96.284 220.393 96.6856 220.521 97.1893Z" fill="#646C7C"/>
<path d="M329.937 90.0532H310.904C306.48 90.0532 302.894 93.6394 302.894 98.0631C302.894 102.487 306.48 106.073 310.904 106.073H329.937C334.361 106.073 337.947 102.487 337.947 98.0631C337.947 93.6394 334.361 90.0532 329.937 90.0532Z" fill="#E40000"/>
<path d="M311.454 101.063V94.9222H312.753V99.9927H315.386V101.063H311.454ZM317.586 94.9222V101.063H316.288V94.9222H317.586ZM319.806 94.9222L321.29 99.5879H321.347L322.834 94.9222H324.274L322.157 101.063H320.484L318.364 94.9222H319.806ZM325.055 101.063V94.9222H329.193V95.9926H326.354V97.4559H328.98V98.5264H326.354V99.9927H329.205V101.063H325.055Z" fill="white"/>
<path d="M228.172 116.003H156.626C154.218 116.003 152.266 117.955 152.266 120.363C152.266 122.77 154.218 124.722 156.626 124.722H228.172C230.58 124.722 232.532 122.77 232.532 120.363C232.532 117.955 230.58 116.003 228.172 116.003Z" fill="#C6CED9"/>
<path d="M278.589 116.003H268.998C266.59 116.003 264.638 117.955 264.638 120.363C264.638 122.77 266.59 124.722 268.998 124.722H278.589C280.996 124.722 282.948 122.77 282.948 120.363C282.948 117.955 280.996 116.003 278.589 116.003Z" fill="#C6CED9"/>
<path d="M304.926 116.003H295.335C292.927 116.003 290.975 117.955 290.975 120.363C290.975 122.77 292.927 124.722 295.335 124.722H304.926C307.333 124.722 309.285 122.77 309.285 120.363C309.285 117.955 307.333 116.003 304.926 116.003Z" fill="#C6CED9"/>
<path d="M331.262 116.003H321.671C319.263 116.003 317.311 117.955 317.311 120.363C317.311 122.77 319.263 124.722 321.671 124.722H331.262C333.669 124.722 335.621 122.77 335.621 120.363C335.621 117.955 333.669 116.003 331.262 116.003Z" fill="#C6CED9"/>
<mask id="mask1_1_2" style="mask-type:luminance" maskUnits="userSpaceOnUse" x="127" y="134" width="17" height="13">
<path d="M141.764 134.652H128.524C127.712 134.652 127.053 135.311 127.053 136.123V144.95C127.053 145.762 127.712 146.421 128.524 146.421H141.764C142.577 146.421 143.235 145.762 143.235 144.95V136.123C143.235 135.311 142.577 134.652 141.764 134.652Z" fill="white"/>
</mask>
<g mask="url(#mask1_1_2)">
<path d="M141.764 134.652H128.524C127.712 134.652 127.053 135.311 127.053 136.123V144.95C127.053 145.762 127.712 146.421 128.524 146.421H141.764C142.577 146.421 143.235 145.762 143.235 144.95V136.123C143.235 135.311 142.577 134.652 141.764 134.652Z" fill="#3A99FF"/>
<path fill-rule="evenodd" clip-rule="evenodd" d="M131.677 141.713H127.053V139.359H131.677V134.652H133.989V139.359H143.236V141.713H133.989V146.421H131.677V141.713Z" fill="#FFDA2C"/>
</g>
<path d="M228.172 136.177H156.626C154.218 136.177 152.266 138.129 152.266 140.537C152.266 142.944 154.218 144.896 156.626 144.896H228.172C230.58 144.896 232.532 142.944 232.532 140.537C232.532 138.129 230.58 136.177 228.172 136.177Z" fill="#C6CED9"/>
<path d="M278.589 136.177H268.998C266.59 136.177 264.638 138.129 264.638 140.537C264.638 142.944 266.59 144.896 268.998 144.896H278.589C280.996 144.896 282.948 142.944 282.948 140.537C282.948 138.129 280.996 136.177 278.589 136.177Z" fill="#C6CED9"/>
<path d="M304.926 136.177H295.335C292.927 136.177 290.975 138.129 290.975 140.537C290.975 142.944 292.927 144.896 295.335 144.896H304.926C307.333 144.896 309.285 142.944 309.285 140.537C309.285 138.129 307.333 136.177 304.926 136.177Z" fill="#C6CED9"/>
<path d="M331.262 136.177H321.671C319.263 136.177 317.311 138.129 317.311 140.537C317.311 142.944 319.263 144.896 321.671 144.896H331.262C333.669 144.896 335.621 142.944 335.621 140.537C335.621 138.129 333.669 136.177 331.262 136.177Z" fill="#C6CED9"/>
</g>
<g filter="url(#filter1_dddddd_1_2)">
<path d="M219.149 152H35.8508C31.5149 152 28 155.515 28 159.851V206.149C28 210.485 31.5149 214 35.8508 214H219.149C223.485 214 227 210.485 227 206.149V159.851C227 155.515 223.485 152 219.149 152Z" fill="url(#paint1_linear_1_2)"/>
<path d="M68.9813 166.118H45.6716C42.781 166.118 40.4377 168.461 40.4377 171.352V194.662C40.4377 197.552 42.781 199.895 45.6716 199.895H68.9813C71.8719 199.895 74.2152 197.552 74.2152 194.662V171.352C74.2152 168.461 71.8719 166.118 68.9813 166.118Z" fill="#FF5416"/>
<path d="M58.29 186.929C58.29 187.359 57.9419 187.707 57.5126 187.707C57.0833 187.707 56.7353 187.359 56.7353 186.929C56.7353 186.5 57.0833 186.152 57.5126 186.152C57.9419 186.152 58.29 186.5 58.29 186.929Z" fill="white"/>
<path d="M58.29 181.293C58.29 180.864 57.9419 180.516 57.5126 180.516C57.0833 180.516 56.7353 180.864 56.7353 181.293V184.597C56.7353 185.027 57.0833 185.375 57.5126 185.375C57.9419 185.375 58.29 185.027 58.29 184.597V181.293Z" fill="white"/>
<path fill-rule="evenodd" clip-rule="evenodd" d="M56.3088 176.11C56.8188 175.141 58.2064 175.141 58.7165 176.11L65.2025 188.434C65.6793 189.34 65.0224 190.428 63.9987 190.428H51.0266C50.0028 190.428 49.3459 189.34 49.8227 188.434L56.3088 176.11ZM57.6846 176.653C57.6117 176.515 57.4135 176.515 57.3407 176.653L50.8546 188.977C50.7865 189.106 50.8803 189.262 51.0266 189.262H63.9987C64.1449 189.262 64.2388 189.106 64.1707 188.977L57.6846 176.653Z" fill="white"/>
<path d="M84.3561 172.244V171.516L86.6101 169.18C86.8508 168.927 87.0492 168.704 87.2054 168.514C87.3636 168.321 87.4818 168.137 87.5599 167.964C87.6379 167.791 87.677 167.606 87.677 167.411C87.677 167.19 87.6249 166.999 87.5209 166.839C87.4168 166.676 87.2747 166.551 87.0948 166.465C86.9148 166.376 86.712 166.331 86.4865 166.331C86.248 166.331 86.0398 166.38 85.862 166.478C85.6842 166.575 85.5476 166.713 85.4522 166.891C85.3568 167.068 85.3091 167.277 85.3091 167.515H84.3496C84.3496 167.11 84.4428 166.755 84.6293 166.452C84.8158 166.148 85.0717 165.913 85.3969 165.746C85.7222 165.577 86.0919 165.492 86.506 165.492C86.9245 165.492 87.2932 165.576 87.6119 165.742C87.9328 165.907 88.1833 166.133 88.3633 166.419C88.5432 166.703 88.6332 167.024 88.6332 167.382C88.6332 167.629 88.5866 167.871 88.4934 168.107C88.4023 168.343 88.2429 168.607 88.0152 168.897C87.7876 169.186 87.471 169.536 87.0655 169.948L85.7417 171.334V171.382H88.7406V172.244H84.3561ZM93.4744 169.278V172.244H92.5019V167.248H93.4354V168.062H93.4972C93.6121 167.797 93.7921 167.585 94.0371 167.424C94.2843 167.264 94.5955 167.183 94.9706 167.183C95.311 167.183 95.6092 167.255 95.8651 167.398C96.1209 167.539 96.3193 167.749 96.4603 168.029C96.6012 168.309 96.6717 168.655 96.6717 169.067V172.244H95.6992V169.184C95.6992 168.822 95.6049 168.539 95.4162 168.335C95.2276 168.129 94.9684 168.026 94.6388 168.026C94.4133 168.026 94.2128 168.075 94.0371 168.172C93.8636 168.27 93.7259 168.413 93.624 168.601C93.5243 168.788 93.4744 169.013 93.4744 169.278ZM100.175 172.345C99.6828 172.345 99.2589 172.24 98.9032 172.03C98.5498 171.817 98.2766 171.519 98.0836 171.135C97.8928 170.749 97.7974 170.297 97.7974 169.779C97.7974 169.267 97.8928 168.816 98.0836 168.426C98.2766 168.036 98.5455 167.731 98.8902 167.512C99.2372 167.293 99.6427 167.183 100.107 167.183C100.389 167.183 100.662 167.23 100.926 167.323C101.191 167.416 101.428 167.563 101.639 167.762C101.849 167.962 102.015 168.221 102.136 168.54C102.258 168.856 102.318 169.241 102.318 169.694V170.039H98.347V169.311H101.365C101.365 169.055 101.313 168.828 101.209 168.631C101.105 168.431 100.959 168.274 100.77 168.159C100.584 168.044 100.365 167.987 100.113 167.987C99.84 167.987 99.6015 168.054 99.3976 168.188C99.196 168.321 99.0398 168.494 98.9293 168.709C98.8208 168.921 98.7666 169.152 98.7666 169.402V169.971C98.7666 170.305 98.8252 170.589 98.9423 170.823C99.0615 171.057 99.2274 171.236 99.4399 171.36C99.6524 171.481 99.9007 171.542 100.185 171.542C100.369 171.542 100.537 171.516 100.689 171.464C100.841 171.41 100.972 171.329 101.082 171.223C101.193 171.117 101.278 170.986 101.336 170.83L102.257 170.995C102.183 171.266 102.051 171.504 101.86 171.708C101.671 171.909 101.434 172.067 101.148 172.179C100.863 172.29 100.539 172.345 100.175 172.345ZM104.517 172.244L103.047 167.248H104.052L105.031 170.917H105.08L106.062 167.248H107.067L108.043 170.901H108.092L109.065 167.248H110.07L108.603 172.244H107.611L106.596 168.637H106.521L105.506 172.244H104.517ZM114.481 169.278V172.244H113.508V167.248H114.442V168.062H114.503C114.618 167.797 114.798 167.585 115.043 167.424C115.291 167.264 115.602 167.183 115.977 167.183C116.317 167.183 116.615 167.255 116.871 167.398C117.127 167.539 117.326 167.749 117.467 168.029C117.607 168.309 117.678 168.655 117.678 169.067V172.244H116.705V169.184C116.705 168.822 116.611 168.539 116.422 168.335C116.234 168.129 115.975 168.026 115.645 168.026C115.42 168.026 115.219 168.075 115.043 168.172C114.87 168.27 114.732 168.413 114.63 168.601C114.531 168.788 114.481 169.013 114.481 169.278ZM121.132 172.345C120.664 172.345 120.255 172.238 119.906 172.023C119.557 171.809 119.286 171.508 119.093 171.122C118.9 170.736 118.804 170.285 118.804 169.769C118.804 169.251 118.9 168.798 119.093 168.41C119.286 168.021 119.557 167.72 119.906 167.505C120.255 167.291 120.664 167.183 121.132 167.183C121.601 167.183 122.01 167.291 122.359 167.505C122.708 167.72 122.979 168.021 123.172 168.41C123.365 168.798 123.461 169.251 123.461 169.769C123.461 170.285 123.365 170.736 123.172 171.122C122.979 171.508 122.708 171.809 122.359 172.023C122.01 172.238 121.601 172.345 121.132 172.345ZM121.136 171.529C121.439 171.529 121.691 171.449 121.89 171.288C122.09 171.128 122.237 170.914 122.333 170.647C122.43 170.381 122.479 170.087 122.479 169.766C122.479 169.447 122.43 169.154 122.333 168.888C122.237 168.619 122.09 168.403 121.89 168.24C121.691 168.078 121.439 167.997 121.136 167.997C120.83 167.997 120.576 168.078 120.375 168.24C120.175 168.403 120.027 168.619 119.929 168.888C119.834 169.154 119.786 169.447 119.786 169.766C119.786 170.087 119.834 170.381 119.929 170.647C120.027 170.914 120.175 171.128 120.375 171.288C120.576 171.449 120.83 171.529 121.136 171.529ZM126.925 167.248V168.029H124.196V167.248H126.925ZM124.928 166.051H125.9V170.777C125.9 170.966 125.928 171.108 125.985 171.204C126.041 171.297 126.114 171.361 126.203 171.395C126.294 171.428 126.392 171.444 126.499 171.444C126.577 171.444 126.645 171.439 126.704 171.428C126.762 171.417 126.808 171.408 126.84 171.402L127.016 172.205C126.959 172.227 126.879 172.249 126.775 172.27C126.671 172.294 126.541 172.307 126.385 172.309C126.129 172.314 125.89 172.268 125.669 172.173C125.448 172.077 125.269 171.93 125.133 171.73C124.996 171.531 124.928 171.281 124.928 170.979V166.051ZM128.046 172.244V167.248H129.019V172.244H128.046ZM128.537 166.478C128.368 166.478 128.223 166.421 128.102 166.308C127.982 166.193 127.923 166.057 127.923 165.899C127.923 165.738 127.982 165.602 128.102 165.489C128.223 165.374 128.368 165.316 128.537 165.316C128.707 165.316 128.851 165.374 128.97 165.489C129.091 165.602 129.152 165.738 129.152 165.899C129.152 166.057 129.091 166.193 128.97 166.308C128.851 166.421 128.707 166.478 128.537 166.478ZM132.751 167.248V168.029H129.927V167.248H132.751ZM130.701 172.244V166.669C130.701 166.357 130.77 166.098 130.906 165.892C131.043 165.684 131.224 165.529 131.45 165.427C131.675 165.323 131.92 165.271 132.185 165.271C132.38 165.271 132.547 165.287 132.686 165.32C132.824 165.35 132.927 165.378 132.995 165.404L132.767 166.191C132.721 166.178 132.663 166.163 132.591 166.146C132.52 166.126 132.433 166.117 132.331 166.117C132.095 166.117 131.926 166.175 131.824 166.292C131.724 166.409 131.674 166.578 131.674 166.8V172.244H130.701ZM133.8 172.244V167.248H134.772V172.244H133.8ZM134.291 166.478C134.122 166.478 133.977 166.421 133.855 166.308C133.736 166.193 133.676 166.057 133.676 165.899C133.676 165.738 133.736 165.602 133.855 165.489C133.977 165.374 134.122 165.316 134.291 165.316C134.46 165.316 134.604 165.374 134.724 165.489C134.845 165.602 134.906 165.738 134.906 165.899C134.906 166.057 134.845 166.193 134.724 166.308C134.604 166.421 134.46 166.478 134.291 166.478ZM138.231 172.345C137.747 172.345 137.331 172.236 136.982 172.017C136.635 171.796 136.368 171.491 136.182 171.103C135.995 170.715 135.902 170.27 135.902 169.769C135.902 169.262 135.997 168.814 136.188 168.426C136.379 168.036 136.648 167.731 136.995 167.512C137.342 167.293 137.751 167.183 138.221 167.183C138.601 167.183 138.939 167.254 139.236 167.395C139.533 167.534 139.773 167.729 139.955 167.98C140.139 168.232 140.249 168.526 140.283 168.862H139.337C139.285 168.628 139.166 168.426 138.979 168.257C138.795 168.088 138.548 168.003 138.237 168.003C137.966 168.003 137.729 168.075 137.525 168.218C137.323 168.359 137.166 168.56 137.053 168.823C136.941 169.083 136.884 169.391 136.884 169.746C136.884 170.111 136.94 170.425 137.05 170.69C137.161 170.954 137.317 171.159 137.519 171.304C137.722 171.45 137.962 171.522 138.237 171.522C138.422 171.522 138.589 171.489 138.738 171.421C138.89 171.352 139.017 171.253 139.119 171.125C139.223 170.998 139.296 170.844 139.337 170.664H140.283C140.249 170.987 140.143 171.275 139.968 171.529C139.792 171.783 139.557 171.982 139.262 172.127C138.969 172.273 138.626 172.345 138.231 172.345ZM142.823 172.355C142.506 172.355 142.22 172.296 141.964 172.179C141.708 172.06 141.506 171.888 141.356 171.662C141.209 171.437 141.135 171.16 141.135 170.833C141.135 170.551 141.189 170.319 141.298 170.137C141.406 169.955 141.552 169.81 141.737 169.704C141.921 169.598 142.127 169.518 142.355 169.463C142.582 169.409 142.814 169.368 143.051 169.34C143.35 169.305 143.593 169.277 143.779 169.255C143.966 169.231 144.101 169.193 144.186 169.141C144.27 169.089 144.313 169.005 144.313 168.888V168.865C144.313 168.581 144.232 168.361 144.072 168.205C143.914 168.049 143.677 167.97 143.363 167.97C143.036 167.97 142.777 168.043 142.589 168.188C142.402 168.332 142.273 168.491 142.202 168.667L141.288 168.458C141.396 168.155 141.555 167.91 141.763 167.723C141.973 167.535 142.215 167.398 142.488 167.313C142.761 167.227 143.049 167.183 143.35 167.183C143.549 167.183 143.761 167.207 143.984 167.255C144.21 167.3 144.42 167.385 144.615 167.509C144.813 167.632 144.974 167.809 145.1 168.039C145.226 168.266 145.288 168.562 145.288 168.927V172.244H144.339V171.561H144.3C144.237 171.687 144.142 171.811 144.017 171.932C143.891 172.054 143.729 172.154 143.532 172.235C143.335 172.315 143.098 172.355 142.823 172.355ZM143.034 171.574C143.303 171.574 143.533 171.521 143.724 171.415C143.917 171.309 144.063 171.17 144.163 170.999C144.265 170.825 144.316 170.64 144.316 170.442V169.798C144.281 169.833 144.214 169.866 144.114 169.896C144.017 169.924 143.905 169.949 143.779 169.971C143.654 169.99 143.531 170.009 143.412 170.026C143.292 170.041 143.193 170.054 143.113 170.065C142.924 170.089 142.751 170.129 142.595 170.185C142.441 170.242 142.318 170.323 142.225 170.429C142.133 170.534 142.088 170.672 142.088 170.846C142.088 171.086 142.177 171.269 142.355 171.392C142.532 171.514 142.759 171.574 143.034 171.574ZM148.962 167.248V168.029H146.233V167.248H148.962ZM146.965 166.051H147.937V170.777C147.937 170.966 147.965 171.108 148.022 171.204C148.078 171.297 148.151 171.361 148.24 171.395C148.331 171.428 148.429 171.444 148.536 171.444C148.614 171.444 148.682 171.439 148.741 171.428C148.799 171.417 148.845 171.408 148.877 171.402L149.053 172.205C148.996 172.227 148.916 172.249 148.812 172.27C148.708 172.294 148.578 172.307 148.422 172.309C148.166 172.314 147.927 172.268 147.706 172.173C147.485 172.077 147.306 171.93 147.17 171.73C147.033 171.531 146.965 171.281 146.965 170.979V166.051ZM150.083 172.244V167.248H151.056V172.244H150.083ZM150.574 166.478C150.405 166.478 150.26 166.421 150.139 166.308C150.019 166.193 149.96 166.057 149.96 165.899C149.96 165.738 150.019 165.602 150.139 165.489C150.26 165.374 150.405 165.316 150.574 165.316C150.744 165.316 150.888 165.374 151.007 165.489C151.128 165.602 151.189 165.738 151.189 165.899C151.189 166.057 151.128 166.193 151.007 166.308C150.888 166.421 150.744 166.478 150.574 166.478ZM154.514 172.345C154.046 172.345 153.637 172.238 153.288 172.023C152.939 171.809 152.668 171.508 152.475 171.122C152.282 170.736 152.186 170.285 152.186 169.769C152.186 169.251 152.282 168.798 152.475 168.41C152.668 168.021 152.939 167.72 153.288 167.505C153.637 167.291 154.046 167.183 154.514 167.183C154.983 167.183 155.392 167.291 155.741 167.505C156.09 167.72 156.361 168.021 156.554 168.41C156.747 168.798 156.843 169.251 156.843 169.769C156.843 170.285 156.747 170.736 156.554 171.122C156.361 171.508 156.09 171.809 155.741 172.023C155.392 172.238 154.983 172.345 154.514 172.345ZM154.518 171.529C154.821 171.529 155.073 171.449 155.272 171.288C155.472 171.128 155.619 170.914 155.715 170.647C155.812 170.381 155.861 170.087 155.861 169.766C155.861 169.447 155.812 169.154 155.715 168.888C155.619 168.619 155.472 168.403 155.272 168.24C155.073 168.078 154.821 167.997 154.518 167.997C154.212 167.997 153.958 168.078 153.757 168.24C153.557 168.403 153.409 168.619 153.311 168.888C153.216 169.154 153.168 169.447 153.168 169.766C153.168 170.087 153.216 170.381 153.311 170.647C153.409 170.914 153.557 171.128 153.757 171.288C153.958 171.449 154.212 171.529 154.518 171.529ZM158.947 169.278V172.244H157.975V167.248H158.908V168.062H158.97C159.085 167.797 159.265 167.585 159.51 167.424C159.757 167.264 160.068 167.183 160.443 167.183C160.784 167.183 161.082 167.255 161.338 167.398C161.594 167.539 161.792 167.749 161.933 168.029C162.074 168.309 162.144 168.655 162.144 169.067V172.244H161.172V169.184C161.172 168.822 161.078 168.539 160.889 168.335C160.7 168.129 160.441 168.026 160.112 168.026C159.886 168.026 159.685 168.075 159.51 168.172C159.336 168.27 159.199 168.413 159.097 168.601C158.997 168.788 158.947 169.013 158.947 169.278ZM167.238 168.468L166.357 168.624C166.32 168.512 166.261 168.404 166.181 168.302C166.103 168.2 165.997 168.117 165.862 168.052C165.728 167.987 165.56 167.954 165.358 167.954C165.083 167.954 164.853 168.016 164.669 168.14C164.484 168.261 164.392 168.418 164.392 168.611C164.392 168.778 164.454 168.913 164.578 169.015C164.701 169.116 164.901 169.2 165.176 169.265L165.97 169.447C166.429 169.553 166.772 169.717 166.998 169.938C167.223 170.159 167.336 170.447 167.336 170.8C167.336 171.099 167.249 171.366 167.076 171.6C166.904 171.832 166.665 172.015 166.357 172.147C166.051 172.279 165.696 172.345 165.293 172.345C164.734 172.345 164.277 172.226 163.924 171.987C163.57 171.747 163.354 171.405 163.273 170.963L164.213 170.82C164.272 171.065 164.392 171.25 164.574 171.376C164.756 171.5 164.994 171.561 165.287 171.561C165.605 171.561 165.86 171.495 166.051 171.363C166.242 171.228 166.337 171.065 166.337 170.872C166.337 170.716 166.279 170.584 166.162 170.478C166.047 170.372 165.87 170.292 165.631 170.238L164.786 170.052C164.32 169.946 163.975 169.777 163.751 169.545C163.53 169.313 163.42 169.019 163.42 168.663C163.42 168.368 163.502 168.11 163.667 167.889C163.832 167.668 164.059 167.496 164.35 167.372C164.64 167.246 164.973 167.183 165.348 167.183C165.888 167.183 166.313 167.3 166.623 167.535C166.934 167.767 167.138 168.078 167.238 168.468Z" fill="#646C7C"/>
<path d="M211.184 165.367H203.753C201.887 165.367 200.375 166.879 200.375 168.745C200.375 170.61 201.887 172.123 203.753 172.123H211.184C213.049 172.123 214.562 170.61 214.562 168.745C214.562 166.879 213.049 165.367 211.184 165.367Z" fill="#C6CED9"/>
<path d="M185.015 182.244H87.093C85.2276 182.244 83.7153 183.756 83.7153 185.622C83.7153 187.487 85.2276 189 87.093 189H185.015C186.88 189 188.392 187.487 188.392 185.622C188.392 183.756 186.88 182.244 185.015 182.244Z" fill="#C6CED9"/>
<path d="M154.648 196H87.093C85.2276 196 83.7153 197.512 83.7153 199.378C83.7153 201.243 85.2276 202.756 87.093 202.756H154.648C156.514 202.756 158.026 201.243 158.026 199.378C158.026 197.512 156.514 196 154.648 196Z" fill="#C6CED9"/>
</g>
<g filter="url(#filter2_ddd_1_2)">
<path d="M256 219.763C256 214.371 260.371 210 265.763 210H280.619C286.245 210 290.806 214.561 290.806 220.187V229.525H265.763C260.371 229.525 256 225.154 256 219.763Z" fill="#00C008"/>
<path d="M281.511 221.795C280.392 221.795 279.484 220.885 279.484 219.762C279.484 218.64 280.392 217.73 281.511 217.73C282.631 217.73 283.538 218.64 283.538 219.762C283.538 220.885 282.631 221.795 281.511 221.795Z" fill="white"/>
<path d="M273.403 221.795C272.284 221.795 271.376 220.885 271.376 219.762C271.376 218.64 272.284 217.73 273.403 217.73C274.523 217.73 275.43 218.64 275.43 219.762C275.43 220.885 274.523 221.795 273.403 221.795Z" fill="white"/>
<path d="M265.295 221.795C264.176 221.795 263.268 220.885 263.268 219.762C263.268 218.64 264.176 217.73 265.295 217.73C266.415 217.73 267.322 218.64 267.322 219.762C267.322 220.885 266.415 221.795 265.295 221.795Z" fill="white"/>
</g>
<path d="M304.146 218.399C304.109 218.063 303.952 217.802 303.678 217.618C303.403 217.431 303.057 217.337 302.64 217.337C302.342 217.337 302.084 217.384 301.866 217.479C301.648 217.572 301.479 217.699 301.358 217.863C301.24 218.024 301.181 218.207 301.181 218.413C301.181 218.586 301.221 218.735 301.301 218.861C301.384 218.986 301.492 219.092 301.625 219.177C301.759 219.26 301.904 219.33 302.058 219.387C302.212 219.441 302.36 219.486 302.502 219.522L303.212 219.706C303.444 219.763 303.682 219.84 303.926 219.937C304.17 220.034 304.396 220.162 304.605 220.321C304.813 220.479 304.981 220.676 305.109 220.91C305.239 221.145 305.304 221.425 305.304 221.752C305.304 222.164 305.198 222.53 304.985 222.85C304.774 223.17 304.467 223.422 304.065 223.606C303.665 223.791 303.18 223.883 302.612 223.883C302.067 223.883 301.596 223.797 301.198 223.624C300.8 223.451 300.489 223.206 300.264 222.889C300.039 222.569 299.915 222.19 299.891 221.752H300.992C301.014 222.015 301.099 222.234 301.248 222.409C301.4 222.582 301.593 222.711 301.827 222.797C302.064 222.879 302.323 222.921 302.605 222.921C302.915 222.921 303.191 222.872 303.432 222.775C303.676 222.676 303.868 222.538 304.008 222.363C304.148 222.186 304.217 221.978 304.217 221.742C304.217 221.526 304.156 221.35 304.033 221.212C303.912 221.075 303.747 220.961 303.539 220.871C303.333 220.781 303.1 220.702 302.839 220.633L301.98 220.399C301.397 220.24 300.935 220.007 300.594 219.699C300.256 219.391 300.086 218.984 300.086 218.477C300.086 218.058 300.2 217.692 300.427 217.38C300.655 217.067 300.963 216.824 301.351 216.652C301.739 216.476 302.177 216.389 302.665 216.389C303.158 216.389 303.592 216.475 303.969 216.648C304.348 216.821 304.646 217.059 304.864 217.362C305.082 217.663 305.195 218.008 305.205 218.399H304.146ZM309.987 221.5V218.307H311.052V223.763H310.008V222.818H309.951C309.826 223.109 309.624 223.352 309.347 223.546C309.073 223.738 308.731 223.834 308.321 223.834C307.97 223.834 307.66 223.757 307.39 223.603C307.123 223.447 306.912 223.216 306.758 222.91C306.606 222.605 306.531 222.227 306.531 221.777V218.307H307.593V221.649C307.593 222.021 307.696 222.317 307.902 222.537C308.108 222.757 308.375 222.868 308.705 222.868C308.903 222.868 309.101 222.818 309.298 222.718C309.497 222.619 309.661 222.469 309.791 222.267C309.924 222.066 309.989 221.81 309.987 221.5ZM312.479 225.809V218.307H313.517V219.191H313.605C313.667 219.078 313.756 218.946 313.872 218.797C313.988 218.648 314.149 218.518 314.355 218.406C314.561 218.293 314.833 218.236 315.172 218.236C315.612 218.236 316.005 218.347 316.351 218.57C316.697 218.792 316.968 219.113 317.164 219.532C317.363 219.951 317.463 220.456 317.463 221.045C317.463 221.635 317.365 222.141 317.168 222.562C316.971 222.981 316.702 223.304 316.358 223.532C316.015 223.757 315.623 223.869 315.182 223.869C314.851 223.869 314.58 223.814 314.369 223.702C314.161 223.591 313.997 223.461 313.879 223.312C313.76 223.162 313.669 223.03 313.605 222.914H313.541V225.809H312.479ZM313.52 221.035C313.52 221.418 313.576 221.755 313.687 222.044C313.798 222.332 313.959 222.559 314.17 222.722C314.381 222.883 314.639 222.963 314.944 222.963C315.262 222.963 315.527 222.879 315.74 222.711C315.953 222.541 316.114 222.31 316.223 222.019C316.335 221.727 316.39 221.399 316.39 221.035C316.39 220.675 316.336 220.352 316.227 220.065C316.12 219.779 315.959 219.552 315.744 219.387C315.531 219.221 315.264 219.138 314.944 219.138C314.637 219.138 314.376 219.217 314.163 219.376C313.952 219.535 313.792 219.756 313.684 220.04C313.575 220.324 313.52 220.656 313.52 221.035ZM318.653 225.809V218.307H319.69V219.191H319.779C319.84 219.078 319.929 218.946 320.045 218.797C320.161 218.648 320.322 218.518 320.528 218.406C320.734 218.293 321.007 218.236 321.345 218.236C321.786 218.236 322.179 218.347 322.524 218.57C322.87 218.792 323.141 219.113 323.338 219.532C323.537 219.951 323.636 220.456 323.636 221.045C323.636 221.635 323.538 222.141 323.341 222.562C323.145 222.981 322.875 223.304 322.532 223.532C322.188 223.757 321.796 223.869 321.356 223.869C321.024 223.869 320.753 223.814 320.542 223.702C320.334 223.591 320.171 223.461 320.052 223.312C319.934 223.162 319.843 223.03 319.779 222.914H319.715V225.809H318.653ZM319.694 221.035C319.694 221.418 319.749 221.755 319.86 222.044C319.972 222.332 320.133 222.559 320.344 222.722C320.554 222.883 320.812 222.963 321.118 222.963C321.435 222.963 321.7 222.879 321.914 222.711C322.127 222.541 322.288 222.31 322.397 222.019C322.508 221.727 322.564 221.399 322.564 221.035C322.564 220.675 322.509 220.352 322.4 220.065C322.294 219.779 322.133 219.552 321.917 219.387C321.704 219.221 321.438 219.138 321.118 219.138C320.81 219.138 320.55 219.217 320.336 219.376C320.126 219.535 319.966 219.756 319.857 220.04C319.748 220.324 319.694 220.656 319.694 221.035ZM327.124 223.873C326.613 223.873 326.166 223.756 325.785 223.521C325.404 223.287 325.108 222.959 324.897 222.537C324.686 222.116 324.581 221.623 324.581 221.06C324.581 220.494 324.686 219.999 324.897 219.575C325.108 219.151 325.404 218.822 325.785 218.587C326.166 218.353 326.613 218.236 327.124 218.236C327.636 218.236 328.082 218.353 328.463 218.587C328.845 218.822 329.141 219.151 329.351 219.575C329.562 219.999 329.668 220.494 329.668 221.06C329.668 221.623 329.562 222.116 329.351 222.537C329.141 222.959 328.845 223.287 328.463 223.521C328.082 223.756 327.636 223.873 327.124 223.873ZM327.128 222.981C327.459 222.981 327.734 222.894 327.952 222.718C328.17 222.543 328.331 222.31 328.435 222.019C328.542 221.727 328.595 221.407 328.595 221.056C328.595 220.708 328.542 220.388 328.435 220.097C328.331 219.803 328.17 219.568 327.952 219.39C327.734 219.213 327.459 219.124 327.128 219.124C326.794 219.124 326.517 219.213 326.297 219.39C326.079 219.568 325.917 219.803 325.81 220.097C325.706 220.388 325.654 220.708 325.654 221.056C325.654 221.407 325.706 221.727 325.81 222.019C325.917 222.31 326.079 222.543 326.297 222.718C326.517 222.894 326.794 222.981 327.128 222.981ZM330.853 223.763V218.307H331.88V219.174H331.936C332.036 218.88 332.211 218.649 332.462 218.481C332.715 218.31 333.002 218.225 333.322 218.225C333.388 218.225 333.466 218.228 333.556 218.232C333.648 218.237 333.721 218.243 333.773 218.25V219.266C333.73 219.254 333.654 219.241 333.545 219.227C333.436 219.21 333.328 219.202 333.219 219.202C332.968 219.202 332.744 219.255 332.547 219.362C332.353 219.466 332.199 219.612 332.086 219.799C331.972 219.983 331.915 220.194 331.915 220.431V223.763H330.853ZM337.561 218.307V219.159H334.581V218.307H337.561ZM335.38 217H336.442V222.161C336.442 222.367 336.473 222.522 336.534 222.626C336.596 222.728 336.675 222.798 336.772 222.836C336.872 222.871 336.98 222.889 337.096 222.889C337.181 222.889 337.255 222.883 337.319 222.871C337.383 222.859 337.433 222.85 337.469 222.843L337.66 223.72C337.599 223.744 337.511 223.767 337.398 223.791C337.284 223.817 337.142 223.831 336.971 223.834C336.692 223.838 336.431 223.789 336.19 223.685C335.948 223.58 335.753 223.419 335.604 223.201C335.455 222.984 335.38 222.71 335.38 222.381V217ZM342.971 223.883C342.625 223.883 342.312 223.82 342.033 223.692C341.753 223.561 341.532 223.373 341.369 223.127C341.208 222.881 341.127 222.579 341.127 222.221C341.127 221.913 341.186 221.66 341.305 221.461C341.423 221.262 341.583 221.105 341.784 220.989C341.986 220.873 342.211 220.785 342.459 220.726C342.708 220.667 342.961 220.622 343.219 220.591C343.546 220.553 343.811 220.522 344.015 220.498C344.219 220.472 344.367 220.431 344.459 220.374C344.551 220.317 344.597 220.225 344.597 220.097V220.072C344.597 219.762 344.51 219.522 344.335 219.351C344.162 219.181 343.904 219.095 343.56 219.095C343.203 219.095 342.921 219.175 342.715 219.333C342.511 219.49 342.37 219.664 342.292 219.855L341.294 219.628C341.412 219.297 341.585 219.029 341.813 218.825C342.042 218.619 342.306 218.47 342.605 218.378C342.903 218.283 343.217 218.236 343.546 218.236C343.764 218.236 343.995 218.262 344.239 218.314C344.485 218.364 344.715 218.456 344.928 218.591C345.143 218.726 345.32 218.919 345.457 219.17C345.594 219.419 345.663 219.742 345.663 220.14V223.763H344.626V223.017H344.583C344.515 223.154 344.412 223.289 344.274 223.422C344.137 223.554 343.96 223.664 343.745 223.752C343.529 223.84 343.271 223.883 342.971 223.883ZM343.202 223.031C343.495 223.031 343.746 222.973 343.955 222.857C344.165 222.741 344.325 222.589 344.434 222.402C344.545 222.213 344.601 222.01 344.601 221.795V221.092C344.563 221.129 344.49 221.165 344.381 221.198C344.274 221.229 344.152 221.256 344.015 221.28C343.878 221.301 343.744 221.321 343.614 221.34C343.483 221.357 343.374 221.371 343.287 221.383C343.081 221.409 342.892 221.453 342.722 221.514C342.554 221.576 342.419 221.665 342.317 221.781C342.218 221.894 342.168 222.046 342.168 222.235C342.168 222.498 342.265 222.697 342.459 222.832C342.653 222.965 342.901 223.031 343.202 223.031ZM349.365 225.922C348.932 225.922 348.559 225.865 348.246 225.752C347.936 225.638 347.683 225.488 347.486 225.301C347.29 225.114 347.143 224.909 347.046 224.686L347.959 224.31C348.022 224.414 348.108 224.524 348.214 224.64C348.323 224.758 348.47 224.859 348.655 224.942C348.842 225.025 349.082 225.066 349.376 225.066C349.778 225.066 350.111 224.968 350.374 224.771C350.637 224.577 350.768 224.267 350.768 223.841V222.768H350.701C350.637 222.884 350.544 223.013 350.424 223.155C350.305 223.297 350.142 223.421 349.933 223.525C349.725 223.629 349.454 223.681 349.12 223.681C348.689 223.681 348.301 223.58 347.955 223.379C347.612 223.175 347.339 222.876 347.138 222.48C346.939 222.083 346.84 221.594 346.84 221.013C346.84 220.433 346.938 219.936 347.134 219.522C347.333 219.107 347.606 218.79 347.951 218.57C348.297 218.347 348.689 218.236 349.127 218.236C349.466 218.236 349.739 218.293 349.948 218.406C350.156 218.518 350.318 218.648 350.434 218.797C350.553 218.946 350.644 219.078 350.708 219.191H350.786V218.307H351.827V223.883C351.827 224.352 351.718 224.737 351.5 225.038C351.282 225.339 350.987 225.561 350.615 225.706C350.246 225.85 349.829 225.922 349.365 225.922ZM349.354 222.8C349.66 222.8 349.918 222.729 350.129 222.587C350.342 222.443 350.503 222.237 350.612 221.969C350.723 221.699 350.779 221.376 350.779 220.999C350.779 220.632 350.724 220.309 350.615 220.03C350.506 219.75 350.347 219.532 350.136 219.376C349.925 219.217 349.665 219.138 349.354 219.138C349.035 219.138 348.768 219.221 348.555 219.387C348.342 219.55 348.181 219.773 348.072 220.054C347.966 220.336 347.912 220.651 347.912 220.999C347.912 221.357 347.967 221.671 348.076 221.941C348.185 222.21 348.346 222.421 348.559 222.573C348.774 222.724 349.04 222.8 349.354 222.8ZM355.602 223.873C355.065 223.873 354.602 223.758 354.214 223.528C353.828 223.296 353.529 222.971 353.318 222.551C353.11 222.13 353.006 221.636 353.006 221.07C353.006 220.511 353.11 220.019 353.318 219.593C353.529 219.166 353.823 218.834 354.199 218.595C354.578 218.355 355.021 218.236 355.528 218.236C355.836 218.236 356.134 218.287 356.423 218.389C356.712 218.49 356.971 218.65 357.201 218.868C357.431 219.086 357.612 219.369 357.744 219.717C357.877 220.063 357.943 220.483 357.943 220.978V221.354H353.606V220.559H356.902C356.902 220.279 356.846 220.032 356.732 219.816C356.618 219.599 356.458 219.427 356.252 219.301C356.049 219.176 355.81 219.113 355.535 219.113C355.237 219.113 354.976 219.187 354.753 219.333C354.533 219.478 354.363 219.667 354.242 219.902C354.124 220.134 354.064 220.386 354.064 220.658V221.28C354.064 221.645 354.128 221.955 354.256 222.21C354.386 222.466 354.568 222.662 354.8 222.797C355.032 222.929 355.303 222.995 355.613 222.995C355.814 222.995 355.998 222.967 356.164 222.91C356.329 222.851 356.473 222.763 356.593 222.647C356.714 222.531 356.807 222.388 356.87 222.218L357.876 222.399C357.795 222.695 357.651 222.954 357.442 223.177C357.236 223.397 356.977 223.569 356.664 223.692C356.354 223.812 356 223.873 355.602 223.873ZM360.184 220.523V223.763H359.122V218.307H360.141V219.195H360.208C360.334 218.906 360.531 218.674 360.798 218.499C361.068 218.323 361.408 218.236 361.818 218.236C362.189 218.236 362.515 218.314 362.794 218.47C363.074 218.624 363.29 218.854 363.444 219.159C363.598 219.465 363.675 219.842 363.675 220.292V223.763H362.613V220.42C362.613 220.025 362.51 219.716 362.304 219.493C362.098 219.268 361.815 219.156 361.455 219.156C361.209 219.156 360.99 219.209 360.798 219.316C360.609 219.422 360.458 219.578 360.347 219.784C360.238 219.988 360.184 220.234 360.184 220.523ZM367.646 218.307V219.159H364.666V218.307H367.646ZM365.465 217H366.527V222.161C366.527 222.367 366.558 222.522 366.62 222.626C366.681 222.728 366.761 222.798 366.858 222.836C366.957 222.871 367.065 222.889 367.181 222.889C367.266 222.889 367.341 222.883 367.405 222.871C367.469 222.859 367.518 222.85 367.554 222.843L367.746 223.72C367.684 223.744 367.597 223.767 367.483 223.791C367.369 223.817 367.227 223.831 367.057 223.834C366.777 223.838 366.517 223.789 366.275 223.685C366.034 223.58 365.838 223.419 365.689 223.201C365.54 222.984 365.465 222.71 365.465 222.381V217ZM371.468 223.763V218.307H372.53V223.763H371.468ZM372.005 217.465C371.82 217.465 371.661 217.403 371.529 217.28C371.398 217.155 371.333 217.006 371.333 216.833C371.333 216.658 371.398 216.508 371.529 216.385C371.661 216.26 371.82 216.197 372.005 216.197C372.189 216.197 372.347 216.26 372.477 216.385C372.61 216.508 372.676 216.658 372.676 216.833C372.676 217.006 372.61 217.155 372.477 217.28C372.347 217.403 372.189 217.465 372.005 217.465ZM378.047 219.639L377.085 219.809C377.045 219.686 376.981 219.569 376.893 219.458C376.808 219.346 376.692 219.255 376.545 219.184C376.398 219.113 376.215 219.078 375.994 219.078C375.694 219.078 375.443 219.145 375.241 219.28C375.04 219.413 374.939 219.584 374.939 219.795C374.939 219.977 375.007 220.124 375.142 220.236C375.277 220.347 375.495 220.438 375.796 220.509L376.662 220.708C377.164 220.824 377.538 221.003 377.785 221.244C378.031 221.486 378.154 221.8 378.154 222.186C378.154 222.512 378.059 222.804 377.87 223.059C377.683 223.313 377.421 223.512 377.085 223.656C376.751 223.801 376.364 223.873 375.923 223.873C375.312 223.873 374.814 223.743 374.428 223.482C374.042 223.219 373.805 222.846 373.718 222.363L374.744 222.207C374.808 222.475 374.939 222.677 375.138 222.814C375.337 222.949 375.597 223.017 375.916 223.017C376.264 223.017 376.543 222.945 376.751 222.8C376.959 222.653 377.064 222.475 377.064 222.264C377.064 222.093 377 221.95 376.872 221.834C376.746 221.718 376.553 221.63 376.293 221.571L375.369 221.369C374.86 221.253 374.484 221.068 374.24 220.815C373.998 220.561 373.877 220.24 373.877 219.852C373.877 219.53 373.967 219.248 374.147 219.007C374.327 218.765 374.576 218.577 374.893 218.442C375.211 218.304 375.574 218.236 375.984 218.236C376.573 218.236 377.038 218.364 377.376 218.619C377.715 218.873 377.939 219.213 378.047 219.639ZM384.516 218.307V219.159H381.536V218.307H384.516ZM382.335 217H383.397V222.161C383.397 222.367 383.428 222.522 383.489 222.626C383.551 222.728 383.63 222.798 383.727 222.836C383.827 222.871 383.934 222.889 384.05 222.889C384.136 222.889 384.21 222.883 384.274 222.871C384.338 222.859 384.388 222.85 384.423 222.843L384.615 223.72C384.554 223.744 384.466 223.767 384.352 223.791C384.239 223.817 384.097 223.831 383.926 223.834C383.647 223.838 383.386 223.789 383.145 223.685C382.903 223.58 382.708 223.419 382.559 223.201C382.409 222.984 382.335 222.71 382.335 222.381V217ZM386.362 225.809C386.203 225.809 386.059 225.796 385.928 225.77C385.798 225.746 385.701 225.72 385.637 225.691L385.893 224.821C386.087 224.873 386.26 224.896 386.412 224.889C386.563 224.882 386.697 224.825 386.813 224.718C386.931 224.612 387.036 224.438 387.125 224.196L387.257 223.834L385.261 218.307H386.397L387.779 222.541H387.836L389.218 218.307H390.358L388.109 224.491C388.005 224.775 387.873 225.015 387.712 225.212C387.551 225.411 387.359 225.56 387.136 225.659C386.914 225.759 386.655 225.809 386.362 225.809ZM391.356 225.809V218.307H392.393V219.191H392.482C392.543 219.078 392.632 218.946 392.748 218.797C392.864 218.648 393.025 218.518 393.231 218.406C393.437 218.293 393.71 218.236 394.048 218.236C394.489 218.236 394.882 218.347 395.228 218.57C395.573 218.792 395.844 219.113 396.041 219.532C396.24 219.951 396.339 220.456 396.339 221.045C396.339 221.635 396.241 222.141 396.045 222.562C395.848 222.981 395.578 223.304 395.235 223.532C394.891 223.757 394.499 223.869 394.059 223.869C393.727 223.869 393.456 223.814 393.246 223.702C393.037 223.591 392.874 223.461 392.755 223.312C392.637 223.162 392.546 223.03 392.482 222.914H392.418V225.809H391.356ZM392.397 221.035C392.397 221.418 392.452 221.755 392.564 222.044C392.675 222.332 392.836 222.559 393.047 222.722C393.257 222.883 393.516 222.963 393.821 222.963C394.138 222.963 394.404 222.879 394.617 222.711C394.83 222.541 394.991 222.31 395.1 222.019C395.211 221.727 395.267 221.399 395.267 221.035C395.267 220.675 395.212 220.352 395.103 220.065C394.997 219.779 394.836 219.552 394.62 219.387C394.407 219.221 394.141 219.138 393.821 219.138C393.513 219.138 393.253 219.217 393.04 219.376C392.829 219.535 392.669 219.756 392.56 220.04C392.451 220.324 392.397 220.656 392.397 221.035ZM397.529 223.763V218.307H398.591V223.763H397.529ZM398.066 217.465C397.881 217.465 397.722 217.403 397.59 217.28C397.459 217.155 397.394 217.006 397.394 216.833C397.394 216.658 397.459 216.508 397.59 216.385C397.722 216.26 397.881 216.197 398.066 216.197C398.25 216.197 398.408 216.26 398.538 216.385C398.671 216.508 398.737 216.658 398.737 216.833C398.737 217.006 398.671 217.155 398.538 217.28C398.408 217.403 398.25 217.465 398.066 217.465ZM401.082 220.523V223.763H400.02V218.307H401.04V219.195H401.107C401.233 218.906 401.429 218.674 401.697 218.499C401.967 218.323 402.306 218.236 402.716 218.236C403.088 218.236 403.413 218.314 403.693 218.47C403.972 218.624 404.189 218.854 404.343 219.159C404.497 219.465 404.574 219.842 404.574 220.292V223.763H403.512V220.42C403.512 220.025 403.409 219.716 403.203 219.493C402.997 219.268 402.714 219.156 402.354 219.156C402.108 219.156 401.888 219.209 401.697 219.316C401.507 219.422 401.357 219.578 401.246 219.784C401.137 219.988 401.082 220.234 401.082 220.523ZM408.286 225.922C407.852 225.922 407.479 225.865 407.167 225.752C406.857 225.638 406.603 225.488 406.407 225.301C406.21 225.114 406.063 224.909 405.966 224.686L406.879 224.31C406.943 224.414 407.028 224.524 407.135 224.64C407.244 224.758 407.391 224.859 407.575 224.942C407.762 225.025 408.003 225.066 408.296 225.066C408.699 225.066 409.032 224.968 409.294 224.771C409.557 224.577 409.689 224.267 409.689 223.841V222.768H409.621C409.557 222.884 409.465 223.013 409.344 223.155C409.226 223.297 409.062 223.421 408.854 223.525C408.646 223.629 408.374 223.681 408.041 223.681C407.61 223.681 407.221 223.58 406.875 223.379C406.532 223.175 406.26 222.876 406.059 222.48C405.86 222.083 405.76 221.594 405.76 221.013C405.76 220.433 405.858 219.936 406.055 219.522C406.254 219.107 406.526 218.79 406.872 218.57C407.218 218.347 407.61 218.236 408.048 218.236C408.386 218.236 408.66 218.293 408.868 218.406C409.077 218.518 409.239 218.648 409.355 218.797C409.473 218.946 409.564 219.078 409.628 219.191H409.706V218.307H410.747V223.883C410.747 224.352 410.638 224.737 410.42 225.038C410.203 225.339 409.908 225.561 409.536 225.706C409.167 225.85 408.75 225.922 408.286 225.922ZM408.275 222.8C408.58 222.8 408.839 222.729 409.049 222.587C409.262 222.443 409.423 222.237 409.532 221.969C409.644 221.699 409.699 221.376 409.699 220.999C409.699 220.632 409.645 220.309 409.536 220.03C409.427 219.75 409.267 219.532 409.056 219.376C408.846 219.217 408.585 219.138 408.275 219.138C407.955 219.138 407.689 219.221 407.476 219.387C407.263 219.55 407.102 219.773 406.993 220.054C406.886 220.336 406.833 220.651 406.833 220.999C406.833 221.357 406.887 221.671 406.996 221.941C407.105 222.21 407.266 222.421 407.479 222.573C407.695 222.724 407.96 222.8 408.275 222.8ZM412.871 223.83C412.677 223.83 412.51 223.762 412.37 223.624C412.231 223.484 412.161 223.316 412.161 223.12C412.161 222.926 412.231 222.76 412.37 222.623C412.51 222.483 412.677 222.413 412.871 222.413C413.065 222.413 413.232 222.483 413.372 222.623C413.512 222.76 413.582 222.926 413.582 223.12C413.582 223.25 413.548 223.37 413.482 223.479C413.418 223.585 413.333 223.67 413.226 223.734C413.12 223.798 413.001 223.83 412.871 223.83ZM415.704 223.83C415.51 223.83 415.343 223.762 415.203 223.624C415.063 223.484 414.994 223.316 414.994 223.12C414.994 222.926 415.063 222.76 415.203 222.623C415.343 222.483 415.51 222.413 415.704 222.413C415.898 222.413 416.065 222.483 416.205 222.623C416.345 222.76 416.414 222.926 416.414 223.12C416.414 223.25 416.381 223.37 416.315 223.479C416.251 223.585 416.166 223.67 416.059 223.734C415.953 223.798 415.834 223.83 415.704 223.83ZM418.537 223.83C418.343 223.83 418.176 223.762 418.036 223.624C417.896 223.484 417.826 223.316 417.826 223.12C417.826 222.926 417.896 222.76 418.036 222.623C418.176 222.483 418.343 222.413 418.537 222.413C418.731 222.413 418.898 222.483 419.038 222.623C419.177 222.76 419.247 222.926 419.247 223.12C419.247 223.25 419.214 223.37 419.148 223.479C419.084 223.585 418.998 223.67 418.892 223.734C418.785 223.798 418.667 223.83 418.537 223.83Z" fill="#76767C"/>
<g filter="url(#filter3_ddddd_1_2)">
<path d="M403.303 50H291.835C289.165 50 287 52.1645 287 54.8346V71.7559C287 74.426 289.165 76.5905 291.835 76.5905H403.303C405.973 76.5905 408.138 74.426 408.138 71.7559V54.8346C408.138 52.1645 405.973 50 403.303 50Z" fill="white"/>
<mask id="mask2_1_2" style="mask-type:luminance" maskUnits="userSpaceOnUse" x="299" y="57" width="13" height="13">
<path d="M311.173 57.2522H299.086V69.3388H311.173V57.2522Z" fill="white"/>
</mask>
<g mask="url(#mask2_1_2)">
<path fill-rule="evenodd" clip-rule="evenodd" d="M305.13 58.1333C302.279 58.1333 299.968 60.4444 299.968 63.2953C299.968 66.1462 302.279 68.4573 305.13 68.4573C307.98 68.4573 310.292 66.1462 310.292 63.2953C310.292 63.0867 310.461 62.9176 310.669 62.9176C310.878 62.9176 311.047 63.0867 311.047 63.2953C311.047 66.5634 308.398 69.2127 305.13 69.2127C301.861 69.2127 299.212 66.5634 299.212 63.2953C299.212 60.0272 301.861 57.3779 305.13 57.3779C305.338 57.3779 305.507 57.547 305.507 57.7556C305.507 57.9642 305.338 58.1333 305.13 58.1333ZM305.13 59.3924C305.338 59.3924 305.507 59.5615 305.507 59.7701V62.8321C305.507 63.0158 305.588 63.1904 305.727 63.31L307.138 64.5194C307.296 64.6551 307.315 64.8936 307.179 65.0519C307.043 65.2103 306.805 65.2287 306.646 65.0929L305.235 63.8836C304.929 63.6205 304.752 63.2364 304.752 62.8321V59.7701C304.752 59.5615 304.921 59.3924 305.13 59.3924ZM309.032 59.896C309.311 59.896 309.536 59.6705 309.536 59.3924C309.536 59.1142 309.311 58.8888 309.032 58.8888C308.754 58.8888 308.529 59.1142 308.529 59.3924C308.529 59.6705 308.754 59.896 309.032 59.896ZM307.899 58.2592C307.899 58.5374 307.674 58.7628 307.396 58.7628C307.118 58.7628 306.892 58.5374 306.892 58.2592C306.892 57.9811 307.118 57.7556 307.396 57.7556C307.674 57.7556 307.899 57.9811 307.899 58.2592ZM310.166 61.5327C310.444 61.5327 310.669 61.3072 310.669 61.0291C310.669 60.7509 310.444 60.5255 310.166 60.5255C309.887 60.5255 309.662 60.7509 309.662 61.0291C309.662 61.3072 309.887 61.5327 310.166 61.5327Z" fill="#848B96"/>
</g>
<path d="M323.72 59.7632H324.784V64.3884C324.784 64.8806 324.669 65.3166 324.437 65.6966C324.206 66.0743 323.881 66.3719 323.462 66.5894C323.043 66.8046 322.552 66.9122 321.989 66.9122C321.428 66.9122 320.939 66.8046 320.52 66.5894C320.101 66.3719 319.776 66.0743 319.544 65.6966C319.313 65.3166 319.198 64.8806 319.198 64.3884V59.7632H320.259V64.3026C320.259 64.6207 320.328 64.9034 320.468 65.1507C320.61 65.3979 320.81 65.5925 321.069 65.7344C321.328 65.874 321.634 65.9439 321.989 65.9439C322.346 65.9439 322.654 65.874 322.913 65.7344C323.174 65.5925 323.373 65.3979 323.51 65.1507C323.65 64.9034 323.72 64.6207 323.72 64.3026V59.7632ZM326.244 68.7732V61.5213H327.247V62.3763H327.333C327.392 62.2664 327.478 62.1393 327.59 61.9951C327.703 61.8509 327.858 61.725 328.057 61.6174C328.257 61.5075 328.52 61.4526 328.847 61.4526C329.273 61.4526 329.653 61.5602 329.987 61.7754C330.321 61.9905 330.583 62.3007 330.773 62.7059C330.966 63.1111 331.062 63.5986 331.062 64.1686C331.062 64.7386 330.967 65.2274 330.777 65.6348C330.587 66.04 330.326 66.3525 329.994 66.5722C329.662 66.7897 329.283 66.8984 328.857 66.8984C328.537 66.8984 328.275 66.8446 328.071 66.737C327.87 66.6294 327.712 66.5035 327.597 66.3593C327.483 66.2151 327.395 66.0869 327.333 65.9748H327.271V68.7732H326.244ZM327.25 64.1583C327.25 64.5292 327.304 64.8542 327.412 65.1335C327.519 65.4128 327.675 65.6314 327.879 65.7893C328.083 65.945 328.332 66.0228 328.627 66.0228C328.934 66.0228 329.191 65.9416 329.397 65.779C329.603 65.6142 329.758 65.391 329.864 65.1095C329.971 64.8279 330.025 64.5109 330.025 64.1583C330.025 63.8104 329.972 63.4979 329.867 63.2209C329.764 62.944 329.608 62.7253 329.4 62.5651C329.194 62.4049 328.936 62.3248 328.627 62.3248C328.33 62.3248 328.078 62.4014 327.872 62.5548C327.668 62.7082 327.514 62.9222 327.408 63.1969C327.303 63.4716 327.25 63.7921 327.25 64.1583ZM334.187 66.8984C333.761 66.8984 333.381 66.7897 333.047 66.5722C332.715 66.3525 332.454 66.04 332.264 65.6348C332.076 65.2274 331.982 64.7386 331.982 64.1686C331.982 63.5986 332.077 63.1111 332.267 62.7059C332.459 62.3007 332.723 61.9905 333.057 61.7754C333.391 61.5602 333.77 61.4526 334.193 61.4526C334.521 61.4526 334.784 61.5075 334.983 61.6174C335.185 61.725 335.34 61.8509 335.45 61.9951C335.562 62.1393 335.649 62.2664 335.711 62.3763H335.773V59.7632H336.8V66.7954H335.797V65.9748H335.711C335.649 66.0869 335.56 66.2151 335.443 66.3593C335.329 66.5035 335.171 66.6294 334.969 66.737C334.768 66.8446 334.507 66.8984 334.187 66.8984ZM334.413 66.0228C334.708 66.0228 334.958 65.945 335.162 65.7893C335.368 65.6314 335.523 65.4128 335.629 65.1335C335.736 64.8542 335.79 64.5292 335.79 64.1583C335.79 63.7921 335.737 63.4716 335.632 63.1969C335.527 62.9222 335.372 62.7082 335.169 62.5548C334.965 62.4014 334.713 62.3248 334.413 62.3248C334.104 62.3248 333.847 62.4049 333.641 62.5651C333.435 62.7253 333.279 62.944 333.174 63.2209C333.071 63.4979 333.019 63.8104 333.019 64.1583C333.019 64.5109 333.072 64.8279 333.177 65.1095C333.282 65.391 333.438 65.6142 333.644 65.779C333.852 65.9416 334.109 66.0228 334.413 66.0228ZM339.8 66.9122C339.466 66.9122 339.163 66.8503 338.893 66.7267C338.623 66.6008 338.409 66.4188 338.251 66.1808C338.095 65.9427 338.018 65.6508 338.018 65.3052C338.018 65.0076 338.075 64.7627 338.189 64.5704C338.304 64.3781 338.458 64.2259 338.653 64.1137C338.847 64.0015 339.065 63.9168 339.305 63.8596C339.546 63.8024 339.791 63.7589 340.04 63.7291C340.356 63.6925 340.612 63.6627 340.809 63.6399C341.006 63.6147 341.149 63.5746 341.238 63.5197C341.328 63.4647 341.372 63.3755 341.372 63.2518V63.2278C341.372 62.9279 341.288 62.6956 341.118 62.5308C340.951 62.366 340.702 62.2835 340.37 62.2835C340.024 62.2835 339.752 62.3602 339.553 62.5136C339.356 62.6647 339.219 62.8329 339.144 63.0184L338.179 62.7986C338.293 62.4781 338.461 62.2195 338.68 62.0226C338.902 61.8234 339.158 61.6792 339.446 61.5899C339.734 61.4984 340.038 61.4526 340.356 61.4526C340.567 61.4526 340.79 61.4778 341.026 61.5281C341.264 61.5762 341.486 61.6655 341.692 61.796C341.9 61.9264 342.071 62.113 342.203 62.3557C342.336 62.596 342.402 62.9085 342.402 63.2931V66.7954H341.4V66.0743H341.359C341.292 66.2071 341.193 66.3376 341.06 66.4658C340.927 66.594 340.757 66.7004 340.548 66.7851C340.34 66.8698 340.09 66.9122 339.8 66.9122ZM340.023 66.0881C340.307 66.0881 340.549 66.032 340.751 65.9198C340.955 65.8077 341.109 65.6611 341.214 65.4803C341.322 65.2972 341.376 65.1015 341.376 64.8931V64.2133C341.339 64.2499 341.268 64.2842 341.163 64.3163C341.06 64.346 340.942 64.3724 340.809 64.3953C340.676 64.4159 340.547 64.4353 340.421 64.4536C340.295 64.4697 340.19 64.4834 340.105 64.4948C339.906 64.52 339.724 64.5624 339.559 64.6219C339.397 64.6814 339.266 64.7672 339.168 64.8794C339.072 64.9893 339.024 65.1358 339.024 65.3189C339.024 65.573 339.118 65.7653 339.305 65.8958C339.493 66.024 339.732 66.0881 340.023 66.0881ZM346.232 61.5213V62.3454H343.351V61.5213H346.232ZM344.124 60.2577H345.15V65.2468C345.15 65.446 345.18 65.5959 345.24 65.6966C345.299 65.7951 345.376 65.8626 345.47 65.8992C345.566 65.9336 345.67 65.9507 345.782 65.9507C345.864 65.9507 345.937 65.945 345.998 65.9336C346.06 65.9221 346.108 65.913 346.143 65.9061L346.328 66.7542C346.269 66.7771 346.184 66.8 346.074 66.8229C345.964 66.8481 345.827 66.8618 345.662 66.8641C345.392 66.8687 345.14 66.8206 344.906 66.7199C344.673 66.6191 344.484 66.4635 344.34 66.2529C344.196 66.0423 344.124 65.7779 344.124 65.4597V60.2577ZM349.584 66.9019C349.064 66.9019 348.617 66.7908 348.241 66.5688C347.868 66.3445 347.58 66.0297 347.376 65.6245C347.175 65.2171 347.074 64.7398 347.074 64.1927C347.074 63.6524 347.175 63.1763 347.376 62.7643C347.58 62.3522 347.864 62.0306 348.228 61.7994C348.594 61.5682 349.022 61.4526 349.512 61.4526C349.809 61.4526 350.098 61.5018 350.377 61.6002C350.656 61.6987 350.907 61.8532 351.129 62.0638C351.351 62.2744 351.526 62.5479 351.655 62.8844C351.783 63.2187 351.847 63.625 351.847 64.1034V64.4674H347.654V63.6982H350.841C350.841 63.4281 350.786 63.1889 350.676 62.9806C350.566 62.77 350.412 62.604 350.212 62.4827C350.016 62.3614 349.784 62.3007 349.519 62.3007C349.23 62.3007 348.979 62.3717 348.763 62.5136C348.55 62.6532 348.386 62.8364 348.269 63.063C348.154 63.2873 348.097 63.5311 348.097 63.7944V64.3953C348.097 64.7478 348.159 65.0477 348.283 65.2949C348.409 65.5421 348.584 65.731 348.808 65.8614C349.032 65.9896 349.294 66.0537 349.594 66.0537C349.789 66.0537 349.966 66.0263 350.127 65.9713C350.287 65.9141 350.425 65.8294 350.542 65.7172C350.659 65.6051 350.748 65.4666 350.81 65.3018L351.782 65.4769C351.704 65.763 351.564 66.0137 351.363 66.2289C351.164 66.4417 350.913 66.6077 350.611 66.7267C350.311 66.8435 349.969 66.9019 349.584 66.9019ZM354.96 66.8984C354.535 66.8984 354.155 66.7897 353.82 66.5722C353.488 66.3525 353.227 66.04 353.037 65.6348C352.85 65.2274 352.756 64.7386 352.756 64.1686C352.756 63.5986 352.851 63.1111 353.041 62.7059C353.233 62.3007 353.496 61.9905 353.831 61.7754C354.165 61.5602 354.544 61.4526 354.967 61.4526C355.295 61.4526 355.558 61.5075 355.757 61.6174C355.958 61.725 356.114 61.8509 356.224 61.9951C356.336 62.1393 356.423 62.2664 356.485 62.3763H356.547V59.7632H357.573V66.7954H356.571V65.9748H356.485C356.423 66.0869 356.334 66.2151 356.217 66.3593C356.103 66.5035 355.945 66.6294 355.743 66.737C355.542 66.8446 355.281 66.8984 354.96 66.8984ZM355.187 66.0228C355.482 66.0228 355.732 65.945 355.935 65.7893C356.141 65.6314 356.297 65.4128 356.402 65.1335C356.51 64.8542 356.564 64.5292 356.564 64.1583C356.564 63.7921 356.511 63.4716 356.406 63.1969C356.301 62.9222 356.146 62.7082 355.942 62.5548C355.739 62.4014 355.487 62.3248 355.187 62.3248C354.878 62.3248 354.62 62.4049 354.414 62.5651C354.208 62.7253 354.053 62.944 353.947 63.2209C353.844 63.4979 353.793 63.8104 353.793 64.1583C353.793 64.5109 353.846 64.8279 353.951 65.1095C354.056 65.391 354.212 65.6142 354.418 65.779C354.626 65.9416 354.882 66.0228 355.187 66.0228ZM361.584 66.7954V66.0263L363.963 63.5609C364.218 63.2931 364.427 63.0584 364.592 62.857C364.759 62.6532 364.884 62.4598 364.966 62.2767C365.048 62.0936 365.09 61.899 365.09 61.693C365.09 61.4595 365.035 61.258 364.925 61.0886C364.815 60.9169 364.665 60.7853 364.475 60.6938C364.285 60.5999 364.071 60.553 363.833 60.553C363.581 60.553 363.361 60.6045 363.174 60.7075C362.986 60.8105 362.842 60.9559 362.741 61.1436C362.64 61.3313 362.59 61.551 362.59 61.8028H361.577C361.577 61.3748 361.675 61.0005 361.872 60.68C362.069 60.3595 362.339 60.1112 362.683 59.9349C363.026 59.7564 363.416 59.6671 363.854 59.6671C364.295 59.6671 364.685 59.7552 365.021 59.9315C365.36 60.1054 365.624 60.3435 365.814 60.6457C366.004 60.9456 366.099 61.2843 366.099 61.6621C366.099 61.923 366.05 62.1782 365.952 62.4278C365.855 62.6773 365.687 62.9554 365.447 63.2621C365.206 63.5666 364.872 63.9363 364.444 64.3712L363.047 65.834V65.8855H366.212V66.7954H361.584ZM371.48 62.8089L370.549 62.9737C370.51 62.8547 370.449 62.7414 370.364 62.6338C370.281 62.5262 370.169 62.4381 370.027 62.3694C369.885 62.3007 369.708 62.2664 369.495 62.2664C369.204 62.2664 368.962 62.3316 368.767 62.4621C368.573 62.5903 368.475 62.7563 368.475 62.96C368.475 63.1362 368.541 63.2782 368.671 63.3858C368.801 63.4933 369.012 63.5815 369.303 63.6502L370.141 63.8424C370.626 63.9546 370.988 64.1274 371.226 64.3609C371.464 64.5944 371.583 64.8977 371.583 65.2709C371.583 65.5868 371.491 65.8683 371.308 66.1155C371.127 66.3605 370.874 66.5528 370.549 66.6924C370.226 66.832 369.852 66.9019 369.426 66.9019C368.836 66.9019 368.354 66.776 367.981 66.5241C367.608 66.2701 367.379 65.9095 367.294 65.4425L368.286 65.2915C368.348 65.5501 368.475 65.7458 368.668 65.8786C368.86 66.0091 369.111 66.0743 369.42 66.0743C369.756 66.0743 370.025 66.0045 370.226 65.8649C370.428 65.723 370.529 65.5501 370.529 65.3464C370.529 65.1816 370.467 65.0431 370.343 64.9309C370.222 64.8188 370.035 64.7341 369.784 64.6768L368.891 64.4811C368.399 64.3689 368.035 64.1904 367.799 63.9455C367.565 63.7005 367.449 63.3903 367.449 63.0149C367.449 62.7036 367.536 62.4312 367.71 62.1977C367.884 61.9642 368.124 61.7822 368.431 61.6518C368.737 61.519 369.089 61.4526 369.485 61.4526C370.055 61.4526 370.503 61.5762 370.831 61.8234C371.158 62.0684 371.374 62.3969 371.48 62.8089ZM376.805 66.9122C376.471 66.9122 376.169 66.8503 375.899 66.7267C375.629 66.6008 375.415 66.4188 375.257 66.1808C375.101 65.9427 375.023 65.6508 375.023 65.3052C375.023 65.0076 375.081 64.7627 375.195 64.5704C375.309 64.3781 375.464 64.2259 375.659 64.1137C375.853 64.0015 376.071 63.9168 376.311 63.8596C376.551 63.8024 376.796 63.7589 377.046 63.7291C377.362 63.6925 377.618 63.6627 377.815 63.6399C378.012 63.6147 378.155 63.5746 378.244 63.5197C378.333 63.4647 378.378 63.3755 378.378 63.2518V63.2278C378.378 62.9279 378.293 62.6956 378.124 62.5308C377.957 62.366 377.707 62.2835 377.375 62.2835C377.03 62.2835 376.757 62.3602 376.558 62.5136C376.361 62.6647 376.225 62.8329 376.15 63.0184L375.185 62.7986C375.299 62.4781 375.466 62.2195 375.686 62.0226C375.908 61.8234 376.163 61.6792 376.452 61.5899C376.74 61.4984 377.043 61.4526 377.362 61.4526C377.572 61.4526 377.795 61.4778 378.031 61.5281C378.269 61.5762 378.491 61.6655 378.697 61.796C378.906 61.9264 379.076 62.113 379.209 62.3557C379.342 62.596 379.408 62.9085 379.408 63.2931V66.7954H378.406V66.0743H378.364C378.298 66.2071 378.198 66.3376 378.066 66.4658C377.933 66.594 377.762 66.7004 377.554 66.7851C377.346 66.8698 377.096 66.9122 376.805 66.9122ZM377.029 66.0881C377.312 66.0881 377.555 66.032 377.757 65.9198C377.96 65.8077 378.115 65.6611 378.22 65.4803C378.328 65.2972 378.381 65.1015 378.381 64.8931V64.2133C378.345 64.2499 378.274 64.2842 378.169 64.3163C378.066 64.346 377.948 64.3724 377.815 64.3953C377.682 64.4159 377.553 64.4353 377.427 64.4536C377.301 64.4697 377.196 64.4834 377.111 64.4948C376.912 64.52 376.73 64.5624 376.565 64.6219C376.403 64.6814 376.272 64.7672 376.174 64.8794C376.077 64.9893 376.029 65.1358 376.029 65.3189C376.029 65.573 376.123 65.7653 376.311 65.8958C376.499 66.024 376.738 66.0881 377.029 66.0881ZM382.987 68.8831C382.568 68.8831 382.207 68.8282 381.905 68.7183C381.605 68.6084 381.36 68.463 381.17 68.2822C380.98 68.1014 380.839 67.9033 380.745 67.6882L381.627 67.3242C381.689 67.4249 381.771 67.5314 381.874 67.6435C381.98 67.758 382.122 67.8553 382.3 67.9354C382.481 68.0155 382.713 68.0556 382.997 68.0556C383.386 68.0556 383.708 67.9606 383.962 67.7706C384.216 67.5829 384.343 67.283 384.343 66.871V65.834H384.278C384.216 65.9461 384.127 66.0709 384.01 66.2083C383.896 66.3456 383.738 66.4646 383.536 66.5654C383.335 66.6661 383.073 66.7164 382.75 66.7164C382.333 66.7164 381.958 66.6191 381.624 66.4246C381.292 66.2277 381.029 65.9381 380.834 65.5558C380.642 65.1713 380.546 64.6986 380.546 64.1377C380.546 63.5769 380.641 63.0962 380.831 62.6956C381.023 62.295 381.286 61.9883 381.62 61.7754C381.955 61.5602 382.333 61.4526 382.757 61.4526C383.084 61.4526 383.349 61.5075 383.55 61.6174C383.751 61.725 383.908 61.8509 384.02 61.9951C384.135 62.1393 384.223 62.2664 384.285 62.3763H384.36V61.5213H385.366V66.9122C385.366 67.3654 385.261 67.7374 385.051 68.0281C384.84 68.3188 384.555 68.534 384.196 68.6736C383.838 68.8133 383.436 68.8831 382.987 68.8831ZM382.977 65.8649C383.272 65.8649 383.521 65.7962 383.725 65.6589C383.931 65.5192 384.087 65.3201 384.192 65.0614C384.3 64.8004 384.354 64.488 384.354 64.124C384.354 63.7692 384.301 63.4567 384.196 63.1866C384.09 62.9165 383.936 62.7059 383.732 62.5548C383.528 62.4014 383.276 62.3248 382.977 62.3248C382.668 62.3248 382.41 62.4049 382.204 62.5651C381.998 62.7231 381.842 62.9382 381.737 63.2106C381.634 63.483 381.583 63.7875 381.583 64.124C381.583 64.4697 381.635 64.773 381.74 65.0339C381.846 65.2949 382.001 65.4986 382.207 65.6451C382.416 65.7916 382.672 65.8649 382.977 65.8649ZM388.965 66.9019C388.47 66.9019 388.039 66.7885 387.67 66.5619C387.302 66.3353 387.016 66.0183 386.812 65.6108C386.608 65.2033 386.506 64.7272 386.506 64.1824C386.506 63.6353 386.608 63.1568 386.812 62.7471C387.016 62.3373 387.302 62.0192 387.67 61.7925C388.039 61.5659 388.47 61.4526 388.965 61.4526C389.459 61.4526 389.891 61.5659 390.259 61.7925C390.628 62.0192 390.914 62.3373 391.118 62.7471C391.322 63.1568 391.423 63.6353 391.423 64.1824C391.423 64.7272 391.322 65.2033 391.118 65.6108C390.914 66.0183 390.628 66.3353 390.259 66.5619C389.891 66.7885 389.459 66.9019 388.965 66.9019ZM388.968 66.04C389.289 66.04 389.554 65.9553 389.765 65.7859C389.976 65.6165 390.131 65.391 390.232 65.1095C390.335 64.8279 390.386 64.5177 390.386 64.1789C390.386 63.8424 390.335 63.5334 390.232 63.2518C390.131 62.968 389.976 62.7402 389.765 62.5685C389.554 62.3969 389.289 62.311 388.968 62.311C388.646 62.311 388.378 62.3969 388.165 62.5685C387.954 62.7402 387.797 62.968 387.694 63.2518C387.594 63.5334 387.543 63.8424 387.543 64.1789C387.543 64.5177 387.594 64.8279 387.694 65.1095C387.797 65.391 387.954 65.6165 388.165 65.7859C388.378 65.9553 388.646 66.04 388.968 66.04Z" fill="#848B96"/>
</g>
<g filter="url(#filter4_dddd_1_2)">
<mask id="mask3_1_2" style="mask-type:luminance" maskUnits="userSpaceOnUse" x="127" y="114" width="18" height="13">
<path d="M142.72 114.1H128.6C127.744 114.1 127.05 114.794 127.05 115.65V125.08C127.05 125.936 127.744 126.63 128.6 126.63H142.72C143.576 126.63 144.27 125.936 144.27 125.08V115.65C144.27 114.794 143.576 114.1 142.72 114.1Z" fill="white"/>
</mask>
<g mask="url(#mask3_1_2)">
<path d="M127.05 114.1H144.27V126.63H127.05V114.1Z" fill="#C1272D"/>
<path d="M127.05 114.1H144.27V122.453H127.05V114.1Z" fill="#006A44"/>
<path d="M127.05 114.1H144.27V118.277H127.05V114.1Z" fill="#FDB913"/>
</g>
</g>
</g>
</g>
<defs>
<filter id="filter0_dddd_1_2" x="100.335" y="74" width="264.331" height="112.471" filterUnits="userSpaceOnUse" color-interpolation-filters="sRGB">
<feFlood flood-opacity="0" result="BackgroundImageFix"/>
<feColorMatrix in="SourceAlpha" type="matrix" values="0 0 0 0 0 0 0 0 0 0 0 0 0 0 0 0 0 0 127 0" result="hardAlpha"/>
<feOffset dy="1.65166"/>
<feGaussianBlur stdDeviation="0.660663"/>
<feColorMatrix type="matrix" values="0 0 0 0 0 0 0 0 0 0 0 0 0 0 0 0 0 0 0.0196802 0"/>
<feBlend mode="normal" in2="BackgroundImageFix" result="effect1_dropShadow_1_2"/>
<feColorMatrix in="SourceAlpha" type="matrix" values="0 0 0 0 0 0 0 0 0 0 0 0 0 0 0 0 0 0 127 0" result="hardAlpha"/>
<feOffset dy="3.96916"/>
<feGaussianBlur stdDeviation="1.58766"/>
<feColorMatrix type="matrix" values="0 0 0 0 0 0 0 0 0 0 0 0 0 0 0 0 0 0 0.0282725 0"/>
<feBlend mode="normal" in2="effect1_dropShadow_1_2" result="effect2_dropShadow_1_2"/>
<feColorMatrix in="SourceAlpha" type="matrix" values="0 0 0 0 0 0 0 0 0 0 0 0 0 0 0 0 0 0 127 0" result="hardAlpha"/>
<feOffset dy="7.47358"/>
<feGaussianBlur stdDeviation="2.98943"/>
<feColorMatrix type="matrix" values="0 0 0 0 0 0 0 0 0 0 0 0 0 0 0 0 0 0 0.035 0"/>
<feBlend mode="normal" in2="effect2_dropShadow_1_2" result="effect3_dropShadow_1_2"/>
<feColorMatrix in="SourceAlpha" type="matrix" values="0 0 0 0 0 0 0 0 0 0 0 0 0 0 0 0 0 0 127 0" result="hardAlpha"/>
<feOffset dy="13.3316"/>
<feGaussianBlur stdDeviation="5.33263"/>
<feColorMatrix type="matrix" values="0 0 0 0 0 0 0 0 0 0 0 0 0 0 0 0 0 0 0.0417275 0"/>
<feBlend mode="normal" in2="effect3_dropShadow_1_2" result="effect4_dropShadow_1_2"/>
<feBlend mode="normal" in="SourceGraphic" in2="effect4_dropShadow_1_2" result="shape"/>
</filter>
<filter id="filter1_dddddd_1_2" x="5.5746" y="152" width="243.851" height="112.457" filterUnits="userSpaceOnUse" color-interpolation-filters="sRGB">
<feFlood flood-opacity="0" result="BackgroundImageFix"/>
<feColorMatrix in="SourceAlpha" type="matrix" values="0 0 0 0 0 0 0 0 0 0 0 0 0 0 0 0 0 0 127 0" result="hardAlpha"/>
<feOffset dy="0.775712"/>
<feGaussianBlur stdDeviation="0.310285"/>
<feColorMatrix type="matrix" values="0 0 0 0 0 0 0 0 0 0 0 0 0 0 0 0 0 0 0.0196802 0"/>
<feBlend mode="normal" in2="BackgroundImageFix" result="effect1_dropShadow_1_2"/>
<feColorMatrix in="SourceAlpha" type="matrix" values="0 0 0 0 0 0 0 0 0 0 0 0 0 0 0 0 0 0 127 0" result="hardAlpha"/>
<feOffset dy="1.86414"/>
<feGaussianBlur stdDeviation="0.745658"/>
<feColorMatrix type="matrix" values="0 0 0 0 0 0 0 0 0 0 0 0 0 0 0 0 0 0 0.0282725 0"/>
<feBlend mode="normal" in2="effect1_dropShadow_1_2" result="effect2_dropShadow_1_2"/>
<feColorMatrix in="SourceAlpha" type="matrix" values="0 0 0 0 0 0 0 0 0 0 0 0 0 0 0 0 0 0 127 0" result="hardAlpha"/>
<feOffset dy="3.51002"/>
<feGaussianBlur stdDeviation="1.40401"/>
<feColorMatrix type="matrix" values="0 0 0 0 0 0 0 0 0 0 0 0 0 0 0 0 0 0 0.035 0"/>
<feBlend mode="normal" in2="effect2_dropShadow_1_2" result="effect3_dropShadow_1_2"/>
<feColorMatrix in="SourceAlpha" type="matrix" values="0 0 0 0 0 0 0 0 0 0 0 0 0 0 0 0 0 0 127 0" result="hardAlpha"/>
<feOffset dy="6.26127"/>
<feGaussianBlur stdDeviation="2.50451"/>
<feColorMatrix type="matrix" values="0 0 0 0 0 0 0 0 0 0 0 0 0 0 0 0 0 0 0.0417275 0"/>
<feBlend mode="normal" in2="effect3_dropShadow_1_2" result="effect4_dropShadow_1_2"/>
<feColorMatrix in="SourceAlpha" type="matrix" values="0 0 0 0 0 0 0 0 0 0 0 0 0 0 0 0 0 0 127 0" result="hardAlpha"/>
<feOffset dy="11.711"/>
<feGaussianBlur stdDeviation="4.68441"/>
<feColorMatrix type="matrix" values="0 0 0 0 0 0 0 0 0 0 0 0 0 0 0 0 0 0 0.0503198 0"/>
<feBlend mode="normal" in2="effect4_dropShadow_1_2" result="effect5_dropShadow_1_2"/>
<feColorMatrix in="SourceAlpha" type="matrix" values="0 0 0 0 0 0 0 0 0 0 0 0 0 0 0 0 0 0 127 0" result="hardAlpha"/>
<feOffset dy="28.0318"/>
<feGaussianBlur stdDeviation="11.2127"/>
<feColorMatrix type="matrix" values="0 0 0 0 0 0 0 0 0 0 0 0 0 0 0 0 0 0 0.07 0"/>
<feBlend mode="normal" in2="effect5_dropShadow_1_2" result="effect6_dropShadow_1_2"/>
<feBlend mode="normal" in="SourceGraphic" in2="effect6_dropShadow_1_2" result="shape"/>
</filter>
<filter id="filter2_ddd_1_2" x="251.715" y="210" width="43.3754" height="29.1656" filterUnits="userSpaceOnUse" color-interpolation-filters="sRGB">
<feFlood flood-opacity="0" result="BackgroundImageFix"/>
<feColorMatrix in="SourceAlpha" type="matrix" values="0 0 0 0 0 0 0 0 0 0 0 0 0 0 0 0 0 0 127 0" result="hardAlpha"/>
<feOffset dy="1.18365"/>
<feGaussianBlur stdDeviation="0.47346"/>
<feColorMatrix type="matrix" values="0 0 0 0 0 0 0 0 0 0 0 0 0 0 0 0 0 0 0.0196802 0"/>
<feBlend mode="normal" in2="BackgroundImageFix" result="effect1_dropShadow_1_2"/>
<feColorMatrix in="SourceAlpha" type="matrix" values="0 0 0 0 0 0 0 0 0 0 0 0 0 0 0 0 0 0 127 0" result="hardAlpha"/>
<feOffset dy="2.84447"/>
<feGaussianBlur stdDeviation="1.13779"/>
<feColorMatrix type="matrix" values="0 0 0 0 0 0 0 0 0 0 0 0 0 0 0 0 0 0 0.0282725 0"/>
<feBlend mode="normal" in2="effect1_dropShadow_1_2" result="effect2_dropShadow_1_2"/>
<feColorMatrix in="SourceAlpha" type="matrix" values="0 0 0 0 0 0 0 0 0 0 0 0 0 0 0 0 0 0 127 0" result="hardAlpha"/>
<feOffset dy="5.35589"/>
<feGaussianBlur stdDeviation="2.14236"/>
<feColorMatrix type="matrix" values="0 0 0 0 0 0 0 0 0 0 0 0 0 0 0 0 0 0 0.035 0"/>
<feBlend mode="normal" in2="effect2_dropShadow_1_2" result="effect3_dropShadow_1_2"/>
<feBlend mode="normal" in="SourceGraphic" in2="effect3_dropShadow_1_2" result="shape"/>
</filter>
<filter id="filter3_ddddd_1_2" x="267.052" y="50" width="161.034" height="71.474" filterUnits="userSpaceOnUse" color-interpolation-filters="sRGB">
<feFlood flood-opacity="0" result="BackgroundImageFix"/>
<feColorMatrix in="SourceAlpha" type="matrix" values="0 0 0 0 0 0 0 0 0 0 0 0 0 0 0 0 0 0 127 0" result="hardAlpha"/>
<feOffset dy="1.65166"/>
<feGaussianBlur stdDeviation="0.660663"/>
<feColorMatrix type="matrix" values="0 0 0 0 0 0 0 0 0 0 0 0 0 0 0 0 0 0 0.0196802 0"/>
<feBlend mode="normal" in2="BackgroundImageFix" result="effect1_dropShadow_1_2"/>
<feColorMatrix in="SourceAlpha" type="matrix" values="0 0 0 0 0 0 0 0 0 0 0 0 0 0 0 0 0 0 127 0" result="hardAlpha"/>
<feOffset dy="3.96916"/>
<feGaussianBlur stdDeviation="1.58766"/>
<feColorMatrix type="matrix" values="0 0 0 0 0 0 0 0 0 0 0 0 0 0 0 0 0 0 0.0282725 0"/>
<feBlend mode="normal" in2="effect1_dropShadow_1_2" result="effect2_dropShadow_1_2"/>
<feColorMatrix in="SourceAlpha" type="matrix" values="0 0 0 0 0 0 0 0 0 0 0 0 0 0 0 0 0 0 127 0" result="hardAlpha"/>
<feOffset dy="7.47358"/>
<feGaussianBlur stdDeviation="2.98943"/>
<feColorMatrix type="matrix" values="0 0 0 0 0 0 0 0 0 0 0 0 0 0 0 0 0 0 0.035 0"/>
<feBlend mode="normal" in2="effect2_dropShadow_1_2" result="effect3_dropShadow_1_2"/>
<feColorMatrix in="SourceAlpha" type="matrix" values="0 0 0 0 0 0 0 0 0 0 0 0 0 0 0 0 0 0 127 0" result="hardAlpha"/>
<feOffset dy="13.3316"/>
<feGaussianBlur stdDeviation="5.33263"/>
<feColorMatrix type="matrix" values="0 0 0 0 0 0 0 0 0 0 0 0 0 0 0 0 0 0 0.0417275 0"/>
<feBlend mode="normal" in2="effect3_dropShadow_1_2" result="effect4_dropShadow_1_2"/>
<feColorMatrix in="SourceAlpha" type="matrix" values="0 0 0 0 0 0 0 0 0 0 0 0 0 0 0 0 0 0 127 0" result="hardAlpha"/>
<feOffset dy="24.9353"/>
<feGaussianBlur stdDeviation="9.97411"/>
<feColorMatrix type="matrix" values="0 0 0 0 0 0 0 0 0 0 0 0 0 0 0 0 0 0 0.0503198 0"/>
<feBlend mode="normal" in2="effect4_dropShadow_1_2" result="effect5_dropShadow_1_2"/>
<feBlend mode="normal" in="SourceGraphic" in2="effect5_dropShadow_1_2" result="shape"/>
</filter>
<filter id="filter4_dddd_1_2" x="116.385" y="114.1" width="38.5505" height="36.5269" filterUnits="userSpaceOnUse" color-interpolation-filters="sRGB">
<feFlood flood-opacity="0" result="BackgroundImageFix"/>
<feColorMatrix in="SourceAlpha" type="matrix" values="0 0 0 0 0 0 0 0 0 0 0 0 0 0 0 0 0 0 127 0" result="hardAlpha"/>
<feOffset dy="1.65166"/>
<feGaussianBlur stdDeviation="0.660663"/>
<feColorMatrix type="matrix" values="0 0 0 0 0 0 0 0 0 0 0 0 0 0 0 0 0 0 0.0196802 0"/>
<feBlend mode="normal" in2="BackgroundImageFix" result="effect1_dropShadow_1_2"/>
<feColorMatrix in="SourceAlpha" type="matrix" values="0 0 0 0 0 0 0 0 0 0 0 0 0 0 0 0 0 0 127 0" result="hardAlpha"/>
<feOffset dy="3.96916"/>
<feGaussianBlur stdDeviation="1.58766"/>
<feColorMatrix type="matrix" values="0 0 0 0 0 0 0 0 0 0 0 0 0 0 0 0 0 0 0.0282725 0"/>
<feBlend mode="normal" in2="effect1_dropShadow_1_2" result="effect2_dropShadow_1_2"/>
<feColorMatrix in="SourceAlpha" type="matrix" values="0 0 0 0 0 0 0 0 0 0 0 0 0 0 0 0 0 0 127 0" result="hardAlpha"/>
<feOffset dy="7.47358"/>
<feGaussianBlur stdDeviation="2.98943"/>
<feColorMatrix type="matrix" values="0 0 0 0 0 0 0 0 0 0 0 0 0 0 0 0 0 0 0.035 0"/>
<feBlend mode="normal" in2="effect2_dropShadow_1_2" result="effect3_dropShadow_1_2"/>
<feColorMatrix in="SourceAlpha" type="matrix" values="0 0 0 0 0 0 0 0 0 0 0 0 0 0 0 0 0 0 127 0" result="hardAlpha"/>
<feOffset dy="13.3316"/>
<feGaussianBlur stdDeviation="5.33263"/>
<feColorMatrix type="matrix" values="0 0 0 0 0 0 0 0 0 0 0 0 0 0 0 0 0 0 0.0417275 0"/>
<feBlend mode="normal" in2="effect3_dropShadow_1_2" result="effect4_dropShadow_1_2"/>
<feBlend mode="normal" in="SourceGraphic" in2="effect4_dropShadow_1_2" result="shape"/>
</filter>
<linearGradient id="paint0_linear_1_2" x1="161.073" y1="89.5427" x2="191.655" y2="202.252" gradientUnits="userSpaceOnUse">
<stop stop-color="white" stop-opacity="0.85"/>
<stop offset="0.640625" stop-color="white"/>
</linearGradient>
<linearGradient id="paint1_linear_1_2" x1="69.0061" y1="162.892" x2="87.6879" y2="243.353" gradientUnits="userSpaceOnUse">
<stop stop-color="white" stop-opacity="0.85"/>
<stop offset="0.640625" stop-color="white"/>
</linearGradient>
<clipPath id="clip0_1_2">
<rect width="466" height="280" fill="white"/>
</clipPath>
</defs>
</svg>
