<svg width="140" height="163" viewBox="0 0 140 163" fill="none" xmlns="http://www.w3.org/2000/svg">
<g filter="url(#filter0_ddddd_265_11222)">
<path fill-rule="evenodd" clip-rule="evenodd" d="M43.2653 5C31.5208 5 22 14.5208 22 26.2653V79.7347C22 91.4792 31.5208 101 43.2653 101H96.7347C108.479 101 118 91.4792 118 79.7347V26.2653C118 14.5208 108.479 5 96.7347 5H43.2653Z" fill="#FAFAFB"/>
</g>
<g clip-path="url(#clip0_265_11222)">
<path fill-rule="evenodd" clip-rule="evenodd" d="M69.8594 85.2911C60.4288 85.2911 52.7837 83.8085 52.7837 81.9799C52.7837 80.1519 60.4288 78.6687 69.8594 78.6687C79.2905 78.6687 86.9356 80.1519 86.9356 81.9799C86.9356 83.8085 79.2905 85.2911 69.8594 85.2911Z" fill="url(#paint0_radial_265_11222)"/>
<path fill-rule="evenodd" clip-rule="evenodd" d="M69.8594 85.2911C60.4288 85.2911 52.7837 83.8085 52.7837 81.9799C52.7837 80.1519 60.4288 78.6687 69.8594 78.6687C79.2905 78.6687 86.9356 80.1519 86.9356 81.9799C86.9356 83.8085 79.2905 85.2911 69.8594 85.2911Z" fill="url(#paint1_radial_265_11222)"/>
<path fill-rule="evenodd" clip-rule="evenodd" d="M76.874 65.6383C78.1948 65.6383 79.265 66.7204 79.265 68.0583C79.265 69.4017 78.1948 70.4943 76.874 70.4943C75.558 70.4943 74.4831 69.4017 74.4831 68.0583C74.4831 66.7204 75.558 65.6383 76.874 65.6383ZM84.0317 34.9109V40.5692C84.0317 44.9565 80.3128 48.6481 76.0719 48.6481H63.3438C59.8578 48.6481 56.9727 51.6322 56.9727 55.1236V67.2573C56.9727 70.7101 59.9751 72.742 63.3438 73.7322C67.3773 74.9185 71.245 75.133 76.0719 73.7322C79.2794 72.8036 82.4425 70.9341 82.4425 67.2573V62.4007H69.715V60.7819H88.8136C92.5171 60.7819 93.8972 58.1989 95.1854 54.3218C96.5157 50.3304 96.4588 46.4918 95.1854 41.3709C94.2699 37.6846 92.5219 34.9109 88.8136 34.9109H84.0317Z" fill="url(#paint2_linear_265_11222)"/>
<path fill-rule="evenodd" clip-rule="evenodd" d="M43.3335 47.8652V47.7958C43.337 45.7881 43.6426 43.8098 44.2306 41.3709C45.2451 37.1365 48.4875 34.9109 52.191 34.9109H69.7153V33.292H56.9729V28.4354C56.9729 24.7586 57.9518 22.7647 63.3441 21.8119C65.1745 21.4883 67.255 21.3023 69.4332 21.2922C71.6114 21.2821 73.8827 21.4474 76.0722 21.8119C79.5298 22.3884 82.4428 24.9826 82.4428 28.4354V40.5692C82.4428 44.1275 79.6145 47.0447 76.0722 47.0447H63.3441C59.0232 47.0447 55.3837 50.7541 55.3837 54.96V60.7819H51.0029C47.2995 60.7819 45.1361 58.094 44.2306 54.3218C43.6298 51.8297 43.3369 49.8306 43.3335 47.8652H43.3335ZM62.542 25.1973C61.2206 25.1973 60.151 26.2899 60.151 27.6333C60.151 28.9713 61.2206 30.0539 62.542 30.0539C63.8581 30.0539 64.933 28.9713 64.933 27.6333C64.933 26.2899 63.8581 25.1973 62.542 25.1973Z" fill="#4786CF"/>
</g>
<defs>
<filter id="filter0_ddddd_265_11222" x="0" y="0" width="140" height="178" filterUnits="userSpaceOnUse" color-interpolation-filters="sRGB">
<feFlood flood-opacity="0" result="BackgroundImageFix"/>
<feColorMatrix in="SourceAlpha" type="matrix" values="0 0 0 0 0 0 0 0 0 0 0 0 0 0 0 0 0 0 127 0" result="hardAlpha"/>
<feOffset/>
<feColorMatrix type="matrix" values="0 0 0 0 0.0117647 0 0 0 0 0.00784314 0 0 0 0 0.0509804 0 0 0 0.1 0"/>
<feBlend mode="normal" in2="BackgroundImageFix" result="effect1_dropShadow_265_11222"/>
<feColorMatrix in="SourceAlpha" type="matrix" values="0 0 0 0 0 0 0 0 0 0 0 0 0 0 0 0 0 0 127 0" result="hardAlpha"/>
<feOffset dy="3"/>
<feGaussianBlur stdDeviation="4"/>
<feColorMatrix type="matrix" values="0 0 0 0 0.0117647 0 0 0 0 0.00784314 0 0 0 0 0.0509804 0 0 0 0.1 0"/>
<feBlend mode="normal" in2="effect1_dropShadow_265_11222" result="effect2_dropShadow_265_11222"/>
<feColorMatrix in="SourceAlpha" type="matrix" values="0 0 0 0 0 0 0 0 0 0 0 0 0 0 0 0 0 0 127 0" result="hardAlpha"/>
<feOffset dy="14"/>
<feGaussianBlur stdDeviation="7"/>
<feColorMatrix type="matrix" values="0 0 0 0 0.0117647 0 0 0 0 0.00784314 0 0 0 0 0.0509804 0 0 0 0.09 0"/>
<feBlend mode="normal" in2="effect2_dropShadow_265_11222" result="effect3_dropShadow_265_11222"/>
<feColorMatrix in="SourceAlpha" type="matrix" values="0 0 0 0 0 0 0 0 0 0 0 0 0 0 0 0 0 0 127 0" result="hardAlpha"/>
<feOffset dy="31"/>
<feGaussianBlur stdDeviation="9.5"/>
<feColorMatrix type="matrix" values="0 0 0 0 0.0117647 0 0 0 0 0.00784314 0 0 0 0 0.0509804 0 0 0 0.05 0"/>
<feBlend mode="normal" in2="effect3_dropShadow_265_11222" result="effect4_dropShadow_265_11222"/>
<feColorMatrix in="SourceAlpha" type="matrix" values="0 0 0 0 0 0 0 0 0 0 0 0 0 0 0 0 0 0 127 0" result="hardAlpha"/>
<feOffset dy="55"/>
<feGaussianBlur stdDeviation="11"/>
<feColorMatrix type="matrix" values="0 0 0 0 0.0117647 0 0 0 0 0.00784314 0 0 0 0 0.0509804 0 0 0 0.01 0"/>
<feBlend mode="normal" in2="effect4_dropShadow_265_11222" result="effect5_dropShadow_265_11222"/>
<feBlend mode="normal" in="SourceGraphic" in2="effect5_dropShadow_265_11222" result="shape"/>
</filter>
<radialGradient id="paint0_radial_265_11222" cx="0" cy="0" r="1" gradientUnits="userSpaceOnUse" gradientTransform="translate(69.8594 81.9799) rotate(-90) scale(3.31055 75.0582)">
<stop stop-color="#C6C6C6"/>
<stop offset="1" stop-color="white"/>
</radialGradient>
<radialGradient id="paint1_radial_265_11222" cx="0" cy="0" r="1" gradientUnits="userSpaceOnUse" gradientTransform="translate(69.8594 81.9799) rotate(-90) scale(3.31055 75.0582)">
<stop stop-color="#C6C6C6"/>
<stop offset="1" stop-color="white"/>
</radialGradient>
<linearGradient id="paint2_linear_265_11222" x1="89.7698" y1="58.1693" x2="79.1504" y2="43.4547" gradientUnits="userSpaceOnUse">
<stop stop-color="#FFD33A"/>
<stop offset="1" stop-color="#FFE873"/>
</linearGradient>
<clipPath id="clip0_265_11222">
<rect width="64" height="64" fill="white" transform="translate(38 21)"/>
</clipPath>
</defs>
</svg>
