<svg width="140" height="163" viewBox="0 0 140 163" fill="none" xmlns="http://www.w3.org/2000/svg">
<g filter="url(#filter0_ddddd_265_11212)">
<path fill-rule="evenodd" clip-rule="evenodd" d="M43.5988 5C31.8543 5 22.3335 14.5208 22.3335 26.2653V79.7347C22.3335 91.4792 31.8543 101 43.5988 101H97.0682C108.813 101 118.333 91.4792 118.333 79.7347V26.2653C118.333 14.5208 108.813 5 97.0682 5H43.5988Z" fill="#03020D"/>
</g>
<g clip-path="url(#clip0_265_11212)">
<rect width="64" height="64" transform="translate(38.3335 21)" fill="#03020D"/>
<path d="M102.333 53.5039C102.333 49.2642 97.0241 45.2462 88.8838 42.7546C90.7623 34.4578 89.9274 27.8569 86.2487 25.7436C85.4007 25.2479 84.4093 25.013 83.3265 25.013V27.9221C83.9266 27.9221 84.4093 28.0395 84.8137 28.2613C86.5879 29.2788 87.3575 33.1533 86.7575 38.1366C86.614 39.3628 86.3791 40.6543 86.0921 41.9719C83.5353 41.3457 80.7436 40.863 77.8084 40.5499C76.0473 38.1366 74.221 35.945 72.3816 34.0273C76.6343 30.0746 80.6262 27.9091 83.3396 27.9091V25C79.7522 25 75.0559 27.5569 70.3074 31.9923C65.5589 27.583 60.8626 25.0522 57.2752 25.0522V27.9613C59.9756 27.9613 63.9805 30.1137 68.2332 34.0404C66.4069 35.958 64.5805 38.1366 62.8455 40.5499C59.8973 40.863 57.1056 41.3457 54.5487 41.9849C54.2487 40.6804 54.0269 39.415 53.8704 38.2018C53.2573 33.2185 54.0139 29.3441 55.775 28.3135C56.1663 28.0787 56.6751 27.9743 57.2752 27.9743V25.0652C56.1794 25.0652 55.188 25.3 54.327 25.7958C50.6613 27.9091 49.8394 34.4969 51.731 42.7676C43.6168 45.2723 38.3335 49.2772 38.3335 53.5039C38.3335 57.7436 43.6429 61.7615 51.7831 64.2531C49.9046 72.5499 50.7395 79.1508 54.4183 81.2641C55.2662 81.7599 56.2577 81.9947 57.3535 81.9947C60.9409 81.9947 65.6372 79.4378 70.3857 75.0024C75.1341 79.4117 79.8304 81.9425 83.4179 81.9425C84.5137 81.9425 85.5051 81.7077 86.3661 81.212C90.0318 79.0986 90.8537 72.5108 88.9621 64.2401C97.0501 61.7485 102.333 57.7305 102.333 53.5039ZM85.3486 44.8027C84.8659 46.4855 84.2658 48.2205 83.5875 49.9556C83.0526 48.9119 82.4917 47.8683 81.8785 46.8247C81.2784 45.7811 80.6392 44.7635 80 43.7721C81.8524 44.0461 83.6396 44.3852 85.3486 44.8027ZM79.3738 58.6959C78.3563 60.457 77.3127 62.1268 76.2299 63.6792C74.2862 63.8487 72.3164 63.9401 70.3335 63.9401C68.3637 63.9401 66.3938 63.8487 64.4631 63.6922C63.3804 62.1398 62.3237 60.4831 61.3062 58.735C60.3147 57.0261 59.4146 55.2911 58.5928 53.543C59.4016 51.7949 60.3147 50.0469 61.2931 48.3379C62.3107 46.5768 63.3543 44.907 64.437 43.3547C66.3808 43.1851 68.3506 43.0938 70.3335 43.0938C72.3033 43.0938 74.2732 43.1851 76.2038 43.3416C77.2866 44.894 78.3433 46.5507 79.3608 48.2988C80.3522 50.0077 81.2524 51.7428 82.0742 53.4908C81.2524 55.2389 80.3522 56.9869 79.3738 58.6959ZM83.5875 57C84.2919 58.7481 84.892 60.4961 85.3877 62.192C83.6788 62.6094 81.8785 62.9617 80.0131 63.2356C80.6523 62.2311 81.2915 61.2006 81.8916 60.1439C82.4917 59.1003 83.0526 58.0436 83.5875 57ZM70.3596 70.9193C69.1464 69.6669 67.9332 68.2711 66.733 66.7448C67.9071 66.797 69.1072 66.8361 70.3204 66.8361C71.5467 66.8361 72.7599 66.81 73.947 66.7448C72.7729 68.2711 71.5597 69.6669 70.3596 70.9193ZM60.6539 63.2356C58.8015 62.9617 57.0143 62.6225 55.3054 62.205C55.788 60.5222 56.3881 58.7872 57.0665 57.0522C57.6013 58.0958 58.1623 59.1394 58.7754 60.183C59.3885 61.2267 60.0147 62.2442 60.6539 63.2356ZM70.2944 36.0885C71.5076 37.3408 72.7208 38.7366 73.9209 40.2629C72.7469 40.2108 71.5467 40.1716 70.3335 40.1716C69.1072 40.1716 67.894 40.1977 66.7069 40.2629C67.881 38.7366 69.0942 37.3408 70.2944 36.0885ZM60.6409 43.7721C60.0017 44.7766 59.3624 45.8072 58.7624 46.8638C58.1623 47.9075 57.6013 48.9511 57.0665 49.9947C56.362 48.2466 55.7619 46.4986 55.2662 44.8027C56.9752 44.3983 58.7754 44.0461 60.6409 43.7721ZM48.8349 60.1048C44.2169 58.1349 41.2295 55.552 41.2295 53.5039C41.2295 51.4558 44.2169 48.8598 48.8349 46.903C49.9568 46.4203 51.1831 45.9898 52.4485 45.5854C53.192 48.1423 54.1704 50.8035 55.3836 53.53C54.1835 56.2434 53.2181 58.8915 52.4876 61.4354C51.1961 61.031 49.9699 60.5874 48.8349 60.1048ZM55.8533 78.7464C54.0791 77.7289 53.3094 73.8544 53.9095 68.8712C54.053 67.6449 54.2878 66.3534 54.5748 65.0359C57.1317 65.662 59.9234 66.1447 62.8586 66.4578C64.6197 68.8712 66.446 71.0628 68.2854 72.9804C64.0326 76.9331 60.0408 79.0986 57.3274 79.0986C56.7403 79.0856 56.2446 78.9682 55.8533 78.7464ZM86.7966 68.8059C87.4097 73.7892 86.6531 77.6637 84.892 78.6942C84.5006 78.9291 83.9919 79.0334 83.3918 79.0334C80.6914 79.0334 76.6865 76.8809 72.4338 72.9543C74.2601 71.0367 76.0864 68.8581 77.8215 66.4448C80.7697 66.1317 83.5614 65.649 86.1182 65.0098C86.4183 66.3273 86.6531 67.5927 86.7966 68.8059ZM91.819 60.1048C90.6971 60.5874 89.4709 61.0179 88.2055 61.4223C87.4619 58.8655 86.4835 56.2042 85.2703 53.4778C86.4705 50.7644 87.4358 48.1162 88.1663 45.5724C89.4578 45.9768 90.6841 46.4203 91.8321 46.903C96.4501 48.8728 99.4374 51.4558 99.4374 53.5039C99.4244 55.552 96.437 58.148 91.819 60.1048Z" fill="#61DAFB"/>
<path d="M70.3206 59.4656C73.6131 59.4656 76.2822 56.7965 76.2822 53.5039C76.2822 50.2114 73.6131 47.5422 70.3206 47.5422C67.028 47.5422 64.3589 50.2114 64.3589 53.5039C64.3589 56.7965 67.028 59.4656 70.3206 59.4656Z" fill="#61DAFB"/>
</g>
<defs>
<filter id="filter0_ddddd_265_11212" x="0.333496" y="0" width="140" height="178" filterUnits="userSpaceOnUse" color-interpolation-filters="sRGB">
<feFlood flood-opacity="0" result="BackgroundImageFix"/>
<feColorMatrix in="SourceAlpha" type="matrix" values="0 0 0 0 0 0 0 0 0 0 0 0 0 0 0 0 0 0 127 0" result="hardAlpha"/>
<feOffset/>
<feColorMatrix type="matrix" values="0 0 0 0 0.0117647 0 0 0 0 0.00784314 0 0 0 0 0.0509804 0 0 0 0.1 0"/>
<feBlend mode="normal" in2="BackgroundImageFix" result="effect1_dropShadow_265_11212"/>
<feColorMatrix in="SourceAlpha" type="matrix" values="0 0 0 0 0 0 0 0 0 0 0 0 0 0 0 0 0 0 127 0" result="hardAlpha"/>
<feOffset dy="3"/>
<feGaussianBlur stdDeviation="4"/>
<feColorMatrix type="matrix" values="0 0 0 0 0.0117647 0 0 0 0 0.00784314 0 0 0 0 0.0509804 0 0 0 0.1 0"/>
<feBlend mode="normal" in2="effect1_dropShadow_265_11212" result="effect2_dropShadow_265_11212"/>
<feColorMatrix in="SourceAlpha" type="matrix" values="0 0 0 0 0 0 0 0 0 0 0 0 0 0 0 0 0 0 127 0" result="hardAlpha"/>
<feOffset dy="14"/>
<feGaussianBlur stdDeviation="7"/>
<feColorMatrix type="matrix" values="0 0 0 0 0.0117647 0 0 0 0 0.00784314 0 0 0 0 0.0509804 0 0 0 0.09 0"/>
<feBlend mode="normal" in2="effect2_dropShadow_265_11212" result="effect3_dropShadow_265_11212"/>
<feColorMatrix in="SourceAlpha" type="matrix" values="0 0 0 0 0 0 0 0 0 0 0 0 0 0 0 0 0 0 127 0" result="hardAlpha"/>
<feOffset dy="31"/>
<feGaussianBlur stdDeviation="9.5"/>
<feColorMatrix type="matrix" values="0 0 0 0 0.0117647 0 0 0 0 0.00784314 0 0 0 0 0.0509804 0 0 0 0.05 0"/>
<feBlend mode="normal" in2="effect3_dropShadow_265_11212" result="effect4_dropShadow_265_11212"/>
<feColorMatrix in="SourceAlpha" type="matrix" values="0 0 0 0 0 0 0 0 0 0 0 0 0 0 0 0 0 0 127 0" result="hardAlpha"/>
<feOffset dy="55"/>
<feGaussianBlur stdDeviation="11"/>
<feColorMatrix type="matrix" values="0 0 0 0 0.0117647 0 0 0 0 0.00784314 0 0 0 0 0.0509804 0 0 0 0.01 0"/>
<feBlend mode="normal" in2="effect4_dropShadow_265_11212" result="effect5_dropShadow_265_11212"/>
<feBlend mode="normal" in="SourceGraphic" in2="effect5_dropShadow_265_11212" result="shape"/>
</filter>
<clipPath id="clip0_265_11212">
<rect width="64" height="64" fill="white" transform="translate(38.3335 21)"/>
</clipPath>
</defs>
</svg>
