<svg width="140" height="163" viewBox="0 0 140 163" fill="none" xmlns="http://www.w3.org/2000/svg">
<g filter="url(#filter0_ddddd_265_11233)">
<path fill-rule="evenodd" clip-rule="evenodd" d="M43.2653 5.39746C31.5208 5.39746 22 14.9183 22 26.6628V80.1321C22 91.8766 31.5208 101.397 43.2653 101.397H96.7347C108.479 101.397 118 91.8766 118 80.1321V26.6628C118 14.9183 108.479 5.39746 96.7347 5.39746H43.2653Z" fill="url(#paint0_linear_265_11233)"/>
<path fill-rule="evenodd" clip-rule="evenodd" d="M43.2484 5.47363C31.5129 5.47363 22 14.9865 22 26.722V50.9062L31.8492 61.5083C31.8492 61.5083 31.8499 61.5083 31.8499 61.509C31.9485 61.6833 44.6831 83.9643 71.4836 83.9643C83.5913 83.9643 87.1096 77.7556 93.1118 77.7556C99.3205 77.7556 103.046 83.9643 103.046 83.9643C106.668 75.0644 97.665 64.9233 97.665 64.9233C97.665 64.9233 107.91 41.2267 76.2453 19.7023C76.2446 19.7017 76.2446 19.7009 76.2438 19.7009L62.2145 5.47363H43.2484Z" fill="url(#paint1_linear_265_11233)"/>
<path fill-rule="evenodd" clip-rule="evenodd" d="M76.3204 19.708C107.986 41.2326 97.7415 64.9304 97.7415 64.9304C97.7415 64.9304 106.745 75.0718 103.123 83.9715C103.123 83.9715 99.3973 77.7624 93.1882 77.7624C87.1862 77.7624 83.6677 83.9715 71.5601 83.9715C44.6543 83.9715 31.9258 61.5155 31.9258 61.5155C56.1519 77.4791 72.6984 66.1722 72.6984 66.1722C61.7696 59.824 38.5488 29.539 38.5488 29.539C58.7888 46.7546 67.5242 51.2705 67.5242 51.2705C62.2949 46.9647 47.6553 25.9171 47.6553 25.9171C59.3689 37.7688 82.6329 54.2716 82.6329 54.2716C89.2686 36.0297 76.3204 19.708 76.3204 19.708Z" fill="#FEFEFE"/>
</g>
<defs>
<filter id="filter0_ddddd_265_11233" x="0" y="0.397461" width="140" height="178" filterUnits="userSpaceOnUse" color-interpolation-filters="sRGB">
<feFlood flood-opacity="0" result="BackgroundImageFix"/>
<feColorMatrix in="SourceAlpha" type="matrix" values="0 0 0 0 0 0 0 0 0 0 0 0 0 0 0 0 0 0 127 0" result="hardAlpha"/>
<feOffset/>
<feColorMatrix type="matrix" values="0 0 0 0 0.0117647 0 0 0 0 0.00784314 0 0 0 0 0.0509804 0 0 0 0.1 0"/>
<feBlend mode="normal" in2="BackgroundImageFix" result="effect1_dropShadow_265_11233"/>
<feColorMatrix in="SourceAlpha" type="matrix" values="0 0 0 0 0 0 0 0 0 0 0 0 0 0 0 0 0 0 127 0" result="hardAlpha"/>
<feOffset dy="3"/>
<feGaussianBlur stdDeviation="4"/>
<feColorMatrix type="matrix" values="0 0 0 0 0.0117647 0 0 0 0 0.00784314 0 0 0 0 0.0509804 0 0 0 0.1 0"/>
<feBlend mode="normal" in2="effect1_dropShadow_265_11233" result="effect2_dropShadow_265_11233"/>
<feColorMatrix in="SourceAlpha" type="matrix" values="0 0 0 0 0 0 0 0 0 0 0 0 0 0 0 0 0 0 127 0" result="hardAlpha"/>
<feOffset dy="14"/>
<feGaussianBlur stdDeviation="7"/>
<feColorMatrix type="matrix" values="0 0 0 0 0.0117647 0 0 0 0 0.00784314 0 0 0 0 0.0509804 0 0 0 0.09 0"/>
<feBlend mode="normal" in2="effect2_dropShadow_265_11233" result="effect3_dropShadow_265_11233"/>
<feColorMatrix in="SourceAlpha" type="matrix" values="0 0 0 0 0 0 0 0 0 0 0 0 0 0 0 0 0 0 127 0" result="hardAlpha"/>
<feOffset dy="31"/>
<feGaussianBlur stdDeviation="9.5"/>
<feColorMatrix type="matrix" values="0 0 0 0 0.0117647 0 0 0 0 0.00784314 0 0 0 0 0.0509804 0 0 0 0.05 0"/>
<feBlend mode="normal" in2="effect3_dropShadow_265_11233" result="effect4_dropShadow_265_11233"/>
<feColorMatrix in="SourceAlpha" type="matrix" values="0 0 0 0 0 0 0 0 0 0 0 0 0 0 0 0 0 0 127 0" result="hardAlpha"/>
<feOffset dy="55"/>
<feGaussianBlur stdDeviation="11"/>
<feColorMatrix type="matrix" values="0 0 0 0 0.0117647 0 0 0 0 0.00784314 0 0 0 0 0.0509804 0 0 0 0.01 0"/>
<feBlend mode="normal" in2="effect4_dropShadow_265_11233" result="effect5_dropShadow_265_11233"/>
<feBlend mode="normal" in="SourceGraphic" in2="effect5_dropShadow_265_11233" result="shape"/>
</filter>
<linearGradient id="paint0_linear_265_11233" x1="27.6252" y1="-7.12007" x2="9.48247" y2="95.7723" gradientUnits="userSpaceOnUse">
<stop stop-color="#FAAE41"/>
<stop offset="1" stop-color="#EF3E31"/>
</linearGradient>
<linearGradient id="paint1_linear_265_11233" x1="31.7515" y1="0.667168" x2="19.5402" y2="76.0764" gradientUnits="userSpaceOnUse">
<stop stop-color="#E29F3A"/>
<stop offset="1" stop-color="#D43929"/>
</linearGradient>
<clipPath id="clip0_265_11233">
<rect width="96" height="96" fill="white" transform="translate(22 5.39746)"/>
</clipPath>
</defs>
</svg>
