<svg width="22" height="21" viewBox="0 0 22 21" fill="none" xmlns="http://www.w3.org/2000/svg">
<g id="Group">
<path id="Vector" d="M13.2168 6.46473C13.2168 6.46473 14.2581 7.44508 14.0133 8.2002C13.7685 8.95533 11.4193 8.976 11.4193 8.976C11.4193 8.976 10.9906 8.44502 11.1332 7.99565C11.2757 7.54627 11.4596 6.56592 11.5825 6.46364C11.7055 6.36354 13.2168 6.46473 13.2168 6.46473Z" fill="#AD2525"/>
<path id="Vector_2" d="M15.9935 3.64708C15.4626 2.55466 13.8903 0.869238 12.491 0.573282C11.0918 0.277327 9.20289 1.2468 9.20289 1.2468L8.04953 0.939963C6.57955 0.922554 5.42184 1.92358 5.06822 2.52311C4.71459 3.12263 4.769 4.33366 4.769 4.82438C4.769 5.31401 4.769 5.27375 4.57858 6.30851C4.38817 7.34326 4.66019 7.16591 4.66019 7.16591L3.55688 10.774C3.55688 10.774 3.7473 11.9317 4.23802 12.3941C4.72765 12.8565 6.48488 12.7619 6.48488 12.7619C6.48488 12.7619 6.87659 13.3124 7.34881 13.9533C7.12032 13.3777 6.83851 12.6737 6.83851 12.6737C6.83851 12.653 8.05715 11.2505 8.34984 11.0743C8.64253 10.8969 8.92216 10.836 8.92216 10.836C8.92216 10.836 9.4118 12.6258 8.65667 13.777C8.29217 14.3319 8.04409 14.5724 7.88306 14.6692C8.38683 15.333 8.85579 15.914 8.94937 15.9075C9.16698 15.8933 10.5151 15.3623 11.169 14.7911C11.823 14.2188 13.6879 11.1428 13.9599 11.0199C14.232 10.8969 15.6617 10.5302 16.37 9.1821C17.0762 7.83398 16.5245 4.73951 15.9935 3.64708ZM12.7739 8.69138C11.576 9.31811 11.317 8.43242 11.317 8.43242C11.317 8.43242 11.5346 6.92109 11.7794 6.55332C12.0243 6.18555 12.5966 6.02234 12.7184 6.02234C12.8414 6.02234 13.4812 6.67627 13.4812 6.67627C13.4812 6.67627 13.9719 8.06574 12.7739 8.69138Z" fill="#DB4545"/>
<path id="Vector_3" d="M5.79289 10.4475C5.79289 10.4475 6.32387 10.3354 6.11931 11.4071C5.91475 12.4789 7.03873 11.3865 7.03873 11.8152C7.03873 12.2439 6.09972 13.0001 5.65035 12.8467C5.20098 12.6932 4.4143 12.1416 4.5786 11.4071C4.74072 10.6727 5.31305 10.2331 5.79289 10.4475Z" fill="#BCB8AC"/>
<path id="Vector_4" d="M5.21082 4.88604C5.21082 4.88604 5.43496 4.53241 5.8506 4.5248C6.26624 4.51827 6.19117 5.41702 6.51759 5.61396C6.84401 5.8109 7.09644 4.51065 8.11053 4.34091C7.29338 4.18423 6.88536 4.59226 6.78961 4.64775C6.69386 4.70215 6.18355 3.87195 5.70698 4.30065C5.23149 4.72935 5.21082 4.88604 5.21082 4.88604Z" fill="#AD2525"/>
<path id="Vector_5" d="M16.3679 9.18209C17.0763 7.83397 16.5246 4.74058 15.9936 3.64816C15.5345 2.7048 14.2984 1.31969 13.0689 0.768034C12.6979 0.639642 12.3399 0.563477 12.032 0.563477C10.9287 0.563477 9.86671 0.931245 9.45868 1.17606C9.38143 1.22285 9.30091 1.24026 9.21822 1.24026C9.20842 1.2457 9.20299 1.24787 9.20299 1.24787L9.15946 1.23591C9.0833 1.2272 9.00713 1.20544 8.93314 1.17606L8.05507 0.943214C7.70036 0.995441 7.04099 1.11078 6.4284 1.33818C5.76359 1.67984 5.27614 2.17165 5.06831 2.52418C5.02697 2.59382 4.99106 2.67325 4.96059 2.75812C4.69293 3.73303 4.88334 4.8755 4.91163 5.17907C4.94536 5.53596 5.41541 4.50556 5.89525 4.34126C6.37509 4.17805 6.17053 5.14752 6.75265 4.74929C6.75265 4.74929 7.83528 4.17696 9.08112 4.42287C10.327 4.66768 10.562 4.60675 11.0723 4.14758C11.5826 3.68842 12.144 3.88209 12.7164 3.8723C13.2887 3.86251 13.5335 4.2194 13.3899 4.67856C13.2473 5.13773 13.3801 6.4173 13.4813 6.67626C13.4813 6.67626 13.9709 8.06464 12.7729 8.69137C11.9591 9.1168 11.5782 8.84479 11.4183 8.62608C11.0625 8.71531 10.8068 8.77297 10.6828 8.77297C10.4586 8.77297 10.846 9.75333 11.7861 10.3659C12.5151 10.8414 14.1178 10.8251 15.1047 10.4976C15.5562 10.2212 16.0404 9.80664 16.3679 9.18209Z" fill="#2E8BEF"/>
<path id="Vector_6" d="M6.56873 6.94063C6.56873 6.94063 6.66774 7.41938 7.02136 7.56845C6.99416 8.42585 7.3282 8.80776 7.43701 8.87522C7.301 7.77192 8.00172 6.83944 8.60777 6.47929C9.21383 6.11805 9.78507 6.32261 9.78507 6.32261C9.78507 6.32261 9.40424 5.93416 9.19968 5.97551C9.29543 5.4652 9.60118 5.1377 9.60118 5.1377C9.60118 5.1377 8.75684 5.53919 8.68938 5.60774C8.62083 5.67629 7.61327 6.42488 7.60022 6.44556C7.58607 6.46623 7.31405 6.94281 7.31405 6.94281L6.56873 6.94063Z" fill="#AD2525"/>
<path id="Vector_7" d="M7.5338 6.65409C7.5338 6.65409 7.84064 6.07741 8.20732 5.96534C8.57509 5.85326 8.54462 6.29176 8.40643 6.47564C8.26825 6.65953 7.85043 6.98595 7.73292 7.08823C7.61541 7.19051 7.34013 7.02185 7.5338 6.65409Z" fill="white"/>
<path id="Vector_8" d="M7.21942 10.8899C7.21942 10.8899 7.36957 9.64408 7.75039 9.52112C8.13122 9.39817 8.50552 9.50698 8.54686 9.77247C8.58821 10.038 7.86573 11.1413 7.66226 11.3317C7.4577 11.5221 7.14543 11.5765 7.17916 11.447C7.2118 11.3186 7.21942 10.8899 7.21942 10.8899Z" fill="white"/>
<path id="Vector_9" d="M8.22688 9.54199C8.22688 9.54199 7.77751 10.148 7.6687 10.4679C8.19315 9.83468 8.57398 9.84121 8.57398 9.84121L8.22688 9.54199Z" fill="#2E8BEF"/>
<path id="Vector_10" d="M15.0404 9.2473C15.1166 9.18419 15.2254 9.26689 15.183 9.35611C14.7804 10.2211 13.5846 11.0002 12.3888 10.7434C11.0102 10.4474 10.3867 8.8643 10.3867 8.8643L10.9993 8.58902C10.9993 8.58902 11.2202 8.53353 11.3377 8.48783C11.4204 8.6728 11.7632 9.21901 12.7729 8.69021C13.9709 8.06348 13.4812 6.6751 13.4812 6.6751C13.4812 6.6751 12.8414 6.02117 12.7185 6.02117C12.5999 6.02117 12.0613 6.1735 11.8056 6.51624C11.8633 6.33997 11.9253 6.18873 11.9906 6.08537C12.3268 5.55439 12.8991 6.35086 13.2571 5.52392C13.614 4.69699 13.268 3.73622 13.268 3.73622C13.268 3.73622 10.7763 4.25741 10.7458 6.44225C10.4499 6.26925 10.2453 5.29869 10.5217 4.67631C10.2769 4.69699 10.2148 4.9418 10.2148 4.9418C10.2148 4.9418 9.57178 4.38036 8.8678 4.65564C9.22251 3.25747 10.5119 2.25644 10.5315 2.24121C10.5151 2.26515 10.1321 2.84618 10.5162 3.23571C10.909 3.63394 12.4204 2.26515 13.5748 2.49473C14.7292 2.72431 15.6987 4.4402 15.7901 6.5021C15.8815 8.56508 14.0644 9.61725 12.8806 9.52476C13.4127 9.86968 14.4311 9.75434 15.0404 9.2473Z" fill="#125DA0"/>
<path id="Vector_11" d="M4.51659 7.97636C4.51659 7.97636 4.87348 7.42471 5.54808 7.54766C6.2216 7.67061 5.17052 8.83376 4.89415 9.61064C4.61887 10.3864 4.1695 10.4278 4.09768 9.83478C4.02696 9.24287 4.51659 7.97636 4.51659 7.97636Z" fill="#F9B2B2"/>
<path id="Vector_12" d="M8.83513 1.14971L8.42384 1.0409C7.78841 0.979971 7.08442 1.24437 7.36188 1.20303C7.68178 1.15515 8.26716 1.31183 7.25308 1.63825C6.23899 1.96468 6.12257 3.06798 6.45661 2.64581C6.79065 2.22364 7.51204 1.81561 7.02132 2.24431C6.53169 2.67301 6.30645 3.17679 5.99309 3.74911C5.67973 4.32144 4.90393 4.3889 4.90393 4.36822C4.90393 4.36822 4.99206 5.00801 5.2717 4.85133C5.29128 4.84045 5.31522 4.83066 5.34025 4.82195C5.50455 4.61957 5.69822 4.4074 5.89516 4.33994C6.20744 4.2333 6.23029 4.60869 6.36847 4.7719C6.51101 4.76755 6.63832 4.7534 6.72863 4.72076C7.06266 4.59781 7.11707 4.49662 7.32815 4.14191C7.53924 3.78828 7.94727 2.86233 8.2541 2.50762C8.53809 2.18229 9.27036 1.42173 8.83513 1.14971Z" fill="#125DA0"/>
<path id="Vector_13" d="M5.10858 5.11777C5.10858 5.11777 5.79624 4.81093 5.4622 5.66942C5.12817 6.52682 5.78863 6.87392 5.23045 7.0578C4.67227 7.24169 4.52211 6.90112 4.63092 6.39081C4.74081 5.87942 5.10858 5.11777 5.10858 5.11777Z" fill="#F9B2B2"/>
<path id="Vector_14" d="M6.47732 6.82617C6.47732 6.82617 6.2325 6.74457 6.29343 6.59441C6.35437 6.44426 6.51758 7.03726 7.23244 6.30172C7.9473 5.56618 8.76444 5.43018 8.76444 5.43018C8.76444 5.43018 7.80476 6.10369 7.55995 6.42358C7.31404 6.74457 6.76348 7.25487 6.47732 6.82617Z" fill="#F9B2B2"/>
<path id="Vector_15" d="M7.65464 7.33629C7.65464 7.33629 7.28687 8.23503 7.4305 8.55493C7.57303 8.87482 7.81676 7.3265 8.54686 6.65516C8.88089 6.34832 9.31612 6.00122 8.68287 6.38967C8.04961 6.77811 7.65464 7.33629 7.65464 7.33629Z" fill="#F9B2B2"/>
<path id="Vector_16" d="M8.08006 9.50488L8.15187 9.90638L7.88312 9.87265C7.88312 9.87265 7.65136 10.3971 7.66224 10.5538C7.86679 10.1349 7.99954 10.0163 7.99954 10.0163L8.31617 10.0337L8.29876 9.53644L8.08006 9.50488Z" fill="black"/>
<path id="Vector_17" d="M7.84505 3.12674C7.84505 3.12674 7.44681 3.60658 7.60023 3.98414C7.75365 4.3617 8.15188 4.24963 8.88633 3.14633C9.62187 2.04302 10.3977 1.48158 11.3573 1.29769C12.317 1.11381 11.8067 0.480551 10.6218 0.736248C9.43798 0.991944 8.15188 2.42167 7.84505 3.12674Z" fill="#9AC9F4"/>
<path id="Vector_18" d="M5.78866 3.19766C5.99072 2.77204 6.00578 2.3564 5.82229 2.26928C5.63879 2.18217 5.32624 2.45657 5.12417 2.88219C4.92211 3.3078 4.90705 3.72345 5.09054 3.81057C5.27403 3.89768 5.58659 3.62327 5.78866 3.19766Z" fill="#9AC9F4"/>
<path id="Vector_19" d="M11.2344 10.1937C11.2877 10.2448 11.2572 10.334 11.1832 10.3427C10.8557 10.3775 10.2584 10.5723 10.3781 11.5505C10.5413 12.8845 10.4325 13.5112 10.6642 12.8986C10.797 12.5472 10.871 12.187 10.9112 11.9433C10.9265 11.8497 11.0592 11.8443 11.081 11.9367C11.1256 12.1217 11.1495 12.4101 11.0864 12.8431C10.9602 13.7125 11.5227 11.8998 11.3258 10.902C11.3105 10.8247 11.4009 10.7682 11.4629 10.8171C12.1734 11.3753 12.3769 12.3176 12.0526 13.3055C11.699 14.3816 9.88735 15.5524 9.43906 15.6068C8.98969 15.6612 9.64362 14.0683 9.43906 13.3197C9.23451 12.5711 9.03104 10.8421 9.0713 10.7192C9.11155 10.5962 10.0647 9.9434 10.2149 9.86179C10.3324 9.7976 10.5848 9.7421 10.6871 9.72034C10.7154 9.7149 10.7437 9.72361 10.7643 9.74319L11.2344 10.1937Z" fill="#AD2525"/>
<path id="Vector_20" d="M10.6632 6.29198C10.6632 6.29198 11.4901 4.45423 12.8992 4.29102C13.1951 5.36277 12.9405 5.97535 12.8382 6.06784C12.736 6.15923 12.144 6.30286 11.8786 6.57814C11.6131 6.85342 11.3889 7.75217 11.205 8.08947C11.0212 8.42677 11.1746 8.44636 10.797 8.64112C10.4194 8.8348 10.266 9.13076 10.1637 9.43759C10.0615 9.74443 10.0212 9.88697 9.63277 10.2036C9.24433 10.5202 8.47942 10.9282 8.08118 11.2046C7.68295 11.4799 7.86683 11.0925 8.19325 10.6638C8.51967 10.2351 8.50009 9.58122 8.326 9.47894C8.15191 9.37666 8.0703 9.16231 8.0703 9.16231L7.6416 9.32552C7.6416 9.32552 8.12471 8.67921 9.07786 8.95775C10.031 9.23739 10.154 8.45398 10.154 8.45398L10.6632 6.29198Z" fill="#AD2525"/>
<path id="Vector_21" d="M5.79835 10.1929C5.79835 10.1929 6.11498 11.479 5.25213 11.9392C4.97685 11.8729 4.93551 11.7347 4.93551 11.7347C4.93551 11.7347 5.0269 12.2602 5.6297 12.332C6.23249 12.4038 6.63507 12.245 6.63507 12.245C6.63507 12.245 6.00726 12.6073 5.52198 12.6639C5.0367 12.7205 4.29137 12.4343 4.225 12.3222C4.15862 12.2102 3.83655 11.6019 3.83655 11.5356C3.83655 11.4692 3.91272 11.1939 3.77018 10.8871C3.62764 10.5802 3.52972 10.3865 3.57651 10.3768C3.6222 10.367 4.14339 10.4529 4.25002 10.8C4.35774 11.1471 4.78644 10.713 4.95509 10.5704C5.12374 10.4279 5.79835 10.1929 5.79835 10.1929Z" fill="#827F77"/>
<path id="Vector_22" d="M15.4626 2.07473C15.4626 2.07473 19.3024 1.5851 20.4253 2.50343C20.1184 7.05701 13.5639 17.9627 8.70349 20.0867C5.92565 16.6962 3.92468 12.2852 3.92468 12.2852L6.01813 12.765L6.65139 12.7857C6.65139 12.7857 7.97884 15.7061 9.16374 15.8802C10.3487 16.0543 13.9828 11.1014 13.9828 11.1014C13.9828 11.1014 14.6367 10.5704 14.7793 10.5095C14.9218 10.4485 16.4234 9.40616 16.6791 8.49762C16.9347 7.58908 16.7911 6.3737 16.567 5.44449C16.3407 4.51528 15.4626 2.07473 15.4626 2.07473Z" fill="#F4BA00"/>
<path id="Vector_23" d="M2.22943 6.38332C2.22943 6.38332 4.03672 5.09722 4.44475 5.04608C4.85277 4.99494 4.89412 5.43453 4.72003 5.73048C4.54594 6.02644 4.4034 7.09927 4.48501 7.24181C4.56661 7.38435 3.79082 9.96852 3.79082 9.96852L2.75932 8.30377L1.92151 7.73144L2.22943 6.38332Z" fill="#F4BA00"/>
<path id="Vector_24" d="M16.2798 3.97445C16.2798 3.97445 17.617 3.80036 18.0153 4.15834C18.271 5.94495 14.7206 15.2947 8.62085 18.0182C8.97447 15.9759 8.94727 15.9084 8.94727 15.9084C8.94727 15.9084 11.3432 15.2142 12.0787 13.6888C12.8143 12.1633 13.5215 10.9109 13.5215 10.9109C13.5215 10.9109 14.7739 10.8021 15.591 10.2026C16.4082 9.60305 16.8499 7.67063 16.8499 7.22126C16.8499 6.77188 16.2798 3.97445 16.2798 3.97445Z" fill="#F27900"/>
<path id="Vector_25" d="M5.59923 12.7966C5.59923 12.7966 5.64057 14.0903 8.62189 18.0182C8.47935 19.7613 8.47935 19.7613 8.47935 19.7613C8.47935 19.7613 6.51865 17.3306 5.80378 15.8203C5.08892 14.3101 4.41541 12.6758 4.41541 12.6758L5.59923 12.7966Z" fill="#F27900"/>
<path id="Vector_26" d="M2.46777 7.94244C2.46777 7.94244 2.46777 7.2069 3.40678 6.52686C3.44813 7.67042 3.9791 9.65832 3.9791 9.65832L3.61134 10.1208L2.46777 7.94244Z" fill="#F27900"/>
<path id="Vector_27" d="M7.28905 11.0046C7.28905 11.0046 7.56433 10.8969 7.93754 10.5345C8.31075 10.1722 8.49899 9.70215 8.49899 9.70215C8.49899 9.70215 8.52945 10.1211 8.37604 10.3659C8.22262 10.6107 7.52843 11.504 7.45226 11.5247C7.3761 11.5453 7.20745 11.5453 7.24335 11.4431C7.27926 11.3408 7.28905 11.0046 7.28905 11.0046Z" fill="#BCB8AC"/>
<path id="Vector_28" d="M8.98864 13.8169C8.39673 14.7972 7.57959 14.6133 7.57959 14.5317C7.57959 14.4501 6.90607 13.0204 6.91042 13.0052C6.91586 12.9899 6.98659 12.3665 6.98659 12.3665L8.92009 10.8345C8.92118 10.8356 9.58164 12.8365 8.98864 13.8169Z" fill="black"/>
<path id="Vector_29" d="M8.76986 6.20501C8.95375 5.40855 9.98959 5.03969 9.98959 5.03969C8.90696 4.9929 7.82324 5.98087 7.30532 6.54667C6.7874 7.11138 6.31626 6.64133 6.31626 6.64133C6.30865 6.85242 6.49253 7.30288 7.28356 7.42583C7.15082 7.91111 7.3075 8.54219 7.3075 8.54219C7.45003 7.18754 8.78075 6.279 9.45209 6.24418C9.22685 6.09838 8.76986 6.20501 8.76986 6.20501ZM8.38142 6.32253C8.24324 6.5804 7.64589 6.95252 7.64589 6.95252C7.50553 6.79149 7.68941 6.45201 8.01039 6.20175C8.33246 5.95258 8.51961 6.06465 8.38142 6.32253Z" fill="black"/>
<path id="Vector_30" d="M5.78753 6.73042C5.78753 6.73042 5.33272 7.15368 4.81262 6.94477C4.39589 6.77721 5.04546 5.34857 5.68851 4.50967C5.73639 4.44656 5.65587 4.36713 5.59385 4.4161C5.15427 4.76428 4.56998 5.31811 4.29252 5.96768C3.81594 7.08405 4.43506 7.2886 4.43506 7.2886C4.43506 7.2886 3.61792 9.15356 3.69952 10.0937C3.48843 9.88257 3.31108 9.93697 3.31108 9.93697C3.1544 10.6584 3.47429 12.3057 4.98562 12.939C6.95285 12.8236 7.3957 11.6724 7.38155 11.1284C7.41528 9.87604 8.03331 9.42666 8.44678 9.5235C8.37496 9.33962 8.19978 9.30371 8.19978 9.30371C8.19978 9.30371 8.55885 9.20796 8.83086 9.53221C8.83413 9.12418 8.12471 8.85978 7.76673 9.0589C7.40984 9.25801 7.15959 9.6149 7.09757 10.3406C7.03555 11.0664 6.92348 11.9488 6.18903 12.347C5.45458 12.7453 5.01935 12.556 5.01935 12.556C5.01935 12.556 4.15651 12.1425 3.95195 11.4886C4.06402 11.6877 4.25335 11.7083 4.25335 11.7083C4.25335 11.7083 4.28382 10.7182 3.76372 10.5082C4.10537 10.5234 4.35563 11.0446 4.35563 11.0446C4.35563 11.0446 4.30666 10.4331 4.00309 10.1448C4.10537 10.1622 4.18698 10.2569 4.18698 10.2569C4.18698 10.2569 4.1119 9.52133 4.44594 8.59538C4.77998 7.66943 4.90837 7.37674 4.90837 7.37674C4.90837 7.37674 5.63629 7.37783 5.78753 6.73042Z" fill="black"/>
<path id="Vector_31" d="M4.70372 10.6314C4.70372 10.6314 5.25537 9.95027 5.68081 9.88281C6.37173 10.2201 5.62967 11.4344 5.05408 11.5574C4.84625 11.2919 4.94201 10.8327 5.10522 10.6825C4.81252 10.873 4.62538 11.1656 4.66563 11.4964C4.70589 11.8272 4.99967 12.4702 5.71018 12.5649C6.42069 12.6596 5.06387 12.7553 5.06387 12.7553C5.06387 12.7553 4.34792 12.3321 4.19885 12.0503C4.48937 12.2341 4.62755 12.2341 4.62755 12.2341C4.62755 12.2341 4.27502 11.7489 4.3675 11.1156L4.44911 11.1896C4.4502 11.1907 4.48501 10.9361 4.70372 10.6314Z" fill="black"/>
<path id="Vector_32" d="M5.43392 9.44286C5.60584 9.34819 5.85936 9.23939 6.08241 9.25897C6.2478 9.41674 6.34899 9.54296 6.41101 9.63871C6.4393 9.68223 6.50676 9.65721 6.50023 9.60607C6.47629 9.40695 6.40122 9.13602 6.17707 8.97607C5.76361 9.02721 5.51226 9.21545 5.37408 9.36669C5.33708 9.40804 5.38605 9.47006 5.43392 9.44286Z" fill="black"/>
<path id="Vector_33" d="M5.16838 4.89162C5.17817 4.87203 5.17817 4.84918 5.17055 4.82851C5.09548 4.63266 4.73315 3.52391 5.64931 2.32051C6.50997 1.19109 7.92446 1.08555 8.56534 1.30534C8.64803 1.33363 8.63606 1.45331 8.54901 1.4642C8.02783 1.52839 7.60783 1.75906 7.34996 1.93968C7.27815 1.98973 7.32493 2.10289 7.41198 2.08766C7.62742 2.04958 7.90488 2.02129 8.11814 2.07678C8.18125 2.0931 8.20192 2.17144 8.15405 2.21605C7.64048 2.69263 7.1824 3.34765 7.09318 4.0266C7.08991 4.05163 7.07468 4.07448 7.05292 4.08753C6.67971 4.3095 6.56764 3.85686 6.59158 3.52283C6.59702 3.4434 6.49691 3.40205 6.44686 3.46407C6.06277 3.945 6.13458 4.8753 6.66448 5.26592C6.70365 5.29421 6.75914 5.28115 6.78308 5.23871C7.13779 4.60328 7.87332 4.40852 8.2585 4.34867C8.33684 4.3367 8.35425 4.23225 8.28461 4.19525C8.14099 4.11909 7.95384 4.03204 7.80042 4.00484C7.75799 3.99723 7.7297 3.95697 7.73514 3.91344C7.8211 3.24102 8.8874 1.77756 10.0168 1.15736C10.9232 0.659022 12.0428 0.84073 12.5107 0.950626C12.5847 0.968035 12.5977 1.06814 12.5303 1.10296C12.4269 1.15627 12.3007 1.23135 12.1973 1.32057C12.1353 1.37497 12.1832 1.47616 12.2648 1.46311C13.145 1.31622 14.1058 1.57627 14.8152 2.45978C15.5867 3.41946 16.4506 5.05809 16.4375 7.42791C16.4245 9.79773 14.9262 10.4234 13.4834 10.5452C12.1962 10.654 11.2463 9.70416 10.8688 9.16448C10.8253 9.10246 10.8808 9.02194 10.9537 9.03826C12.1734 9.30701 13.0645 8.93924 13.478 8.36366C13.602 8.19174 13.4029 7.9676 13.2179 8.07205C11.8796 8.83044 10.5924 8.37236 9.8732 7.71408C9.82423 7.66947 9.74589 7.69776 9.7361 7.76304C9.51087 9.34183 11.7131 10.987 13.2168 11.2144C14.7684 11.4494 16.8826 10.1427 17.209 7.69123C17.5354 5.24089 16.2047 1.35321 13.0602 0.400061C11.4063 -0.0308147 10.1898 0.322808 9.3074 0.857051C9.28673 0.86902 9.2617 0.872284 9.23885 0.864668C7.96581 0.428351 6.43163 0.481667 5.24454 1.81673C4.09336 3.11153 4.13689 4.65877 4.66242 5.49006C4.69289 5.53902 4.76362 5.54011 4.79735 5.49332C5.02149 5.18431 5.13247 4.96996 5.16838 4.89162Z" fill="black"/>
<path id="Vector_34" d="M10.7305 5.15486C10.996 4.48244 11.7033 3.39981 13.4921 3.47923C13.5454 3.48141 13.5889 3.52276 13.5954 3.57499C13.8468 5.60968 12.9546 6.72822 12.2158 7.27987C12.132 7.34298 12.0156 7.26246 12.0439 7.16127C12.0482 7.14603 12.0526 7.1308 12.0558 7.11557C12.0906 6.97847 11.8872 6.91754 11.8447 7.05246C11.6989 7.51271 11.6826 8.19711 11.6815 8.47566C11.6815 8.54203 11.6239 8.59208 11.5586 8.58447L11.0352 8.52027C10.9754 8.51265 10.9318 8.45825 10.9395 8.3984C11.0026 7.85654 11.342 5.43559 12.4334 4.64891C12.5008 4.59995 12.5966 4.64347 12.6064 4.72725C12.6379 4.99057 12.6401 5.24082 12.6227 5.44429C12.6129 5.55527 12.7565 5.60968 12.8207 5.51937C13.2658 4.89808 13.1613 4.32575 13.1004 4.11793C13.0851 4.06788 13.0383 4.03415 12.9861 4.0385C12.7185 4.06135 11.8621 4.21912 10.9133 5.26694C10.8328 5.35833 10.6859 5.26802 10.7305 5.15486Z" fill="black"/>
<path id="Vector_35" d="M5.02698 12.878C5.02698 12.878 6.52852 13.2664 7.28364 12.5004C8.03876 11.7344 7.93757 11.8269 8.03876 11.7344C8.13995 11.6419 10.2269 9.73997 11.3574 10.0261C10.8743 9.51583 10.377 9.00879 10.377 9.00879C10.377 9.00879 9.86128 9.59635 9.04414 9.57023C9.34009 9.82593 9.759 9.92277 9.759 9.92277C9.759 9.92277 8.34124 10.6191 7.78959 11.3264C7.23794 12.0347 6.92457 12.3546 6.35334 12.4699C5.78319 12.5853 5.02698 12.878 5.02698 12.878Z" fill="black"/>
<path id="Vector_36" d="M7.80911 9.62583C7.80911 9.62583 8.21279 9.46806 8.40102 9.84562C8.59035 10.2232 7.47181 10.9435 7.21176 11.5147C6.95171 12.087 6.67099 12.1425 6.67534 12.3166C6.68078 12.4907 7.13451 12.4037 7.36409 12.1382C7.59368 11.8727 8.18123 10.5866 8.74268 10.1982C8.98749 9.70308 8.39014 9.17755 8.05828 9.27874C7.72751 9.38102 7.80911 9.62583 7.80911 9.62583Z" fill="black"/>
<path id="Vector_37" d="M8.74815 4.81877C9.11047 4.64903 9.88409 4.33893 10.4042 4.51193C10.254 4.14416 9.77093 4.0495 9.77093 4.0495C9.77093 4.0495 10.031 2.92987 10.5892 2.27594C10.6708 2.18019 10.5674 2.03766 10.4521 2.08662C9.71326 2.39998 8.97773 3.30417 8.60126 4.69908C8.5795 4.78286 8.66763 4.85685 8.74815 4.81877Z" fill="black"/>
<path id="Vector_38" d="M13.2876 5.7002C13.2876 5.7002 13.898 6.43791 13.6282 7.61846C13.6108 7.69463 13.503 7.69681 13.4835 7.62064C13.33 7.01567 12.798 6.40418 12.798 6.40418L13.2876 5.7002Z" fill="black"/>
<path id="Vector_39" d="M8.74377 11.0197C8.74377 11.0197 9.31609 12.9195 8.00823 14.2262C7.49792 13.8585 7.03767 12.6028 7.10948 12.3885C7.1813 12.1741 6.19006 12.7867 6.19006 12.7867C6.19006 12.7867 7.3815 15.8126 8.92003 16.534C11.7795 15.2675 14.2364 11.8978 14.6455 10.7749C12.9502 10.7956 12.2147 10.591 12.2147 10.591C12.2147 10.591 13.0112 12.7563 9.60117 15.1446C10.3367 12.8574 10.0299 11.2438 9.315 10.5083C8.64149 10.7542 8.74377 11.0197 8.74377 11.0197Z" fill="black"/>
<path id="Vector_40" d="M13.4508 0.756948L15.5442 2.46195C15.5442 2.46195 18.5875 2.08439 19.68 2.82972C18.8324 2.69698 18.3221 2.86019 18.3221 2.86019C18.3221 2.86019 19.2099 3.23775 19.4254 3.60552C19.4047 5.03524 16.6279 14.0412 8.58164 19.2694C6.6699 17.51 5.08023 13.2991 4.88546 12.7693C4.83215 12.779 4.77557 12.7725 4.7266 12.7431C4.25764 12.4668 3.93993 12.0305 3.79086 11.5104C3.74625 11.3537 3.86811 11.2242 4.01827 11.2122C4.02915 11.2122 3.09885 8.92619 3.10973 8.9251L2.5929 8.51272C2.5929 8.51272 4.53945 16.818 8.84169 20.7927C14.7782 17.5524 20.5091 9.73027 21.3055 1.94947C18.853 0.553478 13.4508 0.756948 13.4508 0.756948Z" fill="black"/>
<path id="Vector_41" d="M4.91153 5.17905C4.91153 5.17905 2.97041 5.87759 2.32736 6.98199C2.18483 7.2268 2.30234 7.54234 2.56674 7.64462L3.29139 7.92534L3.82237 10.2234L3.43393 10.6934L2.73974 8.73269L1.12178 8.17234C0.72137 8.03415 0.566865 7.54996 0.812769 7.20504C1.11634 6.78069 1.54722 6.22034 2.04447 5.69698C3.02482 4.66548 4.57641 3.40332 4.57641 3.40332L4.91153 5.17905Z" fill="black"/>
<path id="Vector_42" d="M13.2777 5.83282C13.2777 5.83282 13.7673 5.55863 14.0524 5.45744C14.0959 5.44221 14.134 5.49117 14.109 5.53034C13.6988 6.17013 13.3854 6.33551 13.3854 6.33551L13.2777 5.83282Z" fill="black"/>
<path id="Vector_43" d="M9.7937 3.21387C9.7937 3.21387 10.3345 3.36184 10.6087 3.49133C10.65 3.51091 10.6435 3.57293 10.5978 3.58272C9.85572 3.75029 9.51733 3.64801 9.51733 3.64801L9.7937 3.21387Z" fill="black"/>
<path id="Vector_44" d="M10.3792 2.2334C10.3792 2.2334 10.9199 2.38138 11.1941 2.51086C11.2355 2.53044 11.2289 2.59246 11.1832 2.60225C10.4412 2.76982 10.1028 2.66754 10.1028 2.66754L10.3792 2.2334Z" fill="black"/>
<path id="Vector_45" d="M7.20417 0.78418C7.20417 0.78418 7.59479 1.18677 7.76562 1.43702C7.79173 1.4751 7.75365 1.52516 7.71012 1.51101C6.98656 1.27925 6.74609 1.0192 6.74609 1.0192L7.20417 0.78418Z" fill="black"/>
<path id="Vector_46" d="M6.30002 1.12158C6.30002 1.12158 6.71458 1.49914 6.90064 1.73961C6.92893 1.7766 6.89411 1.82774 6.8495 1.81686C6.11287 1.62971 5.85718 1.38489 5.85718 1.38489L6.30002 1.12158Z" fill="black"/>
<path id="Vector_47" d="M4.64286 3.89844C4.64286 3.89844 5.20322 3.92129 5.49917 3.98548C5.54487 3.99528 5.5514 4.0573 5.50897 4.07688C4.82457 4.40766 4.47095 4.38481 4.47095 4.38481L4.64286 3.89844Z" fill="black"/>
<path id="Vector_48" d="M7.98103 2.80029C7.98103 2.80029 8.52507 2.93957 8.80035 3.06469C8.84279 3.08428 8.83626 3.1463 8.79165 3.15718C8.05285 3.33671 7.71228 3.23987 7.71228 3.23987L7.98103 2.80029Z" fill="black"/>
<path id="Vector_49" d="M8.58486 1.89844C8.58486 1.89844 9.09843 2.12584 9.34978 2.2945C9.38786 2.32061 9.37154 2.38045 9.32584 2.38372C8.56745 2.43921 8.24756 2.28797 8.24756 2.28797L8.58486 1.89844Z" fill="black"/>
<path id="Vector_50" d="M9.66207 0.926758C9.66207 0.926758 10.1212 1.24883 10.3356 1.46318C10.3682 1.49582 10.3399 1.55131 10.2942 1.54587C9.5402 1.4523 9.25513 1.2423 9.25513 1.2423L9.66207 0.926758Z" fill="black"/>
<path id="Vector_51" d="M11.0646 0.42627C11.0646 0.42627 11.4454 0.838648 11.6086 1.09326C11.6336 1.13243 11.5945 1.1803 11.551 1.16507C10.8328 0.913726 10.6 0.648236 10.6 0.648236L11.0646 0.42627Z" fill="black"/>
<path id="Vector_52" d="M4.87028 2.98877C4.87028 2.98877 5.41649 3.11607 5.69504 3.23576C5.73747 3.25426 5.73312 3.31628 5.68742 3.32825C4.95297 3.5241 4.61023 3.43488 4.61023 3.43488L4.87028 2.98877Z" fill="black"/>
<path id="Vector_53" d="M5.30331 2.09961C5.30331 2.09961 5.8332 2.28458 6.0976 2.43256C6.13786 2.45541 6.12589 2.51634 6.08019 2.52396C5.32833 2.63929 4.99756 2.51416 4.99756 2.51416L5.30331 2.09961Z" fill="black"/>
<path id="Vector_54" d="M13.502 6.80206C13.502 6.80206 13.9916 6.52787 14.2767 6.42668C14.3202 6.41144 14.3583 6.46041 14.3332 6.49958C13.923 7.13936 13.6097 7.30475 13.6097 7.30475L13.502 6.80206Z" fill="black"/>
<path id="Vector_55" d="M13.2843 8.27246C13.2843 8.27246 13.7293 8.6152 13.9338 8.83826C13.9654 8.87199 13.9349 8.92639 13.8892 8.91878C13.1395 8.79256 12.8643 8.5695 12.8643 8.5695L13.2843 8.27246Z" fill="black"/>
<path id="Vector_56" d="M12.317 8.75879C12.317 8.75879 12.6413 9.21687 12.7718 9.48997C12.7914 9.53132 12.7468 9.57484 12.7055 9.55417C12.0254 9.2136 11.8285 8.91982 11.8285 8.91982L12.317 8.75879Z" fill="black"/>
<path id="Vector_57" d="M10.3171 5.28345C10.2823 5.10174 10.192 4.85584 9.98848 4.80143C9.84268 4.76226 9.73279 4.86454 9.69035 4.99511C9.61527 5.22687 9.65444 5.4978 9.64574 5.73717C9.64248 5.82966 9.63704 5.92323 9.61854 6.01354C9.61527 6.02769 9.60766 6.04836 9.59786 6.06904C9.59786 6.06904 9.59786 6.06904 9.59786 6.06795C9.55869 6.00484 9.52061 5.93956 9.47818 5.87754C9.37916 5.73282 9.22248 5.49236 9.0288 5.48039C8.93088 5.47495 8.85145 5.52609 8.79487 5.60552C8.73502 5.6893 8.75352 5.79811 8.70891 5.8808C8.6643 5.96132 8.68389 5.93412 8.58378 5.92541C8.53156 5.92106 8.48586 5.91671 8.43363 5.92432C8.33679 5.93847 8.25192 5.98199 8.17358 6.03966C8.01363 6.15826 7.95597 6.32473 7.83193 6.46509C7.78731 6.51515 7.82104 6.58261 7.88306 6.58913C8.03648 6.60546 8.12135 6.58696 8.24974 6.49556C8.37596 6.40634 8.43689 6.32908 8.59793 6.33997C8.74046 6.34976 8.86886 6.35302 8.97766 6.24421C9.0288 6.19308 9.0658 6.11909 9.08647 6.04945C9.09191 6.02878 9.09518 6.00049 9.09735 5.97002C9.10062 5.97329 9.10279 5.97546 9.10497 5.97764C9.1387 6.01354 9.16916 6.05271 9.20072 6.09188C9.28124 6.19416 9.3487 6.32364 9.44662 6.4096C9.57393 6.52167 9.72735 6.49121 9.80351 6.34323C9.9047 6.1452 9.896 5.87101 9.88838 5.65666C9.88294 5.51086 9.87097 5.36505 9.87315 5.21816C9.87424 5.14309 9.85574 4.98423 10.0168 5.02775C10.0929 5.04843 10.1691 5.26713 10.1832 5.31935C10.2072 5.40749 10.3345 5.37049 10.3171 5.28345Z" fill="white"/>
<g id="Group_2">
<path id="Vector_58" d="M18.2263 13.0893C18.2948 12.9641 18.3329 12.8118 18.3329 12.6464V12.1176C18.3329 11.7205 18.1098 11.4854 17.7899 11.5475L16.9282 11.7129C16.6768 11.7607 16.4603 11.8782 16.2895 12.0502C16.1926 11.9348 16.0458 11.8826 15.8728 11.9163L14.4441 12.1905C14.331 12.2123 14.2287 12.2667 14.1438 12.345C14.0589 12.2993 13.9567 12.2841 13.8435 12.3059L12.5324 12.5572C12.4192 12.579 12.318 12.6323 12.2332 12.7095C12.1494 12.6649 12.0471 12.6497 11.9339 12.6714L11.4356 12.7672C11.2343 12.8053 11.0635 12.9456 10.9492 13.1633C10.835 12.9903 10.6642 12.9163 10.4629 12.9543L9.9667 13.049C9.85681 13.0697 9.75671 13.1219 9.67401 13.1959C9.59132 13.1535 9.49122 13.1404 9.38132 13.1611L7.95268 13.4353C7.82864 13.4592 7.71766 13.5223 7.62953 13.6115C7.54139 13.556 7.43041 13.5354 7.30637 13.5593L6.84503 13.6474C6.66985 13.6812 6.52187 13.7922 6.42503 13.9467C6.29664 13.8237 6.14322 13.7813 5.95607 13.8172L5.63618 13.8781C5.5252 13.8999 5.42509 13.9521 5.3424 14.0272C5.2608 13.9837 5.16178 13.9695 5.05189 13.9913L3.62107 14.2666C3.30118 14.3275 3.07812 14.6485 3.07812 15.0456V18.1684C3.07812 18.5655 3.30118 18.8006 3.62107 18.7385L5.04971 18.4643C5.2151 18.4328 5.35546 18.3316 5.45121 18.1858C5.53499 18.2826 5.65685 18.3294 5.79504 18.3033L5.92017 18.2794C6.07141 18.25 6.20415 18.1401 6.28685 17.991C6.40436 18.1183 6.58171 18.1706 6.80042 18.1281C6.99953 18.09 7.16383 17.9878 7.28026 17.8398C7.39668 17.9432 7.56098 17.9823 7.75901 17.9442C7.93854 17.9094 8.08978 17.8235 8.20294 17.6972C8.28455 17.7712 8.39335 17.805 8.51413 17.781L8.63273 17.7582C8.66646 17.7517 8.69801 17.7419 8.72957 17.7277C8.76112 17.7299 8.79267 17.7277 8.8264 17.7212L8.94609 17.6983C9.20396 17.6483 9.40635 17.3643 9.40635 17.052V16.7963C9.40635 16.7223 9.39764 16.6527 9.38241 16.5896C9.44117 16.5776 9.49666 16.558 9.54888 16.5308C9.57064 16.6298 9.61526 16.7125 9.67619 16.7713V16.9998C9.67619 17.3132 9.87857 17.5188 10.1364 17.4698L10.2616 17.4459C10.3813 17.4231 10.4879 17.3502 10.5695 17.2468C10.65 17.3186 10.7577 17.3502 10.8774 17.3273L10.9906 17.3055C11.0243 17.299 11.057 17.2892 11.0874 17.2751C11.119 17.2773 11.1516 17.2751 11.1853 17.2685L11.3018 17.2457C11.4225 17.2228 11.5303 17.1489 11.6119 17.0444C11.7141 17.1151 11.8447 17.1412 11.9927 17.113L12.2364 17.0662C12.3376 17.0466 12.429 16.9922 12.5041 16.9127C12.5792 16.9628 12.6716 16.9824 12.7718 16.9628L13.1645 16.8877C13.2614 16.8692 13.3495 16.8181 13.4235 16.7441C13.4964 16.7898 13.5856 16.8072 13.6825 16.7887L14.0111 16.7256C14.1123 16.706 14.2047 16.6505 14.2798 16.5722C14.3549 16.6222 14.4474 16.6418 14.5486 16.6222L14.6639 16.6005C14.6965 16.5939 14.727 16.5842 14.7575 16.5711C14.7879 16.5722 14.8195 16.57 14.8511 16.5646L14.9664 16.5428C15.0698 16.5232 15.1644 16.4656 15.2406 16.3829C15.3167 16.4362 15.4114 16.4568 15.5148 16.4373L15.8728 16.3687C15.9587 16.3524 16.0392 16.31 16.1067 16.2479C16.1894 16.2925 16.2884 16.3067 16.3994 16.2849L17.3721 16.0978C18.0413 15.9694 18.4417 15.1087 18.4417 14.3503V13.8857C18.4439 13.5419 18.3699 13.2732 18.2263 13.0893Z" fill="black"/>
<g id="Group_3">
<path id="Vector_59" d="M5.16074 14.645V15.1641C5.16074 15.275 5.12701 15.3305 5.04975 15.3447L4.19997 15.5079V15.8495L4.80058 15.7342C4.87784 15.719 4.91157 15.7614 4.91157 15.8724V16.3479C4.91157 16.4589 4.87784 16.5144 4.80058 16.5285L4.19997 16.6438V17.0257L5.04975 16.8625C5.12701 16.8473 5.16074 16.8897 5.16074 17.0007V17.7656C5.16074 17.8766 5.12701 17.9321 5.04975 17.9463L3.62112 18.2204C3.54386 18.2357 3.51013 18.1932 3.51013 18.0823V14.9595C3.51013 14.8485 3.54386 14.793 3.62112 14.7789L5.04975 14.5047C5.12701 14.4916 5.16074 14.5341 5.16074 14.645ZM7.30641 14.0738L6.84507 14.1619C6.76782 14.1772 6.73409 14.2196 6.73409 14.3034V15.0139L6.13674 14.3883C6.08451 14.3317 6.03555 14.3175 5.95503 14.3328L5.63514 14.3937C5.55788 14.4089 5.52415 14.4514 5.52415 14.5351V16.695C5.52415 16.7788 5.55788 16.8081 5.63514 16.794L6.09648 16.7059C6.17373 16.6906 6.20746 16.6482 6.20746 16.5644V15.4644L6.73409 16.053V16.4632C6.73409 16.547 6.76782 16.5764 6.84507 16.5622L7.30641 16.4741C7.38367 16.4589 7.4174 16.4164 7.4174 16.3326V14.1728C7.4174 14.089 7.38367 14.0586 7.30641 14.0738ZM9.38136 13.6756L7.95273 13.9498C7.87547 13.965 7.84174 14.0074 7.84174 14.0912V16.251C7.84174 16.3348 7.87547 16.3642 7.95273 16.3501L9.38136 16.0759C9.45862 16.0606 9.49235 16.0182 9.49235 15.9344V15.5449C9.49235 15.4611 9.45862 15.4317 9.38136 15.4459L8.53158 15.6091V15.3218L9.1322 15.2065C9.20945 15.1913 9.24318 15.1488 9.24318 15.065V14.7082C9.24318 14.6244 9.20945 14.595 9.1322 14.6091L8.53158 14.7245V14.4677L9.38136 14.3045C9.45862 14.2892 9.49235 14.2468 9.49235 14.163V13.7735C9.49235 13.6908 9.45862 13.6614 9.38136 13.6756ZM11.934 13.1859L11.4356 13.2817C11.3714 13.2937 11.3312 13.3285 11.2942 13.409L11.02 14.0053C10.9982 14.0499 10.9895 14.0684 10.9645 14.0727L10.9373 14.0782C10.9123 14.0825 10.9036 14.0684 10.8818 14.0325L10.6044 13.5428C10.5674 13.4765 10.5271 13.458 10.4629 13.4699L9.96675 13.5646C9.88949 13.5798 9.85576 13.6223 9.85576 13.706V15.8659C9.85576 15.9496 9.88949 15.979 9.96675 15.9649L10.4259 15.8767C10.5032 15.8615 10.5369 15.8191 10.5369 15.7353V14.5624L10.7186 14.8909C10.7556 14.9606 10.8013 14.9813 10.8818 14.966L11.0048 14.9421C11.0853 14.9269 11.131 14.8877 11.168 14.8039L11.3497 14.4057V15.5786C11.3497 15.6624 11.3802 15.6929 11.4607 15.6776L11.9351 15.5862C12.0123 15.571 12.0461 15.5286 12.0461 15.4448V13.285C12.045 13.2012 12.0112 13.1707 11.934 13.1859ZM13.8435 12.8193L12.5324 13.0706C12.4552 13.0858 12.4214 13.1283 12.4214 13.2121V13.6157C12.4214 13.6995 12.4552 13.7289 12.5324 13.7147L12.8371 13.656V14.7756L12.5324 14.8344C12.4552 14.8496 12.4214 14.892 12.4214 14.9758V15.373C12.4214 15.4567 12.4552 15.4861 12.5324 15.472L13.8435 15.2206C13.9208 15.2054 13.9545 15.163 13.9545 15.0792V14.682C13.9545 14.5983 13.9208 14.5689 13.8435 14.583L13.5454 14.6407V13.5211L13.8435 13.4634C13.9208 13.4482 13.9545 13.4057 13.9545 13.3219V12.9183C13.9545 12.8356 13.9197 12.8051 13.8435 12.8193ZM15.8717 12.4308L14.4431 12.705C14.3658 12.7202 14.3321 12.7627 14.3321 12.8465V15.0063C14.3321 15.0901 14.3658 15.1194 14.4431 15.1053L15.8717 14.8311C15.949 14.8159 15.9827 14.7734 15.9827 14.6897V14.299C15.9827 14.2153 15.949 14.1859 15.8717 14.2L15.0219 14.3632V14.0771L15.6225 13.9617C15.6998 13.9465 15.7335 13.9041 15.7335 13.8203V13.4634C15.7335 13.3796 15.6998 13.3502 15.6225 13.3644L15.0219 13.4797V13.2229L15.8717 13.0597C15.949 13.0445 15.9827 13.0021 15.9827 12.9183V12.5287C15.9827 12.4461 15.949 12.4156 15.8717 12.4308ZM17.5321 13.3241L17.0729 13.323C17.0207 13.3241 16.9902 13.2773 16.9902 13.1968C16.9902 13.1174 17.0207 13.0575 17.0729 13.0478L17.79 12.9107C17.8672 12.8954 17.901 12.841 17.901 12.73V12.2012C17.901 12.0903 17.8672 12.0478 17.79 12.0631L16.9282 12.2284C16.5278 12.3057 16.2906 12.6256 16.2906 13.1326V13.5983C16.2906 14.0956 16.4789 14.237 16.7683 14.2435L17.2296 14.2479C17.2819 14.2468 17.3101 14.2816 17.3101 14.3839C17.3101 14.4546 17.2829 14.5177 17.2296 14.5275L16.4016 14.6864C16.3243 14.7016 16.2906 14.756 16.2906 14.867V15.6319C16.2906 15.7429 16.3243 15.7853 16.4016 15.7701L17.3743 15.583C17.7715 15.5068 18.0119 14.9399 18.0119 14.434V13.9683C18.0119 13.4721 17.8204 13.3307 17.5321 13.3241Z" fill="white"/>
</g>
</g>
</g>
</svg>
