<svg width="24" height="25" viewBox="0 0 24 25" fill="none" xmlns="http://www.w3.org/2000/svg">
<g id="OBJECTS">
<g id="Group">
<path id="Vector" d="M24 12.8911C24 19.5187 18.6276 24.8911 12 24.8911C5.37239 24.8911 0 19.5187 0 12.8911C0 6.2635 5.37239 0.891113 12 0.891113C18.6276 0.891113 24 6.2635 24 12.8911Z" fill="#126341"/>
<path id="Vector_2" d="M24 12.8911C24 19.5187 18.6276 24.8911 12 24.8911C5.37239 24.8911 0 19.5187 0 12.8911H24Z" fill="#00BF7A"/>
<path id="Vector_3" d="M20.315 12.8911C20.315 15.0501 19.4916 17.0082 18.156 18.4844C17.7443 18.9463 17.2723 19.348 16.7702 19.7095C16.3384 20.0108 15.8765 20.2718 15.3945 20.4928C14.9527 20.6936 14.4907 20.8543 14.0087 20.9647C13.5669 21.0752 13.105 21.1455 12.633 21.1857C12.4322 21.2057 12.2213 21.2057 12.0104 21.2057C11.7493 21.2057 11.4983 21.1957 11.2372 21.1656C10.7652 21.1254 10.3033 21.035 9.86146 20.9145C9.37945 20.784 8.91753 20.6133 8.47568 20.4024C7.99368 20.1714 7.53175 19.9003 7.09995 19.589C6.58782 19.2175 6.12589 18.7857 5.71418 18.3036C4.45895 16.8476 3.70581 14.9597 3.70581 12.8811C3.70581 10.8124 4.45895 8.91452 5.71418 7.45846C6.12589 6.97645 6.59786 6.54465 7.09995 6.1731C7.53175 5.8618 7.99368 5.58063 8.47568 5.35971C8.91753 5.14883 9.37945 4.97812 9.86146 4.84758C10.3033 4.72708 10.7652 4.64674 11.2372 4.60657C11.4882 4.58649 11.7493 4.56641 12.0104 4.56641C12.2213 4.56641 12.4221 4.57645 12.633 4.58649C13.105 4.61662 13.5669 4.69695 14.0087 4.80741C14.4907 4.92791 14.9527 5.08858 15.3945 5.27938C15.8765 5.5003 16.3384 5.76139 16.7702 6.06264C17.2824 6.41411 17.7443 6.82582 18.156 7.28775C19.4916 8.77394 20.315 10.7321 20.315 12.8911Z" fill="#012313"/>
<path id="Vector_4" opacity="0.5" d="M20.3148 12.8911C20.3148 17.4802 16.5893 21.2058 12.0002 21.2058C7.41107 21.2058 3.68555 17.4802 3.68555 12.8911H20.3148Z" fill="#126341"/>
<path id="Vector_5" d="M2.30935 9.57715L2.66082 10.3002L3.45412 10.4106L2.88174 10.973L3.01228 11.7562L2.30935 11.3847L1.59638 11.7562L1.73697 10.973L1.15454 10.4106L1.94785 10.3002L2.30935 9.57715Z" fill="#E0E2A3"/>
<path id="Vector_6" d="M21.5399 9.57715L21.8914 10.3002L22.6847 10.4106L22.1123 10.973L22.2529 11.7562L21.5399 11.3847L20.8269 11.7562L20.9675 10.973L20.3951 10.4106L21.1884 10.3002L21.5399 9.57715Z" fill="#E0E2A3"/>
<path id="Vector_7" d="M3.69571 6.39404L4.04717 7.11706L4.84047 7.22751L4.26809 7.78986L4.39863 8.58316L3.69571 8.21162L2.98273 8.58316L3.11328 7.78986L2.54089 7.22751L3.3342 7.11706L3.69571 6.39404Z" fill="#E0E2A3"/>
<path id="Vector_8" d="M20.1539 6.39404L20.5154 7.11706L21.3087 7.22751L20.7263 7.78986L20.8669 8.58316L20.1539 8.21162L19.451 8.58316L19.5815 7.78986L19.0092 7.22751L19.8025 7.11706L20.1539 6.39404Z" fill="#E0E2A3"/>
<g id="Group_2">
<g id="Group_3" opacity="0.4">
<path id="Vector_9" d="M12.6223 5.98227V19.7998C12.5922 19.7998 12.5521 19.8099 12.5219 19.8099C12.3512 19.8199 12.1805 19.83 12.0098 19.83C11.7889 19.83 11.578 19.8199 11.3671 19.7998C11.3269 19.7998 11.2868 19.7898 11.2366 19.7898V5.99232C11.2767 5.99232 11.3169 5.98227 11.3671 5.98227C11.578 5.96219 11.7889 5.95215 12.0098 5.95215C12.1805 5.95215 12.3512 5.96219 12.5219 5.97223C12.5521 5.97223 12.5822 5.98227 12.6223 5.98227Z" fill="#00BF7A"/>
<path id="Vector_10" d="M15.3837 6.83563V18.9461C15.2029 19.0465 15.0122 19.1469 14.8214 19.2273C14.5502 19.3478 14.2791 19.4482 13.9979 19.5386V6.24316C14.2791 6.3235 14.5603 6.43396 14.8214 6.55446C15.0122 6.63479 15.2029 6.73521 15.3837 6.83563Z" fill="#00BF7A"/>
<path id="Vector_11" d="M16.9506 6.21355C16.8903 6.16334 16.8301 6.12318 16.7598 6.08301C16.82 6.11313 16.8903 6.16334 16.9506 6.21355Z" fill="#00BF7A"/>
<path id="Vector_12" d="M18.1455 9.67771V16.0944C17.8644 16.6267 17.5229 17.1187 17.1313 17.5505C17.0108 17.6811 16.8903 17.8016 16.7598 17.9221V7.8501C16.8903 7.9706 17.0108 8.0911 17.1313 8.22165C17.533 8.66349 17.8744 9.14549 18.1455 9.67771Z" fill="#00BF7A"/>
<path id="Vector_13" d="M9.85086 6.29346V19.4884C9.56969 19.3981 9.3086 19.2876 9.04751 19.1671C8.84668 19.0767 8.64584 18.9663 8.46509 18.8558V6.91605C8.65588 6.80559 8.84668 6.70517 9.04751 6.60475C9.3086 6.49429 9.57973 6.38383 9.85086 6.29346Z" fill="#00BF7A"/>
<path id="Vector_14" d="M7.08951 7.99072V17.7815C6.96901 17.661 6.85855 17.5405 6.74809 17.41C6.32633 16.9179 5.97487 16.3757 5.70374 15.7832V9.97901C5.97487 9.38654 6.32633 8.84428 6.74809 8.35223C6.8485 8.24177 6.96901 8.11122 7.08951 7.99072Z" fill="#00BF7A"/>
</g>
<g id="Group_4">
<path id="Vector_15" d="M12.6121 5.982V12.8908H11.2263V6.00208C11.2665 6.00208 11.3067 5.99204 11.3569 5.99204C11.5677 5.97196 11.7786 5.96191 11.9995 5.96191C12.1703 5.96191 12.341 5.97196 12.5117 5.982C12.5518 5.97196 12.582 5.982 12.6121 5.982Z" fill="#00BF7A"/>
<path id="Vector_16" d="M15.3836 6.83563V12.8909H13.9978V6.24316C14.279 6.3235 14.5601 6.43396 14.8212 6.55446C15.012 6.63479 15.2028 6.73521 15.3836 6.83563Z" fill="#00BF7A"/>
<path id="Vector_17" d="M18.1449 9.67799V12.8914H16.7592V7.84033C16.8897 7.96083 17.0102 8.08134 17.1307 8.21188C17.5324 8.66376 17.8738 9.14577 18.1449 9.67799Z" fill="#00BF7A"/>
<path id="Vector_18" d="M9.85074 6.29346V12.8909H8.46497V6.92609C8.65576 6.81563 8.84656 6.71521 9.04739 6.6148C9.30848 6.49429 9.57961 6.38383 9.85074 6.29346Z" fill="#00BF7A"/>
<path id="Vector_19" d="M6.73747 8.36276C6.84793 8.23221 6.95839 8.11171 7.07889 7.99121V12.8816H5.69312V9.9795C5.96424 9.39707 6.32575 8.85481 6.73747 8.36276Z" fill="#00BF7A"/>
<path id="Vector_20" d="M7.07898 6.18311C7.01873 6.23331 6.94843 6.27348 6.88818 6.32369C6.95848 6.27348 7.01873 6.23331 7.07898 6.18311Z" fill="#00BF7A"/>
</g>
</g>
<g id="Group_5">
<path id="Vector_21" d="M8.91686 15.9735C8.58548 15.6421 8.32439 15.2806 8.12356 14.889C8.05326 14.7484 7.99301 14.6078 7.93276 14.4672C7.54113 13.4631 7.54113 12.3384 7.93276 11.3241C7.99301 11.1836 8.05326 11.043 8.12356 10.9024C8.32439 10.5108 8.58548 10.1392 8.91686 9.81786C9.24824 9.48648 9.60975 9.2254 10.0014 9.02456C10.142 8.95427 10.2826 8.89401 10.4231 8.83376C11.4374 8.44213 12.5621 8.44213 13.5662 8.83376C13.7068 8.89401 13.8474 8.95427 13.988 9.02456C14.3796 9.2254 14.7512 9.48648 15.0725 9.81786C15.4039 10.1492 15.665 10.5108 15.8658 10.9024C15.9361 11.043 15.9964 11.1836 16.0566 11.3241C16.4482 12.3384 16.4482 13.453 16.0566 14.4672C15.9964 14.6078 15.9361 14.7484 15.8658 14.889C15.665 15.2806 15.4039 15.6522 15.0725 15.9735C14.7411 16.3049 14.3796 16.566 13.988 16.7668C13.8474 16.8371 13.7068 16.8974 13.5662 16.9576C12.552 17.3492 11.4374 17.3492 10.4231 16.9576C10.2826 16.9074 10.142 16.8371 10.0014 16.7668C9.60975 16.566 9.24824 16.2949 8.91686 15.9735Z" fill="white"/>
<path id="Vector_22" d="M15.8761 14.8792L10.0016 9.00476C10.1422 8.93447 10.2828 8.87422 10.4233 8.81396L16.0669 14.4575C16.0166 14.6081 15.9464 14.7487 15.8761 14.8792Z" fill="#E0E2A3"/>
<path id="Vector_23" d="M13.566 16.9578L7.92249 11.3143C7.98274 11.1738 8.04299 11.0332 8.11328 10.8926L13.9878 16.7671C13.8572 16.8373 13.7166 16.8976 13.566 16.9578Z" fill="#E0E2A3"/>
<path id="Vector_24" d="M10.0016 16.7673L11.8392 14.9297L12.1505 15.241L10.4334 16.9581C10.2828 16.8979 10.1422 16.8376 10.0016 16.7673Z" fill="#E0E2A3"/>
<path id="Vector_25" d="M8.12366 14.8791C8.05336 14.7386 7.99311 14.598 7.93286 14.4574L9.65002 12.7402L9.96131 13.0515L8.12366 14.8791Z" fill="#E0E2A3"/>
<path id="Vector_26" d="M14.4197 12.9612L14.1084 12.6599L15.8758 10.8926C15.9461 11.0332 16.0063 11.1738 16.0666 11.3143L14.4197 12.9612Z" fill="#E0E2A3"/>
<path id="Vector_27" d="M12.2307 10.7721L11.9194 10.4608L13.5663 8.81396C13.7069 8.87422 13.8475 8.93447 13.9881 9.00476L12.2307 10.7721Z" fill="#E0E2A3"/>
</g>
</g>
</g>
</svg>
