<svg width="25" height="23" viewBox="0 0 25 23" fill="none" xmlns="http://www.w3.org/2000/svg">
<g id="OBJECTS">
<g id="Group">
<path id="Vector" fill-rule="evenodd" clip-rule="evenodd" d="M17.3815 20.6035H6.89829L3.78346 21.4408L1.17102 19.0461L3.03825 15.9731H21.2416L23.1088 19.0461L20.4964 21.4408L17.3815 20.6035Z" fill="white"/>
<path id="Vector_2" fill-rule="evenodd" clip-rule="evenodd" d="M9.81209 1.40374L9.46879 1.24465L10.1554 1.07718C10.4652 0.985077 10.7666 0.901345 11.0764 0.80924C12.5501 0.373833 14.208 0.583163 15.5059 1.40374C15.7989 1.48747 16.092 1.59632 16.3767 1.73029C17.2056 2.11546 17.8922 2.70996 18.3611 3.48867C18.6375 3.94082 18.8468 4.46833 18.9473 5.00422C19.1566 5.02096 19.3743 5.05446 19.5753 5.10469C19.6925 5.12981 19.8181 5.17168 19.9269 5.21355C20.0693 5.26378 20.2116 5.33077 20.3456 5.40613C20.7559 5.63221 21.141 6.00063 21.3169 6.43603C21.342 6.50302 21.3587 6.57 21.3671 6.63699C21.3671 6.70398 21.3755 6.78771 21.3587 6.85469C21.4592 7.24824 21.543 7.6334 21.6099 8.03532L21.6183 8.08556L21.6267 8.12742V8.15254C21.6518 8.30326 21.6183 8.43723 21.5764 8.57958C21.4508 9.06522 21.0154 9.45039 20.5884 9.70158C20.4209 9.90254 20.2284 10.0868 20.0358 10.2542C19.8264 10.4384 19.6004 10.6143 19.3827 10.7901C19.3157 10.8487 19.1733 10.9492 19.0896 11.0329C19.1147 11.125 19.1817 11.2757 19.2068 11.326C19.3324 11.619 19.4413 11.9037 19.525 12.2052C19.6087 12.5066 19.659 12.8248 19.6087 13.1346C19.6004 13.21 19.5836 13.2769 19.5585 13.3439C19.7343 13.5616 19.8097 13.8547 19.6925 14.1059C19.726 14.3236 19.8013 15.6466 19.5836 16.1322C19.5669 16.1741 19.525 15.8559 19.4999 15.8308C19.4078 16.5592 19.1398 17.2626 18.7714 17.9073C18.5453 18.3009 18.2439 18.7446 17.9174 19.1131H14.0824C13.7642 18.6358 13.3875 18.1753 12.9604 17.7901C12.9604 17.832 12.9604 17.8738 12.952 17.9241C12.9269 18.3176 12.8013 18.7279 12.7427 19.1131H12.4497C12.0896 18.7363 11.4867 18.0329 11.336 17.8822C10.9174 17.4803 10.4568 17.1202 9.96281 16.8104C9.97956 17.137 9.89582 17.5557 9.86233 17.8906C9.56927 17.4803 9.36831 17.4217 8.87429 16.9612C8.56448 16.6765 8.13745 16.4336 7.76903 16.2411C6.70563 15.6884 5.8097 15.0353 5.28219 14.064C5.26544 14.1896 5.25707 14.3236 5.25707 14.4408L5.18171 15.5712L4.42812 14.5999C3.67453 12.8583 3.39822 10.8738 4.07645 9.09871C3.55731 9.15733 2.91257 8.948 2.39343 8.83914C3.1219 8.42886 3.75827 8.16092 4.26066 7.44919L4.70444 6.20996C4.98913 5.4145 5.49989 4.61905 6.153 4.02455C4.61233 3.51379 4.75468 2.51737 4.76305 2.51737C5.34917 2.93603 5.99391 2.81881 6.31209 2.77694C6.80611 2.70158 7.30013 2.48388 7.75228 2.27455C8.34678 1.98986 8.92453 1.70517 9.55252 1.48747C9.63626 1.46235 9.71999 1.42886 9.81209 1.40374Z" fill="white"/>
<path id="Vector_3" fill-rule="evenodd" clip-rule="evenodd" d="M24.3397 3.2127C23.5024 11.9962 19.5502 18.5022 11.5706 22.3204L11.378 22.4125L11.1854 22.312C8.05382 20.6792 5.5586 18.0416 3.84209 14.9854C1.53109 10.8742 0.626781 6.12657 0.618408 1.44595V0.977051L24.3816 2.76892L24.3397 3.2127Z" fill="white"/>
<g id="Group_2">
<path id="Vector_4" fill-rule="evenodd" clip-rule="evenodd" d="M23.9126 3.17068L1.05371 1.4458C1.07883 12.4649 6.02739 19.1468 11.3862 21.935C18.3695 18.5858 22.9999 12.7999 23.9126 3.17068Z" fill="url(#paint0_linear_203_71142)"/>
<path id="Vector_5" fill-rule="evenodd" clip-rule="evenodd" d="M21.7356 4.94576L3.05493 3.53906C3.28938 7.12279 4.13508 10.6898 5.90182 13.8297C7.24153 16.2077 9.10876 18.3094 11.4365 19.7412C17.482 16.5427 20.6722 11.5773 21.7356 4.94576Z" fill="#1C1C30"/>
</g>
<g id="Group_3">
<path id="Vector_6" fill-rule="evenodd" clip-rule="evenodd" d="M18.5705 5.90847C18.671 5.12138 18.2439 3.06158 16.1925 2.12378C15.8994 1.98981 15.6064 1.88095 15.3217 1.80559C13.781 0.80081 12.098 0.959901 11.1853 1.22784C10.2643 1.49579 10.2643 1.49579 10.2643 1.49579C10.2643 1.49579 11.4616 1.27808 12.3157 1.66325C11.403 1.57114 10.4401 1.62976 9.67813 1.8977C8.15421 2.43359 7.09918 3.28765 5.8432 3.24579C5.52502 3.23741 5.31569 3.01134 5.35756 3.11182C5.43292 3.28765 6.0944 3.67282 7.1243 3.84866C6.42933 4.2422 5.54177 5.12138 5.09799 6.36899C5.44129 6.09268 5.86832 5.90847 5.86832 5.90847C5.4078 6.38574 5.04775 6.95512 4.74631 7.491C4.31091 8.26971 4.0011 8.65488 4.0011 8.65488C4.0011 8.65488 4.11832 8.78885 4.86354 8.45392C3.49033 10.7314 4.30253 13.2769 4.8133 14.4408C4.8133 14.4408 4.84679 13.4778 5.1566 12.4312C5.18172 12.5233 5.21521 12.6154 5.24871 12.7159C5.53339 14.3403 6.67215 15.2027 7.96163 15.881C9.51067 16.6848 9.51067 17.1788 9.51067 17.1788C9.51067 17.1788 9.60277 16.7434 9.36832 16.0317C11.3109 16.9192 12.4329 18.5018 12.4413 18.4766C12.458 18.2506 12.6841 17.7566 12.3576 16.8271C13.3456 17.4133 14.0824 18.3092 14.5932 19.1298H16.8289C16.9879 18.7111 17.1052 18.2171 17.2056 17.5723L17.3647 19.0879C17.3647 19.0879 19.9521 16.5843 18.83 13.8463C18.0597 12.1381 17.3982 8.24459 17.2475 7.65847C17.1052 7.0556 18.47 6.69555 18.5705 5.90847Z" fill="#1C1C30"/>
<path id="Vector_7" fill-rule="evenodd" clip-rule="evenodd" d="M18.537 5.48158C17.8086 4.72799 15.9916 3.93254 14.9868 4.0079C13.982 4.07488 13.7978 4.21723 13.7978 4.21723L14.7775 4.57728L13.3959 4.61077L14.0574 4.85359L13.1279 4.96244L13.6889 5.23876C13.6889 5.23876 13.1363 5.33924 13.4294 6.05096C13.7224 6.76268 14.1495 6.7878 13.9485 7.01388C13.6052 7.30694 13.2452 7.4744 13.1614 8.12751C13.0777 8.78062 13.4545 9.1323 13.4545 9.1323C13.2786 8.789 13.287 8.30335 13.4461 7.90981C13.4712 8.82249 14.3672 9.29976 14.9617 9.35C14.4593 9.45885 14.0992 9.40024 13.7057 8.98995C13.6806 8.96483 13.7057 9.40024 14.2667 9.73517C14.5346 9.90263 15.1877 9.90263 15.171 9.91101C14.4425 10.3045 13.6471 9.86914 13.6638 9.88589C14.0071 10.4301 15.0956 10.74 15.6148 10.6981C15.6148 10.6981 15.7822 12.0294 15.8995 12.8333C16.0083 13.6455 15.1124 14.0976 15.1124 14.0976L16.2176 13.7376L15.2547 14.801C15.2547 14.801 16.3935 14.5665 16.8373 14.2986C17.281 14.0306 16.0586 15.3871 16.0586 15.3871C16.8038 15.4624 17.415 14.96 17.8169 14.3739L17.5239 15.7639C18.177 15.2447 18.2607 14.3907 18.2607 14.399C18.3779 14.533 18.4784 15.6132 18.4784 15.6132C18.7715 15.3368 18.8719 14.4577 18.7715 14.106L19.3074 14.8261C19.3074 14.8261 19.433 14.0976 19.0059 13.3943C18.5705 12.6909 17.1219 10.7232 19.098 9.66818C21.0741 8.60479 20.2284 9.43373 20.2284 9.43373C20.2284 9.43373 21.3086 8.9146 21.2081 8.21125C21.1076 7.49952 20.9066 6.82129 20.9066 6.82129C20.9066 6.82129 20.8731 6.29378 20.2703 5.88349C19.8684 5.60718 19.4999 5.5067 19.1231 5.48995C18.9138 5.46483 18.7798 5.74115 18.537 5.48158Z" fill="url(#paint1_linear_203_71142)"/>
<path id="Vector_8" fill-rule="evenodd" clip-rule="evenodd" d="M18.537 5.48158C17.8086 4.72799 15.9916 3.93254 14.9868 4.0079C14.3337 4.04976 14.0239 4.12512 13.8899 4.17536C14.8277 4.14187 15.5143 4.16699 16.159 4.52704C16.8624 4.92058 16.9377 5.19689 16.9377 5.19689L16.8373 4.82847C16.8373 4.82847 17.1638 4.96244 17.4318 5.35598C17.6997 5.74952 17.6746 5.77464 17.6746 5.77464L17.4904 5.85838C17.4904 5.85838 18.403 5.62393 19.0729 5.90861C19.7344 6.1933 20.4964 7.05574 20.4042 7.02225C20.3708 7.01388 20.622 7.01388 20.9318 6.96364C20.9066 6.86316 20.8899 6.81292 20.8899 6.81292C20.8899 6.81292 20.8564 6.28541 20.2535 5.87512C19.8516 5.59881 19.4832 5.49833 19.1064 5.48158C18.9138 5.46484 18.7798 5.74115 18.537 5.48158Z" fill="#E3C68C"/>
<path id="Vector_9" fill-rule="evenodd" clip-rule="evenodd" d="M19.0311 13.4778C18.9976 13.4694 18.9976 13.4191 18.9808 13.394C18.5454 12.6907 17.0969 10.723 19.0729 9.66795C21.049 8.60455 20.2033 9.4335 20.2033 9.4335C20.2033 9.4335 21.2835 8.91436 21.183 8.21101C21.0825 7.49929 20.8815 6.82106 20.8815 6.82106C20.8815 6.82106 20.8815 6.77082 20.8564 6.69546C20.7476 6.68709 20.689 6.68709 20.689 6.68709L18.7129 6.22656C18.5622 6.6201 18.939 6.92991 18.939 6.92991C18.939 6.92991 17.2392 7.089 16.988 7.4658C16.8373 7.69187 16.854 7.99331 16.988 8.22776C15.665 10.9239 16.1507 10.7146 16.6698 13.7457C16.6698 13.7457 17.189 14.2146 17.8588 13.9048C18.5287 13.595 18.4617 13.9048 19.0729 14.0136C19.4665 14.0806 19.3576 13.5699 19.0311 13.4778Z" fill="white"/>
<path id="Vector_10" fill-rule="evenodd" clip-rule="evenodd" d="M19.031 6.1346C19.2738 6.31881 19.1147 6.28532 19.8013 6.44441C20.4879 6.6035 20.9317 6.43604 20.94 6.66212C20.9484 6.88819 20.2451 8.00183 20.2451 8.00183C20.2451 8.00183 20.4042 7.45757 19.7259 7.16451C19.0477 6.87145 18.6877 6.44441 18.7128 6.28532C18.7379 6.11786 18.7881 5.95039 19.031 6.1346Z" fill="#1C1C30"/>
<path id="Vector_11" fill-rule="evenodd" clip-rule="evenodd" d="M20.0107 7.08076C20.2033 7.692 20.0861 8.07717 19.8014 8.1944C19.5251 8.31999 17.6327 8.6298 17.4737 8.68841C17.3481 8.73865 16.6949 9.81042 16.4186 10.2626C16.2763 10.4887 16.7536 12.8583 16.854 13.0425C17.1471 13.5449 17.3648 13.5616 17.9426 13.4444C18.3193 13.369 18.5371 13.4193 18.7129 13.4863C18.8301 13.5281 18.9557 13.6537 19.0394 13.4695C19.1483 13.2434 19.299 12.9922 19.1064 12.3224C18.8887 11.5353 18.5873 11.1753 18.6543 10.8906C18.7213 10.6059 20.4545 9.62621 20.555 8.84751C20.6555 8.0688 20.4043 7.29846 20.4043 7.29846C20.4043 7.29846 19.8182 6.46952 20.0107 7.08076Z" fill="#1C1C30"/>
<path id="Vector_12" fill-rule="evenodd" clip-rule="evenodd" d="M17.0382 10.7311C17.1722 10.5636 17.4233 10.6306 17.5573 10.6976C17.7415 10.7981 17.8588 10.9572 17.9927 11.0995C17.9927 11.0995 17.9006 10.8818 17.7499 10.7395C18.1434 10.5636 18.5286 11.2753 18.6626 11.761C18.9138 12.6569 17.8336 12.0792 17.7918 12.0122C17.775 11.694 17.5489 11.4009 17.3899 11.2251C17.2308 11.0576 16.8623 10.9404 17.0382 10.7311Z" fill="url(#paint2_linear_203_71142)"/>
<path id="Vector_13" fill-rule="evenodd" clip-rule="evenodd" d="M18.6375 8.69699C18.6626 9.15752 18.6961 9.48407 18.6961 9.48407C18.8468 9.31661 19.5167 8.46254 18.9891 8.5379C18.8217 8.56302 18.6291 8.59651 18.6375 8.69699Z" fill="white"/>
<path id="Vector_14" fill-rule="evenodd" clip-rule="evenodd" d="M17.7332 12.5145C17.7667 12.121 17.7583 11.7944 17.7583 11.7944C18.0848 11.9033 18.2021 12.5229 18.1351 12.6485C18.1351 12.6485 17.6997 12.9164 17.7332 12.5145Z" fill="white"/>
<path id="Vector_15" fill-rule="evenodd" clip-rule="evenodd" d="M19.9855 8.99836C20.0107 9.45889 19.9353 9.6431 19.9353 9.6431C20.0944 9.53424 20.2786 9.25793 20.3623 9.05697C20.4293 8.88951 20.3791 8.80577 20.2702 8.77228C20.153 8.73042 19.9772 8.78066 19.9855 8.99836Z" fill="white"/>
<path id="Vector_16" fill-rule="evenodd" clip-rule="evenodd" d="M18.7631 12.6072C18.9054 12.3226 18.8887 12.063 18.8887 12.063C19.0645 12.2472 19.1985 12.691 19.0059 12.8501C19.0059 12.8501 18.5873 12.9003 18.7631 12.6072Z" fill="white"/>
<path id="Vector_17" fill-rule="evenodd" clip-rule="evenodd" d="M17.8085 12.6236C17.7666 12.7492 17.8755 12.8246 18.202 12.7743C18.5286 12.7241 18.9305 12.8999 18.9975 12.8413C19.0561 12.7827 18.8551 12.5231 18.47 12.498C18.0848 12.4729 17.8503 12.498 17.8085 12.6236Z" fill="white"/>
<path id="Vector_18" fill-rule="evenodd" clip-rule="evenodd" d="M20.0944 5.99214C20.2535 6.0675 20.5968 6.36894 20.6554 6.62851C20.7308 6.93832 20.9653 6.69549 20.9401 6.62851C20.8229 6.30195 20.5047 5.9754 20.1531 5.79119C19.4664 5.41439 18.5203 5.32229 17.9174 5.57348C17.5992 5.70745 17.4318 5.88329 17.4736 5.86654C17.9258 5.7242 18.7882 5.35578 20.0944 5.99214Z" fill="#1C1C30"/>
<path id="Vector_19" fill-rule="evenodd" clip-rule="evenodd" d="M12.6171 5.22996C11.8384 5.03737 11.7045 4.63546 11.0765 4.86153C10.147 5.19646 9.94609 6.12589 10.3982 6.56967C10.8504 7.01345 11.5119 6.73713 11.5119 6.73713C11.5119 6.73713 10.8336 6.78737 10.6578 6.31847C10.5741 5.93331 11.3695 5.88306 11.3695 5.88306C11.3109 5.78259 11.1769 5.73235 10.9425 5.74909C10.9425 5.74909 11.0095 5.63187 11.2691 5.60675C11.537 5.58163 11.7463 5.74072 11.7463 5.74072L11.4951 5.36393C11.4951 5.36393 11.8636 5.65699 12.1734 5.68211C12.299 5.69048 12.4162 5.73235 12.4999 5.72397C12.9604 5.65699 12.8432 5.25508 12.6171 5.22996Z" fill="#B26629"/>
<path id="Vector_20" fill-rule="evenodd" clip-rule="evenodd" d="M18.6124 7.47451C17.2057 7.23169 16.6866 7.19819 15.171 7.01398C16.3516 6.88001 17.5323 6.88839 18.6124 7.47451Z" fill="white"/>
<path id="Vector_21" fill-rule="evenodd" clip-rule="evenodd" d="M18.018 7.72556C16.4354 7.79254 15.8912 7.78417 14.4175 7.73393C15.5981 7.44087 16.8876 7.46599 18.018 7.72556Z" fill="white"/>
<path id="Vector_22" fill-rule="evenodd" clip-rule="evenodd" d="M16.5274 5.39791C16.0334 5.35604 15.8157 5.78307 15.8241 5.79145C15.9329 5.89193 16.3097 6.05939 16.5274 6.07614C16.8624 6.10126 17.1303 5.97566 17.1303 5.79145C17.1387 5.59886 16.8624 5.42303 16.5274 5.39791Z" fill="white"/>
<path id="Vector_23" fill-rule="evenodd" clip-rule="evenodd" d="M15.2882 5.49821C16.0083 5.47309 16.5107 4.99582 17.0884 5.64055C17.3564 5.94199 17.3982 6.36065 17.3982 6.36065L16.3683 6.05084C16.3683 6.05084 16.8456 6.09271 16.8205 5.98386C16.6447 5.38099 15.9329 5.62381 15.9078 5.83314C15.9078 5.83314 15.6315 5.74941 15.4557 5.66567C15.3552 5.61544 15.1459 5.49821 15.2882 5.49821Z" fill="#1C1C30"/>
<path id="Vector_24" fill-rule="evenodd" clip-rule="evenodd" d="M16.7368 5.40576C16.921 5.40576 17.0717 5.55648 17.0717 5.74069C17.0717 5.9249 16.921 6.07562 16.7368 6.07562C16.5526 6.07562 16.4019 5.9249 16.4019 5.74069C16.4019 5.55648 16.5526 5.40576 16.7368 5.40576Z" fill="#1C1C30"/>
<path id="Vector_25" fill-rule="evenodd" clip-rule="evenodd" d="M15.5227 5.10511C16.1591 4.86229 16.628 5.03812 16.9043 5.30607C17.0969 5.49028 17.1639 5.69961 17.1136 5.42329L17.0717 5.1386C17.0717 5.1386 17.189 5.25583 17.2643 5.42329C17.3648 5.64099 17.4234 5.94243 17.3564 6.23549C17.3313 6.35272 17.1973 5.79171 16.7201 5.4819C16.2344 5.15535 15.6483 5.18047 15.5227 5.10511Z" fill="#1C1C30"/>
<path id="Vector_26" fill-rule="evenodd" clip-rule="evenodd" d="M16.3767 5.59912C16.5107 5.59912 16.6279 5.62424 16.6279 5.64936C16.6279 5.68285 16.519 5.6996 16.3767 5.6996C16.2427 5.6996 16.1255 5.67448 16.1255 5.64936C16.1255 5.62424 16.2427 5.59912 16.3767 5.59912Z" fill="white"/>
<path id="Vector_27" fill-rule="evenodd" clip-rule="evenodd" d="M18.6291 7.48281C17.1805 7.06415 16.7032 7.05577 15.1793 7.01391C16.3767 6.7962 17.5824 6.75434 18.6291 7.48281Z" fill="#1C1C30"/>
<path id="Vector_28" fill-rule="evenodd" clip-rule="evenodd" d="M17.8923 8.09394C17.6662 8.2614 15.3133 8.58796 15.2045 8.42887C15.2212 8.41212 15.2128 8.4205 15.238 8.41212C16.0669 8.07719 16.9963 7.93485 17.8923 8.09394Z" fill="white"/>
<path id="Vector_29" fill-rule="evenodd" clip-rule="evenodd" d="M18.0598 7.71701C16.8791 7.68351 16.0837 7.58304 14.8696 7.69189L14.3672 7.73375C15.7571 7.2816 16.6614 7.35696 18.0598 7.71701Z" fill="#1C1C30"/>
<path id="Vector_30" fill-rule="evenodd" clip-rule="evenodd" d="M17.9174 8.08555C17.6494 8.13579 15.2715 8.45397 15.2045 8.41211C15.2212 8.39536 15.2128 8.40373 15.238 8.39536C16.0669 8.06043 17.0215 7.93483 17.9174 8.08555Z" fill="#1C1C30"/>
<path id="Vector_31" fill-rule="evenodd" clip-rule="evenodd" d="M7.19958 3.22095C7.8527 3.17071 8.39695 2.72693 9.50222 2.41712C12.4747 1.58818 13.8228 2.0822 16.3013 3.42191C16.3013 3.42191 15.3718 2.65995 14.3168 2.09894C13.2618 1.53794 12.3324 1.39559 12.3324 1.39559C12.3324 1.39559 13.4544 1.32023 14.8443 1.9231C16.2343 2.53435 17.5572 4.27597 17.5572 4.27597C15.2295 3.17908 11.5788 2.32502 9.92925 2.81066C9.81203 2.84416 9.96274 2.90277 10.3479 2.99487L12.0979 3.40516L7.19958 3.22095Z" fill="url(#paint3_linear_203_71142)"/>
<path id="Vector_32" fill-rule="evenodd" clip-rule="evenodd" d="M11.8049 3.3878C11.6961 3.3878 11.3612 3.4213 11.2523 3.42967C8.81571 3.68087 6.17815 6.83756 5.49155 7.55766C5.07289 7.99307 4.93054 8.0768 4.93054 8.0768C4.93054 8.0768 5.56691 7.25622 6.01069 6.51101C6.44609 5.75742 7.26667 5.02058 7.26667 5.02058L5.67576 5.68206C8.26308 2.8268 10.5071 3.06962 11.2942 3.30407C11.5035 3.35431 11.8217 3.3878 11.8049 3.3878Z" fill="url(#paint4_linear_203_71142)"/>
<path id="Vector_33" fill-rule="evenodd" clip-rule="evenodd" d="M13.513 4.25075C12.9772 3.94094 11.6374 3.45529 10.3647 4.25075C9.08362 5.0462 9.63625 4.88711 9.63625 4.88711C9.63625 4.88711 10.9006 4.11678 13.513 4.25075Z" fill="url(#paint5_linear_203_71142)"/>
<path id="Vector_34" fill-rule="evenodd" clip-rule="evenodd" d="M12.7929 6.36084C11.8049 6.7795 10.9508 7.65031 10.6494 8.61323C10.348 9.57615 9.71997 10.8656 9.71997 10.8656C9.71997 10.8656 11.1099 9.94457 11.7379 8.95653C12.3659 7.97687 12.9185 7.48285 12.9185 7.48285C12.9185 7.48285 11.4951 8.07735 11.202 8.47926C10.909 8.88117 11.5704 7.23165 12.7929 6.36084Z" fill="url(#paint6_linear_203_71142)"/>
<path id="Vector_35" fill-rule="evenodd" clip-rule="evenodd" d="M12.5 12.4227C13.5215 14.5914 14.8194 15.1105 14.9366 15.2278C15.0538 15.345 14.9366 15.2278 14.3756 14.4909C13.8146 13.7541 13.0526 12.0208 13.3875 10.1871C13.3875 10.1871 12.5837 10.6225 12.8265 12.1464C12.3828 11.351 11.9222 10.2792 12.7344 8.20264C10.7416 10.4801 11.6543 13.8462 13.3875 15.9981C14.3002 17.1368 14.945 18.3426 15.3134 19.1213H15.7237C15.732 16.4251 14.0072 14.9514 14.0407 15.0519L14.4258 16.3163C14.4761 16.467 13.5383 15.3199 13.2033 14.7002C12.6172 13.6034 12.4581 12.6237 12.5 12.4227Z" fill="url(#paint7_linear_203_71142)"/>
<path id="Vector_36" fill-rule="evenodd" clip-rule="evenodd" d="M13.7057 9.97791C14.2918 10.5389 15.3217 10.4719 15.6818 10.1203C16.0418 9.76858 16.2009 9.48389 16.2009 9.48389C16.2009 9.48389 15.9748 10.7399 15.2631 11.0078C14.5346 11.2841 13.7057 9.97791 13.7057 9.97791Z" fill="#1C1C30"/>
<path id="Vector_37" fill-rule="evenodd" clip-rule="evenodd" d="M7.09913 6.44434C5.62545 7.82592 5.20679 10.723 5.20679 11.4096C5.20679 12.0962 5.20679 12.0963 5.20679 12.0963C5.20679 12.0963 5.82641 10.2123 5.86827 10.1285C5.91014 10.0364 5.65057 11.6441 6.49626 13.1848C7.35033 14.7254 8.32999 15.2278 8.32999 15.2278L7.62664 13.5364C8.58956 14.4575 9.80368 15.4204 10.7582 15.8307C10.8085 15.8474 8.05368 13.997 7.27497 9.79362C7.15775 9.15725 6.97353 10.1453 7.2331 11.3594C7.41731 12.2135 7.96157 13.5197 7.66851 13.1596C6.10272 11.2254 6.52975 8.51252 7.09913 6.44434Z" fill="#B26629"/>
<path id="Vector_38" fill-rule="evenodd" clip-rule="evenodd" d="M10.616 7.27295C10.5239 7.37343 10.4402 7.48228 10.3564 7.59113L10.3648 7.55764C9.40189 8.92247 8.87438 10.5804 9.00835 11.7107C8.80739 11.334 8.56457 9.74305 9.30978 8.5373C9.43538 8.33635 8.61481 9.37462 8.22127 10.1617C8.16266 10.2789 8.38036 8.21075 10.616 7.27295Z" fill="#B26629"/>
<path id="Vector_39" fill-rule="evenodd" clip-rule="evenodd" d="M18.244 15.3784C18.1937 16.6763 17.5741 18.1834 17.5741 18.1834C17.5741 18.1834 18.7798 17.12 18.244 15.3784Z" fill="#B26629"/>
<path id="Vector_40" fill-rule="evenodd" clip-rule="evenodd" d="M9.50231 11.4429C9.25111 12.6737 10.1722 14.7252 11.1518 15.462C12.1231 16.1989 13.6387 17.1115 13.6387 17.1115C9.70326 13.8544 10.4736 11.6271 10.4569 11.6689C10.3145 12.2048 10.2475 12.8831 10.4736 13.5111C10.9676 14.8508 9.72001 12.8328 9.50231 11.4429Z" fill="url(#paint8_linear_203_71142)"/>
<path id="Vector_41" fill-rule="evenodd" clip-rule="evenodd" d="M9.7284 5.84131C9.53581 6.9382 8.73199 8.10207 8.12912 8.50399C7.52624 8.9059 7.52625 8.9059 7.52625 8.9059L9.7284 5.84131Z" fill="#B26629"/>
<path id="Vector_42" fill-rule="evenodd" clip-rule="evenodd" d="M15.0957 3.99909C15.933 4.09957 17.1723 4.51823 18.177 5.48115C18.2775 5.45603 18.378 5.43929 18.4869 5.43091C17.75 4.71919 16.0921 3.99072 15.0957 3.99909Z" fill="white"/>
<path id="Vector_43" fill-rule="evenodd" clip-rule="evenodd" d="M18.5873 5.69057C19.3576 5.78268 20.0275 6.15947 20.354 6.51952C20.4545 6.52789 20.5382 6.52789 20.6136 6.52789C20.5047 6.30182 20.2284 6.05899 20.0861 5.99201C19.4916 5.69895 18.9892 5.62359 18.5789 5.63196C18.4365 5.63196 18.311 5.64871 18.1937 5.66545C18.3277 5.66545 18.4533 5.67383 18.5873 5.69057Z" fill="white"/>
<path id="Vector_44" fill-rule="evenodd" clip-rule="evenodd" d="M18.7212 6.21826C18.6375 6.45271 18.7045 6.6453 18.7714 6.77089C18.897 6.99697 18.9808 7.03884 19.2152 7.18118C19.7009 7.46587 19.6088 7.82592 19.3911 7.97663C19.1734 8.12735 17.6746 8.38692 17.5573 8.47065C17.5406 8.4874 17.4987 8.52927 17.4401 8.58788C17.1387 8.92281 16.4102 9.86061 16.3767 10.2625C16.3767 10.296 16.3767 10.3295 16.3851 10.363C16.3851 10.3128 16.3935 10.2709 16.4102 10.2541C16.6865 9.81037 17.4736 8.82233 17.6243 8.72185L17.6327 8.71348C17.7918 8.65486 19.5083 8.30319 19.793 8.18596C20.0191 8.08549 20.1447 7.81754 20.0777 7.39888C19.9939 7.30678 19.8851 7.22305 19.7176 7.14769C19.0394 6.85463 18.6793 6.42759 18.7045 6.2685C18.7128 6.26013 18.7212 6.24338 18.7212 6.21826Z" fill="#C4C4C4"/>
<path id="Vector_45" fill-rule="evenodd" clip-rule="evenodd" d="M20.4964 7.59944C20.5634 7.8925 20.6304 8.36977 20.5718 8.84704C20.555 9.01451 20.4545 9.19035 20.3206 9.36618C20.5885 9.21547 21.2165 8.62097 20.7895 7.5157C20.7643 7.31475 20.9485 6.93795 20.8983 6.8291C20.8816 6.87097 20.8648 6.89609 20.8481 6.94633C20.7476 7.14728 20.6136 7.39848 20.4964 7.59944Z" fill="#C4C4C4"/>
<path id="Vector_46" fill-rule="evenodd" clip-rule="evenodd" d="M17.5154 12.5735C17.4651 12.3726 17.3395 11.9372 17.3312 11.6943C17.5321 11.9288 17.6242 12.247 17.7331 12.5317C17.7498 12.5903 17.708 12.6489 17.6494 12.6656C17.5907 12.674 17.5321 12.6321 17.5154 12.5735Z" fill="white"/>
<path id="Vector_47" fill-rule="evenodd" clip-rule="evenodd" d="M16.2678 13.2437C16.3767 13.6539 16.8456 13.8968 17.1638 13.9721C17.4819 14.0475 16.9209 13.587 16.9209 13.587C16.9209 13.587 16.4353 13.453 16.2678 13.2437Z" fill="white"/>
<path id="Vector_48" fill-rule="evenodd" clip-rule="evenodd" d="M16.5024 11.3846C16.427 11.0329 16.3181 10.3631 16.3684 10.1286C16.4186 9.89417 16.628 9.70996 16.628 9.70996C16.628 9.70996 16.4354 10.0616 16.5275 10.2207C16.6196 10.3798 16.7201 10.5138 16.7201 10.5138L16.5024 11.3846Z" fill="#1C1C30"/>
<path id="Vector_49" fill-rule="evenodd" clip-rule="evenodd" d="M10.7667 15.839C10.8169 15.8558 8.06215 14.0053 7.28344 9.80196C7.25832 9.68473 7.24157 9.62612 7.21645 9.60938C7.18296 10.2541 7.24995 12.4395 9.24277 14.918C9.77028 15.3032 10.2978 15.6381 10.7667 15.839Z" fill="#CB974E"/>
<path id="Vector_50" fill-rule="evenodd" clip-rule="evenodd" d="M7.67697 13.1599C6.1363 11.2675 6.5131 8.63835 7.06573 6.58691C6.44611 7.73404 6.16142 9.50916 6.41262 11.0498C6.68056 12.7161 8.04539 13.6539 8.04539 13.6539C8.04539 13.6539 7.90305 13.4697 7.7607 13.2101C7.74396 13.2352 7.72721 13.2185 7.67697 13.1599Z" fill="#CB974E"/>
<path id="Vector_51" fill-rule="evenodd" clip-rule="evenodd" d="M12.366 1.41256C13.3205 1.4628 15.0873 1.98194 16.4772 3.38027C16.8038 3.70682 17.1387 3.97476 17.482 4.20921C17.1973 3.85754 16.0418 2.46759 14.8361 1.94008C13.4461 1.32883 12.3241 1.41256 12.3241 1.41256C12.3241 1.41256 12.3492 1.40419 12.366 1.41256Z" fill="white"/>
<path id="Vector_52" fill-rule="evenodd" clip-rule="evenodd" d="M9.96281 2.55079C11.2941 2.24936 12.1147 2.19912 13.5465 2.56754C14.9784 2.93596 16.2511 3.43835 16.2511 3.43835C16.2511 3.43835 16.1422 3.36299 15.9748 3.24577C13.6973 2.04003 12.3408 1.62974 9.50228 2.41682C8.63147 2.65964 8.10395 2.9862 7.60156 3.13692C8.17931 3.05318 8.96639 2.77687 9.96281 2.55079Z" fill="white"/>
<path id="Vector_53" fill-rule="evenodd" clip-rule="evenodd" d="M17.4987 4.23368C17.909 3.27077 15.6483 2.06502 15.799 2.18225C16.8959 3.0112 16.9796 3.68943 16.9796 3.68943L17.4987 4.23368Z" fill="white"/>
<path id="Vector_54" fill-rule="evenodd" clip-rule="evenodd" d="M9.23434 3.31299C8.23793 3.56418 6.9987 4.21729 5.66736 5.68261L6.33721 5.40629C6.37071 5.3728 6.39583 5.3393 6.42932 5.31419C7.48434 4.2173 9.41018 3.32973 9.41018 3.32973C9.41018 3.32973 9.35157 3.31299 9.23434 3.31299Z" fill="white"/>
<path id="Vector_55" fill-rule="evenodd" clip-rule="evenodd" d="M20.781 7.52449C21.2081 8.62976 20.5801 9.22425 20.3121 9.37497C20.5801 9.22425 21.2667 8.7721 21.1829 8.20272C21.1076 7.70033 20.9904 7.20631 20.9234 6.96349C20.9066 6.90488 20.8983 6.86301 20.8899 6.83789C20.8983 6.86301 20.8983 6.91325 20.8899 6.96349C20.8564 7.13095 20.7643 7.37378 20.781 7.52449Z" fill="#C4C4C4"/>
<path id="Vector_56" fill-rule="evenodd" clip-rule="evenodd" d="M19.7847 9.92767C20.9067 9.11547 21.1914 8.87265 21.1914 8.13581C21.1914 7.39897 20.9318 7.05566 20.9318 7.05566C20.9318 7.05566 21.0909 7.76739 21.0072 8.22791C20.9234 8.69681 20.488 9.04011 20.488 9.04011L19.7847 9.92767Z" fill="#1C1C30"/>
<path id="Vector_57" opacity="0.5" fill-rule="evenodd" clip-rule="evenodd" d="M13.9736 5.74086C14.9282 5.65713 15.8743 6.15952 15.8743 6.15952L15.2966 6.23488L16.6447 6.74564L14.2583 6.3856L14.9868 6.05067L13.9736 5.74086Z" fill="#B26629"/>
</g>
<g id="Group_4">
<path id="Vector_58" fill-rule="evenodd" clip-rule="evenodd" d="M3.281 16.4082H12.1399H20.9987L22.5561 18.9704L20.3791 20.9632L17.4317 20.1761H12.1399H6.84799L3.90062 20.9632L1.71521 18.9704L3.281 16.4082Z" fill="#C20E1A"/>
</g>
<path id="Vector_59" fill-rule="evenodd" clip-rule="evenodd" d="M3.47363 16.4086L12.165 15.9731L20.7978 16.4086H3.47363Z" fill="#1C1C30"/>
<g id="Group_5">
<g id="Group_6">
<path id="Vector_60" fill-rule="evenodd" clip-rule="evenodd" d="M4.15182 17.606C4.48675 17.606 4.75469 17.8739 4.75469 18.2088C4.75469 18.5438 4.48675 18.8117 4.15182 18.8117C3.81689 18.8117 3.54895 18.5438 3.54895 18.2088C3.54895 17.8739 3.82527 17.606 4.15182 17.606Z" fill="white"/>
<path id="Vector_61" fill-rule="evenodd" clip-rule="evenodd" d="M20.1279 17.606C20.4628 17.606 20.7308 17.8739 20.7308 18.2088C20.7308 18.5438 20.4628 18.8117 20.1279 18.8117C19.793 18.8117 19.525 18.5438 19.525 18.2088C19.525 17.8739 19.793 17.606 20.1279 17.606Z" fill="white"/>
</g>
</g>
</g>
</g>
<defs>
<linearGradient id="paint0_linear_203_71142" x1="12.4806" y1="4.51853" x2="12.4807" y2="19.0098" gradientUnits="userSpaceOnUse">
<stop stop-color="#C10E1A"/>
<stop offset="1" stop-color="#781708"/>
</linearGradient>
<linearGradient id="paint1_linear_203_71142" x1="19.6129" y1="6.07538" x2="13.8467" y2="12.4823" gradientUnits="userSpaceOnUse">
<stop stop-color="#DCB544"/>
<stop offset="1" stop-color="#B26628"/>
</linearGradient>
<linearGradient id="paint2_linear_203_71142" x1="17.8256" y1="12.6547" x2="17.8593" y2="10.328" gradientUnits="userSpaceOnUse">
<stop stop-color="#C10E1A"/>
<stop offset="1" stop-color="#781708"/>
</linearGradient>
<linearGradient id="paint3_linear_203_71142" x1="7.19706" y1="2.84617" x2="17.5551" y2="2.84617" gradientUnits="userSpaceOnUse">
<stop offset="0.2888" stop-color="#E3C68C"/>
<stop offset="0.6976" stop-color="#CB984F"/>
</linearGradient>
<linearGradient id="paint4_linear_203_71142" x1="4.93264" y1="5.62409" x2="11.8088" y2="5.62409" gradientUnits="userSpaceOnUse">
<stop offset="0.2888" stop-color="#E3C68C"/>
<stop offset="0.6976" stop-color="#CB984F"/>
</linearGradient>
<linearGradient id="paint5_linear_203_71142" x1="9.51486" y1="4.36142" x2="13.5109" y2="4.36142" gradientUnits="userSpaceOnUse">
<stop offset="0.2888" stop-color="#E3C68C"/>
<stop offset="0.6976" stop-color="#CB984F"/>
</linearGradient>
<linearGradient id="paint6_linear_203_71142" x1="9.72184" y1="8.6136" x2="12.9167" y2="8.6136" gradientUnits="userSpaceOnUse">
<stop offset="0.2888" stop-color="#E3C68C"/>
<stop offset="0.6976" stop-color="#CB984F"/>
</linearGradient>
<linearGradient id="paint7_linear_203_71142" x1="11.606" y1="13.6596" x2="15.7287" y2="13.6596" gradientUnits="userSpaceOnUse">
<stop offset="0.2888" stop-color="#E3C68C"/>
<stop offset="0.6976" stop-color="#CB984F"/>
</linearGradient>
<linearGradient id="paint8_linear_203_71142" x1="9.46036" y1="14.2733" x2="13.6389" y2="14.2733" gradientUnits="userSpaceOnUse">
<stop offset="0.2888" stop-color="#E3C68C"/>
<stop offset="0.6976" stop-color="#CB984F"/>
</linearGradient>
</defs>
</svg>
