<svg width="17" height="21" viewBox="0 0 17 21" fill="none" xmlns="http://www.w3.org/2000/svg">
<g id="Group 1349">
<g id="Group">
<path id="Vector" d="M5.03112 7.49432C5.03582 7.69173 4.98412 7.85623 4.88072 7.99723C4.81022 8.09123 4.71622 8.15704 4.58931 8.19934C4.52351 8.21814 4.44361 8.23224 4.35431 8.23224C4.18981 8.23224 4.0488 8.18994 3.9407 8.11003C3.8514 8.04423 3.7762 7.95023 3.7245 7.83273C3.67279 7.71523 3.63989 7.58362 3.63049 7.43322L4.0347 7.40502C4.0535 7.56952 4.0958 7.68703 4.1663 7.76223C4.21801 7.81863 4.27441 7.84213 4.34021 7.84213C4.43421 7.83743 4.50941 7.79513 4.56111 7.70583C4.58931 7.66353 4.60341 7.60242 4.60341 7.51782C4.60341 7.40032 4.55171 7.28282 4.44361 7.17001C4.35901 7.09011 4.23211 6.97261 4.0676 6.81281C3.9266 6.6765 3.8279 6.5543 3.7668 6.4462C3.70569 6.324 3.67279 6.19239 3.67279 6.05139C3.67279 5.79289 3.7574 5.60018 3.9313 5.46858C4.0394 5.38868 4.171 5.35107 4.32611 5.35107C4.47651 5.35107 4.60811 5.38398 4.71622 5.44978C4.80082 5.50148 4.86662 5.57668 4.91832 5.67068C4.97002 5.76468 5.00292 5.87279 5.01232 5.99499L4.60811 6.07019C4.59401 5.95269 4.56111 5.86339 4.50941 5.80228C4.47181 5.75528 4.41541 5.73178 4.34021 5.73178C4.26031 5.73178 4.20391 5.76468 4.1616 5.83519C4.1287 5.89159 4.1099 5.95739 4.1099 6.04199C4.1099 6.16889 4.1663 6.3005 4.27441 6.4368C4.31671 6.4885 4.37781 6.5496 4.46241 6.6154C4.56111 6.7 4.62691 6.75641 4.65982 6.78931C4.76322 6.89271 4.84312 6.99611 4.90422 7.09951C4.93242 7.14651 4.95122 7.19351 4.97002 7.23112C5.01232 7.32512 5.03112 7.41442 5.03112 7.49432Z" fill="#F1F8FF"/>
<path id="Vector_2" d="M5.99469 5.3418C6.18269 5.3418 6.34249 5.4076 6.4741 5.5392C6.6057 5.6708 6.6715 5.83061 6.6715 6.01391V7.55085C6.6715 7.73885 6.6057 7.89865 6.4741 8.03025C6.34249 8.16186 6.18269 8.22766 5.99939 8.22766C5.81138 8.22766 5.65158 8.16186 5.52468 8.03025C5.39307 7.89865 5.32727 7.73885 5.32727 7.55555V6.01861C5.32727 5.83061 5.39307 5.6708 5.52468 5.5392C5.65628 5.4076 5.81138 5.3418 5.99469 5.3418ZM6.22969 6.00921C6.22969 5.94341 6.20619 5.88231 6.15919 5.83531C6.11219 5.78831 6.05579 5.76481 5.98528 5.76481C5.91948 5.76481 5.85838 5.78831 5.81138 5.83531C5.76438 5.88231 5.74088 5.93871 5.74088 6.00921V7.54614C5.74088 7.61195 5.76438 7.67305 5.81138 7.72005C5.85838 7.76705 5.91478 7.79055 5.98528 7.79055C6.05109 7.79055 6.11219 7.76705 6.15919 7.72005C6.20619 7.67305 6.22969 7.61665 6.22969 7.54614V6.00921Z" fill="#F1F8FF"/>
<path id="Vector_3" d="M7.63494 8.22766C7.44694 8.22766 7.28714 8.16186 7.15553 8.03025C7.02393 7.89865 6.95813 7.73885 6.95813 7.55555V6.01861C6.95813 5.83061 7.02393 5.6708 7.15553 5.5392C7.28714 5.4076 7.44694 5.3418 7.63024 5.3418C7.81825 5.3418 7.97805 5.4076 8.10495 5.5392C8.23656 5.6708 8.30236 5.83061 8.30236 6.01391V6.33352H7.86055V6.00451C7.86055 5.93871 7.83705 5.87761 7.79005 5.83061C7.74305 5.78361 7.68665 5.76011 7.61614 5.76011C7.55034 5.76011 7.48924 5.78361 7.44224 5.83061C7.39524 5.87761 7.37174 5.93401 7.37174 6.00451V7.54614C7.37174 7.61195 7.39524 7.67305 7.44224 7.72005C7.48924 7.76705 7.54564 7.79055 7.61614 7.79055C7.68195 7.79055 7.74305 7.76705 7.79005 7.72005C7.83705 7.67305 7.86055 7.61665 7.86055 7.54614V7.15604H8.30236V7.55085C8.30236 7.73885 8.23656 7.89865 8.10495 8.02556C7.97805 8.16186 7.81825 8.22766 7.63494 8.22766Z" fill="#F1F8FF"/>
<path id="Vector_4" d="M9.27069 8.22766C9.08268 8.22766 8.92288 8.16186 8.79128 8.03025C8.65967 7.89865 8.59387 7.73885 8.59387 7.55555V6.01861C8.59387 5.83061 8.65967 5.6708 8.79128 5.5392C8.92288 5.4076 9.08268 5.3418 9.26599 5.3418C9.45399 5.3418 9.6138 5.4076 9.7407 5.5392C9.8723 5.6708 9.9381 5.83061 9.9381 6.01391V6.33352H9.49629V6.00451C9.49629 5.93871 9.47279 5.87761 9.42579 5.83061C9.37879 5.78361 9.32239 5.76011 9.25189 5.76011C9.18608 5.76011 9.12498 5.78361 9.07798 5.83061C9.03098 5.87761 9.00748 5.93401 9.00748 6.00451V7.54614C9.00748 7.61195 9.03098 7.67305 9.07798 7.72005C9.12498 7.76705 9.18138 7.79055 9.25189 7.79055C9.31769 7.79055 9.37879 7.76705 9.42579 7.72005C9.47279 7.67305 9.49629 7.61665 9.49629 7.54614V7.15604H9.9381V7.55085C9.9381 7.73885 9.8723 7.89865 9.7407 8.02556C9.6138 8.16186 9.45869 8.22766 9.27069 8.22766Z" fill="#F1F8FF"/>
<path id="Vector_5" d="M10.2341 8.19427V5.37891H11.4421V5.80662H10.6571V6.57273H11.2353V7.00044H10.6618V7.76656H11.4468V8.19427H10.2341Z" fill="#F1F8FF"/>
<path id="Vector_6" d="M12.4056 5.37891C12.6406 5.37891 12.8145 5.44471 12.9273 5.57631C13.026 5.68911 13.073 5.84892 13.073 6.05102V6.45993C13.073 6.65733 12.9978 6.82654 12.8474 6.96754L13.1623 8.19427H12.7017L12.4432 7.13205C12.4291 7.13205 12.4197 7.13205 12.4056 7.13205H12.1612V8.19427H11.7382V5.37891H12.4056ZM12.6594 6.05572C12.6594 5.89122 12.5795 5.81132 12.415 5.81132H12.1612V6.71374H12.415C12.4808 6.71374 12.5419 6.69023 12.5889 6.64323C12.6359 6.59623 12.6594 6.53983 12.6594 6.46933V6.05572Z" fill="#F1F8FF"/>
<path id="Vector_7" d="M6.79838 10.9677C6.66208 10.9677 6.54928 10.9207 6.45057 10.8267C6.35657 10.7327 6.30957 10.6152 6.30957 10.4836V9.36967C6.30957 9.23337 6.35657 9.12056 6.45057 9.02186C6.54458 8.92786 6.66208 8.88086 6.79368 8.88086C6.92998 8.88086 7.04279 8.92786 7.13679 9.02186C7.23079 9.11586 7.27779 9.23337 7.27779 9.36497V9.59528H6.95818V9.35557C6.95818 9.30857 6.93938 9.26627 6.90648 9.22867C6.87358 9.19577 6.83128 9.17697 6.77958 9.17697C6.73258 9.17697 6.69028 9.19577 6.65738 9.22867C6.62448 9.26157 6.60568 9.30387 6.60568 9.35557V10.4695C6.60568 10.5165 6.62448 10.5588 6.65738 10.5917C6.69028 10.6246 6.73258 10.6434 6.77958 10.6434C6.82658 10.6434 6.86888 10.6246 6.90648 10.5917C6.93938 10.5588 6.95818 10.5165 6.95818 10.4695V10.1875H7.27779V10.4742C7.27779 10.6105 7.23079 10.7233 7.13679 10.8173C7.04749 10.9207 6.93468 10.9677 6.79838 10.9677Z" fill="#F1F8FF"/>
<path id="Vector_8" d="M8.33527 10.9393H7.49866V8.89941H7.80416V10.6338H8.33527V10.9393Z" fill="#F1F8FF"/>
<path id="Vector_9" d="M9.03563 10.9629C8.89932 10.9629 8.78652 10.9159 8.69252 10.8219C8.59851 10.7279 8.55151 10.6151 8.55151 10.4788V8.9043H8.85232V10.4788C8.85232 10.5258 8.87112 10.5681 8.90402 10.601C8.93692 10.6339 8.97922 10.6527 9.03092 10.6527C9.07793 10.6527 9.12023 10.6339 9.15313 10.601C9.18603 10.5681 9.20483 10.5258 9.20483 10.4788V8.9043H9.52444V10.4788C9.52444 10.6151 9.47743 10.7326 9.38343 10.8219C9.28473 10.9159 9.16723 10.9629 9.03563 10.9629Z" fill="#F1F8FF"/>
<path id="Vector_10" d="M9.7312 10.9393V8.89941H10.1918C10.314 8.89941 10.4221 8.93231 10.5208 8.99342C10.6054 9.04982 10.6618 9.12972 10.6994 9.24722C10.7182 9.30832 10.7276 9.37882 10.7276 9.46343C10.7276 9.59973 10.69 9.70783 10.6195 9.79243C10.5913 9.82533 10.5537 9.85354 10.5114 9.87234C10.5819 9.90054 10.6383 9.94754 10.6853 10.0274C10.7182 10.0791 10.7417 10.1449 10.7558 10.2295C10.7652 10.2718 10.7652 10.3188 10.7652 10.3705C10.7652 10.4975 10.7417 10.6103 10.69 10.6996C10.6524 10.7701 10.6007 10.8265 10.5302 10.8688C10.4503 10.9158 10.3751 10.9393 10.2999 10.9393H9.7312ZM10.0649 9.73133H10.1918C10.2858 9.73133 10.3516 9.68433 10.3845 9.59033C10.3986 9.55743 10.4033 9.51513 10.4033 9.46343C10.4033 9.37882 10.3845 9.31302 10.3422 9.27072C10.3046 9.22842 10.2529 9.20962 10.1965 9.20962H10.0696V9.73133H10.0649ZM10.0649 10.6385H10.1918C10.2952 10.6385 10.3657 10.5868 10.408 10.4786C10.4221 10.441 10.4315 10.3987 10.4315 10.3517C10.4315 10.2389 10.408 10.1543 10.3657 10.1026C10.3281 10.0556 10.267 10.0321 10.1918 10.0321H10.0649V10.6385Z" fill="#F1F8FF"/>
</g>
<g id="Group_2">
<path id="Vector_11" d="M5.92885 4.11036H5.77374C5.77374 4.10566 5.77374 4.10096 5.76904 4.09156C5.76904 4.08686 5.76904 4.07746 5.76904 4.07276C5.76904 4.06806 5.76904 4.05866 5.76904 4.05396C5.76904 4.04926 5.76904 4.03986 5.77374 4.03516H6.16855C6.16855 4.03986 6.16855 4.04456 6.17325 4.05396C6.17325 4.05866 6.17325 4.06806 6.17325 4.07276C6.17325 4.07746 6.17325 4.08686 6.17325 4.09156C6.17325 4.09626 6.17325 4.10566 6.16855 4.11036H6.01345V4.63207C5.99935 4.63207 5.98525 4.63677 5.97115 4.63677C5.95705 4.63677 5.94295 4.63677 5.92885 4.63207V4.11036Z" fill="#F1F8FF"/>
<path id="Vector_12" d="M6.46462 4.6458C6.42232 4.6458 6.38472 4.6364 6.35182 4.6223C6.31892 4.6082 6.29542 4.5847 6.27192 4.5565C6.25312 4.5283 6.23432 4.4954 6.22492 4.4578C6.21551 4.4202 6.21082 4.3779 6.21082 4.3356C6.21082 4.2886 6.21551 4.251 6.22492 4.21339C6.23432 4.17579 6.24842 4.14289 6.27192 4.11469C6.29072 4.08649 6.31892 4.06769 6.35182 4.04889C6.38472 4.03479 6.42232 4.02539 6.46462 4.02539C6.50692 4.02539 6.54452 4.03479 6.57742 4.04889C6.61032 4.06299 6.63382 4.08649 6.65733 4.11469C6.67613 4.14289 6.69493 4.17579 6.70433 4.21339C6.71373 4.251 6.71843 4.2933 6.71843 4.3356C6.71843 4.3826 6.71373 4.4202 6.70433 4.4578C6.69493 4.4954 6.68083 4.5283 6.65733 4.5565C6.63852 4.5847 6.61032 4.6035 6.57742 4.6223C6.54452 4.6364 6.50692 4.6458 6.46462 4.6458ZM6.46462 4.5706C6.49282 4.5706 6.51632 4.5659 6.53512 4.5565C6.55392 4.5471 6.57272 4.5283 6.58682 4.5095C6.60092 4.4907 6.61032 4.4625 6.61502 4.4343C6.61972 4.4061 6.62442 4.3732 6.62442 4.3356C6.62442 4.298 6.61972 4.2651 6.61502 4.2369C6.61032 4.20869 6.59622 4.18519 6.58682 4.16169C6.57272 4.14289 6.55862 4.12409 6.53512 4.11469C6.51632 4.10529 6.49282 4.10059 6.46462 4.10059C6.43642 4.10059 6.41292 4.10529 6.39412 4.11469C6.37532 4.12409 6.35652 4.14289 6.34242 4.16169C6.32832 4.18049 6.31892 4.20869 6.31422 4.2369C6.30952 4.2651 6.30482 4.298 6.30482 4.3356C6.30482 4.3732 6.30952 4.4061 6.31422 4.4343C6.31892 4.4625 6.33302 4.486 6.34242 4.5095C6.35652 4.5283 6.37062 4.5471 6.39412 4.5565C6.41292 4.5659 6.43642 4.5706 6.46462 4.5706Z" fill="#F1F8FF"/>
<path id="Vector_13" d="M6.83594 4.03497C6.85004 4.03497 6.86414 4.03027 6.87824 4.03027C6.89234 4.03027 6.90644 4.03027 6.92054 4.03497V4.37338C6.92054 4.40628 6.92054 4.43918 6.92524 4.46268C6.92994 4.48618 6.93464 4.50498 6.94874 4.52378C6.95814 4.53788 6.97224 4.55198 6.98634 4.55668C7.00044 4.56609 7.02394 4.56609 7.04744 4.56609C7.07094 4.56609 7.08974 4.56138 7.10854 4.55668C7.12264 4.54728 7.13674 4.53788 7.14614 4.52378C7.15554 4.50968 7.16494 4.49088 7.16965 4.46268C7.17435 4.43918 7.17435 4.41098 7.17435 4.37338V4.03497C7.18845 4.03497 7.20255 4.03027 7.21665 4.03027C7.23075 4.03027 7.24485 4.03027 7.25895 4.03497V4.38748C7.25895 4.42978 7.25425 4.46268 7.24955 4.49558C7.24015 4.52848 7.23075 4.55199 7.21195 4.57549C7.19315 4.59899 7.17435 4.61309 7.14614 4.62719C7.11794 4.63659 7.08504 4.64599 7.04744 4.64599C7.00984 4.64599 6.97694 4.64129 6.94874 4.62719C6.92054 4.61779 6.90174 4.59899 6.88294 4.57549C6.86414 4.55199 6.85474 4.52848 6.84534 4.49558C6.83594 4.46268 6.83594 4.42978 6.83594 4.38748V4.03497Z" fill="#F1F8FF"/>
<path id="Vector_14" d="M7.40466 4.03479C7.41876 4.03479 7.42817 4.03479 7.43757 4.03009C7.44697 4.03009 7.45636 4.03009 7.46577 4.02539C7.47517 4.02539 7.48457 4.02539 7.49397 4.02539C7.50337 4.02539 7.51747 4.02539 7.52687 4.02539C7.55507 4.02539 7.58327 4.03009 7.61147 4.03479C7.63967 4.03949 7.66317 4.04889 7.68667 4.06299C7.71017 4.07709 7.72427 4.09589 7.73837 4.11939C7.75247 4.14289 7.75717 4.17109 7.75717 4.20869C7.75717 4.23219 7.75247 4.251 7.74777 4.2698C7.73837 4.2886 7.73367 4.3027 7.71957 4.3168C7.71017 4.3309 7.69607 4.345 7.68197 4.3544C7.66787 4.3638 7.65377 4.3732 7.63967 4.3779L7.63027 4.3826L7.80417 4.6364C7.79007 4.6364 7.77127 4.6411 7.75247 4.6411C7.73837 4.6411 7.72427 4.6411 7.70547 4.6364L7.51277 4.3591V4.3544H7.51747C7.53157 4.3497 7.55037 4.345 7.56447 4.3403C7.58327 4.3356 7.59737 4.3262 7.61147 4.3121C7.62557 4.3027 7.63967 4.2886 7.64907 4.2745C7.65847 4.2604 7.66317 4.24159 7.66317 4.21809C7.66317 4.17579 7.64907 4.14759 7.62557 4.12879C7.60207 4.10999 7.56917 4.10059 7.53157 4.10059C7.52217 4.10059 7.51277 4.10059 7.50337 4.10059C7.49397 4.10059 7.48457 4.10059 7.47517 4.10529V4.6317C7.47047 4.6317 7.46107 4.6317 7.45637 4.6317C7.44697 4.6317 7.44227 4.6317 7.43287 4.6317C7.42817 4.6317 7.41876 4.6317 7.40936 4.6317C7.39996 4.6317 7.39526 4.6317 7.38586 4.6317V4.03479H7.40466Z" fill="#F1F8FF"/>
<path id="Vector_15" d="M7.89826 4.03497C7.90296 4.03497 7.91236 4.03497 7.91706 4.03027C7.92176 4.03027 7.93116 4.03027 7.93586 4.03027C7.94056 4.03027 7.94996 4.03027 7.95466 4.03027C7.95936 4.03027 7.96876 4.03027 7.97346 4.03497L8.23196 4.48618V4.03497C8.23666 4.03497 8.24606 4.03497 8.25076 4.03027C8.26016 4.03027 8.26486 4.03027 8.27426 4.03027C8.27896 4.03027 8.28836 4.03027 8.29306 4.03027C8.29776 4.03027 8.30716 4.03027 8.31186 4.03497V4.63189C8.30716 4.63189 8.29776 4.63189 8.29306 4.63659C8.28836 4.63659 8.27896 4.63659 8.27426 4.63659C8.26956 4.63659 8.26016 4.63659 8.25546 4.63659C8.25076 4.63659 8.24136 4.63659 8.23666 4.63189L7.97346 4.18538V4.63189C7.96876 4.63189 7.95936 4.63189 7.95466 4.63659C7.94996 4.63659 7.94056 4.63659 7.93586 4.63659C7.92646 4.63659 7.92176 4.63659 7.91235 4.63659C7.90765 4.63659 7.89825 4.63659 7.89355 4.63189V4.03497H7.89826Z" fill="#F1F8FF"/>
<path id="Vector_16" d="M8.75833 4.49558H8.53273L8.49042 4.63189C8.48102 4.63189 8.47632 4.63189 8.46692 4.63659C8.45752 4.63659 8.45282 4.63659 8.44342 4.63659C8.43402 4.63659 8.42932 4.63659 8.41992 4.63659C8.41052 4.63659 8.40582 4.63659 8.40112 4.63189L8.59383 4.03497C8.60323 4.03497 8.60793 4.03497 8.61733 4.03027C8.62673 4.03027 8.63613 4.03027 8.64083 4.03027C8.65023 4.03027 8.65493 4.03027 8.66433 4.03027C8.67373 4.03027 8.67843 4.03027 8.68783 4.03497L8.88053 4.63189C8.87583 4.63189 8.86643 4.63189 8.85703 4.63659C8.84763 4.63659 8.84293 4.63659 8.83353 4.63659C8.82413 4.63659 8.81943 4.63659 8.81003 4.63659C8.80063 4.63659 8.79593 4.63659 8.78653 4.63189L8.75833 4.49558ZM8.55623 4.42038H8.73953L8.65023 4.11488L8.55623 4.42038Z" fill="#F1F8FF"/>
<path id="Vector_17" d="M8.99805 4.03497C9.00275 4.03497 9.01215 4.03497 9.02155 4.03027C9.03095 4.03027 9.04035 4.03027 9.04505 4.03027C9.05445 4.03027 9.05915 4.03027 9.06855 4.03027C9.07795 4.03027 9.08735 4.03027 9.09205 4.03497L9.24716 4.41098L9.40226 4.03497C9.40696 4.03497 9.41636 4.03497 9.42106 4.03027C9.43046 4.03027 9.43516 4.03027 9.44456 4.03027C9.45396 4.03027 9.45866 4.03027 9.46806 4.03027C9.47746 4.03027 9.48216 4.03027 9.49156 4.03497L9.51976 4.63189C9.51506 4.63189 9.50566 4.63189 9.50096 4.63659C9.49626 4.63659 9.48686 4.63659 9.47746 4.63659C9.46806 4.63659 9.46336 4.63659 9.45396 4.63659C9.44926 4.63659 9.43986 4.63659 9.43516 4.63189L9.41636 4.16658L9.27066 4.50968C9.26126 4.50968 9.24716 4.51438 9.23776 4.51438C9.22835 4.51438 9.21895 4.51438 9.20485 4.50968L9.06385 4.16658L9.04505 4.63659C9.04035 4.63659 9.03095 4.63659 9.02625 4.64129C9.02155 4.64129 9.01215 4.64129 9.00745 4.64129C8.99805 4.64129 8.99335 4.64129 8.98865 4.64129C8.98395 4.64129 8.97455 4.64129 8.96985 4.63659L8.99805 4.03497Z" fill="#F1F8FF"/>
<path id="Vector_18" d="M9.66077 4.03516H9.98977C9.98977 4.04456 9.99447 4.05866 9.99447 4.07276C9.99447 4.07746 9.99447 4.08686 9.99447 4.09156C9.99447 4.09626 9.99447 4.10566 9.99447 4.11036H9.75007V4.27956H9.94277C9.94277 4.28426 9.94277 4.28896 9.94747 4.29836C9.94747 4.30306 9.94747 4.31246 9.94747 4.31716C9.94747 4.32186 9.94747 4.33126 9.94747 4.33596C9.94747 4.34066 9.94747 4.35006 9.94277 4.35476H9.75007V4.56157H9.99917C9.99917 4.57097 10.0039 4.58507 10.0039 4.59917C10.0039 4.60387 10.0039 4.61327 10.0039 4.61797C10.0039 4.62267 10.0039 4.63207 10.0039 4.63677H9.67017V4.03516H9.66077Z" fill="#F1F8FF"/>
<path id="Vector_19" d="M10.1072 4.03497C10.1119 4.03497 10.1213 4.03497 10.126 4.03027C10.1307 4.03027 10.1401 4.03027 10.1448 4.03027C10.1495 4.03027 10.1589 4.03027 10.1636 4.03027C10.1683 4.03027 10.1777 4.03027 10.1824 4.03497L10.4409 4.48618V4.03497C10.4456 4.03497 10.455 4.03497 10.4597 4.03027C10.4691 4.03027 10.4738 4.03027 10.4832 4.03027C10.4879 4.03027 10.4973 4.03027 10.502 4.03027C10.5067 4.03027 10.5161 4.03027 10.5208 4.03497V4.63189C10.5161 4.63189 10.5067 4.63189 10.502 4.63659C10.4973 4.63659 10.4879 4.63659 10.4832 4.63659C10.4785 4.63659 10.4691 4.63659 10.4644 4.63659C10.4597 4.63659 10.4503 4.63659 10.4456 4.63189L10.1824 4.18538V4.63189C10.1777 4.63189 10.1683 4.63189 10.1636 4.63659C10.1589 4.63659 10.1495 4.63659 10.1448 4.63659C10.1354 4.63659 10.1307 4.63659 10.1213 4.63659C10.1166 4.63659 10.1072 4.63659 10.1025 4.63189V4.03497H10.1072Z" fill="#F1F8FF"/>
<path id="Vector_20" d="M10.7747 4.11036H10.6196C10.6196 4.10566 10.6196 4.10096 10.6149 4.09156C10.6149 4.08686 10.6149 4.07746 10.6149 4.07276C10.6149 4.06806 10.6149 4.05866 10.6149 4.05396C10.6149 4.04926 10.6149 4.03986 10.6196 4.03516H11.0144C11.0144 4.03986 11.0144 4.04456 11.0191 4.05396C11.0191 4.05866 11.0191 4.06806 11.0191 4.07276C11.0191 4.07746 11.0191 4.08686 11.0191 4.09156C11.0191 4.09626 11.0191 4.10566 11.0144 4.11036H10.8593V4.63207C10.8452 4.63207 10.8311 4.63677 10.817 4.63677C10.8029 4.63677 10.7888 4.63677 10.7747 4.63207V4.11036Z" fill="#F1F8FF"/>
</g>
<g id="Group_3">
<path id="Vector_21" d="M8.4998 1.80701C10.0602 3.06663 11.9262 3.92205 13.308 4.43906C14.2339 4.78687 15.1551 5.05948 15.8414 5.22868C15.8602 6.1969 15.7991 7.98294 15.2491 10.0698C14.765 11.9028 13.9989 13.5855 12.9743 15.0707C11.8134 16.758 10.3093 18.201 8.4998 19.3666C6.70436 18.2104 5.20973 16.7815 4.0535 15.113C3.02888 13.6372 2.26276 11.9686 1.77395 10.1497C1.20524 8.04404 1.13944 6.211 1.16294 5.22868C1.84915 5.05948 2.77507 4.78687 3.6963 4.43906C5.07343 3.92205 6.93937 3.06663 8.4998 1.80701ZM8.4998 0.359375C5.55754 3.23584 0.401523 4.33096 0.124217 4.33096C0.124217 4.33096 -1.12131 14.9344 8.4998 20.6403C18.1256 14.9344 16.8754 4.33096 16.8754 4.33096C16.5981 4.33096 11.4421 3.23584 8.4998 0.359375Z" fill="#F1F8FF"/>
</g>
<path id="Vector_22" d="M8.56561 11.8745C6.98638 11.8745 5.70325 13.1576 5.70325 14.7369C5.70325 16.3161 6.98638 17.5992 8.56561 17.5992C10.1448 17.5992 11.428 16.3161 11.428 14.7369C11.428 13.1576 10.1448 11.8745 8.56561 11.8745ZM8.43871 12.5466L9.03092 12.2223C9.47273 12.2599 9.71714 12.3727 9.71714 12.3727C9.71714 12.3727 9.92864 12.4949 10.2012 12.8004L10.2905 13.4631L9.69833 13.6606V13.6559L8.66431 13.1106L8.43871 12.5466ZM9.53853 13.7499L9.43043 14.5113L9.35993 13.8157L8.78181 13.3456L9.53853 13.7499ZM8.37761 12.5466L8.61731 13.1482L7.77129 13.7828L7.77599 13.7875L7.00988 13.7687L6.67617 13.2798L7.52689 12.4996L8.37761 12.5466ZM7.03338 13.8157L7.80889 13.8345L8.38701 14.7745L7.9358 15.6863L6.85947 15.7004L6.46936 14.7839L7.03338 13.8157ZM6.31896 13.5101L6.61977 13.4396L6.87827 13.7828L6.60097 13.6088L6.31896 13.5101ZM6.51637 12.9978C6.76547 12.7064 7.07568 12.4667 7.42819 12.3022L7.44699 12.3492L7.47049 12.4056L7.49399 12.4667L6.59157 13.2939L6.60097 13.3033L6.26256 13.3738C6.33306 13.2375 6.41766 13.1153 6.51637 12.9978ZM6.11686 15.6957C5.98525 15.3808 5.91945 15.0565 5.91475 14.7369L6.42706 14.8262L6.80307 15.7051H6.79367L6.76547 16.5088L6.70907 16.5699C6.45996 16.3255 6.25786 16.0341 6.11686 15.6957ZM6.74197 16.6028L6.78897 16.5558L7.9311 17.1621L7.9593 17.2655C7.50809 17.1574 7.08508 16.9318 6.74197 16.6028ZM9.53383 17.1386C9.03562 17.3454 8.51391 17.383 8.0204 17.2796L7.9875 17.148L8.74891 16.6498L9.50563 16.5464L10.0038 16.8848C9.85344 16.9835 9.69833 17.0681 9.53383 17.1386ZM9.49153 16.4947L8.72541 16.5981L7.9687 15.7239L8.41991 14.8168L9.48683 14.7416L10.0461 15.5218L9.49153 16.4947ZM9.54793 14.7369L9.68894 13.7217L10.314 13.5101L10.8922 14.281L10.7418 15.3197L10.1025 15.5124L9.54793 14.7369ZM10.5115 15.5124L10.7183 15.4748L10.8922 15.8649L10.5115 15.5124ZM10.7888 15.3573L10.9439 14.2904C11.0332 14.2669 11.0144 14.2716 11.0849 14.2575C11.1789 14.7792 11.1131 15.3009 10.9157 15.7662L10.7888 15.3573Z" fill="#F1F8FF"/>
<path id="Vector_23" d="M13.7639 5.44043V8.6647H11.9967L11.1412 12.4389L12.4526 14.4458C12.4526 14.4458 15.0987 10.4319 14.9953 5.82114L13.7639 5.44043Z" fill="#ED3041"/>
<path id="Vector_24" d="M3.16523 5.44043V8.6647H4.93247L5.78319 12.4389L4.47186 14.4458C4.47186 14.4458 1.8257 10.4319 1.9291 5.82114L3.16523 5.44043Z" fill="#ED3041"/>
<path id="Vector_25" d="M4.00176 9.0874L4.15216 9.54801H4.63628L4.24617 9.83002L4.39657 10.2906L4.00176 10.0039L3.61165 10.2906L3.76206 9.83002L3.37195 9.54801H3.85606L4.00176 9.0874Z" fill="white"/>
<path id="Vector_26" d="M12.8333 9.0874L12.9837 9.54801H13.4678L13.0777 9.83002L13.2234 10.2906L12.8333 10.0039L12.4432 10.2906L12.5936 9.83002L12.2035 9.54801H12.6829L12.8333 9.0874Z" fill="white"/>
</g>
</svg>
