<svg width="20" height="21" viewBox="0 0 20 21" fill="none" xmlns="http://www.w3.org/2000/svg">
<g id="Group 1347">
<g id="OBJETS">
<path id="Vector" d="M19.7734 5.73593C19.7092 5.67754 19.6274 5.64835 19.5457 5.64835C19.5282 5.64835 19.5107 5.64835 19.499 5.65419C19.0203 5.72425 18.5473 5.78263 18.0686 5.84102L18.3839 1.47395C18.3955 1.34551 18.3313 1.22874 18.2262 1.15868C18.1679 1.11781 18.0978 1.1003 18.0336 1.1003C17.981 1.1003 17.9285 1.11198 17.8759 1.13533L16.9418 1.60823C16.0077 2.08114 15.056 2.31467 14.1161 2.31467C12.8608 2.31467 11.6698 1.90015 10.5664 1.08278L10.2102 0.82006C10.146 0.773353 10.0759 0.75 10 0.75C9.92414 0.75 9.84825 0.773353 9.78986 0.82006L9.43372 1.08862C8.32444 1.92934 7.11007 2.36138 5.83732 2.36138C4.91486 2.36138 3.98073 2.13368 3.05828 1.68413L2.10663 1.2229C2.05992 1.19955 2.00738 1.18787 1.95483 1.18787C1.88477 1.18787 1.81471 1.21123 1.75633 1.24626C1.65124 1.31632 1.59286 1.43892 1.60453 1.56737L1.96067 5.85269C1.47025 5.79431 0.979833 5.73009 0.489413 5.66003C0.471898 5.66003 0.454383 5.65419 0.442707 5.65419C0.36097 5.65419 0.279233 5.68338 0.215012 5.74177C0.139114 5.80599 0.0924072 5.90524 0.0924072 6.00449V11.9421C0.0924072 12.0413 0.139114 12.1406 0.215012 12.2048C0.279233 12.2632 0.36097 12.2924 0.442707 12.2924C0.460222 12.2924 0.477737 12.2924 0.489413 12.2865C1.14914 12.1931 1.80887 12.1114 2.47444 12.0355L2.52699 12.6427C2.67295 14.4058 3.56621 15.9822 4.97325 17.0039C5.22429 18.0256 5.72639 19.0006 6.46786 19.9055C6.55543 20.0165 6.66636 20.0982 6.80064 20.1624C6.80648 20.1624 6.81232 20.1683 6.81816 20.1683C6.94076 20.2208 7.0692 20.25 7.19765 20.25C7.25603 20.25 7.30858 20.2442 7.36696 20.2325C8.20184 20.0807 8.96082 19.853 9.64974 19.5436L9.93582 19.6954C9.98837 19.7246 10.0409 19.7362 10.0993 19.7362C10.1577 19.7362 10.2161 19.7246 10.2686 19.6954L14.4664 17.4184C16.2821 16.4376 17.4497 14.6219 17.5957 12.5668L17.6307 12.053C18.2613 12.1231 18.886 12.2048 19.5107 12.2924C19.5282 12.2924 19.5457 12.2982 19.5574 12.2982C19.6391 12.2982 19.7208 12.269 19.7851 12.2106C19.861 12.1464 19.9077 12.0472 19.9077 11.9479V6.00449C19.8902 5.8994 19.8493 5.80599 19.7734 5.73593Z" fill="white" stroke="black" stroke-width="0.0145958"/>
<g id="Group">
<path id="Vector_2" d="M9.98259 2.57129C7.95669 3.94913 5.58049 4.25856 3.29187 3.45288L3.8757 10.5348C7.95669 9.49554 12.0844 9.50138 16.1654 10.5581L16.6791 3.38282C14.4022 4.21186 12.026 3.92578 9.98259 2.57129Z" fill="#F41E47"/>
<path id="Vector_3" d="M17.0878 1.92379C14.7816 3.08562 12.3879 2.88711 10.3387 1.36915L9.98837 1.10059L9.63223 1.36915C7.60049 2.91047 5.20678 3.13232 2.8948 1.99385L1.95483 1.53262L2.86561 12.6138C3.02325 14.5462 4.14421 16.2452 5.86067 17.156L10.0818 19.3862L14.2795 17.1093C15.9843 16.181 17.0878 14.4762 17.2279 12.5379L18.0219 1.45089L17.0878 1.92379ZM4.51202 14.1668C4.25513 13.6647 4.0975 13.1042 4.05079 12.5203L3.98657 11.738C4.16172 11.6913 4.33687 11.6504 4.51202 11.6037V14.1668ZM6.98747 16.4087L6.42115 16.1109C6.16426 15.9766 5.92489 15.819 5.70304 15.638V11.3585C6.13507 11.2768 6.56127 11.2067 6.99331 11.1542V16.4087H6.98747ZM9.46292 17.7165L8.17849 17.0392V11.0257C8.61052 10.9907 9.03672 10.9674 9.46292 10.9615V17.7165ZM11.9384 17.0334L10.6539 17.7281V10.9615C11.086 10.9732 11.5122 10.9965 11.9384 11.0316V17.0334ZM14.4138 15.5971C14.1978 15.7723 13.9643 15.9299 13.7132 16.0642L13.1294 16.3853V11.1659C13.5614 11.2242 13.9876 11.2943 14.4138 11.376V15.5971ZM16.0427 12.4561C16.0018 13.04 15.85 13.5946 15.599 14.1025V11.6388C15.7625 11.6796 15.9259 11.7205 16.0894 11.7672L16.0427 12.4561ZM16.177 10.5587C12.096 9.50193 7.96831 9.4961 3.88148 10.5353L3.29765 3.45343C5.58627 4.25328 7.96247 3.94969 9.98837 2.57184C12.0259 3.92633 14.408 4.21241 16.6908 3.38337L16.177 10.5587Z" fill="#242535"/>
<g id="Group_2">
<path id="Vector_4" d="M4.51202 11.6035V14.1607C4.25514 13.6586 4.0975 13.0981 4.05079 12.5143L3.98657 11.732C4.16172 11.6911 4.33687 11.6502 4.51202 11.6035Z" fill="#1173FF"/>
<path id="Vector_5" d="M6.98756 11.1484V16.4088L6.42124 16.111C6.16435 15.9767 5.92498 15.8191 5.70312 15.6381V11.3586C6.12932 11.271 6.55552 11.201 6.98756 11.1484Z" fill="#1173FF"/>
<path id="Vector_6" d="M9.46302 10.9556V17.7163L8.17859 17.0391V11.0256C8.60479 10.9906 9.03098 10.9672 9.46302 10.9556Z" fill="#1173FF"/>
<path id="Vector_7" d="M11.9384 11.0315V17.0274L10.6539 17.7222V10.9614C11.0801 10.9731 11.5063 10.9965 11.9384 11.0315Z" fill="#1173FF"/>
<path id="Vector_8" d="M14.4138 11.3757V15.5968C14.1978 15.772 13.9643 15.9296 13.7132 16.0639L13.1294 16.385V11.1655C13.5556 11.2239 13.9818 11.294 14.4138 11.3757Z" fill="#1173FF"/>
<path id="Vector_9" d="M16.0894 11.7613L16.0369 12.456C15.996 13.0399 15.8442 13.5945 15.5931 14.1024V11.6387C15.7625 11.6795 15.9259 11.7204 16.0894 11.7613Z" fill="#1173FF"/>
</g>
<g id="Group_3">
<path id="Vector_10" d="M11.9442 14.7914C13.7775 10.9381 12.6507 8.3751 12.4638 8.00144C12.4405 7.9956 12.423 7.99561 12.3996 7.99561C9.64977 8.00728 7.62971 9.34426 6.21683 12.0824C6.21683 12.0883 6.211 12.0883 6.211 12.0941C6.211 12.0999 6.20516 12.1058 6.20516 12.1058C4.99079 14.9374 5.24767 17.3486 6.98749 19.4737C6.99917 19.4913 7.01669 19.5088 7.0342 19.5205C7.44872 19.4212 10.1402 18.6622 11.9442 14.7914Z" fill="#FF4800"/>
<path id="Vector_11" d="M13.001 15.2935C13.8942 13.3493 13.976 11.4285 13.2462 9.47852C13.433 10.7162 13.3688 12.5903 12.2478 14.9432C11.1444 17.3019 9.7432 18.5454 8.66895 19.1935C10.6423 18.5046 12.0668 17.2201 13.001 15.2935Z" fill="#FF4800"/>
<path id="Vector_12" d="M13.6724 10.4706L10.7591 9.08105L8.9375 9.84004L13.8183 12.1695C13.8183 12.1754 13.7775 10.6983 13.6724 10.4706Z" fill="white"/>
<path id="Vector_13" d="M9.70809 18.8721L6.78309 17.5117L6.21094 15.6201L11.1151 17.9029C11.1151 17.9029 9.94746 18.8137 9.70809 18.8721Z" fill="white"/>
<path id="Vector_14" d="M7.46614 12.6832C9.29353 9.3145 12.6622 7.96001 12.6622 7.96001C12.6622 7.96001 8.47617 7.25941 5.9832 11.9826C3.92227 16.9102 7.12751 19.695 7.12751 19.695C7.12751 19.695 6.02991 16.2329 7.46614 12.6832Z" fill="#CC2B00"/>
<path id="Vector_15" d="M7.46619 12.6836C9.29359 9.3149 12.6623 7.96041 12.6623 7.96041C12.6623 7.96041 12.4113 7.91954 11.9909 7.92538C11.121 8.34573 8.59299 9.75277 7.09838 12.5085C5.92487 15.4159 6.44448 18.2592 6.67218 19.1992C6.9349 19.5261 7.12757 19.6954 7.12757 19.6954C7.12757 19.6954 6.02996 16.2333 7.46619 12.6836Z" fill="#AF1D00"/>
<g id="Group_4">
<path id="Vector_16" d="M13.3045 15.4339C14.4546 12.935 14.3203 10.4888 12.9133 7.95496C12.8549 7.84987 12.7673 7.76813 12.6622 7.71559C12.6622 7.71559 12.6564 7.71559 12.6564 7.70975C12.5747 7.66888 12.4871 7.65137 12.3995 7.65137C11.0158 7.65721 9.78395 7.99583 8.73305 8.65556C7.61793 9.362 6.66628 10.4596 5.91898 11.9192V11.925C5.91314 11.9309 5.91314 11.9367 5.91314 11.9425C5.9073 11.9484 5.9073 11.9542 5.90146 11.96V11.9659C5.25341 13.4722 5.01404 14.9026 5.17751 16.2162C5.33515 17.4481 5.85476 18.6157 6.73634 19.6842C6.79473 19.7542 6.86479 19.8068 6.94652 19.8476C6.94652 19.8476 6.95236 19.8476 6.95236 19.8535C7.05745 19.9002 7.18006 19.9177 7.29682 19.8943C10.1401 19.3689 12.1076 17.9093 13.3045 15.4339ZM12.2477 14.9376C13.3687 12.5848 13.4329 10.7165 13.2461 9.47292C13.9759 11.4288 13.8941 13.3437 13.0009 15.2879C12.0667 17.2145 10.6422 18.499 8.66883 19.1821C9.74308 18.5398 11.1501 17.2963 12.2477 14.9376ZM6.20506 12.0885C6.20506 12.0827 6.21089 12.0827 6.21089 12.0768C7.62377 9.33864 9.64383 8.00167 12.3937 7.98999C12.417 7.98999 12.4404 7.98999 12.4579 7.99583C12.6447 8.37532 13.7774 10.9325 11.9383 14.7858C10.1342 18.6566 7.44278 19.4156 7.02826 19.509C7.01075 19.4973 6.99323 19.4798 6.98155 19.4623C5.24173 17.3371 4.98485 14.9259 6.19922 12.0943C6.20506 12.1002 6.20506 12.0943 6.20506 12.0885Z" fill="#242535"/>
<path id="Vector_17" d="M12.277 14.9487C12.312 14.8787 12.3412 14.8145 12.3704 14.7444C12.4055 14.7619 12.4346 14.7794 12.458 14.7969C12.5514 14.8553 12.6799 14.8203 12.7382 14.7269C12.7966 14.6335 12.7616 14.505 12.6682 14.4525C12.6565 14.4466 12.604 14.4116 12.5339 14.3766C12.5748 14.2832 12.6098 14.1898 12.6448 14.0963C12.6857 14.1197 12.7324 14.143 12.7733 14.1664C12.8725 14.2248 12.9951 14.1898 13.0477 14.0963C13.1061 14.0029 13.071 13.8745 12.9776 13.8219C12.9309 13.7927 12.8608 13.7577 12.7849 13.7168C12.82 13.6234 12.8492 13.5242 12.8784 13.4308C12.9076 13.4483 12.9367 13.4658 12.9601 13.4833C13.0535 13.5417 13.182 13.5125 13.2403 13.4191C13.2987 13.3257 13.2695 13.1972 13.1761 13.1389C13.1586 13.1272 13.0885 13.0863 12.9951 13.0338C13.0185 12.9462 13.0418 12.8586 13.0652 12.771C13.0944 12.7886 13.1236 12.8061 13.1528 12.8294C13.2462 12.8936 13.3688 12.8703 13.433 12.7769C13.4972 12.6835 13.4739 12.5609 13.3805 12.4966C13.3338 12.4674 13.2579 12.4149 13.1586 12.3565C13.1644 12.2573 13.0944 12.1697 13.001 12.1463C12.9426 12.1347 12.8784 12.1522 12.8375 12.1872C12.7266 12.1405 12.6215 12.1113 12.5339 12.1055C12.4522 12.1055 12.3821 12.1522 12.3471 12.2222C12.3354 12.2456 12.3296 12.2748 12.3296 12.304C12.3296 12.4149 12.4171 12.5083 12.5281 12.5083C12.5631 12.5083 12.6273 12.5317 12.7091 12.5667C12.6857 12.6601 12.6623 12.7535 12.639 12.8469C12.5514 12.8119 12.4697 12.7827 12.3938 12.7652C12.3004 12.7477 12.2128 12.7944 12.1719 12.8761C12.1661 12.8936 12.1602 12.9053 12.1544 12.9228C12.1311 13.0338 12.207 13.1389 12.312 13.1622C12.3646 13.1739 12.4405 13.2031 12.5222 13.2381C12.493 13.3374 12.458 13.4366 12.423 13.5359C12.3179 13.4892 12.2245 13.4541 12.1602 13.4483C12.0727 13.4366 11.9909 13.4892 11.9559 13.565C11.9442 13.5826 11.9384 13.6059 11.9384 13.6293C11.9267 13.7402 12.0026 13.8395 12.1135 13.8511C12.1427 13.857 12.207 13.8803 12.2829 13.9153C12.2478 14.0088 12.207 14.108 12.1661 14.2014C12.0902 14.1722 12.0201 14.143 11.9617 14.1255C11.8683 14.1022 11.7691 14.1489 11.7282 14.2365C11.7224 14.2481 11.7165 14.2598 11.7165 14.2715C11.6873 14.3824 11.7574 14.4875 11.8625 14.5167C11.9034 14.5284 11.9501 14.5459 12.0085 14.5692C11.9734 14.6393 11.9442 14.7152 11.9092 14.7853C11.8742 14.8553 11.8391 14.9312 11.8041 15.0013C11.7516 14.9721 11.7049 14.9487 11.6698 14.9254C11.5823 14.8612 11.4538 14.8787 11.3896 14.9662C11.3838 14.9779 11.3721 14.9896 11.3721 15.0013C11.3312 15.0889 11.3546 15.1939 11.4363 15.2523C11.4888 15.2874 11.5531 15.3282 11.6231 15.3633C11.5764 15.4567 11.5239 15.5442 11.4713 15.6377C11.3954 15.6026 11.337 15.5676 11.3137 15.5501C11.232 15.4742 11.1035 15.4742 11.0276 15.5559C11.0101 15.5734 10.9984 15.5909 10.9867 15.6085C10.9517 15.6844 10.9634 15.7778 11.0276 15.842C11.0743 15.8887 11.1619 15.9412 11.2611 15.988C11.2086 16.0755 11.1502 16.1631 11.0918 16.2507C11.0101 16.2098 10.9459 16.1748 10.8992 16.1398C10.8116 16.0697 10.6832 16.0814 10.6131 16.1689C10.6014 16.1806 10.5956 16.1981 10.5839 16.2098C10.543 16.2915 10.5664 16.3908 10.6364 16.4492C10.6948 16.4959 10.7707 16.5426 10.8525 16.5835C10.7941 16.6594 10.7415 16.7411 10.6832 16.817C10.6073 16.782 10.5489 16.7469 10.5255 16.7177C10.4496 16.636 10.327 16.6243 10.2394 16.6944C10.2161 16.7119 10.1986 16.7353 10.1869 16.7645C10.1519 16.8345 10.1635 16.9221 10.2161 16.9805C10.2745 17.0447 10.3679 17.1089 10.473 17.1615C10.473 17.2198 10.5022 17.2782 10.5489 17.3133C10.6248 17.3775 10.7357 17.3716 10.8116 17.3074C10.9167 17.3483 11.0101 17.3716 11.0626 17.3892C11.1677 17.4183 11.2845 17.36 11.3137 17.249C11.3429 17.1439 11.2845 17.0272 11.1736 16.998C11.1444 16.9863 11.1093 16.9805 11.0743 16.9688C11.1269 16.8987 11.1794 16.8228 11.232 16.7528C11.3312 16.7936 11.4071 16.817 11.4305 16.8228C11.5355 16.8579 11.6523 16.7995 11.6873 16.6944C11.7224 16.5893 11.664 16.4725 11.5589 16.4375C11.5297 16.4258 11.5005 16.42 11.4655 16.4083C11.518 16.3266 11.5764 16.239 11.629 16.1514C11.7107 16.1806 11.7808 16.2098 11.8333 16.2273C11.9384 16.2682 12.0552 16.2098 12.0902 16.1047C12.1311 15.9996 12.0727 15.8829 11.9676 15.8478C11.9209 15.8303 11.8742 15.8128 11.8275 15.7953C11.8742 15.7077 11.9267 15.6201 11.9734 15.5267C12.0493 15.5559 12.1019 15.5734 12.1194 15.5793C12.2245 15.6143 12.3412 15.5618 12.3763 15.4567C12.4113 15.3516 12.3587 15.2348 12.2537 15.1998C12.2245 15.1881 12.1894 15.1764 12.1544 15.1647C12.2128 15.0889 12.2478 15.0188 12.277 14.9487Z" fill="white"/>
</g>
</g>
<g id="Group_5">
<path id="Vector_18" d="M19.5399 11.942C13.1761 11.0721 6.7948 11.0721 0.43103 11.942C0.43103 9.96278 0.43103 7.98359 0.43103 6.00439C6.7948 6.8743 13.1761 6.8743 19.5399 6.00439C19.5399 7.98359 19.5399 9.96278 19.5399 11.942Z" fill="#242535"/>
</g>
<path id="Vector_19" d="M14.478 6.9561C11.4713 7.20131 8.50539 7.20131 5.49866 6.9561C5.58039 6.09787 5.62126 5.66583 5.703 4.80176C8.57545 5.03529 11.4012 5.03529 14.2737 4.80176C14.3554 5.66583 14.3963 6.09787 14.478 6.9561Z" fill="#242535"/>
</g>
</g>
<g id="TEXTS">
<g id="Group_6">
<g id="Group_7">
<g id="Group_8">
<g id="Group_9">
<path id="Vector_20" d="M1.3009 10.523C1.3009 10.2603 1.3009 10.1318 1.3009 9.86911C1.35929 9.86911 1.38848 9.86327 1.44686 9.86327C1.44686 9.26776 1.44686 8.67225 1.44686 8.08258C1.38848 8.08258 1.35929 8.07674 1.3009 8.07674C1.3009 7.81402 1.3009 7.68558 1.3009 7.42285C1.89057 7.46956 2.48608 7.51626 3.07575 7.55129C3.07575 7.93079 3.07575 8.11761 3.07575 8.4971C2.86557 8.49126 2.76048 8.49126 2.5503 8.48543C2.5503 8.34531 2.5503 8.26941 2.5503 8.12929C2.43938 8.12345 2.38683 8.12345 2.28174 8.11761C2.28174 8.36866 2.28174 8.4971 2.28174 8.74815C2.46273 8.74815 2.5503 8.75399 2.73129 8.75399C2.73129 8.9233 2.73129 9.01087 2.73129 9.18019C2.5503 9.18019 2.46273 9.18019 2.28174 9.18603C2.28174 9.44291 2.28174 9.57135 2.28174 9.83408C2.43938 9.82824 2.51527 9.8224 2.67291 9.81656C2.67291 10.0618 2.67291 10.1844 2.67291 10.4296C2.12411 10.4588 1.84971 10.4821 1.3009 10.523Z" fill="white"/>
<path id="Vector_21" d="M3.45523 10.079C3.25672 9.85712 3.15747 9.4893 3.15747 8.97553C3.15747 8.46176 3.25672 8.09394 3.45523 7.87209C3.65373 7.65023 3.93397 7.55682 4.29594 7.57433C4.65792 7.59185 4.93816 7.72029 5.13666 7.94215C5.33517 8.164 5.43442 8.50846 5.43442 8.97553C5.43442 9.44259 5.33517 9.78706 5.13666 10.0089C4.93816 10.2308 4.65792 10.3534 4.29594 10.3767C3.93397 10.3942 3.65373 10.295 3.45523 10.079ZM4.44774 9.68781C4.48277 9.64694 4.50029 9.58272 4.50029 9.49514C4.50029 9.08062 4.50029 8.87044 4.50029 8.45592C4.50029 8.36834 4.48277 8.30412 4.44774 8.26325C4.41271 8.22239 4.366 8.19903 4.29594 8.19903C4.22588 8.19903 4.17918 8.21655 4.14415 8.25742C4.10912 8.29828 4.0916 8.3625 4.0916 8.45008C4.0916 8.87044 4.0916 9.08646 4.0916 9.50682C4.0916 9.60023 4.10912 9.66445 4.14415 9.70532C4.17918 9.74619 4.22588 9.7637 4.29594 9.7637C4.36017 9.75203 4.41271 9.72867 4.44774 9.68781Z" fill="white"/>
<path id="Vector_22" d="M5.80813 9.98582C5.60963 9.78148 5.51038 9.44286 5.51038 8.97579C5.51038 8.50872 5.60963 8.1701 5.80813 7.96576C6.00663 7.76142 6.28687 7.66801 6.64885 7.67968C7.01083 7.69136 7.29106 7.80229 7.48957 8.00663C7.68807 8.21097 7.78732 8.53208 7.78732 8.97579C7.78732 9.4195 7.68807 9.74061 7.48957 9.94495C7.29106 10.1493 7.01083 10.2602 6.64885 10.2719C6.28687 10.2836 6.00663 10.1902 5.80813 9.98582ZM6.80064 9.63552C6.83567 9.59465 6.85319 9.53627 6.85319 9.45453C6.85319 9.0692 6.85319 8.87654 6.85319 8.48537C6.85319 8.40364 6.83567 8.34525 6.80064 8.30438C6.76561 8.26352 6.71891 8.246 6.64885 8.246C6.57879 8.246 6.53208 8.26352 6.49705 8.29855C6.46202 8.33941 6.44451 8.3978 6.44451 8.47953C6.44451 8.8707 6.44451 9.06337 6.44451 9.45453C6.44451 9.53627 6.46202 9.60049 6.49705 9.63552C6.53208 9.67055 6.57879 9.68807 6.64885 9.68807C6.71307 9.69391 6.76561 9.67639 6.80064 9.63552Z" fill="white"/>
<path id="Vector_23" d="M10.0993 8.52023C9.895 8.52023 9.78991 8.52023 9.58557 8.52023C9.58557 8.42682 9.58557 8.37428 9.58557 8.28086C9.50967 8.28086 9.4688 8.28086 9.3929 8.28086C9.3929 8.8355 9.3929 9.11574 9.3929 9.67038C9.47464 9.67038 9.51551 9.67038 9.60308 9.67038C9.60308 9.87472 9.60308 9.97398 9.60308 10.1783C9.10098 10.1783 8.85578 10.1842 8.35368 10.19C8.35368 9.98565 8.35368 9.8864 8.35368 9.68206C8.43542 9.68206 8.47628 9.68206 8.56386 9.68206C8.56386 9.12158 8.56386 8.84134 8.56386 8.2867C8.48796 8.2867 8.44709 8.2867 8.37119 8.2867C8.37119 8.38595 8.37119 8.43266 8.37119 8.53191C8.16685 8.53191 8.06176 8.53191 7.85742 8.52607C7.85742 8.22248 7.85742 8.07068 7.85742 7.76709C8.60473 7.7846 9.34619 7.79044 10.0935 7.79044C10.0993 8.07068 10.0993 8.22248 10.0993 8.52023Z" fill="white"/>
<path id="Vector_24" d="M10.1985 9.66445C10.2569 9.66445 10.2861 9.66445 10.3444 9.66445C10.3444 9.10981 10.3444 8.82957 10.3444 8.27493C10.2861 8.27493 10.2569 8.27493 10.1985 8.27493C10.1985 8.07059 10.1985 7.97134 10.1985 7.767C10.7415 7.767 11.0159 7.76116 11.5647 7.75532C11.8099 7.74948 12.0025 7.80203 12.1426 7.90712C12.2828 8.01221 12.3528 8.164 12.3528 8.36251C12.3528 8.48511 12.3236 8.5902 12.2711 8.67778C12.2185 8.76535 12.1485 8.82957 12.0784 8.87044C12.0025 8.91131 11.9325 8.9405 11.8624 8.95802C11.8624 8.96969 11.8624 8.97553 11.8624 8.98721C12.0025 9.00472 12.131 9.05143 12.2419 9.12733C12.3528 9.20906 12.4112 9.34918 12.4112 9.55936C12.4112 9.78122 12.3353 9.93885 12.1777 10.0381C12.02 10.1374 11.8157 10.1841 11.5705 10.1782C11.0275 10.1724 10.7531 10.1665 10.2043 10.1665C10.1985 9.96805 10.1985 9.86879 10.1985 9.66445ZM11.3428 8.78287C11.4012 8.78287 11.442 8.76535 11.4712 8.73616C11.5004 8.70113 11.5121 8.65442 11.5121 8.58436C11.5121 8.53766 11.5121 8.5143 11.5121 8.47344C11.5121 8.40338 11.5004 8.35667 11.4712 8.32164C11.442 8.29245 11.4012 8.27493 11.3428 8.27493C11.2786 8.27493 11.2494 8.27493 11.1852 8.27493C11.1852 8.47927 11.1852 8.57853 11.1852 8.78287C11.2435 8.78287 11.2786 8.78287 11.3428 8.78287ZM11.3603 9.67029C11.4187 9.67029 11.4596 9.65278 11.4888 9.62358C11.5179 9.59439 11.5296 9.54185 11.5296 9.47179C11.5296 9.41924 11.5296 9.39005 11.5296 9.33751C11.5296 9.26745 11.5179 9.22074 11.4888 9.18571C11.4596 9.15068 11.4187 9.139 11.3603 9.139C11.2903 9.139 11.2494 9.139 11.1793 9.139C11.1793 9.35502 11.1793 9.46011 11.1793 9.67029C11.2552 9.67029 11.2903 9.67029 11.3603 9.67029Z" fill="white"/>
<path id="Vector_25" d="M14.6824 9.72851C14.7291 9.72851 14.7525 9.72851 14.7992 9.73435C14.7992 9.95621 14.7992 10.0671 14.7992 10.2832C14.3321 10.2598 14.0986 10.254 13.6373 10.2364C13.6373 10.0263 13.6373 9.91534 13.6373 9.70516C13.7074 9.70516 13.7424 9.70516 13.8183 9.711C13.8008 9.60591 13.7891 9.55336 13.7716 9.44827C13.6081 9.44827 13.5264 9.44244 13.3688 9.44244C13.3513 9.54753 13.3396 9.59423 13.3221 9.69932C13.3921 9.69932 13.4272 9.69932 13.5031 9.70516C13.5031 9.91534 13.5031 10.0204 13.5031 10.2364C13.0944 10.2248 12.8959 10.2189 12.4872 10.2073C12.4872 10.0029 12.4872 9.89783 12.4872 9.68765C12.5339 9.68765 12.5572 9.68765 12.6039 9.68765C12.7733 9.03375 12.9426 8.3857 13.106 7.73181C13.5381 7.72013 13.7541 7.71429 14.1861 7.69678C14.3496 8.36818 14.5189 9.04543 14.6824 9.72851ZM13.433 9.09798C13.5439 9.09798 13.5965 9.09798 13.7074 9.09798C13.6607 8.84109 13.6315 8.71265 13.5848 8.45576C13.5731 8.45576 13.5673 8.45576 13.5556 8.45576C13.5031 8.71265 13.4797 8.84109 13.433 9.09798Z" fill="white"/>
<path id="Vector_26" d="M14.8984 10.2833C14.8984 10.0614 14.8984 9.9505 14.8984 9.72864C14.9568 9.72864 14.986 9.72864 15.0444 9.73448C15.0444 9.12146 15.0444 8.81787 15.0444 8.21068C14.986 8.21068 14.9568 8.21068 14.8984 8.21652C14.8984 7.99466 14.8984 7.88373 14.8984 7.66188C15.4005 7.63852 15.6516 7.62685 16.1537 7.59766C16.1537 7.83119 16.1537 7.94796 16.1537 8.17565C16.0427 8.18149 15.9902 8.18149 15.8793 8.18733C15.8793 8.81787 15.8793 9.13313 15.8793 9.76367C15.9844 9.76951 16.0369 9.76951 16.1478 9.76951C16.1478 9.64107 16.1478 9.57685 16.1478 9.44257C16.3814 9.4484 16.504 9.4484 16.7375 9.45424C16.7375 9.8279 16.7375 10.0147 16.7375 10.3825C16.1245 10.3475 15.5115 10.3125 14.8984 10.2833Z" fill="white"/>
<path id="Vector_27" d="M16.8367 10.3943C16.8367 10.1549 16.8367 10.0381 16.8367 9.79875C16.8951 9.79875 16.9242 9.80459 16.9826 9.80459C16.9826 9.25579 16.9826 8.70115 16.9826 8.15234C16.9242 8.15234 16.8951 8.15818 16.8367 8.15818C16.8367 7.91881 16.8367 7.80204 16.8367 7.56267C17.3388 7.52764 17.5898 7.51013 18.0919 7.4751C18.0919 7.73198 18.0919 7.85459 18.0919 8.11148C17.981 8.11731 17.9284 8.11731 17.8175 8.12315C17.8175 8.69531 17.8175 9.26746 17.8175 9.84546C17.9226 9.8513 17.9751 9.8513 18.0861 9.85713C18.0861 9.71701 18.0861 9.64112 18.0861 9.501C18.3196 9.50683 18.4422 9.51267 18.6757 9.51851C18.6757 9.92719 18.6757 10.1315 18.6757 10.5402C18.0627 10.476 17.4497 10.4293 16.8367 10.3943Z" fill="white"/>
</g>
<g id="Group_10">
<path id="Vector_28" d="M1.35352 10.4527C1.35352 10.2484 1.35352 10.1433 1.35352 9.93309C1.4119 9.92726 1.44109 9.92726 1.49947 9.92726C1.49947 9.29088 1.49947 8.6545 1.49947 8.01812C1.44109 8.01229 1.4119 8.01229 1.35352 8.01229C1.35352 7.80794 1.35352 7.70286 1.35352 7.49268C1.91399 7.53354 2.46864 7.57441 3.02911 7.60944C3.02911 7.94223 3.02911 8.1057 3.02911 8.43265C2.8598 8.42681 2.77223 8.42681 2.60292 8.42097C2.60292 8.28085 2.60292 8.20495 2.60292 8.06483C2.45696 8.05899 2.38106 8.05315 2.22926 8.04732C2.22926 8.35091 2.22926 8.50271 2.22926 8.8063C2.41025 8.8063 2.49783 8.8063 2.67882 8.81214C2.67882 8.9289 2.67882 8.99312 2.67882 9.10989C2.49783 9.10989 2.41025 9.10989 2.22926 9.11573C2.22926 9.42516 2.22926 9.5828 2.22926 9.89223C2.3869 9.88639 2.4628 9.88055 2.62043 9.87471C2.62043 10.0674 2.62043 10.1666 2.62043 10.3593C2.1125 10.3943 1.86145 10.4118 1.35352 10.4527Z" fill="url(#paint0_linear_203_71008)"/>
<path id="Vector_29" d="M4.29601 10.3124C3.95155 10.3299 3.67715 10.2365 3.49032 10.0321C3.3035 9.82194 3.21008 9.4658 3.21008 8.97539C3.21008 8.48497 3.3035 8.12299 3.49032 7.91865C3.67715 7.70847 3.94571 7.62089 4.29601 7.63841C4.64047 7.65592 4.91487 7.77269 5.1017 7.98287C5.28853 8.19305 5.38194 8.52583 5.38194 8.97539C5.38194 9.42494 5.28853 9.75772 5.1017 9.9679C4.90904 10.1781 4.64047 10.2948 4.29601 10.3124ZM4.29601 8.13467C4.21427 8.13467 4.15005 8.15802 4.10919 8.21057C4.06832 8.26311 4.04496 8.33901 4.04496 8.4441C4.04496 8.8703 4.04496 9.08048 4.04496 9.50083C4.04496 9.60592 4.06832 9.68766 4.10919 9.74021C4.15005 9.79275 4.21427 9.8161 4.29601 9.81027C4.37775 9.81027 4.44197 9.78107 4.48284 9.72269C4.52371 9.67015 4.54706 9.58841 4.54706 9.48916C4.54706 9.07464 4.54706 8.86446 4.54706 8.44994C4.54706 8.35068 4.52371 8.26895 4.48284 8.2164C4.43613 8.16386 4.37775 8.13467 4.29601 8.13467Z" fill="url(#paint1_linear_203_71008)"/>
<path id="Vector_30" d="M6.64879 10.2135C6.30433 10.2252 6.02993 10.1376 5.84311 9.93907C5.65628 9.74641 5.56287 9.41946 5.56287 8.96991C5.56287 8.52036 5.65628 8.19341 5.84311 8.00075C6.02993 7.80808 6.2985 7.72051 6.64879 7.72635C6.99909 7.73219 7.26766 7.84311 7.45448 8.03578C7.64131 8.22844 7.73472 8.54371 7.73472 8.96991C7.73472 9.39611 7.64131 9.70554 7.45448 9.90404C7.26182 10.0967 6.99326 10.2018 6.64879 10.2135ZM6.64879 8.19341C6.56706 8.19341 6.50284 8.21677 6.46197 8.26347C6.4211 8.31018 6.39775 8.38608 6.39775 8.47949C6.39775 8.87066 6.39775 9.06332 6.39775 9.45449C6.39775 9.55374 6.4211 9.62964 6.46197 9.67635C6.50284 9.72305 6.56706 9.74641 6.64879 9.74641C6.73053 9.74641 6.79475 9.71722 6.83562 9.67051C6.87649 9.6238 6.89984 9.5479 6.89984 9.45449C6.89984 9.06916 6.89984 8.8765 6.89984 8.49117C6.89984 8.39776 6.87649 8.32186 6.83562 8.27515C6.78891 8.2226 6.73053 8.19341 6.64879 8.19341Z" fill="url(#paint2_linear_203_71008)"/>
<path id="Vector_31" d="M8.40619 10.1313C8.40619 9.96782 8.40619 9.88608 8.40619 9.72845C8.48793 9.72845 8.5288 9.72845 8.61637 9.72845C8.61637 9.1271 8.61637 8.82935 8.61637 8.228C8.4996 8.228 8.44122 8.228 8.32445 8.228C8.32445 8.32725 8.32445 8.37396 8.32445 8.47321C8.16098 8.47321 8.07924 8.47321 7.91577 8.46737C7.91577 8.20464 7.91577 8.0762 7.91577 7.81348C8.62805 7.82515 9.34032 7.83099 10.0526 7.83099C10.0526 8.08788 10.0526 8.21632 10.0526 8.47321C9.88912 8.47321 9.80739 8.47321 9.64392 8.47321C9.64392 8.37979 9.64392 8.32725 9.64392 8.23384C9.52715 8.23384 9.46877 8.23384 9.352 8.23384C9.352 8.82934 9.352 9.13294 9.352 9.72845C9.43374 9.72845 9.4746 9.72845 9.56218 9.72845C9.56218 9.88608 9.56218 9.96782 9.56218 10.1313C9.09511 10.1196 8.86742 10.1255 8.40619 10.1313Z" fill="url(#paint3_linear_203_71008)"/>
<path id="Vector_32" d="M10.251 10.1196C10.251 9.96196 10.251 9.88022 10.251 9.71675C10.3094 9.71675 10.3386 9.71675 10.3969 9.71675C10.3969 9.12124 10.3969 8.82348 10.3969 8.22214C10.3386 8.22214 10.3094 8.22214 10.251 8.22214C10.251 8.0645 10.251 7.98277 10.251 7.81929C10.7764 7.81929 11.0392 7.81345 11.5646 7.80762C11.7981 7.80178 11.985 7.84848 12.1134 7.94774C12.2418 8.04115 12.3002 8.17543 12.3002 8.36226C12.3002 8.47318 12.2769 8.57244 12.2243 8.64833C12.1718 8.72423 12.1134 8.78262 12.0492 8.82348C11.9791 8.86435 11.9149 8.89354 11.8507 8.90522C11.8332 8.91106 11.8273 8.91106 11.8098 8.91106C11.8098 8.95777 11.8098 8.98696 11.8098 9.03366C11.8273 9.03366 11.839 9.03366 11.8565 9.0395C11.9908 9.05118 12.1076 9.09789 12.2127 9.17378C12.3119 9.24384 12.3586 9.37229 12.3586 9.55911C12.3586 9.76345 12.2886 9.90357 12.1484 9.99115C12.0025 10.0846 11.804 10.1313 11.5646 10.1254C11.0392 10.1254 10.7764 10.1196 10.251 10.1196ZM11.1326 9.72259C11.226 9.72259 11.2727 9.72259 11.3661 9.72259C11.4362 9.72259 11.4945 9.69923 11.5296 9.65836C11.5646 9.6175 11.588 9.55327 11.588 9.47154C11.588 9.41899 11.588 9.3898 11.588 9.33726C11.588 9.25552 11.5704 9.1913 11.5296 9.15043C11.4887 9.10956 11.4362 9.08621 11.3661 9.08621C11.2727 9.08621 11.226 9.08621 11.1326 9.08621C11.1326 9.33726 11.1326 9.4657 11.1326 9.72259ZM11.1326 8.83516C11.2143 8.83516 11.261 8.83516 11.3427 8.83516C11.4128 8.83516 11.4712 8.81181 11.5062 8.77094C11.5412 8.73007 11.5646 8.66585 11.5646 8.58411C11.5646 8.53741 11.5646 8.51405 11.5646 8.47318C11.5646 8.39145 11.5471 8.32723 11.5062 8.28636C11.4653 8.24549 11.4128 8.22214 11.3427 8.22214C11.261 8.22214 11.2143 8.22214 11.1326 8.22214C11.1326 8.46735 11.1326 8.58995 11.1326 8.83516Z" fill="url(#paint4_linear_203_71008)"/>
<path id="Vector_33" d="M13.6899 10.1783C13.6899 10.009 13.6899 9.92723 13.6899 9.75792C13.7658 9.75792 13.8008 9.75792 13.8767 9.76375C13.8475 9.61196 13.8358 9.5419 13.8066 9.3901C13.614 9.3901 13.5147 9.38426 13.3221 9.38426C13.2929 9.53022 13.2812 9.60612 13.252 9.75208C13.3279 9.75208 13.3629 9.75208 13.4388 9.75792C13.4388 9.92723 13.4388 10.009 13.4388 10.1783C13.071 10.1666 12.89 10.1608 12.5222 10.1549C12.5222 9.99145 12.5222 9.90971 12.5222 9.74624C12.5631 9.74624 12.5864 9.74624 12.6273 9.74624C12.7966 9.09235 12.9659 8.44429 13.1294 7.7904C13.5322 7.77872 13.7308 7.77289 14.1336 7.75537C14.3029 8.43262 14.4722 9.10986 14.6357 9.78711C14.6766 9.78711 14.6999 9.78711 14.7408 9.79295C14.7408 9.9681 14.7408 10.0557 14.7408 10.2308C14.3263 10.2016 14.1161 10.1958 13.6899 10.1783ZM13.3688 9.15073C13.5264 9.15073 13.6081 9.15073 13.7658 9.15073C13.7074 8.84714 13.6782 8.69534 13.6257 8.39759C13.579 8.39759 13.5614 8.39759 13.5147 8.39759C13.4563 8.70118 13.4272 8.85298 13.3688 9.15073Z" fill="url(#paint5_linear_203_71008)"/>
<path id="Vector_34" d="M14.9509 10.231C14.9509 10.0558 14.9509 9.96825 14.9509 9.7931C15.0093 9.7931 15.0385 9.7931 15.0969 9.79894C15.0969 9.25013 15.0969 8.70133 15.0969 8.15253C15.0385 8.15253 15.0093 8.15253 14.9509 8.15837C14.9509 7.98322 14.9509 7.89564 14.9509 7.72049C15.4122 7.69714 15.6399 7.6913 16.1011 7.66211C16.1011 7.8431 16.1011 7.93651 16.1011 8.12334C15.9901 8.12918 15.9376 8.12918 15.8267 8.13501C15.8267 8.70133 15.8267 9.26181 15.8267 9.82813C15.9726 9.83397 16.0485 9.83397 16.1945 9.8398C16.1945 9.71136 16.1945 9.6413 16.1945 9.51286C16.393 9.5187 16.4864 9.5187 16.6849 9.52454C16.6849 9.84564 16.6849 10.0091 16.6849 10.3302C16.1069 10.2835 15.5289 10.2543 14.9509 10.231Z" fill="url(#paint6_linear_203_71008)"/>
<path id="Vector_35" d="M16.8892 10.3303C16.8892 10.1376 16.8892 10.0442 16.8892 9.85737C16.9475 9.85737 16.9767 9.8632 17.0351 9.8632C17.0351 9.26769 17.0351 8.67802 17.0351 8.08252C16.9767 8.08252 16.9475 8.08835 16.8892 8.08835C16.8892 7.89569 16.8892 7.80228 16.8892 7.61545C17.3504 7.58626 17.5781 7.56874 18.0393 7.53955C18.0393 7.73805 18.0393 7.84314 18.0393 8.04165C17.9284 8.04748 17.8758 8.04749 17.7649 8.05332C17.7649 8.66635 17.7649 9.28521 17.7649 9.89823C17.9109 9.90407 17.9868 9.90991 18.1327 9.91575C18.1327 9.77563 18.1327 9.69973 18.1327 9.55961C18.3312 9.56545 18.4246 9.57129 18.6231 9.57713C18.6231 9.93326 18.6231 10.1084 18.6231 10.4587C18.0451 10.4062 17.4672 10.3711 16.8892 10.3303Z" fill="url(#paint7_linear_203_71008)"/>
</g>
</g>
</g>
<g id="Group_11">
<g id="Group_12">
<path id="Vector_36" d="M6.55539 6.14379C6.61378 6.17882 6.69551 6.21385 6.78893 6.21968C6.92321 6.23136 7.01078 6.17882 7.01662 6.09708C7.02246 6.02118 6.96992 5.96864 6.83563 5.91609C6.678 5.85187 6.57875 5.77013 6.59042 5.65337C6.6021 5.52492 6.74222 5.43735 6.93489 5.45486C7.03998 5.4607 7.11004 5.48989 7.15674 5.51325C7.13923 5.54828 7.13339 5.56579 7.11587 5.60082C7.08668 5.58331 7.01662 5.55412 6.92905 5.54244C6.78893 5.53076 6.73054 5.59498 6.72471 5.65337C6.71887 5.72927 6.77725 5.77597 6.91153 5.83436C7.08084 5.90442 7.16258 5.98031 7.1509 6.10292C7.13923 6.23136 7.01662 6.33645 6.77141 6.3131C6.67216 6.30726 6.56707 6.27223 6.51453 6.2372C6.53204 6.19633 6.53788 6.17882 6.55539 6.14379Z" fill="#F41E47"/>
<path id="Vector_37" d="M7.55967 5.61237C7.43707 5.60653 7.37285 5.60069 7.25024 5.58902C7.25024 5.55399 7.25608 5.53647 7.25608 5.49561C7.55384 5.51896 7.70563 5.53064 8.00339 5.54231C8.00339 5.57734 7.99755 5.59486 7.99755 5.63572C7.87494 5.62989 7.81072 5.62405 7.68812 5.61821C7.6706 5.91596 7.65893 6.06776 7.64141 6.36552C7.58887 6.35968 7.55967 6.35968 7.50713 6.35384C7.53048 6.05608 7.54216 5.91013 7.55967 5.61237Z" fill="#F41E47"/>
<path id="Vector_38" d="M8.14346 6.12638C8.09676 6.23147 8.0734 6.28401 8.02086 6.38326C7.96831 6.37742 7.93912 6.37742 7.88074 6.37742C8.03837 6.05048 8.12011 5.887 8.27191 5.56006C8.33613 5.5659 8.36532 5.5659 8.42954 5.5659C8.55215 5.90452 8.61637 6.07967 8.74481 6.41829C8.68643 6.41829 8.65723 6.41245 8.60469 6.41245C8.56382 6.30736 8.54631 6.24898 8.50544 6.14389C8.35948 6.13805 8.28942 6.13222 8.14346 6.12638ZM8.48208 6.05632C8.44705 5.95706 8.42954 5.91036 8.39451 5.81111C8.37699 5.75272 8.35948 5.70602 8.3478 5.65347C8.3478 5.65347 8.3478 5.65347 8.34197 5.65347C8.32445 5.70018 8.30694 5.75272 8.28358 5.80527C8.23688 5.89868 8.21936 5.94539 8.17265 6.04464C8.29526 6.05048 8.35948 6.05632 8.48208 6.05632Z" fill="#F41E47"/>
<path id="Vector_39" d="M8.9258 5.59517C8.99002 5.5835 9.08927 5.5835 9.17685 5.5835C9.31697 5.58933 9.40454 5.60685 9.46876 5.65939C9.52131 5.70026 9.54466 5.75281 9.54466 5.81703C9.54466 5.92796 9.45709 5.99802 9.352 6.02721C9.352 6.02721 9.352 6.02721 9.352 6.03305C9.42789 6.0564 9.4746 6.11478 9.49795 6.20236C9.52715 6.31912 9.55634 6.40086 9.57385 6.43589C9.52131 6.43589 9.49212 6.43589 9.43373 6.43589C9.41622 6.41254 9.39286 6.33664 9.36951 6.23155C9.34032 6.11478 9.28777 6.06808 9.16517 6.06224C9.11262 6.06224 9.08927 6.06224 9.04256 6.0564C9.03673 6.20236 9.03673 6.27242 9.03089 6.41838C8.97834 6.41838 8.94915 6.41838 8.89661 6.41254C8.90828 6.09143 8.91412 5.92796 8.9258 5.59517ZM9.04256 5.9805C9.09511 5.9805 9.1243 5.9805 9.17685 5.98634C9.31697 5.99218 9.41038 5.92796 9.41038 5.82871C9.41038 5.71778 9.31697 5.67107 9.18268 5.66523C9.11846 5.66523 9.07176 5.66523 9.05424 5.67107C9.0484 5.79368 9.0484 5.8579 9.04256 5.9805Z" fill="#F41E47"/>
<path id="Vector_40" d="M10.181 5.68812C10.0584 5.68812 9.99419 5.68812 9.87158 5.68812C9.87158 5.65309 9.87158 5.63557 9.87158 5.59471C10.1693 5.59471 10.3211 5.59471 10.6189 5.58887C10.6189 5.6239 10.6189 5.64141 10.6189 5.68228C10.4963 5.68228 10.4321 5.68812 10.3095 5.68812C10.3095 5.98587 10.3153 6.13767 10.3153 6.43542C10.2628 6.43542 10.2336 6.43542 10.181 6.43542C10.181 6.13767 10.181 5.99171 10.181 5.68812Z" fill="#F41E47"/>
<path id="Vector_41" d="M11.2727 6.02086C11.1151 6.0267 11.0334 6.0267 10.8757 6.03254C10.8816 6.15514 10.8816 6.21353 10.8816 6.33613C11.0625 6.33029 11.1501 6.33029 11.3253 6.32445C11.3253 6.35948 11.3253 6.377 11.3311 6.41787C11.0976 6.42371 10.9808 6.42954 10.7531 6.43538C10.7473 6.1026 10.7414 5.93329 10.7356 5.59466C10.9516 5.58883 11.0625 5.58883 11.2786 5.57715C11.2786 5.61218 11.2786 5.62969 11.2844 5.67056C11.1209 5.6764 11.0334 5.6764 10.8699 5.68224C10.8699 5.78733 10.8757 5.83987 10.8757 5.94496C11.0334 5.93912 11.1151 5.93912 11.2727 5.93329C11.2669 5.96832 11.2669 5.98583 11.2727 6.02086Z" fill="#F41E47"/>
<path id="Vector_42" d="M11.6581 6.13803C11.6231 6.24312 11.5997 6.3015 11.5647 6.40659C11.5121 6.40659 11.4829 6.41243 11.4246 6.41243C11.553 6.07381 11.6114 5.89866 11.734 5.56004C11.7982 5.5542 11.8274 5.5542 11.8916 5.5542C12.0493 5.88115 12.1252 6.04462 12.2886 6.37156C12.2302 6.3774 12.2011 6.3774 12.1485 6.3774C12.096 6.27231 12.0726 6.22561 12.0259 6.12052C11.8741 6.12635 11.8041 6.12635 11.6581 6.13803ZM11.9909 6.03294C11.9442 5.93953 11.9208 5.89282 11.8799 5.79941C11.8566 5.74686 11.8391 5.69432 11.8216 5.64761C11.8216 5.64761 11.8216 5.64761 11.8157 5.64761C11.8041 5.70016 11.7865 5.7527 11.7749 5.79941C11.7398 5.89866 11.7223 5.94537 11.6873 6.04462C11.8041 6.04462 11.8683 6.03878 11.9909 6.03294Z" fill="#F41E47"/>
<path id="Vector_43" d="M13.2695 5.92208C13.252 5.80531 13.2286 5.66519 13.2228 5.5601C13.2228 5.5601 13.2228 5.5601 13.2169 5.5601C13.1936 5.65936 13.1585 5.77028 13.1177 5.88705C13.0593 6.05636 13.0301 6.1381 12.9717 6.30741C12.9308 6.31325 12.9133 6.31325 12.8725 6.31325C12.7907 6.16145 12.7557 6.07972 12.674 5.92792C12.6156 5.81115 12.5689 5.70606 12.5338 5.61265C12.5338 5.61265 12.5338 5.61265 12.528 5.61265C12.5338 5.71774 12.5338 5.85786 12.5338 5.9863C12.5338 6.13226 12.5338 6.20232 12.5338 6.34828C12.4813 6.35412 12.4579 6.35412 12.4054 6.35412C12.4112 6.01549 12.4171 5.84618 12.4229 5.5134C12.4871 5.50756 12.5222 5.50756 12.5864 5.50172C12.6681 5.65936 12.709 5.73525 12.7907 5.89289C12.8433 5.99214 12.8841 6.07972 12.9133 6.16729C12.9133 6.16729 12.9133 6.16729 12.9192 6.16729C12.9367 6.07972 12.9659 5.9863 13.0067 5.87537C13.0651 5.70606 13.0943 5.62433 13.1527 5.45502C13.2169 5.44918 13.252 5.44334 13.3162 5.4375C13.3746 5.77028 13.3979 5.93376 13.4563 6.26654C13.4037 6.27238 13.3804 6.27238 13.3279 6.27822C13.3045 6.1381 13.2928 6.06804 13.2695 5.92208Z" fill="#F41E47"/>
</g>
</g>
</g>
</g>
</g>
<defs>
<linearGradient id="paint0_linear_203_71008" x1="2.18918" y1="7.71367" x2="2.18918" y2="10.0535" gradientUnits="userSpaceOnUse">
<stop stop-color="#B7B7B7"/>
<stop offset="0.5025" stop-color="#B7B7B7"/>
<stop offset="0.5175" stop-color="white"/>
<stop offset="1" stop-color="white"/>
</linearGradient>
<linearGradient id="paint1_linear_203_71008" x1="4.29424" y1="7.87247" x2="4.29424" y2="9.91672" gradientUnits="userSpaceOnUse">
<stop stop-color="#B7B7B7"/>
<stop offset="0.5025" stop-color="#B7B7B7"/>
<stop offset="0.5175" stop-color="white"/>
<stop offset="1" stop-color="white"/>
</linearGradient>
<linearGradient id="paint2_linear_203_71008" x1="6.64687" y1="7.95509" x2="6.64687" y2="9.84648" gradientUnits="userSpaceOnUse">
<stop stop-color="#B7B7B7"/>
<stop offset="0.5025" stop-color="#B7B7B7"/>
<stop offset="0.5175" stop-color="white"/>
<stop offset="1" stop-color="white"/>
</linearGradient>
<linearGradient id="paint3_linear_203_71008" x1="8.98244" y1="7.98094" x2="8.98244" y2="9.81596" gradientUnits="userSpaceOnUse">
<stop stop-color="#B7B7B7"/>
<stop offset="0.5025" stop-color="#B7B7B7"/>
<stop offset="0.5175" stop-color="white"/>
<stop offset="1" stop-color="white"/>
</linearGradient>
<linearGradient id="paint4_linear_203_71008" x1="11.3047" y1="7.98829" x2="11.3047" y2="9.81713" gradientUnits="userSpaceOnUse">
<stop stop-color="#B7B7B7"/>
<stop offset="0.5025" stop-color="#B7B7B7"/>
<stop offset="0.5175" stop-color="white"/>
<stop offset="1" stop-color="white"/>
</linearGradient>
<linearGradient id="paint5_linear_203_71008" x1="13.6418" y1="7.93419" x2="13.6418" y2="9.88674" gradientUnits="userSpaceOnUse">
<stop stop-color="#B7B7B7"/>
<stop offset="0.5025" stop-color="#B7B7B7"/>
<stop offset="0.5175" stop-color="white"/>
<stop offset="1" stop-color="white"/>
</linearGradient>
<linearGradient id="paint6_linear_203_71008" x1="15.8176" y1="7.85838" x2="15.8176" y2="9.96072" gradientUnits="userSpaceOnUse">
<stop stop-color="#B7B7B7"/>
<stop offset="0.5025" stop-color="#B7B7B7"/>
<stop offset="0.5175" stop-color="white"/>
<stop offset="1" stop-color="white"/>
</linearGradient>
<linearGradient id="paint7_linear_203_71008" x1="17.7563" y1="7.75438" x2="17.7563" y2="10.0596" gradientUnits="userSpaceOnUse">
<stop stop-color="#B7B7B7"/>
<stop offset="0.5025" stop-color="#B7B7B7"/>
<stop offset="0.5175" stop-color="white"/>
<stop offset="1" stop-color="white"/>
</linearGradient>
</defs>
</svg>
