<svg width="102" height="32" viewBox="0 0 102 32" fill="none" xmlns="http://www.w3.org/2000/svg">
<path d="M62.4993 24.9788V4.08838H66.2452V11.6515C67.5142 10.4352 69.1486 9.76069 70.8743 9.76069C74.9248 9.76069 78.5185 12.8677 78.5185 17.5486C78.5185 22.2295 74.9248 25.3468 70.8743 25.3468C69.0572 25.3468 67.3416 24.6211 66.0625 23.3027V24.9788H62.4993ZM74.7725 17.5486C74.7725 14.9322 72.925 13.1028 70.5089 13.1028C68.1537 13.1028 66.3366 14.8402 66.2452 17.3646V17.5486C66.2452 20.165 68.0928 21.9945 70.5089 21.9945C72.925 21.9945 74.7725 20.165 74.7725 17.5486ZM80.2544 24.9788V4.08838H84.0003V24.9788H80.2544ZM89.2386 30.3956L91.4211 25.1526L85.4926 10.1286H89.5431L93.3195 20.6249L97.1568 10.1286H101.268L93.2281 30.4059H89.2386V30.3956ZM56.5504 10.1286V12.0194C55.251 10.5885 53.4339 9.77091 51.566 9.77091C47.5155 9.77091 43.9219 12.8779 43.9219 17.5588C43.9219 22.25 47.5155 25.3468 51.566 25.3468C53.505 25.3468 55.3424 24.4985 56.6723 22.9756V24.9891H59.9411V10.1286H56.5504ZM56.185 17.5486C56.185 20.1344 54.3374 21.9945 51.9213 21.9945C49.5052 21.9945 47.6577 20.1344 47.6577 17.5486C47.6577 14.9629 49.5052 13.1028 51.9213 13.1028C54.2765 13.1028 56.0936 14.8709 56.185 17.3646V17.5486Z" fill="#03020D"/>
<path d="M19.156 0L3.12669 29.5369L0 27.3293L14.8315 0H19.156ZM19.3794 0L35.4087 29.5369L38.5354 27.3293L23.7039 0H19.3794Z" fill="url(#paint0_linear_771_9572)"/>
<path d="M35.1869 29.7108L19.2692 17.1602L3.35156 29.7108L6.60007 32.0001L19.2692 22.0148L31.9384 32.0001L35.1869 29.7108Z" fill="url(#paint1_linear_771_9572)"/>
<defs>
<linearGradient id="paint0_linear_771_9572" x1="5.43677" y1="37.4219" x2="32.4419" y2="7.63162" gradientUnits="userSpaceOnUse">
<stop stop-color="#FF5416"/>
<stop offset="0.2535" stop-color="#FF5115"/>
<stop offset="0.461" stop-color="#FF4712"/>
<stop offset="0.6523" stop-color="#FF350E"/>
<stop offset="0.8327" stop-color="#FF1E08"/>
<stop offset="1" stop-color="#FF0000"/>
</linearGradient>
<linearGradient id="paint1_linear_771_9572" x1="10.6379" y1="39.3595" x2="26.5987" y2="21.7525" gradientUnits="userSpaceOnUse">
<stop stop-color="#FF5416"/>
<stop offset="0.2535" stop-color="#FF5115"/>
<stop offset="0.461" stop-color="#FF4712"/>
<stop offset="0.6523" stop-color="#FF350E"/>
<stop offset="0.8327" stop-color="#FF1E08"/>
<stop offset="1" stop-color="#FF0000"/>
</linearGradient>
</defs>
</svg>
