<svg width="174" height="32" viewBox="0 0 174 32" fill="none" xmlns="http://www.w3.org/2000/svg">
  <path d="M116.141 25.05C122.376 25.05 126.987 20.874 126.987 14.755C126.987 8.63596 122.376 4.45996 116.141 4.45996H109.5V25.05H116.141ZM116.141 6.69296C120.984 6.69296 124.522 9.94096 124.522 14.755C124.522 19.569 120.984 22.817 116.141 22.817H111.907V6.69296H116.141Z" fill="#FF5416"/>
  <path d="M136.823 25.398C140.767 25.398 144.305 22.44 144.305 17.974C144.305 13.508 140.767 10.55 136.823 10.55C132.879 10.55 129.341 13.508 129.341 17.974C129.341 22.44 132.879 25.398 136.823 25.398ZM136.823 23.31C133.923 23.31 131.719 21.077 131.719 17.974C131.719 14.871 133.923 12.638 136.823 12.638C139.723 12.638 141.927 14.9 141.927 17.974C141.927 21.077 139.723 23.31 136.823 23.31Z" fill="#FF5416"/>
  <path d="M153.925 25.398C155.723 25.398 157.144 24.934 158.478 24.122L157.637 22.092C156.738 22.817 155.607 23.281 154.128 23.281C151.083 23.281 148.85 21.048 148.85 17.974C148.85 14.871 151.083 12.638 154.128 12.638L157.927 13.914V11.536C156.825 10.985 155.375 10.55 153.925 10.55C150.01 10.55 146.472 13.508 146.472 17.974C146.472 22.44 150.01 25.398 153.925 25.398Z" fill="#FF5416"/>
  <path d="M164.641 25.398C167.57 25.398 169.368 23.861 169.368 21.28C169.368 16.321 162.669 17.307 162.669 14.291C162.669 13.305 163.423 12.551 164.844 12.551L168.585 13.972V11.565C167.715 11.101 166.381 10.55 164.815 10.55C162.292 10.55 160.436 12.029 160.436 14.291C160.436 19.279 167.135 18.119 167.135 21.425C167.135 22.759 166.091 23.368 164.67 23.368L160.407 21.889V24.267C161.625 24.934 163.133 25.398 164.641 25.398Z" fill="#FF5416"/>
  <path d="M62.922 24.9783V4.08789H66.6934V11.651C67.9709 10.4347 69.6164 9.7602 71.3539 9.7602C75.4318 9.7602 79.0498 12.8672 79.0498 17.5481C79.0498 22.2291 75.4318 25.3463 71.3539 25.3463C69.5244 25.3463 67.7972 24.6206 66.5094 23.3022V24.9783H62.922ZM75.2785 17.5481C75.2785 14.9317 73.4184 13.1023 70.9859 13.1023C68.6148 13.1023 66.7853 14.8397 66.6934 17.3642V17.5481C66.6934 20.1645 68.5535 21.994 70.9859 21.994C73.4184 21.994 75.2785 20.1645 75.2785 17.5481ZM80.7975 24.9783V4.08789H84.5688V24.9783H80.7975ZM89.8425 30.3951L92.0399 25.1521L86.0712 10.1281H90.1491L93.9511 20.6245L97.8144 10.1281H101.954L93.8591 30.4054H89.8425V30.3951ZM56.9329 10.1281V12.0189C55.6247 10.5881 53.7952 9.77042 51.9147 9.77042C47.8368 9.77042 44.2188 12.8774 44.2188 17.5583C44.2188 22.2495 47.8368 25.3463 51.9147 25.3463C53.8668 25.3463 55.7167 24.498 57.0555 22.9751V24.9886H60.3465V10.1281H56.9329ZM56.565 17.5481C56.565 20.1339 54.7049 21.994 52.2724 21.994C49.84 21.994 47.9798 20.1339 47.9798 17.5481C47.9798 14.9624 49.84 13.1023 52.2724 13.1023C54.6435 13.1023 56.473 14.8704 56.565 17.3642V17.5481Z" fill="#03020D"/>
  <path d="M19.2858 0L3.14788 29.5369L0 27.3293L14.932 0H19.2858ZM19.5107 0L35.6487 29.5369L38.7965 27.3293L23.8646 0H19.5107Z" fill="url(#paint0_linear_754_12401)"/>
  <path d="M35.4261 29.7108L19.4005 17.1602L3.375 29.7108L6.64552 32.0001L19.4005 22.0148L32.1556 32.0001L35.4261 29.7108Z" fill="url(#paint1_linear_754_12401)"/>
  <defs>
    <linearGradient id="paint0_linear_754_12401" x1="5.47361" y1="37.4219" x2="32.4603" y2="7.45023" gradientUnits="userSpaceOnUse">
      <stop stop-color="#FF5416"/>
      <stop offset="0.2535" stop-color="#FF5115"/>
      <stop offset="0.461" stop-color="#FF4712"/>
      <stop offset="0.6523" stop-color="#FF350E"/>
      <stop offset="0.8327" stop-color="#FF1E08"/>
      <stop offset="1" stop-color="#FF0000"/>
    </linearGradient>
    <linearGradient id="paint1_linear_754_12401" x1="10.7107" y1="39.3595" x2="26.6606" y2="21.6453" gradientUnits="userSpaceOnUse">
      <stop stop-color="#FF5416"/>
      <stop offset="0.2535" stop-color="#FF5115"/>
      <stop offset="0.461" stop-color="#FF4712"/>
      <stop offset="0.6523" stop-color="#FF350E"/>
      <stop offset="0.8327" stop-color="#FF1E08"/>
      <stop offset="1" stop-color="#FF0000"/>
    </linearGradient>
  </defs>
</svg>
