<svg width="16" height="16" viewBox="0 0 16 16" fill="none" xmlns="http://www.w3.org/2000/svg">
<path fill-rule="evenodd" clip-rule="evenodd" d="M15.0117 0.970997C15.1155 1.06959 15.1676 1.20211 15.1673 1.33478V6.00016C15.1673 6.27631 14.9435 6.50016 14.6673 6.50016C14.3912 6.50016 14.1673 6.27631 14.1673 6.00016V2.58577L8.69648 8.34454C8.50629 8.54474 8.18981 8.55286 7.98961 8.36266C7.78941 8.17247 7.78129 7.85599 7.97148 7.65579L13.5027 1.8335H10.6673C10.3912 1.8335 10.1673 1.60964 10.1673 1.3335C10.1673 1.05735 10.3912 0.833496 10.6673 0.833496H14.6672H14.6673C14.791 0.833476 14.9149 0.879076 15.0117 0.970997ZM1.83398 2.66683C1.83398 2.20659 2.20708 1.8335 2.66732 1.8335H8.00065C8.27679 1.8335 8.50065 1.60964 8.50065 1.3335C8.50065 1.05735 8.27679 0.833496 8.00065 0.833496H2.66732C1.6548 0.833496 0.833984 1.65431 0.833984 2.66683V13.3335C0.833984 14.346 1.6548 15.1668 2.66732 15.1668H13.334C14.3465 15.1668 15.1673 14.346 15.1673 13.3335V8.31762C15.1673 8.04148 14.9435 7.81762 14.6673 7.81762C14.3912 7.81762 14.1673 8.04148 14.1673 8.31762V13.3335C14.1673 13.7937 13.7942 14.1668 13.334 14.1668H2.66732C2.20708 14.1668 1.83398 13.7937 1.83398 13.3335V2.66683Z" fill="#76767C"/>
</svg>
