<svg width="40" height="40" viewBox="0 0 40 40" fill="none" xmlns="http://www.w3.org/2000/svg">
<path d="M0.25 8.86056C0.25 4.10508 4.10508 0.25 8.86056 0.25H31.1394C35.8949 0.25 39.75 4.10508 39.75 8.86056V31.1394C39.75 35.8949 35.8949 39.75 31.1394 39.75H8.86056C4.10508 39.75 0.25 35.8949 0.25 31.1394V8.86056Z" fill="white" stroke="#C6CED9" stroke-width="0.5"/>
<path d="M26.4514 23.62C26.2208 23.6201 25.9953 23.5517 25.8035 23.4237C25.6118 23.2956 25.4623 23.1135 25.374 22.9004C25.2857 22.6874 25.2626 22.4529 25.3075 22.2267C25.3525 22.0005 25.4635 21.7928 25.6265 21.6297C25.7895 21.4666 25.9973 21.3555 26.2235 21.3104C26.4497 21.2654 26.6841 21.2884 26.8972 21.3767C27.1103 21.4649 27.2924 21.6143 27.4206 21.806C27.5487 21.9977 27.6172 22.2232 27.6172 22.4538C27.6168 22.7629 27.4939 23.0593 27.2754 23.2779C27.0568 23.4965 26.7605 23.6196 26.4514 23.62M13.5642 23.62C13.3336 23.6201 13.1082 23.5517 12.9164 23.4237C12.7246 23.2956 12.5751 23.1135 12.4868 22.9004C12.3985 22.6874 12.3754 22.4529 12.4204 22.2267C12.4653 22.0005 12.5763 21.7928 12.7394 21.6297C12.9024 21.4666 13.1101 21.3555 13.3363 21.3104C13.5625 21.2654 13.797 21.2884 14.01 21.3767C14.2231 21.4649 14.4053 21.6143 14.5334 21.806C14.6616 21.9977 14.73 22.2232 14.73 22.4538C14.7298 22.7629 14.6069 23.0593 14.3883 23.278C14.1697 23.4966 13.8734 23.6196 13.5642 23.62M26.8695 16.5968L29.1996 12.5611C29.2314 12.5059 29.2521 12.4451 29.2605 12.3819C29.2688 12.3188 29.2647 12.2547 29.2482 12.1932C29.2318 12.1316 29.2034 12.074 29.1647 12.0234C29.1259 11.9729 29.0776 11.9305 29.0225 11.8986C28.9674 11.8667 28.9065 11.846 28.8434 11.8377C28.7803 11.8293 28.7161 11.8335 28.6546 11.85C28.5931 11.8664 28.5354 11.8948 28.4849 11.9335C28.4343 11.9723 28.3919 12.0206 28.3601 12.0757L26.0005 16.1624C24.1962 15.3389 22.1698 14.8804 20.0076 14.8804C17.8454 14.8804 15.8192 15.3396 14.0149 16.1624L11.6556 12.0757C11.6238 12.0206 11.5814 11.9722 11.5309 11.9335C11.4804 11.8947 11.4227 11.8663 11.3612 11.8498C11.2997 11.8333 11.2356 11.8291 11.1725 11.8374C11.1094 11.8457 11.0485 11.8663 10.9934 11.8982C10.9382 11.93 10.8899 11.9724 10.8511 12.0229C10.8124 12.0734 10.7839 12.131 10.7674 12.1925C10.751 12.254 10.7467 12.3181 10.755 12.3813C10.7634 12.4444 10.784 12.5053 10.8158 12.5604L13.1461 16.5968C9.1449 18.7731 6.40813 22.8238 6.00781 27.6097H34.0078C33.6071 22.8238 30.8705 18.7731 26.8695 16.5968" fill="#3DDC84"/>
</svg>
