<svg width="40" height="40" viewBox="0 0 40 40" fill="none" xmlns="http://www.w3.org/2000/svg">
<path d="M0.25 8.86056C0.25 4.10508 4.10508 0.25 8.86056 0.25H31.1394C35.8949 0.25 39.75 4.10508 39.75 8.86056V31.1394C39.75 35.8949 35.8949 39.75 31.1394 39.75H8.86056C4.10508 39.75 0.25 35.8949 0.25 31.1394V8.86056Z" fill="white" stroke="#C6CED9" stroke-width="0.5"/>
<g clip-path="url(#clip0_391_16189)">
<path d="M32.6541 14.2293C32.6541 13.7615 32.5544 13.3396 32.3473 12.9868C32.1479 12.634 31.8488 12.3426 31.45 12.1125C28.1366 10.2027 24.8156 8.29289 21.5022 6.38308C20.6048 5.8692 19.7458 5.88454 18.8561 6.40609C17.5369 7.18076 10.9255 10.9696 8.96199 12.1125C8.14896 12.5803 7.75781 13.3013 7.75781 14.237V25.7725C7.75781 26.2326 7.85751 26.6391 8.04926 26.992C8.2487 27.3525 8.55549 27.6593 8.96199 27.897C10.9331 29.0398 17.5369 32.8211 18.8561 33.6034C19.7458 34.1248 20.6125 34.1478 21.5022 33.6264C24.8156 31.7089 28.1366 29.8068 31.45 27.897C31.8641 27.6593 32.1633 27.3601 32.3627 26.992C32.5544 26.6391 32.6541 26.2326 32.6541 25.7725V14.2293Z" fill="#9A4993"/>
<path d="M20.2367 19.9586L8.03394 26.9842C8.23337 27.3447 8.54017 27.6515 8.94666 27.8893C10.9178 29.032 17.5215 32.8133 18.8408 33.5956C19.7305 34.1172 20.5972 34.1402 21.4869 33.6186C24.8002 31.7011 28.1213 29.799 31.4347 27.8893C31.8488 27.6515 32.148 27.3524 32.3474 26.9842L20.2367 19.9586Z" fill="#6A1577"/>
<path d="M16.6241 22.0371C17.3375 23.2797 18.672 24.1157 20.1983 24.1157C21.7399 24.1157 23.0822 23.272 23.7878 22.0141L20.2367 19.9586L16.6241 22.0371Z" fill="#6A1577"/>
<path d="M32.6541 14.2293C32.6541 13.7615 32.5543 13.3396 32.3473 12.9868L20.2366 19.9587L32.3626 26.9843C32.5543 26.6315 32.6541 26.225 32.6541 25.7648V14.2293Z" fill="#813084"/>
<path fill-rule="evenodd" clip-rule="evenodd" d="M23.7878 22.0143C23.0822 23.2644 21.74 24.1158 20.1984 24.1158C18.6644 24.1158 17.3299 23.2798 16.6242 22.0373C16.2791 21.4314 16.0796 20.7411 16.0796 19.9971C16.0796 17.7191 17.9204 15.8784 20.1984 15.8784C21.717 15.8784 23.0439 16.7067 23.7572 17.9339L27.3543 15.863C25.9201 13.3934 23.2509 11.729 20.1907 11.729C15.6194 11.729 11.9226 15.4335 11.9226 19.9971C11.9226 21.4927 12.3214 22.904 13.0194 24.1158C14.446 26.5932 17.1304 28.2652 20.1984 28.2652C23.274 28.2652 25.9584 26.5855 27.385 24.0928L23.7878 22.0143ZM28.3361 18.0409H27.5154V22.0062H28.3361V18.0409ZM29.3331 18.0409H30.1537V22.0062H29.3331V18.0409Z" fill="white"/>
<path fill-rule="evenodd" clip-rule="evenodd" d="M26.8557 18.7082H30.821V19.5289H26.8557V18.7082ZM26.8557 20.5184H30.821V21.3391H26.8557V20.5184Z" fill="white"/>
</g>
<defs>
<clipPath id="clip0_391_16189">
<rect width="28" height="28" fill="white" transform="translate(6.00781 6.00391)"/>
</clipPath>
</defs>
</svg>
