<svg width="40" height="40" viewBox="0 0 40 40" fill="none" xmlns="http://www.w3.org/2000/svg">
<path fill-rule="evenodd" clip-rule="evenodd" d="M8.86056 0C3.96701 0 0 3.96701 0 8.86056V31.1394C0 36.033 3.96701 40 8.86056 40H31.1394C36.033 40 40 36.033 40 31.1394V8.86056C40 3.96701 36.033 0 31.1394 0H8.86056Z" fill="#F7DF1E"/>
<g clip-path="url(#clip0_391_16048)">
<path d="M32.1411 6H7.87448C6.84355 6 6.00781 6.83574 6.00781 7.86667V32.1333C6.00781 33.1643 6.84355 34 7.87448 34H32.1411C33.1721 34 34.0078 33.1643 34.0078 32.1333V7.86667C34.0078 6.83574 33.1721 6 32.1411 6Z" fill="#F7DF1E"/>
<path d="M24.8167 27.8752C25.3807 28.7961 26.1145 29.473 27.4123 29.473C28.5025 29.473 29.1989 28.9281 29.1989 28.1752C29.1989 27.273 28.4834 26.9534 27.2834 26.4285L26.6256 26.1463C24.7269 25.3374 23.4656 24.3241 23.4656 22.1819C23.4656 20.2085 24.9691 18.7063 27.3189 18.7063C28.9918 18.7063 30.1945 19.2885 31.0611 20.813L29.0122 22.1285C28.5611 21.3196 28.0745 21.001 27.3189 21.001C26.5483 21.001 26.0598 21.4899 26.0598 22.1285C26.0598 22.9179 26.5487 23.2374 27.6776 23.7263L28.3354 24.0081C30.5709 24.9667 31.8331 25.9441 31.8331 28.1414C31.8331 30.5103 29.9723 31.8081 27.4731 31.8081C25.0296 31.8081 23.4509 30.6436 22.6785 29.1174L24.8167 27.8752ZM15.522 28.1032C15.9354 28.8365 16.3114 29.4565 17.2154 29.4565C18.0798 29.4565 18.6251 29.1183 18.6251 27.8032V18.8565H21.2562V27.8387C21.2562 30.5632 19.6589 31.8032 17.3274 31.8032C15.2207 31.8032 14.0007 30.713 13.3802 29.3999L15.522 28.1032Z" fill="black"/>
</g>
<defs>
<clipPath id="clip0_391_16048">
<rect width="28" height="28" fill="white" transform="translate(6.00781 6)"/>
</clipPath>
</defs>
</svg>
