<svg width="40" height="40" viewBox="0 0 40 40" fill="none" xmlns="http://www.w3.org/2000/svg">
<path d="M0.25 8.86056C0.25 4.10508 4.10508 0.25 8.86056 0.25H31.1394C35.8949 0.25 39.75 4.10508 39.75 8.86056V31.1394C39.75 35.8949 35.8949 39.75 31.1394 39.75H8.86056C4.10508 39.75 0.25 35.8949 0.25 31.1394V8.86056Z" fill="white" stroke="#C6CED9" stroke-width="0.5"/>
<g clip-path="url(#clip0_808_22369)">
<path d="M20.0659 6L6.00781 20.7838V34L20.0455 19.9376L34.0078 6H20.0659Z" fill="url(#paint0_linear_808_22369)"/>
<path d="M6.00781 33.9998L20.0455 19.9374L34.0078 33.9998H6.00781Z" fill="url(#paint1_linear_808_22369)"/>
<path d="M6.00781 6H20.0659L6.00781 20.7838V6Z" fill="url(#paint2_linear_808_22369)"/>
</g>
<defs>
<linearGradient id="paint0_linear_808_22369" x1="14.3215" y1="44.7708" x2="40.3769" y2="18.7152" gradientUnits="userSpaceOnUse">
<stop offset="0.108" stop-color="#C757BC"/>
<stop offset="0.173" stop-color="#CD5CA9"/>
<stop offset="0.492" stop-color="#E8744F"/>
<stop offset="0.716" stop-color="#F88316"/>
<stop offset="0.823" stop-color="#FF8900"/>
</linearGradient>
<linearGradient id="paint1_linear_808_22369" x1="27.5876" y1="42.2406" x2="31.359" y2="27.2885" gradientUnits="userSpaceOnUse">
<stop offset="0.296" stop-color="#00AFFF"/>
<stop offset="0.694" stop-color="#5282FF"/>
<stop offset="1" stop-color="#945DFF"/>
</linearGradient>
<linearGradient id="paint2_linear_808_22369" x1="9.90752" y1="18.4127" x2="19.2412" y2="9.97289" gradientUnits="userSpaceOnUse">
<stop offset="0.296" stop-color="#00AFFF"/>
<stop offset="0.694" stop-color="#5282FF"/>
<stop offset="1" stop-color="#945DFF"/>
</linearGradient>
<clipPath id="clip0_808_22369">
<rect width="28" height="28" fill="white" transform="translate(6.00781 6)"/>
</clipPath>
</defs>
</svg>
