<svg width="40" height="40" viewBox="0 0 40 40" fill="none" xmlns="http://www.w3.org/2000/svg">
<path d="M0.25 8.86056C0.25 4.10508 4.10508 0.25 8.86056 0.25H31.1394C35.8949 0.25 39.75 4.10508 39.75 8.86056V31.1394C39.75 35.8949 35.8949 39.75 31.1394 39.75H8.86056C4.10508 39.75 0.25 35.8949 0.25 31.1394V8.86056Z" fill="white" stroke="#C6CED9" stroke-width="0.5"/>
<g clip-path="url(#clip0_808_22461)">
<path fill-rule="evenodd" clip-rule="evenodd" d="M27.6735 33.767C27.6362 33.7771 27.5977 33.7822 27.559 33.7823L21.5489 33.7823C21.4717 33.7823 21.396 33.762 21.3292 33.7233C21.2625 33.6846 21.2071 33.629 21.1687 33.5621L18.2644 28.5177L12.5079 28.5177C12.3513 28.5177 12.2067 28.4344 12.1278 28.2986L6.06617 17.7688C6.05248 17.7447 6.04371 17.7184 6.0344 17.6921C6.03112 17.6823 6.02509 17.673 6.02235 17.6626C6.00297 17.5889 6.00297 17.5116 6.02235 17.438C6.02564 17.4259 6.03221 17.415 6.03659 17.4035C6.04536 17.3794 6.05303 17.3542 6.06617 17.3312L12.1278 6.80358C12.1662 6.7367 12.2216 6.68113 12.2883 6.64247C12.3551 6.60381 12.4308 6.58343 12.5079 6.58337L30.5383 6.58337C30.5778 6.58337 30.6161 6.58885 30.6533 6.59871C30.6659 6.602 30.6774 6.60967 30.69 6.61405C30.7131 6.62227 30.7366 6.62993 30.758 6.64199C30.7722 6.6502 30.7837 6.66225 30.7969 6.67211C30.8144 6.68471 30.8325 6.69621 30.8478 6.711C30.8604 6.7236 30.8697 6.74004 30.8807 6.75428C30.8938 6.77016 30.9081 6.78441 30.9185 6.80248L30.9185 6.80303L33.9493 12.0671C33.9876 12.1337 34.0078 12.2093 34.0078 12.2862C34.0078 12.3631 33.9876 12.4387 33.9493 12.5053L30.9185 17.7694L30.9185 17.7705C30.9075 17.788 30.8938 17.8028 30.8812 17.8187C30.8703 17.8329 30.8604 17.8488 30.8484 17.8614C30.8325 17.8767 30.8144 17.8877 30.7969 17.9008C30.7837 17.9101 30.7722 17.9227 30.758 17.9304C30.7361 17.943 30.7131 17.9501 30.69 17.9589C30.6774 17.9633 30.6659 17.9709 30.6528 17.9742C30.6155 17.9843 30.577 17.9895 30.5383 17.9896L19.2767 17.9896L21.8025 22.3761L27.5595 22.3761C27.5979 22.3761 27.6368 22.3816 27.6735 22.3914C27.6866 22.3953 27.6981 22.4024 27.7107 22.4068C27.7337 22.4155 27.7573 22.4232 27.7787 22.4353C27.7929 22.4435 27.8044 22.4555 27.8175 22.4648C27.8351 22.478 27.8531 22.489 27.8685 22.5043C27.8811 22.5169 27.8904 22.5328 27.9014 22.547C27.9145 22.5634 27.9287 22.5777 27.9391 22.5952L27.9391 22.5958L30.97 27.8604C31.0084 27.927 31.0286 28.0026 31.0286 28.0795C31.0286 28.1564 31.0084 28.232 30.97 28.2986L27.9391 33.5627C27.9282 33.5813 27.9145 33.5955 27.9019 33.612C27.8909 33.6256 27.8811 33.6415 27.869 33.6541C27.8531 33.6695 27.8351 33.6804 27.8175 33.6936C27.8044 33.7034 27.7929 33.7155 27.7787 33.7232C27.7573 33.7358 27.7337 33.7429 27.7107 33.7516C27.6981 33.7566 27.6866 33.7637 27.6735 33.767V33.767ZM21.8025 32.9048L26.8003 32.9048L25.7399 31.0626L24.2746 28.5177L19.2767 28.5177L21.8025 32.9053L21.8025 32.9048ZM12.7616 27.6407L17.7627 27.6407L16.333 25.1374L12.2532 17.989L7.20499 17.989L12.7616 27.6407ZM29.7797 7.4609L12.7616 7.4609L7.20553 17.1115L12.2527 17.1115L15.106 12.0698L15.1071 12.0682L15.1082 12.066C15.1181 12.049 15.1323 12.0348 15.1444 12.0189C15.1553 12.0052 15.1641 11.9893 15.1761 11.9773L15.1778 11.9762C15.1915 11.9619 15.2084 11.9521 15.2238 11.94C15.2386 11.9291 15.2512 11.9159 15.2665 11.9071L15.2681 11.9066C15.2846 11.8967 15.3043 11.8907 15.3229 11.8836C15.3394 11.8765 15.3547 11.8672 15.3722 11.8628L15.3728 11.8628C15.3936 11.8573 15.4155 11.8562 15.4369 11.854C15.4533 11.8518 15.4697 11.8474 15.4862 11.8474L15.4873 11.8474L27.2539 11.8474L28.7197 9.30305L29.7791 7.4609L29.7797 7.4609ZM33.063 12.2867L30.5383 7.90076L28.0136 12.2857L30.5389 16.6711L33.063 12.2857L33.063 12.2867ZM17.3069 14.5677L18.7717 17.112L29.7797 17.112L28.7192 15.2699L27.2539 12.725L16.2459 12.725L17.3069 14.5677ZM30.0837 28.0795L27.559 23.694L25.0343 28.0795L27.5595 32.4644L30.0837 28.0795V28.0795ZM24.2746 27.6407L25.7399 25.0958L26.8003 23.2536L21.8025 23.2536L20.3378 25.798L19.2767 27.6407L24.2746 27.6407ZM13.0119 17.5497L16.6841 23.9822L18.5192 27.1976L21.0422 22.8154L18.1374 17.7699L15.49 13.1714L13.0119 17.5497V17.5497Z" fill="#FF2D20"/>
</g>
<defs>
<clipPath id="clip0_808_22461">
<rect width="28" height="28" fill="white" transform="translate(6.00781 6)"/>
</clipPath>
</defs>
</svg>
