<svg width="40" height="40" viewBox="0 0 40 40" fill="none" xmlns="http://www.w3.org/2000/svg">
<path d="M0.25 8.86056C0.25 4.10508 4.10508 0.25 8.86056 0.25H31.1394C35.8949 0.25 39.75 4.10508 39.75 8.86056V31.1394C39.75 35.8949 35.8949 39.75 31.1394 39.75H8.86056C4.10508 39.75 0.25 35.8949 0.25 31.1394V8.86056Z" fill="white" stroke="#C6CED9" stroke-width="0.5"/>
<rect x="8.24004" y="9.9873" width="24.2036" height="20.9779" fill="white"/>
<path d="M31.9494 8.05103C33.2663 9.36793 33.95 11.0175 34 13V27.0003C33.95 28.9822 33.2664 30.6324 31.9494 31.9493C30.6325 33.2662 28.9823 33.9499 27 34.0003H13C11.0175 33.95 9.36793 33.2663 8.05103 31.9493C6.73414 30.6325 6.05031 28.9823 6 27.0004V13.0001C6.05031 11.0177 6.73403 9.36804 8.05103 8.05114C9.36793 6.73414 11.0175 6.05031 13 6H27C28.9823 6.05031 30.6325 6.73403 31.9494 8.05103ZM30.0184 19.3168C29.5783 18.8791 29.3496 18.3298 29.3315 17.669V13.0001C29.3175 12.3393 29.0906 11.7891 28.651 11.3495C28.2113 10.9095 27.6607 10.6831 27 10.6692H24.669V22.3316L15.3315 10.669H13C12.3391 10.683 11.789 10.9094 11.3494 11.3494C10.9094 11.7891 10.683 12.3393 10.6691 12.9999V17.669C10.6508 18.3298 10.4221 18.8791 9.98208 19.3168C9.54238 19.754 8.99222 19.9818 8.33147 20C8.99222 20.0186 9.54249 20.2464 9.98197 20.6836C10.4221 21.1213 10.6508 21.6706 10.669 22.3315V27.0003C10.683 27.6606 10.9094 28.2113 11.3494 28.6509C11.7891 29.0906 12.3393 29.3174 12.9999 29.3313H15.3315V17.6691L24.669 29.3316H27C27.6607 29.3176 28.2115 29.0907 28.651 28.6512C29.0907 28.2115 29.3175 27.6609 29.3314 27.0007V22.3316C29.3496 21.6707 29.5783 21.1214 30.0184 20.6837C30.4581 20.2465 31.0082 20.0187 31.669 20.0001C31.0082 19.9818 30.4579 19.7541 30.0185 19.3169L30.0184 19.3168Z" fill="#3C5AFD"/>
</svg>
