<svg width="40" height="40" viewBox="0 0 40 40" fill="none" xmlns="http://www.w3.org/2000/svg">
<path d="M0.25 8.86056C0.25 4.10508 4.10508 0.25 8.86056 0.25H31.1394C35.8949 0.25 39.75 4.10508 39.75 8.86056V31.1394C39.75 35.8949 35.8949 39.75 31.1394 39.75H8.86056C4.10508 39.75 0.25 35.8949 0.25 31.1394V8.86056Z" fill="white" stroke="#C6CED9" stroke-width="0.5"/>
<g clip-path="url(#clip0_391_16201)">
<rect x="34.0078" y="32.25" width="1.75" height="5.83333" transform="rotate(90 34.0078 32.25)" fill="#03020D"/>
<rect x="11.8412" y="32.25" width="1.75" height="5.83333" transform="rotate(90 11.8412 32.25)" fill="#03020D"/>
<path d="M25.2975 24.2444C24.2895 24.9794 23.0295 25.4624 21.5175 25.4624C18.3045 25.4624 15.9525 23.2364 15.9525 20.1284C15.9525 16.9784 18.2415 14.7313 21.3495 14.7313L25.8645 16.1174V13.1563C24.7095 12.7363 23.0715 12.2953 21.2655 12.2953C16.7505 12.2953 13.2435 15.4664 13.2435 20.1284C13.2435 24.7904 16.7505 27.9614 21.2655 27.9614C23.2185 27.9614 25.0455 27.3944 26.2425 26.6384L25.2975 24.2444Z" fill="#03020D"/>
<rect x="6.00781" y="7.75" width="1.75" height="24.5" fill="#03020D"/>
<rect x="34.0078" y="6" width="1.75" height="5.83333" transform="rotate(90 34.0078 6)" fill="#03020D"/>
<rect x="32.2578" y="7.75" width="1.75" height="24.5" fill="#03020D"/>
<rect x="11.8412" y="6" width="1.75" height="5.83333" transform="rotate(90 11.8412 6)" fill="#03020D"/>
</g>
<defs>
<clipPath id="clip0_391_16201">
<rect width="28" height="28" fill="white" transform="translate(6.00781 6)"/>
</clipPath>
</defs>
</svg>
