<svg width="40" height="40" viewBox="0 0 40 40" fill="none" xmlns="http://www.w3.org/2000/svg">
<path d="M0.25 8.86056C0.25 4.10508 4.10508 0.25 8.86056 0.25H31.1394C35.8949 0.25 39.75 4.10508 39.75 8.86056V31.1394C39.75 35.8949 35.8949 39.75 31.1394 39.75H8.86056C4.10508 39.75 0.25 35.8949 0.25 31.1394V8.86056Z" fill="white" stroke="#C6CED9" stroke-width="0.5"/>
<g clip-path="url(#clip0_808_22432)">
<path fill-rule="evenodd" clip-rule="evenodd" d="M12.3761 15.9594H8.22353L6.00781 27.0689H8.16155L8.75034 24.125H10.6097C11.2397 24.125 11.8492 24.0527 12.438 23.908C13.0268 23.7633 13.5794 23.4224 14.0959 22.8854C14.5196 22.4618 14.8499 21.9867 15.0876 21.4599C15.3355 20.9331 15.4957 20.396 15.5679 19.8485C15.7539 18.6501 15.5732 17.705 15.0256 17.013C14.478 16.321 13.5949 15.9696 12.3761 15.9594ZM10.0333 17.7414L10.0364 17.7259L10.0209 17.7414H10.0333ZM10.0333 17.7414L9.10674 22.3742C9.16872 22.3845 9.2307 22.3897 9.29268 22.3897H9.5096C10.5012 22.4 11.3277 22.302 11.9887 22.0953C12.6497 21.8784 13.0941 21.1245 13.3212 19.8331C13.5072 18.7485 13.3212 18.1235 12.7634 17.9583C12.2159 17.7931 11.5291 17.7157 10.7027 17.7259C10.5787 17.7361 10.46 17.7414 10.3463 17.7414H10.0333Z" fill="black"/>
<path d="M18.0213 13H20.1595L19.5552 15.9594H21.4766C22.5302 15.9802 23.3151 16.1971 23.8317 16.6102C24.3585 17.0233 24.5135 17.8086 24.2966 18.9654L23.2584 24.1251H21.0892L22.0808 19.1978C22.184 18.6812 22.1531 18.3146 21.9879 18.0977C21.8227 17.8808 21.4663 17.7723 20.9188 17.7723L19.1989 17.7568L17.9283 24.1251H15.7901L18.0213 13V13" fill="black"/>
<path fill-rule="evenodd" clip-rule="evenodd" d="M30.7452 15.9594H26.5927L24.377 27.0689H26.5307L27.1195 24.125H28.9788C29.6089 24.125 30.2184 24.0527 30.8072 23.908C31.396 23.7633 31.9485 23.4224 32.4651 22.8854C32.8887 22.4618 33.2191 21.9867 33.4568 21.4599C33.7047 20.9331 33.8649 20.396 33.9371 19.8485C34.123 18.6501 33.9423 17.705 33.3948 17.013C32.8472 16.321 31.964 15.9696 30.7452 15.9594ZM28.4025 17.7414L28.4056 17.7259L28.3901 17.7414H28.4025ZM28.4025 17.7414L27.4759 22.3742C27.5379 22.3845 27.5999 22.3897 27.6619 22.3897H27.8788C28.8704 22.4 29.6969 22.302 30.3579 22.0953C31.0189 21.8784 31.4633 21.1245 31.6904 19.8331C31.8764 18.7485 31.6904 18.1235 31.1326 17.9583C30.5851 17.7931 29.8983 17.7157 29.0719 17.7259C28.9479 17.7361 28.8292 17.7414 28.7155 17.7414H28.4025Z" fill="black"/>
</g>
<defs>
<clipPath id="clip0_808_22432">
<rect width="28" height="28" fill="white" transform="translate(6.00781 6)"/>
</clipPath>
</defs>
</svg>
