<svg width="40" height="40" viewBox="0 0 40 40" fill="none" xmlns="http://www.w3.org/2000/svg">
<path d="M0.25 8.86056C0.25 4.10508 4.10508 0.25 8.86056 0.25H31.1394C35.8949 0.25 39.75 4.10508 39.75 8.86056V31.1394C39.75 35.8949 35.8949 39.75 31.1394 39.75H8.86056C4.10508 39.75 0.25 35.8949 0.25 31.1394V8.86056Z" fill="white" stroke="#C6CED9" stroke-width="0.5"/>
<g clip-path="url(#clip0_391_16079)">
<path fill-rule="evenodd" clip-rule="evenodd" d="M19.9466 34.1312C15.8207 34.1312 12.476 33.4826 12.476 32.6826C12.476 31.8828 15.8207 31.2339 19.9466 31.2339C24.0727 31.2339 27.4174 31.8828 27.4174 32.6826C27.4174 33.4826 24.0727 34.1312 19.9466 34.1312" fill="url(#paint0_radial_391_16079)"/>
<path fill-rule="evenodd" clip-rule="evenodd" d="M19.9466 34.1312C15.8207 34.1312 12.476 33.4826 12.476 32.6826C12.476 31.8828 15.8207 31.2339 19.9466 31.2339C24.0727 31.2339 27.4174 31.8828 27.4174 32.6826C27.4174 33.4826 24.0727 34.1312 19.9466 34.1312" fill="url(#paint1_radial_391_16079)"/>
<path fill-rule="evenodd" clip-rule="evenodd" d="M23.0152 25.5332C23.5931 25.5332 24.0613 26.0066 24.0613 26.592C24.0613 27.1797 23.5931 27.6577 23.0152 27.6577C22.4394 27.6577 21.9692 27.1797 21.9692 26.592C21.9692 26.0066 22.4394 25.5332 23.0152 25.5332ZM26.1468 12.0899V14.5654C26.1468 16.4848 24.5198 18.0999 22.6644 18.0999H17.0959C15.5707 18.0999 14.3085 19.4055 14.3085 20.9329V26.2414C14.3085 27.752 15.6221 28.641 17.0959 29.0742C18.8605 29.5932 20.5526 29.687 22.6644 29.0742C24.0677 28.668 25.4515 27.85 25.4515 26.2414V24.1167H19.8832V23.4084H28.2389C29.8592 23.4084 30.4629 22.2784 31.0265 20.5822C31.6085 18.8359 31.5837 17.1565 31.0265 14.9161C30.626 13.3034 29.8612 12.0899 28.2389 12.0899H26.1468V12.0899Z" fill="url(#paint2_linear_391_16079)"/>
<path fill-rule="evenodd" clip-rule="evenodd" d="M8.34119 17.7574V17.727C8.34271 16.8486 8.4764 15.9832 8.73368 14.9161C9.1775 13.0636 10.5961 12.0899 12.2164 12.0899H19.8832V11.3816H14.3084V9.25687C14.3084 7.64826 14.7367 6.77591 17.0958 6.35905C17.8966 6.2175 18.8068 6.1361 19.7598 6.13169C20.7128 6.12728 21.7065 6.19961 22.6644 6.35905C24.1771 6.61129 25.4515 7.74626 25.4515 9.25687V14.5654C25.4515 16.1221 24.2141 17.3984 22.6644 17.3984H17.0958C15.2054 17.3984 13.6132 19.0213 13.6132 20.8614V23.4084H11.6966C10.0763 23.4084 9.1298 22.2325 8.73368 20.5822C8.47083 19.4919 8.34268 18.6173 8.34119 17.7574H8.34119ZM16.7451 7.8402C16.167 7.8402 15.699 8.31824 15.699 8.90595C15.699 9.49132 16.167 9.96496 16.7451 9.96496C17.3209 9.96496 17.7911 9.49132 17.7911 8.90595C17.7911 8.31824 17.3209 7.8402 16.7451 7.8402Z" fill="#4786CF"/>
</g>
<defs>
<radialGradient id="paint0_radial_391_16079" cx="0" cy="0" r="1" gradientUnits="userSpaceOnUse" gradientTransform="translate(19.9466 32.6826) rotate(-90) scale(1.44837 32.838)">
<stop stop-color="#C6C6C6"/>
<stop offset="1" stop-color="white"/>
</radialGradient>
<radialGradient id="paint1_radial_391_16079" cx="0" cy="0" r="1" gradientUnits="userSpaceOnUse" gradientTransform="translate(19.9466 32.6826) rotate(-90) scale(1.44837 32.838)">
<stop stop-color="#C6C6C6"/>
<stop offset="1" stop-color="white"/>
</radialGradient>
<linearGradient id="paint2_linear_391_16079" x1="28.6572" y1="22.2654" x2="24.0112" y2="15.8278" gradientUnits="userSpaceOnUse">
<stop stop-color="#FFD33A"/>
<stop offset="1" stop-color="#FFE873"/>
</linearGradient>
<clipPath id="clip0_391_16079">
<rect width="28" height="28" fill="white" transform="translate(6.00781 6.00391)"/>
</clipPath>
</defs>
</svg>
