<svg width="48" height="48" viewBox="0 0 48 48" fill="none" xmlns="http://www.w3.org/2000/svg">
<path d="M48 24.3779C48 21.1981 44.0179 18.1847 37.9128 16.3159C39.3216 10.0934 38.6955 5.14268 35.9364 3.55768C35.3004 3.18589 34.5569 3.00978 33.7448 3.00978V5.1916C34.1949 5.1916 34.5569 5.27966 34.8602 5.44598C36.1908 6.20913 36.768 9.11496 36.318 12.8524C36.2104 13.7721 36.0342 14.7407 35.819 15.7289C33.9013 15.2593 31.8076 14.8973 29.6062 14.6625C28.2854 12.8524 26.9156 11.2087 25.5361 9.77049C28.7256 6.80595 31.7195 5.18182 33.7546 5.18182V3C31.064 3 27.5418 4.91765 23.9804 8.24419C20.4191 4.93722 16.8969 3.03914 14.2063 3.03914V5.22095C16.2316 5.22095 19.2352 6.8353 22.4248 9.78027C21.055 11.2185 19.6853 12.8524 18.384 14.6625C16.1729 14.8973 14.0791 15.2593 12.1614 15.7387C11.9364 14.7603 11.7701 13.8113 11.6527 12.9013C11.1928 9.16388 11.7603 6.25805 13.0811 5.48512C13.3746 5.30901 13.7562 5.23074 14.2063 5.23074V3.04892C13.3844 3.04892 12.6408 3.22503 11.9951 3.59682C9.24582 5.18182 8.62943 10.1227 10.0481 16.3257C3.96249 18.2042 0 21.2079 0 24.3779C0 27.5577 3.98206 30.5711 10.0872 32.4399C8.67835 38.6625 9.30453 43.6131 12.0636 45.1981C12.6996 45.5699 13.4431 45.746 14.265 45.746C16.9556 45.746 20.4778 43.8284 24.0391 40.5018C27.6005 43.8088 31.1227 45.7069 33.8133 45.7069C34.6351 45.7069 35.3787 45.5308 36.0245 45.159C38.7738 43.574 39.3901 38.6331 37.9715 32.4301C44.0375 30.5614 48 27.5479 48 24.3779ZM35.2613 17.852C34.8993 19.1141 34.4492 20.4154 33.9405 21.7167C33.5393 20.934 33.1186 20.1512 32.6588 19.3685C32.2087 18.5858 31.7293 17.8227 31.2499 17.0791C32.6392 17.2846 33.9796 17.5389 35.2613 17.852ZM30.7803 28.2719C30.0171 29.5927 29.2344 30.8451 28.4223 32.0094C26.9645 32.1366 25.4872 32.2051 24 32.2051C22.5226 32.2051 21.0453 32.1366 19.5972 32.0192C18.7852 30.8549 17.9927 29.6123 17.2295 28.3013C16.4859 27.0196 15.8108 25.7183 15.1945 24.4073C15.8011 23.0962 16.4859 21.7852 17.2197 20.5035C17.9829 19.1826 18.7656 17.9303 19.5777 16.766C21.0355 16.6388 22.5128 16.5703 24 16.5703C25.4774 16.5703 26.9548 16.6388 28.4028 16.7562C29.2148 17.9205 30.0073 19.1631 30.7705 20.4741C31.5141 21.7558 32.1892 23.0571 32.8055 24.3681C32.1892 25.6792 31.5141 26.9902 30.7803 28.2719ZM33.9405 27C34.4688 28.3111 34.9189 29.6221 35.2907 30.894C34.009 31.2071 32.6588 31.4713 31.2597 31.6767C31.7391 30.9234 32.2185 30.1504 32.6686 29.3579C33.1186 28.5752 33.5393 27.7827 33.9405 27ZM24.0196 37.4395C23.1097 36.5002 22.1998 35.4533 21.2996 34.3086C22.1802 34.3477 23.0803 34.3771 23.9902 34.3771C24.9099 34.3771 25.8198 34.3575 26.7102 34.3086C25.8296 35.4533 24.9197 36.5002 24.0196 37.4395ZM16.7403 31.6767C15.351 31.4713 14.0106 31.2169 12.7289 30.9038C13.0909 29.6417 13.541 28.3404 14.0497 27.0391C14.4509 27.8219 14.8716 28.6046 15.3314 29.3873C15.7913 30.17 16.2609 30.9331 16.7403 31.6767ZM23.9707 11.3163C24.8806 12.2556 25.7905 13.3025 26.6906 14.4472C25.81 14.4081 24.9099 14.3787 24 14.3787C23.0803 14.3787 22.1704 14.3983 21.2801 14.4472C22.1606 13.3025 23.0705 12.2556 23.9707 11.3163ZM16.7305 17.0791C16.2511 17.8325 15.7717 18.6054 15.3216 19.3979C14.8716 20.1806 14.4509 20.9633 14.0497 21.746C13.5214 20.435 13.0713 19.1239 12.6996 17.852C13.9812 17.5487 15.3314 17.2846 16.7305 17.0791ZM7.87607 29.3286C4.41256 27.8512 2.17203 25.914 2.17203 24.3779C2.17203 22.8418 4.41256 20.8948 7.87607 19.4272C8.71749 19.0652 9.63718 18.7424 10.5862 18.4391C11.1439 20.3567 11.8777 22.3526 12.7876 24.3975C11.8875 26.4325 11.1635 28.4187 10.6156 30.3265C9.64697 30.0232 8.72727 29.6906 7.87607 29.3286ZM13.1398 43.3098C11.8092 42.5467 11.232 39.6409 11.682 35.9034C11.7896 34.9837 11.9658 34.0151 12.181 33.0269C14.0987 33.4965 16.1924 33.8585 18.3938 34.0934C19.7146 35.9034 21.0844 37.5471 22.4639 38.9853C19.2744 41.9499 16.2805 43.574 14.2454 43.574C13.8051 43.5642 13.4333 43.4762 13.1398 43.3098ZM36.3473 35.8545C36.8072 39.5919 36.2397 42.4978 34.9189 43.2707C34.6254 43.4468 34.2438 43.5251 33.7937 43.5251C31.7684 43.5251 28.7648 41.9107 25.5752 38.9658C26.945 37.5275 28.3147 35.8936 29.616 34.0836C31.8272 33.8488 33.9209 33.4868 35.8386 33.0073C36.0636 33.9955 36.2397 34.9446 36.3473 35.8545ZM40.1141 29.3286C39.2727 29.6906 38.353 30.0135 37.404 30.3168C36.8463 28.3991 36.1125 26.4032 35.2026 24.3583C36.1027 22.3233 36.8267 20.3371 37.3746 18.4293C38.3433 18.7326 39.2629 19.0652 40.1239 19.4272C43.5874 20.9046 45.828 22.8418 45.828 24.3779C45.8182 25.914 43.5777 27.861 40.1141 29.3286Z" fill="#61DAFB"/>
<path d="M23.9902 28.8493C26.4596 28.8493 28.4614 26.8474 28.4614 24.378C28.4614 21.9086 26.4596 19.9067 23.9902 19.9067C21.5208 19.9067 19.5189 21.9086 19.5189 24.378C19.5189 26.8474 21.5208 28.8493 23.9902 28.8493Z" fill="#61DAFB"/>
</svg>
