<svg width="40" height="40" viewBox="0 0 40 40" fill="none" xmlns="http://www.w3.org/2000/svg">
<path d="M0.25 8.86056C0.25 4.10508 4.10508 0.25 8.86056 0.25H31.1394C35.8949 0.25 39.75 4.10508 39.75 8.86056V31.1394C39.75 35.8949 35.8949 39.75 31.1394 39.75H8.86056C4.10508 39.75 0.25 35.8949 0.25 31.1394V8.86056Z" fill="white" stroke="#C6CED9" stroke-width="0.5"/>
<g clip-path="url(#clip0_808_22392)">
<path d="M11.2578 23.2309V25.3847C11.2578 25.7478 19.0909 26.3558 24.1944 27.5386C26.6597 26.9671 28.4886 26.2618 28.4886 25.3847V23.2309C28.4886 22.3543 26.6597 21.6485 24.1944 21.077C19.0908 22.26 11.2578 22.8681 11.2578 23.2309" fill="url(#paint0_linear_808_22392)"/>
<path d="M11.2578 14.6156V16.7695C11.2578 17.1326 19.0909 17.7406 24.1944 18.9233C26.6597 18.3519 28.4886 17.6466 28.4886 16.7695V14.6156C28.4886 13.739 26.6597 13.0332 24.1944 12.4618C19.0908 13.6447 11.2578 14.2529 11.2578 14.6156" fill="url(#paint1_linear_808_22392)"/>
<path d="M11.2578 18.9229V25.3844C11.2578 24.8459 28.4886 23.769 28.4886 21.0767V14.6152C28.4886 17.3075 11.2578 18.3844 11.2578 18.9229" fill="url(#paint2_linear_808_22392)"/>
<path d="M11.2578 27.5381V33.9996C11.2578 33.4612 28.4886 32.3842 28.4886 29.6919V23.2304C28.4886 25.9227 11.2578 26.9996 11.2578 27.5381" fill="url(#paint3_linear_808_22392)"/>
<path d="M11.2578 10.3076V16.7692C11.2578 16.2307 28.4886 15.1538 28.4886 12.4615V5.99993C28.4886 8.69224 11.2578 9.76916 11.2578 10.3076" fill="url(#paint4_linear_808_22392)"/>
</g>
<defs>
<linearGradient id="paint0_linear_808_22392" x1="11.2578" y1="21.077" x2="28.4886" y2="21.077" gradientUnits="userSpaceOnUse">
<stop stop-color="#4F4F4F"/>
<stop offset="1"/>
</linearGradient>
<linearGradient id="paint1_linear_808_22392" x1="11.2578" y1="12.4618" x2="28.4886" y2="12.4618" gradientUnits="userSpaceOnUse">
<stop stop-color="#4F4F4F"/>
<stop offset="1"/>
</linearGradient>
<linearGradient id="paint2_linear_808_22392" x1="11.2578" y1="14.6152" x2="28.4886" y2="14.6152" gradientUnits="userSpaceOnUse">
<stop stop-color="#C40000"/>
<stop offset="1" stop-color="#FF0000"/>
</linearGradient>
<linearGradient id="paint3_linear_808_22392" x1="11.2578" y1="23.2304" x2="28.4886" y2="23.2304" gradientUnits="userSpaceOnUse">
<stop stop-color="#C40000"/>
<stop offset="1" stop-color="#FF0000"/>
</linearGradient>
<linearGradient id="paint4_linear_808_22392" x1="11.2578" y1="5.99993" x2="28.4886" y2="5.99993" gradientUnits="userSpaceOnUse">
<stop stop-color="#C40000"/>
<stop offset="1" stop-color="#FF0000"/>
</linearGradient>
<clipPath id="clip0_808_22392">
<rect width="28" height="28" fill="white" transform="translate(6.00781 6)"/>
</clipPath>
</defs>
</svg>
