<svg width="40" height="40" viewBox="0 0 40 40" fill="none" xmlns="http://www.w3.org/2000/svg">
<g clip-path="url(#clip0_391_16121)">
<path fill-rule="evenodd" clip-rule="evenodd" d="M8.86056 0C3.96701 0 0 3.96701 0 8.86056V31.1394C0 36.033 3.96701 40 8.86056 40H31.1394C36.033 40 40 36.033 40 31.1394V8.86056C40 3.96701 36.033 0 31.1394 0H8.86056Z" fill="url(#paint0_linear_391_16121)"/>
<path fill-rule="evenodd" clip-rule="evenodd" d="M8.8535 0.03125C3.96369 0.03125 0 3.99494 0 8.88475V18.9615L4.10382 23.379C4.10382 23.379 4.10414 23.379 4.10414 23.3793C4.14522 23.452 9.45127 32.7357 20.6182 32.7357C25.6631 32.7357 27.129 30.1487 29.6299 30.1487C32.2169 30.1487 33.7691 32.7357 33.7691 32.7357C35.2784 29.0274 31.5271 24.802 31.5271 24.802C31.5271 24.802 35.7959 14.9284 22.6022 5.95988C22.6019 5.95959 22.6019 5.95928 22.6016 5.95928L16.7561 0.03125H8.8535Z" fill="url(#paint1_linear_391_16121)"/>
<path fill-rule="evenodd" clip-rule="evenodd" d="M22.6306 5.96094C35.8248 14.9295 31.556 24.8036 31.556 24.8036C31.556 24.8036 35.3073 29.0292 33.7982 32.7374C33.7982 32.7374 32.2459 30.1503 29.6588 30.1503C27.158 30.1503 25.692 32.7374 20.6471 32.7374C9.43638 32.7374 4.13281 23.3807 4.13281 23.3807C14.227 30.0322 21.1214 25.321 21.1214 25.321C16.5677 22.6759 6.8924 10.0572 6.8924 10.0572C15.3257 17.2304 18.9655 19.112 18.9655 19.112C16.7866 17.3179 10.6868 8.54804 10.6868 8.54804C15.5675 13.4863 25.2608 20.3624 25.2608 20.3624C28.0256 12.7616 22.6306 5.96094 22.6306 5.96094Z" fill="#FEFEFE"/>
</g>
<defs>
<linearGradient id="paint0_linear_391_16121" x1="2.34382" y1="-5.21564" x2="-5.21564" y2="37.6562" gradientUnits="userSpaceOnUse">
<stop stop-color="#FAAE41"/>
<stop offset="1" stop-color="#EF3E31"/>
</linearGradient>
<linearGradient id="paint1_linear_391_16121" x1="4.06311" y1="-1.97144" x2="-1.0249" y2="29.4491" gradientUnits="userSpaceOnUse">
<stop stop-color="#E29F3A"/>
<stop offset="1" stop-color="#D43929"/>
</linearGradient>
<clipPath id="clip0_391_16121">
<rect width="40" height="40" fill="white"/>
</clipPath>
</defs>
</svg>
