<svg width="40" height="40" viewBox="0 0 40 40" fill="none" xmlns="http://www.w3.org/2000/svg">
<path d="M0.25 8.86056C0.25 4.10508 4.10508 0.25 8.86056 0.25H31.1394C35.8949 0.25 39.75 4.10508 39.75 8.86056V31.1394C39.75 35.8949 35.8949 39.75 31.1394 39.75H8.86056C4.10508 39.75 0.25 35.8949 0.25 31.1394V8.86056Z" fill="white" stroke="#C6CED9" stroke-width="0.5"/>
<g clip-path="url(#clip0_808_22422)">
<path d="M14.0869 7.75C13.3307 7.75164 12.5905 8.18094 12.2098 8.83577L6.28893 19.121C5.91411 19.7775 5.91411 20.6358 6.28893 21.2924L12.2098 31.5777C12.5905 32.2325 13.3307 32.6619 14.0869 32.6634H25.9287C26.685 32.6618 27.4252 32.2325 27.8058 31.5777L33.7267 21.2924C34.1016 20.6358 34.1015 19.7775 33.7267 19.121L27.8058 8.83577C27.4252 8.18083 26.685 7.75153 25.9287 7.75H14.0869ZM14.1945 13.767C14.2107 13.7654 14.2278 13.7654 14.2441 13.767H16.2866C16.332 13.7685 16.3762 13.7814 16.4153 13.8046C16.4543 13.8278 16.4869 13.8605 16.5099 13.8996L19.9748 20.074C19.9923 20.1047 20.0035 20.1386 20.0076 20.1736C20.012 20.1386 20.0232 20.1047 20.0407 20.074L23.4972 13.8996C23.5211 13.8594 23.5549 13.826 23.5955 13.8027C23.6361 13.7795 23.682 13.7672 23.7288 13.767H25.7714C25.9522 13.7686 26.0877 13.9964 26.0029 14.1565L22.6207 20.2067L26.0029 26.2486C26.0957 26.4096 25.957 26.6479 25.7714 26.6464H23.7288C23.6812 26.6454 23.6347 26.6318 23.5941 26.6071C23.5534 26.5824 23.52 26.5473 23.4972 26.5055L20.0407 20.331C20.0232 20.3005 20.012 20.2664 20.0077 20.2315C20.0035 20.2666 19.9923 20.3004 19.9748 20.3311L16.5098 26.5055C16.4878 26.5461 16.4557 26.5804 16.4166 26.6051C16.3776 26.6297 16.3328 26.644 16.2867 26.6464H14.244C14.0584 26.648 13.9197 26.4096 14.0125 26.2486L17.3947 20.2067L14.0125 14.1565C13.9314 14.0104 14.0303 13.7982 14.1943 13.767H14.1945Z" fill="#3498DB"/>
</g>
<defs>
<clipPath id="clip0_808_22422">
<rect width="28" height="28" fill="white" transform="translate(6.00781 6)"/>
</clipPath>
</defs>
</svg>
