<svg width="230" height="238" viewBox="0 0 230 238" fill="none" xmlns="http://www.w3.org/2000/svg">
<g filter="url(#filter0_ddd_1_1918)">
<path d="M48 97.9521C48 93.706 44.5578 90.2639 40.3117 90.2639H26.6605C22.4144 90.2639 18.9722 93.706 18.9722 97.9521V105.406C18.9722 105.96 19.4215 106.409 19.9757 106.409H40.3117C44.5578 106.409 48 102.967 48 98.721V97.9521Z" fill="url(#paint0_linear_1_1918)"/>
<ellipse cx="28.1647" cy="98.3365" rx="1.33048" ry="1.33409" fill="white"/>
<ellipse cx="33.4865" cy="98.3367" rx="1.33048" ry="1.33409" fill="white"/>
<ellipse cx="38.8079" cy="98.3367" rx="1.33048" ry="1.33409" fill="white"/>
</g>
<path d="M58.2616 96.9743C58.2237 96.6382 58.0675 96.3778 57.7928 96.1931C57.5182 96.0061 57.1726 95.9126 56.7559 95.9126C56.4576 95.9126 56.1996 95.9599 55.9818 96.0546C55.764 96.1469 55.5947 96.2748 55.474 96.4381C55.3556 96.5991 55.2964 96.7826 55.2964 96.9886C55.2964 97.1614 55.3366 97.3105 55.4171 97.436C55.5 97.5615 55.6077 97.6668 55.7403 97.752C55.8752 97.8349 56.0196 97.9047 56.1735 97.9616C56.3274 98.016 56.4754 98.061 56.6174 98.0965L57.3276 98.2812C57.5597 98.338 57.7976 98.4149 58.0414 98.512C58.2853 98.6091 58.5114 98.7369 58.7197 98.8955C58.928 99.0541 59.0961 99.2506 59.224 99.485C59.3542 99.7194 59.4193 99.9999 59.4193 100.327C59.4193 100.739 59.3127 101.104 59.0997 101.424C58.889 101.744 58.5824 101.996 58.1799 102.18C57.7798 102.365 57.2957 102.457 56.7275 102.457C56.183 102.457 55.7119 102.371 55.3142 102.198C54.9164 102.025 54.6051 101.78 54.3802 101.463C54.1553 101.143 54.031 100.765 54.0073 100.327H55.1082C55.1295 100.589 55.2147 100.808 55.3639 100.984C55.5154 101.156 55.7083 101.285 55.9427 101.371C56.1794 101.454 56.4387 101.495 56.7204 101.495C57.0305 101.495 57.3063 101.446 57.5478 101.349C57.7917 101.25 57.9834 101.113 58.1231 100.937C58.2628 100.76 58.3326 100.553 58.3326 100.316C58.3326 100.101 58.2711 99.9242 58.148 99.7868C58.0272 99.6495 57.8627 99.5359 57.6544 99.4459C57.4484 99.356 57.2152 99.2767 56.9548 99.208L56.0954 98.9736C55.513 98.815 55.0514 98.5818 54.7105 98.2741C54.3719 97.9663 54.2026 97.5591 54.2026 97.0525C54.2026 96.6334 54.3163 96.2677 54.5436 95.9552C54.7708 95.6427 55.0786 95.4 55.4669 95.2272C55.8551 95.052 56.2931 94.9644 56.7808 94.9644C57.2732 94.9644 57.7076 95.0508 58.084 95.2236C58.4628 95.3965 58.7611 95.6344 58.9789 95.9374C59.1967 96.2381 59.3104 96.5837 59.3198 96.9743H58.2616ZM62.9429 102.447C62.4315 102.447 61.9853 102.329 61.6041 102.095C61.2229 101.861 60.927 101.533 60.7163 101.111C60.5056 100.69 60.4003 100.198 60.4003 99.6341C60.4003 99.0683 60.5056 98.5735 60.7163 98.1498C60.927 97.726 61.2229 97.3969 61.6041 97.1626C61.9853 96.9282 62.4315 96.811 62.9429 96.811C63.4542 96.811 63.9005 96.9282 64.2817 97.1626C64.6628 97.3969 64.9587 97.726 65.1694 98.1498C65.3801 98.5735 65.4855 99.0683 65.4855 99.6341C65.4855 100.198 65.3801 100.69 65.1694 101.111C64.9587 101.533 64.6628 101.861 64.2817 102.095C63.9005 102.329 63.4542 102.447 62.9429 102.447ZM62.9464 101.555C63.2779 101.555 63.5525 101.468 63.7703 101.293C63.9881 101.117 64.1491 100.884 64.2533 100.593C64.3598 100.302 64.4131 99.981 64.4131 99.6306C64.4131 99.2826 64.3598 98.963 64.2533 98.6718C64.1491 98.3782 63.9881 98.1427 63.7703 97.9651C63.5525 97.7876 63.2779 97.6988 62.9464 97.6988C62.6126 97.6988 62.3356 97.7876 62.1155 97.9651C61.8977 98.1427 61.7355 98.3782 61.629 98.6718C61.5248 98.963 61.4727 99.2826 61.4727 99.6306C61.4727 99.981 61.5248 100.302 61.629 100.593C61.7355 100.884 61.8977 101.117 62.1155 101.293C62.3356 101.468 62.6126 101.555 62.9464 101.555ZM66.6707 104.382V96.882H67.7076V97.7663H67.7964C67.858 97.6526 67.9467 97.5212 68.0627 97.3721C68.1787 97.2229 68.3397 97.0927 68.5457 96.9814C68.7517 96.8678 69.0239 96.811 69.3624 96.811C69.8028 96.811 70.1958 96.9223 70.5414 97.1448C70.8871 97.3673 71.1581 97.6881 71.3546 98.1072C71.5535 98.5262 71.6529 99.0305 71.6529 99.6199C71.6529 100.209 71.5547 100.715 71.3582 101.136C71.1617 101.555 70.8918 101.878 70.5485 102.106C70.2053 102.331 69.8134 102.443 69.3731 102.443C69.0417 102.443 68.7706 102.387 68.5599 102.276C68.3516 102.165 68.1882 102.035 68.0698 101.886C67.9515 101.736 67.8603 101.604 67.7964 101.488H67.7325V104.382H66.6707ZM67.7112 99.6093C67.7112 99.9928 67.7668 100.329 67.8781 100.618C67.9893 100.907 68.1503 101.133 68.361 101.296C68.5717 101.457 68.8298 101.538 69.1352 101.538C69.4524 101.538 69.7176 101.454 69.9306 101.285C70.1437 101.115 70.3047 100.884 70.4136 100.593C70.5249 100.302 70.5805 99.9739 70.5805 99.6093C70.5805 99.2494 70.526 98.9263 70.4171 98.6398C70.3106 98.3534 70.1496 98.1273 69.9342 97.9616C69.7211 97.7958 69.4548 97.713 69.1352 97.713C68.8274 97.713 68.567 97.7923 68.3539 97.9509C68.1432 98.1095 67.9834 98.3309 67.8745 98.615C67.7656 98.8991 67.7112 99.2305 67.7112 99.6093ZM73.9044 99.0979V102.337H72.8426V95.0638H73.8901V97.7698H73.9576C74.0855 97.4762 74.2808 97.243 74.5436 97.0702C74.8063 96.8974 75.1496 96.811 75.5734 96.811C75.9474 96.811 76.2741 96.8879 76.5535 97.0418C76.8352 97.1957 77.053 97.4253 77.2069 97.7307C77.3632 98.0338 77.4413 98.4126 77.4413 98.8671V102.337H76.3795V98.9949C76.3795 98.5948 76.2765 98.2847 76.0705 98.0645C75.8646 97.842 75.5781 97.7307 75.2112 97.7307C74.9602 97.7307 74.7353 97.784 74.5365 97.8905C74.34 97.9971 74.1849 98.1533 74.0713 98.3593C73.96 98.5629 73.9044 98.8091 73.9044 99.0979ZM78.8582 102.337V96.882H79.92V102.337H78.8582ZM79.3944 96.0404C79.2098 96.0404 79.0511 95.9788 78.9186 95.8557C78.7883 95.7303 78.7232 95.5811 78.7232 95.4083C78.7232 95.2331 78.7883 95.084 78.9186 94.9609C79.0511 94.8354 79.2098 94.7726 79.3944 94.7726C79.5791 94.7726 79.7365 94.8354 79.8667 94.9609C79.9993 95.084 80.0656 95.2331 80.0656 95.4083C80.0656 95.5811 79.9993 95.7303 79.8667 95.8557C79.7365 95.9788 79.5791 96.0404 79.3944 96.0404ZM83.6993 102.447C83.1619 102.447 82.699 102.332 82.3108 102.102C81.9249 101.87 81.6266 101.545 81.4159 101.126C81.2076 100.704 81.1034 100.211 81.1034 99.6448C81.1034 99.0861 81.2076 98.5937 81.4159 98.1675C81.6266 97.7414 81.9202 97.4088 82.2966 97.1697C82.6754 96.9305 83.1181 96.811 83.6247 96.811C83.9325 96.811 84.2308 96.8619 84.5196 96.9637C84.8084 97.0655 85.0676 97.2253 85.2973 97.4431C85.5269 97.6609 85.708 97.9438 85.8406 98.2918C85.9732 98.6375 86.0395 99.0577 86.0395 99.5525V99.9289H81.7035V99.1334H84.999C84.999 98.8541 84.9422 98.6067 84.8285 98.3913C84.7149 98.1734 84.5551 98.0018 84.3491 97.8763C84.1455 97.7509 83.9064 97.6881 83.6318 97.6881C83.3335 97.6881 83.0731 97.7615 82.8506 97.9083C82.6304 98.0527 82.4599 98.2421 82.3392 98.4765C82.2208 98.7085 82.1616 98.9606 82.1616 99.2329V99.8543C82.1616 100.219 82.2256 100.529 82.3534 100.785C82.4836 101.04 82.6647 101.236 82.8967 101.371C83.1287 101.503 83.3998 101.57 83.7099 101.57C83.9112 101.57 84.0946 101.541 84.2604 101.484C84.4261 101.425 84.5693 101.338 84.69 101.222C84.8108 101.106 84.9031 100.962 84.967 100.792L85.972 100.973C85.8915 101.269 85.7471 101.528 85.5388 101.751C85.3328 101.971 85.0736 102.142 84.7611 102.266C84.4509 102.386 84.097 102.447 83.6993 102.447ZM89.864 102.337V96.882H90.9258V102.337H89.864ZM90.4003 96.0404C90.2156 96.0404 90.057 95.9788 89.9244 95.8557C89.7942 95.7303 89.7291 95.5811 89.7291 95.4083C89.7291 95.2331 89.7942 95.084 89.9244 94.9609C90.057 94.8354 90.2156 94.7726 90.4003 94.7726C90.5849 94.7726 90.7424 94.8354 90.8726 94.9609C91.0051 95.084 91.0714 95.2331 91.0714 95.4083C91.0714 95.5811 91.0051 95.7303 90.8726 95.8557C90.7424 95.9788 90.5849 96.0404 90.4003 96.0404ZM96.4416 98.2137L95.4793 98.3841C95.439 98.261 95.3751 98.1439 95.2875 98.0326C95.2023 97.9213 95.0863 97.8302 94.9395 97.7591C94.7927 97.6881 94.6093 97.6526 94.3891 97.6526C94.0884 97.6526 93.8375 97.7201 93.6362 97.855C93.435 97.9876 93.3344 98.1592 93.3344 98.3699C93.3344 98.5522 93.4019 98.699 93.5368 98.8103C93.6718 98.9216 93.8896 99.0127 94.1902 99.0837L95.0567 99.2826C95.5586 99.3986 95.9326 99.5773 96.1789 99.8188C96.4251 100.06 96.5482 100.374 96.5482 100.76C96.5482 101.087 96.4535 101.378 96.2641 101.633C96.0771 101.887 95.8155 102.086 95.4793 102.23C95.1455 102.374 94.7584 102.447 94.3181 102.447C93.7073 102.447 93.2089 102.316 92.823 102.056C92.4371 101.793 92.2004 101.42 92.1128 100.937L93.1391 100.781C93.203 101.049 93.3344 101.251 93.5333 101.388C93.7321 101.523 93.9914 101.591 94.311 101.591C94.659 101.591 94.9371 101.519 95.1455 101.374C95.3538 101.227 95.458 101.049 95.458 100.838C95.458 100.668 95.3941 100.524 95.2662 100.408C95.1407 100.292 94.9478 100.205 94.6874 100.146L93.7641 99.9431C93.2551 99.8271 92.8787 99.6424 92.6348 99.3891C92.3933 99.1358 92.2726 98.815 92.2726 98.4268C92.2726 98.1048 92.3626 97.8231 92.5425 97.5816C92.7224 97.3401 92.971 97.1519 93.2882 97.017C93.6055 96.8797 93.9689 96.811 94.3784 96.811C94.9679 96.811 95.4319 96.9388 95.7705 97.1945C96.109 97.4478 96.3327 97.7876 96.4416 98.2137ZM102.908 96.882V97.7343H99.9289V96.882H102.908ZM100.728 95.5752H101.79V100.735C101.79 100.941 101.82 101.096 101.882 101.2C101.944 101.302 102.023 101.372 102.12 101.41C102.219 101.445 102.327 101.463 102.443 101.463C102.528 101.463 102.603 101.457 102.667 101.445C102.731 101.433 102.78 101.424 102.816 101.417L103.008 102.294C102.946 102.318 102.859 102.341 102.745 102.365C102.631 102.391 102.489 102.405 102.319 102.408C102.039 102.412 101.779 102.363 101.538 102.258C101.296 102.154 101.101 101.993 100.952 101.775C100.802 101.558 100.728 101.284 100.728 100.955V95.5752ZM104.754 104.382C104.595 104.382 104.451 104.369 104.321 104.343C104.191 104.319 104.093 104.293 104.03 104.265L104.285 103.395C104.479 103.447 104.652 103.469 104.804 103.462C104.955 103.455 105.089 103.398 105.205 103.292C105.323 103.185 105.427 103.011 105.517 102.77L105.649 102.408L103.653 96.882H104.789L106.171 101.115H106.228L107.609 96.882H108.749L106.501 103.065C106.397 103.349 106.264 103.589 106.103 103.785C105.942 103.984 105.751 104.133 105.528 104.233C105.306 104.332 105.048 104.382 104.754 104.382ZM109.747 104.382V96.882H110.784V97.7663H110.873C110.934 97.6526 111.023 97.5212 111.139 97.3721C111.255 97.2229 111.416 97.0927 111.622 96.9814C111.828 96.8678 112.1 96.811 112.439 96.811C112.879 96.811 113.272 96.9223 113.618 97.1448C113.963 97.3673 114.234 97.6881 114.431 98.1072C114.63 98.5262 114.729 99.0305 114.729 99.6199C114.729 100.209 114.631 100.715 114.434 101.136C114.238 101.555 113.968 101.878 113.625 102.106C113.281 102.331 112.89 102.443 112.449 102.443C112.118 102.443 111.847 102.387 111.636 102.276C111.428 102.165 111.264 102.035 111.146 101.886C111.028 101.736 110.936 101.604 110.873 101.488H110.809V104.382H109.747ZM110.787 99.6093C110.787 99.9928 110.843 100.329 110.954 100.618C111.066 100.907 111.226 101.133 111.437 101.296C111.648 101.457 111.906 101.538 112.211 101.538C112.529 101.538 112.794 101.454 113.007 101.285C113.22 101.115 113.381 100.884 113.49 100.593C113.601 100.302 113.657 99.9739 113.657 99.6093C113.657 99.2494 113.602 98.9263 113.493 98.6398C113.387 98.3534 113.226 98.1273 113.01 97.9616C112.797 97.7958 112.531 97.713 112.211 97.713C111.904 97.713 111.643 97.7923 111.43 97.9509C111.219 98.1095 111.06 98.3309 110.951 98.615C110.842 98.8991 110.787 99.2305 110.787 99.6093ZM115.919 102.337V96.882H116.981V102.337H115.919ZM116.455 96.0404C116.27 96.0404 116.112 95.9788 115.979 95.8557C115.849 95.7303 115.784 95.5811 115.784 95.4083C115.784 95.2331 115.849 95.084 115.979 94.9609C116.112 94.8354 116.27 94.7726 116.455 94.7726C116.64 94.7726 116.797 94.8354 116.927 94.9609C117.06 95.084 117.126 95.2331 117.126 95.4083C117.126 95.5811 117.06 95.7303 116.927 95.8557C116.797 95.9788 116.64 96.0404 116.455 96.0404ZM119.471 99.0979V102.337H118.409V96.882H119.428V97.7698H119.496C119.621 97.481 119.818 97.249 120.085 97.0738C120.355 96.8986 120.695 96.811 121.104 96.811C121.476 96.811 121.801 96.8891 122.081 97.0454C122.36 97.1993 122.577 97.4289 122.731 97.7343C122.885 98.0397 122.962 98.4173 122.962 98.8671V102.337H121.9V98.9949C121.9 98.5996 121.797 98.2906 121.591 98.0681C121.385 97.8432 121.102 97.7307 120.742 97.7307C120.496 97.7307 120.277 97.784 120.085 97.8905C119.896 97.9971 119.745 98.1533 119.634 98.3593C119.525 98.5629 119.471 98.8091 119.471 99.0979ZM126.672 104.496C126.239 104.496 125.866 104.439 125.554 104.325C125.244 104.212 124.99 104.061 124.794 103.874C124.597 103.687 124.451 103.482 124.354 103.26L125.266 102.883C125.33 102.988 125.415 103.098 125.522 103.214C125.631 103.332 125.778 103.433 125.962 103.516C126.149 103.598 126.39 103.64 126.683 103.64C127.086 103.64 127.418 103.542 127.681 103.345C127.944 103.151 128.075 102.841 128.075 102.415V101.342H128.008C127.944 101.458 127.851 101.587 127.731 101.729C127.612 101.871 127.449 101.994 127.241 102.099C127.032 102.203 126.761 102.255 126.427 102.255C125.997 102.255 125.608 102.154 125.263 101.953C124.919 101.749 124.647 101.45 124.446 101.055C124.247 100.657 124.148 100.168 124.148 99.588C124.148 99.008 124.246 98.5108 124.442 98.0965C124.641 97.6822 124.913 97.365 125.259 97.1448C125.605 96.9223 125.997 96.811 126.435 96.811C126.773 96.811 127.047 96.8678 127.255 96.9814C127.463 97.0927 127.625 97.2229 127.741 97.3721C127.86 97.5212 127.951 97.6526 128.015 97.7663H128.093V96.882H129.133V102.457C129.133 102.926 129.024 103.311 128.807 103.611C128.589 103.912 128.294 104.135 127.922 104.279C127.553 104.423 127.136 104.496 126.672 104.496ZM126.662 101.374C126.967 101.374 127.225 101.303 127.436 101.161C127.649 101.017 127.81 100.811 127.919 100.543C128.03 100.273 128.086 99.9502 128.086 99.5738C128.086 99.2068 128.031 98.8837 127.922 98.6043C127.814 98.325 127.654 98.1072 127.443 97.9509C127.232 97.7923 126.972 97.713 126.662 97.713C126.342 97.713 126.076 97.7958 125.863 97.9616C125.65 98.1249 125.489 98.3475 125.38 98.6292C125.273 98.9109 125.22 99.2258 125.22 99.5738C125.22 99.9313 125.274 100.245 125.383 100.515C125.492 100.785 125.653 100.995 125.866 101.147C126.082 101.298 126.347 101.374 126.662 101.374ZM131.257 102.404C131.063 102.404 130.896 102.335 130.756 102.198C130.617 102.058 130.547 101.89 130.547 101.694C130.547 101.5 130.617 101.334 130.756 101.197C130.896 101.057 131.063 100.987 131.257 100.987C131.451 100.987 131.618 101.057 131.758 101.197C131.897 101.334 131.967 101.5 131.967 101.694C131.967 101.824 131.934 101.944 131.868 102.052C131.804 102.159 131.719 102.244 131.612 102.308C131.506 102.372 131.387 102.404 131.257 102.404ZM134.089 102.404C133.895 102.404 133.728 102.335 133.588 102.198C133.449 102.058 133.379 101.89 133.379 101.694C133.379 101.5 133.449 101.334 133.588 101.197C133.728 101.057 133.895 100.987 134.089 100.987C134.283 100.987 134.45 101.057 134.59 101.197C134.729 101.334 134.799 101.5 134.799 101.694C134.799 101.824 134.766 101.944 134.7 102.052C134.636 102.159 134.551 102.244 134.444 102.308C134.338 102.372 134.219 102.404 134.089 102.404ZM136.921 102.404C136.727 102.404 136.56 102.335 136.42 102.198C136.281 102.058 136.211 101.89 136.211 101.694C136.211 101.5 136.281 101.334 136.42 101.197C136.56 101.057 136.727 100.987 136.921 100.987C137.115 100.987 137.282 101.057 137.422 101.197C137.561 101.334 137.631 101.5 137.631 101.694C137.631 101.824 137.598 101.944 137.532 102.052C137.468 102.159 137.383 102.244 137.276 102.308C137.17 102.372 137.051 102.404 136.921 102.404Z" fill="#39414E"/>
<g filter="url(#filter1_dddd_1_1918)">
<rect x="17" y="115" width="196" height="33" rx="16.4881" fill="white"/>
<rect x="16.7802" y="114.78" width="196.44" height="33.4397" rx="16.7079" stroke="#E7E6EB" stroke-width="0.439683"/>
</g>
<path d="M32.718 127.98V127.082H38.9907V127.98H36.3608V135.446H35.348V127.98H32.718ZM40.3251 137.798C40.1618 137.798 40.0161 137.784 39.8881 137.757C39.7602 137.733 39.6717 137.708 39.6227 137.684L39.8677 136.834C40.1019 136.894 40.3088 136.916 40.4885 136.899C40.6681 136.883 40.8274 136.803 40.9663 136.658C41.1078 136.517 41.2372 136.287 41.3542 135.968L41.5339 135.478L39.2143 129.173H40.2598L41.9913 134.171H42.0566L43.7882 129.173H44.8336L42.171 136.36C42.0512 136.684 41.9028 136.953 41.7259 137.165C41.5489 137.38 41.3433 137.539 41.1092 137.643C40.8778 137.746 40.6164 137.798 40.3251 137.798ZM46.1057 137.798V129.173H47.0368V130.169H47.1512C47.222 130.06 47.32 129.922 47.4452 129.753C47.5732 129.581 47.7556 129.429 47.9925 129.295C48.232 129.159 48.556 129.091 48.9644 129.091C49.4926 129.091 49.9581 129.223 50.3611 129.487C50.764 129.751 51.0785 130.126 51.3044 130.61C51.5304 131.095 51.6434 131.667 51.6434 132.326C51.6434 132.99 51.5304 133.566 51.3044 134.053C51.0785 134.538 50.7654 134.913 50.3651 135.18C49.9649 135.444 49.5035 135.576 48.9807 135.576C48.5778 135.576 48.2552 135.51 48.0129 135.376C47.7706 135.24 47.5841 135.086 47.4534 134.915C47.3227 134.74 47.222 134.596 47.1512 134.482H47.0695V137.798H46.1057ZM47.0532 132.309C47.0532 132.783 47.1226 133.201 47.2615 133.563C47.4003 133.922 47.6031 134.204 47.8699 134.408C48.1367 134.61 48.4635 134.711 48.8501 134.711C49.253 134.711 49.5892 134.604 49.8588 134.392C50.131 134.177 50.3352 133.888 50.4713 133.526C50.6102 133.161 50.6796 132.756 50.6796 132.309C50.6796 131.868 50.6115 131.471 50.4754 131.117C50.342 130.76 50.1392 130.478 49.8669 130.271C49.5974 130.062 49.2584 129.957 48.8501 129.957C48.458 129.957 48.1286 130.056 47.8618 130.255C47.595 130.451 47.3935 130.726 47.2574 131.08C47.1212 131.431 47.0532 131.841 47.0532 132.309ZM55.7435 135.576C55.1391 135.576 54.6177 135.443 54.1794 135.176C53.7438 134.907 53.4076 134.531 53.1707 134.049C52.9366 133.564 52.8195 133.001 52.8195 132.358C52.8195 131.716 52.9366 131.149 53.1707 130.659C53.4076 130.167 53.737 129.783 54.159 129.508C54.5837 129.23 55.0792 129.091 55.6455 129.091C55.9722 129.091 56.2948 129.146 56.6134 129.255C56.9319 129.363 57.2219 129.54 57.4832 129.785C57.7446 130.028 57.9529 130.349 58.108 130.749C58.2632 131.149 58.3408 131.642 58.3408 132.228V132.636H53.5056V131.803H57.3607C57.3607 131.449 57.2899 131.133 57.1483 130.855C57.0095 130.578 56.8108 130.359 56.5521 130.198C56.2962 130.037 55.994 129.957 55.6455 129.957C55.2616 129.957 54.9295 130.052 54.6491 130.243C54.3714 130.431 54.1576 130.676 54.0079 130.978C53.8582 131.28 53.7833 131.604 53.7833 131.95V132.505C53.7833 132.979 53.865 133.381 54.0283 133.71C54.1944 134.037 54.4244 134.286 54.7185 134.457C55.0125 134.626 55.3542 134.711 55.7435 134.711C55.9967 134.711 56.2254 134.675 56.4296 134.604C56.6365 134.531 56.8148 134.422 56.9646 134.278C57.1143 134.131 57.23 133.948 57.3117 133.73L58.2428 133.992C58.1448 134.308 57.9801 134.585 57.7487 134.825C57.5173 135.062 57.2314 135.247 56.8911 135.38C56.5508 135.511 56.1682 135.576 55.7435 135.576ZM67.4845 130.578L66.6187 130.823C66.5642 130.678 66.4839 130.538 66.3778 130.402C66.2743 130.263 66.1327 130.149 65.953 130.059C65.7733 129.969 65.5433 129.924 65.2629 129.924C64.879 129.924 64.5591 130.013 64.3032 130.19C64.05 130.364 63.9234 130.586 63.9234 130.855C63.9234 131.095 64.0105 131.284 64.1847 131.423C64.359 131.562 64.6312 131.678 65.0015 131.77L65.9326 131.999C66.4935 132.135 66.9114 132.343 67.1863 132.624C67.4613 132.901 67.5988 133.259 67.5988 133.698C67.5988 134.057 67.4954 134.378 67.2884 134.661C67.0843 134.945 66.7984 135.168 66.4308 135.331C66.0633 135.495 65.6359 135.576 65.1485 135.576C64.5087 135.576 63.9792 135.437 63.5599 135.16C63.1407 134.882 62.8752 134.476 62.7636 133.943L63.6784 133.714C63.7655 134.052 63.9302 134.305 64.1725 134.474C64.4175 134.642 64.7374 134.727 65.1322 134.727C65.5814 134.727 65.9381 134.632 66.2021 134.441C66.469 134.248 66.6024 134.016 66.6024 133.747C66.6024 133.529 66.5261 133.347 66.3737 133.199C66.2212 133.05 65.9871 132.938 65.6713 132.865L64.6258 132.62C64.0513 132.483 63.6294 132.272 63.3598 131.987C63.093 131.698 62.9596 131.337 62.9596 130.904C62.9596 130.55 63.059 130.237 63.2577 129.965C63.4592 129.693 63.7328 129.479 64.0786 129.324C64.4271 129.169 64.8218 129.091 65.2629 129.091C65.8836 129.091 66.3709 129.227 66.7249 129.5C67.0815 129.772 67.3347 130.131 67.4845 130.578ZM71.5979 135.576C71.0316 135.576 70.5347 135.442 70.1073 135.172C69.6826 134.902 69.3504 134.525 69.1108 134.041C68.874 133.556 68.7555 132.99 68.7555 132.342C68.7555 131.688 68.874 131.118 69.1108 130.631C69.3504 130.143 69.6826 129.765 70.1073 129.495C70.5347 129.226 71.0316 129.091 71.5979 129.091C72.1642 129.091 72.6597 129.226 73.0844 129.495C73.5118 129.765 73.844 130.143 74.0808 130.631C74.3204 131.118 74.4402 131.688 74.4402 132.342C74.4402 132.99 74.3204 133.556 74.0808 134.041C73.844 134.525 73.5118 134.902 73.0844 135.172C72.6597 135.442 72.1642 135.576 71.5979 135.576ZM71.5979 134.711C72.028 134.711 72.382 134.6 72.6597 134.38C72.9374 134.159 73.1429 133.869 73.2763 133.51C73.4097 133.15 73.4764 132.761 73.4764 132.342C73.4764 131.923 73.4097 131.532 73.2763 131.17C73.1429 130.808 72.9374 130.515 72.6597 130.292C72.382 130.069 72.028 129.957 71.5979 129.957C71.1677 129.957 70.8138 130.069 70.5361 130.292C70.2584 130.515 70.0528 130.808 69.9194 131.17C69.786 131.532 69.7193 131.923 69.7193 132.342C69.7193 132.761 69.786 133.15 69.9194 133.51C70.0528 133.869 70.2584 134.159 70.5361 134.38C70.8138 134.6 71.1677 134.711 71.5979 134.711ZM75.9114 135.446V129.173H76.8425V130.153H76.9242C77.0549 129.818 77.2659 129.558 77.5572 129.373C77.8485 129.185 78.1983 129.091 78.6067 129.091C79.0205 129.091 79.3649 129.185 79.6399 129.373C79.9176 129.558 80.1341 129.818 80.2892 130.153H80.3546C80.5152 129.829 80.7562 129.572 81.0774 129.381C81.3987 129.188 81.7839 129.091 82.2331 129.091C82.794 129.091 83.2527 129.267 83.6094 129.618C83.966 129.966 84.1444 130.51 84.1444 131.247V135.446H83.1806V131.247C83.1806 130.785 83.054 130.454 82.8008 130.255C82.5476 130.056 82.2495 129.957 81.9064 129.957C81.4654 129.957 81.1237 130.09 80.8814 130.357C80.6391 130.621 80.5179 130.956 80.5179 131.362V135.446H79.5378V131.149C79.5378 130.793 79.4221 130.506 79.1907 130.288C78.9593 130.067 78.6612 129.957 78.2963 129.957C78.0459 129.957 77.8117 130.024 77.5939 130.157C77.3788 130.29 77.2046 130.476 77.0712 130.712C76.9405 130.947 76.8752 131.217 76.8752 131.525V135.446H75.9114ZM88.5365 135.576C87.9321 135.576 87.4107 135.443 86.9724 135.176C86.5368 134.907 86.2006 134.531 85.9637 134.049C85.7296 133.564 85.6125 133.001 85.6125 132.358C85.6125 131.716 85.7296 131.149 85.9637 130.659C86.2006 130.167 86.53 129.783 86.952 129.508C87.3767 129.23 87.8722 129.091 88.4385 129.091C88.7652 129.091 89.0878 129.146 89.4063 129.255C89.7249 129.363 90.0148 129.54 90.2762 129.785C90.5376 130.028 90.7458 130.349 90.901 130.749C91.0562 131.149 91.1338 131.642 91.1338 132.228V132.636H86.2986V131.803H90.1537C90.1537 131.449 90.0829 131.133 89.9413 130.855C89.8025 130.578 89.6037 130.359 89.3451 130.198C89.0892 130.037 88.787 129.957 88.4385 129.957C88.0546 129.957 87.7224 130.052 87.442 130.243C87.1643 130.431 86.9506 130.676 86.8009 130.978C86.6511 131.28 86.5763 131.604 86.5763 131.95V132.505C86.5763 132.979 86.6579 133.381 86.8213 133.71C86.9874 134.037 87.2174 134.286 87.5115 134.457C87.8055 134.626 88.1472 134.711 88.5365 134.711C88.7897 134.711 89.0184 134.675 89.2226 134.604C89.4295 134.531 89.6078 134.422 89.7575 134.278C89.9073 134.131 90.023 133.948 90.1047 133.73L91.0358 133.992C90.9378 134.308 90.7731 134.585 90.5416 134.825C90.3102 135.062 90.0244 135.247 89.684 135.38C89.3437 135.511 88.9612 135.576 88.5365 135.576ZM95.3279 129.173V129.99H92.0771V129.173H95.3279ZM93.0246 127.67H93.9884V133.649C93.9884 133.921 94.0278 134.125 94.1068 134.261C94.1885 134.395 94.2919 134.485 94.4172 134.531C94.5451 134.574 94.6799 134.596 94.8215 134.596C94.9276 134.596 95.0148 134.591 95.0828 134.58C95.1509 134.566 95.2053 134.555 95.2462 134.547L95.4422 135.413C95.3769 135.437 95.2857 135.462 95.1686 135.486C95.0515 135.514 94.9031 135.527 94.7235 135.527C94.4512 135.527 94.1844 135.469 93.923 135.352C93.6644 135.235 93.4493 135.056 93.2778 134.817C93.109 134.577 93.0246 134.275 93.0246 133.91V127.67ZM97.8762 131.672V135.446H96.9124V127.082H97.8762V130.153H97.9578C98.1048 129.829 98.3254 129.572 98.6194 129.381C98.9162 129.188 99.3109 129.091 99.8037 129.091C100.231 129.091 100.605 129.177 100.927 129.348C101.248 129.517 101.497 129.777 101.674 130.128C101.854 130.477 101.944 130.921 101.944 131.46V135.446H100.98V131.525C100.98 131.027 100.851 130.642 100.592 130.369C100.336 130.094 99.9807 129.957 99.526 129.957C99.2102 129.957 98.9271 130.024 98.6766 130.157C98.4288 130.29 98.2328 130.485 98.0885 130.741C97.9469 130.997 97.8762 131.307 97.8762 131.672ZM103.707 135.446V129.173H104.671V135.446H103.707ZM104.197 128.127C104.009 128.127 103.847 128.063 103.711 127.935C103.577 127.808 103.511 127.654 103.511 127.474C103.511 127.294 103.577 127.14 103.711 127.013C103.847 126.885 104.009 126.821 104.197 126.821C104.385 126.821 104.545 126.885 104.679 127.013C104.815 127.14 104.883 127.294 104.883 127.474C104.883 127.654 104.815 127.808 104.679 127.935C104.545 128.063 104.385 128.127 104.197 128.127ZM107.4 131.672V135.446H106.436V129.173H107.367V130.153H107.449C107.596 129.834 107.819 129.579 108.118 129.385C108.418 129.189 108.804 129.091 109.278 129.091C109.703 129.091 110.074 129.178 110.393 129.353C110.712 129.524 110.959 129.785 111.136 130.137C111.313 130.485 111.402 130.926 111.402 131.46V135.446H110.438V131.525C110.438 131.032 110.31 130.648 110.054 130.373C109.798 130.096 109.447 129.957 109 129.957C108.693 129.957 108.418 130.024 108.176 130.157C107.936 130.29 107.747 130.485 107.608 130.741C107.469 130.997 107.4 131.307 107.4 131.672ZM115.695 137.929C115.229 137.929 114.829 137.869 114.494 137.749C114.159 137.632 113.88 137.477 113.657 137.283C113.436 137.093 113.261 136.889 113.13 136.671L113.898 136.132C113.985 136.246 114.095 136.377 114.229 136.524C114.362 136.673 114.545 136.803 114.776 136.912C115.01 137.023 115.316 137.079 115.695 137.079C116.201 137.079 116.619 136.957 116.949 136.712C117.278 136.467 117.443 136.083 117.443 135.56V134.286H117.361C117.29 134.4 117.189 134.542 117.059 134.711C116.931 134.877 116.746 135.025 116.503 135.156C116.264 135.284 115.94 135.348 115.531 135.348C115.025 135.348 114.57 135.228 114.167 134.988C113.767 134.749 113.45 134.4 113.216 133.943C112.985 133.485 112.869 132.93 112.869 132.277C112.869 131.634 112.982 131.075 113.208 130.598C113.434 130.119 113.748 129.749 114.151 129.487C114.554 129.223 115.02 129.091 115.548 129.091C115.956 129.091 116.28 129.159 116.52 129.295C116.762 129.429 116.947 129.581 117.075 129.753C117.206 129.922 117.307 130.06 117.377 130.169H117.475V129.173H118.406V135.625C118.406 136.164 118.284 136.603 118.039 136.94C117.797 137.281 117.47 137.53 117.059 137.688C116.65 137.848 116.196 137.929 115.695 137.929ZM115.662 134.482C116.049 134.482 116.375 134.393 116.642 134.216C116.909 134.039 117.112 133.785 117.251 133.453C117.39 133.121 117.459 132.723 117.459 132.26C117.459 131.808 117.391 131.409 117.255 131.064C117.119 130.718 116.917 130.447 116.65 130.251C116.384 130.055 116.054 129.957 115.662 129.957C115.254 129.957 114.913 130.06 114.641 130.267C114.372 130.474 114.169 130.752 114.033 131.1C113.899 131.449 113.833 131.836 113.833 132.26C113.833 132.696 113.901 133.081 114.037 133.416C114.176 133.748 114.38 134.009 114.649 134.2C114.922 134.388 115.259 134.482 115.662 134.482ZM120.873 135.511C120.672 135.511 120.499 135.439 120.354 135.294C120.21 135.15 120.138 134.977 120.138 134.776C120.138 134.574 120.21 134.401 120.354 134.257C120.499 134.113 120.672 134.041 120.873 134.041C121.075 134.041 121.247 134.113 121.392 134.257C121.536 134.401 121.608 134.574 121.608 134.776C121.608 134.909 121.574 135.032 121.506 135.143C121.441 135.255 121.352 135.345 121.241 135.413C121.132 135.478 121.009 135.511 120.873 135.511ZM124.04 135.511C123.839 135.511 123.666 135.439 123.521 135.294C123.377 135.15 123.305 134.977 123.305 134.776C123.305 134.574 123.377 134.401 123.521 134.257C123.666 134.113 123.839 134.041 124.04 134.041C124.242 134.041 124.414 134.113 124.559 134.257C124.703 134.401 124.775 134.574 124.775 134.776C124.775 134.909 124.741 135.032 124.673 135.143C124.608 135.255 124.519 135.345 124.408 135.413C124.299 135.478 124.176 135.511 124.04 135.511ZM127.207 135.511C127.006 135.511 126.833 135.439 126.688 135.294C126.544 135.15 126.472 134.977 126.472 134.776C126.472 134.574 126.544 134.401 126.688 134.257C126.833 134.113 127.006 134.041 127.207 134.041C127.409 134.041 127.581 134.113 127.726 134.257C127.87 134.401 127.942 134.574 127.942 134.776C127.942 134.909 127.908 135.032 127.84 135.143C127.775 135.255 127.686 135.345 127.575 135.413C127.466 135.478 127.343 135.511 127.207 135.511Z" fill="#94A3B8"/>
<circle cx="196.366" cy="131.512" r="12.3661" fill="#EDF1F7"/>
<path d="M193.234 130.886L196.297 127.823M196.297 127.823L199.36 130.886M196.297 127.823V135.174" stroke="#667085" stroke-width="1.22516" stroke-linecap="round" stroke-linejoin="round"/>
<defs>
<filter id="filter0_ddd_1_1918" x="16.1596" y="90.2639" width="34.6529" height="22.4736" filterUnits="userSpaceOnUse" color-interpolation-filters="sRGB">
<feFlood flood-opacity="0" result="BackgroundImageFix"/>
<feColorMatrix in="SourceAlpha" type="matrix" values="0 0 0 0 0 0 0 0 0 0 0 0 0 0 0 0 0 0 127 0" result="hardAlpha"/>
<feOffset dy="0.776957"/>
<feGaussianBlur stdDeviation="0.310783"/>
<feColorMatrix type="matrix" values="0 0 0 0 0 0 0 0 0 0 0 0 0 0 0 0 0 0 0.0196802 0"/>
<feBlend mode="normal" in2="BackgroundImageFix" result="effect1_dropShadow_1_1918"/>
<feColorMatrix in="SourceAlpha" type="matrix" values="0 0 0 0 0 0 0 0 0 0 0 0 0 0 0 0 0 0 127 0" result="hardAlpha"/>
<feOffset dy="1.86714"/>
<feGaussianBlur stdDeviation="0.746855"/>
<feColorMatrix type="matrix" values="0 0 0 0 0 0 0 0 0 0 0 0 0 0 0 0 0 0 0.0282725 0"/>
<feBlend mode="normal" in2="effect1_dropShadow_1_1918" result="effect2_dropShadow_1_1918"/>
<feColorMatrix in="SourceAlpha" type="matrix" values="0 0 0 0 0 0 0 0 0 0 0 0 0 0 0 0 0 0 127 0" result="hardAlpha"/>
<feOffset dy="3.51565"/>
<feGaussianBlur stdDeviation="1.40626"/>
<feColorMatrix type="matrix" values="0 0 0 0 0 0 0 0 0 0 0 0 0 0 0 0 0 0 0.035 0"/>
<feBlend mode="normal" in2="effect2_dropShadow_1_1918" result="effect3_dropShadow_1_1918"/>
<feBlend mode="normal" in="SourceGraphic" in2="effect3_dropShadow_1_1918" result="shape"/>
</filter>
<filter id="filter1_dddd_1_1918" x="10.3949" y="114.56" width="209.21" height="47.7515" filterUnits="userSpaceOnUse" color-interpolation-filters="sRGB">
<feFlood flood-opacity="0" result="BackgroundImageFix"/>
<feColorMatrix in="SourceAlpha" type="matrix" values="0 0 0 0 0 0 0 0 0 0 0 0 0 0 0 0 0 0 127 0" result="hardAlpha"/>
<feOffset dy="0.95479"/>
<feGaussianBlur stdDeviation="0.381916"/>
<feColorMatrix type="matrix" values="0 0 0 0 0 0 0 0 0 0 0 0 0 0 0 0 0 0 0.0196802 0"/>
<feBlend mode="normal" in2="BackgroundImageFix" result="effect1_dropShadow_1_1918"/>
<feColorMatrix in="SourceAlpha" type="matrix" values="0 0 0 0 0 0 0 0 0 0 0 0 0 0 0 0 0 0 127 0" result="hardAlpha"/>
<feOffset dy="2.29449"/>
<feGaussianBlur stdDeviation="0.917797"/>
<feColorMatrix type="matrix" values="0 0 0 0 0 0 0 0 0 0 0 0 0 0 0 0 0 0 0.0282725 0"/>
<feBlend mode="normal" in2="effect1_dropShadow_1_1918" result="effect2_dropShadow_1_1918"/>
<feColorMatrix in="SourceAlpha" type="matrix" values="0 0 0 0 0 0 0 0 0 0 0 0 0 0 0 0 0 0 127 0" result="hardAlpha"/>
<feOffset dy="4.32033"/>
<feGaussianBlur stdDeviation="1.72813"/>
<feColorMatrix type="matrix" values="0 0 0 0 0 0 0 0 0 0 0 0 0 0 0 0 0 0 0.035 0"/>
<feBlend mode="normal" in2="effect2_dropShadow_1_1918" result="effect3_dropShadow_1_1918"/>
<feColorMatrix in="SourceAlpha" type="matrix" values="0 0 0 0 0 0 0 0 0 0 0 0 0 0 0 0 0 0 127 0" result="hardAlpha"/>
<feOffset dy="7.70672"/>
<feGaussianBlur stdDeviation="3.08269"/>
<feColorMatrix type="matrix" values="0 0 0 0 0 0 0 0 0 0 0 0 0 0 0 0 0 0 0.0417275 0"/>
<feBlend mode="normal" in2="effect3_dropShadow_1_1918" result="effect4_dropShadow_1_1918"/>
<feBlend mode="normal" in="SourceGraphic" in2="effect4_dropShadow_1_1918" result="shape"/>
</filter>
<linearGradient id="paint0_linear_1_1918" x1="18.7845" y1="98.3366" x2="48" y2="98.3366" gradientUnits="userSpaceOnUse">
<stop stop-color="#00B3EC"/>
<stop offset="1" stop-color="#00A5EC"/>
</linearGradient>
</defs>
</svg>
