<svg width="179" height="131" viewBox="0 0 179 131" fill="none" xmlns="http://www.w3.org/2000/svg" style="cursor: pointer;">
<g filter="url(#filter0_d_52_1871)">
<rect x="35" y="58" width="109" height="36" rx="18" fill="#9951F5" stroke="#D8BCFB" stroke-width="4"/>
<path d="M54.1186 81V70.8182H57.7479C58.5367 70.8182 59.1913 70.9541 59.7116 71.2259C60.2353 71.4976 60.6264 71.8738 60.8849 72.3544C61.1435 72.8317 61.2727 73.3835 61.2727 74.0099C61.2727 74.633 61.1418 75.1816 60.88 75.6555C60.6214 76.1262 60.2304 76.4924 59.7067 76.7543C59.1863 77.0161 58.5317 77.147 57.7429 77.147H54.9936V75.8246H57.6037C58.1009 75.8246 58.5052 75.7533 58.8168 75.6108C59.1316 75.4683 59.362 75.2611 59.5078 74.9893C59.6536 74.7176 59.7266 74.3911 59.7266 74.0099C59.7266 73.6255 59.652 73.2924 59.5028 73.0107C59.357 72.7289 59.1267 72.5135 58.8118 72.3643C58.5002 72.2119 58.0909 72.1357 57.5838 72.1357H55.6548V81H54.1186ZM59.1449 76.4062L61.6605 81H59.9105L57.4446 76.4062H59.1449ZM66.2182 81.1541C65.4658 81.1541 64.8179 80.9934 64.2743 80.6719C63.7341 80.3471 63.3165 79.8913 63.0215 79.3047C62.7298 78.7147 62.584 78.0237 62.584 77.2315C62.584 76.4493 62.7298 75.7599 63.0215 75.1634C63.3165 74.5668 63.7275 74.1011 64.2544 73.7663C64.7847 73.4316 65.4045 73.2642 66.1138 73.2642C66.5447 73.2642 66.9623 73.3355 67.3667 73.478C67.771 73.6205 68.1339 73.8442 68.4554 74.1491C68.7769 74.4541 69.0305 74.8501 69.2161 75.3374C69.4017 75.8213 69.4945 76.4096 69.4945 77.1023V77.6293H63.4242V76.5156H68.0378C68.0378 76.1245 67.9583 75.7782 67.7992 75.4766C67.6401 75.1716 67.4164 74.9313 67.128 74.7557C66.843 74.58 66.5082 74.4922 66.1238 74.4922C65.7061 74.4922 65.3416 74.5949 65.03 74.8004C64.7218 75.0026 64.4831 75.2678 64.3141 75.5959C64.1484 75.9207 64.0655 76.2737 64.0655 76.6548V77.5249C64.0655 78.0353 64.155 78.4695 64.334 78.8274C64.5163 79.1854 64.7698 79.4588 65.0946 79.6477C65.4194 79.8333 65.7989 79.9261 66.2331 79.9261C66.5149 79.9261 66.7717 79.8864 67.0037 79.8068C67.2357 79.724 67.4363 79.6013 67.6053 79.4389C67.7743 79.2765 67.9036 79.076 67.9931 78.8374L69.4 79.0909C69.2873 79.5052 69.0852 79.8681 68.7935 80.1797C68.5051 80.4879 68.1422 80.7282 67.7047 80.9006C67.2705 81.0696 66.775 81.1541 66.2182 81.1541ZM74.7781 73.3636V74.5568H70.4627V73.3636H74.7781ZM71.646 81V72.4787C71.646 72.0014 71.7504 71.6053 71.9592 71.2905C72.168 70.9723 72.4447 70.7353 72.7894 70.5795C73.1341 70.4205 73.5086 70.3409 73.913 70.3409C74.2113 70.3409 74.4665 70.3658 74.6786 70.4155C74.8907 70.4619 75.0482 70.505 75.1509 70.5447L74.8029 71.7479C74.7333 71.728 74.6438 71.7048 74.5344 71.6783C74.4251 71.6484 74.2925 71.6335 74.1367 71.6335C73.7754 71.6335 73.5169 71.723 73.3612 71.902C73.2087 72.081 73.1325 72.3395 73.1325 72.6776V81H71.646ZM76.3118 81V73.3636H77.7486V74.5767H77.8281C77.9673 74.1657 78.2126 73.8426 78.5639 73.6072C78.9186 73.3686 79.3196 73.2493 79.767 73.2493C79.8598 73.2493 79.9692 73.2526 80.0952 73.2592C80.2244 73.2659 80.3255 73.2741 80.3984 73.2841V74.706C80.3388 74.6894 80.2327 74.6712 80.0803 74.6513C79.9278 74.6281 79.7753 74.6165 79.6229 74.6165C79.2715 74.6165 78.9583 74.6911 78.6832 74.8402C78.4115 74.986 78.196 75.1899 78.0369 75.4517C77.8778 75.7102 77.7983 76.0052 77.7983 76.3366V81H76.3118ZM84.7026 81.1541C83.9502 81.1541 83.3023 80.9934 82.7587 80.6719C82.2185 80.3471 81.8008 79.8913 81.5059 79.3047C81.2142 78.7147 81.0684 78.0237 81.0684 77.2315C81.0684 76.4493 81.2142 75.7599 81.5059 75.1634C81.8008 74.5668 82.2118 74.1011 82.7388 73.7663C83.2691 73.4316 83.8889 73.2642 84.5982 73.2642C85.0291 73.2642 85.4467 73.3355 85.851 73.478C86.2554 73.6205 86.6183 73.8442 86.9398 74.1491C87.2613 74.4541 87.5149 74.8501 87.7005 75.3374C87.8861 75.8213 87.9789 76.4096 87.9789 77.1023V77.6293H81.9086V76.5156H86.5222C86.5222 76.1245 86.4426 75.7782 86.2836 75.4766C86.1245 75.1716 85.9007 74.9313 85.6124 74.7557C85.3274 74.58 84.9926 74.4922 84.6081 74.4922C84.1905 74.4922 83.8259 74.5949 83.5144 74.8004C83.2061 75.0026 82.9675 75.2678 82.7985 75.5959C82.6328 75.9207 82.5499 76.2737 82.5499 76.6548V77.5249C82.5499 78.0353 82.6394 78.4695 82.8184 78.8274C83.0007 79.1854 83.2542 79.4588 83.579 79.6477C83.9038 79.8333 84.2833 79.9261 84.7175 79.9261C84.9992 79.9261 85.2561 79.8864 85.4881 79.8068C85.7201 79.724 85.9206 79.6013 86.0897 79.4389C86.2587 79.2765 86.388 79.076 86.4775 78.8374L87.8844 79.0909C87.7717 79.5052 87.5695 79.8681 87.2779 80.1797C86.9895 80.4879 86.6266 80.7282 86.1891 80.9006C85.7549 81.0696 85.2594 81.1541 84.7026 81.1541ZM95.3505 75.228L94.0032 75.4666C93.9469 75.2943 93.8574 75.1302 93.7347 74.9744C93.6154 74.8187 93.453 74.6911 93.2475 74.5916C93.042 74.4922 92.7852 74.4425 92.4769 74.4425C92.056 74.4425 91.7047 74.5369 91.4229 74.7259C91.1412 74.9115 91.0004 75.1518 91.0004 75.4467C91.0004 75.7019 91.0948 75.9074 91.2837 76.0632C91.4727 76.219 91.7776 76.3466 92.1985 76.446L93.4116 76.7244C94.1142 76.8868 94.6379 77.1371 94.9826 77.4751C95.3273 77.8132 95.4996 78.2524 95.4996 78.7926C95.4996 79.25 95.3671 79.6577 95.1019 80.0156C94.8401 80.3703 94.4738 80.6487 94.0032 80.8509C93.5359 81.053 92.994 81.1541 92.3775 81.1541C91.5224 81.1541 90.8247 80.9718 90.2844 80.6072C89.7442 80.2393 89.4128 79.7173 89.2901 79.0412L90.7269 78.8224C90.8164 79.197 91.0004 79.4804 91.2788 79.6726C91.5572 79.8615 91.9201 79.956 92.3675 79.956C92.8548 79.956 93.2442 79.8549 93.5359 79.6527C93.8275 79.4472 93.9734 79.197 93.9734 78.902C93.9734 78.6634 93.8839 78.4628 93.7049 78.3004C93.5292 78.138 93.2591 78.0154 92.8945 77.9325L91.6019 77.6491C90.8893 77.4867 90.3623 77.2282 90.021 76.8736C89.6829 76.5189 89.5138 76.0698 89.5138 75.5263C89.5138 75.0755 89.6398 74.6811 89.8917 74.343C90.1436 74.005 90.4916 73.7415 90.9357 73.5526C91.3799 73.3603 91.8886 73.2642 92.462 73.2642C93.2873 73.2642 93.9369 73.4432 94.4109 73.8011C94.8848 74.1558 95.198 74.6314 95.3505 75.228ZM98.6206 76.4659V81H97.1341V70.8182H98.6007V74.6065H98.6951C98.8741 74.1955 99.1475 73.8691 99.5154 73.6271C99.8833 73.3852 100.364 73.2642 100.957 73.2642C101.481 73.2642 101.938 73.3719 102.329 73.5874C102.724 73.8028 103.029 74.1243 103.244 74.5518C103.463 74.9761 103.572 75.5064 103.572 76.1428V81H102.086V76.3217C102.086 75.7616 101.942 75.3274 101.653 75.0192C101.365 74.7076 100.964 74.5518 100.45 74.5518C100.099 74.5518 99.7839 74.6264 99.5055 74.7756C99.2304 74.9247 99.0133 75.1435 98.8542 75.4318C98.6984 75.7169 98.6206 76.0616 98.6206 76.4659Z" fill="white"/>
<path d="M112.667 70.6667V74H113.055M123.292 75.3333C123.144 74.1619 122.612 73.0725 121.779 72.2358C120.946 71.3992 119.859 70.8626 118.688 70.7101C117.518 70.5576 116.329 70.7979 115.31 71.3932C114.29 71.9886 113.497 72.9054 113.055 74M113.055 74H116M123.333 81.3333V78H122.946M122.946 78C122.503 79.0939 121.709 80.01 120.69 80.6049C119.67 81.1997 118.482 81.4397 117.312 81.2872C116.141 81.1348 115.055 80.5986 114.222 79.7625C113.388 78.9264 112.856 77.8376 112.708 76.6667M122.946 78H120" stroke="white" stroke-width="1.5" stroke-linecap="round" stroke-linejoin="round"/>
</g>
<defs>
<filter id="filter0_d_52_1871" x="21" y="52" width="137" height="64" filterUnits="userSpaceOnUse" color-interpolation-filters="sRGB">
<feFlood flood-opacity="0" result="BackgroundImageFix"/>
<feColorMatrix in="SourceAlpha" type="matrix" values="0 0 0 0 0 0 0 0 0 0 0 0 0 0 0 0 0 0 127 0" result="hardAlpha"/>
<feOffset dy="8"/>
<feGaussianBlur stdDeviation="6"/>
<feColorMatrix type="matrix" values="0 0 0 0 0 0 0 0 0 0 0 0 0 0 0 0 0 0 0.05 0"/>
<feBlend mode="normal" in2="BackgroundImageFix" result="effect1_dropShadow_52_1871"/>
<feBlend mode="normal" in="SourceGraphic" in2="effect1_dropShadow_52_1871" result="shape"/>
</filter>
</defs>
</svg>
