<svg width="48" height="48" viewBox="0 0 48 48" fill="none" xmlns="http://www.w3.org/2000/svg">
<path d="M24.88 3.25H11.7873C10.5991 3.25 9.47083 3.8422 8.65386 4.66655C7.8369 5.4909 7.25 6.62935 7.25 7.82831V38.6717C7.25 39.8707 7.8369 41.0091 8.65386 41.8335C9.47083 42.6578 10.5991 43.25 11.7873 43.25H34.7127C35.9009 43.25 37.0292 42.6578 37.8461 41.8335C38.6631 41.0091 39.25 39.8707 39.25 38.6717V17.7195" stroke="#03020D" stroke-width="1.5" stroke-linecap="round"/>
<path d="M27.8333 34L34.5 29L27.8333 24" stroke="#03020D" stroke-width="1.5" stroke-linecap="round" stroke-linejoin="round"/>
<path d="M18.6667 28L12 23L18.6667 18" stroke="#03020D" stroke-width="1.5" stroke-linecap="round" stroke-linejoin="round"/>
<path d="M21.25 35L25.25 16" stroke="#03020D" stroke-width="1.5" stroke-linecap="round"/>
<path fill-rule="evenodd" clip-rule="evenodd" d="M39.4877 11.5346C40.582 12.6289 39.807 14.5 38.2594 14.5L32.7149 14.5C30.1109 14.5 28 12.3891 28 9.78509L28 4.24056C28 2.69299 29.8711 1.91797 30.9654 3.01226L39.4877 11.5346Z" fill="#FF5416"/>
</svg>
