<svg width="179" height="131" viewBox="0 0 179 131" fill="none" xmlns="http://www.w3.org/2000/svg" style="cursor: pointer;">
<g opacity="0.9" filter="url(#filter0_d_52_1082)">
<rect x="13" y="61" width="121.152" height="32" rx="16" fill="white"/>
<path d="M33.7546 87.3652C28.5813 87.3652 23 84.1203 23 77C23 69.8797 28.5813 66.6348 33.7546 66.6348C36.6287 66.6348 39.2803 67.5804 41.2458 69.3049C43.3781 71.1962 44.5092 73.8663 44.5092 77C44.5092 80.1337 43.3781 82.7852 41.2458 84.6766C39.2803 86.401 36.6101 87.3652 33.7546 87.3652Z" fill="url(#paint0_radial_52_1082)"/>
<path d="M42.6345 70.8383C43.6228 72.433 44.1383 74.3317 44.1383 76.4437C44.1383 79.5774 43.0072 82.229 40.8748 84.1203C38.9093 85.8447 36.2392 86.8089 33.3837 86.8089C30.0349 86.8089 26.523 85.4461 24.45 82.5553C26.4451 85.8299 30.1981 87.3652 33.7545 87.3652C36.6101 87.3652 39.2802 86.401 41.2457 84.6766C43.3781 82.7852 44.5092 80.1337 44.5092 77C44.5092 74.6377 43.8657 72.5387 42.6345 70.8383Z" fill="#D84213"/>
<path d="M37.526 84.4615C37.463 84.4374 37.4055 84.3984 37.361 84.3465C35.5568 82.4719 32.5734 82.4144 30.6987 84.2186C30.6561 84.2612 30.6116 84.3039 30.5708 84.3465C30.5263 84.3984 30.4688 84.4374 30.4058 84.4615C30.2667 84.5134 30.1091 84.4837 29.9978 84.3854C29.8884 84.289 29.8513 84.1351 29.907 83.9998C30.4595 82.5813 32.1024 81.4687 33.9659 81.4687C35.8294 81.4687 37.4723 82.5813 38.0248 83.9979C38.0805 84.1333 38.0434 84.2872 37.934 84.3836C37.8227 84.4819 37.6651 84.5115 37.526 84.4615Z" fill="#422B0D"/>
<path d="M32.7424 78.0977C32.327 77.5748 30.6155 76.5698 29.9981 76.2768C29.7682 76.1712 29.529 76.0859 29.2842 76.0228C29.2397 76.0098 29.1915 76.0043 29.1451 76.0043C28.8985 76.0098 28.6871 76.186 28.6371 76.4289C28.5796 76.6811 28.7094 76.9407 28.9467 77.0445C29.2378 77.1873 29.7459 77.458 30.2725 77.7565C29.8331 78.018 29.5642 78.4927 29.5642 79.0044V79.2752C29.5642 80.0428 30.1872 80.6658 30.9549 80.6658C31.7225 80.6658 32.3456 80.0428 32.3456 79.2752V79.0044C32.3456 78.9933 32.3456 78.984 32.3456 78.9729C32.544 78.9599 32.722 78.8413 32.8091 78.6633C32.9 78.4778 32.874 78.2572 32.7424 78.0977Z" fill="#422B0D"/>
<path d="M39.3025 76.4289C39.2506 76.1841 39.0355 76.0098 38.7852 76.008C38.7388 76.008 38.6906 76.0135 38.6461 76.0265C38.4014 76.0877 38.1622 76.173 37.9322 76.2768C37.3148 76.5661 35.6033 77.5748 35.1879 78.094C35.0563 78.2553 35.034 78.4778 35.1268 78.6632C35.2158 78.8431 35.3919 78.9599 35.5922 78.9729V79.0044V79.2751C35.5922 80.0428 36.2152 80.6658 36.9829 80.6658C37.7505 80.6658 38.3735 80.0428 38.3735 79.2751V79.0044C38.3735 78.4945 38.1047 78.0217 37.6671 77.7602C38.1937 77.4617 38.7017 77.191 38.9929 77.0482C39.2321 76.9444 39.3637 76.6829 39.3025 76.4289Z" fill="#422B0D"/>
<path d="M30.8845 78.0291C30.6212 77.903 30.3041 78.0143 30.1762 78.2776C30.0779 78.4834 30.1224 78.73 30.2874 78.8895C30.5507 79.0156 30.8678 78.9043 30.9958 78.641C31.094 78.4352 31.0495 78.1886 30.8845 78.0291Z" fill="#896024"/>
<path d="M36.9128 78.0291C36.6495 77.903 36.3325 78.0143 36.2045 78.2776C36.1062 78.4834 36.1507 78.73 36.3158 78.8895C36.5791 79.0156 36.8961 78.9043 37.0241 78.641C37.1224 78.4352 37.0779 78.1886 36.9128 78.0291Z" fill="#896024"/>
<path d="M60.3025 87.3652C55.1291 87.3652 49.5479 84.1203 49.5479 77C49.5479 69.8797 55.1291 66.6348 60.3025 66.6348C63.1765 66.6348 65.8281 67.5804 67.7936 69.3049C69.926 71.1962 71.0571 73.8663 71.0571 77C71.0571 80.1337 69.926 82.7852 67.7936 84.6766C65.8281 86.401 63.158 87.3652 60.3025 87.3652Z" fill="url(#paint1_radial_52_1082)"/>
<path d="M69.1821 70.8383C70.1704 72.433 70.6859 74.3317 70.6859 76.4437C70.6859 79.5774 69.5548 82.229 67.4224 84.1203C65.4569 85.8447 62.7868 86.8089 59.9313 86.8089C56.5825 86.8089 53.0706 85.4461 50.9976 82.5553C52.9927 85.8299 56.7457 87.3652 60.3022 87.3652C63.1577 87.3652 65.8278 86.401 67.7933 84.6766C69.9257 82.7852 71.0568 80.1337 71.0568 77C71.0568 74.6377 70.4133 72.5387 69.1821 70.8383Z" fill="#D84213"/>
<path d="M64.0739 84.4615C64.0109 84.4374 63.9534 84.3984 63.9089 84.3465C62.1047 82.4719 59.1212 82.4144 57.2466 84.2186C57.2039 84.2612 57.1594 84.3039 57.1186 84.3465C57.0741 84.3984 57.0166 84.4374 56.9536 84.4615C56.8145 84.5134 56.6569 84.4837 56.5457 84.3854C56.4363 84.289 56.3992 84.1351 56.4548 83.9998C57.0074 82.5813 58.6502 81.4687 60.5137 81.4687C62.3773 81.4687 64.0201 82.5813 64.5727 83.9979C64.6283 84.1333 64.5912 84.2872 64.4818 84.3836C64.3706 84.4819 64.213 84.5115 64.0739 84.4615Z" fill="#422B0D"/>
<path d="M59.2902 78.0977C58.8749 77.5748 57.1634 76.5698 56.5459 76.2768C56.316 76.1712 56.0768 76.0859 55.8321 76.0228C55.7876 76.0098 55.7393 76.0043 55.693 76.0043C55.4464 76.0098 55.235 76.186 55.1849 76.4289C55.1274 76.6811 55.2572 76.9407 55.4946 77.0445C55.7857 77.1873 56.2938 77.458 56.8204 77.7565C56.3809 78.018 56.112 78.4927 56.112 79.0044V79.2752C56.112 80.0428 56.7351 80.6658 57.5027 80.6658C58.2704 80.6658 58.8934 80.0428 58.8934 79.2752V79.0044C58.8934 78.9933 58.8934 78.984 58.8934 78.9729C59.0918 78.9599 59.2698 78.8413 59.357 78.6633C59.4478 78.4778 59.4219 78.2572 59.2902 78.0977Z" fill="#422B0D"/>
<path d="M65.8504 76.4289C65.7984 76.1841 65.5834 76.0098 65.333 76.008C65.2867 76.008 65.2385 76.0135 65.194 76.0265C64.9492 76.0877 64.71 76.173 64.4801 76.2768C63.8626 76.5661 62.1512 77.5748 61.7358 78.094C61.6041 78.2553 61.5819 78.4778 61.6746 78.6632C61.7636 78.8431 61.9398 78.9599 62.14 78.9729V79.0044V79.2751C62.14 80.0428 62.7631 80.6658 63.5307 80.6658C64.2984 80.6658 64.9214 80.0428 64.9214 79.2751V79.0044C64.9214 78.4945 64.6525 78.0217 64.2149 77.7602C64.7415 77.4617 65.2496 77.191 65.5407 77.0482C65.7799 76.9444 65.9116 76.6829 65.8504 76.4289Z" fill="#422B0D"/>
<path d="M57.4319 78.0291C57.1686 77.903 56.8515 78.0143 56.7236 78.2776C56.6253 78.4834 56.6698 78.73 56.8348 78.8895C57.0981 79.0156 57.4152 78.9043 57.5431 78.641C57.6414 78.4352 57.5969 78.1886 57.4319 78.0291Z" fill="#896024"/>
<path d="M63.4602 78.0291C63.1969 77.903 62.8798 78.0143 62.7519 78.2776C62.6536 78.4834 62.6981 78.73 62.8631 78.8895C63.1264 79.0156 63.4435 78.9043 63.5714 78.641C63.6697 78.4352 63.6252 78.1886 63.4602 78.0291Z" fill="#896024"/>
<path d="M86.8498 87.3652C81.6765 87.3652 76.0952 84.1203 76.0952 77C76.0952 69.8797 81.6765 66.6348 86.8498 66.6348C89.7239 66.6348 92.3755 67.5804 94.341 69.3049C96.4733 71.1962 97.6044 73.8663 97.6044 77C97.6044 80.1337 96.4733 82.7852 94.341 84.6766C92.3755 86.401 89.7054 87.3652 86.8498 87.3652Z" fill="url(#paint2_radial_52_1082)"/>
<path d="M95.73 70.8383C96.7183 72.433 97.2338 74.3317 97.2338 76.4437C97.2338 79.5774 96.1027 82.229 93.9703 84.1203C92.0048 85.8447 89.3347 86.8089 86.4792 86.8089C83.1304 86.8089 79.6185 85.4461 77.5454 82.5553C79.5406 85.8299 83.2936 87.3652 86.85 87.3652C89.7055 87.3652 92.3756 86.401 94.3411 84.6766C96.4735 82.7852 97.6046 80.1337 97.6046 77C97.6046 74.6377 96.9612 72.5387 95.73 70.8383Z" fill="#D84213"/>
<path d="M90.6217 84.4615C90.5587 84.4374 90.5012 84.3984 90.4567 84.3465C88.6525 82.4719 85.6691 82.4144 83.7944 84.2186C83.7518 84.2612 83.7073 84.3039 83.6665 84.3465C83.622 84.3984 83.5645 84.4374 83.5015 84.4615C83.3624 84.5134 83.2048 84.4837 83.0935 84.3854C82.9841 84.289 82.947 84.1351 83.0027 83.9998C83.5552 82.5813 85.1981 81.4687 87.0616 81.4687C88.9251 81.4687 90.568 82.5813 91.1205 83.9979C91.1762 84.1333 91.1391 84.2872 91.0297 84.3836C90.9184 84.4819 90.7608 84.5115 90.6217 84.4615Z" fill="#422B0D"/>
<path d="M85.8381 78.0977C85.4227 77.5748 83.7113 76.5698 83.0938 76.2768C82.8639 76.1712 82.6247 76.0859 82.3799 76.0228C82.3354 76.0098 82.2872 76.0043 82.2408 76.0043C81.9942 76.0098 81.7828 76.186 81.7328 76.4289C81.6753 76.6811 81.8051 76.9407 82.0424 77.0445C82.3335 77.1873 82.8416 77.458 83.3682 77.7565C82.9288 78.018 82.6599 78.4927 82.6599 79.0044V79.2752C82.6599 80.0428 83.2829 80.6658 84.0506 80.6658C84.8182 80.6658 85.4413 80.0428 85.4413 79.2752V79.0044C85.4413 78.9933 85.4413 78.984 85.4413 78.9729C85.6397 78.9599 85.8177 78.8413 85.9048 78.6633C85.9957 78.4778 85.9697 78.2572 85.8381 78.0977Z" fill="#422B0D"/>
<path d="M92.3982 76.4289C92.3463 76.1841 92.1312 76.0098 91.8809 76.008C91.8345 76.008 91.7863 76.0135 91.7418 76.0265C91.4971 76.0877 91.2579 76.173 91.0279 76.2768C90.4105 76.5661 88.699 77.5748 88.2837 78.094C88.152 78.2553 88.1297 78.4778 88.2225 78.6632C88.3115 78.8431 88.4876 78.9599 88.6879 78.9729V79.0044V79.2751C88.6879 80.0428 89.3109 80.6658 90.0786 80.6658C90.8462 80.6658 91.4692 80.0428 91.4692 79.2751V79.0044C91.4692 78.4945 91.2004 78.0217 90.7628 77.7602C91.2894 77.4617 91.7974 77.191 92.0886 77.0482C92.3278 76.9444 92.4594 76.6829 92.3982 76.4289Z" fill="#422B0D"/>
<path d="M83.9797 78.0291C83.7164 77.903 83.3993 78.0143 83.2714 78.2776C83.1731 78.4834 83.2176 78.73 83.3827 78.8895C83.646 79.0156 83.963 78.9043 84.091 78.641C84.1893 78.4352 84.1448 78.1886 83.9797 78.0291Z" fill="#896024"/>
<path d="M90.008 78.0291C89.7447 77.903 89.4277 78.0143 89.2997 78.2776C89.2015 78.4834 89.246 78.73 89.411 78.8895C89.6743 79.0156 89.9914 78.9043 90.1193 78.641C90.2176 78.4352 90.1731 78.1886 90.008 78.0291Z" fill="#896024"/>
<path d="M113.398 87.3652C108.224 87.3652 102.643 84.1203 102.643 77C102.643 69.8797 108.224 66.6348 113.398 66.6348C116.272 66.6348 118.923 67.5804 120.889 69.3049C123.021 71.1962 124.152 73.8663 124.152 77C124.152 80.1337 123.021 82.7852 120.889 84.6766C118.923 86.401 116.253 87.3652 113.398 87.3652Z" fill="url(#paint3_radial_52_1082)"/>
<path d="M122.278 70.8383C123.266 72.433 123.782 74.3317 123.782 76.4437C123.782 79.5774 122.651 82.229 120.518 84.1203C118.553 85.8447 115.883 86.8089 113.027 86.8089C109.678 86.8089 106.166 85.4461 104.093 82.5553C106.088 85.8299 109.841 87.3652 113.398 87.3652C116.253 87.3652 118.923 86.401 120.889 84.6766C123.021 82.7852 124.152 80.1337 124.152 77C124.152 74.6377 123.509 72.5387 122.278 70.8383Z" fill="#D84213"/>
<path d="M117.17 84.4615C117.107 84.4374 117.049 84.3984 117.005 84.3465C115.2 82.4719 112.217 82.4144 110.342 84.2186C110.3 84.2612 110.255 84.3039 110.214 84.3465C110.17 84.3984 110.112 84.4374 110.049 84.4615C109.91 84.5134 109.753 84.4837 109.641 84.3854C109.532 84.289 109.495 84.1351 109.551 83.9998C110.103 82.5813 111.746 81.4687 113.609 81.4687C115.473 81.4687 117.116 82.5813 117.668 83.9979C117.724 84.1333 117.687 84.2872 117.578 84.3836C117.466 84.4819 117.309 84.5115 117.17 84.4615Z" fill="#422B0D"/>
<path d="M112.385 78.0977C111.97 77.5748 110.259 76.5698 109.641 76.2768C109.411 76.1712 109.172 76.0859 108.927 76.0228C108.883 76.0098 108.835 76.0043 108.788 76.0043C108.542 76.0098 108.33 76.186 108.28 76.4289C108.223 76.6811 108.352 76.9407 108.59 77.0445C108.881 77.1873 109.389 77.458 109.916 77.7565C109.476 78.018 109.207 78.4927 109.207 79.0044V79.2752C109.207 80.0428 109.83 80.6658 110.598 80.6658C111.366 80.6658 111.989 80.0428 111.989 79.2752V79.0044C111.989 78.9933 111.989 78.984 111.989 78.9729C112.187 78.9599 112.365 78.8413 112.452 78.6633C112.543 78.4778 112.517 78.2572 112.385 78.0977Z" fill="#422B0D"/>
<path d="M118.946 76.4289C118.894 76.1841 118.679 76.0098 118.428 76.008C118.382 76.008 118.334 76.0135 118.289 76.0265C118.044 76.0877 117.805 76.173 117.575 76.2768C116.958 76.5661 115.246 77.5748 114.831 78.094C114.699 78.2553 114.677 78.4778 114.77 78.6632C114.859 78.8431 115.035 78.9599 115.235 78.9729V79.0044V79.2751C115.235 80.0428 115.858 80.6658 116.626 80.6658C117.394 80.6658 118.017 80.0428 118.017 79.2751V79.0044C118.017 78.4945 117.748 78.0217 117.31 77.7602C117.837 77.4617 118.345 77.191 118.636 77.0482C118.875 76.9444 119.007 76.6829 118.946 76.4289Z" fill="#422B0D"/>
<path d="M110.528 78.0291C110.264 77.903 109.947 78.0143 109.819 78.2776C109.721 78.4834 109.765 78.73 109.931 78.8895C110.194 79.0156 110.511 78.9043 110.639 78.641C110.737 78.4352 110.693 78.1886 110.528 78.0291Z" fill="#896024"/>
<path d="M116.556 78.0291C116.293 77.903 115.976 78.0143 115.848 78.2776C115.749 78.4834 115.794 78.73 115.959 78.8895C116.222 79.0156 116.539 78.9043 116.667 78.641C116.765 78.4352 116.721 78.1886 116.556 78.0291Z" fill="#896024"/>
<rect x="13.35" y="61.35" width="120.452" height="31.3" rx="15.65" stroke="#D9D9DA" stroke-width="0.7"/>
</g>
<g filter="url(#filter1_d_52_1082)">
<rect x="61.0762" y="47" width="105.039" height="58.9432" rx="4" fill="white"/>
<path d="M69.8947 56.2885H71.2264L73.5417 61.9419H73.627L75.9423 56.2885H77.274V63.5612H76.2299V58.2984H76.1625L74.0176 63.5506H73.1511L71.0062 58.2949H70.9387V63.5612H69.8947V56.2885ZM81.0817 63.6713C80.5703 63.6713 80.1241 63.5541 79.7429 63.3197C79.3617 63.0854 79.0658 62.7575 78.8551 62.3361C78.6444 61.9147 78.5391 61.4223 78.5391 60.8588C78.5391 60.293 78.6444 59.7982 78.8551 59.3744C79.0658 58.9507 79.3617 58.6216 79.7429 58.3872C80.1241 58.1528 80.5703 58.0357 81.0817 58.0357C81.593 58.0357 82.0393 58.1528 82.4205 58.3872C82.8016 58.6216 83.0975 58.9507 83.3082 59.3744C83.5189 59.7982 83.6243 60.293 83.6243 60.8588C83.6243 61.4223 83.5189 61.9147 83.3082 62.3361C83.0975 62.7575 82.8016 63.0854 82.4205 63.3197C82.0393 63.5541 81.593 63.6713 81.0817 63.6713ZM81.0852 62.78C81.4167 62.78 81.6913 62.6924 81.9091 62.5172C82.1269 62.342 82.2879 62.1088 82.392 61.8176C82.4986 61.5264 82.5518 61.2056 82.5518 60.8553C82.5518 60.5072 82.4986 60.1876 82.392 59.8964C82.2879 59.6029 82.1269 59.3673 81.9091 59.1898C81.6913 59.0122 81.4167 58.9234 81.0852 58.9234C80.7514 58.9234 80.4744 59.0122 80.2543 59.1898C80.0365 59.3673 79.8743 59.6029 79.7678 59.8964C79.6636 60.1876 79.6115 60.5072 79.6115 60.8553C79.6115 61.2056 79.6636 61.5264 79.7678 61.8176C79.8743 62.1088 80.0365 62.342 80.2543 62.5172C80.4744 62.6924 80.7514 62.78 81.0852 62.78ZM86.8514 63.6678C86.411 63.6678 86.0181 63.5553 85.6724 63.3304C85.3291 63.1031 85.0592 62.78 84.8627 62.3609C84.6686 61.9395 84.5716 61.4341 84.5716 60.8446C84.5716 60.2551 84.6698 59.7508 84.8663 59.3318C85.0652 58.9128 85.3374 58.592 85.6831 58.3695C86.0287 58.1469 86.4205 58.0357 86.8585 58.0357C87.197 58.0357 87.4693 58.0925 87.6752 58.2061C87.8836 58.3174 88.0446 58.4476 88.1582 58.5967C88.2742 58.7459 88.3642 58.8773 88.4281 58.9909H88.492V56.2885H89.5538V63.5612H88.5169V62.7125H88.4281C88.3642 62.8285 88.2718 62.9611 88.1511 63.1102C88.0327 63.2594 87.8694 63.3896 87.661 63.5008C87.4527 63.6121 87.1828 63.6678 86.8514 63.6678ZM87.0858 62.7622C87.3912 62.7622 87.6492 62.6817 87.8599 62.5207C88.073 62.3574 88.234 62.1313 88.3429 61.8425C88.4541 61.5536 88.5098 61.2175 88.5098 60.8339C88.5098 60.4552 88.4553 60.1237 88.3464 59.8396C88.2375 59.5555 88.0777 59.3342 87.867 59.1756C87.6563 59.0169 87.3959 58.9376 87.0858 58.9376C86.7662 58.9376 86.4998 59.0205 86.2868 59.1862C86.0737 59.3519 85.9127 59.578 85.8038 59.8645C85.6973 60.1509 85.644 60.4741 85.644 60.8339C85.644 61.1985 85.6984 61.5264 85.8074 61.8176C85.9163 62.1088 86.0772 62.3396 86.2903 62.5101C86.5057 62.6782 86.7709 62.7622 87.0858 62.7622ZM93.4201 63.6713C92.8827 63.6713 92.4199 63.5565 92.0316 63.3268C91.6457 63.0948 91.3474 62.7693 91.1367 62.3503C90.9284 61.9289 90.8242 61.4353 90.8242 60.8695C90.8242 60.3107 90.9284 59.8183 91.1367 59.3922C91.3474 58.966 91.641 58.6334 92.0174 58.3943C92.3962 58.1552 92.8389 58.0357 93.3455 58.0357C93.6533 58.0357 93.9516 58.0865 94.2404 58.1883C94.5292 58.2901 94.7885 58.4499 95.0181 58.6678C95.2478 58.8856 95.4289 59.1685 95.5614 59.5165C95.694 59.8621 95.7603 60.2823 95.7603 60.7771V61.1535H91.4244V60.3581H94.7198C94.7198 60.0787 94.663 59.8313 94.5494 59.6159C94.4357 59.3981 94.2759 59.2265 94.07 59.101C93.8664 58.9755 93.6272 58.9128 93.3526 58.9128C93.0543 58.9128 92.7939 58.9862 92.5714 59.133C92.3512 59.2774 92.1808 59.4668 92.06 59.7011C91.9416 59.9331 91.8825 60.1853 91.8825 60.4575V61.079C91.8825 61.4436 91.9464 61.7537 92.0742 62.0094C92.2044 62.2651 92.3855 62.4604 92.6175 62.5953C92.8496 62.7279 93.1206 62.7942 93.4308 62.7942C93.632 62.7942 93.8155 62.7658 93.9812 62.7089C94.1469 62.6498 94.2901 62.5622 94.4109 62.4462C94.5316 62.3302 94.6239 62.1869 94.6879 62.0165L95.6928 62.1976C95.6123 62.4935 95.4679 62.7527 95.2596 62.9753C95.0536 63.1955 94.7944 63.3671 94.4819 63.4902C94.1718 63.6109 93.8178 63.6713 93.4201 63.6713ZM96.9384 63.5612V58.1067H97.9647V58.9731H98.0215C98.1209 58.6796 98.2961 58.4488 98.5471 58.2807C98.8004 58.1102 99.0868 58.025 99.4064 58.025C99.4727 58.025 99.5508 58.0274 99.6408 58.0321C99.7331 58.0368 99.8053 58.0428 99.8574 58.0499V59.0655C99.8148 59.0536 99.7391 59.0406 99.6301 59.0264C99.5212 59.0098 99.4123 59.0016 99.3034 59.0016C99.0525 59.0016 98.8288 59.0548 98.6323 59.1614C98.4382 59.2655 98.2843 59.4111 98.1706 59.5981C98.057 59.7828 98.0002 59.9935 98.0002 60.2303V63.5612H96.9384ZM102.315 63.682C101.969 63.682 101.657 63.618 101.377 63.4902C101.098 63.36 100.877 63.1718 100.713 62.9256C100.552 62.6794 100.472 62.3775 100.472 62.02C100.472 61.7123 100.531 61.4589 100.649 61.2601C100.768 61.0612 100.927 60.9038 101.129 60.7878C101.33 60.6718 101.555 60.5842 101.803 60.525C102.052 60.4658 102.305 60.4208 102.563 60.3901C102.89 60.3522 103.155 60.3214 103.359 60.2977C103.562 60.2717 103.71 60.2303 103.803 60.1734C103.895 60.1166 103.941 60.0243 103.941 59.8964V59.8716C103.941 59.5615 103.854 59.3212 103.678 59.1507C103.506 58.9803 103.248 58.895 102.904 58.895C102.547 58.895 102.265 58.9743 102.059 59.133C101.856 59.2892 101.715 59.4632 101.637 59.655L100.639 59.4277C100.757 59.0963 100.93 58.8287 101.157 58.6251C101.387 58.4192 101.651 58.27 101.949 58.1777C102.247 58.083 102.561 58.0357 102.89 58.0357C103.108 58.0357 103.339 58.0617 103.583 58.1138C103.829 58.1635 104.058 58.2558 104.271 58.3908C104.487 58.5257 104.663 58.7187 104.801 58.9696C104.938 59.2182 105.007 59.5413 105.007 59.9391V63.5612H103.97V62.8155H103.927C103.858 62.9528 103.755 63.0877 103.618 63.2203C103.481 63.3529 103.304 63.463 103.089 63.5506C102.874 63.6382 102.615 63.682 102.315 63.682ZM102.546 62.8297C102.839 62.8297 103.09 62.7717 103.298 62.6557C103.509 62.5397 103.669 62.3882 103.778 62.2011C103.889 62.0117 103.945 61.8093 103.945 61.5939V60.8908C103.907 60.9286 103.834 60.9642 103.725 60.9973C103.618 61.0281 103.496 61.0553 103.359 61.079C103.222 61.1003 103.088 61.1204 102.958 61.1393C102.827 61.1559 102.718 61.1701 102.631 61.182C102.425 61.208 102.237 61.2518 102.066 61.3133C101.898 61.3749 101.763 61.4637 101.661 61.5797C101.562 61.6933 101.512 61.8448 101.512 62.0342C101.512 62.297 101.609 62.4959 101.803 62.6308C101.998 62.7634 102.245 62.8297 102.546 62.8297ZM108.967 58.1067V58.9589H105.988V58.1067H108.967ZM106.787 56.7999H107.848V61.9597C107.848 62.1656 107.879 62.3207 107.941 62.4249C108.002 62.5267 108.082 62.5965 108.179 62.6344C108.278 62.6699 108.386 62.6876 108.502 62.6876C108.587 62.6876 108.662 62.6817 108.725 62.6699C108.789 62.658 108.839 62.6486 108.875 62.6415L109.066 63.5186C109.005 63.5423 108.917 63.566 108.804 63.5896C108.69 63.6157 108.548 63.6299 108.377 63.6322C108.098 63.637 107.838 63.5873 107.596 63.4831C107.355 63.3789 107.159 63.2179 107.01 63.0001C106.861 62.7823 106.787 62.5089 106.787 62.1798V56.7999ZM112.381 63.6713C111.869 63.6713 111.423 63.5541 111.042 63.3197C110.661 63.0854 110.365 62.7575 110.154 62.3361C109.943 61.9147 109.838 61.4223 109.838 60.8588C109.838 60.293 109.943 59.7982 110.154 59.3744C110.365 58.9507 110.661 58.6216 111.042 58.3872C111.423 58.1528 111.869 58.0357 112.381 58.0357C112.892 58.0357 113.338 58.1528 113.719 58.3872C114.1 58.6216 114.396 58.9507 114.607 59.3744C114.818 59.7982 114.923 60.293 114.923 60.8588C114.923 61.4223 114.818 61.9147 114.607 62.3361C114.396 62.7575 114.1 63.0854 113.719 63.3197C113.338 63.5541 112.892 63.6713 112.381 63.6713ZM112.384 62.78C112.715 62.78 112.99 62.6924 113.208 62.5172C113.426 62.342 113.587 62.1088 113.691 61.8176C113.797 61.5264 113.851 61.2056 113.851 60.8553C113.851 60.5072 113.797 60.1876 113.691 59.8964C113.587 59.6029 113.426 59.3673 113.208 59.1898C112.99 59.0122 112.715 58.9234 112.384 58.9234C112.05 58.9234 111.773 59.0122 111.553 59.1898C111.335 59.3673 111.173 59.6029 111.067 59.8964C110.962 60.1876 110.91 60.5072 110.91 60.8553C110.91 61.2056 110.962 61.5264 111.067 61.8176C111.173 62.1088 111.335 62.342 111.553 62.5172C111.773 62.6924 112.05 62.78 112.384 62.78ZM116.108 63.5612V58.1067H117.135V58.9731H117.191C117.291 58.6796 117.466 58.4488 117.717 58.2807C117.97 58.1102 118.257 58.025 118.576 58.025C118.643 58.025 118.721 58.0274 118.811 58.0321C118.903 58.0368 118.975 58.0428 119.027 58.0499V59.0655C118.985 59.0536 118.909 59.0406 118.8 59.0264C118.691 59.0098 118.582 59.0016 118.473 59.0016C118.222 59.0016 117.999 59.0548 117.802 59.1614C117.608 59.2655 117.454 59.4111 117.341 59.5981C117.227 59.7828 117.17 59.9935 117.17 60.2303V63.5612H116.108ZM124.89 63.6713C124.379 63.6713 123.933 63.5541 123.551 63.3197C123.17 63.0854 122.874 62.7575 122.664 62.3361C122.453 61.9147 122.348 61.4223 122.348 60.8588C122.348 60.293 122.453 59.7982 122.664 59.3744C122.874 58.9507 123.17 58.6216 123.551 58.3872C123.933 58.1528 124.379 58.0357 124.89 58.0357C125.402 58.0357 125.848 58.1528 126.229 58.3872C126.61 58.6216 126.906 58.9507 127.117 59.3744C127.328 59.7982 127.433 60.293 127.433 60.8588C127.433 61.4223 127.328 61.9147 127.117 62.3361C126.906 62.7575 126.61 63.0854 126.229 63.3197C125.848 63.5541 125.402 63.6713 124.89 63.6713ZM124.894 62.78C125.225 62.78 125.5 62.6924 125.718 62.5172C125.935 62.342 126.096 62.1088 126.201 61.8176C126.307 61.5264 126.36 61.2056 126.36 60.8553C126.36 60.5072 126.307 60.1876 126.201 59.8964C126.096 59.6029 125.935 59.3673 125.718 59.1898C125.5 59.0122 125.225 58.9234 124.894 58.9234C124.56 58.9234 124.283 59.0122 124.063 59.1898C123.845 59.3673 123.683 59.6029 123.576 59.8964C123.472 60.1876 123.42 60.5072 123.42 60.8553C123.42 61.2056 123.472 61.5264 123.576 61.8176C123.683 62.1088 123.845 62.342 124.063 62.5172C124.283 62.6924 124.56 62.78 124.894 62.78ZM128.618 65.6067V58.1067H129.655V58.9909H129.744C129.805 58.8773 129.894 58.7459 130.01 58.5967C130.126 58.4476 130.287 58.3174 130.493 58.2061C130.699 58.0925 130.971 58.0357 131.31 58.0357C131.75 58.0357 132.143 58.1469 132.489 58.3695C132.834 58.592 133.106 58.9128 133.302 59.3318C133.501 59.7508 133.6 60.2551 133.6 60.8446C133.6 61.4341 133.502 61.9395 133.306 62.3609C133.109 62.78 132.839 63.1031 132.496 63.3304C132.153 63.5553 131.761 63.6678 131.32 63.6678C130.989 63.6678 130.718 63.6121 130.507 63.5008C130.299 63.3896 130.136 63.2594 130.017 63.1102C129.899 62.9611 129.808 62.8285 129.744 62.7125H129.68V65.6067H128.618ZM129.659 60.8339C129.659 61.2175 129.714 61.5536 129.825 61.8425C129.937 62.1313 130.098 62.3574 130.308 62.5207C130.519 62.6817 130.777 62.7622 131.083 62.7622C131.4 62.7622 131.665 62.6782 131.878 62.5101C132.091 62.3396 132.252 62.1088 132.361 61.8176C132.472 61.5264 132.528 61.1985 132.528 60.8339C132.528 60.4741 132.473 60.1509 132.365 59.8645C132.258 59.578 132.097 59.3519 131.882 59.1862C131.669 59.0205 131.402 58.9376 131.083 58.9376C130.775 58.9376 130.514 59.0169 130.301 59.1756C130.091 59.3342 129.931 59.5555 129.822 59.8396C129.713 60.1237 129.659 60.4552 129.659 60.8339ZM137.336 58.1067V58.9589H134.357V58.1067H137.336ZM135.156 56.7999H136.218V61.9597C136.218 62.1656 136.248 62.3207 136.31 62.4249C136.371 62.5267 136.451 62.5965 136.548 62.6344C136.647 62.6699 136.755 62.6876 136.871 62.6876C136.956 62.6876 137.031 62.6817 137.095 62.6699C137.159 62.658 137.208 62.6486 137.244 62.6415L137.436 63.5186C137.374 63.5423 137.286 63.566 137.173 63.5896C137.059 63.6157 136.917 63.6299 136.747 63.6322C136.467 63.637 136.207 63.5873 135.965 63.4831C135.724 63.3789 135.529 63.2179 135.379 63.0001C135.23 62.7823 135.156 62.5089 135.156 62.1798V56.7999ZM138.511 63.5612V58.1067H139.572V63.5612H138.511ZM139.047 57.2651C138.862 57.2651 138.704 57.2035 138.571 57.0804C138.441 56.9549 138.376 56.8058 138.376 56.633C138.376 56.4578 138.441 56.3086 138.571 56.1855C138.704 56.06 138.862 55.9973 139.047 55.9973C139.232 55.9973 139.389 56.06 139.519 56.1855C139.652 56.3086 139.718 56.4578 139.718 56.633C139.718 56.8058 139.652 56.9549 139.519 57.0804C139.389 57.2035 139.232 57.2651 139.047 57.2651ZM143.298 63.6713C142.787 63.6713 142.341 63.5541 141.96 63.3197C141.579 63.0854 141.283 62.7575 141.072 62.3361C140.861 61.9147 140.756 61.4223 140.756 60.8588C140.756 60.293 140.861 59.7982 141.072 59.3744C141.283 58.9507 141.579 58.6216 141.96 58.3872C142.341 58.1528 142.787 58.0357 143.298 58.0357C143.81 58.0357 144.256 58.1528 144.637 58.3872C145.018 58.6216 145.314 58.9507 145.525 59.3744C145.736 59.7982 145.841 60.293 145.841 60.8588C145.841 61.4223 145.736 61.9147 145.525 62.3361C145.314 62.7575 145.018 63.0854 144.637 63.3197C144.256 63.5541 143.81 63.6713 143.298 63.6713ZM143.302 62.78C143.633 62.78 143.908 62.6924 144.126 62.5172C144.344 62.342 144.505 62.1088 144.609 61.8176C144.715 61.5264 144.769 61.2056 144.769 60.8553C144.769 60.5072 144.715 60.1876 144.609 59.8964C144.505 59.6029 144.344 59.3673 144.126 59.1898C143.908 59.0122 143.633 58.9234 143.302 58.9234C142.968 58.9234 142.691 59.0122 142.471 59.1898C142.253 59.3673 142.091 59.6029 141.985 59.8964C141.88 60.1876 141.828 60.5072 141.828 60.8553C141.828 61.2056 141.88 61.5264 141.985 61.8176C142.091 62.1088 142.253 62.342 142.471 62.5172C142.691 62.6924 142.968 62.78 143.302 62.78ZM148.088 60.3226V63.5612H147.026V58.1067H148.045V58.9945H148.113C148.238 58.7056 148.435 58.4736 148.702 58.2984C148.972 58.1232 149.312 58.0357 149.722 58.0357C150.093 58.0357 150.419 58.1138 150.698 58.27C150.978 58.4239 151.194 58.6535 151.348 58.9589C151.502 59.2643 151.579 59.6419 151.579 60.0918V63.5612H150.517V60.2196C150.517 59.8242 150.414 59.5153 150.208 59.2928C150.002 59.0678 149.719 58.9554 149.359 58.9554C149.113 58.9554 148.894 59.0087 148.702 59.1152C148.513 59.2217 148.363 59.378 148.251 59.5839C148.143 59.7875 148.088 60.0338 148.088 60.3226ZM157.09 59.4383L156.128 59.6088C156.088 59.4857 156.024 59.3685 155.936 59.2572C155.851 59.146 155.735 59.0548 155.588 58.9838C155.441 58.9128 155.258 58.8773 155.038 58.8773C154.737 58.8773 154.486 58.9447 154.285 59.0797C154.084 59.2123 153.983 59.3839 153.983 59.5946C153.983 59.7769 154.05 59.9237 154.185 60.0349C154.32 60.1462 154.538 60.2374 154.839 60.3084L155.705 60.5072C156.207 60.6232 156.581 60.802 156.827 61.0435C157.074 61.2849 157.197 61.5986 157.197 61.9845C157.197 62.3112 157.102 62.6024 156.913 62.8581C156.726 63.1114 156.464 63.3103 156.128 63.4547C155.794 63.5991 155.407 63.6713 154.967 63.6713C154.356 63.6713 153.857 63.5411 153.472 63.2807C153.086 63.0179 152.849 62.645 152.761 62.1621L153.788 62.0058C153.852 62.2733 153.983 62.4758 154.182 62.6131C154.381 62.748 154.64 62.8155 154.96 62.8155C155.308 62.8155 155.586 62.7433 155.794 62.5989C156.002 62.4521 156.107 62.2733 156.107 62.0626C156.107 61.8922 156.043 61.749 155.915 61.633C155.789 61.5169 155.596 61.4294 155.336 61.3702L154.413 61.1678C153.904 61.0517 153.527 60.8671 153.283 60.6138C153.042 60.3605 152.921 60.0397 152.921 59.6514C152.921 59.3294 153.011 59.0477 153.191 58.8062C153.371 58.5648 153.62 58.3766 153.937 58.2416C154.254 58.1043 154.617 58.0357 155.027 58.0357C155.616 58.0357 156.08 58.1635 156.419 58.4192C156.758 58.6725 156.981 59.0122 157.09 59.4383Z" fill="#292831"/>
<path d="M75.0957 80.4354C77.581 80.4354 79.5957 78.4207 79.5957 75.9354C79.5957 73.4501 77.581 71.4354 75.0957 71.4354C72.6104 71.4354 70.5957 73.4501 70.5957 75.9354C70.5957 78.4207 72.6104 80.4354 75.0957 80.4354Z" stroke="#DD2E44" stroke-width="1.09355" stroke-miterlimit="10"/>
<path d="M71.9136 72.7534L78.2775 79.1174" stroke="#DD2E44" stroke-width="1.09355" stroke-linecap="round" stroke-linejoin="round"/>
<path d="M84.8043 79.4355V72.89H87.0927C87.5487 72.89 87.9247 72.9688 88.2209 73.1265C88.517 73.282 88.7376 73.4919 88.8825 73.7561C89.0273 74.0182 89.0998 74.309 89.0998 74.6286C89.0998 74.9099 89.0497 75.1421 88.9496 75.3254C88.8516 75.5086 88.7216 75.6535 88.5597 75.76C88.3999 75.8666 88.2262 75.9454 88.0387 75.9965V76.0605C88.239 76.0732 88.4403 76.1436 88.6428 76.2714C88.8452 76.3992 89.0146 76.5825 89.1509 76.8211C89.2873 77.0597 89.3555 77.3516 89.3555 77.6968C89.3555 78.0249 89.2809 78.32 89.1317 78.5821C88.9826 78.8442 88.7472 79.0519 88.4254 79.2053C88.1037 79.3588 87.685 79.4355 87.1694 79.4355H84.8043ZM85.5969 78.7323H87.1694C87.6871 78.7323 88.0547 78.6322 88.272 78.4319C88.4915 78.2295 88.6012 77.9845 88.6012 77.6968C88.6012 77.4752 88.5447 77.2707 88.4318 77.0832C88.3189 76.8936 88.158 76.7423 87.9492 76.6293C87.7404 76.5143 87.4933 76.4568 87.2077 76.4568H85.5969V78.7323ZM85.5969 75.7664H87.0671C87.3058 75.7664 87.521 75.7195 87.7127 75.6258C87.9066 75.532 88.06 75.3999 88.1729 75.2295C88.288 75.059 88.3455 74.8588 88.3455 74.6286C88.3455 74.341 88.2454 74.097 88.0451 73.8967C87.8448 73.6943 87.5273 73.5931 87.0927 73.5931H85.5969V75.7664ZM92.0002 79.5505C91.6891 79.5505 91.4068 79.4919 91.1532 79.3747C90.8997 79.2554 90.6983 79.0839 90.5492 78.8602C90.4 78.6343 90.3255 78.3616 90.3255 78.042C90.3255 77.7607 90.3809 77.5328 90.4917 77.358C90.6025 77.1812 90.7505 77.0427 90.9359 76.9426C91.1213 76.8424 91.3258 76.7678 91.5495 76.7188C91.7754 76.6677 92.0023 76.6272 92.2303 76.5974C92.5286 76.559 92.7704 76.5303 92.9558 76.5111C93.1433 76.4898 93.2797 76.4546 93.3649 76.4056C93.4522 76.3566 93.4959 76.2714 93.4959 76.1499V76.1244C93.4959 75.809 93.4096 75.564 93.237 75.3893C93.0666 75.2146 92.8077 75.1272 92.4604 75.1272C92.1003 75.1272 91.818 75.2061 91.6135 75.3637C91.4089 75.5214 91.2651 75.6897 91.182 75.8687L90.4661 75.613C90.5939 75.3147 90.7644 75.0825 90.9775 74.9163C91.1926 74.748 91.427 74.6308 91.6806 74.5647C91.9363 74.4965 92.1877 74.4624 92.4348 74.4624C92.5925 74.4624 92.7736 74.4816 92.9782 74.52C93.1848 74.5562 93.3841 74.6318 93.5758 74.7469C93.7697 74.8619 93.9306 75.0356 94.0584 75.2678C94.1863 75.5001 94.2502 75.8112 94.2502 76.2011V79.4355H93.4959V78.7707H93.4576C93.4064 78.8772 93.3212 78.9912 93.2019 79.1127C93.0826 79.2341 92.9238 79.3374 92.7257 79.4227C92.5275 79.5079 92.2857 79.5505 92.0002 79.5505ZM92.1152 78.873C92.4135 78.873 92.665 78.8144 92.8695 78.6972C93.0762 78.58 93.2317 78.4287 93.3361 78.2433C93.4426 78.058 93.4959 77.863 93.4959 77.6585V76.9681C93.464 77.0065 93.3936 77.0416 93.285 77.0736C93.1784 77.1034 93.0549 77.1301 92.9142 77.1535C92.7757 77.1748 92.6404 77.194 92.5083 77.211C92.3784 77.2259 92.2729 77.2387 92.1919 77.2494C91.9959 77.2749 91.8127 77.3165 91.6422 77.374C91.4739 77.4294 91.3375 77.5136 91.2331 77.6265C91.1309 77.7373 91.0797 77.8886 91.0797 78.0803C91.0797 78.3424 91.1767 78.5406 91.3706 78.6748C91.5666 78.8069 91.8148 78.873 92.1152 78.873ZM96.3811 76.4823V79.4355H95.6269V74.5264H96.3556V75.2934H96.4195C96.5345 75.0441 96.7093 74.8438 96.9436 74.6926C97.178 74.5391 97.4806 74.4624 97.8513 74.4624C98.1837 74.4624 98.4745 74.5306 98.7238 74.667C98.9731 74.8012 99.167 75.0058 99.3055 75.2806C99.444 75.5534 99.5132 75.8985 99.5132 76.3161V79.4355H98.759V76.3673C98.759 75.9816 98.6588 75.6812 98.4585 75.466C98.2583 75.2487 97.9834 75.14 97.634 75.14C97.3932 75.14 97.178 75.1922 96.9884 75.2966C96.8009 75.401 96.6528 75.5534 96.5441 75.7536C96.4355 75.9539 96.3811 76.1968 96.3811 76.4823ZM105.558 74.5264V75.1656H103.014V74.5264H105.558ZM103.755 73.3502H104.509V78.0292C104.509 78.2423 104.54 78.4021 104.602 78.5086C104.666 78.613 104.747 78.6833 104.845 78.7195C104.945 78.7536 105.051 78.7707 105.161 78.7707C105.244 78.7707 105.313 78.7664 105.366 78.7579C105.419 78.7472 105.462 78.7387 105.494 78.7323L105.647 79.4099C105.596 79.4291 105.525 79.4482 105.433 79.4674C105.341 79.4887 105.225 79.4994 105.085 79.4994C104.872 79.4994 104.663 79.4536 104.458 79.3619C104.256 79.2703 104.088 79.1308 103.953 78.9433C103.821 78.7558 103.755 78.5193 103.755 78.2338V73.3502ZM107.552 76.4823V79.4355H106.798V72.89H107.552V75.2934H107.616C107.731 75.0399 107.904 74.8385 108.134 74.6894C108.366 74.5381 108.675 74.4624 109.061 74.4624C109.395 74.4624 109.688 74.5296 109.939 74.6638C110.191 74.7959 110.386 74.9994 110.524 75.2742C110.665 75.547 110.735 75.8943 110.735 76.3161V79.4355H109.981V76.3673C109.981 75.9774 109.88 75.6759 109.677 75.4628C109.477 75.2476 109.199 75.14 108.843 75.14C108.596 75.14 108.374 75.1922 108.178 75.2966C107.985 75.401 107.831 75.5534 107.718 75.7536C107.607 75.9539 107.552 76.1968 107.552 76.4823ZM112.115 79.4355V74.5264H112.869V79.4355H112.115ZM112.499 73.7082C112.352 73.7082 112.225 73.6581 112.118 73.558C112.014 73.4578 111.962 73.3374 111.962 73.1968C111.962 73.0562 112.014 72.9358 112.118 72.8357C112.225 72.7355 112.352 72.6855 112.499 72.6855C112.646 72.6855 112.771 72.7355 112.876 72.8357C112.982 72.9358 113.036 73.0562 113.036 73.1968C113.036 73.3374 112.982 73.4578 112.876 73.558C112.771 73.6581 112.646 73.7082 112.499 73.7082ZM117.728 75.6258L117.051 75.8176C117.008 75.7046 116.945 75.5949 116.862 75.4884C116.781 75.3797 116.67 75.2902 116.53 75.2199C116.389 75.1496 116.209 75.1144 115.99 75.1144C115.689 75.1144 115.439 75.1837 115.238 75.3222C115.04 75.4585 114.941 75.6322 114.941 75.8431C114.941 76.0306 115.009 76.1787 115.146 76.2874C115.282 76.396 115.495 76.4866 115.785 76.559L116.514 76.738C116.953 76.8445 117.28 77.0075 117.495 77.227C117.71 77.4443 117.818 77.7245 117.818 78.0676C117.818 78.3488 117.737 78.6002 117.575 78.8218C117.415 79.0434 117.191 79.2181 116.904 79.346C116.616 79.4738 116.281 79.5377 115.9 79.5377C115.399 79.5377 114.985 79.4291 114.657 79.2117C114.329 78.9944 114.121 78.6769 114.034 78.2593L114.749 78.0803C114.818 78.3445 114.947 78.5427 115.136 78.6748C115.328 78.8069 115.578 78.873 115.887 78.873C116.239 78.873 116.518 78.7984 116.725 78.6492C116.933 78.498 117.038 78.3168 117.038 78.1059C117.038 77.9355 116.978 77.7927 116.859 77.6776C116.74 77.5605 116.556 77.4731 116.309 77.4156L115.491 77.2238C115.041 77.1173 114.711 76.9521 114.5 76.7284C114.291 76.5026 114.187 76.2203 114.187 75.8815C114.187 75.6045 114.265 75.3595 114.42 75.1464C114.578 74.9333 114.792 74.7661 115.063 74.6446C115.335 74.5232 115.644 74.4624 115.99 74.4624C116.475 74.4624 116.857 74.569 117.134 74.782C117.413 74.9951 117.611 75.2764 117.728 75.6258ZM124.578 77.4284V74.5264H125.332V79.4355H124.578V78.6045H124.527C124.412 78.8538 124.233 79.0658 123.99 79.2405C123.747 79.4131 123.44 79.4994 123.07 79.4994C122.763 79.4994 122.49 79.4323 122.251 79.298C122.013 79.1617 121.825 78.9571 121.689 78.6844C121.552 78.4095 121.484 78.0633 121.484 77.6457V74.5264H122.239V77.5945C122.239 77.9525 122.339 78.238 122.539 78.4511C122.741 78.6641 122.999 78.7707 123.312 78.7707C123.5 78.7707 123.691 78.7227 123.884 78.6269C124.081 78.531 124.245 78.384 124.377 78.1858C124.511 77.9877 124.578 77.7352 124.578 77.4284ZM130.191 75.6258L129.513 75.8176C129.471 75.7046 129.408 75.5949 129.325 75.4884C129.244 75.3797 129.133 75.2902 128.993 75.2199C128.852 75.1496 128.672 75.1144 128.452 75.1144C128.152 75.1144 127.902 75.1837 127.701 75.3222C127.503 75.4585 127.404 75.6322 127.404 75.8431C127.404 76.0306 127.472 76.1787 127.609 76.2874C127.745 76.396 127.958 76.4866 128.248 76.559L128.977 76.738C129.415 76.8445 129.743 77.0075 129.958 77.227C130.173 77.4443 130.281 77.7245 130.281 78.0676C130.281 78.3488 130.2 78.6002 130.038 78.8218C129.878 79.0434 129.654 79.2181 129.366 79.346C129.079 79.4738 128.744 79.5377 128.363 79.5377C127.862 79.5377 127.448 79.4291 127.12 79.2117C126.792 78.9944 126.584 78.6769 126.496 78.2593L127.212 78.0803C127.281 78.3445 127.409 78.5427 127.599 78.6748C127.791 78.8069 128.041 78.873 128.35 78.873C128.702 78.873 128.981 78.7984 129.188 78.6492C129.396 78.498 129.501 78.3168 129.501 78.1059C129.501 77.9355 129.441 77.7927 129.322 77.6776C129.202 77.5605 129.019 77.4731 128.772 77.4156L127.954 77.2238C127.504 77.1173 127.174 76.9521 126.963 76.7284C126.754 76.5026 126.65 76.2203 126.65 75.8815C126.65 75.6045 126.728 75.3595 126.883 75.1464C127.041 74.9333 127.255 74.7661 127.526 74.6446C127.798 74.5232 128.107 74.4624 128.452 74.4624C128.938 74.4624 129.32 74.569 129.597 74.782C129.876 74.9951 130.074 75.2764 130.191 75.6258ZM133.474 79.5377C133.001 79.5377 132.593 79.4333 132.25 79.2245C131.909 79.0136 131.646 78.7195 131.461 78.3424C131.277 77.9632 131.186 77.5221 131.186 77.0193C131.186 76.5164 131.277 76.0732 131.461 75.6897C131.646 75.3041 131.904 75.0036 132.234 74.7884C132.566 74.5711 132.954 74.4624 133.397 74.4624C133.653 74.4624 133.906 74.5051 134.155 74.5903C134.404 74.6755 134.631 74.814 134.836 75.0058C135.04 75.1954 135.203 75.4468 135.325 75.76C135.446 76.0732 135.507 76.4589 135.507 76.917V77.2366H131.723V76.5846H134.74C134.74 76.3076 134.684 76.0605 134.574 75.8431C134.465 75.6258 134.309 75.4543 134.107 75.3286C133.907 75.2029 133.67 75.14 133.397 75.14C133.097 75.14 132.837 75.2146 132.618 75.3637C132.4 75.5107 132.233 75.7025 132.116 75.939C131.999 76.1755 131.94 76.4291 131.94 76.6997V77.1343C131.94 77.5051 132.004 77.8193 132.132 78.0771C132.262 78.3328 132.442 78.5278 132.672 78.662C132.902 78.7941 133.169 78.8602 133.474 78.8602C133.672 78.8602 133.851 78.8325 134.011 78.7771C134.173 78.7195 134.313 78.6343 134.43 78.5214C134.547 78.4063 134.638 78.2636 134.701 78.0931L135.43 78.2977C135.353 78.5448 135.225 78.7622 135.043 78.9497C134.862 79.135 134.639 79.2799 134.372 79.3843C134.106 79.4866 133.807 79.5377 133.474 79.5377ZM136.654 79.4355V74.5264H137.383V75.2678H137.434C137.524 75.0249 137.685 74.8279 137.92 74.6766C138.154 74.5253 138.418 74.4497 138.712 74.4497C138.768 74.4497 138.837 74.4507 138.92 74.4529C139.003 74.455 139.066 74.4582 139.109 74.4624V75.2295C139.083 75.2231 139.025 75.2135 138.933 75.2007C138.843 75.1858 138.749 75.1784 138.649 75.1784C138.41 75.1784 138.197 75.2284 138.009 75.3286C137.824 75.4266 137.677 75.5629 137.568 75.7377C137.462 75.9102 137.408 76.1073 137.408 76.3289V79.4355H136.654Z" fill="#03020D"/>
<path d="M75.0957 92.8458L72.2457 90.5173C72.1991 90.4793 72.1613 90.4299 72.1353 90.3732C72.1093 90.3165 72.0957 90.2539 72.0957 90.1905V88.3522C72.0957 88.2439 72.1352 88.14 72.2055 88.0634C72.2759 87.9868 72.3712 87.9437 72.4707 87.9437H77.7207C77.8202 87.9437 77.9155 87.9868 77.9859 88.0634C78.0562 88.14 78.0957 88.2439 78.0957 88.3522V90.1722C78.0957 90.2354 78.0823 90.2977 78.0564 90.3542C78.0306 90.4107 77.9931 90.46 77.9468 90.4981L75.0957 92.8458Z" stroke="#DD2E44" stroke-width="1.09355" stroke-linecap="round" stroke-linejoin="round"/>
<path d="M75.0957 92.8458L72.2457 95.1743C72.1991 95.2124 72.1613 95.2617 72.1353 95.3184C72.1093 95.3752 72.0957 95.4377 72.0957 95.5011V97.3394C72.0957 97.4478 72.1352 97.5517 72.2055 97.6283C72.2759 97.7049 72.3712 97.7479 72.4707 97.7479H77.7207C77.8202 97.7479 77.9155 97.7049 77.9859 97.6283C78.0562 97.5517 78.0957 97.4478 78.0957 97.3394V95.5195C78.0957 95.4563 78.0823 95.394 78.0564 95.3374C78.0306 95.2809 77.9931 95.2317 77.9468 95.1936L75.0957 92.8458Z" stroke="#DD2E44" stroke-width="1.09355" stroke-linecap="round" stroke-linejoin="round"/>
<path d="M84.8043 96.3458V89.8003H87.016C87.5295 89.8003 87.9492 89.893 88.2752 90.0784C88.6033 90.2616 88.8462 90.5098 89.0039 90.823C89.1616 91.1362 89.2404 91.4857 89.2404 91.8713C89.2404 92.257 89.1616 92.6075 89.0039 92.9228C88.8484 93.2382 88.6076 93.4896 88.2816 93.6771C87.9556 93.8625 87.538 93.9551 87.0288 93.9551H85.4435V93.252H87.0032C87.3548 93.252 87.6371 93.1913 87.8501 93.0698C88.0632 92.9484 88.2177 92.7843 88.3136 92.5777C88.4116 92.3688 88.4606 92.1334 88.4606 91.8713C88.4606 91.6093 88.4116 91.3749 88.3136 91.1682C88.2177 90.9615 88.0621 90.7996 87.8469 90.6824C87.6317 90.5631 87.3462 90.5034 86.9904 90.5034H85.5969V96.3458H84.8043ZM93.5087 94.3387V91.4367H94.263V96.3458H93.5087V95.5148H93.4576C93.3425 95.7641 93.1635 95.9761 92.9206 96.1508C92.6777 96.3234 92.3709 96.4097 92.0002 96.4097C91.6934 96.4097 91.4206 96.3426 91.182 96.2083C90.9434 96.072 90.7559 95.8674 90.6195 95.5947C90.4831 95.3198 90.415 94.9736 90.415 94.556V91.4367H91.1692V94.5049C91.1692 94.8628 91.2694 95.1483 91.4696 95.3614C91.6721 95.5745 91.9299 95.681 92.2431 95.681C92.4306 95.681 92.6213 95.6331 92.8152 95.5372C93.0112 95.4413 93.1752 95.2943 93.3074 95.0961C93.4416 94.898 93.5087 94.6455 93.5087 94.3387ZM97.7794 91.4367V92.0759H95.2354V91.4367H97.7794ZM95.9768 90.2605H96.7311V94.9395C96.7311 95.1526 96.762 95.3124 96.8238 95.4189C96.8877 95.5233 96.9687 95.5936 97.0667 95.6299C97.1668 95.6639 97.2723 95.681 97.3831 95.681C97.4662 95.681 97.5344 95.6767 97.5876 95.6682C97.6409 95.6576 97.6835 95.649 97.7155 95.6426L97.8689 96.3202C97.8177 96.3394 97.7464 96.3585 97.6547 96.3777C97.5631 96.399 97.447 96.4097 97.3064 96.4097C97.0933 96.4097 96.8845 96.3639 96.68 96.2723C96.4775 96.1806 96.3092 96.0411 96.175 95.8536C96.0429 95.6661 95.9768 95.4296 95.9768 95.1441V90.2605ZM101.445 96.3458V91.4367H102.199V96.3458H101.445ZM101.829 90.6185C101.682 90.6185 101.555 90.5684 101.448 90.4683C101.344 90.3681 101.292 90.2478 101.292 90.1071C101.292 89.9665 101.344 89.8461 101.448 89.746C101.555 89.6458 101.682 89.5958 101.829 89.5958C101.976 89.5958 102.101 89.6458 102.206 89.746C102.312 89.8461 102.366 89.9665 102.366 90.1071C102.366 90.2478 102.312 90.3681 102.206 90.4683C102.101 90.5684 101.976 90.6185 101.829 90.6185ZM104.335 93.3926V96.3458H103.581V91.4367H104.31V92.2037H104.374C104.489 91.9544 104.663 91.7541 104.898 91.6029C105.132 91.4495 105.435 91.3728 105.805 91.3728C106.138 91.3728 106.429 91.4409 106.678 91.5773C106.927 91.7115 107.121 91.9161 107.26 92.1909C107.398 92.4637 107.467 92.8088 107.467 93.2264V96.3458H106.713V93.2776C106.713 92.8919 106.613 92.5915 106.413 92.3763C106.212 92.159 105.938 92.0503 105.588 92.0503C105.347 92.0503 105.132 92.1025 104.942 92.2069C104.755 92.3113 104.607 92.4637 104.498 92.6639C104.39 92.8642 104.335 93.1071 104.335 93.3926ZM113.512 91.4367V92.0759H110.968V91.4367H113.512ZM111.709 90.2605H112.464V94.9395C112.464 95.1526 112.494 95.3124 112.556 95.4189C112.62 95.5233 112.701 95.5936 112.799 95.6299C112.899 95.6639 113.005 95.681 113.116 95.681C113.199 95.681 113.267 95.6767 113.32 95.6682C113.373 95.6576 113.416 95.649 113.448 95.6426L113.601 96.3202C113.55 96.3394 113.479 96.3585 113.387 96.3777C113.296 96.399 113.179 96.4097 113.039 96.4097C112.826 96.4097 112.617 96.3639 112.412 96.2723C112.21 96.1806 112.042 96.0411 111.907 95.8536C111.775 95.6661 111.709 95.4296 111.709 95.1441V90.2605ZM114.646 96.3458V91.4367H115.401V96.3458H114.646ZM115.03 90.6185C114.883 90.6185 114.756 90.5684 114.65 90.4683C114.545 90.3681 114.493 90.2478 114.493 90.1071C114.493 89.9665 114.545 89.8461 114.65 89.746C114.756 89.6458 114.883 89.5958 115.03 89.5958C115.177 89.5958 115.303 89.6458 115.407 89.746C115.514 89.8461 115.567 89.9665 115.567 90.1071C115.567 90.2478 115.514 90.3681 115.407 90.4683C115.303 90.5684 115.177 90.6185 115.03 90.6185ZM116.782 96.3458V91.4367H117.511V92.2037H117.575C117.677 91.9416 117.842 91.7382 118.07 91.5933C118.298 91.4463 118.572 91.3728 118.892 91.3728C119.215 91.3728 119.485 91.4463 119.7 91.5933C119.917 91.7382 120.087 91.9416 120.208 92.2037H120.259C120.385 91.9502 120.574 91.7488 120.825 91.5997C121.077 91.4484 121.378 91.3728 121.73 91.3728C122.169 91.3728 122.528 91.5102 122.807 91.785C123.086 92.0578 123.225 92.4828 123.225 93.0603V96.3458H122.471V93.0603C122.471 92.698 122.372 92.4392 122.174 92.2836C121.976 92.1281 121.742 92.0503 121.474 92.0503C121.129 92.0503 120.861 92.1547 120.672 92.3635C120.482 92.5702 120.387 92.8323 120.387 93.1497V96.3458H119.62V92.9835C119.62 92.7044 119.53 92.4796 119.349 92.3092C119.167 92.1366 118.934 92.0503 118.649 92.0503C118.453 92.0503 118.269 92.1025 118.099 92.2069C117.931 92.3113 117.794 92.4562 117.69 92.6416C117.588 92.8248 117.536 93.0368 117.536 93.2776V96.3458H116.782ZM126.663 96.448C126.19 96.448 125.782 96.3436 125.439 96.1348C125.098 95.9239 124.835 95.6299 124.649 95.2527C124.466 94.8735 124.374 94.4324 124.374 93.9296C124.374 93.4267 124.466 92.9835 124.649 92.6C124.835 92.2144 125.092 91.9139 125.423 91.6987C125.755 91.4814 126.143 91.3728 126.586 91.3728C126.842 91.3728 127.094 91.4154 127.343 91.5006C127.593 91.5858 127.82 91.7243 128.024 91.9161C128.229 92.1057 128.392 92.3571 128.513 92.6703C128.635 92.9835 128.695 93.3692 128.695 93.8273V94.1469H124.911V93.4949H127.928C127.928 93.2179 127.873 92.9708 127.762 92.7534C127.653 92.5361 127.498 92.3646 127.295 92.2389C127.095 92.1132 126.859 92.0503 126.586 92.0503C126.286 92.0503 126.026 92.1249 125.806 92.274C125.589 92.421 125.422 92.6128 125.304 92.8493C125.187 93.0858 125.129 93.3394 125.129 93.61V94.0446C125.129 94.4154 125.192 94.7296 125.32 94.9875C125.45 95.2431 125.63 95.4381 125.86 95.5723C126.091 95.7044 126.358 95.7705 126.663 95.7705C126.861 95.7705 127.04 95.7428 127.2 95.6874C127.362 95.6299 127.501 95.5446 127.618 95.4317C127.735 95.3166 127.826 95.1739 127.89 95.0034L128.619 95.208C128.542 95.4551 128.413 95.6725 128.232 95.86C128.051 96.0453 127.827 96.1902 127.561 96.2946C127.294 96.3969 126.995 96.448 126.663 96.448ZM131.837 96.448C131.394 96.448 131.005 96.3426 130.67 96.1316C130.338 95.9207 130.078 95.6256 129.891 95.2463C129.705 94.8671 129.613 94.4239 129.613 93.9168C129.613 93.4054 129.705 92.959 129.891 92.5777C130.078 92.1963 130.338 91.9001 130.67 91.6892C131.005 91.4782 131.394 91.3728 131.837 91.3728C132.28 91.3728 132.668 91.4782 133 91.6892C133.335 91.9001 133.595 92.1963 133.78 92.5777C133.968 92.959 134.061 93.4054 134.061 93.9168C134.061 94.4239 133.968 94.8671 133.78 95.2463C133.595 95.6256 133.335 95.9207 133 96.1316C132.668 96.3426 132.28 96.448 131.837 96.448ZM131.837 95.7705C132.174 95.7705 132.451 95.6842 132.668 95.5116C132.885 95.339 133.046 95.1121 133.151 94.8308C133.255 94.5496 133.307 94.2449 133.307 93.9168C133.307 93.5887 133.255 93.2829 133.151 92.9995C133.046 92.7161 132.885 92.4871 132.668 92.3124C132.451 92.1377 132.174 92.0503 131.837 92.0503C131.5 92.0503 131.223 92.1377 131.006 92.3124C130.789 92.4871 130.628 92.7161 130.523 92.9995C130.419 93.2829 130.367 93.5887 130.367 93.9168C130.367 94.2449 130.419 94.5496 130.523 94.8308C130.628 95.1121 130.789 95.339 131.006 95.5116C131.223 95.6842 131.5 95.7705 131.837 95.7705ZM138.307 94.3387V91.4367H139.061V96.3458H138.307V95.5148H138.255C138.14 95.7641 137.961 95.9761 137.718 96.1508C137.476 96.3234 137.169 96.4097 136.798 96.4097C136.491 96.4097 136.218 96.3426 135.98 96.2083C135.741 96.072 135.554 95.8674 135.417 95.5947C135.281 95.3198 135.213 94.9736 135.213 94.556V91.4367H135.967V94.5049C135.967 94.8628 136.067 95.1483 136.267 95.3614C136.47 95.5745 136.728 95.681 137.041 95.681C137.228 95.681 137.419 95.6331 137.613 95.5372C137.809 95.4413 137.973 95.2943 138.105 95.0961C138.239 94.898 138.307 94.6455 138.307 94.3387ZM142.577 91.4367V92.0759H140.033V91.4367H142.577ZM140.775 90.2605H141.529V94.9395C141.529 95.1526 141.56 95.3124 141.622 95.4189C141.686 95.5233 141.767 95.5936 141.865 95.6299C141.965 95.6639 142.07 95.681 142.181 95.681C142.264 95.681 142.332 95.6767 142.385 95.6682C142.439 95.6576 142.481 95.649 142.513 95.6426L142.667 96.3202C142.616 96.3394 142.544 96.3585 142.453 96.3777C142.361 96.399 142.245 96.4097 142.104 96.4097C141.891 96.4097 141.682 96.3639 141.478 96.2723C141.275 96.1806 141.107 96.0411 140.973 95.8536C140.841 95.6661 140.775 95.4296 140.775 95.1441V90.2605Z" fill="#03020D"/>
<rect x="61.3762" y="47.3" width="104.439" height="58.3432" rx="3.7" stroke="#D9D9DA" stroke-width="0.6"/>
</g>
<defs>
<filter id="filter0_d_52_1082" x="1" y="57" width="145.152" height="56" filterUnits="userSpaceOnUse" color-interpolation-filters="sRGB">
<feFlood flood-opacity="0" result="BackgroundImageFix"/>
<feColorMatrix in="SourceAlpha" type="matrix" values="0 0 0 0 0 0 0 0 0 0 0 0 0 0 0 0 0 0 127 0" result="hardAlpha"/>
<feOffset dy="8"/>
<feGaussianBlur stdDeviation="6"/>
<feColorMatrix type="matrix" values="0 0 0 0 0 0 0 0 0 0 0 0 0 0 0 0 0 0 0.05 0"/>
<feBlend mode="normal" in2="BackgroundImageFix" result="effect1_dropShadow_52_1082"/>
<feBlend mode="normal" in="SourceGraphic" in2="effect1_dropShadow_52_1082" result="shape"/>
</filter>
<filter id="filter1_d_52_1082" x="49.0762" y="43" width="129.039" height="82.9432" filterUnits="userSpaceOnUse" color-interpolation-filters="sRGB">
<feFlood flood-opacity="0" result="BackgroundImageFix"/>
<feColorMatrix in="SourceAlpha" type="matrix" values="0 0 0 0 0 0 0 0 0 0 0 0 0 0 0 0 0 0 127 0" result="hardAlpha"/>
<feOffset dy="8"/>
<feGaussianBlur stdDeviation="6"/>
<feColorMatrix type="matrix" values="0 0 0 0 0 0 0 0 0 0 0 0 0 0 0 0 0 0 0.05 0"/>
<feBlend mode="normal" in2="BackgroundImageFix" result="effect1_dropShadow_52_1082"/>
<feBlend mode="normal" in="SourceGraphic" in2="effect1_dropShadow_52_1082" result="shape"/>
</filter>
<radialGradient id="paint0_radial_52_1082" cx="0" cy="0" r="1" gradientUnits="userSpaceOnUse" gradientTransform="translate(33.7546 77) scale(10.5617 10.5617)">
<stop offset="0.12" stop-color="#FAC742"/>
<stop offset="0.32" stop-color="#FAC440"/>
<stop offset="0.48" stop-color="#FBBA3B"/>
<stop offset="0.62" stop-color="#FBA931"/>
<stop offset="0.76" stop-color="#FC9224"/>
<stop offset="0.88" stop-color="#FE7413"/>
<stop offset="1" stop-color="#FF5100"/>
</radialGradient>
<radialGradient id="paint1_radial_52_1082" cx="0" cy="0" r="1" gradientUnits="userSpaceOnUse" gradientTransform="translate(60.3025 77) scale(10.5617 10.5617)">
<stop offset="0.12" stop-color="#FAC742"/>
<stop offset="0.32" stop-color="#FAC440"/>
<stop offset="0.48" stop-color="#FBBA3B"/>
<stop offset="0.62" stop-color="#FBA931"/>
<stop offset="0.76" stop-color="#FC9224"/>
<stop offset="0.88" stop-color="#FE7413"/>
<stop offset="1" stop-color="#FF5100"/>
</radialGradient>
<radialGradient id="paint2_radial_52_1082" cx="0" cy="0" r="1" gradientUnits="userSpaceOnUse" gradientTransform="translate(86.8498 77) scale(10.5617 10.5617)">
<stop offset="0.12" stop-color="#FAC742"/>
<stop offset="0.32" stop-color="#FAC440"/>
<stop offset="0.48" stop-color="#FBBA3B"/>
<stop offset="0.62" stop-color="#FBA931"/>
<stop offset="0.76" stop-color="#FC9224"/>
<stop offset="0.88" stop-color="#FE7413"/>
<stop offset="1" stop-color="#FF5100"/>
</radialGradient>
<radialGradient id="paint3_radial_52_1082" cx="0" cy="0" r="1" gradientUnits="userSpaceOnUse" gradientTransform="translate(113.398 77) scale(10.5617 10.5617)">
<stop offset="0.12" stop-color="#FAC742"/>
<stop offset="0.32" stop-color="#FAC440"/>
<stop offset="0.48" stop-color="#FBBA3B"/>
<stop offset="0.62" stop-color="#FBA931"/>
<stop offset="0.76" stop-color="#FC9224"/>
<stop offset="0.88" stop-color="#FE7413"/>
<stop offset="1" stop-color="#FF5100"/>
</radialGradient>
</defs>
</svg>
