<svg width="48" height="48" viewBox="0 0 48 48" fill="none" xmlns="http://www.w3.org/2000/svg">
<path d="M31 41C31 42 30 43 29 43C28 43 8 43 7 43C6 43 5 42 5 41C5 40 5 7.99989 5 6.99995C5 6 6 5 6.99995 5C7.99989 5 29 5 29 5C30 5 31 6 31 7C31 7.28564 31 12.6006 31 16.5" stroke="#03020D" stroke-width="1.5" stroke-linecap="round"/>
<path d="M9 38H20" stroke="#03020D" stroke-width="1.5" stroke-linecap="round" stroke-linejoin="round"/>
<path d="M9 34H17" stroke="#03020D" stroke-width="1.5" stroke-linecap="round" stroke-linejoin="round"/>
<path d="M9 30H20" stroke="#03020D" stroke-width="1.5" stroke-linecap="round" stroke-linejoin="round"/>
<path d="M9 26H17" stroke="#03020D" stroke-width="1.5" stroke-linecap="round" stroke-linejoin="round"/>
<path d="M14 20H18" stroke="#03020D" stroke-width="1.5" stroke-linecap="round" stroke-linejoin="round"/>
<path fill-rule="evenodd" clip-rule="evenodd" d="M33.2188 18.0612C33.3978 17.9796 33.6022 17.9796 33.7812 18.0612L42.0889 21.8507C42.3389 21.9648 42.5 22.2192 42.5 22.5C42.5 22.7808 42.3389 23.0352 42.0889 23.1493L33.7812 26.9388C33.6022 27.0204 33.3978 27.0204 33.2188 26.9388L24.9111 23.1493C24.6611 23.0352 24.5 22.7808 24.5 22.5C24.5 22.2192 24.6611 21.9648 24.9111 21.8507L33.2188 18.0612Z" fill="#FF5416"/>
<path fill-rule="evenodd" clip-rule="evenodd" d="M42.7074 24.1101C42.8899 24.2359 43 24.451 43 24.6818V34.9091C43 35.1843 42.844 35.4326 42.6044 35.5385L34.8901 38.9475C34.6917 39.0352 34.4651 39.0119 34.2863 38.8855C34.1074 38.759 34 38.5461 34 38.3182V28.3182C34 28.0487 34.1496 27.8046 34.3818 27.6951L42.0961 24.0588C42.2949 23.965 42.525 23.9844 42.7074 24.1101Z" fill="#FF5416"/>
<path fill-rule="evenodd" clip-rule="evenodd" d="M24.2926 24.1101C24.475 23.9844 24.7051 23.965 24.9039 24.0588L32.6182 27.6951C32.8504 27.8046 33 28.0487 33 28.3182V38.3182C33 38.5461 32.8926 38.759 32.7137 38.8855C32.5349 39.0119 32.3083 39.0352 32.1099 38.9475L24.3956 35.5385C24.156 35.4326 24 35.1843 24 34.9091V24.6818C24 24.451 24.1101 24.2359 24.2926 24.1101Z" fill="#FF5416"/>
<path d="M9.00016 20L12.3335 17.5L9.00016 15" stroke="#03020D" stroke-width="1.5" stroke-linecap="round" stroke-linejoin="round"/>
<path d="M40.1708 12.6646L39.5 11.3229L38.8292 12.6646L38.441 13.441L37.6646 13.8292L36.3229 14.5L37.6646 15.1708L38.441 15.559L38.8292 16.3354L39.5 17.6771L40.1708 16.3354L40.559 15.559L41.3354 15.1708L42.6771 14.5L41.3354 13.8292L40.559 13.441L40.1708 12.6646Z" stroke="#03020D" stroke-width="1.5" stroke-linecap="round"/>
<path d="M5 11L31 11" stroke="#03020D" stroke-width="1.5" stroke-linejoin="round"/>
<circle cx="14" cy="8" r="0.5" fill="#03020D" stroke="#03020D"/>
<circle cx="11" cy="8" r="0.5" fill="#03020D" stroke="#03020D"/>
<circle cx="8" cy="8" r="0.5" fill="#03020D" stroke="#03020D"/>
</svg>
