<svg width="230" height="238" viewBox="0 0 230 238" fill="none" xmlns="http://www.w3.org/2000/svg">
<g filter="url(#filter0_dd_0_1764)">
<rect x="34" y="90" width="154" height="30" rx="14.5075" fill="white"/>
<path fill-rule="evenodd" clip-rule="evenodd" d="M54.1052 103.349C54.3361 103.557 54.6917 103.539 54.8996 103.308C55.1074 103.077 55.0887 102.721 54.8577 102.513L51.3672 99.3717C51.2665 99.2769 51.1308 99.2187 50.9816 99.2187C50.8359 99.2187 50.7032 99.2741 50.6033 99.3649L47.1052 102.513C46.8742 102.721 46.8555 103.077 47.0633 103.308C47.2712 103.539 47.6268 103.557 47.8577 103.349L50.4191 101.044L50.4191 110.281C50.4191 110.592 50.6709 110.844 50.9816 110.844C51.2922 110.844 51.5441 110.592 51.5441 110.281L51.5441 101.044L54.1052 103.349Z" fill="#475569"/>
<path d="M63.2033 109V100.208H66.5005C67.176 100.208 67.7427 100.334 68.2006 100.585C68.6614 100.837 69.0091 101.184 69.2438 101.624C69.4814 102.062 69.6002 102.56 69.6002 103.118C69.6002 103.682 69.4814 104.183 69.2438 104.621C69.0063 105.059 68.6557 105.404 68.192 105.656C67.7283 105.905 67.1573 106.029 66.479 106.029H64.2938V104.72H66.2644C66.6593 104.72 66.9828 104.651 67.2346 104.514C67.4865 104.376 67.6725 104.187 67.7927 103.947C67.9158 103.707 67.9773 103.43 67.9773 103.118C67.9773 102.806 67.9158 102.532 67.7927 102.294C67.6725 102.057 67.4851 101.872 67.2303 101.74C66.9785 101.606 66.6536 101.538 66.2558 101.538H64.7961V109H63.2033ZM70.9149 109V102.406H72.4218V103.505H72.4905C72.6107 103.124 72.8168 102.831 73.1087 102.625C73.4035 102.416 73.7398 102.311 74.1176 102.311C74.2035 102.311 74.2994 102.316 74.4053 102.324C74.514 102.33 74.6042 102.34 74.6758 102.354V103.784C74.6099 103.761 74.5055 103.741 74.3624 103.724C74.2221 103.704 74.0862 103.694 73.9545 103.694C73.6712 103.694 73.4164 103.755 73.1903 103.878C72.9671 103.998 72.7911 104.166 72.6623 104.381C72.5335 104.595 72.4691 104.843 72.4691 105.123V109H70.9149ZM78.3561 109.129C77.6949 109.129 77.1239 108.991 76.6431 108.717C76.1651 108.439 75.7973 108.047 75.5398 107.54C75.2822 107.031 75.1534 106.431 75.1534 105.741C75.1534 105.063 75.2822 104.468 75.5398 103.956C75.8002 103.44 76.1637 103.04 76.6302 102.753C77.0967 102.464 77.6448 102.32 78.2745 102.32C78.6809 102.32 79.0644 102.386 79.4251 102.517C79.7886 102.646 80.1091 102.846 80.3867 103.118C80.6672 103.39 80.8876 103.737 81.0479 104.157C81.2082 104.575 81.2883 105.073 81.2883 105.651V106.128H75.8832V105.08H79.7986C79.7957 104.783 79.7313 104.518 79.6054 104.286C79.4794 104.051 79.3034 103.867 79.0773 103.732C78.8541 103.598 78.5936 103.531 78.296 103.531C77.9783 103.531 77.6992 103.608 77.4588 103.762C77.2184 103.914 77.0309 104.114 76.8964 104.363C76.7647 104.61 76.6975 104.88 76.6946 105.175V106.089C76.6946 106.473 76.7647 106.802 76.905 107.077C77.0452 107.349 77.2413 107.557 77.4931 107.703C77.745 107.847 78.0398 107.918 78.3775 107.918C78.6036 107.918 78.8083 107.887 78.9915 107.824C79.1746 107.758 79.3335 107.662 79.468 107.536C79.6025 107.41 79.7041 107.254 79.7728 107.068L81.2239 107.231C81.1323 107.615 80.9577 107.95 80.7001 108.236C80.4454 108.519 80.1191 108.74 79.7213 108.897C79.3235 109.052 78.8684 109.129 78.3561 109.129ZM88.3044 102.406L85.956 109H84.2388L81.8904 102.406H83.5476L85.0631 107.304H85.1318L86.6515 102.406H88.3044ZM89.3798 109V102.406H90.934V109H89.3798ZM90.1612 101.47C89.9151 101.47 89.7033 101.388 89.5258 101.225C89.3484 101.059 89.2596 100.86 89.2596 100.628C89.2596 100.394 89.3484 100.195 89.5258 100.032C89.7033 99.8656 89.9151 99.7826 90.1612 99.7826C90.4102 99.7826 90.622 99.8656 90.7966 100.032C90.974 100.195 91.0628 100.394 91.0628 100.628C91.0628 100.86 90.974 101.059 90.7966 101.225C90.622 101.388 90.4102 101.47 90.1612 101.47ZM95.4085 109.129C94.7645 109.129 94.2064 108.987 93.7342 108.704C93.2619 108.42 92.8956 108.024 92.6351 107.515C92.3775 107.005 92.2488 106.41 92.2488 105.729C92.2488 105.047 92.3775 104.451 92.6351 103.938C92.8956 103.426 93.2619 103.028 93.7342 102.745C94.2064 102.462 94.7645 102.32 95.4085 102.32C96.0525 102.32 96.6106 102.462 97.0829 102.745C97.5551 103.028 97.92 103.426 98.1776 103.938C98.4381 104.451 98.5683 105.047 98.5683 105.729C98.5683 106.41 98.4381 107.005 98.1776 107.515C97.92 108.024 97.5551 108.42 97.0829 108.704C96.6106 108.987 96.0525 109.129 95.4085 109.129ZM95.4171 107.884C95.7663 107.884 96.0582 107.788 96.2929 107.596C96.5276 107.402 96.7022 107.141 96.8167 106.815C96.934 106.488 96.9927 106.125 96.9927 105.724C96.9927 105.321 96.934 104.956 96.8167 104.63C96.7022 104.3 96.5276 104.039 96.2929 103.844C96.0582 103.649 95.7663 103.552 95.4171 103.552C95.0593 103.552 94.7617 103.649 94.5241 103.844C94.2894 104.039 94.1134 104.3 93.9961 104.63C93.8816 104.956 93.8243 105.321 93.8243 105.724C93.8243 106.125 93.8816 106.488 93.9961 106.815C94.1134 107.141 94.2894 107.402 94.5241 107.596C94.7617 107.788 95.0593 107.884 95.4171 107.884ZM104.09 106.227V102.406H105.645V109H104.138V107.828H104.069C103.92 108.197 103.675 108.499 103.335 108.734C102.997 108.969 102.581 109.086 102.085 109.086C101.653 109.086 101.271 108.99 100.939 108.798C100.61 108.604 100.352 108.322 100.166 107.952C99.9804 107.58 99.8874 107.131 99.8874 106.604V102.406H101.441V106.364C101.441 106.782 101.556 107.114 101.785 107.36C102.014 107.606 102.314 107.729 102.687 107.729C102.915 107.729 103.137 107.673 103.352 107.562C103.567 107.45 103.743 107.284 103.88 107.064C104.02 106.841 104.09 106.561 104.09 106.227ZM112.455 104.149L111.038 104.303C110.998 104.16 110.928 104.026 110.827 103.9C110.73 103.774 110.598 103.672 110.432 103.595C110.266 103.518 110.063 103.479 109.823 103.479C109.499 103.479 109.228 103.549 109.007 103.689C108.79 103.83 108.682 104.011 108.685 104.235C108.682 104.426 108.752 104.582 108.896 104.703C109.041 104.823 109.282 104.921 109.617 104.999L110.742 105.239C111.366 105.374 111.829 105.587 112.133 105.879C112.439 106.171 112.593 106.553 112.596 107.025C112.593 107.44 112.472 107.807 112.231 108.124C111.994 108.439 111.663 108.685 111.24 108.863C110.816 109.04 110.329 109.129 109.78 109.129C108.973 109.129 108.323 108.96 107.831 108.622C107.339 108.282 107.045 107.808 106.951 107.201L108.466 107.055C108.535 107.353 108.681 107.578 108.904 107.729C109.127 107.881 109.418 107.957 109.776 107.957C110.145 107.957 110.441 107.881 110.664 107.729C110.89 107.578 111.003 107.39 111.003 107.167C111.003 106.978 110.93 106.822 110.784 106.699C110.641 106.576 110.418 106.481 110.115 106.416L108.99 106.179C108.357 106.048 107.889 105.826 107.586 105.514C107.283 105.199 107.132 104.801 107.135 104.32C107.132 103.914 107.243 103.562 107.466 103.264C107.692 102.964 108.005 102.732 108.406 102.569C108.81 102.403 109.275 102.32 109.801 102.32C110.574 102.32 111.182 102.484 111.626 102.814C112.072 103.143 112.349 103.588 112.455 104.149ZM116.876 109V102.406H118.362V103.526H118.439C118.577 103.148 118.804 102.854 119.122 102.642C119.44 102.427 119.819 102.32 120.26 102.32C120.706 102.32 121.082 102.429 121.389 102.646C121.698 102.861 121.915 103.154 122.041 103.526H122.11C122.256 103.16 122.502 102.868 122.848 102.65C123.197 102.43 123.611 102.32 124.089 102.32C124.696 102.32 125.191 102.512 125.574 102.895C125.958 103.279 126.15 103.838 126.15 104.574V109H124.591V104.814C124.591 104.405 124.483 104.106 124.265 103.917C124.048 103.725 123.781 103.629 123.467 103.629C123.092 103.629 122.798 103.747 122.586 103.981C122.377 104.213 122.273 104.515 122.273 104.887V109H120.749V104.75C120.749 104.409 120.646 104.137 120.44 103.934C120.237 103.731 119.97 103.629 119.641 103.629C119.418 103.629 119.215 103.686 119.032 103.801C118.848 103.913 118.703 104.071 118.594 104.278C118.485 104.481 118.431 104.718 118.431 104.99V109H116.876ZM130.646 109.129C129.985 109.129 129.414 108.991 128.933 108.717C128.455 108.439 128.087 108.047 127.829 107.54C127.572 107.031 127.443 106.431 127.443 105.741C127.443 105.063 127.572 104.468 127.829 103.956C128.09 103.44 128.453 103.04 128.92 102.753C129.386 102.464 129.935 102.32 130.564 102.32C130.971 102.32 131.354 102.386 131.715 102.517C132.078 102.646 132.399 102.846 132.676 103.118C132.957 103.39 133.177 103.737 133.338 104.157C133.498 104.575 133.578 105.073 133.578 105.651V106.128H128.173V105.08H132.088C132.085 104.783 132.021 104.518 131.895 104.286C131.769 104.051 131.593 103.867 131.367 103.732C131.144 103.598 130.883 103.531 130.586 103.531C130.268 103.531 129.989 103.608 129.748 103.762C129.508 103.914 129.321 104.114 129.186 104.363C129.054 104.61 128.987 104.88 128.984 105.175V106.089C128.984 106.473 129.054 106.802 129.195 107.077C129.335 107.349 129.531 107.557 129.783 107.703C130.035 107.847 130.329 107.918 130.667 107.918C130.893 107.918 131.098 107.887 131.281 107.824C131.464 107.758 131.623 107.662 131.758 107.536C131.892 107.41 131.994 107.254 132.062 107.068L133.514 107.231C133.422 107.615 133.247 107.95 132.99 108.236C132.735 108.519 132.409 108.74 132.011 108.897C131.613 109.052 131.158 109.129 130.646 109.129ZM140.105 104.149L138.688 104.303C138.648 104.16 138.578 104.026 138.478 103.9C138.38 103.774 138.249 103.672 138.083 103.595C137.917 103.518 137.713 103.479 137.473 103.479C137.15 103.479 136.878 103.549 136.657 103.689C136.44 103.83 136.332 104.011 136.335 104.235C136.332 104.426 136.403 104.582 136.546 104.703C136.692 104.823 136.932 104.921 137.267 104.999L138.392 105.239C139.016 105.374 139.479 105.587 139.783 105.879C140.089 106.171 140.243 106.553 140.246 107.025C140.243 107.44 140.122 107.807 139.881 108.124C139.644 108.439 139.313 108.685 138.89 108.863C138.466 109.04 137.98 109.129 137.43 109.129C136.623 109.129 135.973 108.96 135.481 108.622C134.989 108.282 134.695 107.808 134.601 107.201L136.116 107.055C136.185 107.353 136.331 107.578 136.554 107.729C136.777 107.881 137.068 107.957 137.426 107.957C137.795 107.957 138.091 107.881 138.314 107.729C138.541 107.578 138.654 107.39 138.654 107.167C138.654 106.978 138.581 106.822 138.435 106.699C138.292 106.576 138.068 106.481 137.765 106.416L136.64 106.179C136.008 106.048 135.54 105.826 135.236 105.514C134.933 105.199 134.783 104.801 134.785 104.32C134.783 103.914 134.893 103.562 135.116 103.264C135.342 102.964 135.656 102.732 136.056 102.569C136.46 102.403 136.925 102.32 137.451 102.32C138.224 102.32 138.832 102.484 139.276 102.814C139.723 103.143 139.999 103.588 140.105 104.149ZM146.74 104.149L145.323 104.303C145.283 104.16 145.213 104.026 145.113 103.9C145.015 103.774 144.884 103.672 144.718 103.595C144.552 103.518 144.348 103.479 144.108 103.479C143.785 103.479 143.513 103.549 143.292 103.689C143.075 103.83 142.967 104.011 142.97 104.235C142.967 104.426 143.038 104.582 143.181 104.703C143.327 104.823 143.567 104.921 143.902 104.999L145.027 105.239C145.651 105.374 146.114 105.587 146.418 105.879C146.724 106.171 146.879 106.553 146.881 107.025C146.879 107.44 146.757 107.807 146.517 108.124C146.279 108.439 145.948 108.685 145.525 108.863C145.101 109.04 144.615 109.129 144.065 109.129C143.258 109.129 142.608 108.96 142.116 108.622C141.624 108.282 141.33 107.808 141.236 107.201L142.751 107.055C142.82 107.353 142.966 107.578 143.189 107.729C143.413 107.881 143.703 107.957 144.061 107.957C144.43 107.957 144.726 107.881 144.95 107.729C145.176 107.578 145.289 107.39 145.289 107.167C145.289 106.978 145.216 106.822 145.07 106.699C144.927 106.576 144.703 106.481 144.4 106.416L143.275 106.179C142.643 106.048 142.175 105.826 141.871 105.514C141.568 105.199 141.418 104.801 141.421 104.32C141.418 103.914 141.528 103.562 141.751 103.264C141.977 102.964 142.291 102.732 142.691 102.569C143.095 102.403 143.56 102.32 144.087 102.32C144.859 102.32 145.468 102.484 145.911 102.814C146.358 103.143 146.634 103.588 146.74 104.149ZM150.061 109.133C149.643 109.133 149.266 109.059 148.931 108.91C148.599 108.758 148.336 108.535 148.141 108.24C147.95 107.945 147.854 107.582 147.854 107.15C147.854 106.778 147.923 106.47 148.06 106.227C148.197 105.983 148.385 105.789 148.622 105.643C148.86 105.497 149.127 105.387 149.425 105.312C149.726 105.235 150.036 105.179 150.357 105.145C150.743 105.105 151.057 105.069 151.297 105.037C151.537 105.003 151.712 104.952 151.821 104.883C151.932 104.811 151.988 104.701 151.988 104.552V104.527C151.988 104.203 151.892 103.953 151.701 103.775C151.509 103.598 151.233 103.509 150.872 103.509C150.491 103.509 150.189 103.592 149.966 103.758C149.746 103.924 149.597 104.12 149.52 104.346L148.068 104.14C148.183 103.739 148.372 103.405 148.635 103.136C148.899 102.864 149.22 102.66 149.601 102.526C149.982 102.389 150.403 102.32 150.863 102.32C151.181 102.32 151.497 102.357 151.812 102.431C152.127 102.506 152.415 102.629 152.675 102.801C152.936 102.97 153.144 103.2 153.302 103.492C153.462 103.784 153.542 104.149 153.542 104.587V109H152.048V108.094H151.997C151.902 108.277 151.769 108.449 151.597 108.609C151.429 108.767 151.215 108.894 150.958 108.991C150.703 109.086 150.404 109.133 150.061 109.133ZM150.464 107.991C150.776 107.991 151.047 107.93 151.275 107.807C151.504 107.681 151.68 107.515 151.804 107.308C151.929 107.102 151.992 106.878 151.992 106.634V105.857C151.944 105.897 151.861 105.935 151.743 105.969C151.629 106.003 151.5 106.033 151.357 106.059C151.214 106.085 151.072 106.108 150.932 106.128C150.792 106.148 150.67 106.165 150.567 106.179C150.335 106.211 150.128 106.262 149.945 106.334C149.761 106.405 149.617 106.506 149.511 106.634C149.405 106.76 149.352 106.924 149.352 107.124C149.352 107.41 149.457 107.626 149.666 107.772C149.874 107.918 150.141 107.991 150.464 107.991ZM157.973 111.61C157.415 111.61 156.935 111.534 156.535 111.383C156.134 111.234 155.812 111.034 155.569 110.782C155.325 110.53 155.157 110.251 155.062 109.944L156.462 109.605C156.525 109.734 156.616 109.861 156.736 109.987C156.857 110.116 157.018 110.222 157.222 110.305C157.428 110.391 157.687 110.434 157.999 110.434C158.439 110.434 158.804 110.327 159.093 110.112C159.382 109.9 159.527 109.551 159.527 109.064V107.815H159.45C159.37 107.975 159.252 108.14 159.098 108.309C158.946 108.478 158.744 108.619 158.492 108.734C158.243 108.848 157.93 108.906 157.552 108.906C157.045 108.906 156.586 108.787 156.174 108.549C155.765 108.309 155.438 107.951 155.195 107.476C154.955 106.998 154.835 106.4 154.835 105.681C154.835 104.957 154.955 104.346 155.195 103.848C155.438 103.347 155.766 102.968 156.178 102.711C156.59 102.45 157.05 102.32 157.556 102.32C157.943 102.32 158.26 102.386 158.509 102.517C158.761 102.646 158.962 102.802 159.111 102.985C159.259 103.166 159.372 103.336 159.45 103.496H159.536V102.406H161.068V109.107C161.068 109.671 160.934 110.138 160.665 110.507C160.396 110.876 160.028 111.152 159.561 111.335C159.095 111.519 158.565 111.61 157.973 111.61ZM157.986 107.686C158.315 107.686 158.595 107.606 158.827 107.446C159.059 107.286 159.235 107.055 159.355 106.755C159.475 106.454 159.536 106.094 159.536 105.673C159.536 105.258 159.475 104.894 159.355 104.582C159.238 104.27 159.063 104.029 158.831 103.857C158.602 103.682 158.321 103.595 157.986 103.595C157.639 103.595 157.35 103.685 157.118 103.865C156.887 104.046 156.712 104.293 156.595 104.608C156.477 104.92 156.419 105.275 156.419 105.673C156.419 106.076 156.477 106.43 156.595 106.733C156.715 107.034 156.891 107.268 157.123 107.437C157.357 107.603 157.645 107.686 157.986 107.686ZM165.58 109.129C164.919 109.129 164.348 108.991 163.867 108.717C163.389 108.439 163.022 108.047 162.764 107.54C162.506 107.031 162.378 106.431 162.378 105.741C162.378 105.063 162.506 104.468 162.764 103.956C163.024 103.44 163.388 103.04 163.854 102.753C164.321 102.464 164.869 102.32 165.499 102.32C165.905 102.32 166.289 102.386 166.649 102.517C167.013 102.646 167.333 102.846 167.611 103.118C167.891 103.39 168.112 103.737 168.272 104.157C168.432 104.575 168.513 105.073 168.513 105.651V106.128H163.107V105.08H167.023C167.02 104.783 166.956 104.518 166.83 104.286C166.704 104.051 166.528 103.867 166.302 103.732C166.078 103.598 165.818 103.531 165.52 103.531C165.203 103.531 164.923 103.608 164.683 103.762C164.443 103.914 164.255 104.114 164.121 104.363C163.989 104.61 163.922 104.88 163.919 105.175V106.089C163.919 106.473 163.989 106.802 164.129 107.077C164.269 107.349 164.466 107.557 164.717 107.703C164.969 107.847 165.264 107.918 165.602 107.918C165.828 107.918 166.033 107.887 166.216 107.824C166.399 107.758 166.558 107.662 166.692 107.536C166.827 107.41 166.928 107.254 166.997 107.068L168.448 107.231C168.357 107.615 168.182 107.95 167.924 108.236C167.67 108.519 167.343 108.74 166.946 108.897C166.548 109.052 166.093 109.129 165.58 109.129ZM175.039 104.149L173.622 104.303C173.582 104.16 173.512 104.026 173.412 103.9C173.315 103.774 173.183 103.672 173.017 103.595C172.851 103.518 172.648 103.479 172.408 103.479C172.084 103.479 171.812 103.549 171.592 103.689C171.374 103.83 171.267 104.011 171.27 104.235C171.267 104.426 171.337 104.582 171.48 104.703C171.626 104.823 171.867 104.921 172.201 104.999L173.326 105.239C173.95 105.374 174.414 105.587 174.717 105.879C175.023 106.171 175.178 106.553 175.181 107.025C175.178 107.44 175.056 107.807 174.816 108.124C174.578 108.439 174.248 108.685 173.824 108.863C173.401 109.04 172.914 109.129 172.365 109.129C171.557 109.129 170.908 108.96 170.415 108.622C169.923 108.282 169.63 107.808 169.535 107.201L171.051 107.055C171.12 107.353 171.266 107.578 171.489 107.729C171.712 107.881 172.003 107.957 172.36 107.957C172.73 107.957 173.026 107.881 173.249 107.729C173.475 107.578 173.588 107.39 173.588 107.167C173.588 106.978 173.515 106.822 173.369 106.699C173.226 106.576 173.003 106.481 172.699 106.416L171.575 106.179C170.942 106.048 170.474 105.826 170.171 105.514C169.867 105.199 169.717 104.801 169.72 104.32C169.717 103.914 169.827 103.562 170.051 103.264C170.277 102.964 170.59 102.732 170.991 102.569C171.394 102.403 171.859 102.32 172.386 102.32C173.159 102.32 173.767 102.484 174.211 102.814C174.657 103.143 174.933 103.588 175.039 104.149Z" fill="#475569"/>
</g>
<circle cx="51.9458" cy="153.946" r="17.9458" fill="#F8C100" stroke="#F5F5F6" stroke-width="2.33119"/>
<path d="M48.3573 149.165H49.8528V156.215C49.8528 156.853 49.7266 157.398 49.4741 157.851C49.2248 158.304 48.8736 158.651 48.4204 158.89C47.9673 159.127 47.4364 159.245 46.8279 159.245C46.2679 159.245 45.7645 159.143 45.3178 158.939C44.8743 158.735 44.5231 158.439 44.2642 158.05C44.0085 157.659 43.8806 157.183 43.8806 156.623H45.3712C45.3712 156.898 45.4343 157.136 45.5606 157.337C45.6901 157.537 45.8665 157.694 46.0898 157.808C46.3164 157.918 46.5754 157.973 46.8667 157.973C47.1839 157.973 47.4526 157.906 47.6727 157.774C47.8961 157.638 48.066 157.439 48.1825 157.176C48.2991 156.914 48.3573 156.594 48.3573 156.215V149.165ZM51.5462 150.456V149.165H59.2421V150.456H56.1394V159.109H54.6439V150.456H51.5462Z" fill="#291C01"/>
<g clip-path="url(#clip0_0_1764)">
<path d="M84.1327 140.606H85.8206V147.211C85.8175 147.817 85.6891 148.338 85.4353 148.775C85.1815 149.21 84.8268 149.544 84.3712 149.78C83.9186 150.012 83.3911 150.128 82.7887 150.128C82.2383 150.128 81.7429 150.031 81.3026 149.835C80.8653 149.636 80.5183 149.343 80.2614 148.954C80.0045 148.566 79.8761 148.083 79.8761 147.505H81.5686C81.5717 147.759 81.6267 147.977 81.7338 148.161C81.8439 148.344 81.9952 148.485 82.1879 148.583C82.3805 148.681 82.6022 148.729 82.8529 148.729C83.1251 148.729 83.356 148.673 83.5456 148.56C83.7351 148.444 83.8789 148.272 83.9767 148.046C84.0776 147.82 84.1296 147.541 84.1327 147.211V140.606ZM90.6666 150.138C89.9785 150.138 89.3822 149.986 88.8777 149.684C88.3732 149.381 87.9817 148.957 87.7035 148.413C87.4283 147.869 87.2907 147.233 87.2907 146.505C87.2907 145.777 87.4283 145.14 87.7035 144.592C87.9817 144.045 88.3732 143.62 88.8777 143.317C89.3822 143.014 89.9785 142.863 90.6666 142.863C91.3546 142.863 91.9509 143.014 92.4554 143.317C92.9599 143.62 93.3498 144.045 93.625 144.592C93.9033 145.14 94.0424 145.777 94.0424 146.505C94.0424 147.233 93.9033 147.869 93.625 148.413C93.3498 148.957 92.9599 149.381 92.4554 149.684C91.9509 149.986 91.3546 150.138 90.6666 150.138ZM90.6757 148.807C91.0488 148.807 91.3607 148.705 91.6114 148.5C91.8622 148.292 92.0487 148.014 92.171 147.665C92.2964 147.317 92.3591 146.928 92.3591 146.5C92.3591 146.069 92.2964 145.679 92.171 145.331C92.0487 144.979 91.8622 144.699 91.6114 144.491C91.3607 144.283 91.0488 144.179 90.6757 144.179C90.2935 144.179 89.9755 144.283 89.7217 144.491C89.4709 144.699 89.2829 144.979 89.1575 145.331C89.0352 145.679 88.974 146.069 88.974 146.5C88.974 146.928 89.0352 147.317 89.1575 147.665C89.2829 148.014 89.4709 148.292 89.7217 148.5C89.9755 148.705 90.2935 148.807 90.6757 148.807ZM97.1121 145.872V150H95.4517V142.955H97.0388V144.152H97.1213C97.2834 143.757 97.5418 143.444 97.8965 143.212C98.2543 142.979 98.6961 142.863 99.2221 142.863C99.7083 142.863 100.132 142.967 100.493 143.175C100.856 143.383 101.138 143.684 101.337 144.078C101.538 144.473 101.638 144.951 101.635 145.514V150H99.9743V145.771C99.9743 145.3 99.852 144.932 99.6074 144.666C99.3658 144.4 99.031 144.267 98.6029 144.267C98.3124 144.267 98.054 144.331 97.8277 144.459C97.6045 144.585 97.4286 144.766 97.3002 145.005C97.1748 145.243 97.1121 145.532 97.1121 145.872ZM105.35 150.142C104.904 150.142 104.501 150.063 104.144 149.904C103.789 149.742 103.508 149.503 103.3 149.188C103.095 148.873 102.992 148.485 102.992 148.023C102.992 147.626 103.066 147.297 103.213 147.037C103.359 146.777 103.56 146.569 103.813 146.413C104.067 146.257 104.353 146.139 104.671 146.06C104.992 145.977 105.324 145.918 105.667 145.881C106.079 145.838 106.414 145.8 106.671 145.766C106.928 145.73 107.114 145.675 107.231 145.601C107.35 145.525 107.409 145.407 107.409 145.248V145.221C107.409 144.875 107.307 144.607 107.102 144.418C106.897 144.228 106.602 144.133 106.217 144.133C105.81 144.133 105.488 144.222 105.249 144.4C105.014 144.577 104.855 144.786 104.772 145.028L103.222 144.808C103.344 144.38 103.546 144.022 103.827 143.734C104.109 143.444 104.453 143.227 104.859 143.083C105.266 142.936 105.715 142.863 106.208 142.863C106.547 142.863 106.885 142.903 107.221 142.982C107.558 143.062 107.865 143.193 108.143 143.377C108.422 143.557 108.645 143.803 108.813 144.115C108.984 144.427 109.07 144.817 109.07 145.285V150H107.474V149.032H107.419C107.318 149.228 107.176 149.411 106.992 149.583C106.812 149.751 106.584 149.887 106.309 149.991C106.037 150.092 105.717 150.142 105.35 150.142ZM105.781 148.922C106.114 148.922 106.403 148.856 106.648 148.725C106.893 148.59 107.081 148.413 107.212 148.193C107.347 147.973 107.414 147.733 107.414 147.473V146.642C107.362 146.685 107.273 146.725 107.148 146.762C107.026 146.798 106.888 146.831 106.735 146.858C106.582 146.886 106.431 146.91 106.281 146.931C106.131 146.953 106.001 146.971 105.891 146.986C105.644 147.02 105.422 147.075 105.226 147.152C105.03 147.228 104.876 147.335 104.763 147.473C104.65 147.607 104.593 147.782 104.593 147.996C104.593 148.301 104.705 148.532 104.928 148.688C105.151 148.844 105.436 148.922 105.781 148.922ZM112.4 145.872V150H110.74V140.606H112.363V144.152H112.446C112.611 143.754 112.866 143.441 113.212 143.212C113.56 142.979 114.004 142.863 114.542 142.863C115.031 142.863 115.458 142.965 115.822 143.17C116.186 143.375 116.467 143.675 116.666 144.069C116.867 144.464 116.968 144.945 116.968 145.514V150H115.308V145.771C115.308 145.297 115.186 144.929 114.941 144.666C114.699 144.4 114.36 144.267 113.923 144.267C113.629 144.267 113.366 144.331 113.134 144.459C112.904 144.585 112.724 144.766 112.593 145.005C112.464 145.243 112.4 145.532 112.4 145.872ZM121.525 142.033V140.606H129.02V142.033H126.117V150H124.429V142.033H121.525ZM132.052 145.872V150H130.392V140.606H132.015V144.152H132.098C132.263 143.754 132.518 143.441 132.864 143.212C133.213 142.979 133.656 142.863 134.194 142.863C134.683 142.863 135.11 142.965 135.474 143.17C135.838 143.375 136.119 143.675 136.318 144.069C136.52 144.464 136.62 144.945 136.62 145.514V150H134.96V145.771C134.96 145.297 134.838 144.929 134.593 144.666C134.352 144.4 134.012 144.267 133.575 144.267C133.281 144.267 133.018 144.331 132.786 144.459C132.557 144.585 132.376 144.766 132.245 145.005C132.116 145.243 132.052 145.532 132.052 145.872ZM141.386 150.138C140.698 150.138 140.102 149.986 139.597 149.684C139.093 149.381 138.701 148.957 138.423 148.413C138.148 147.869 138.01 147.233 138.01 146.505C138.01 145.777 138.148 145.14 138.423 144.592C138.701 144.045 139.093 143.62 139.597 143.317C140.102 143.014 140.698 142.863 141.386 142.863C142.074 142.863 142.67 143.014 143.175 143.317C143.68 143.62 144.069 144.045 144.345 144.592C144.623 145.14 144.762 145.777 144.762 146.505C144.762 147.233 144.623 147.869 144.345 148.413C144.069 148.957 143.68 149.381 143.175 149.684C142.67 149.986 142.074 150.138 141.386 150.138ZM141.395 148.807C141.768 148.807 142.08 148.705 142.331 148.5C142.582 148.292 142.768 148.014 142.891 147.665C143.016 147.317 143.079 146.928 143.079 146.5C143.079 146.069 143.016 145.679 142.891 145.331C142.768 144.979 142.582 144.699 142.331 144.491C142.08 144.283 141.768 144.179 141.395 144.179C141.013 144.179 140.695 144.283 140.441 144.491C140.191 144.699 140.002 144.979 139.877 145.331C139.755 145.679 139.694 146.069 139.694 146.5C139.694 146.928 139.755 147.317 139.877 147.665C140.002 148.014 140.191 148.292 140.441 148.5C140.695 148.705 141.013 148.807 141.395 148.807ZM146.171 150V142.955H147.758V144.152H147.841C147.988 143.748 148.231 143.433 148.57 143.207C148.91 142.978 149.315 142.863 149.786 142.863C150.263 142.863 150.665 142.979 150.992 143.212C151.322 143.441 151.555 143.754 151.689 144.152H151.763C151.919 143.76 152.182 143.449 152.552 143.216C152.925 142.981 153.366 142.863 153.877 142.863C154.525 142.863 155.054 143.068 155.464 143.478C155.874 143.887 156.079 144.485 156.079 145.271V150H154.414V145.528C154.414 145.091 154.298 144.771 154.065 144.569C153.833 144.364 153.548 144.262 153.212 144.262C152.811 144.262 152.498 144.387 152.272 144.638C152.049 144.886 151.937 145.208 151.937 145.606V150H150.309V145.459C150.309 145.095 150.199 144.805 149.978 144.588C149.761 144.37 149.477 144.262 149.125 144.262C148.887 144.262 148.67 144.323 148.474 144.445C148.278 144.565 148.122 144.734 148.006 144.955C147.89 145.172 147.832 145.425 147.832 145.716V150H146.171ZM157.763 152.642V142.955H159.396V144.12H159.493C159.578 143.948 159.699 143.767 159.855 143.574C160.011 143.378 160.222 143.212 160.488 143.074C160.754 142.933 161.093 142.863 161.506 142.863C162.05 142.863 162.541 143.002 162.979 143.28C163.419 143.556 163.767 143.964 164.024 144.505C164.284 145.043 164.414 145.704 164.414 146.487C164.414 147.26 164.287 147.918 164.033 148.459C163.78 149 163.434 149.413 162.997 149.697C162.56 149.982 162.064 150.124 161.511 150.124C161.107 150.124 160.772 150.057 160.506 149.922C160.24 149.787 160.026 149.625 159.864 149.436C159.705 149.243 159.581 149.061 159.493 148.89H159.424V152.642H157.763ZM159.392 146.477C159.392 146.933 159.456 147.332 159.584 147.674C159.716 148.017 159.904 148.285 160.148 148.477C160.396 148.667 160.696 148.762 161.047 148.762C161.414 148.762 161.722 148.664 161.969 148.468C162.217 148.269 162.404 147.999 162.529 147.656C162.657 147.311 162.722 146.918 162.722 146.477C162.722 146.04 162.659 145.652 162.534 145.312C162.408 144.973 162.222 144.707 161.974 144.514C161.726 144.322 161.417 144.225 161.047 144.225C160.693 144.225 160.392 144.318 160.144 144.505C159.896 144.692 159.708 144.953 159.58 145.289C159.454 145.626 159.392 146.022 159.392 146.477ZM171.404 144.817L169.891 144.982C169.848 144.829 169.773 144.685 169.666 144.551C169.562 144.416 169.421 144.308 169.244 144.225C169.067 144.143 168.85 144.101 168.593 144.101C168.247 144.101 167.957 144.176 167.721 144.326C167.489 144.476 167.374 144.67 167.377 144.909C167.374 145.114 167.449 145.28 167.602 145.409C167.758 145.537 168.015 145.643 168.373 145.725L169.574 145.982C170.241 146.126 170.736 146.353 171.06 146.665C171.388 146.977 171.553 147.386 171.556 147.89C171.553 148.333 171.423 148.725 171.166 149.064C170.912 149.401 170.559 149.664 170.106 149.853C169.654 150.043 169.134 150.138 168.547 150.138C167.685 150.138 166.99 149.957 166.464 149.596C165.939 149.232 165.625 148.726 165.524 148.078L167.143 147.922C167.217 148.24 167.373 148.48 167.611 148.642C167.85 148.804 168.16 148.885 168.542 148.885C168.937 148.885 169.253 148.804 169.492 148.642C169.733 148.48 169.854 148.28 169.854 148.041C169.854 147.84 169.776 147.673 169.62 147.541C169.467 147.41 169.229 147.309 168.905 147.239L167.703 146.986C167.027 146.846 166.527 146.609 166.203 146.276C165.879 145.939 165.718 145.514 165.721 145C165.718 144.566 165.836 144.19 166.075 143.872C166.316 143.551 166.651 143.303 167.079 143.129C167.51 142.952 168.007 142.863 168.57 142.863C169.395 142.863 170.045 143.039 170.519 143.39C170.996 143.742 171.291 144.218 171.404 144.817ZM175.998 150.138C175.31 150.138 174.714 149.986 174.209 149.684C173.705 149.381 173.313 148.957 173.035 148.413C172.76 147.869 172.622 147.233 172.622 146.505C172.622 145.777 172.76 145.14 173.035 144.592C173.313 144.045 173.705 143.62 174.209 143.317C174.714 143.014 175.31 142.863 175.998 142.863C176.686 142.863 177.282 143.014 177.787 143.317C178.292 143.62 178.681 144.045 178.957 144.592C179.235 145.14 179.374 145.777 179.374 146.505C179.374 147.233 179.235 147.869 178.957 148.413C178.681 148.957 178.292 149.381 177.787 149.684C177.282 149.986 176.686 150.138 175.998 150.138ZM176.007 148.807C176.38 148.807 176.692 148.705 176.943 148.5C177.194 148.292 177.38 148.014 177.503 147.665C177.628 147.317 177.691 146.928 177.691 146.5C177.691 146.069 177.628 145.679 177.503 145.331C177.38 144.979 177.194 144.699 176.943 144.491C176.692 144.283 176.38 144.179 176.007 144.179C175.625 144.179 175.307 144.283 175.053 144.491C174.802 144.699 174.614 144.979 174.489 145.331C174.367 145.679 174.306 146.069 174.306 146.5C174.306 146.928 174.367 147.317 174.489 147.665C174.614 148.014 174.802 148.292 175.053 148.5C175.307 148.705 175.625 148.807 176.007 148.807ZM182.444 145.872V150H180.783V142.955H182.37V144.152H182.453C182.615 143.757 182.873 143.444 183.228 143.212C183.586 142.979 184.028 142.863 184.554 142.863C185.04 142.863 185.463 142.967 185.824 143.175C186.188 143.383 186.469 143.684 186.668 144.078C186.87 144.473 186.969 144.951 186.966 145.514V150H185.306V145.771C185.306 145.3 185.184 144.932 184.939 144.666C184.697 144.4 184.363 144.267 183.934 144.267C183.644 144.267 183.386 144.331 183.159 144.459C182.936 144.585 182.76 144.766 182.632 145.005C182.506 145.243 182.444 145.532 182.444 145.872Z" fill="#292831"/>
<circle cx="193.938" cy="145.5" r="1.08763" fill="#94A3B8"/>
<path d="M202.54 149.597C202.062 149.597 201.636 149.515 201.261 149.351C200.887 149.186 200.592 148.958 200.374 148.666C200.159 148.371 200.043 148.031 200.026 147.644H201.118C201.132 147.855 201.203 148.038 201.33 148.193C201.46 148.346 201.629 148.464 201.838 148.548C202.046 148.631 202.278 148.673 202.533 148.673C202.813 148.673 203.061 148.624 203.277 148.527C203.494 148.429 203.665 148.294 203.788 148.12C203.91 147.944 203.972 147.741 203.972 147.512C203.972 147.273 203.91 147.063 203.788 146.882C203.667 146.699 203.49 146.556 203.256 146.451C203.024 146.347 202.744 146.295 202.415 146.295H201.813V145.419H202.415C202.679 145.419 202.911 145.372 203.11 145.277C203.311 145.182 203.469 145.049 203.583 144.88C203.696 144.709 203.753 144.508 203.753 144.279C203.753 144.059 203.703 143.868 203.603 143.705C203.506 143.541 203.367 143.412 203.186 143.319C203.008 143.227 202.797 143.18 202.554 143.18C202.322 143.18 202.105 143.223 201.904 143.309C201.704 143.392 201.542 143.513 201.417 143.671C201.292 143.826 201.225 144.012 201.215 144.23H200.176C200.188 143.846 200.301 143.507 200.517 143.215C200.734 142.923 201.022 142.695 201.379 142.53C201.736 142.366 202.132 142.284 202.568 142.284C203.024 142.284 203.418 142.373 203.749 142.551C204.083 142.727 204.34 142.963 204.521 143.257C204.704 143.551 204.795 143.873 204.792 144.223C204.795 144.622 204.683 144.96 204.459 145.238C204.236 145.516 203.939 145.703 203.569 145.798V145.854C204.041 145.925 204.408 146.113 204.667 146.417C204.929 146.72 205.059 147.097 205.056 147.546C205.059 147.938 204.95 148.289 204.73 148.6C204.512 148.91 204.214 149.155 203.836 149.333C203.459 149.509 203.026 149.597 202.54 149.597ZM208.849 149.618C208.3 149.616 207.83 149.471 207.441 149.184C207.052 148.896 206.754 148.478 206.548 147.929C206.341 147.38 206.238 146.718 206.238 145.944C206.238 145.172 206.341 144.513 206.548 143.966C206.756 143.419 207.055 143.002 207.444 142.715C207.836 142.427 208.304 142.284 208.849 142.284C209.393 142.284 209.86 142.428 210.25 142.718C210.639 143.005 210.937 143.423 211.143 143.97C211.352 144.514 211.456 145.172 211.456 145.944C211.456 146.72 211.353 147.383 211.147 147.932C210.94 148.479 210.643 148.897 210.253 149.187C209.864 149.475 209.396 149.618 208.849 149.618ZM208.849 148.69C209.331 148.69 209.707 148.455 209.979 147.984C210.252 147.514 210.389 146.834 210.389 145.944C210.389 145.353 210.326 144.854 210.201 144.446C210.078 144.036 209.901 143.725 209.669 143.514C209.44 143.301 209.166 143.194 208.849 143.194C208.369 143.194 207.993 143.431 207.719 143.903C207.446 144.376 207.308 145.056 207.305 145.944C207.305 146.537 207.367 147.039 207.49 147.449C207.615 147.857 207.792 148.166 208.022 148.377C208.251 148.586 208.527 148.69 208.849 148.69ZM212.703 149.5V144.161H213.701V145.03H213.767C213.878 144.735 214.06 144.506 214.312 144.341C214.565 144.175 214.867 144.091 215.22 144.091C215.577 144.091 215.875 144.175 216.116 144.341C216.36 144.508 216.539 144.738 216.655 145.03H216.711C216.838 144.745 217.041 144.518 217.319 144.348C217.597 144.177 217.929 144.091 218.313 144.091C218.798 144.091 219.193 144.243 219.499 144.547C219.807 144.85 219.961 145.308 219.961 145.92V149.5H218.922V146.017C218.922 145.655 218.823 145.394 218.626 145.231C218.429 145.069 218.194 144.988 217.921 144.988C217.582 144.988 217.319 145.092 217.132 145.301C216.944 145.507 216.85 145.772 216.85 146.097V149.5H215.814V145.951C215.814 145.661 215.724 145.428 215.543 145.252C215.362 145.076 215.127 144.988 214.837 144.988C214.64 144.988 214.458 145.04 214.292 145.144C214.127 145.246 213.994 145.389 213.892 145.572C213.792 145.755 213.742 145.967 213.742 146.208V149.5H212.703Z" fill="#798699"/>
<path d="M82.3736 170.845L79.7781 161.353H80.9461L82.9298 169.084H83.0224L85.0432 161.353H86.341L88.3617 169.084H88.4544L90.4381 161.353H91.6061L89.0106 170.845H87.8241L85.7292 163.281H85.655L83.5601 170.845H82.3736ZM93.9838 166.563V170.845H92.8899V161.353H93.9838V164.839H94.0764C94.2433 164.471 94.4936 164.179 94.8273 163.963C95.1641 163.743 95.6121 163.633 96.1714 163.633C96.6565 163.633 97.0813 163.731 97.4459 163.925C97.8106 164.117 98.0933 164.412 98.2941 164.811C98.498 165.206 98.6 165.71 98.6 166.322V170.845H97.5062V166.396C97.5062 165.83 97.3594 165.393 97.0659 165.084C96.7754 164.772 96.3722 164.616 95.8562 164.616C95.4978 164.616 95.1764 164.692 94.8922 164.843C94.611 164.995 94.3885 165.215 94.2248 165.506C94.0641 165.796 93.9838 166.149 93.9838 166.563ZM103.586 170.994C102.9 170.994 102.308 170.842 101.811 170.539C101.316 170.233 100.935 169.807 100.666 169.26C100.4 168.71 100.267 168.071 100.267 167.341C100.267 166.612 100.4 165.969 100.666 165.413C100.935 164.854 101.309 164.418 101.788 164.106C102.27 163.791 102.832 163.633 103.475 163.633C103.845 163.633 104.212 163.695 104.573 163.819C104.935 163.942 105.264 164.143 105.56 164.421C105.857 164.696 106.093 165.061 106.269 165.515C106.446 165.969 106.534 166.529 106.534 167.193V167.656H101.046V166.711H105.421C105.421 166.309 105.341 165.951 105.18 165.636C105.023 165.321 104.797 165.072 104.504 164.889C104.213 164.707 103.87 164.616 103.475 164.616C103.039 164.616 102.662 164.724 102.344 164.94C102.029 165.154 101.786 165.432 101.616 165.775C101.446 166.118 101.361 166.485 101.361 166.878V167.508C101.361 168.046 101.454 168.502 101.639 168.875C101.828 169.246 102.089 169.529 102.423 169.724C102.756 169.915 103.144 170.011 103.586 170.011C103.873 170.011 104.133 169.971 104.365 169.89C104.599 169.807 104.802 169.683 104.972 169.52C105.142 169.353 105.273 169.146 105.366 168.899L106.422 169.195C106.311 169.554 106.124 169.869 105.862 170.141C105.599 170.41 105.275 170.62 104.888 170.771C104.502 170.919 104.068 170.994 103.586 170.994ZM108.198 170.845V163.726H109.254V164.801H109.328C109.458 164.449 109.693 164.163 110.033 163.944C110.373 163.725 110.756 163.615 111.182 163.615C111.263 163.615 111.363 163.616 111.484 163.62C111.604 163.623 111.695 163.627 111.757 163.633V164.746C111.72 164.737 111.635 164.723 111.502 164.704C111.372 164.682 111.235 164.672 111.09 164.672C110.744 164.672 110.435 164.744 110.163 164.889C109.894 165.032 109.681 165.229 109.523 165.483C109.369 165.733 109.291 166.019 109.291 166.34V170.845H108.198ZM115.822 170.994C115.136 170.994 114.544 170.842 114.047 170.539C113.552 170.233 113.171 169.807 112.902 169.26C112.636 168.71 112.503 168.071 112.503 167.341C112.503 166.612 112.636 165.969 112.902 165.413C113.171 164.854 113.545 164.418 114.023 164.106C114.505 163.791 115.068 163.633 115.711 163.633C116.081 163.633 116.447 163.695 116.809 163.819C117.171 163.942 117.5 164.143 117.796 164.421C118.093 164.696 118.329 165.061 118.505 165.515C118.681 165.969 118.77 166.529 118.77 167.193V167.656H113.282V166.711H117.657C117.657 166.309 117.577 165.951 117.416 165.636C117.259 165.321 117.033 165.072 116.739 164.889C116.449 164.707 116.106 164.616 115.711 164.616C115.275 164.616 114.898 164.724 114.58 164.94C114.264 165.154 114.022 165.432 113.852 165.775C113.682 166.118 113.597 166.485 113.597 166.878V167.508C113.597 168.046 113.69 168.502 113.875 168.875C114.064 169.246 114.325 169.529 114.658 169.724C114.992 169.915 115.38 170.011 115.822 170.011C116.109 170.011 116.369 169.971 116.6 169.89C116.835 169.807 117.038 169.683 117.208 169.52C117.378 169.353 117.509 169.146 117.602 168.899L118.658 169.195C118.547 169.554 118.36 169.869 118.097 170.141C117.835 170.41 117.51 170.62 117.124 170.771C116.738 170.919 116.304 170.994 115.822 170.994ZM126.996 170.994C126.329 170.994 125.754 170.836 125.272 170.521C124.79 170.206 124.419 169.771 124.16 169.218C123.9 168.665 123.77 168.033 123.77 167.323C123.77 166.6 123.903 165.962 124.169 165.409C124.438 164.852 124.812 164.418 125.291 164.106C125.773 163.791 126.335 163.633 126.978 163.633C127.478 163.633 127.929 163.726 128.331 163.912C128.733 164.097 129.062 164.356 129.318 164.69C129.575 165.024 129.734 165.413 129.796 165.858H128.702C128.618 165.534 128.433 165.246 128.146 164.996C127.861 164.743 127.478 164.616 126.996 164.616C126.57 164.616 126.196 164.727 125.875 164.95C125.556 165.169 125.308 165.48 125.128 165.881C124.952 166.28 124.864 166.748 124.864 167.286C124.864 167.836 124.951 168.315 125.124 168.722C125.3 169.13 125.547 169.447 125.865 169.673C126.187 169.898 126.564 170.011 126.996 170.011C127.281 170.011 127.539 169.962 127.77 169.863C128.002 169.764 128.198 169.622 128.359 169.436C128.52 169.251 128.634 169.028 128.702 168.769H129.796C129.734 169.189 129.581 169.568 129.337 169.904C129.096 170.238 128.776 170.504 128.377 170.702C127.982 170.896 127.522 170.994 126.996 170.994ZM133.49 171.012C133.039 171.012 132.629 170.927 132.261 170.757C131.894 170.584 131.602 170.335 131.385 170.011C131.169 169.683 131.061 169.288 131.061 168.824C131.061 168.417 131.141 168.086 131.302 167.833C131.463 167.576 131.677 167.375 131.946 167.23C132.215 167.085 132.512 166.977 132.836 166.906C133.164 166.831 133.493 166.773 133.823 166.73C134.256 166.674 134.607 166.632 134.875 166.604C135.147 166.573 135.345 166.522 135.469 166.451C135.595 166.38 135.659 166.257 135.659 166.081V166.044C135.659 165.586 135.534 165.231 135.283 164.978C135.036 164.724 134.661 164.598 134.157 164.598C133.635 164.598 133.225 164.712 132.929 164.94C132.632 165.169 132.424 165.413 132.303 165.673L131.265 165.302C131.45 164.869 131.698 164.533 132.006 164.292C132.319 164.048 132.658 163.878 133.026 163.782C133.397 163.683 133.762 163.633 134.12 163.633C134.349 163.633 134.611 163.661 134.908 163.717C135.208 163.769 135.497 163.879 135.775 164.046C136.056 164.213 136.289 164.465 136.474 164.801C136.66 165.138 136.753 165.589 136.753 166.155V170.845H135.659V169.881H135.603C135.529 170.036 135.405 170.201 135.232 170.377C135.059 170.553 134.829 170.703 134.542 170.827C134.254 170.95 133.904 171.012 133.49 171.012ZM133.656 170.029C134.089 170.029 134.454 169.945 134.75 169.775C135.05 169.605 135.276 169.385 135.427 169.116C135.581 168.848 135.659 168.565 135.659 168.268V167.267C135.612 167.323 135.51 167.374 135.353 167.42C135.198 167.463 135.019 167.502 134.815 167.536C134.614 167.567 134.418 167.595 134.227 167.619C134.038 167.641 133.885 167.66 133.768 167.675C133.483 167.712 133.218 167.772 132.971 167.856C132.726 167.936 132.529 168.058 132.377 168.222C132.229 168.383 132.155 168.602 132.155 168.88C132.155 169.26 132.295 169.547 132.577 169.742C132.861 169.934 133.221 170.029 133.656 170.029ZM139.843 166.563V170.845H138.749V163.726H139.806V164.839H139.898C140.065 164.477 140.319 164.187 140.659 163.967C140.998 163.745 141.437 163.633 141.975 163.633C142.457 163.633 142.879 163.732 143.24 163.93C143.602 164.125 143.883 164.421 144.084 164.82C144.284 165.215 144.385 165.716 144.385 166.322V170.845H143.291V166.396C143.291 165.837 143.146 165.401 142.855 165.089C142.565 164.774 142.166 164.616 141.66 164.616C141.31 164.616 140.998 164.692 140.723 164.843C140.451 164.995 140.237 165.215 140.079 165.506C139.922 165.796 139.843 166.149 139.843 166.563ZM151.352 161.353V170.845H150.203V161.353H151.352ZM160.349 163.726V164.653H156.512V163.726H160.349ZM157.661 170.845V162.744C157.661 162.336 157.757 161.996 157.949 161.724C158.14 161.452 158.389 161.248 158.695 161.112C159.001 160.976 159.324 160.908 159.664 160.908C159.932 160.908 160.152 160.93 160.322 160.973C160.492 161.016 160.618 161.057 160.702 161.094L160.387 162.039C160.331 162.021 160.254 161.997 160.155 161.97C160.059 161.942 159.932 161.928 159.775 161.928C159.413 161.928 159.152 162.019 158.991 162.201C158.834 162.384 158.755 162.651 158.755 163.003V170.845H157.661ZM161.882 170.845V163.726H162.976V170.845H161.882ZM162.439 162.54C162.225 162.54 162.042 162.467 161.887 162.322C161.736 162.177 161.66 162.002 161.66 161.798C161.66 161.594 161.736 161.42 161.887 161.274C162.042 161.129 162.225 161.057 162.439 161.057C162.652 161.057 162.834 161.129 162.986 161.274C163.14 161.42 163.217 161.594 163.217 161.798C163.217 162.002 163.14 162.177 162.986 162.322C162.834 162.467 162.652 162.54 162.439 162.54ZM166.073 166.563V170.845H164.98V163.726H166.036V164.839H166.129C166.296 164.477 166.549 164.187 166.889 163.967C167.229 163.745 167.668 163.633 168.205 163.633C168.687 163.633 169.109 163.732 169.471 163.93C169.832 164.125 170.113 164.421 170.314 164.82C170.515 165.215 170.616 165.716 170.616 166.322V170.845H169.522V166.396C169.522 165.837 169.377 165.401 169.086 165.089C168.796 164.774 168.397 164.616 167.89 164.616C167.541 164.616 167.229 164.692 166.954 164.843C166.682 164.995 166.467 165.215 166.31 165.506C166.152 165.796 166.073 166.149 166.073 166.563ZM175.302 170.994C174.709 170.994 174.186 170.844 173.731 170.544C173.277 170.241 172.922 169.815 172.665 169.265C172.409 168.712 172.281 168.058 172.281 167.304C172.281 166.556 172.409 165.908 172.665 165.358C172.922 164.808 173.279 164.383 173.736 164.083C174.193 163.783 174.722 163.633 175.321 163.633C175.785 163.633 176.151 163.711 176.419 163.865C176.691 164.017 176.898 164.19 177.041 164.384C177.186 164.576 177.299 164.733 177.379 164.857H177.472V161.353H178.565V170.845H177.509V169.751H177.379C177.299 169.881 177.184 170.045 177.036 170.243C176.888 170.437 176.676 170.612 176.401 170.766C176.126 170.918 175.76 170.994 175.302 170.994ZM175.451 170.011C175.89 170.011 176.26 169.897 176.563 169.668C176.866 169.436 177.096 169.116 177.254 168.709C177.411 168.298 177.49 167.823 177.49 167.286C177.49 166.754 177.413 166.289 177.258 165.891C177.104 165.489 176.875 165.177 176.572 164.954C176.27 164.729 175.896 164.616 175.451 164.616C174.987 164.616 174.601 164.735 174.292 164.973C173.986 165.208 173.756 165.528 173.602 165.932C173.45 166.334 173.374 166.785 173.374 167.286C173.374 167.792 173.452 168.253 173.606 168.667C173.764 169.078 173.995 169.405 174.301 169.649C174.61 169.89 174.994 170.011 175.451 170.011ZM187.487 163.726V164.653H183.798V163.726H187.487ZM184.873 162.021H185.967V168.806C185.967 169.115 186.012 169.347 186.102 169.501C186.194 169.653 186.312 169.754 186.454 169.807C186.599 169.856 186.752 169.881 186.913 169.881C187.033 169.881 187.132 169.875 187.209 169.863C187.287 169.847 187.348 169.835 187.395 169.826L187.617 170.808C187.543 170.836 187.439 170.864 187.307 170.892C187.174 170.922 187.005 170.938 186.801 170.938C186.492 170.938 186.19 170.871 185.893 170.739C185.599 170.606 185.355 170.403 185.161 170.131C184.969 169.86 184.873 169.517 184.873 169.103V162.021ZM190.379 166.563V170.845H189.286V161.353H190.379V164.839H190.472C190.639 164.471 190.889 164.179 191.223 163.963C191.56 163.743 192.008 163.633 192.567 163.633C193.052 163.633 193.477 163.731 193.842 163.925C194.206 164.117 194.489 164.412 194.69 164.811C194.894 165.206 194.996 165.71 194.996 166.322V170.845H193.902V166.396C193.902 165.83 193.755 165.393 193.462 165.084C193.171 164.772 192.768 164.616 192.252 164.616C191.894 164.616 191.572 164.692 191.288 164.843C191.007 164.995 190.784 165.215 190.621 165.506C190.46 165.796 190.379 166.149 190.379 166.563ZM199.982 170.994C199.296 170.994 198.704 170.842 198.207 170.539C197.712 170.233 197.331 169.807 197.062 169.26C196.796 168.71 196.663 168.071 196.663 167.341C196.663 166.612 196.796 165.969 197.062 165.413C197.331 164.854 197.704 164.418 198.183 164.106C198.665 163.791 199.228 163.633 199.87 163.633C200.241 163.633 200.607 163.695 200.969 163.819C201.33 163.942 201.659 164.143 201.956 164.421C202.253 164.696 202.489 165.061 202.665 165.515C202.841 165.969 202.929 166.529 202.929 167.193V167.656H197.442V166.711H201.817C201.817 166.309 201.737 165.951 201.576 165.636C201.418 165.321 201.193 165.072 200.899 164.889C200.609 164.707 200.266 164.616 199.87 164.616C199.435 164.616 199.058 164.724 198.74 164.94C198.424 165.154 198.182 165.432 198.012 165.775C197.842 166.118 197.757 166.485 197.757 166.878V167.508C197.757 168.046 197.85 168.502 198.035 168.875C198.224 169.246 198.485 169.529 198.818 169.724C199.152 169.915 199.54 170.011 199.982 170.011C200.269 170.011 200.529 169.971 200.76 169.89C200.995 169.807 201.198 169.683 201.367 169.52C201.537 169.353 201.669 169.146 201.761 168.899L202.818 169.195C202.707 169.554 202.52 169.869 202.257 170.141C201.995 170.41 201.67 170.62 201.284 170.771C200.898 170.919 200.464 170.994 199.982 170.994ZM205.39 170.919C205.162 170.919 204.966 170.837 204.802 170.674C204.638 170.51 204.556 170.314 204.556 170.085C204.556 169.856 204.638 169.66 204.802 169.496C204.966 169.333 205.162 169.251 205.39 169.251C205.619 169.251 205.815 169.333 205.979 169.496C206.143 169.66 206.225 169.856 206.225 170.085C206.225 170.237 206.186 170.376 206.109 170.502C206.035 170.629 205.934 170.731 205.808 170.808C205.684 170.882 205.545 170.919 205.39 170.919ZM208.985 170.919C208.756 170.919 208.56 170.837 208.396 170.674C208.232 170.51 208.15 170.314 208.15 170.085C208.15 169.856 208.232 169.66 208.396 169.496C208.56 169.333 208.756 169.251 208.985 169.251C209.213 169.251 209.41 169.333 209.573 169.496C209.737 169.66 209.819 169.856 209.819 170.085C209.819 170.237 209.78 170.376 209.703 170.502C209.629 170.629 209.529 170.731 209.402 170.808C209.278 170.882 209.139 170.919 208.985 170.919ZM212.579 170.919C212.35 170.919 212.154 170.837 211.99 170.674C211.827 170.51 211.745 170.314 211.745 170.085C211.745 169.856 211.827 169.66 211.99 169.496C212.154 169.333 212.35 169.251 212.579 169.251C212.808 169.251 213.004 169.333 213.168 169.496C213.331 169.66 213.413 169.856 213.413 170.085C213.413 170.237 213.375 170.376 213.297 170.502C213.223 170.629 213.123 170.731 212.996 170.808C212.873 170.882 212.734 170.919 212.579 170.919Z" fill="#76767C"/>
</g>
<defs>
<filter id="filter0_dd_0_1764" x="30.3731" y="87.5821" width="161.254" height="37.2537" filterUnits="userSpaceOnUse" color-interpolation-filters="sRGB">
<feFlood flood-opacity="0" result="BackgroundImageFix"/>
<feColorMatrix in="SourceAlpha" type="matrix" values="0 0 0 0 0 0 0 0 0 0 0 0 0 0 0 0 0 0 127 0" result="hardAlpha"/>
<feMorphology radius="1.20896" operator="erode" in="SourceAlpha" result="effect1_dropShadow_0_1764"/>
<feOffset dy="1.20896"/>
<feGaussianBlur stdDeviation="1.20896"/>
<feComposite in2="hardAlpha" operator="out"/>
<feColorMatrix type="matrix" values="0 0 0 0 0 0 0 0 0 0 0 0 0 0 0 0 0 0 0.1 0"/>
<feBlend mode="normal" in2="BackgroundImageFix" result="effect1_dropShadow_0_1764"/>
<feColorMatrix in="SourceAlpha" type="matrix" values="0 0 0 0 0 0 0 0 0 0 0 0 0 0 0 0 0 0 127 0" result="hardAlpha"/>
<feOffset dy="1.20896"/>
<feGaussianBlur stdDeviation="1.81343"/>
<feComposite in2="hardAlpha" operator="out"/>
<feColorMatrix type="matrix" values="0 0 0 0 0 0 0 0 0 0 0 0 0 0 0 0 0 0 0.1 0"/>
<feBlend mode="normal" in2="effect1_dropShadow_0_1764" result="effect2_dropShadow_0_1764"/>
<feBlend mode="normal" in="SourceGraphic" in2="effect2_dropShadow_0_1764" result="shape"/>
</filter>
<clipPath id="clip0_0_1764">
<rect width="144" height="39.8452" fill="white" transform="translate(79.5 136)"/>
</clipPath>
</defs>
</svg>
