<svg width="230" height="238" viewBox="0 0 230 238" fill="none" xmlns="http://www.w3.org/2000/svg">
<g filter="url(#filter0_ddd_0_1823)">
<rect x="54.4409" y="116.527" width="148.559" height="65.1463" rx="6.31237" fill="white"/>
<path d="M65.8969 136.223V129.308H66.9402V135.325H70.0734V136.223H65.8969ZM71.2301 136.223V131.037H72.2396V136.223H71.2301ZM71.7399 130.237C71.5643 130.237 71.4135 130.178 71.2875 130.061C71.1637 129.942 71.1018 129.8 71.1018 129.636C71.1018 129.469 71.1637 129.328 71.2875 129.21C71.4135 129.091 71.5643 129.032 71.7399 129.032C71.9155 129.032 72.0652 129.091 72.189 129.21C72.315 129.328 72.378 129.469 72.378 129.636C72.378 129.8 72.315 129.942 72.189 130.061C72.0652 130.178 71.9155 130.237 71.7399 130.237ZM76.1134 131.037V131.847H73.1827V131.037H76.1134ZM73.9863 136.223V130.436C73.9863 130.112 74.0572 129.843 74.199 129.629C74.3408 129.413 74.5288 129.252 74.7629 129.146C74.997 129.038 75.2513 128.984 75.5259 128.984C75.7285 128.984 75.9018 129.001 76.0459 129.035C76.1899 129.066 76.2968 129.096 76.3666 129.123L76.1303 129.94C76.083 129.926 76.0222 129.911 75.948 129.892C75.8737 129.872 75.7836 129.862 75.6778 129.862C75.4325 129.862 75.2569 129.923 75.1511 130.044C75.0476 130.166 74.9958 130.342 74.9958 130.571V136.223H73.9863ZM79.2334 136.328C78.7225 136.328 78.2824 136.219 77.9133 136C77.5464 135.78 77.2628 135.47 77.0624 135.072C76.8643 134.671 76.7653 134.202 76.7653 133.664C76.7653 133.133 76.8643 132.664 77.0624 132.259C77.2628 131.854 77.5419 131.538 77.8998 131.311C78.2599 131.083 78.6808 130.97 79.1625 130.97C79.4551 130.97 79.7387 131.018 80.0133 131.115C80.288 131.212 80.5344 131.363 80.7528 131.571C80.9711 131.778 81.1433 132.047 81.2693 132.377C81.3954 132.706 81.4584 133.106 81.4584 133.576V133.934H77.3359V133.178H80.4692C80.4692 132.912 80.4151 132.677 80.3071 132.472C80.199 132.265 80.0471 132.102 79.8513 131.982C79.6577 131.863 79.4304 131.804 79.1693 131.804C78.8856 131.804 78.638 131.873 78.4265 132.013C78.2171 132.15 78.0551 132.33 77.9403 132.553C77.8277 132.774 77.7715 133.013 77.7715 133.272V133.863C77.7715 134.21 77.8322 134.505 77.9538 134.748C78.0776 134.991 78.2498 135.176 78.4704 135.305C78.6909 135.431 78.9487 135.494 79.2435 135.494C79.4349 135.494 79.6093 135.467 79.7669 135.413C79.9244 135.357 80.0606 135.273 80.1754 135.163C80.2902 135.053 80.378 134.916 80.4388 134.754L81.3943 134.927C81.3177 135.208 81.1804 135.454 80.9824 135.666C80.7865 135.875 80.5401 136.039 80.2429 136.156C79.9481 136.27 79.6116 136.328 79.2334 136.328ZM85.0469 131.037V131.847H82.2141V131.037H85.0469ZM82.9738 129.795H83.9834V134.7C83.9834 134.896 84.0126 135.044 84.0711 135.143C84.1297 135.24 84.2051 135.306 84.2974 135.342C84.3919 135.376 84.4943 135.393 84.6046 135.393C84.6856 135.393 84.7565 135.387 84.8173 135.376C84.8781 135.364 84.9254 135.355 84.9591 135.349L85.1414 136.183C85.0829 136.205 84.9996 136.228 84.8916 136.25C84.7835 136.275 84.6485 136.288 84.4864 136.291C84.2208 136.295 83.9732 136.248 83.7436 136.149C83.514 136.05 83.3283 135.897 83.1865 135.69C83.0447 135.483 82.9738 135.223 82.9738 134.91V129.795ZM86.2112 136.223V131.037H87.2207V136.223H86.2112ZM86.721 130.237C86.5454 130.237 86.3946 130.178 86.2686 130.061C86.1448 129.942 86.0829 129.8 86.0829 129.636C86.0829 129.469 86.1448 129.328 86.2686 129.21C86.3946 129.091 86.5454 129.032 86.721 129.032C86.8966 129.032 87.0462 129.091 87.17 129.21C87.2961 129.328 87.3591 129.469 87.3591 129.636C87.3591 129.8 87.2961 129.942 87.17 130.061C87.0462 130.178 86.8966 130.237 86.721 130.237ZM88.6264 136.223V131.037H89.5954V131.881H89.6595C89.7676 131.595 89.9443 131.372 90.1896 131.213C90.435 131.051 90.7287 130.97 91.0708 130.97C91.4175 130.97 91.7078 131.051 91.9419 131.213C92.1783 131.375 92.3527 131.598 92.4653 131.881H92.5193C92.6431 131.604 92.84 131.384 93.1101 131.219C93.3803 131.053 93.7021 130.97 94.0758 130.97C94.5462 130.97 94.93 131.117 95.2271 131.412C95.5265 131.707 95.6762 132.151 95.6762 132.746V136.223H94.6666V132.84C94.6666 132.489 94.571 132.235 94.3797 132.077C94.1883 131.919 93.9599 131.841 93.6943 131.841C93.3656 131.841 93.1101 131.942 92.9278 132.145C92.7455 132.345 92.6543 132.603 92.6543 132.918V136.223H91.6482V132.776C91.6482 132.495 91.5604 132.268 91.3848 132.097C91.2093 131.926 90.9808 131.841 90.6994 131.841C90.5081 131.841 90.3314 131.891 90.1694 131.993C90.0095 132.092 89.8801 132.23 89.7811 132.408C89.6843 132.586 89.6359 132.792 89.6359 133.026V136.223H88.6264ZM99.3119 136.328C98.801 136.328 98.3609 136.219 97.9918 136C97.6249 135.78 97.3413 135.47 97.1409 135.072C96.9429 134.671 96.8438 134.202 96.8438 133.664C96.8438 133.133 96.9429 132.664 97.1409 132.259C97.3413 131.854 97.6204 131.538 97.9783 131.311C98.3384 131.083 98.7593 130.97 99.241 130.97C99.5336 130.97 99.8172 131.018 100.092 131.115C100.366 131.212 100.613 131.363 100.831 131.571C101.05 131.778 101.222 132.047 101.348 132.377C101.474 132.706 101.537 133.106 101.537 133.576V133.934H97.4144V133.178H100.548C100.548 132.912 100.494 132.677 100.386 132.472C100.278 132.265 100.126 132.102 99.9298 131.982C99.7362 131.863 99.5089 131.804 99.2478 131.804C98.9642 131.804 98.7166 131.873 98.505 132.013C98.2956 132.15 98.1336 132.33 98.0188 132.553C97.9062 132.774 97.85 133.013 97.85 133.272V133.863C97.85 134.21 97.9107 134.505 98.0323 134.748C98.1561 134.991 98.3283 135.176 98.5489 135.305C98.7695 135.431 99.0272 135.494 99.322 135.494C99.5134 135.494 99.6878 135.467 99.8454 135.413C100.003 135.357 100.139 135.273 100.254 135.163C100.369 135.053 100.456 134.916 100.517 134.754L101.473 134.927C101.396 135.208 101.259 135.454 101.061 135.666C100.865 135.875 100.619 136.039 100.321 136.156C100.027 136.27 99.6901 136.328 99.3119 136.328ZM109.705 131.037L107.824 136.223H106.744L104.86 131.037H105.944L107.257 135.028H107.311L108.621 131.037H109.705ZM112.062 136.338C111.733 136.338 111.436 136.277 111.17 136.156C110.905 136.032 110.694 135.853 110.539 135.619C110.386 135.385 110.309 135.098 110.309 134.758C110.309 134.465 110.366 134.224 110.478 134.035C110.591 133.846 110.743 133.697 110.934 133.586C111.125 133.476 111.339 133.393 111.576 133.336C111.812 133.28 112.053 133.237 112.298 133.208C112.609 133.172 112.861 133.143 113.054 133.12C113.248 133.096 113.389 133.056 113.476 133.002C113.564 132.948 113.608 132.86 113.608 132.739V132.715C113.608 132.42 113.525 132.192 113.358 132.03C113.194 131.868 112.949 131.787 112.622 131.787C112.282 131.787 112.015 131.862 111.819 132.013C111.625 132.161 111.491 132.327 111.417 132.509L110.468 132.293C110.581 131.978 110.745 131.724 110.961 131.53C111.179 131.334 111.43 131.192 111.714 131.105C111.998 131.015 112.296 130.97 112.609 130.97C112.816 130.97 113.035 130.994 113.267 131.044C113.501 131.091 113.72 131.179 113.922 131.307C114.127 131.435 114.295 131.619 114.425 131.858C114.556 132.094 114.621 132.401 114.621 132.779V136.223H113.635V135.514H113.595C113.529 135.645 113.431 135.773 113.301 135.899C113.17 136.025 113.003 136.13 112.798 136.213C112.593 136.296 112.348 136.338 112.062 136.338ZM112.281 135.528C112.56 135.528 112.799 135.472 112.997 135.362C113.197 135.252 113.349 135.108 113.453 134.93C113.559 134.75 113.612 134.557 113.612 134.353V133.684C113.576 133.72 113.506 133.754 113.402 133.785C113.301 133.815 113.185 133.841 113.054 133.863C112.924 133.883 112.797 133.902 112.673 133.92C112.549 133.936 112.446 133.95 112.362 133.961C112.166 133.986 111.988 134.027 111.825 134.086C111.666 134.144 111.537 134.229 111.441 134.339C111.346 134.447 111.299 134.591 111.299 134.771C111.299 135.021 111.391 135.21 111.576 135.339C111.76 135.465 111.995 135.528 112.281 135.528ZM117.023 129.308V136.223H116.013V129.308H117.023ZM121.714 134.072V131.037H122.727V136.223H121.734V135.325H121.68C121.561 135.602 121.369 135.833 121.106 136.017C120.845 136.2 120.52 136.291 120.13 136.291C119.797 136.291 119.502 136.218 119.246 136.071C118.991 135.923 118.791 135.703 118.645 135.413C118.5 135.122 118.428 134.763 118.428 134.336V131.037H119.438V134.214C119.438 134.568 119.536 134.849 119.732 135.058C119.928 135.268 120.182 135.372 120.495 135.372C120.684 135.372 120.872 135.325 121.059 135.23C121.248 135.136 121.404 134.993 121.528 134.802C121.654 134.61 121.716 134.367 121.714 134.072ZM126.366 136.328C125.855 136.328 125.415 136.219 125.046 136C124.679 135.78 124.395 135.47 124.195 135.072C123.997 134.671 123.898 134.202 123.898 133.664C123.898 133.133 123.997 132.664 124.195 132.259C124.395 131.854 124.674 131.538 125.032 131.311C125.392 131.083 125.813 130.97 126.295 130.97C126.587 130.97 126.871 131.018 127.146 131.115C127.42 131.212 127.667 131.363 127.885 131.571C128.103 131.778 128.276 132.047 128.402 132.377C128.528 132.706 128.591 133.106 128.591 133.576V133.934H124.468V133.178H127.601C127.601 132.912 127.547 132.677 127.439 132.472C127.331 132.265 127.179 132.102 126.984 131.982C126.79 131.863 126.563 131.804 126.302 131.804C126.018 131.804 125.77 131.873 125.559 132.013C125.349 132.15 125.187 132.33 125.073 132.553C124.96 132.774 124.904 133.013 124.904 133.272V133.863C124.904 134.21 124.964 134.505 125.086 134.748C125.21 134.991 125.382 135.176 125.603 135.305C125.823 135.431 126.081 135.494 126.376 135.494C126.567 135.494 126.742 135.467 126.899 135.413C127.057 135.357 127.193 135.273 127.308 135.163C127.422 135.053 127.51 134.916 127.571 134.754L128.527 134.927C128.45 135.208 128.313 135.454 128.115 135.666C127.919 135.875 127.672 136.039 127.375 136.156C127.08 136.27 126.744 136.328 126.366 136.328Z" fill="#292831"/>
<path d="M69.4623 156.897V143.931H70.2929V156.897H69.4623ZM71.6654 148.211C71.6249 147.802 71.451 147.485 71.1437 147.259C70.8365 147.033 70.4195 146.92 69.8928 146.92C69.5349 146.92 69.2327 146.97 68.9862 147.071C68.7398 147.169 68.5507 147.306 68.419 147.482C68.2907 147.657 68.2266 147.856 68.2266 148.079C68.2198 148.265 68.2586 148.427 68.343 148.565C68.4308 148.704 68.5507 148.824 68.7026 148.925C68.8546 149.023 69.0301 149.109 69.2293 149.183C69.4285 149.254 69.6413 149.315 69.8675 149.366L70.7993 149.589C71.2518 149.69 71.6671 149.825 72.0452 149.994C72.4234 150.162 72.7509 150.37 73.0277 150.617C73.3046 150.863 73.519 151.153 73.6709 151.488C73.8262 151.822 73.9056 152.205 73.9089 152.637C73.9056 153.272 73.7435 153.822 73.4228 154.288C73.1054 154.751 72.6462 155.111 72.0452 155.367C71.4476 155.62 70.7267 155.747 69.8827 155.747C69.0453 155.747 68.316 155.619 67.6948 155.362C67.0769 155.105 66.5941 154.726 66.2463 154.223C65.9019 153.716 65.7213 153.09 65.7044 152.344H67.8265C67.8501 152.691 67.9497 152.982 68.1253 153.215C68.3042 153.444 68.5423 153.618 68.8394 153.736C69.1399 153.851 69.4792 153.909 69.8573 153.909C70.2287 153.909 70.5512 153.855 70.8247 153.746C71.1015 153.638 71.3159 153.488 71.4679 153.296C71.6198 153.103 71.6958 152.882 71.6958 152.632C71.6958 152.399 71.6265 152.203 71.4881 152.045C71.3531 151.886 71.1539 151.751 70.8905 151.64C70.6305 151.528 70.3115 151.427 69.9333 151.336L68.8039 151.052C67.9294 150.839 67.239 150.507 66.7325 150.054C66.2261 149.602 65.9745 148.993 65.9779 148.226C65.9745 147.598 66.1417 147.05 66.4793 146.58C66.8203 146.111 67.2879 145.745 67.8822 145.481C68.4764 145.218 69.1517 145.086 69.908 145.086C70.6778 145.086 71.3497 145.218 71.9237 145.481C72.501 145.745 72.9501 146.111 73.2708 146.58C73.5916 147.05 73.757 147.593 73.7671 148.211H71.6654ZM79.8357 145.228V155.6H77.6428V147.309H77.582L75.2067 148.798V146.854L77.7744 145.228H79.8357ZM84.1089 154.182L84.0532 154.739C84.0093 155.185 83.9249 155.629 83.7999 156.071C83.6784 156.517 83.5501 156.92 83.415 157.282C83.2834 157.643 83.177 157.926 83.096 158.132H81.6982C81.7488 157.933 81.818 157.655 81.9058 157.297C81.9936 156.942 82.0763 156.544 82.154 156.101C82.2316 155.659 82.2806 155.208 82.3009 154.749L82.3262 154.182H84.1089ZM86.0613 155.6V154.02L89.7533 150.601C90.0673 150.298 90.3306 150.024 90.5434 149.781C90.7594 149.538 90.9232 149.3 91.0346 149.067C91.146 148.831 91.2017 148.576 91.2017 148.302C91.2017 147.998 91.1325 147.737 90.9941 147.517C90.8557 147.294 90.6666 147.124 90.4269 147.006C90.1871 146.884 89.9154 146.823 89.6115 146.823C89.2941 146.823 89.0172 146.887 88.7809 147.016C88.5446 147.144 88.3622 147.328 88.2339 147.568C88.1056 147.807 88.0415 148.093 88.0415 148.424H85.96C85.96 147.745 86.1136 147.156 86.4208 146.656C86.7281 146.156 87.1586 145.77 87.7123 145.496C88.266 145.223 88.9041 145.086 89.6267 145.086C90.3695 145.086 91.016 145.218 91.5664 145.481C92.1201 145.741 92.5506 146.102 92.8578 146.565C93.1651 147.028 93.3187 147.558 93.3187 148.155C93.3187 148.547 93.2411 148.934 93.0857 149.315C92.9338 149.697 92.662 150.12 92.2704 150.586C91.8787 151.049 91.3267 151.604 90.6143 152.252L89.1 153.736V153.807H93.4555V155.6H86.0613ZM98.9137 155.742C98.1338 155.742 97.44 155.615 96.8322 155.362C96.2278 155.105 95.7535 154.756 95.4091 154.314C95.0647 153.871 94.8925 153.37 94.8925 152.81C94.8925 152.377 94.9904 151.981 95.1862 151.619C95.3855 151.255 95.6556 150.953 95.9966 150.713C96.3376 150.47 96.7191 150.314 97.1412 150.247V150.176C96.5874 150.065 96.1384 149.796 95.794 149.371C95.4496 148.942 95.2774 148.444 95.2774 147.877C95.2774 147.34 95.4344 146.862 95.7484 146.443C96.0624 146.021 96.4929 145.691 97.0399 145.451C97.5902 145.208 98.2148 145.086 98.9137 145.086C99.6126 145.086 100.236 145.208 100.783 145.451C101.333 145.694 101.765 146.026 102.079 146.449C102.393 146.867 102.552 147.343 102.555 147.877C102.552 148.447 102.376 148.945 102.028 149.371C101.681 149.796 101.235 150.065 100.691 150.176V150.247C101.107 150.314 101.483 150.47 101.821 150.713C102.162 150.953 102.432 151.255 102.631 151.619C102.834 151.981 102.937 152.377 102.94 152.81C102.937 153.37 102.763 153.871 102.418 154.314C102.074 154.756 101.598 155.105 100.99 155.362C100.386 155.615 99.6937 155.742 98.9137 155.742ZM98.9137 154.131C99.2615 154.131 99.5654 154.069 99.8253 153.944C100.085 153.816 100.288 153.64 100.433 153.417C100.582 153.191 100.656 152.931 100.656 152.637C100.656 152.337 100.58 152.072 100.428 151.842C100.276 151.609 100.07 151.427 99.8102 151.295C99.5502 151.16 99.2514 151.093 98.9137 151.093C98.5795 151.093 98.2807 151.16 98.0173 151.295C97.754 151.427 97.5463 151.609 97.3944 151.842C97.2458 152.072 97.1715 152.337 97.1715 152.637C97.1715 152.931 97.2441 153.191 97.3893 153.417C97.5345 153.64 97.7388 153.816 98.0021 153.944C98.2655 154.069 98.5693 154.131 98.9137 154.131ZM98.9137 149.497C99.2041 149.497 99.4624 149.438 99.6886 149.32C99.9148 149.202 100.092 149.038 100.22 148.829C100.349 148.62 100.413 148.378 100.413 148.105C100.413 147.835 100.349 147.598 100.22 147.396C100.092 147.19 99.9165 147.029 99.6937 146.914C99.4708 146.796 99.2109 146.737 98.9137 146.737C98.62 146.737 98.36 146.796 98.1338 146.914C97.9076 147.029 97.7303 147.19 97.602 147.396C97.4771 147.598 97.4146 147.835 97.4146 148.105C97.4146 148.378 97.4788 148.62 97.6071 148.829C97.7354 149.038 97.9126 149.202 98.1389 149.32C98.3651 149.438 98.6234 149.497 98.9137 149.497ZM104.884 155.6L109.183 147.092V147.021H104.174V145.228H111.452V147.046L107.147 155.6H104.884ZM112.454 155.732C112.119 155.732 111.832 155.614 111.593 155.377C111.356 155.138 111.238 154.851 111.238 154.516C111.238 154.185 111.356 153.902 111.593 153.665C111.832 153.429 112.119 153.311 112.454 153.311C112.778 153.311 113.061 153.429 113.305 153.665C113.548 153.902 113.669 154.185 113.669 154.516C113.669 154.739 113.612 154.943 113.497 155.129C113.386 155.311 113.239 155.458 113.056 155.57C112.874 155.678 112.673 155.732 112.454 155.732ZM118.978 145.086C119.512 145.086 120.025 145.176 120.518 145.355C121.014 145.534 121.456 145.819 121.845 146.21C122.236 146.602 122.545 147.122 122.771 147.77C123.001 148.415 123.117 149.207 123.121 150.146C123.121 151.027 123.021 151.814 122.822 152.506C122.626 153.194 122.344 153.78 121.976 154.263C121.608 154.746 121.164 155.114 120.644 155.367C120.124 155.617 119.544 155.742 118.902 155.742C118.21 155.742 117.599 155.609 117.069 155.342C116.539 155.072 116.112 154.705 115.787 154.243C115.467 153.777 115.273 153.254 115.205 152.673H117.368C117.452 153.051 117.629 153.345 117.899 153.554C118.169 153.76 118.504 153.863 118.902 153.863C119.577 153.863 120.091 153.569 120.442 152.982C120.793 152.391 120.97 151.582 120.973 150.556H120.903C120.747 150.86 120.538 151.121 120.275 151.341C120.011 151.557 119.709 151.724 119.368 151.842C119.03 151.96 118.671 152.019 118.289 152.019C117.678 152.019 117.133 151.876 116.653 151.589C116.174 151.302 115.796 150.907 115.519 150.404C115.242 149.901 115.104 149.327 115.104 148.682C115.1 147.986 115.261 147.367 115.585 146.823C115.909 146.28 116.361 145.854 116.942 145.547C117.526 145.236 118.205 145.083 118.978 145.086ZM118.993 146.808C118.652 146.808 118.348 146.889 118.082 147.051C117.818 147.213 117.609 147.431 117.454 147.705C117.302 147.978 117.227 148.284 117.231 148.621C117.231 148.962 117.305 149.269 117.454 149.543C117.606 149.813 117.812 150.029 118.072 150.191C118.335 150.35 118.635 150.429 118.973 150.429C119.226 150.429 119.461 150.382 119.677 150.287C119.893 150.193 120.08 150.063 120.239 149.897C120.401 149.729 120.528 149.534 120.619 149.315C120.71 149.096 120.756 148.863 120.756 148.616C120.752 148.289 120.675 147.988 120.523 147.715C120.371 147.441 120.161 147.222 119.895 147.056C119.628 146.891 119.328 146.808 118.993 146.808ZM128.474 155.742C127.718 155.742 127.044 155.612 126.453 155.352C125.866 155.089 125.402 154.727 125.061 154.268C124.723 153.806 124.549 153.272 124.539 152.668H126.747C126.761 152.921 126.843 153.144 126.995 153.336C127.151 153.525 127.356 153.672 127.613 153.777C127.87 153.882 128.158 153.934 128.479 153.934C128.813 153.934 129.109 153.875 129.365 153.757C129.622 153.638 129.823 153.475 129.968 153.265C130.113 153.056 130.186 152.815 130.186 152.541C130.186 152.264 130.108 152.019 129.953 151.807C129.801 151.591 129.581 151.422 129.294 151.3C129.011 151.179 128.673 151.118 128.282 151.118H127.314V149.507H128.282C128.612 149.507 128.905 149.45 129.158 149.335C129.414 149.22 129.614 149.062 129.755 148.859C129.897 148.653 129.968 148.414 129.968 148.14C129.968 147.88 129.906 147.652 129.781 147.456C129.659 147.257 129.487 147.102 129.264 146.99C129.045 146.879 128.788 146.823 128.494 146.823C128.197 146.823 127.925 146.877 127.679 146.985C127.432 147.09 127.235 147.24 127.086 147.436C126.938 147.632 126.858 147.862 126.848 148.125H124.747C124.757 147.527 124.927 147.001 125.258 146.545C125.589 146.089 126.035 145.733 126.595 145.476C127.159 145.216 127.795 145.086 128.504 145.086C129.22 145.086 129.847 145.216 130.383 145.476C130.92 145.736 131.337 146.087 131.634 146.53C131.935 146.968 132.083 147.461 132.08 148.008C132.083 148.589 131.903 149.074 131.538 149.462C131.177 149.85 130.706 150.097 130.125 150.201V150.282C130.888 150.38 131.469 150.645 131.867 151.077C132.269 151.506 132.468 152.043 132.465 152.688C132.468 153.279 132.298 153.804 131.953 154.263C131.612 154.722 131.141 155.084 130.54 155.347C129.939 155.61 129.251 155.742 128.474 155.742Z" fill="#292831"/>
<path d="M65.8699 162.927H66.7443L68.8005 167.949H68.8714L70.9276 162.927H71.8021V168.977H71.1167V164.38H71.0576L69.1669 168.977H68.5051L66.6144 164.38H66.5553V168.977H65.8699V162.927ZM75.0201 169.072C74.6104 169.072 74.251 168.974 73.9418 168.779C73.6345 168.584 73.3942 168.311 73.2209 167.961C73.0496 167.61 72.9639 167.201 72.9639 166.732C72.9639 166.259 73.0496 165.846 73.2209 165.494C73.3942 165.141 73.6345 164.868 73.9418 164.673C74.251 164.478 74.6104 164.38 75.0201 164.38C75.4297 164.38 75.7882 164.478 76.0954 164.673C76.4047 164.868 76.6449 165.141 76.8163 165.494C76.9896 165.846 77.0763 166.259 77.0763 166.732C77.0763 167.201 76.9896 167.61 76.8163 167.961C76.6449 168.311 76.4047 168.584 76.0954 168.779C75.7882 168.974 75.4297 169.072 75.0201 169.072ZM75.0201 168.445C75.3313 168.445 75.5873 168.366 75.7882 168.206C75.9891 168.046 76.1378 167.837 76.2343 167.577C76.3308 167.317 76.3791 167.035 76.3791 166.732C76.3791 166.428 76.3308 166.146 76.2343 165.884C76.1378 165.622 75.9891 165.41 75.7882 165.249C75.5873 165.087 75.3313 165.006 75.0201 165.006C74.7089 165.006 74.4529 165.087 74.252 165.249C74.0511 165.41 73.9024 165.622 73.8059 165.884C73.7094 166.146 73.6611 166.428 73.6611 166.732C73.6611 167.035 73.7094 167.317 73.8059 167.577C73.9024 167.837 74.0511 168.046 74.252 168.206C74.4529 168.366 74.7089 168.445 75.0201 168.445ZM78.2351 162.927H79.1096L81.1658 167.949H81.2367L83.2929 162.927H84.1673V168.977H83.4819V164.38H83.4229L81.5321 168.977H80.8703L78.9796 164.38H78.9205V168.977H78.2351V162.927ZM87.8816 168.977V164.439H88.5788V168.977H87.8816ZM88.2361 163.683C88.1002 163.683 87.9831 163.637 87.8846 163.544C87.7881 163.452 87.7398 163.34 87.7398 163.21C87.7398 163.08 87.7881 162.969 87.8846 162.876C87.9831 162.784 88.1002 162.738 88.2361 162.738C88.372 162.738 88.4882 162.784 88.5848 162.876C88.6832 162.969 88.7325 163.08 88.7325 163.21C88.7325 163.34 88.6832 163.452 88.5848 163.544C88.4882 163.637 88.372 163.683 88.2361 163.683ZM90.5531 166.247V168.977H89.8558V164.439H90.5294V165.148H90.5885C90.6949 164.918 90.8564 164.733 91.073 164.593C91.2897 164.451 91.5693 164.38 91.912 164.38C92.2193 164.38 92.4881 164.443 92.7186 164.569C92.949 164.693 93.1282 164.882 93.2562 165.136C93.3843 165.389 93.4483 165.708 93.4483 166.094V168.977H92.7511V166.141C92.7511 165.784 92.6585 165.507 92.4734 165.308C92.2882 165.107 92.0341 165.006 91.7111 165.006C91.4886 165.006 91.2897 165.055 91.1144 165.151C90.9411 165.248 90.8042 165.389 90.7037 165.574C90.6033 165.759 90.5531 165.983 90.5531 166.247ZM96.5658 169.072C96.1404 169.072 95.774 168.971 95.4668 168.77C95.1596 168.569 94.9232 168.293 94.7578 167.94C94.5923 167.588 94.5096 167.185 94.5096 166.732C94.5096 166.271 94.5943 165.864 94.7637 165.512C94.935 165.157 95.1733 164.88 95.4786 164.681C95.7859 164.481 96.1443 164.38 96.554 164.38C96.873 164.38 97.1606 164.439 97.4166 164.557C97.6727 164.676 97.8824 164.841 98.0459 165.054C98.2094 165.266 98.3108 165.515 98.3502 165.798H97.653C97.5998 165.591 97.4816 165.408 97.2985 165.249C97.1173 165.087 96.873 165.006 96.5658 165.006C96.294 165.006 96.0557 165.077 95.8509 165.219C95.648 165.359 95.4894 165.557 95.3752 165.813C95.263 166.067 95.2068 166.365 95.2068 166.708C95.2068 167.059 95.262 167.364 95.3723 167.624C95.4845 167.884 95.6421 168.086 95.8449 168.23C96.0498 168.373 96.2901 168.445 96.5658 168.445C96.747 168.445 96.9115 168.414 97.0592 168.351C97.2069 168.288 97.3319 168.197 97.4344 168.079C97.5368 167.961 97.6097 167.819 97.653 167.654H98.3502C98.3108 167.921 98.2133 168.163 98.0577 168.377C97.9041 168.59 97.7003 168.759 97.4462 168.885C97.1941 169.01 96.9006 169.072 96.5658 169.072ZM99.3694 168.977V164.439H100.043V165.125H100.09C100.173 164.9 100.323 164.718 100.539 164.578C100.756 164.438 101 164.368 101.272 164.368C101.323 164.368 101.387 164.369 101.464 164.371C101.541 164.373 101.599 164.376 101.638 164.38V165.089C101.615 165.083 101.561 165.074 101.476 165.063C101.393 165.049 101.305 165.042 101.213 165.042C100.992 165.042 100.795 165.088 100.622 165.181C100.451 165.271 100.315 165.397 100.214 165.559C100.116 165.718 100.067 165.901 100.067 166.105V168.977H99.3694ZM104.229 169.072C103.792 169.072 103.415 168.975 103.098 168.782C102.783 168.587 102.539 168.315 102.368 167.967C102.199 167.616 102.114 167.208 102.114 166.744C102.114 166.279 102.199 165.869 102.368 165.515C102.539 165.158 102.778 164.88 103.083 164.681C103.39 164.481 103.749 164.38 104.158 164.38C104.395 164.38 104.628 164.42 104.859 164.498C105.089 164.577 105.299 164.705 105.488 164.882C105.677 165.058 105.828 165.29 105.94 165.58C106.052 165.869 106.108 166.226 106.108 166.649V166.944H102.61V166.342H105.399C105.399 166.086 105.348 165.857 105.246 165.656C105.145 165.456 105.001 165.297 104.814 165.181C104.629 165.065 104.41 165.006 104.158 165.006C103.881 165.006 103.64 165.075 103.438 165.213C103.237 165.349 103.082 165.526 102.974 165.745C102.865 165.964 102.811 166.198 102.811 166.448V166.85C102.811 167.193 102.87 167.483 102.988 167.721C103.109 167.958 103.275 168.138 103.488 168.262C103.7 168.384 103.948 168.445 104.229 168.445C104.412 168.445 104.578 168.42 104.726 168.368C104.875 168.315 105.004 168.237 105.113 168.132C105.221 168.026 105.305 167.894 105.364 167.736L106.037 167.925C105.966 168.154 105.847 168.355 105.68 168.528C105.512 168.699 105.306 168.833 105.059 168.93C104.813 169.024 104.537 169.072 104.229 169.072ZM108.504 169.083C108.217 169.083 107.956 169.029 107.721 168.921C107.487 168.811 107.301 168.652 107.163 168.445C107.025 168.237 106.956 167.984 106.956 167.689C106.956 167.429 107.007 167.218 107.11 167.057C107.212 166.893 107.349 166.765 107.52 166.673C107.692 166.58 107.881 166.511 108.088 166.466C108.296 166.419 108.506 166.381 108.717 166.354C108.993 166.318 109.216 166.292 109.387 166.274C109.561 166.254 109.687 166.222 109.766 166.176C109.846 166.131 109.887 166.052 109.887 165.94V165.916C109.887 165.625 109.807 165.398 109.647 165.237C109.49 165.075 109.251 164.995 108.93 164.995C108.597 164.995 108.336 165.068 108.147 165.213C107.958 165.359 107.825 165.515 107.748 165.68L107.086 165.444C107.204 165.168 107.362 164.953 107.559 164.8C107.758 164.644 107.974 164.536 108.209 164.475C108.445 164.412 108.677 164.38 108.906 164.38C109.052 164.38 109.219 164.398 109.408 164.433C109.599 164.467 109.783 164.537 109.961 164.643C110.14 164.749 110.289 164.91 110.407 165.125C110.525 165.339 110.584 165.627 110.584 165.987V168.977H109.887V168.363H109.851C109.804 168.461 109.725 168.566 109.615 168.679C109.505 168.791 109.358 168.886 109.175 168.965C108.992 169.044 108.768 169.083 108.504 169.083ZM108.61 168.457C108.886 168.457 109.119 168.403 109.308 168.295C109.499 168.186 109.643 168.046 109.739 167.875C109.838 167.704 109.887 167.524 109.887 167.334V166.696C109.857 166.732 109.792 166.764 109.692 166.794C109.593 166.821 109.479 166.846 109.349 166.868C109.221 166.887 109.096 166.905 108.974 166.921C108.854 166.935 108.756 166.946 108.681 166.956C108.5 166.98 108.331 167.018 108.173 167.072C108.018 167.123 107.892 167.201 107.795 167.305C107.701 167.407 107.653 167.547 107.653 167.724C107.653 167.967 107.743 168.15 107.922 168.274C108.103 168.396 108.333 168.457 108.61 168.457ZM115.071 165.456L114.444 165.633C114.405 165.528 114.347 165.427 114.27 165.328C114.195 165.228 114.093 165.145 113.963 165.08C113.833 165.015 113.667 164.983 113.464 164.983C113.186 164.983 112.955 165.047 112.769 165.175C112.586 165.301 112.495 165.461 112.495 165.656C112.495 165.83 112.558 165.967 112.684 166.067C112.81 166.168 113.007 166.251 113.275 166.318L113.948 166.484C114.354 166.582 114.656 166.733 114.855 166.936C115.054 167.137 115.154 167.396 115.154 167.713C115.154 167.973 115.079 168.205 114.929 168.41C114.781 168.615 114.574 168.776 114.309 168.894C114.043 169.013 113.733 169.072 113.381 169.072C112.918 169.072 112.535 168.971 112.232 168.77C111.928 168.569 111.736 168.276 111.656 167.89L112.317 167.724C112.38 167.969 112.5 168.152 112.675 168.274C112.852 168.396 113.084 168.457 113.369 168.457C113.694 168.457 113.952 168.388 114.143 168.25C114.336 168.11 114.433 167.943 114.433 167.748C114.433 167.59 114.378 167.459 114.267 167.352C114.157 167.244 113.988 167.163 113.759 167.11L113.003 166.933C112.587 166.834 112.282 166.682 112.087 166.475C111.894 166.266 111.797 166.005 111.797 165.692C111.797 165.436 111.869 165.209 112.013 165.012C112.159 164.815 112.357 164.661 112.607 164.549C112.859 164.436 113.145 164.38 113.464 164.38C113.913 164.38 114.265 164.479 114.521 164.676C114.779 164.873 114.962 165.133 115.071 165.456ZM118.106 169.072C117.668 169.072 117.291 168.975 116.974 168.782C116.659 168.587 116.416 168.315 116.244 167.967C116.075 167.616 115.99 167.208 115.99 166.744C115.99 166.279 116.075 165.869 116.244 165.515C116.416 165.158 116.654 164.88 116.959 164.681C117.267 164.481 117.625 164.38 118.035 164.38C118.271 164.38 118.504 164.42 118.735 164.498C118.965 164.577 119.175 164.705 119.364 164.882C119.553 165.058 119.704 165.29 119.816 165.58C119.928 165.869 119.985 166.226 119.985 166.649V166.944H116.487V166.342H119.276C119.276 166.086 119.224 165.857 119.122 165.656C119.021 165.456 118.878 165.297 118.691 165.181C118.505 165.065 118.287 165.006 118.035 165.006C117.757 165.006 117.517 165.075 117.314 165.213C117.113 165.349 116.958 165.526 116.85 165.745C116.742 165.964 116.688 166.198 116.688 166.448V166.85C116.688 167.193 116.747 167.483 116.865 167.721C116.985 167.958 117.151 168.138 117.364 168.262C117.577 168.384 117.824 168.445 118.106 168.445C118.289 168.445 118.454 168.42 118.602 168.368C118.752 168.315 118.881 168.237 118.989 168.132C119.097 168.026 119.181 167.894 119.24 167.736L119.914 167.925C119.843 168.154 119.724 168.355 119.556 168.528C119.389 168.699 119.182 168.833 118.936 168.93C118.69 169.024 118.413 169.072 118.106 169.072ZM125.228 169.072C124.819 169.072 124.459 168.974 124.15 168.779C123.843 168.584 123.603 168.311 123.429 167.961C123.258 167.61 123.172 167.201 123.172 166.732C123.172 166.259 123.258 165.846 123.429 165.494C123.603 165.141 123.843 164.868 124.15 164.673C124.459 164.478 124.819 164.38 125.228 164.38C125.638 164.38 125.997 164.478 126.304 164.673C126.613 164.868 126.853 165.141 127.025 165.494C127.198 165.846 127.285 166.259 127.285 166.732C127.285 167.201 127.198 167.61 127.025 167.961C126.853 168.311 126.613 168.584 126.304 168.779C125.997 168.974 125.638 169.072 125.228 169.072ZM125.228 168.445C125.54 168.445 125.796 168.366 125.997 168.206C126.197 168.046 126.346 167.837 126.443 167.577C126.539 167.317 126.587 167.035 126.587 166.732C126.587 166.428 126.539 166.146 126.443 165.884C126.346 165.622 126.197 165.41 125.997 165.249C125.796 165.087 125.54 165.006 125.228 165.006C124.917 165.006 124.661 165.087 124.46 165.249C124.259 165.41 124.111 165.622 124.014 165.884C123.918 166.146 123.869 166.428 123.869 166.732C123.869 167.035 123.918 167.317 124.014 167.577C124.111 167.837 124.259 168.046 124.46 168.206C124.661 168.366 124.917 168.445 125.228 168.445ZM130.37 164.439V165.03H127.923V164.439H130.37ZM128.656 168.977V163.813C128.656 163.553 128.717 163.336 128.839 163.163C128.961 162.99 129.12 162.86 129.315 162.773C129.51 162.686 129.716 162.643 129.932 162.643C130.104 162.643 130.244 162.657 130.352 162.684C130.46 162.712 130.541 162.738 130.594 162.761L130.393 163.364C130.358 163.352 130.309 163.337 130.246 163.32C130.185 163.302 130.104 163.293 130.003 163.293C129.773 163.293 129.606 163.351 129.504 163.467C129.404 163.583 129.353 163.754 129.353 163.978V168.977H128.656ZM135.719 169.06C135.329 169.06 134.982 168.993 134.676 168.859C134.373 168.725 134.132 168.539 133.952 168.301C133.775 168.06 133.679 167.782 133.663 167.464H134.407C134.423 167.659 134.49 167.828 134.608 167.97C134.727 168.109 134.881 168.218 135.072 168.295C135.263 168.371 135.475 168.41 135.707 168.41C135.967 168.41 136.198 168.365 136.399 168.274C136.6 168.183 136.757 168.057 136.871 167.896C136.986 167.734 137.043 167.547 137.043 167.334C137.043 167.112 136.988 166.916 136.877 166.747C136.767 166.575 136.605 166.441 136.393 166.345C136.18 166.248 135.92 166.2 135.613 166.2H135.128V165.55H135.613C135.853 165.55 136.064 165.507 136.245 165.42C136.428 165.333 136.571 165.211 136.673 165.054C136.778 164.896 136.83 164.711 136.83 164.498C136.83 164.293 136.785 164.115 136.694 163.964C136.603 163.812 136.475 163.694 136.31 163.609C136.147 163.524 135.954 163.482 135.731 163.482C135.522 163.482 135.325 163.52 135.14 163.597C134.957 163.672 134.807 163.781 134.691 163.925C134.575 164.067 134.512 164.238 134.502 164.439H133.793C133.805 164.122 133.9 163.844 134.08 163.606C134.259 163.366 134.493 163.179 134.783 163.045C135.074 162.911 135.394 162.844 135.743 162.844C136.117 162.844 136.438 162.92 136.706 163.071C136.974 163.221 137.18 163.419 137.323 163.665C137.467 163.911 137.539 164.177 137.539 164.463C137.539 164.804 137.449 165.094 137.27 165.334C137.093 165.575 136.852 165.741 136.546 165.834V165.881C136.928 165.944 137.227 166.106 137.442 166.368C137.656 166.628 137.764 166.95 137.764 167.334C137.764 167.663 137.674 167.959 137.495 168.221C137.317 168.481 137.075 168.686 136.768 168.835C136.461 168.985 136.111 169.06 135.719 169.06ZM142.056 167.843V167.524C142.056 167.303 142.101 167.101 142.192 166.918C142.285 166.733 142.419 166.585 142.594 166.475C142.771 166.362 142.986 166.306 143.238 166.306C143.494 166.306 143.709 166.362 143.882 166.475C144.055 166.585 144.186 166.733 144.275 166.918C144.363 167.101 144.408 167.303 144.408 167.524V167.843C144.408 168.063 144.362 168.266 144.272 168.451C144.183 168.634 144.051 168.782 143.876 168.894C143.703 169.005 143.49 169.06 143.238 169.06C142.982 169.06 142.766 169.005 142.591 168.894C142.416 168.782 142.283 168.634 142.192 168.451C142.101 168.266 142.056 168.063 142.056 167.843ZM142.659 167.524V167.843C142.659 168.026 142.702 168.19 142.789 168.336C142.875 168.48 143.025 168.552 143.238 168.552C143.445 168.552 143.59 168.48 143.675 168.336C143.762 168.19 143.805 168.026 143.805 167.843V167.524C143.805 167.34 143.764 167.177 143.681 167.033C143.598 166.887 143.451 166.815 143.238 166.815C143.031 166.815 142.882 166.887 142.792 167.033C142.703 167.177 142.659 167.34 142.659 167.524ZM139.043 164.38V164.061C139.043 163.841 139.088 163.639 139.179 163.455C139.271 163.27 139.405 163.123 139.58 163.012C139.758 162.9 139.972 162.844 140.224 162.844C140.48 162.844 140.695 162.9 140.868 163.012C141.042 163.123 141.173 163.27 141.261 163.455C141.35 163.639 141.394 163.841 141.394 164.061V164.38C141.394 164.601 141.349 164.804 141.258 164.989C141.17 165.172 141.038 165.32 140.863 165.432C140.689 165.542 140.477 165.597 140.224 165.597C139.968 165.597 139.753 165.542 139.577 165.432C139.402 165.32 139.269 165.172 139.179 164.989C139.088 164.804 139.043 164.601 139.043 164.38ZM139.645 164.061V164.38C139.645 164.563 139.689 164.728 139.775 164.874C139.862 165.017 140.012 165.089 140.224 165.089C140.431 165.089 140.577 165.017 140.662 164.874C140.748 164.728 140.792 164.563 140.792 164.38V164.061C140.792 163.878 140.75 163.714 140.668 163.571C140.585 163.425 140.437 163.352 140.224 163.352C140.018 163.352 139.869 163.425 139.778 163.571C139.69 163.714 139.645 163.878 139.645 164.061ZM139.267 168.977L143.427 162.927H144.1L139.941 168.977H139.267Z" fill="#878797"/>
<g clip-path="url(#clip0_0_1823)">
<path fill-rule="evenodd" clip-rule="evenodd" d="M180.419 128.956C186.025 128.956 190.57 133.501 190.57 139.108C190.57 144.714 186.025 149.259 180.419 149.259C174.812 149.259 170.267 144.714 170.267 139.108C170.267 138.698 169.934 138.365 169.524 138.365C169.114 138.365 168.781 138.698 168.781 139.108C168.781 145.535 173.992 150.745 180.419 150.745C186.846 150.745 192.056 145.535 192.056 139.108C192.056 132.681 186.846 127.471 180.419 127.471C180.008 127.471 179.676 127.803 179.676 128.213C179.676 128.624 180.008 128.956 180.419 128.956ZM172.743 132.423C172.196 132.423 171.753 131.979 171.753 131.432C171.753 130.885 172.196 130.442 172.743 130.442C173.29 130.442 173.733 130.885 173.733 131.432C173.733 131.979 173.29 132.423 172.743 132.423ZM174.971 129.204C174.971 129.751 175.415 130.194 175.962 130.194C176.509 130.194 176.952 129.751 176.952 129.204C176.952 128.657 176.509 128.213 175.962 128.213C175.415 128.213 174.971 128.657 174.971 129.204ZM170.515 135.641C169.968 135.641 169.524 135.198 169.524 134.651C169.524 134.104 169.968 133.661 170.515 133.661C171.062 133.661 171.505 134.104 171.505 134.651C171.505 135.198 171.062 135.641 170.515 135.641Z" fill="#DF9607"/>
<path d="M182.853 134.539V135.994C182.225 135.595 181.503 135.395 180.685 135.395C180.162 135.395 179.753 135.514 179.459 135.752C179.164 135.98 179.017 136.284 179.017 136.664C179.017 136.874 179.059 137.064 179.145 137.235C179.24 137.396 179.397 137.553 179.616 137.705C179.844 137.848 180.034 137.957 180.186 138.034C180.348 138.11 180.6 138.224 180.942 138.376C181.303 138.537 181.598 138.685 181.826 138.818C182.054 138.942 182.301 139.113 182.568 139.331C182.834 139.55 183.029 139.811 183.152 140.116C183.286 140.41 183.352 140.753 183.352 141.143C183.352 141.913 183.11 142.535 182.625 143.011C182.14 143.477 181.493 143.752 180.685 143.838V145.364H179.487V143.838C178.708 143.762 178.047 143.567 177.505 143.253V141.727C178.256 142.288 179.126 142.569 180.115 142.569C180.638 142.569 181.051 142.45 181.355 142.212C181.669 141.965 181.826 141.627 181.826 141.2C181.826 141.095 181.817 141 181.798 140.914C181.779 140.819 181.741 140.729 181.683 140.643C181.626 140.558 181.574 140.487 181.527 140.429C181.479 140.363 181.398 140.296 181.284 140.23C181.18 140.154 181.094 140.097 181.027 140.059C180.97 140.011 180.866 139.954 180.714 139.888C180.571 139.811 180.466 139.759 180.4 139.731C180.333 139.693 180.21 139.636 180.029 139.56C179.848 139.483 179.725 139.431 179.658 139.403C178.964 139.089 178.422 138.737 178.032 138.347C177.643 137.957 177.448 137.42 177.448 136.736C177.448 135.985 177.7 135.376 178.204 134.91C178.708 134.444 179.373 134.173 180.2 134.097V132.571H181.413V134.126C181.983 134.211 182.463 134.349 182.853 134.539Z" fill="#DF9607"/>
</g>
<rect x="54.6638" y="116.75" width="148.113" height="64.7007" rx="6.08953" stroke="#D9D9DA" stroke-width="0.445677"/>
</g>
<g filter="url(#filter1_ddd_0_1823)">
<rect x="27" y="73" width="148.559" height="65.1463" rx="6.31237" fill="white"/>
<path d="M38.456 85.7815H39.7221L41.9235 91.1567H42.0045L44.2059 85.7815H45.472V92.6963H44.4794V87.6925H44.4152L42.3759 92.6862H41.5521L39.5128 87.6892H39.4486V92.6963H38.456V85.7815ZM49.1398 92.801C48.6536 92.801 48.2293 92.6895 47.867 92.4667C47.5046 92.2439 47.2232 91.9321 47.0229 91.5315C46.8225 91.1308 46.7224 90.6626 46.7224 90.1269C46.7224 89.5889 46.8225 89.1185 47.0229 88.7156C47.2232 88.3127 47.5046 87.9998 47.867 87.777C48.2293 87.5541 48.6536 87.4427 49.1398 87.4427C49.626 87.4427 50.0503 87.5541 50.4127 87.777C50.7751 87.9998 51.0565 88.3127 51.2568 88.7156C51.4571 89.1185 51.5573 89.5889 51.5573 90.1269C51.5573 90.6626 51.4571 91.1308 51.2568 91.5315C51.0565 91.9321 50.7751 92.2439 50.4127 92.4667C50.0503 92.6895 49.626 92.801 49.1398 92.801ZM49.1432 91.9535C49.4583 91.9535 49.7194 91.8702 49.9265 91.7036C50.1336 91.5371 50.2867 91.3154 50.3857 91.0385C50.487 90.7616 50.5376 90.4566 50.5376 90.1235C50.5376 89.7926 50.487 89.4888 50.3857 89.2119C50.2867 88.9328 50.1336 88.7088 49.9265 88.54C49.7194 88.3712 49.4583 88.2868 49.1432 88.2868C48.8258 88.2868 48.5625 88.3712 48.3531 88.54C48.1461 88.7088 47.9919 88.9328 47.8906 89.2119C47.7915 89.4888 47.742 89.7926 47.742 90.1235C47.742 90.4566 47.7915 90.7616 47.8906 91.0385C47.9919 91.3154 48.1461 91.5371 48.3531 91.7036C48.5625 91.8702 48.8258 91.9535 49.1432 91.9535ZM53.7412 89.6171V92.6963H52.7317V87.5102H53.7007V88.3543H53.7649C53.8841 88.0797 54.071 87.8591 54.3253 87.6925C54.5819 87.526 54.9049 87.4427 55.2943 87.4427C55.6477 87.4427 55.9572 87.517 56.2228 87.6655C56.4884 87.8118 56.6944 88.0302 56.8407 88.3205C56.987 88.6109 57.0602 88.9699 57.0602 89.3976V92.6963H56.0506V89.5191C56.0506 89.1432 55.9527 88.8495 55.7569 88.6379C55.5611 88.4241 55.2921 88.3172 54.9499 88.3172C54.7159 88.3172 54.5076 88.3678 54.3253 88.4691C54.1453 88.5704 54.0023 88.719 53.8965 88.9148C53.793 89.1084 53.7412 89.3425 53.7412 89.6171ZM60.8825 87.5102V88.3205H58.0497V87.5102H60.8825ZM58.8094 86.2677H59.8189V91.1736C59.8189 91.3694 59.8482 91.5168 59.9067 91.6159C59.9652 91.7126 60.0406 91.779 60.1329 91.8151C60.2274 91.8488 60.3299 91.8657 60.4402 91.8657C60.5212 91.8657 60.5921 91.8601 60.6529 91.8488C60.7136 91.8376 60.7609 91.8286 60.7947 91.8218L60.977 92.6558C60.9185 92.6783 60.8352 92.7008 60.7271 92.7233C60.6191 92.7481 60.484 92.7616 60.322 92.7638C60.0564 92.7683 59.8088 92.721 59.5792 92.622C59.3496 92.523 59.1639 92.3699 59.0221 92.1628C58.8803 91.9557 58.8094 91.6958 58.8094 91.3829V86.2677ZM63.1677 89.6171V92.6963H62.1581V85.7815H63.1542V88.3543H63.2183C63.3399 88.0752 63.5256 87.8535 63.7754 87.6892C64.0253 87.5249 64.3516 87.4427 64.7545 87.4427C65.1102 87.4427 65.4208 87.5159 65.6864 87.6622C65.9543 87.8085 66.1614 88.0268 66.3077 88.3172C66.4562 88.6053 66.5305 88.9654 66.5305 89.3976V92.6963H65.521V89.5191C65.521 89.1387 65.4231 88.8439 65.2272 88.6345C65.0314 88.423 64.759 88.3172 64.4102 88.3172C64.1716 88.3172 63.9577 88.3678 63.7687 88.4691C63.5818 88.5704 63.4344 88.719 63.3264 88.9148C63.2206 89.1084 63.1677 89.3425 63.1677 89.6171ZM68.9347 85.7815V92.6963H67.9252V85.7815H68.9347ZM70.9785 94.6411C70.8277 94.6411 70.6904 94.6287 70.5666 94.6039C70.4428 94.5814 70.3505 94.5567 70.2898 94.5296L70.5329 93.7024C70.7174 93.752 70.8817 93.7733 71.0258 93.7666C71.1699 93.7598 71.297 93.7058 71.4073 93.6045C71.5199 93.5032 71.6189 93.3378 71.7044 93.1082L71.8294 92.7638L69.9319 87.5102H71.0123L72.3257 91.5348H72.3797L73.6931 87.5102H74.7769L72.6397 93.3884C72.5407 93.6585 72.4146 93.887 72.2615 94.0738C72.1085 94.2629 71.9262 94.4047 71.7146 94.4993C71.503 94.5938 71.2576 94.6411 70.9785 94.6411ZM79.8462 92.8111C79.5176 92.8111 79.2204 92.7503 78.9548 92.6288C78.6892 92.505 78.4788 92.326 78.3235 92.0919C78.1704 91.8578 78.0939 91.5708 78.0939 91.231C78.0939 90.9383 78.1501 90.6975 78.2627 90.5084C78.3752 90.3193 78.5272 90.1697 78.7185 90.0594C78.9098 89.9491 79.1237 89.8658 79.36 89.8095C79.5963 89.7532 79.8372 89.7105 80.0825 89.6812C80.3932 89.6452 80.6453 89.6159 80.8388 89.5934C81.0324 89.5687 81.1731 89.5293 81.2609 89.4753C81.3487 89.4212 81.3926 89.3335 81.3926 89.2119V89.1883C81.3926 88.8934 81.3093 88.6649 81.1427 88.5029C80.9784 88.3408 80.733 88.2598 80.4067 88.2598C80.0668 88.2598 79.7989 88.3352 79.6031 88.486C79.4095 88.6345 79.2756 88.8 79.2013 88.9823L78.2526 88.7662C78.3651 88.4511 78.5294 88.1967 78.7455 88.0032C78.9638 87.8073 79.2148 87.6655 79.4984 87.5778C79.782 87.4877 80.0803 87.4427 80.3932 87.4427C80.6002 87.4427 80.8197 87.4675 81.0516 87.517C81.2856 87.5642 81.504 87.652 81.7066 87.7803C81.9114 87.9086 82.0791 88.0921 82.2096 88.3307C82.3402 88.567 82.4055 88.8743 82.4055 89.2524V92.6963H81.4196V91.9873H81.3791C81.3138 92.1178 81.2159 92.2461 81.0853 92.3722C80.9548 92.4982 80.7871 92.6029 80.5822 92.6862C80.3774 92.7694 80.1321 92.8111 79.8462 92.8111ZM80.0657 92.0008C80.3448 92.0008 80.5834 91.9456 80.7814 91.8353C80.9818 91.725 81.1337 91.581 81.2373 91.4031C81.343 91.2231 81.3959 91.0306 81.3959 90.8258V90.1573C81.3599 90.1933 81.2901 90.2271 81.1866 90.2586C81.0853 90.2878 80.9694 90.3137 80.8388 90.3362C80.7083 90.3565 80.5811 90.3756 80.4573 90.3936C80.3335 90.4094 80.23 90.4229 80.1467 90.4341C79.9509 90.4589 79.7719 90.5005 79.6099 90.5591C79.45 90.6176 79.3217 90.702 79.2249 90.8123C79.1304 90.9203 79.0831 91.0644 79.0831 91.2445C79.0831 91.4943 79.1754 91.6834 79.36 91.8117C79.5446 91.9377 79.7798 92.0008 80.0657 92.0008ZM85.9821 92.801C85.4802 92.801 85.048 92.6873 84.6856 92.4599C84.3255 92.2304 84.0486 91.9141 83.855 91.5112C83.6615 91.1083 83.5647 90.6468 83.5647 90.1269C83.5647 89.6002 83.6637 89.1354 83.8618 88.7325C84.0599 88.3273 84.339 88.011 84.6991 87.7837C85.0593 87.5564 85.4836 87.4427 85.972 87.4427C86.3659 87.4427 86.717 87.5159 87.0254 87.6622C87.3338 87.8062 87.5825 88.0088 87.7716 88.2699C87.9629 88.531 88.0766 88.836 88.1126 89.1849H87.1301C87.0761 88.9418 86.9523 88.7325 86.7587 88.5569C86.5674 88.3813 86.3108 88.2935 85.9889 88.2935C85.7075 88.2935 85.461 88.3678 85.2495 88.5164C85.0401 88.6627 84.8769 88.872 84.7599 89.1444C84.6428 89.4145 84.5843 89.7341 84.5843 90.1033C84.5843 90.4814 84.6417 90.8078 84.7565 91.0824C84.8713 91.357 85.0334 91.5697 85.2427 91.7205C85.4543 91.8713 85.703 91.9467 85.9889 91.9467C86.1802 91.9467 86.3535 91.9119 86.5088 91.8421C86.6664 91.77 86.7981 91.6676 86.9039 91.5348C87.0119 91.402 87.0873 91.2422 87.1301 91.0554H88.1126C88.0766 91.3908 87.9674 91.6901 87.7851 91.9535C87.6028 92.2168 87.3586 92.4239 87.0524 92.5747C86.7486 92.7256 86.3918 92.801 85.9821 92.801ZM91.6606 87.5102V88.3205H88.8278V87.5102H91.6606ZM89.5875 86.2677H90.597V91.1736C90.597 91.3694 90.6263 91.5168 90.6848 91.6159C90.7433 91.7126 90.8187 91.779 90.911 91.8151C91.0056 91.8488 91.108 91.8657 91.2183 91.8657C91.2993 91.8657 91.3702 91.8601 91.431 91.8488C91.4917 91.8376 91.539 91.8286 91.5728 91.8218L91.7551 92.6558C91.6966 92.6783 91.6133 92.7008 91.5053 92.7233C91.3972 92.7481 91.2622 92.7616 91.1001 92.7638C90.8345 92.7683 90.5869 92.721 90.3573 92.622C90.1277 92.523 89.942 92.3699 89.8002 92.1628C89.6584 91.9557 89.5875 91.6958 89.5875 91.3829V86.2677ZM92.8248 92.6963V87.5102H93.8344V92.6963H92.8248ZM93.3347 86.71C93.1591 86.71 93.0083 86.6515 92.8822 86.5345C92.7584 86.4152 92.6965 86.2734 92.6965 86.109C92.6965 85.9425 92.7584 85.8007 92.8822 85.6836C93.0083 85.5643 93.1591 85.5047 93.3347 85.5047C93.5102 85.5047 93.6599 85.5643 93.7837 85.6836C93.9098 85.8007 93.9728 85.9425 93.9728 86.109C93.9728 86.2734 93.9098 86.4152 93.7837 86.5345C93.6599 86.6515 93.5102 86.71 93.3347 86.71ZM99.6765 87.5102L97.7959 92.6963H96.7155L94.8315 87.5102H95.9153L97.2287 91.5011H97.2827L98.5927 87.5102H99.6765ZM102.732 92.801C102.221 92.801 101.781 92.6918 101.411 92.4735C101.045 92.2529 100.761 91.9434 100.561 91.545C100.362 91.1443 100.263 90.675 100.263 90.137C100.263 89.6058 100.362 89.1376 100.561 88.7325C100.761 88.3273 101.04 88.011 101.398 87.7837C101.758 87.5564 102.179 87.4427 102.661 87.4427C102.953 87.4427 103.237 87.4911 103.512 87.5879C103.786 87.6847 104.033 87.8366 104.251 88.0437C104.469 88.2508 104.641 88.5198 104.768 88.8506C104.894 89.1793 104.957 89.5788 104.957 90.0492V90.4071H100.834V89.6508H103.967C103.967 89.3852 103.913 89.15 103.805 88.9452C103.697 88.7381 103.545 88.5749 103.349 88.4556C103.156 88.3363 102.929 88.2767 102.667 88.2767C102.384 88.2767 102.136 88.3464 101.925 88.486C101.715 88.6233 101.553 88.8034 101.438 89.0262C101.326 89.2468 101.27 89.4865 101.27 89.7454V90.3362C101.27 90.6829 101.33 90.9777 101.452 91.2208C101.576 91.4639 101.748 91.6496 101.969 91.7779C102.189 91.904 102.447 91.967 102.742 91.967C102.933 91.967 103.107 91.94 103.265 91.886C103.423 91.8297 103.559 91.7464 103.674 91.6361C103.788 91.5258 103.876 91.3896 103.937 91.2276L104.892 91.3998C104.816 91.6811 104.679 91.9276 104.481 92.1392C104.285 92.3485 104.038 92.5117 103.741 92.6288C103.446 92.7436 103.11 92.801 102.732 92.801ZM111.973 90.5456V87.5102H112.986V92.6963H111.993V91.7982H111.939C111.82 92.075 111.629 92.3058 111.365 92.4903C111.104 92.6727 110.779 92.7638 110.39 92.7638C110.057 92.7638 109.762 92.6907 109.505 92.5444C109.251 92.3958 109.05 92.1763 108.904 91.886C108.76 91.5956 108.688 91.2366 108.688 90.8089V87.5102H109.698V90.6874C109.698 91.0408 109.795 91.3221 109.991 91.5315C110.187 91.7408 110.441 91.8455 110.754 91.8455C110.943 91.8455 111.131 91.7982 111.318 91.7036C111.507 91.6091 111.664 91.4662 111.787 91.2748C111.914 91.0835 111.975 90.8404 111.973 90.5456ZM118.276 88.7764L117.361 88.9384C117.323 88.8214 117.262 88.71 117.179 88.6042C117.098 88.4984 116.988 88.4117 116.848 88.3442C116.708 88.2767 116.534 88.2429 116.325 88.2429C116.039 88.2429 115.8 88.307 115.609 88.4353C115.418 88.5614 115.322 88.7246 115.322 88.9249C115.322 89.0982 115.386 89.2378 115.514 89.3436C115.643 89.4494 115.85 89.536 116.136 89.6036L116.959 89.7926C117.437 89.9029 117.792 90.0729 118.026 90.3025C118.26 90.5321 118.378 90.8303 118.378 91.1972C118.378 91.5078 118.287 91.7847 118.107 92.0278C117.93 92.2686 117.681 92.4577 117.361 92.595C117.044 92.7323 116.676 92.801 116.257 92.801C115.676 92.801 115.203 92.6772 114.836 92.4296C114.469 92.1797 114.244 91.8252 114.16 91.366L115.136 91.2175C115.197 91.4718 115.322 91.6643 115.511 91.7948C115.7 91.9231 115.947 91.9873 116.25 91.9873C116.581 91.9873 116.846 91.9186 117.044 91.7813C117.242 91.6417 117.341 91.4718 117.341 91.2715C117.341 91.1094 117.28 90.9732 117.159 90.8629C117.039 90.7526 116.856 90.6694 116.608 90.6131L115.73 90.4206C115.247 90.3103 114.889 90.1348 114.657 89.8939C114.427 89.6531 114.312 89.3481 114.312 88.9789C114.312 88.6728 114.398 88.405 114.569 88.1754C114.74 87.9458 114.976 87.7668 115.278 87.6385C115.58 87.508 115.925 87.4427 116.315 87.4427C116.875 87.4427 117.316 87.5642 117.638 87.8073C117.96 88.0482 118.173 88.3712 118.276 88.7764ZM121.77 92.801C121.259 92.801 120.819 92.6918 120.45 92.4735C120.083 92.2529 119.8 91.9434 119.599 91.545C119.401 91.1443 119.302 90.675 119.302 90.137C119.302 89.6058 119.401 89.1376 119.599 88.7325C119.8 88.3273 120.079 88.011 120.437 87.7837C120.797 87.5564 121.218 87.4427 121.699 87.4427C121.992 87.4427 122.275 87.4911 122.55 87.5879C122.825 87.6847 123.071 87.8366 123.29 88.0437C123.508 88.2508 123.68 88.5198 123.806 88.8506C123.932 89.1793 123.995 89.5788 123.995 90.0492V90.4071H119.873V89.6508H123.006C123.006 89.3852 122.952 89.15 122.844 88.9452C122.736 88.7381 122.584 88.5749 122.388 88.4556C122.194 88.3363 121.967 88.2767 121.706 88.2767C121.422 88.2767 121.175 88.3464 120.963 88.486C120.754 88.6233 120.592 88.8034 120.477 89.0262C120.364 89.2468 120.308 89.4865 120.308 89.7454V90.3362C120.308 90.6829 120.369 90.9777 120.491 91.2208C120.614 91.4639 120.787 91.6496 121.007 91.7779C121.228 91.904 121.485 91.967 121.78 91.967C121.972 91.967 122.146 91.94 122.304 91.886C122.461 91.8297 122.597 91.7464 122.712 91.6361C122.827 91.5258 122.915 91.3896 122.976 91.2276L123.931 91.3998C123.854 91.6811 123.717 91.9276 123.519 92.1392C123.323 92.3485 123.077 92.5117 122.78 92.6288C122.485 92.7436 122.148 92.801 121.77 92.801ZM125.163 92.6963V87.5102H126.139V88.3341H126.193C126.287 88.0549 126.454 87.8355 126.692 87.6757C126.933 87.5136 127.206 87.4326 127.509 87.4326C127.572 87.4326 127.647 87.4348 127.732 87.4393C127.82 87.4438 127.889 87.4495 127.938 87.4562V88.4218C127.898 88.4106 127.826 88.3982 127.722 88.3847C127.619 88.3689 127.515 88.3611 127.411 88.3611C127.173 88.3611 126.96 88.4117 126.773 88.513C126.589 88.612 126.442 88.7505 126.334 88.9283C126.226 89.1039 126.172 89.3042 126.172 89.5293V92.6963H125.163ZM132.746 88.7764L131.831 88.9384C131.792 88.8214 131.731 88.71 131.648 88.6042C131.567 88.4984 131.457 88.4117 131.317 88.3442C131.178 88.2767 131.003 88.2429 130.794 88.2429C130.508 88.2429 130.27 88.307 130.078 88.4353C129.887 88.5614 129.791 88.7246 129.791 88.9249C129.791 89.0982 129.855 89.2378 129.984 89.3436C130.112 89.4494 130.319 89.536 130.605 89.6036L131.429 89.7926C131.906 89.9029 132.262 90.0729 132.496 90.3025C132.73 90.5321 132.847 90.8303 132.847 91.1972C132.847 91.5078 132.757 91.7847 132.577 92.0278C132.399 92.2686 132.15 92.4577 131.831 92.595C131.513 92.7323 131.145 92.801 130.726 92.801C130.146 92.801 129.672 92.6772 129.305 92.4296C128.938 92.1797 128.713 91.8252 128.63 91.366L129.606 91.2175C129.666 91.4718 129.791 91.6643 129.98 91.7948C130.169 91.9231 130.416 91.9873 130.72 91.9873C131.051 91.9873 131.315 91.9186 131.513 91.7813C131.711 91.6417 131.81 91.4718 131.81 91.2715C131.81 91.1094 131.749 90.9732 131.628 90.8629C131.509 90.7526 131.325 90.6694 131.078 90.6131L130.2 90.4206C129.716 90.3103 129.358 90.1348 129.126 89.8939C128.896 89.6531 128.782 89.3481 128.782 88.9789C128.782 88.6728 128.867 88.405 129.038 88.1754C129.209 87.9458 129.446 87.7668 129.747 87.6385C130.049 87.508 130.394 87.4427 130.784 87.4427C131.344 87.4427 131.785 87.5642 132.107 87.8073C132.429 88.0482 132.642 88.3712 132.746 88.7764Z" fill="#292831"/>
<path d="M41.6365 110.493V103.322H43.4496V110.493H41.6365ZM38.9574 107.814V106.001H46.1287V107.814H38.9574ZM47.938 112.073V110.493L51.63 107.075C51.944 106.771 52.2074 106.497 52.4201 106.254C52.6362 106.011 52.7999 105.773 52.9114 105.54C53.0228 105.304 53.0785 105.049 53.0785 104.775C53.0785 104.471 53.0093 104.21 52.8708 103.99C52.7324 103.767 52.5433 103.597 52.3036 103.479C52.0639 103.357 51.7921 103.296 51.4882 103.296C51.1709 103.296 50.894 103.361 50.6577 103.489C50.4213 103.617 50.239 103.801 50.1107 104.041C49.9824 104.281 49.9182 104.566 49.9182 104.897H47.8367C47.8367 104.218 47.9903 103.629 48.2976 103.129C48.6048 102.63 49.0353 102.243 49.589 101.97C50.1428 101.696 50.7809 101.559 51.5034 101.559C52.2462 101.559 52.8928 101.691 53.4431 101.954C53.9969 102.214 54.4273 102.576 54.7346 103.038C55.0418 103.501 55.1955 104.031 55.1955 104.628C55.1955 105.02 55.1178 105.407 54.9625 105.788C54.8106 106.17 54.5388 106.593 54.1471 107.059C53.7554 107.522 53.2034 108.077 52.491 108.726L50.9767 110.21V110.28H55.3322V112.073H47.938ZM59.2863 110.655L59.2306 111.212C59.1867 111.658 59.1023 112.102 58.9774 112.544C58.8558 112.99 58.7275 113.393 58.5925 113.755C58.4608 114.116 58.3545 114.4 58.2734 114.606H56.8756C56.9263 114.406 56.9955 114.128 57.0833 113.77C57.171 113.415 57.2538 113.017 57.3314 112.575C57.4091 112.132 57.458 111.682 57.4783 111.222L57.5036 110.655H59.2863ZM64.6902 112.215C63.9102 112.215 63.2164 112.088 62.6086 111.835C62.0043 111.579 61.5299 111.229 61.1855 110.787C60.8411 110.345 60.6689 109.843 60.6689 109.283C60.6689 108.851 60.7668 108.454 60.9627 108.093C61.1619 107.728 61.432 107.426 61.773 107.186C62.114 106.943 62.4955 106.788 62.9176 106.72V106.649C62.3639 106.538 61.9148 106.269 61.5704 105.844C61.226 105.415 61.0538 104.917 61.0538 104.35C61.0538 103.813 61.2108 103.335 61.5248 102.917C61.8388 102.495 62.2693 102.164 62.8163 101.924C63.3666 101.681 63.9913 101.559 64.6902 101.559C65.3891 101.559 66.012 101.681 66.559 101.924C67.1093 102.167 67.5415 102.5 67.8555 102.922C68.1695 103.34 68.3282 103.816 68.3315 104.35C68.3282 104.92 68.1526 105.418 67.8048 105.844C67.4571 106.269 67.0114 106.538 66.4678 106.649V106.72C66.8831 106.788 67.2596 106.943 67.5972 107.186C67.9382 107.426 68.2083 107.728 68.4075 108.093C68.6101 108.454 68.7131 108.851 68.7165 109.283C68.7131 109.843 68.5392 110.345 68.1948 110.787C67.8504 111.229 67.3744 111.579 66.7666 111.835C66.1622 112.088 65.4701 112.215 64.6902 112.215ZM64.6902 110.605C65.0379 110.605 65.3418 110.542 65.6018 110.417C65.8618 110.289 66.0643 110.113 66.2095 109.89C66.3581 109.664 66.4324 109.404 66.4324 109.111C66.4324 108.81 66.3564 108.545 66.2045 108.315C66.0525 108.082 65.8466 107.9 65.5866 107.768C65.3266 107.633 65.0278 107.566 64.6902 107.566C64.3559 107.566 64.0571 107.633 63.7937 107.768C63.5304 107.9 63.3227 108.082 63.1708 108.315C63.0222 108.545 62.948 108.81 62.948 109.111C62.948 109.404 63.0206 109.664 63.1657 109.89C63.3109 110.113 63.5152 110.289 63.7785 110.417C64.0419 110.542 64.3458 110.605 64.6902 110.605ZM64.6902 105.971C64.9805 105.971 65.2388 105.911 65.465 105.793C65.6912 105.675 65.8685 105.511 65.9968 105.302C66.1251 105.093 66.1893 104.851 66.1893 104.578C66.1893 104.308 66.1251 104.071 65.9968 103.869C65.8685 103.663 65.6929 103.502 65.4701 103.388C65.2473 103.269 64.9873 103.21 64.6902 103.21C64.3964 103.21 64.1364 103.269 63.9102 103.388C63.684 103.502 63.5068 103.663 63.3785 103.869C63.2535 104.071 63.1911 104.308 63.1911 104.578C63.1911 104.851 63.2552 105.093 63.3835 105.302C63.5118 105.511 63.6891 105.675 63.9153 105.793C64.1415 105.911 64.3998 105.971 64.6902 105.971ZM74.2304 112.215C73.697 112.212 73.1821 112.122 72.6858 111.947C72.1928 111.771 71.7505 111.486 71.3589 111.091C70.9672 110.696 70.6566 110.172 70.427 109.521C70.2008 108.869 70.0877 108.069 70.0877 107.12C70.091 106.249 70.1906 105.471 70.3865 104.785C70.5857 104.097 70.8693 103.513 71.2373 103.033C71.6087 102.554 72.0527 102.189 72.5693 101.939C73.0859 101.686 73.6649 101.559 74.3064 101.559C74.9986 101.559 75.6097 101.694 76.1398 101.964C76.6699 102.231 77.0953 102.594 77.416 103.053C77.7402 103.513 77.936 104.027 78.0035 104.598H75.841C75.7566 104.237 75.5793 103.953 75.3092 103.747C75.0391 103.541 74.7048 103.438 74.3064 103.438C73.6311 103.438 73.1179 103.732 72.7668 104.319C72.419 104.907 72.2418 105.705 72.235 106.715H72.3059C72.4612 106.408 72.6706 106.146 72.9339 105.93C73.2007 105.711 73.5028 105.543 73.8405 105.429C74.1815 105.31 74.5411 105.251 74.9192 105.251C75.5337 105.251 76.0807 105.397 76.5601 105.687C77.0396 105.974 77.4177 106.369 77.6946 106.872C77.9714 107.375 78.1099 107.951 78.1099 108.599C78.1099 109.301 77.9461 109.926 77.6186 110.473C77.2945 111.02 76.8404 111.449 76.2563 111.759C75.6755 112.066 75.0003 112.218 74.2304 112.215ZM74.2203 110.493C74.558 110.493 74.8601 110.412 75.1269 110.25C75.3936 110.088 75.6029 109.868 75.7549 109.592C75.9068 109.315 75.9828 109.004 75.9828 108.66C75.9828 108.315 75.9068 108.006 75.7549 107.733C75.6063 107.459 75.4003 107.242 75.137 107.08C74.8736 106.918 74.5731 106.837 74.2355 106.837C73.9823 106.837 73.7476 106.884 73.5315 106.978C73.3188 107.073 73.1314 107.205 72.9694 107.373C72.8107 107.542 72.6858 107.738 72.5946 107.961C72.5034 108.18 72.4579 108.415 72.4579 108.665C72.4579 108.999 72.5338 109.305 72.6858 109.582C72.8411 109.858 73.0504 110.08 73.3138 110.245C73.5805 110.41 73.8827 110.493 74.2203 110.493ZM80.0749 112.073L84.3747 103.565V103.494H79.3659V101.701H86.6436V103.519L82.3387 112.073H80.0749Z" fill="#292831"/>
<path d="M38.429 119.4H39.3034L41.3596 124.422H41.4305L43.4867 119.4H44.3612V125.45H43.6758V120.853H43.6167L41.726 125.45H41.0642L39.1734 120.853H39.1144V125.45H38.429V119.4ZM47.5792 125.545C47.1695 125.545 46.8101 125.447 46.5008 125.252C46.1936 125.057 45.9533 124.784 45.78 124.434C45.6086 124.083 45.523 123.674 45.523 123.205C45.523 122.732 45.6086 122.32 45.78 121.967C45.9533 121.615 46.1936 121.341 46.5008 121.146C46.8101 120.951 47.1695 120.853 47.5792 120.853C47.9888 120.853 48.3473 120.951 48.6545 121.146C48.9637 121.341 49.204 121.615 49.3754 121.967C49.5487 122.32 49.6354 122.732 49.6354 123.205C49.6354 123.674 49.5487 124.083 49.3754 124.434C49.204 124.784 48.9637 125.057 48.6545 125.252C48.3473 125.447 47.9888 125.545 47.5792 125.545ZM47.5792 124.918C47.8904 124.918 48.1464 124.839 48.3473 124.679C48.5482 124.52 48.6969 124.31 48.7934 124.05C48.8899 123.79 48.9381 123.508 48.9381 123.205C48.9381 122.902 48.8899 122.619 48.7934 122.357C48.6969 122.095 48.5482 121.883 48.3473 121.722C48.1464 121.56 47.8904 121.48 47.5792 121.48C47.268 121.48 47.0119 121.56 46.811 121.722C46.6102 121.883 46.4615 122.095 46.3649 122.357C46.2684 122.619 46.2202 122.902 46.2202 123.205C46.2202 123.508 46.2684 123.79 46.3649 124.05C46.4615 124.31 46.6102 124.52 46.811 124.679C47.0119 124.839 47.268 124.918 47.5792 124.918ZM50.7942 119.4H51.6687L53.7248 124.422H53.7958L55.8519 119.4H56.7264V125.45H56.041V120.853H55.9819L54.0912 125.45H53.4294L51.5387 120.853H51.4796V125.45H50.7942V119.4ZM60.4407 125.45V120.912H61.1379V125.45H60.4407ZM60.7952 120.156C60.6593 120.156 60.5421 120.11 60.4437 120.017C60.3472 119.925 60.2989 119.813 60.2989 119.683C60.2989 119.553 60.3472 119.442 60.4437 119.35C60.5421 119.257 60.6593 119.211 60.7952 119.211C60.9311 119.211 61.0473 119.257 61.1438 119.35C61.2423 119.442 61.2916 119.553 61.2916 119.683C61.2916 119.813 61.2423 119.925 61.1438 120.017C61.0473 120.11 60.9311 120.156 60.7952 120.156ZM63.1121 122.72V125.45H62.4149V120.912H63.0885V121.621H63.1476C63.2539 121.391 63.4154 121.206 63.6321 121.066C63.8487 120.924 64.1284 120.853 64.4711 120.853C64.7784 120.853 65.0472 120.916 65.2776 121.042C65.5081 121.166 65.6873 121.356 65.8153 121.61C65.9433 121.862 66.0074 122.181 66.0074 122.567V125.45H65.3101V122.614C65.3101 122.258 65.2176 121.98 65.0324 121.781C64.8473 121.58 64.5932 121.48 64.2702 121.48C64.0477 121.48 63.8487 121.528 63.6735 121.624C63.5001 121.721 63.3633 121.862 63.2628 122.047C63.1624 122.232 63.1121 122.457 63.1121 122.72ZM69.1249 125.545C68.6995 125.545 68.3331 125.444 68.0259 125.243C67.7186 125.043 67.4823 124.766 67.3168 124.413C67.1514 124.061 67.0687 123.658 67.0687 123.205C67.0687 122.744 67.1534 122.337 67.3228 121.985C67.4941 121.63 67.7324 121.354 68.0377 121.155C68.3449 120.954 68.7034 120.853 69.1131 120.853C69.4321 120.853 69.7197 120.912 69.9757 121.031C70.2318 121.149 70.4415 121.314 70.605 121.527C70.7685 121.74 70.8699 121.988 70.9093 122.271H70.2121C70.1589 122.065 70.0407 121.881 69.8575 121.722C69.6764 121.56 69.4321 121.48 69.1249 121.48C68.8531 121.48 68.6148 121.551 68.4099 121.692C68.2071 121.832 68.0485 122.03 67.9343 122.286C67.822 122.54 67.7659 122.839 67.7659 123.181C67.7659 123.532 67.821 123.837 67.9313 124.097C68.0436 124.357 68.2012 124.559 68.404 124.703C68.6089 124.847 68.8491 124.918 69.1249 124.918C69.3061 124.918 69.4705 124.887 69.6182 124.824C69.766 124.761 69.891 124.67 69.9934 124.552C70.0959 124.434 70.1687 124.292 70.2121 124.127H70.9093C70.8699 124.395 70.7724 124.636 70.6168 124.85C70.4632 125.063 70.2593 125.233 70.0053 125.359C69.7532 125.483 69.4597 125.545 69.1249 125.545ZM71.9285 125.45V120.912H72.6021V121.598H72.6494C72.7321 121.373 72.8818 121.191 73.0984 121.051C73.3151 120.911 73.5593 120.841 73.8311 120.841C73.8823 120.841 73.9463 120.842 74.0231 120.844C74.0999 120.846 74.158 120.849 74.1974 120.853V121.562C74.1738 121.556 74.1196 121.548 74.0349 121.536C73.9522 121.522 73.8646 121.515 73.772 121.515C73.5514 121.515 73.3545 121.561 73.1811 121.654C73.0098 121.745 72.8739 121.871 72.7734 122.032C72.675 122.192 72.6257 122.374 72.6257 122.579V125.45H71.9285ZM76.7883 125.545C76.3511 125.545 75.9739 125.448 75.6568 125.255C75.3417 125.06 75.0985 124.788 74.9271 124.44C74.7577 124.089 74.6731 123.682 74.6731 123.217C74.6731 122.752 74.7577 122.342 74.9271 121.988C75.0985 121.631 75.3368 121.354 75.6421 121.155C75.9493 120.954 76.3078 120.853 76.7174 120.853C76.9538 120.853 77.1872 120.893 77.4176 120.971C77.648 121.05 77.8578 121.178 78.0469 121.356C78.2359 121.531 78.3866 121.763 78.4989 122.053C78.6111 122.342 78.6673 122.699 78.6673 123.122V123.418H75.1694V122.815H77.9582C77.9582 122.559 77.907 122.33 77.8046 122.13C77.7042 121.929 77.5604 121.77 77.3733 121.654C77.1882 121.538 76.9695 121.48 76.7174 121.48C76.4397 121.48 76.1994 121.549 75.9966 121.686C75.7957 121.822 75.6411 122 75.5328 122.218C75.4244 122.437 75.3703 122.671 75.3703 122.921V123.323C75.3703 123.666 75.4294 123.956 75.5475 124.195C75.6677 124.431 75.8341 124.611 76.0468 124.735C76.2595 124.857 76.5067 124.918 76.7883 124.918C76.9715 124.918 77.1369 124.893 77.2847 124.842C77.4343 124.788 77.5633 124.71 77.6717 124.605C77.78 124.499 77.8637 124.367 77.9228 124.209L78.5964 124.398C78.5255 124.627 78.4063 124.828 78.2389 125.001C78.0715 125.172 77.8647 125.306 77.6185 125.403C77.3723 125.497 77.0956 125.545 76.7883 125.545ZM81.0632 125.557C80.7757 125.557 80.5147 125.502 80.2803 125.394C80.0459 125.284 79.8598 125.125 79.722 124.918C79.5841 124.71 79.5152 124.458 79.5152 124.162C79.5152 123.902 79.5664 123.691 79.6688 123.53C79.7712 123.366 79.9081 123.238 80.0794 123.146C80.2508 123.053 80.4399 122.984 80.6467 122.939C80.8554 122.892 81.0652 122.854 81.2759 122.827C81.5517 122.791 81.7752 122.765 81.9465 122.747C82.1199 122.727 82.2459 122.695 82.3247 122.65C82.4054 122.604 82.4458 122.525 82.4458 122.413V122.39C82.4458 122.098 82.3661 121.872 82.2065 121.71C82.049 121.549 81.8097 121.468 81.4886 121.468C81.1558 121.468 80.8948 121.541 80.7057 121.686C80.5167 121.832 80.3837 121.988 80.3069 122.153L79.6451 121.917C79.7633 121.641 79.9209 121.426 80.1178 121.273C80.3168 121.117 80.5334 121.009 80.7678 120.948C81.0041 120.885 81.2365 120.853 81.465 120.853C81.6107 120.853 81.7782 120.871 81.9672 120.906C82.1583 120.94 82.3424 121.01 82.5197 121.116C82.6989 121.223 82.8476 121.383 82.9658 121.598C83.084 121.812 83.143 122.1 83.143 122.46V125.45H82.4458V124.836H82.4104C82.3631 124.934 82.2843 125.04 82.174 125.152C82.0637 125.264 81.917 125.36 81.7338 125.438C81.5507 125.517 81.3271 125.557 81.0632 125.557ZM81.1696 124.93C81.4453 124.93 81.6777 124.876 81.8668 124.768C82.0578 124.659 82.2016 124.52 82.2981 124.348C82.3966 124.177 82.4458 123.997 82.4458 123.808V123.169C82.4163 123.205 82.3513 123.237 82.2508 123.267C82.1524 123.295 82.0381 123.319 81.9081 123.341C81.7801 123.361 81.6551 123.378 81.5329 123.394C81.4128 123.408 81.3153 123.42 81.2405 123.429C81.0593 123.453 80.8899 123.491 80.7323 123.545C80.5767 123.596 80.4507 123.674 80.3542 123.778C80.2596 123.88 80.2124 124.02 80.2124 124.198C80.2124 124.44 80.302 124.623 80.4812 124.747C80.6624 124.869 80.8919 124.93 81.1696 124.93ZM87.6299 121.929L87.0036 122.106C86.9642 122.002 86.9061 121.9 86.8293 121.802C86.7544 121.701 86.652 121.618 86.522 121.553C86.392 121.488 86.2256 121.456 86.0227 121.456C85.745 121.456 85.5136 121.52 85.3285 121.648C85.1453 121.774 85.0537 121.935 85.0537 122.13C85.0537 122.303 85.1168 122.44 85.2428 122.54C85.3689 122.641 85.5658 122.724 85.8337 122.791L86.5072 122.957C86.913 123.055 87.2153 123.206 87.4142 123.409C87.6131 123.61 87.7126 123.869 87.7126 124.186C87.7126 124.446 87.6378 124.678 87.4881 124.883C87.3404 125.088 87.1336 125.249 86.8677 125.367C86.6018 125.486 86.2926 125.545 85.94 125.545C85.4772 125.545 85.0941 125.444 84.7908 125.243C84.4875 125.043 84.2955 124.749 84.2147 124.363L84.8765 124.198C84.9395 124.442 85.0587 124.625 85.2339 124.747C85.4112 124.869 85.6426 124.93 85.9282 124.93C86.2532 124.93 86.5112 124.861 86.7022 124.723C86.8952 124.584 86.9918 124.416 86.9918 124.221C86.9918 124.064 86.9366 123.932 86.8263 123.825C86.716 123.717 86.5466 123.636 86.3182 123.583L85.5619 123.406C85.1463 123.307 84.841 123.155 84.646 122.948C84.453 122.739 84.3565 122.478 84.3565 122.165C84.3565 121.909 84.4284 121.682 84.5722 121.486C84.7179 121.289 84.9159 121.134 85.166 121.022C85.4181 120.909 85.7037 120.853 86.0227 120.853C86.4718 120.853 86.8243 120.952 87.0804 121.149C87.3384 121.346 87.5216 121.606 87.6299 121.929ZM90.6647 125.545C90.2275 125.545 89.8503 125.448 89.5332 125.255C89.2181 125.06 88.9748 124.788 88.8035 124.44C88.6341 124.089 88.5494 123.682 88.5494 123.217C88.5494 122.752 88.6341 122.342 88.8035 121.988C88.9748 121.631 89.2131 121.354 89.5184 121.155C89.8257 120.954 90.1841 120.853 90.5938 120.853C90.8301 120.853 91.0635 120.893 91.294 120.971C91.5244 121.05 91.7341 121.178 91.9232 121.356C92.1123 121.531 92.263 121.763 92.3752 122.053C92.4875 122.342 92.5436 122.699 92.5436 123.122V123.418H89.0457V122.815H91.8346C91.8346 122.559 91.7834 122.33 91.681 122.13C91.5805 121.929 91.4367 121.77 91.2496 121.654C91.0645 121.538 90.8459 121.48 90.5938 121.48C90.3161 121.48 90.0758 121.549 89.8729 121.686C89.672 121.822 89.5174 122 89.4091 122.218C89.3008 122.437 89.2466 122.671 89.2466 122.921V123.323C89.2466 123.666 89.3057 123.956 89.4239 124.195C89.544 124.431 89.7104 124.611 89.9232 124.735C90.1359 124.857 90.383 124.918 90.6647 124.918C90.8479 124.918 91.0133 124.893 91.161 124.842C91.3107 124.788 91.4397 124.71 91.548 124.605C91.6563 124.499 91.7401 124.367 91.7991 124.209L92.4727 124.398C92.4018 124.627 92.2827 124.828 92.1152 125.001C91.9478 125.172 91.741 125.306 91.4948 125.403C91.2487 125.497 90.9719 125.545 90.6647 125.545ZM97.7875 125.545C97.3778 125.545 97.0184 125.447 96.7092 125.252C96.4019 125.057 96.1617 124.784 95.9883 124.434C95.817 124.083 95.7313 123.674 95.7313 123.205C95.7313 122.732 95.817 122.32 95.9883 121.967C96.1617 121.615 96.4019 121.341 96.7092 121.146C97.0184 120.951 97.3778 120.853 97.7875 120.853C98.1972 120.853 98.5556 120.951 98.8629 121.146C99.1721 121.341 99.4124 121.615 99.5837 121.967C99.757 122.32 99.8437 122.732 99.8437 123.205C99.8437 123.674 99.757 124.083 99.5837 124.434C99.4124 124.784 99.1721 125.057 98.8629 125.252C98.5556 125.447 98.1972 125.545 97.7875 125.545ZM97.7875 124.918C98.0987 124.918 98.3547 124.839 98.5556 124.679C98.7565 124.52 98.9052 124.31 99.0017 124.05C99.0982 123.79 99.1465 123.508 99.1465 123.205C99.1465 122.902 99.0982 122.619 99.0017 122.357C98.9052 122.095 98.7565 121.883 98.5556 121.722C98.3547 121.56 98.0987 121.48 97.7875 121.48C97.4763 121.48 97.2203 121.56 97.0194 121.722C96.8185 121.883 96.6698 122.095 96.5733 122.357C96.4768 122.619 96.4285 122.902 96.4285 123.205C96.4285 123.508 96.4768 123.79 96.5733 124.05C96.6698 124.31 96.8185 124.52 97.0194 124.679C97.2203 124.839 97.4763 124.918 97.7875 124.918ZM102.929 120.912V121.503H100.483V120.912H102.929ZM101.215 125.45V120.286C101.215 120.026 101.276 119.809 101.398 119.636C101.521 119.463 101.679 119.333 101.874 119.246C102.069 119.16 102.275 119.116 102.491 119.116C102.663 119.116 102.803 119.13 102.911 119.158C103.019 119.185 103.1 119.211 103.153 119.234L102.952 119.837C102.917 119.825 102.868 119.81 102.805 119.793C102.744 119.775 102.663 119.766 102.562 119.766C102.332 119.766 102.166 119.824 102.063 119.94C101.963 120.057 101.912 120.227 101.912 120.452V125.45H101.215ZM106.234 125.45V124.918L108.231 122.732C108.465 122.476 108.658 122.254 108.81 122.065C108.962 121.874 109.074 121.694 109.147 121.527C109.222 121.358 109.259 121.18 109.259 120.995C109.259 120.782 109.208 120.598 109.105 120.443C109.005 120.287 108.867 120.167 108.692 120.082C108.517 119.998 108.32 119.955 108.101 119.955C107.869 119.955 107.666 120.003 107.492 120.1C107.321 120.194 107.188 120.327 107.094 120.499C107.001 120.67 106.955 120.871 106.955 121.101H106.257C106.257 120.747 106.339 120.436 106.503 120.168C106.666 119.9 106.889 119.691 107.17 119.542C107.454 119.392 107.772 119.317 108.125 119.317C108.479 119.317 108.793 119.392 109.067 119.542C109.341 119.691 109.555 119.893 109.711 120.147C109.867 120.401 109.944 120.684 109.944 120.995C109.944 121.218 109.904 121.435 109.823 121.648C109.745 121.859 109.607 122.094 109.41 122.354C109.215 122.612 108.944 122.927 108.597 123.299L107.238 124.753V124.8H110.051V125.45H106.234ZM113.197 119.317C113.445 119.319 113.693 119.366 113.942 119.459C114.19 119.551 114.416 119.705 114.621 119.92C114.826 120.132 114.99 120.423 115.114 120.791C115.239 121.16 115.301 121.621 115.301 122.177C115.301 122.715 115.249 123.192 115.147 123.61C115.047 124.025 114.901 124.376 114.71 124.661C114.521 124.947 114.29 125.164 114.018 125.311C113.749 125.459 113.443 125.533 113.103 125.533C112.764 125.533 112.462 125.466 112.196 125.332C111.932 125.196 111.715 125.008 111.546 124.768C111.378 124.525 111.271 124.245 111.224 123.926H111.945C112.01 124.203 112.139 124.433 112.332 124.614C112.527 124.793 112.784 124.883 113.103 124.883C113.569 124.883 113.938 124.679 114.208 124.271C114.479 123.864 114.615 123.288 114.615 122.543H114.568C114.458 122.709 114.327 122.851 114.175 122.972C114.023 123.092 113.855 123.184 113.67 123.249C113.485 123.314 113.288 123.347 113.079 123.347C112.732 123.347 112.414 123.261 112.125 123.09C111.837 122.916 111.607 122.679 111.433 122.378C111.262 122.074 111.176 121.728 111.176 121.338C111.176 120.968 111.259 120.629 111.425 120.322C111.592 120.012 111.826 119.766 112.128 119.583C112.431 119.4 112.787 119.311 113.197 119.317ZM113.197 119.967C112.949 119.967 112.725 120.029 112.527 120.153C112.33 120.275 112.173 120.441 112.057 120.649C111.943 120.856 111.885 121.086 111.885 121.338C111.885 121.59 111.941 121.819 112.051 122.026C112.163 122.231 112.316 122.394 112.509 122.517C112.704 122.637 112.925 122.697 113.174 122.697C113.361 122.697 113.535 122.66 113.696 122.587C113.858 122.513 113.999 122.411 114.119 122.283C114.241 122.153 114.337 122.006 114.405 121.843C114.474 121.678 114.509 121.505 114.509 121.326C114.509 121.09 114.452 120.868 114.337 120.661C114.225 120.454 114.07 120.287 113.871 120.159C113.674 120.031 113.449 119.967 113.197 119.967ZM119.547 124.316V123.997C119.547 123.776 119.592 123.574 119.683 123.391C119.775 123.206 119.909 123.058 120.084 122.948C120.262 122.836 120.476 122.78 120.728 122.78C120.984 122.78 121.199 122.836 121.372 122.948C121.546 123.058 121.677 123.206 121.765 123.391C121.854 123.574 121.898 123.776 121.898 123.997V124.316C121.898 124.536 121.853 124.739 121.762 124.924C121.674 125.107 121.542 125.255 121.367 125.367C121.193 125.478 120.98 125.533 120.728 125.533C120.472 125.533 120.257 125.478 120.081 125.367C119.906 125.255 119.773 125.107 119.683 124.924C119.592 124.739 119.547 124.536 119.547 124.316ZM120.149 123.997V124.316C120.149 124.499 120.193 124.663 120.279 124.809C120.366 124.953 120.516 125.025 120.728 125.025C120.935 125.025 121.081 124.953 121.166 124.809C121.252 124.663 121.296 124.499 121.296 124.316V123.997C121.296 123.814 121.254 123.65 121.172 123.506C121.089 123.361 120.941 123.288 120.728 123.288C120.522 123.288 120.373 123.361 120.282 123.506C120.194 123.65 120.149 123.814 120.149 123.997ZM116.533 120.853V120.534C116.533 120.314 116.579 120.112 116.669 119.929C116.762 119.743 116.896 119.596 117.071 119.485C117.248 119.373 117.463 119.317 117.715 119.317C117.971 119.317 118.186 119.373 118.359 119.485C118.532 119.596 118.663 119.743 118.752 119.929C118.841 120.112 118.885 120.314 118.885 120.534V120.853C118.885 121.074 118.84 121.277 118.749 121.462C118.66 121.645 118.528 121.793 118.353 121.905C118.18 122.015 117.967 122.07 117.715 122.07C117.459 122.07 117.243 122.015 117.068 121.905C116.893 121.793 116.76 121.645 116.669 121.462C116.579 121.277 116.533 121.074 116.533 120.853ZM117.136 120.534V120.853C117.136 121.036 117.179 121.201 117.266 121.347C117.353 121.49 117.502 121.562 117.715 121.562C117.922 121.562 118.068 121.49 118.152 121.347C118.239 121.201 118.282 121.036 118.282 120.853V120.534C118.282 120.351 118.241 120.188 118.158 120.044C118.075 119.898 117.928 119.825 117.715 119.825C117.508 119.825 117.36 119.898 117.269 120.044C117.18 120.188 117.136 120.351 117.136 120.534ZM116.758 125.45L120.917 119.4H121.591L117.431 125.45H116.758Z" fill="#878797"/>
<path fill-rule="evenodd" clip-rule="evenodd" d="M157.078 93.4014C157.383 93.6759 157.853 93.6511 158.127 93.3462C158.402 93.0413 158.377 92.5716 158.072 92.2972L153.463 88.1488C153.33 88.0235 153.151 87.9467 152.954 87.9467C152.761 87.9467 152.586 88.0198 152.454 88.1397L147.835 92.2972C147.53 92.5716 147.505 93.0413 147.78 93.3462C148.054 93.6511 148.524 93.6759 148.829 93.4014L152.211 90.3574L152.211 102.555C152.211 102.965 152.543 103.298 152.954 103.298C153.364 103.298 153.696 102.965 153.696 102.555L153.696 90.3576L157.078 93.4014Z" fill="#11CB24"/>
<rect x="27.2228" y="73.2228" width="148.113" height="64.7007" rx="6.08953" stroke="#D9D9DA" stroke-width="0.445677"/>
</g>
<defs>
<filter id="filter0_ddd_0_1823" x="50.4889" y="116.527" width="156.463" height="74.0383" filterUnits="userSpaceOnUse" color-interpolation-filters="sRGB">
<feFlood flood-opacity="0" result="BackgroundImageFix"/>
<feColorMatrix in="SourceAlpha" type="matrix" values="0 0 0 0 0 0 0 0 0 0 0 0 0 0 0 0 0 0 127 0" result="hardAlpha"/>
<feOffset dy="1.09175"/>
<feGaussianBlur stdDeviation="0.436699"/>
<feColorMatrix type="matrix" values="0 0 0 0 0 0 0 0 0 0 0 0 0 0 0 0 0 0 0.0196802 0"/>
<feBlend mode="normal" in2="BackgroundImageFix" result="effect1_dropShadow_0_1823"/>
<feColorMatrix in="SourceAlpha" type="matrix" values="0 0 0 0 0 0 0 0 0 0 0 0 0 0 0 0 0 0 127 0" result="hardAlpha"/>
<feOffset dy="2.62362"/>
<feGaussianBlur stdDeviation="1.04945"/>
<feColorMatrix type="matrix" values="0 0 0 0 0 0 0 0 0 0 0 0 0 0 0 0 0 0 0.0282725 0"/>
<feBlend mode="normal" in2="effect1_dropShadow_0_1823" result="effect2_dropShadow_0_1823"/>
<feColorMatrix in="SourceAlpha" type="matrix" values="0 0 0 0 0 0 0 0 0 0 0 0 0 0 0 0 0 0 127 0" result="hardAlpha"/>
<feOffset dy="4.94004"/>
<feGaussianBlur stdDeviation="1.97602"/>
<feColorMatrix type="matrix" values="0 0 0 0 0 0 0 0 0 0 0 0 0 0 0 0 0 0 0.035 0"/>
<feBlend mode="normal" in2="effect2_dropShadow_0_1823" result="effect3_dropShadow_0_1823"/>
<feBlend mode="normal" in="SourceGraphic" in2="effect3_dropShadow_0_1823" result="shape"/>
</filter>
<filter id="filter1_ddd_0_1823" x="23.048" y="73" width="156.463" height="74.0383" filterUnits="userSpaceOnUse" color-interpolation-filters="sRGB">
<feFlood flood-opacity="0" result="BackgroundImageFix"/>
<feColorMatrix in="SourceAlpha" type="matrix" values="0 0 0 0 0 0 0 0 0 0 0 0 0 0 0 0 0 0 127 0" result="hardAlpha"/>
<feOffset dy="1.09175"/>
<feGaussianBlur stdDeviation="0.436699"/>
<feColorMatrix type="matrix" values="0 0 0 0 0 0 0 0 0 0 0 0 0 0 0 0 0 0 0.0196802 0"/>
<feBlend mode="normal" in2="BackgroundImageFix" result="effect1_dropShadow_0_1823"/>
<feColorMatrix in="SourceAlpha" type="matrix" values="0 0 0 0 0 0 0 0 0 0 0 0 0 0 0 0 0 0 127 0" result="hardAlpha"/>
<feOffset dy="2.62362"/>
<feGaussianBlur stdDeviation="1.04945"/>
<feColorMatrix type="matrix" values="0 0 0 0 0 0 0 0 0 0 0 0 0 0 0 0 0 0 0.0282725 0"/>
<feBlend mode="normal" in2="effect1_dropShadow_0_1823" result="effect2_dropShadow_0_1823"/>
<feColorMatrix in="SourceAlpha" type="matrix" values="0 0 0 0 0 0 0 0 0 0 0 0 0 0 0 0 0 0 127 0" result="hardAlpha"/>
<feOffset dy="4.94004"/>
<feGaussianBlur stdDeviation="1.97602"/>
<feColorMatrix type="matrix" values="0 0 0 0 0 0 0 0 0 0 0 0 0 0 0 0 0 0 0.035 0"/>
<feBlend mode="normal" in2="effect2_dropShadow_0_1823" result="effect3_dropShadow_0_1823"/>
<feBlend mode="normal" in="SourceGraphic" in2="effect3_dropShadow_0_1823" result="shape"/>
</filter>
<clipPath id="clip0_0_1823">
<rect width="23.7695" height="23.7695" fill="white" transform="translate(168.535 127.223)"/>
</clipPath>
</defs>
</svg>
