<svg width="245" height="238" viewBox="0 0 245 238" fill="none" xmlns="http://www.w3.org/2000/svg">
<g filter="url(#filter0_d_0_1791)">
<g clip-path="url(#clip0_0_1791)">
<rect x="40" y="75" width="213" height="87.2671" rx="9.31148" fill="white"/>
<rect width="207.471" height="57.5382" transform="translate(40 75)" fill="white" fill-opacity="0.88"/>
<circle cx="66.266" cy="101.266" r="17.391" fill="#00C008" stroke="#F5F5F6" stroke-width="2.25912"/>
<path d="M64.2999 98.5353C64.2497 98.0899 64.0427 97.7448 63.6788 97.5001C63.3149 97.2523 62.857 97.1284 62.3049 97.1284C61.9096 97.1284 61.5677 97.1911 61.2791 97.3166C60.9905 97.439 60.7662 97.6084 60.6062 97.8248C60.4494 98.0381 60.371 98.2812 60.371 98.5541C60.371 98.7831 60.4243 98.9807 60.5309 99.147C60.6407 99.3133 60.7835 99.4528 60.9591 99.5658C61.1379 99.6756 61.3293 99.7681 61.5332 99.8434C61.7371 99.9155 61.9331 99.9751 62.1214 100.022L63.0624 100.267C63.3698 100.342 63.6851 100.444 64.0082 100.573C64.3313 100.701 64.6309 100.871 64.9069 101.081C65.183 101.291 65.4057 101.551 65.5751 101.862C65.7476 102.173 65.8339 102.544 65.8339 102.977C65.8339 103.523 65.6927 104.008 65.4104 104.431C65.1312 104.855 64.725 105.189 64.1917 105.433C63.6616 105.678 63.0201 105.8 62.2672 105.8C61.5457 105.8 60.9215 105.686 60.3945 105.457C59.8675 105.228 59.455 104.903 59.157 104.483C58.859 104.059 58.6943 103.557 58.6629 102.977H60.1216C60.1498 103.325 60.2627 103.616 60.4604 103.848C60.6611 104.077 60.9168 104.248 61.2273 104.361C61.541 104.47 61.8845 104.525 62.2578 104.525C62.6687 104.525 63.0342 104.461 63.3542 104.332C63.6773 104.201 63.9313 104.019 64.1164 103.786C64.3015 103.551 64.394 103.277 64.394 102.963C64.394 102.678 64.3125 102.444 64.1494 102.262C63.9894 102.08 63.7714 101.929 63.4953 101.81C63.2224 101.691 62.9134 101.586 62.5684 101.495L61.4297 101.184C60.658 100.974 60.0463 100.665 59.5946 100.257C59.146 99.8497 58.9217 99.3101 58.9217 98.6388C58.9217 98.0836 59.0723 97.5989 59.3734 97.1849C59.6746 96.7708 60.0824 96.4493 60.5968 96.2203C61.1113 95.9881 61.6916 95.8721 62.3378 95.8721C62.9903 95.8721 63.5659 95.9866 64.0647 96.2156C64.5666 96.4446 64.9618 96.7598 65.2504 97.1613C65.539 97.5597 65.6896 98.0177 65.7021 98.5353H64.2999ZM67.5713 105.64V96.0038H73.613V97.2555H69.0253V100.192H73.2977V101.439H69.0253V104.389H73.6694V105.64H67.5713Z" fill="white"/>
<g clip-path="url(#clip1_0_1791)">
<path d="M98.8134 91.2742C98.7719 90.886 98.5971 90.5837 98.2889 90.3674C97.9837 90.1511 97.5866 90.0429 97.0977 90.0429C96.7539 90.0429 96.4591 90.0948 96.2131 90.1985C95.9671 90.3022 95.779 90.443 95.6486 90.6208C95.5182 90.7986 95.4515 91.0016 95.4486 91.2297C95.4486 91.4194 95.4915 91.5839 95.5775 91.7231C95.6664 91.8624 95.7864 91.9809 95.9375 92.0787C96.0886 92.1736 96.2561 92.2536 96.4398 92.3188C96.6235 92.384 96.8087 92.4388 96.9954 92.4832L97.8489 92.6966C98.1926 92.7766 98.523 92.8848 98.8401 93.0211C99.1601 93.1574 99.4461 93.3293 99.698 93.5367C99.9528 93.7441 100.154 93.9945 100.302 94.2879C100.451 94.5813 100.525 94.925 100.525 95.3191C100.525 95.8525 100.388 96.3222 100.116 96.7282C99.8432 97.1312 99.4491 97.4468 98.9334 97.675C98.4208 97.9002 97.8 98.0128 97.071 98.0128C96.3627 98.0128 95.7479 97.9032 95.2263 97.6839C94.7077 97.4646 94.3018 97.1445 94.0084 96.7237C93.718 96.303 93.5609 95.7903 93.5372 95.1858H95.1596C95.1833 95.5029 95.2811 95.7666 95.453 95.977C95.6249 96.1874 95.8486 96.3444 96.1242 96.4482C96.4028 96.5519 96.7139 96.6037 97.0576 96.6037C97.4162 96.6037 97.7303 96.5504 98 96.4437C98.2726 96.3341 98.486 96.1829 98.6401 95.9903C98.7942 95.7947 98.8727 95.5666 98.8756 95.3058C98.8727 95.0687 98.803 94.8732 98.6667 94.7191C98.5304 94.562 98.3393 94.4316 98.0933 94.3279C97.8503 94.2212 97.5659 94.1264 97.2399 94.0434L96.2042 93.7767C95.4545 93.5841 94.8618 93.2922 94.4262 92.9011C93.9936 92.5069 93.7772 91.9839 93.7772 91.332C93.7772 90.7956 93.9225 90.3259 94.2129 89.9229C94.5062 89.5199 94.9048 89.2073 95.4086 88.985C95.9123 88.7598 96.4828 88.6472 97.1199 88.6472C97.7659 88.6472 98.3319 88.7598 98.8179 88.985C99.3068 89.2073 99.6906 89.5169 99.9691 89.914C100.248 90.3082 100.391 90.7615 100.4 91.2742H98.8134ZM103.888 98.0128C103.456 98.0128 103.066 97.9357 102.719 97.7817C102.376 97.6246 102.103 97.3935 101.902 97.0882C101.703 96.783 101.604 96.4067 101.604 95.9592C101.604 95.574 101.675 95.2554 101.817 95.0035C101.959 94.7517 102.153 94.5502 102.399 94.399C102.645 94.2479 102.922 94.1338 103.231 94.0568C103.542 93.9767 103.863 93.919 104.195 93.8834C104.595 93.8419 104.92 93.8049 105.169 93.7723C105.418 93.7367 105.598 93.6834 105.711 93.6123C105.826 93.5382 105.884 93.4241 105.884 93.27V93.2433C105.884 92.9085 105.785 92.6492 105.586 92.4655C105.388 92.2817 105.102 92.1899 104.729 92.1899C104.334 92.1899 104.022 92.2758 103.791 92.4477C103.563 92.6195 103.408 92.8225 103.328 93.0566L101.826 92.8433C101.945 92.4284 102.14 92.0817 102.413 91.8031C102.685 91.5216 103.019 91.3112 103.413 91.172C103.807 91.0297 104.243 90.9586 104.72 90.9586C105.049 90.9586 105.376 90.9971 105.702 91.0742C106.028 91.1512 106.326 91.2786 106.595 91.4564C106.865 91.6313 107.081 91.8698 107.244 92.1721C107.41 92.4743 107.493 92.8522 107.493 93.3056V97.875H105.947V96.9371H105.893C105.795 97.1268 105.658 97.3046 105.48 97.4705C105.305 97.6335 105.084 97.7654 104.817 97.8661C104.554 97.9639 104.244 98.0128 103.888 98.0128ZM104.306 96.8304C104.629 96.8304 104.909 96.7667 105.146 96.6393C105.383 96.5089 105.566 96.337 105.693 96.1237C105.824 95.9103 105.889 95.6777 105.889 95.4258V94.6213C105.838 94.6628 105.752 94.7013 105.631 94.7368C105.512 94.7724 105.379 94.8035 105.231 94.8302C105.083 94.8569 104.936 94.8806 104.791 94.9013C104.646 94.922 104.52 94.9398 104.413 94.9546C104.173 94.9872 103.958 95.0406 103.768 95.1147C103.579 95.1887 103.429 95.2925 103.32 95.4258C103.21 95.5562 103.155 95.7251 103.155 95.9325C103.155 96.2289 103.263 96.4526 103.48 96.6037C103.696 96.7549 103.971 96.8304 104.306 96.8304ZM109.111 97.875V91.0475H110.672V92.1854H110.743C110.867 91.7913 111.08 91.4876 111.383 91.2742C111.688 91.0579 112.036 90.9497 112.427 90.9497C112.516 90.9497 112.615 90.9542 112.725 90.963C112.838 90.969 112.931 90.9793 113.005 90.9942V92.4743C112.937 92.4506 112.829 92.4299 112.681 92.4121C112.535 92.3914 112.395 92.381 112.258 92.381C111.965 92.381 111.701 92.4447 111.467 92.5721C111.236 92.6966 111.054 92.8699 110.92 93.0922C110.787 93.3144 110.72 93.5708 110.72 93.8612V97.875H109.111ZM115.917 98.0128C115.484 98.0128 115.094 97.9357 114.748 97.7817C114.404 97.6246 114.131 97.3935 113.93 97.0882C113.731 96.783 113.632 96.4067 113.632 95.9592C113.632 95.574 113.703 95.2554 113.845 95.0035C113.987 94.7517 114.182 94.5502 114.428 94.399C114.673 94.2479 114.951 94.1338 115.259 94.0568C115.57 93.9767 115.891 93.919 116.223 93.8834C116.623 93.8419 116.948 93.8049 117.197 93.7723C117.446 93.7367 117.626 93.6834 117.739 93.6123C117.855 93.5382 117.912 93.4241 117.912 93.27V93.2433C117.912 92.9085 117.813 92.6492 117.615 92.4655C117.416 92.2817 117.13 92.1899 116.757 92.1899C116.363 92.1899 116.05 92.2758 115.819 92.4477C115.591 92.6195 115.437 92.8225 115.357 93.0566L113.854 92.8433C113.973 92.4284 114.168 92.0817 114.441 91.8031C114.714 91.5216 115.047 91.3112 115.441 91.172C115.835 91.0297 116.271 90.9586 116.748 90.9586C117.077 90.9586 117.404 90.9971 117.73 91.0742C118.056 91.1512 118.354 91.2786 118.624 91.4564C118.893 91.6313 119.11 91.8698 119.273 92.1721C119.439 92.4743 119.521 92.8522 119.521 93.3056V97.875H117.975V96.9371H117.921C117.824 97.1268 117.686 97.3046 117.508 97.4705C117.333 97.6335 117.112 97.7654 116.846 97.8661C116.582 97.9639 116.272 98.0128 115.917 98.0128ZM116.334 96.8304C116.657 96.8304 116.937 96.7667 117.175 96.6393C117.412 96.5089 117.594 96.337 117.721 96.1237C117.852 95.9103 117.917 95.6777 117.917 95.4258V94.6213C117.866 94.6628 117.781 94.7013 117.659 94.7368C117.541 94.7724 117.407 94.8035 117.259 94.8302C117.111 94.8569 116.964 94.8806 116.819 94.9013C116.674 94.922 116.548 94.9398 116.441 94.9546C116.201 94.9872 115.986 95.0406 115.797 95.1147C115.607 95.1887 115.457 95.2925 115.348 95.4258C115.238 95.5562 115.183 95.7251 115.183 95.9325C115.183 96.2289 115.291 96.4526 115.508 96.6037C115.724 96.7549 116 96.8304 116.334 96.8304ZM122.749 93.8745V97.875H121.139V88.7717H122.713V92.2076H122.793C122.953 91.8224 123.2 91.5187 123.535 91.2964C123.873 91.0712 124.303 90.9586 124.824 90.9586C125.298 90.9586 125.712 91.0579 126.065 91.2564C126.417 91.455 126.69 91.7454 126.882 92.1276C127.078 92.5099 127.176 92.9766 127.176 93.5278V97.875H125.567V93.7767C125.567 93.3174 125.448 92.9603 125.211 92.7055C124.977 92.4477 124.648 92.3188 124.224 92.3188C123.94 92.3188 123.685 92.381 123.46 92.5055C123.238 92.627 123.063 92.8033 122.935 93.0344C122.811 93.2655 122.749 93.5456 122.749 93.8745ZM131.992 97.875V88.7717H137.913V90.1541H133.641V92.6255H137.606V94.0079H133.641V96.4926H137.948V97.875H131.992ZM142.058 97.995C141.521 97.995 141.041 97.8572 140.617 97.5816C140.194 97.306 139.859 96.906 139.613 96.3815C139.367 95.857 139.244 95.2199 139.244 94.4701C139.244 93.7115 139.368 93.0715 139.617 92.5499C139.869 92.0254 140.208 91.6298 140.635 91.3631C141.062 91.0934 141.538 90.9586 142.062 90.9586C142.462 90.9586 142.791 91.0268 143.049 91.1631C143.307 91.2964 143.511 91.4579 143.662 91.6476C143.813 91.8343 143.93 92.0106 144.013 92.1765H144.08V88.7717H145.694V97.875H144.111V96.7993H144.013C143.93 96.9653 143.81 97.1416 143.653 97.3283C143.496 97.512 143.289 97.669 143.031 97.7994C142.773 97.9298 142.449 97.995 142.058 97.995ZM142.507 96.6749C142.847 96.6749 143.138 96.583 143.378 96.3993C143.618 96.2126 143.8 95.9533 143.924 95.6214C144.049 95.2895 144.111 94.9028 144.111 94.4613C144.111 94.0197 144.049 93.636 143.924 93.31C143.803 92.984 143.622 92.7307 143.382 92.5499C143.145 92.3691 142.853 92.2788 142.507 92.2788C142.148 92.2788 141.849 92.3721 141.609 92.5588C141.369 92.7455 141.188 93.0033 141.066 93.3322C140.945 93.6612 140.884 94.0375 140.884 94.4613C140.884 94.888 140.945 95.2688 141.066 95.6036C141.191 95.9355 141.373 96.1978 141.613 96.3904C141.856 96.58 142.154 96.6749 142.507 96.6749ZM148.817 97.875L146.888 91.0475H148.528L149.729 95.8481H149.791L151.018 91.0475H152.64L153.867 95.8214H153.933L155.116 91.0475H156.76L154.827 97.875H153.151L151.871 93.2611H151.778L150.497 97.875H148.817ZM159.849 98.0128C159.416 98.0128 159.026 97.9357 158.68 97.7817C158.336 97.6246 158.063 97.3935 157.862 97.0882C157.663 96.783 157.564 96.4067 157.564 95.9592C157.564 95.574 157.635 95.2554 157.777 95.0035C157.92 94.7517 158.114 94.5502 158.36 94.399C158.606 94.2479 158.883 94.1338 159.191 94.0568C159.502 93.9767 159.823 93.919 160.155 93.8834C160.555 93.8419 160.88 93.8049 161.129 93.7723C161.378 93.7367 161.558 93.6834 161.671 93.6123C161.787 93.5382 161.844 93.4241 161.844 93.27V93.2433C161.844 92.9085 161.745 92.6492 161.547 92.4655C161.348 92.2817 161.062 92.1899 160.689 92.1899C160.295 92.1899 159.982 92.2758 159.751 92.4477C159.523 92.6195 159.369 92.8225 159.289 93.0566L157.786 92.8433C157.905 92.4284 158.1 92.0817 158.373 91.8031C158.646 91.5216 158.979 91.3112 159.373 91.172C159.767 91.0297 160.203 90.9586 160.68 90.9586C161.009 90.9586 161.336 90.9971 161.662 91.0742C161.988 91.1512 162.286 91.2786 162.556 91.4564C162.825 91.6313 163.042 91.8698 163.205 92.1721C163.371 92.4743 163.454 92.8522 163.454 93.3056V97.875H161.907V96.9371H161.853C161.756 97.1268 161.618 97.3046 161.44 97.4705C161.265 97.6335 161.044 97.7654 160.778 97.8661C160.514 97.9639 160.204 98.0128 159.849 98.0128ZM160.266 96.8304C160.589 96.8304 160.869 96.7667 161.107 96.6393C161.344 96.5089 161.526 96.337 161.653 96.1237C161.784 95.9103 161.849 95.6777 161.849 95.4258V94.6213C161.798 94.6628 161.713 94.7013 161.591 94.7368C161.473 94.7724 161.339 94.8035 161.191 94.8302C161.043 94.8569 160.896 94.8806 160.751 94.9013C160.606 94.922 160.48 94.9398 160.373 94.9546C160.133 94.9872 159.918 95.0406 159.729 95.1147C159.539 95.1887 159.389 95.2925 159.28 95.4258C159.17 95.5562 159.115 95.7251 159.115 95.9325C159.115 96.2289 159.223 96.4526 159.44 96.6037C159.656 96.7549 159.932 96.8304 160.266 96.8304ZM165.071 97.875V91.0475H166.632V92.1854H166.703C166.827 91.7913 167.041 91.4876 167.343 91.2742C167.648 91.0579 167.996 90.9497 168.387 90.9497C168.476 90.9497 168.576 90.9542 168.685 90.963C168.798 90.969 168.891 90.9793 168.965 90.9942V92.4743C168.897 92.4506 168.789 92.4299 168.641 92.4121C168.496 92.3914 168.355 92.381 168.219 92.381C167.925 92.381 167.661 92.4447 167.427 92.5721C167.196 92.6966 167.014 92.8699 166.881 93.0922C166.747 93.3144 166.681 93.5708 166.681 93.8612V97.875H165.071ZM172.287 97.995C171.75 97.995 171.27 97.8572 170.847 97.5816C170.423 97.306 170.088 96.906 169.842 96.3815C169.596 95.857 169.473 95.2199 169.473 94.4701C169.473 93.7115 169.598 93.0715 169.847 92.5499C170.098 92.0254 170.438 91.6298 170.864 91.3631C171.291 91.0934 171.767 90.9586 172.291 90.9586C172.691 90.9586 173.02 91.0268 173.278 91.1631C173.536 91.2964 173.74 91.4579 173.891 91.6476C174.043 91.8343 174.16 92.0106 174.243 92.1765H174.309V88.7717H175.923V97.875H174.34V96.7993H174.243C174.16 96.9653 174.04 97.1416 173.883 97.3283C173.726 97.512 173.518 97.669 173.26 97.7994C173.002 97.9298 172.678 97.995 172.287 97.995ZM172.736 96.6749C173.077 96.6749 173.367 96.583 173.607 96.3993C173.847 96.2126 174.029 95.9533 174.154 95.6214C174.278 95.2895 174.34 94.9028 174.34 94.4613C174.34 94.0197 174.278 93.636 174.154 93.31C174.032 92.984 173.851 92.7307 173.611 92.5499C173.374 92.3691 173.082 92.2788 172.736 92.2788C172.377 92.2788 172.078 92.3721 171.838 92.5588C171.598 92.7455 171.417 93.0033 171.296 93.3322C171.174 93.6612 171.113 94.0375 171.113 94.4613C171.113 94.888 171.174 95.2688 171.296 95.6036C171.42 95.9355 171.602 96.1978 171.842 96.3904C172.085 96.58 172.383 96.6749 172.736 96.6749ZM183.034 92.8522L181.567 93.0122C181.525 92.864 181.453 92.7247 181.349 92.5944C181.248 92.464 181.112 92.3588 180.94 92.2788C180.768 92.1988 180.558 92.1587 180.309 92.1587C179.974 92.1587 179.693 92.2313 179.464 92.3766C179.239 92.5218 179.128 92.7099 179.131 92.9411C179.128 93.1396 179.201 93.3011 179.349 93.4256C179.5 93.55 179.749 93.6523 180.096 93.7323L181.26 93.9812C181.906 94.1205 182.386 94.3412 182.7 94.6435C183.017 94.9458 183.177 95.3414 183.18 95.8303C183.177 96.26 183.051 96.6393 182.803 96.9682C182.557 97.2942 182.214 97.549 181.776 97.7328C181.337 97.9165 180.833 98.0083 180.264 98.0083C179.429 98.0083 178.756 97.8335 178.246 97.4838C177.737 97.1312 177.433 96.6408 177.335 96.0126L178.904 95.8614C178.975 96.1696 179.127 96.4022 179.358 96.5593C179.589 96.7163 179.89 96.7949 180.26 96.7949C180.642 96.7949 180.949 96.7163 181.18 96.5593C181.414 96.4022 181.531 96.2081 181.531 95.977C181.531 95.7814 181.456 95.6199 181.305 95.4925C181.156 95.3651 180.925 95.2673 180.611 95.1991L179.447 94.9546C178.792 94.8183 178.307 94.5887 177.993 94.2657C177.679 93.9397 177.523 93.5278 177.526 93.03C177.523 92.6092 177.637 92.2447 177.869 91.9365C178.103 91.6254 178.427 91.3853 178.842 91.2164C179.26 91.0445 179.741 90.9586 180.287 90.9586C181.087 90.9586 181.716 91.129 182.176 91.4698C182.638 91.8106 182.924 92.2714 183.034 92.8522Z" fill="#292831"/>
<path d="M97.9784 112.005C97.9428 111.673 97.793 111.413 97.5288 111.228C97.2672 111.043 96.9268 110.95 96.5077 110.95C96.2131 110.95 95.9604 110.994 95.7496 111.083C95.5387 111.172 95.3774 111.293 95.2657 111.445C95.1539 111.598 95.0968 111.772 95.0942 111.967C95.0942 112.13 95.1311 112.271 95.2047 112.39C95.2809 112.509 95.3838 112.611 95.5133 112.695C95.6429 112.776 95.7864 112.845 95.9439 112.901C96.1013 112.956 96.2601 113.003 96.4201 113.042L97.1516 113.224C97.4463 113.293 97.7295 113.386 98.0013 113.503C98.2756 113.619 98.5207 113.767 98.7366 113.945C98.955 114.122 99.1277 114.337 99.2547 114.588C99.3817 114.84 99.4452 115.135 99.4452 115.472C99.4452 115.93 99.3284 116.332 99.0947 116.68C98.861 117.026 98.5232 117.296 98.0813 117.492C97.6418 117.685 97.1097 117.781 96.4849 117.781C95.8778 117.781 95.3508 117.687 94.9037 117.499C94.4592 117.311 94.1113 117.037 93.8598 116.676C93.6109 116.316 93.4763 115.876 93.4559 115.358H94.8466C94.8669 115.63 94.9507 115.856 95.098 116.036C95.2454 116.217 95.4371 116.351 95.6734 116.44C95.9121 116.529 96.1788 116.573 96.4735 116.573C96.7808 116.573 97.05 116.528 97.2812 116.436C97.5148 116.342 97.6977 116.213 97.8298 116.048C97.9619 115.88 98.0292 115.684 98.0317 115.461C98.0292 115.258 97.9695 115.09 97.8527 114.958C97.7358 114.823 97.572 114.712 97.3612 114.623C97.1529 114.531 96.9091 114.45 96.6297 114.379L95.7419 114.15C95.0993 113.985 94.5913 113.735 94.2179 113.4C93.8471 113.062 93.6617 112.614 93.6617 112.055C93.6617 111.595 93.7861 111.192 94.0351 110.847C94.2865 110.502 94.6281 110.234 95.0599 110.043C95.4917 109.85 95.9807 109.754 96.5268 109.754C97.0805 109.754 97.5656 109.85 97.9822 110.043C98.4013 110.234 98.7302 110.499 98.969 110.839C99.2078 111.177 99.3309 111.566 99.3386 112.005H97.9784ZM102.328 117.781C101.958 117.781 101.624 117.715 101.326 117.583C101.032 117.448 100.798 117.25 100.625 116.989C100.455 116.727 100.37 116.405 100.37 116.021C100.37 115.691 100.431 115.418 100.553 115.202C100.675 114.986 100.841 114.813 101.052 114.684C101.263 114.554 101.5 114.456 101.765 114.39C102.031 114.322 102.307 114.272 102.591 114.242C102.934 114.206 103.212 114.174 103.426 114.146C103.639 114.116 103.794 114.07 103.891 114.009C103.99 113.946 104.039 113.848 104.039 113.716V113.693C104.039 113.406 103.954 113.184 103.784 113.026C103.614 112.869 103.369 112.79 103.049 112.79C102.711 112.79 102.443 112.864 102.245 113.011C102.049 113.158 101.917 113.332 101.848 113.533L100.561 113.35C100.662 112.995 100.83 112.697 101.064 112.459C101.297 112.217 101.583 112.037 101.921 111.918C102.259 111.796 102.632 111.735 103.041 111.735C103.323 111.735 103.604 111.768 103.883 111.834C104.162 111.9 104.418 112.009 104.649 112.161C104.88 112.311 105.065 112.516 105.205 112.775C105.347 113.034 105.418 113.358 105.418 113.746V117.663H104.092V116.859H104.047C103.963 117.022 103.845 117.174 103.692 117.316C103.543 117.456 103.353 117.569 103.125 117.655C102.899 117.739 102.633 117.781 102.328 117.781ZM102.687 116.768C102.963 116.768 103.203 116.713 103.407 116.604C103.61 116.492 103.766 116.345 103.875 116.162C103.987 115.979 104.043 115.78 104.043 115.564V114.874C104 114.91 103.926 114.943 103.822 114.973C103.72 115.004 103.606 115.03 103.479 115.053C103.352 115.076 103.226 115.096 103.102 115.114C102.977 115.132 102.869 115.147 102.778 115.16C102.572 115.188 102.388 115.234 102.226 115.297C102.063 115.361 101.935 115.449 101.841 115.564C101.747 115.676 101.7 115.82 101.7 115.998C101.7 116.252 101.793 116.444 101.978 116.573C102.163 116.703 102.4 116.768 102.687 116.768ZM106.805 117.663V111.811H108.142V112.786H108.203C108.31 112.448 108.493 112.188 108.752 112.005C109.014 111.82 109.312 111.727 109.647 111.727C109.724 111.727 109.809 111.731 109.903 111.739C109.999 111.744 110.079 111.753 110.143 111.765V113.034C110.084 113.014 109.992 112.996 109.865 112.981C109.74 112.963 109.619 112.954 109.503 112.954C109.251 112.954 109.025 113.009 108.824 113.118C108.626 113.224 108.47 113.373 108.356 113.564C108.242 113.754 108.184 113.974 108.184 114.223V117.663H106.805ZM112.638 117.781C112.267 117.781 111.933 117.715 111.636 117.583C111.342 117.448 111.108 117.25 110.935 116.989C110.765 116.727 110.68 116.405 110.68 116.021C110.68 115.691 110.741 115.418 110.863 115.202C110.985 114.986 111.151 114.813 111.362 114.684C111.573 114.554 111.81 114.456 112.074 114.39C112.341 114.322 112.617 114.272 112.901 114.242C113.244 114.206 113.522 114.174 113.736 114.146C113.949 114.116 114.104 114.07 114.2 114.009C114.299 113.946 114.349 113.848 114.349 113.716V113.693C114.349 113.406 114.264 113.184 114.094 113.026C113.924 112.869 113.678 112.79 113.358 112.79C113.021 112.79 112.753 112.864 112.554 113.011C112.359 113.158 112.227 113.332 112.158 113.533L110.87 113.35C110.972 112.995 111.14 112.697 111.373 112.459C111.607 112.217 111.893 112.037 112.231 111.918C112.568 111.796 112.942 111.735 113.351 111.735C113.633 111.735 113.913 111.768 114.193 111.834C114.472 111.9 114.727 112.009 114.959 112.161C115.19 112.311 115.375 112.516 115.515 112.775C115.657 113.034 115.728 113.358 115.728 113.746V117.663H114.402V116.859H114.357C114.273 117.022 114.155 117.174 114.002 117.316C113.852 117.456 113.663 117.569 113.435 117.655C113.209 117.739 112.943 117.781 112.638 117.781ZM112.996 116.768C113.273 116.768 113.513 116.713 113.717 116.604C113.92 116.492 114.076 116.345 114.185 116.162C114.297 115.979 114.353 115.78 114.353 115.564V114.874C114.31 114.91 114.236 114.943 114.132 114.973C114.03 115.004 113.916 115.03 113.789 115.053C113.662 115.076 113.536 115.096 113.412 115.114C113.287 115.132 113.179 115.147 113.088 115.16C112.882 115.188 112.698 115.234 112.535 115.297C112.373 115.361 112.245 115.449 112.151 115.564C112.057 115.676 112.01 115.82 112.01 115.998C112.01 116.252 112.102 116.444 112.288 116.573C112.473 116.703 112.709 116.768 112.996 116.768ZM118.494 114.234V117.663H117.115V109.86H118.464V112.805H118.532C118.669 112.475 118.882 112.215 119.169 112.024C119.458 111.831 119.826 111.735 120.273 111.735C120.68 111.735 121.034 111.82 121.336 111.99C121.639 112.16 121.872 112.409 122.038 112.737C122.205 113.064 122.289 113.464 122.289 113.937V117.663H120.91V114.15C120.91 113.757 120.808 113.451 120.605 113.232C120.404 113.011 120.122 112.901 119.759 112.901C119.515 112.901 119.297 112.954 119.104 113.061C118.913 113.165 118.763 113.316 118.654 113.514C118.548 113.712 118.494 113.952 118.494 114.234ZM124.544 117.747C124.313 117.747 124.115 117.666 123.95 117.503C123.785 117.341 123.704 117.142 123.706 116.909C123.704 116.68 123.785 116.485 123.95 116.322C124.115 116.159 124.313 116.078 124.544 116.078C124.768 116.078 124.962 116.159 125.127 116.322C125.295 116.485 125.38 116.68 125.383 116.909C125.38 117.064 125.34 117.205 125.261 117.332C125.185 117.459 125.083 117.56 124.956 117.636C124.832 117.71 124.694 117.747 124.544 117.747ZM124.544 113.571C124.313 113.571 124.115 113.49 123.95 113.327C123.785 113.162 123.704 112.964 123.706 112.733C123.704 112.504 123.785 112.309 123.95 112.146C124.115 111.981 124.313 111.899 124.544 111.899C124.768 111.899 124.962 111.981 125.127 112.146C125.295 112.309 125.38 112.504 125.383 112.733C125.38 112.885 125.34 113.025 125.261 113.152C125.185 113.279 125.083 113.381 124.956 113.457C124.832 113.533 124.694 113.571 124.544 113.571ZM133.793 111.811C133.748 111.425 133.562 111.125 133.237 110.912C132.912 110.698 132.513 110.592 132.041 110.592C131.695 110.592 131.393 110.648 131.134 110.759C130.877 110.871 130.677 111.025 130.532 111.22C130.39 111.416 130.319 111.638 130.319 111.887C130.319 112.095 130.368 112.274 130.467 112.424C130.569 112.572 130.698 112.695 130.856 112.794C131.013 112.89 131.178 112.97 131.351 113.034C131.524 113.095 131.682 113.144 131.827 113.183L132.62 113.396C132.823 113.449 133.049 113.523 133.298 113.617C133.549 113.711 133.789 113.839 134.018 114.002C134.249 114.162 134.44 114.367 134.59 114.619C134.739 114.87 134.814 115.179 134.814 115.545C134.814 115.966 134.704 116.347 134.483 116.688C134.264 117.028 133.944 117.299 133.523 117.499C133.104 117.7 132.594 117.8 131.995 117.8C131.436 117.8 130.952 117.71 130.543 117.53C130.137 117.349 129.817 117.098 129.583 116.775C129.352 116.453 129.221 116.078 129.191 115.651H130.166C130.192 115.946 130.291 116.19 130.463 116.383C130.639 116.573 130.86 116.716 131.126 116.81C131.395 116.901 131.685 116.947 131.995 116.947C132.356 116.947 132.679 116.888 132.966 116.772C133.253 116.652 133.481 116.487 133.648 116.276C133.816 116.063 133.9 115.814 133.9 115.529C133.9 115.27 133.828 115.06 133.683 114.897C133.538 114.734 133.347 114.602 133.111 114.501C132.875 114.399 132.62 114.31 132.345 114.234L131.385 113.96C130.776 113.785 130.293 113.534 129.938 113.209C129.582 112.884 129.404 112.459 129.404 111.933C129.404 111.496 129.522 111.115 129.758 110.79C129.997 110.462 130.317 110.208 130.719 110.028C131.122 109.845 131.573 109.754 132.071 109.754C132.574 109.754 133.021 109.844 133.412 110.024C133.803 110.202 134.113 110.446 134.342 110.756C134.573 111.065 134.695 111.417 134.708 111.811H133.793ZM138.791 111.811V112.573H135.758V111.811H138.791ZM136.642 110.409H137.541V115.987C137.541 116.241 137.578 116.431 137.652 116.558C137.728 116.683 137.825 116.766 137.941 116.81C138.061 116.85 138.186 116.871 138.319 116.871C138.418 116.871 138.499 116.866 138.562 116.855C138.626 116.843 138.677 116.833 138.715 116.825L138.898 117.633C138.837 117.655 138.752 117.678 138.642 117.701C138.533 117.727 138.395 117.739 138.227 117.739C137.973 117.739 137.724 117.685 137.48 117.575C137.239 117.466 137.038 117.3 136.878 117.076C136.721 116.853 136.642 116.571 136.642 116.231V110.409ZM140.144 117.663V111.811H141.043V117.663H140.144ZM140.601 110.836C140.425 110.836 140.274 110.776 140.147 110.657C140.023 110.537 139.961 110.394 139.961 110.226C139.961 110.058 140.023 109.915 140.147 109.795C140.274 109.676 140.425 109.616 140.601 109.616C140.776 109.616 140.926 109.676 141.05 109.795C141.177 109.915 141.241 110.058 141.241 110.226C141.241 110.394 141.177 110.537 141.05 110.657C140.926 110.776 140.776 110.836 140.601 110.836ZM143.589 109.86V117.663H142.69V109.86H143.589ZM146.135 109.86V117.663H145.236V109.86H146.135ZM153.177 117.785C152.648 117.785 152.185 117.659 151.786 117.408C151.39 117.156 151.08 116.805 150.856 116.352C150.635 115.9 150.525 115.372 150.525 114.767C150.525 114.158 150.635 113.626 150.856 113.171C151.08 112.716 151.39 112.363 151.786 112.112C152.185 111.86 152.648 111.735 153.177 111.735C153.705 111.735 154.167 111.86 154.563 112.112C154.962 112.363 155.272 112.716 155.493 113.171C155.717 113.626 155.828 114.158 155.828 114.767C155.828 115.372 155.717 115.9 155.493 116.352C155.272 116.805 154.962 117.156 154.563 117.408C154.167 117.659 153.705 117.785 153.177 117.785ZM153.177 116.977C153.578 116.977 153.908 116.874 154.167 116.669C154.426 116.463 154.618 116.192 154.742 115.857C154.867 115.522 154.929 115.159 154.929 114.767C154.929 114.376 154.867 114.012 154.742 113.674C154.618 113.336 154.426 113.063 154.167 112.855C153.908 112.647 153.578 112.542 153.177 112.542C152.775 112.542 152.445 112.647 152.186 112.855C151.927 113.063 151.735 113.336 151.611 113.674C151.486 114.012 151.424 114.376 151.424 114.767C151.424 115.159 151.486 115.522 151.611 115.857C151.735 116.192 151.927 116.463 152.186 116.669C152.445 116.874 152.775 116.977 153.177 116.977ZM158.1 114.143V117.663H157.201V111.811H158.07V112.725H158.146C158.283 112.428 158.491 112.189 158.771 112.009C159.05 111.826 159.411 111.735 159.853 111.735C160.249 111.735 160.596 111.816 160.893 111.979C161.19 112.139 161.421 112.382 161.586 112.71C161.751 113.035 161.834 113.447 161.834 113.945V117.663H160.935V114.005C160.935 113.546 160.815 113.188 160.576 112.931C160.338 112.672 160.01 112.542 159.594 112.542C159.306 112.542 159.05 112.605 158.824 112.729C158.6 112.854 158.424 113.035 158.294 113.274C158.165 113.513 158.1 113.802 158.1 114.143ZM169.1 111.811V112.573H165.946V111.811H169.1ZM166.891 117.663V111.003C166.891 110.668 166.969 110.389 167.127 110.165C167.284 109.942 167.489 109.774 167.74 109.662C167.992 109.55 168.257 109.494 168.537 109.494C168.757 109.494 168.938 109.512 169.078 109.548C169.217 109.583 169.321 109.616 169.39 109.647L169.131 110.424C169.085 110.409 169.022 110.39 168.94 110.367C168.862 110.344 168.757 110.333 168.628 110.333C168.331 110.333 168.116 110.408 167.984 110.557C167.855 110.707 167.79 110.927 167.79 111.217V117.663H166.891ZM172.497 117.785C171.969 117.785 171.505 117.659 171.106 117.408C170.71 117.156 170.4 116.805 170.177 116.352C169.956 115.9 169.845 115.372 169.845 114.767C169.845 114.158 169.956 113.626 170.177 113.171C170.4 112.716 170.71 112.363 171.106 112.112C171.505 111.86 171.969 111.735 172.497 111.735C173.025 111.735 173.488 111.86 173.884 112.112C174.283 112.363 174.592 112.716 174.813 113.171C175.037 113.626 175.149 114.158 175.149 114.767C175.149 115.372 175.037 115.9 174.813 116.352C174.592 116.805 174.283 117.156 173.884 117.408C173.488 117.659 173.025 117.785 172.497 117.785ZM172.497 116.977C172.898 116.977 173.229 116.874 173.488 116.669C173.747 116.463 173.938 116.192 174.063 115.857C174.187 115.522 174.25 115.159 174.25 114.767C174.25 114.376 174.187 114.012 174.063 113.674C173.938 113.336 173.747 113.063 173.488 112.855C173.229 112.647 172.898 112.542 172.497 112.542C172.096 112.542 171.765 112.647 171.506 112.855C171.247 113.063 171.056 113.336 170.931 113.674C170.807 114.012 170.744 114.376 170.744 114.767C170.744 115.159 170.807 115.522 170.931 115.857C171.056 116.192 171.247 116.463 171.506 116.669C171.765 116.874 172.096 116.977 172.497 116.977ZM176.521 117.663V111.811H177.39V112.695H177.451C177.558 112.405 177.751 112.17 178.03 111.99C178.309 111.81 178.624 111.72 178.975 111.72C179.041 111.72 179.124 111.721 179.223 111.723C179.322 111.726 179.397 111.73 179.447 111.735V112.649C179.417 112.642 179.347 112.63 179.238 112.615C179.131 112.597 179.018 112.588 178.899 112.588C178.614 112.588 178.36 112.648 178.137 112.767C177.916 112.884 177.74 113.047 177.611 113.255C177.484 113.461 177.42 113.696 177.42 113.96V117.663H176.521ZM185.741 117.785C185.253 117.785 184.822 117.662 184.449 117.415C184.076 117.167 183.783 116.816 183.573 116.364C183.362 115.909 183.256 115.372 183.256 114.752C183.256 114.138 183.362 113.604 183.573 113.152C183.783 112.7 184.077 112.351 184.453 112.104C184.829 111.858 185.263 111.735 185.756 111.735C186.137 111.735 186.438 111.798 186.659 111.925C186.882 112.05 187.052 112.192 187.169 112.352C187.289 112.509 187.381 112.639 187.447 112.741H187.524V109.86H188.423V117.663H187.554V116.764H187.447C187.381 116.871 187.287 117.005 187.165 117.168C187.044 117.328 186.87 117.471 186.643 117.598C186.417 117.723 186.116 117.785 185.741 117.785ZM185.862 116.977C186.223 116.977 186.528 116.883 186.777 116.695C187.026 116.505 187.215 116.242 187.345 115.907C187.474 115.569 187.539 115.179 187.539 114.737C187.539 114.3 187.475 113.918 187.348 113.59C187.221 113.26 187.033 113.003 186.784 112.821C186.536 112.635 186.228 112.542 185.862 112.542C185.481 112.542 185.164 112.64 184.91 112.836C184.658 113.029 184.469 113.292 184.342 113.624C184.218 113.955 184.156 114.326 184.156 114.737C184.156 115.154 184.219 115.532 184.346 115.872C184.476 116.21 184.666 116.479 184.918 116.68C185.172 116.878 185.487 116.977 185.862 116.977ZM190.194 117.663V111.811H191.094V117.663H190.194ZM190.652 110.836C190.476 110.836 190.325 110.776 190.198 110.657C190.074 110.537 190.012 110.394 190.012 110.226C190.012 110.058 190.074 109.915 190.198 109.795C190.325 109.676 190.476 109.616 190.652 109.616C190.827 109.616 190.977 109.676 191.101 109.795C191.228 109.915 191.292 110.058 191.292 110.226C191.292 110.394 191.228 110.537 191.101 110.657C190.977 110.776 190.827 110.836 190.652 110.836ZM193.64 114.143V117.663H192.74V111.811H193.609V112.725H193.685C193.822 112.428 194.031 112.189 194.31 112.009C194.59 111.826 194.95 111.735 195.392 111.735C195.788 111.735 196.135 111.816 196.432 111.979C196.729 112.139 196.961 112.382 197.126 112.71C197.291 113.035 197.373 113.447 197.373 113.945V117.663H196.474V114.005C196.474 113.546 196.355 113.188 196.116 112.931C195.877 112.672 195.55 112.542 195.133 112.542C194.846 112.542 194.59 112.605 194.363 112.729C194.14 112.854 193.963 113.035 193.834 113.274C193.704 113.513 193.64 113.802 193.64 114.143ZM199.916 114.143V117.663H199.016V111.811H199.885V112.725H199.961C200.098 112.428 200.307 112.189 200.586 112.009C200.866 111.826 201.226 111.735 201.668 111.735C202.064 111.735 202.411 111.816 202.708 111.979C203.005 112.139 203.237 112.382 203.402 112.71C203.567 113.035 203.649 113.447 203.649 113.945V117.663H202.75V114.005C202.75 113.546 202.631 113.188 202.392 112.931C202.153 112.672 201.826 112.542 201.409 112.542C201.122 112.542 200.866 112.605 200.639 112.729C200.416 112.854 200.239 113.035 200.11 113.274C199.98 113.513 199.916 113.802 199.916 114.143ZM207.746 117.785C207.182 117.785 206.696 117.661 206.287 117.412C205.88 117.16 205.567 116.81 205.346 116.36C205.127 115.908 205.018 115.382 205.018 114.783C205.018 114.183 205.127 113.655 205.346 113.198C205.567 112.738 205.874 112.38 206.268 112.123C206.664 111.864 207.126 111.735 207.655 111.735C207.959 111.735 208.26 111.786 208.558 111.887C208.855 111.989 209.125 112.154 209.369 112.382C209.613 112.609 209.807 112.908 209.952 113.282C210.097 113.655 210.169 114.115 210.169 114.661V115.042H205.658V114.265H209.255C209.255 113.934 209.189 113.64 209.057 113.381C208.927 113.122 208.742 112.917 208.5 112.767C208.262 112.617 207.98 112.542 207.655 112.542C207.296 112.542 206.987 112.631 206.725 112.809C206.466 112.984 206.267 113.213 206.127 113.495C205.987 113.777 205.917 114.079 205.917 114.402V114.92C205.917 115.362 205.993 115.737 206.146 116.044C206.301 116.349 206.515 116.581 206.79 116.741C207.064 116.899 207.383 116.977 207.746 116.977C207.982 116.977 208.196 116.944 208.386 116.878C208.579 116.81 208.746 116.708 208.885 116.573C209.025 116.436 209.133 116.266 209.209 116.063L210.078 116.307C209.986 116.601 209.833 116.86 209.617 117.084C209.401 117.305 209.134 117.478 208.817 117.602C208.499 117.724 208.142 117.785 207.746 117.785ZM211.537 117.663V111.811H212.406V112.695H212.467C212.573 112.405 212.766 112.17 213.046 111.99C213.325 111.81 213.64 111.72 213.991 111.72C214.057 111.72 214.139 111.721 214.238 111.723C214.337 111.726 214.412 111.73 214.463 111.735V112.649C214.433 112.642 214.363 112.63 214.254 112.615C214.147 112.597 214.034 112.588 213.914 112.588C213.63 112.588 213.376 112.648 213.152 112.767C212.931 112.884 212.756 113.047 212.627 113.255C212.5 113.461 212.436 113.696 212.436 113.96V117.663H211.537ZM216.702 115.469V115.423C216.707 114.938 216.758 114.552 216.855 114.265C216.951 113.978 217.088 113.745 217.266 113.567C217.444 113.39 217.657 113.226 217.906 113.076C218.056 112.984 218.191 112.876 218.31 112.752C218.43 112.625 218.524 112.479 218.592 112.314C218.663 112.149 218.699 111.966 218.699 111.765C218.699 111.516 218.64 111.3 218.524 111.118C218.407 110.935 218.251 110.794 218.055 110.695C217.859 110.596 217.642 110.546 217.403 110.546C217.195 110.546 216.994 110.589 216.801 110.676C216.608 110.762 216.447 110.898 216.318 111.083C216.188 111.269 216.113 111.511 216.093 111.811H215.133C215.153 111.379 215.265 111.01 215.468 110.702C215.674 110.395 215.944 110.16 216.279 109.997C216.617 109.835 216.992 109.754 217.403 109.754C217.85 109.754 218.239 109.842 218.569 110.02C218.902 110.198 219.159 110.442 219.339 110.752C219.522 111.062 219.613 111.415 219.613 111.811C219.613 112.09 219.57 112.343 219.484 112.569C219.4 112.795 219.278 112.997 219.118 113.175C218.96 113.353 218.77 113.51 218.546 113.647C218.323 113.787 218.144 113.934 218.009 114.089C217.875 114.242 217.777 114.423 217.716 114.634C217.655 114.845 217.622 115.108 217.617 115.423V115.469H216.702ZM217.19 117.724C217.002 117.724 216.841 117.657 216.706 117.522C216.572 117.387 216.504 117.226 216.504 117.038C216.504 116.85 216.572 116.689 216.706 116.554C216.841 116.42 217.002 116.352 217.19 116.352C217.378 116.352 217.539 116.42 217.674 116.554C217.809 116.689 217.876 116.85 217.876 117.038C217.876 117.163 217.844 117.277 217.781 117.381C217.72 117.485 217.637 117.569 217.533 117.633C217.431 117.694 217.317 117.724 217.19 117.724ZM225.051 109.86V117.663H224.106V109.86H225.051ZM227.479 117.724C227.291 117.724 227.13 117.657 226.995 117.522C226.86 117.387 226.793 117.226 226.793 117.038C226.793 116.85 226.86 116.689 226.995 116.554C227.13 116.42 227.291 116.352 227.479 116.352C227.667 116.352 227.828 116.42 227.963 116.554C228.097 116.689 228.165 116.85 228.165 117.038C228.165 117.163 228.133 117.277 228.069 117.381C228.009 117.485 227.926 117.569 227.822 117.633C227.72 117.694 227.606 117.724 227.479 117.724ZM230.434 117.724C230.246 117.724 230.084 117.657 229.95 117.522C229.815 117.387 229.748 117.226 229.748 117.038C229.748 116.85 229.815 116.689 229.95 116.554C230.084 116.42 230.246 116.352 230.434 116.352C230.622 116.352 230.783 116.42 230.917 116.554C231.052 116.689 231.119 116.85 231.119 117.038C231.119 117.163 231.088 117.277 231.024 117.381C230.963 117.485 230.881 117.569 230.776 117.633C230.675 117.694 230.561 117.724 230.434 117.724ZM233.388 117.724C233.2 117.724 233.039 117.657 232.904 117.522C232.77 117.387 232.702 117.226 232.702 117.038C232.702 116.85 232.77 116.689 232.904 116.554C233.039 116.42 233.2 116.352 233.388 116.352C233.576 116.352 233.737 116.42 233.872 116.554C234.007 116.689 234.074 116.85 234.074 117.038C234.074 117.163 234.042 117.277 233.979 117.381C233.918 117.485 233.835 117.569 233.731 117.633C233.63 117.694 233.515 117.724 233.388 117.724Z" fill="#76767C"/>
</g>
<g filter="url(#filter1_b_0_1791)">
<rect width="213" height="29.7289" transform="translate(40 132.538)" fill="#FCFCFC"/>
<path d="M77.634 150.903V143.1H80.4153C81.0199 143.1 81.5215 143.204 81.9203 143.412C82.3216 143.62 82.6213 143.909 82.8194 144.277C83.0176 144.643 83.1166 145.066 83.1166 145.546C83.1166 146.023 83.0163 146.444 82.8156 146.807C82.6175 147.168 82.3178 147.448 81.9165 147.649C81.5177 147.85 81.016 147.95 80.4115 147.95H78.3046V146.936H80.3048C80.6858 146.936 80.9957 146.882 81.2345 146.773C81.4758 146.663 81.6523 146.505 81.7641 146.296C81.8758 146.088 81.9317 145.838 81.9317 145.546C81.9317 145.251 81.8746 144.996 81.7603 144.78C81.6485 144.564 81.472 144.399 81.2307 144.285C80.9919 144.168 80.6782 144.109 80.2896 144.109H78.8113V150.903H77.634ZM81.4859 147.382L83.4138 150.903H82.0727L80.1829 147.382H81.4859ZM86.9066 151.021C86.33 151.021 85.8335 150.898 85.4169 150.651C85.0029 150.402 84.6828 150.053 84.4568 149.603C84.2333 149.151 84.1215 148.622 84.1215 148.015C84.1215 147.415 84.2333 146.887 84.4568 146.43C84.6828 145.972 84.9978 145.616 85.4017 145.359C85.8081 145.103 86.283 144.974 86.8266 144.974C87.1568 144.974 87.4768 145.029 87.7867 145.138C88.0966 145.247 88.3747 145.419 88.6211 145.652C88.8675 145.886 89.0618 146.19 89.204 146.563C89.3463 146.934 89.4174 147.385 89.4174 147.916V148.319H84.7654V147.466H88.3011C88.3011 147.166 88.2401 146.901 88.1182 146.67C87.9963 146.436 87.8248 146.252 87.6038 146.117C87.3854 145.983 87.1289 145.915 86.8342 145.915C86.5142 145.915 86.2348 145.994 85.996 146.152C85.7598 146.306 85.5769 146.51 85.4474 146.761C85.3204 147.01 85.2569 147.281 85.2569 147.573V148.239C85.2569 148.631 85.3255 148.963 85.4626 149.238C85.6023 149.512 85.7966 149.721 86.0455 149.866C86.2945 150.009 86.5853 150.08 86.918 150.08C87.1339 150.08 87.3308 150.049 87.5086 149.988C87.6864 149.925 87.8401 149.831 87.9696 149.706C88.0991 149.582 88.1982 149.428 88.2668 149.245L89.345 149.44C89.2586 149.757 89.1037 150.035 88.8802 150.274C88.6592 150.51 88.3811 150.694 88.0458 150.826C87.7131 150.956 87.3333 151.021 86.9066 151.021ZM90.6814 153.097V145.05H91.7939V145.999H91.8891C91.9552 145.877 92.0504 145.736 92.1749 145.576C92.2993 145.416 92.472 145.277 92.693 145.157C92.914 145.035 93.2061 144.974 93.5693 144.974C94.0418 144.974 94.4634 145.094 94.8342 145.332C95.2051 145.571 95.4959 145.915 95.7067 146.365C95.9201 146.814 96.0268 147.355 96.0268 147.988C96.0268 148.62 95.9214 149.163 95.7105 149.615C95.4997 150.064 95.2102 150.411 94.8419 150.655C94.4736 150.896 94.0532 151.017 93.5808 151.017C93.2252 151.017 92.9343 150.957 92.7083 150.838C92.4847 150.718 92.3095 150.579 92.1825 150.419C92.0555 150.259 91.9577 150.116 91.8891 149.992H91.8205V153.097H90.6814ZM91.7977 147.977C91.7977 148.388 91.8574 148.749 91.9767 149.059C92.0961 149.368 92.2688 149.611 92.4949 149.786C92.721 149.959 92.9978 150.045 93.3255 150.045C93.6658 150.045 93.9503 149.955 94.1789 149.775C94.4075 149.592 94.5802 149.344 94.6971 149.032C94.8165 148.719 94.8761 148.368 94.8761 147.977C94.8761 147.59 94.8177 147.244 94.7009 146.936C94.5866 146.629 94.4139 146.386 94.1827 146.209C93.9541 146.031 93.6684 145.942 93.3255 145.942C92.9953 145.942 92.7159 146.027 92.4873 146.197C92.2612 146.367 92.0898 146.605 91.9729 146.91C91.8561 147.215 91.7977 147.57 91.7977 147.977ZM98.4423 143.1V150.903H97.3031V143.1H98.4423ZM100.695 153.097C100.525 153.097 100.37 153.083 100.23 153.055C100.09 153.03 99.9863 153.002 99.9177 152.971L100.192 152.038C100.4 152.094 100.586 152.118 100.748 152.11C100.911 152.103 101.054 152.042 101.179 151.927C101.306 151.813 101.418 151.626 101.514 151.367L101.655 150.979L99.5139 145.05H100.733L102.215 149.592H102.276L103.758 145.05H104.981L102.569 151.684C102.458 151.988 102.315 152.246 102.143 152.457C101.97 152.67 101.764 152.83 101.526 152.937C101.287 153.044 101.01 153.097 100.695 153.097Z" fill="#0073E6"/>
<line opacity="0.2" x1="142.516" y1="135.623" x2="142.516" y2="159.182" stroke="#76767C" stroke-width="0.906121"/>
<path d="M164.888 143.1H166.317L168.801 149.165H168.892L171.376 143.1H172.805V150.903H171.685V145.256H171.613L169.311 150.891H168.382L166.081 145.252H166.008V150.903H164.888V143.1ZM176.128 151.032C175.758 151.032 175.422 150.964 175.123 150.826C174.823 150.687 174.585 150.485 174.41 150.221C174.237 149.956 174.151 149.633 174.151 149.249C174.151 148.919 174.215 148.647 174.342 148.434C174.469 148.22 174.64 148.051 174.856 147.927C175.072 147.803 175.313 147.709 175.58 147.645C175.846 147.582 176.118 147.533 176.395 147.5C176.746 147.46 177.03 147.427 177.249 147.401C177.467 147.373 177.626 147.329 177.725 147.268C177.824 147.207 177.873 147.108 177.873 146.971V146.944C177.873 146.611 177.779 146.353 177.591 146.171C177.406 145.988 177.129 145.896 176.761 145.896C176.377 145.896 176.075 145.981 175.854 146.152C175.636 146.319 175.485 146.506 175.401 146.712L174.33 146.468C174.457 146.112 174.643 145.825 174.886 145.607C175.133 145.386 175.416 145.226 175.736 145.127C176.056 145.025 176.393 144.974 176.746 144.974C176.979 144.974 177.227 145.002 177.489 145.058C177.753 145.111 177.999 145.21 178.228 145.355C178.459 145.5 178.648 145.707 178.795 145.976C178.943 146.243 179.016 146.59 179.016 147.016V150.903H177.904V150.102H177.858C177.785 150.25 177.674 150.395 177.527 150.537C177.379 150.679 177.19 150.797 176.959 150.891C176.728 150.985 176.451 151.032 176.128 151.032ZM176.376 150.118C176.691 150.118 176.96 150.056 177.184 149.931C177.41 149.807 177.581 149.644 177.698 149.443C177.818 149.24 177.877 149.023 177.877 148.792V148.037C177.837 148.078 177.758 148.116 177.641 148.152C177.527 148.185 177.396 148.214 177.249 148.239C177.101 148.262 176.958 148.284 176.818 148.304C176.678 148.322 176.561 148.337 176.468 148.35C176.247 148.378 176.045 148.425 175.862 148.491C175.681 148.557 175.537 148.652 175.427 148.777C175.321 148.899 175.267 149.061 175.267 149.264C175.267 149.546 175.372 149.76 175.58 149.904C175.788 150.047 176.053 150.118 176.376 150.118ZM180.534 150.903V145.05H181.635V145.98H181.696C181.802 145.665 181.99 145.417 182.26 145.237C182.531 145.054 182.839 144.963 183.182 144.963C183.253 144.963 183.337 144.965 183.433 144.97C183.532 144.976 183.61 144.982 183.666 144.989V146.079C183.62 146.066 183.539 146.052 183.422 146.037C183.305 146.019 183.188 146.011 183.071 146.011C182.802 146.011 182.562 146.068 182.351 146.182C182.143 146.294 181.978 146.45 181.856 146.651C181.734 146.849 181.673 147.075 181.673 147.329V150.903H180.534ZM185.699 148.918L185.691 147.527H185.89L188.221 145.05H189.585L186.926 147.87H186.747L185.699 148.918ZM184.651 150.903V143.1H185.791V150.903H184.651ZM188.347 150.903L186.252 148.121L187.036 147.325L189.745 150.903H188.347ZM195.166 151.032C194.795 151.032 194.46 150.964 194.16 150.826C193.86 150.687 193.623 150.485 193.448 150.221C193.275 149.956 193.189 149.633 193.189 149.249C193.189 148.919 193.252 148.647 193.379 148.434C193.506 148.22 193.678 148.051 193.893 147.927C194.109 147.803 194.351 147.709 194.617 147.645C194.884 147.582 195.156 147.533 195.433 147.5C195.783 147.46 196.068 147.427 196.286 147.401C196.505 147.373 196.663 147.329 196.762 147.268C196.861 147.207 196.911 147.108 196.911 146.971V146.944C196.911 146.611 196.817 146.353 196.629 146.171C196.444 145.988 196.167 145.896 195.798 145.896C195.415 145.896 195.113 145.981 194.892 146.152C194.673 146.319 194.522 146.506 194.438 146.712L193.368 146.468C193.495 146.112 193.68 145.825 193.924 145.607C194.17 145.386 194.454 145.226 194.774 145.127C195.094 145.025 195.43 144.974 195.783 144.974C196.017 144.974 196.265 145.002 196.526 145.058C196.79 145.111 197.037 145.21 197.265 145.355C197.496 145.5 197.686 145.707 197.833 145.976C197.98 146.243 198.054 146.59 198.054 147.016V150.903H196.941V150.102H196.896C196.822 150.25 196.712 150.395 196.564 150.537C196.417 150.679 196.228 150.797 195.997 150.891C195.765 150.985 195.489 151.032 195.166 151.032ZM195.414 150.118C195.729 150.118 195.998 150.056 196.221 149.931C196.447 149.807 196.619 149.644 196.736 149.443C196.855 149.24 196.915 149.023 196.915 148.792V148.037C196.874 148.078 196.795 148.116 196.679 148.152C196.564 148.185 196.433 148.214 196.286 148.239C196.139 148.262 195.995 148.284 195.856 148.304C195.716 148.322 195.599 148.337 195.505 148.35C195.284 148.378 195.082 148.425 194.899 148.491C194.719 148.557 194.574 148.652 194.465 148.777C194.358 148.899 194.305 149.061 194.305 149.264C194.305 149.546 194.409 149.76 194.617 149.904C194.826 150.047 195.091 150.118 195.414 150.118ZM203.957 146.479L202.924 146.662C202.881 146.53 202.812 146.404 202.718 146.285C202.627 146.166 202.502 146.068 202.345 145.992C202.187 145.915 201.991 145.877 201.754 145.877C201.432 145.877 201.163 145.95 200.947 146.094C200.731 146.237 200.623 146.421 200.623 146.647C200.623 146.842 200.695 147 200.84 147.119C200.985 147.239 201.218 147.336 201.541 147.413L202.471 147.626C203.009 147.75 203.41 147.942 203.675 148.201C203.939 148.46 204.071 148.797 204.071 149.211C204.071 149.561 203.969 149.874 203.766 150.148C203.565 150.42 203.285 150.633 202.924 150.788C202.566 150.943 202.151 151.021 201.678 151.021C201.023 151.021 200.488 150.881 200.074 150.602C199.66 150.32 199.406 149.92 199.312 149.401L200.413 149.234C200.482 149.521 200.623 149.738 200.836 149.885C201.05 150.03 201.328 150.102 201.671 150.102C202.044 150.102 202.342 150.025 202.566 149.87C202.789 149.713 202.901 149.521 202.901 149.295C202.901 149.112 202.833 148.958 202.695 148.834C202.561 148.709 202.354 148.615 202.074 148.552L201.084 148.335C200.538 148.21 200.134 148.012 199.872 147.74C199.613 147.469 199.484 147.124 199.484 146.708C199.484 146.362 199.58 146.06 199.773 145.801C199.966 145.542 200.233 145.34 200.573 145.195C200.914 145.048 201.304 144.974 201.743 144.974C202.375 144.974 202.873 145.111 203.236 145.386C203.6 145.658 203.84 146.022 203.957 146.479ZM208.163 150.903V145.05H209.264V145.98H209.325C209.432 145.665 209.619 145.417 209.889 145.237C210.161 145.054 210.468 144.963 210.811 144.963C210.882 144.963 210.966 144.965 211.062 144.97C211.161 144.976 211.239 144.982 211.295 144.989V146.079C211.249 146.066 211.168 146.052 211.051 146.037C210.934 146.019 210.817 146.011 210.7 146.011C210.431 146.011 210.191 146.068 209.98 146.182C209.772 146.294 209.607 146.45 209.485 146.651C209.363 146.849 209.302 147.075 209.302 147.329V150.903H208.163ZM214.593 151.021C214.017 151.021 213.52 150.898 213.103 150.651C212.689 150.402 212.369 150.053 212.143 149.603C211.92 149.151 211.808 148.622 211.808 148.015C211.808 147.415 211.92 146.887 212.143 146.43C212.369 145.972 212.684 145.616 213.088 145.359C213.495 145.103 213.97 144.974 214.513 144.974C214.843 144.974 215.163 145.029 215.473 145.138C215.783 145.247 216.061 145.419 216.308 145.652C216.554 145.886 216.748 146.19 216.891 146.563C217.033 146.934 217.104 147.385 217.104 147.916V148.319H212.452V147.466H215.988C215.988 147.166 215.927 146.901 215.805 146.67C215.683 146.436 215.511 146.252 215.29 146.117C215.072 145.983 214.815 145.915 214.521 145.915C214.201 145.915 213.921 145.994 213.683 146.152C213.446 146.306 213.263 146.51 213.134 146.761C213.007 147.01 212.943 147.281 212.943 147.573V148.239C212.943 148.631 213.012 148.963 213.149 149.238C213.289 149.512 213.483 149.721 213.732 149.866C213.981 150.009 214.272 150.08 214.605 150.08C214.82 150.08 215.017 150.049 215.195 149.988C215.373 149.925 215.527 149.831 215.656 149.706C215.786 149.582 215.885 149.428 215.953 149.245L217.032 149.44C216.945 149.757 216.79 150.035 216.567 150.274C216.346 150.51 216.068 150.694 215.732 150.826C215.4 150.956 215.02 151.021 214.593 151.021ZM220.071 151.032C219.7 151.032 219.365 150.964 219.065 150.826C218.765 150.687 218.528 150.485 218.353 150.221C218.18 149.956 218.094 149.633 218.094 149.249C218.094 148.919 218.157 148.647 218.284 148.434C218.411 148.22 218.582 148.051 218.798 147.927C219.014 147.803 219.256 147.709 219.522 147.645C219.789 147.582 220.061 147.533 220.338 147.5C220.688 147.46 220.973 147.427 221.191 147.401C221.409 147.373 221.568 147.329 221.667 147.268C221.766 147.207 221.816 147.108 221.816 146.971V146.944C221.816 146.611 221.722 146.353 221.534 146.171C221.349 145.988 221.072 145.896 220.703 145.896C220.32 145.896 220.018 145.981 219.797 146.152C219.578 146.319 219.427 146.506 219.343 146.712L218.273 146.468C218.4 146.112 218.585 145.825 218.829 145.607C219.075 145.386 219.358 145.226 219.678 145.127C219.999 145.025 220.335 144.974 220.688 144.974C220.922 144.974 221.169 145.002 221.431 145.058C221.695 145.111 221.942 145.21 222.17 145.355C222.401 145.5 222.591 145.707 222.738 145.976C222.885 146.243 222.959 146.59 222.959 147.016V150.903H221.846V150.102H221.801C221.727 150.25 221.617 150.395 221.469 150.537C221.322 150.679 221.133 150.797 220.901 150.891C220.67 150.985 220.393 151.032 220.071 151.032ZM220.319 150.118C220.634 150.118 220.903 150.056 221.126 149.931C221.352 149.807 221.524 149.644 221.641 149.443C221.76 149.24 221.82 149.023 221.82 148.792V148.037C221.779 148.078 221.7 148.116 221.583 148.152C221.469 148.185 221.338 148.214 221.191 148.239C221.044 148.262 220.9 148.284 220.761 148.304C220.621 148.322 220.504 148.337 220.41 148.35C220.189 148.378 219.987 148.425 219.804 148.491C219.624 148.557 219.479 148.652 219.37 148.777C219.263 148.899 219.21 149.061 219.21 149.264C219.21 149.546 219.314 149.76 219.522 149.904C219.731 150.047 219.996 150.118 220.319 150.118ZM226.667 151.017C226.195 151.017 225.773 150.896 225.402 150.655C225.034 150.411 224.744 150.064 224.533 149.615C224.325 149.163 224.221 148.62 224.221 147.988C224.221 147.355 224.326 146.814 224.537 146.365C224.751 145.915 225.043 145.571 225.413 145.332C225.784 145.094 226.205 144.974 226.675 144.974C227.038 144.974 227.33 145.035 227.551 145.157C227.774 145.277 227.947 145.416 228.069 145.576C228.193 145.736 228.29 145.877 228.359 145.999H228.427V143.1H229.566V150.903H228.454V149.992H228.359C228.29 150.116 228.191 150.259 228.061 150.419C227.934 150.579 227.759 150.718 227.536 150.838C227.312 150.957 227.023 151.017 226.667 151.017ZM226.918 150.045C227.246 150.045 227.523 149.959 227.749 149.786C227.978 149.611 228.15 149.368 228.267 149.059C228.387 148.749 228.446 148.388 228.446 147.977C228.446 147.57 228.388 147.215 228.271 146.91C228.154 146.605 227.983 146.367 227.757 146.197C227.531 146.027 227.251 145.942 226.918 145.942C226.576 145.942 226.29 146.031 226.061 146.209C225.833 146.386 225.66 146.629 225.543 146.936C225.429 147.244 225.372 147.59 225.372 147.977C225.372 148.368 225.43 148.719 225.547 149.032C225.664 149.344 225.836 149.592 226.065 149.775C226.296 149.955 226.581 150.045 226.918 150.045Z" fill="#0073E6"/>
</g>
</g>
<rect x="40.2247" y="75.2247" width="212.55" height="86.8176" rx="9.08673" stroke="#D9D9DA" stroke-width="0.449492"/>
</g>
<defs>
<filter id="filter0_d_0_1791" x="0" y="45" width="293" height="167.267" filterUnits="userSpaceOnUse" color-interpolation-filters="sRGB">
<feFlood flood-opacity="0" result="BackgroundImageFix"/>
<feColorMatrix in="SourceAlpha" type="matrix" values="0 0 0 0 0 0 0 0 0 0 0 0 0 0 0 0 0 0 127 0" result="hardAlpha"/>
<feOffset dy="10"/>
<feGaussianBlur stdDeviation="20"/>
<feComposite in2="hardAlpha" operator="out"/>
<feColorMatrix type="matrix" values="0 0 0 0 0 0 0 0 0 0 0 0 0 0 0 0 0 0 0.06 0"/>
<feBlend mode="normal" in2="BackgroundImageFix" result="effect1_dropShadow_0_1791"/>
<feBlend mode="normal" in="SourceGraphic" in2="effect1_dropShadow_0_1791" result="shape"/>
</filter>
<filter id="filter1_b_0_1791" x="30.9388" y="123.477" width="231.122" height="47.8514" filterUnits="userSpaceOnUse" color-interpolation-filters="sRGB">
<feFlood flood-opacity="0" result="BackgroundImageFix"/>
<feGaussianBlur in="BackgroundImageFix" stdDeviation="4.5306"/>
<feComposite in2="SourceAlpha" operator="in" result="effect1_backgroundBlur_0_1791"/>
<feBlend mode="normal" in="SourceGraphic" in2="effect1_backgroundBlur_0_1791" result="shape"/>
</filter>
<clipPath id="clip0_0_1791">
<rect x="40" y="75" width="213" height="87.2671" rx="9.31148" fill="white"/>
</clipPath>
<clipPath id="clip1_0_1791">
<rect width="142" height="39.7882" fill="white" transform="translate(92.9683 83.875)"/>
</clipPath>
</defs>
</svg>
