<svg width="230" height="238" viewBox="0 0 230 238" fill="none" xmlns="http://www.w3.org/2000/svg">
<g filter="url(#filter0_dd_567_16710)">
<rect x="63.5508" y="93.9043" width="137.449" height="95.0686" rx="7.06684" fill="white"/>
</g>
<rect x="67.1299" y="97.438" width="129.853" height="42.4011" rx="3.53342" fill="#F3F4F4"/>
<path d="M82.1508 115.388V106.394H83.7801V114.022H87.7414V115.388H82.1508ZM91.0264 115.524C90.5989 115.524 90.2139 115.448 89.8714 115.296C89.5317 115.141 89.2624 114.912 89.0633 114.611C88.8671 114.309 88.7691 113.937 88.7691 113.495C88.7691 113.115 88.8393 112.8 88.9799 112.551C89.1204 112.302 89.3122 112.103 89.5552 111.954C89.7982 111.805 90.0719 111.692 90.3764 111.616C90.6838 111.537 91.0015 111.48 91.3294 111.444C91.7247 111.403 92.0453 111.367 92.2912 111.335C92.5371 111.3 92.7157 111.247 92.827 111.177C92.9412 111.103 92.9982 110.991 92.9982 110.838V110.812C92.9982 110.481 92.9002 110.225 92.704 110.044C92.5078 109.862 92.2253 109.771 91.8564 109.771C91.467 109.771 91.1581 109.856 90.9298 110.026C90.7043 110.196 90.5521 110.396 90.473 110.628L88.9886 110.417C89.1058 110.007 89.299 109.664 89.5683 109.389C89.8377 109.111 90.1671 108.903 90.5565 108.766C90.9459 108.625 91.3763 108.555 91.8476 108.555C92.1726 108.555 92.4961 108.593 92.8182 108.669C93.1402 108.745 93.4345 108.871 93.7009 109.047C93.9673 109.219 94.1811 109.455 94.3421 109.754C94.5061 110.052 94.588 110.426 94.588 110.874V115.388H93.0597V114.462H93.007C92.9104 114.649 92.7743 114.825 92.5986 114.989C92.4259 115.15 92.2077 115.28 91.9442 115.379C91.6837 115.476 91.3777 115.524 91.0264 115.524ZM91.4392 114.356C91.7583 114.356 92.035 114.293 92.2692 114.167C92.5035 114.038 92.6835 113.869 92.8094 113.658C92.9382 113.447 93.0026 113.217 93.0026 112.968V112.173C92.9529 112.214 92.868 112.253 92.7479 112.288C92.6308 112.323 92.4991 112.354 92.3527 112.38C92.2063 112.406 92.0614 112.43 91.9179 112.45C91.7744 112.471 91.65 112.488 91.5446 112.503C91.3074 112.535 91.0952 112.588 90.9078 112.661C90.7204 112.734 90.5726 112.837 90.4642 112.968C90.3559 113.097 90.3018 113.264 90.3018 113.469C90.3018 113.762 90.4086 113.983 90.6223 114.132C90.8361 114.281 91.1084 114.356 91.4392 114.356ZM100.486 112.551V108.643H102.076V115.388H100.534V114.189H100.464C100.312 114.567 100.062 114.876 99.7131 115.116C99.3676 115.356 98.9417 115.476 98.4351 115.476C97.9931 115.476 97.6022 115.378 97.2626 115.182C96.9259 114.983 96.6624 114.694 96.4721 114.317C96.2818 113.936 96.1866 113.476 96.1866 112.938V108.643H97.7764V112.692C97.7764 113.119 97.8935 113.459 98.1277 113.711C98.362 113.962 98.6694 114.088 99.05 114.088C99.2842 114.088 99.5111 114.031 99.7307 113.917C99.9503 113.803 100.13 113.633 100.271 113.408C100.414 113.179 100.486 112.894 100.486 112.551ZM103.711 115.388V108.643H105.252V109.767H105.322C105.445 109.377 105.656 109.077 105.955 108.867C106.256 108.653 106.6 108.546 106.987 108.546C107.075 108.546 107.173 108.55 107.281 108.559C107.392 108.565 107.485 108.575 107.558 108.59V110.052C107.49 110.029 107.384 110.008 107.237 109.991C107.094 109.97 106.955 109.96 106.82 109.96C106.53 109.96 106.27 110.023 106.038 110.149C105.81 110.272 105.63 110.443 105.498 110.663C105.366 110.882 105.3 111.136 105.3 111.422V115.388H103.711ZM111.323 115.52C110.646 115.52 110.062 115.379 109.57 115.098C109.081 114.814 108.705 114.413 108.442 113.895C108.178 113.374 108.046 112.76 108.046 112.055C108.046 111.361 108.178 110.752 108.442 110.228C108.708 109.701 109.08 109.291 109.557 108.998C110.034 108.703 110.595 108.555 111.239 108.555C111.655 108.555 112.047 108.622 112.416 108.757C112.788 108.888 113.116 109.093 113.4 109.372C113.687 109.65 113.912 110.004 114.076 110.434C114.24 110.862 114.322 111.371 114.322 111.963V112.45H108.793V111.379H112.798C112.795 111.074 112.729 110.803 112.601 110.566C112.472 110.326 112.292 110.137 112.06 110C111.832 109.862 111.566 109.793 111.261 109.793C110.936 109.793 110.651 109.872 110.405 110.03C110.159 110.186 109.967 110.39 109.829 110.645C109.695 110.897 109.626 111.174 109.623 111.475V112.411C109.623 112.803 109.695 113.14 109.838 113.421C109.982 113.699 110.182 113.913 110.44 114.062C110.697 114.208 110.999 114.281 111.344 114.281C111.576 114.281 111.785 114.249 111.973 114.185C112.16 114.118 112.322 114.019 112.46 113.891C112.598 113.762 112.702 113.602 112.772 113.412L114.256 113.579C114.162 113.971 113.984 114.314 113.72 114.606C113.46 114.896 113.126 115.122 112.719 115.283C112.312 115.441 111.847 115.52 111.323 115.52ZM117.257 111.436V115.388H115.667V108.643H117.187V109.789H117.266C117.421 109.411 117.668 109.111 118.008 108.888C118.35 108.666 118.773 108.555 119.277 108.555C119.742 108.555 120.148 108.654 120.493 108.853C120.842 109.052 121.111 109.341 121.302 109.719C121.495 110.096 121.59 110.554 121.587 111.093V115.388H119.997V111.339C119.997 110.888 119.88 110.535 119.646 110.281C119.415 110.026 119.094 109.899 118.684 109.899C118.406 109.899 118.159 109.96 117.942 110.083C117.728 110.203 117.56 110.377 117.437 110.606C117.317 110.834 117.257 111.111 117.257 111.436ZM126.341 115.388V106.394H132.103V107.76H127.97V110.202H131.708V111.567H127.97V115.388H126.341ZM133.517 115.388V108.643H135.107V115.388H133.517ZM134.316 107.685C134.064 107.685 133.848 107.602 133.666 107.435C133.485 107.265 133.394 107.062 133.394 106.824C133.394 106.584 133.485 106.381 133.666 106.214C133.848 106.044 134.064 105.959 134.316 105.959C134.571 105.959 134.788 106.044 134.966 106.214C135.148 106.381 135.239 106.584 135.239 106.824C135.239 107.062 135.148 107.265 134.966 107.435C134.788 107.602 134.571 107.685 134.316 107.685ZM142.073 110.426L140.624 110.584C140.583 110.437 140.511 110.3 140.409 110.171C140.309 110.042 140.174 109.938 140.005 109.859C139.835 109.78 139.627 109.74 139.381 109.74C139.05 109.74 138.772 109.812 138.547 109.956C138.324 110.099 138.214 110.285 138.217 110.513C138.214 110.71 138.286 110.869 138.432 110.992C138.582 111.115 138.828 111.216 139.17 111.295L140.321 111.541C140.959 111.679 141.433 111.897 141.744 112.195C142.057 112.494 142.215 112.885 142.218 113.368C142.215 113.793 142.091 114.167 141.845 114.492C141.602 114.814 141.264 115.066 140.83 115.248C140.397 115.429 139.899 115.52 139.337 115.52C138.511 115.52 137.847 115.347 137.343 115.002C136.84 114.653 136.54 114.169 136.443 113.548L137.993 113.399C138.063 113.703 138.213 113.933 138.441 114.088C138.67 114.243 138.967 114.321 139.333 114.321C139.71 114.321 140.013 114.243 140.242 114.088C140.473 113.933 140.589 113.741 140.589 113.513C140.589 113.32 140.514 113.16 140.365 113.034C140.218 112.908 139.99 112.812 139.68 112.744L138.529 112.503C137.882 112.368 137.403 112.141 137.093 111.822C136.783 111.5 136.629 111.093 136.632 110.601C136.629 110.186 136.742 109.825 136.97 109.521C137.201 109.213 137.522 108.976 137.932 108.809C138.345 108.64 138.82 108.555 139.359 108.555C140.15 108.555 140.772 108.723 141.226 109.06C141.682 109.396 141.965 109.852 142.073 110.426ZM145.119 111.436V115.388H143.529V106.394H145.084V109.789H145.163C145.321 109.408 145.565 109.108 145.896 108.888C146.23 108.666 146.654 108.555 147.17 108.555C147.638 108.555 148.047 108.653 148.395 108.849C148.743 109.045 149.013 109.332 149.203 109.71C149.396 110.087 149.493 110.549 149.493 111.093V115.388H147.903V111.339C147.903 110.885 147.786 110.532 147.552 110.281C147.32 110.026 146.995 109.899 146.577 109.899C146.296 109.899 146.044 109.96 145.821 110.083C145.602 110.203 145.429 110.377 145.303 110.606C145.18 110.834 145.119 111.111 145.119 111.436ZM154.1 115.52C153.423 115.52 152.839 115.379 152.347 115.098C151.858 114.814 151.482 114.413 151.219 113.895C150.955 113.374 150.824 112.76 150.824 112.055C150.824 111.361 150.955 110.752 151.219 110.228C151.485 109.701 151.857 109.291 152.334 108.998C152.811 108.703 153.372 108.555 154.016 108.555C154.432 108.555 154.824 108.622 155.193 108.757C155.565 108.888 155.893 109.093 156.177 109.372C156.464 109.65 156.689 110.004 156.853 110.434C157.017 110.862 157.099 111.371 157.099 111.963V112.45H151.57V111.379H155.575C155.572 111.074 155.507 110.803 155.378 110.566C155.249 110.326 155.069 110.137 154.838 110C154.609 109.862 154.343 109.793 154.038 109.793C153.713 109.793 153.428 109.872 153.182 110.03C152.936 110.186 152.744 110.39 152.607 110.645C152.472 110.897 152.403 111.174 152.4 111.475V112.411C152.4 112.803 152.472 113.14 152.615 113.421C152.759 113.699 152.959 113.913 153.217 114.062C153.475 114.208 153.776 114.281 154.122 114.281C154.353 114.281 154.562 114.249 154.75 114.185C154.937 114.118 155.1 114.019 155.237 113.891C155.375 113.762 155.479 113.602 155.549 113.412L157.033 113.579C156.94 113.971 156.761 114.314 156.498 114.606C156.237 114.896 155.903 115.122 155.496 115.283C155.089 115.441 154.624 115.52 154.1 115.52ZM158.444 115.388V108.643H159.986V109.767H160.056C160.179 109.377 160.39 109.077 160.688 108.867C160.99 108.653 161.334 108.546 161.72 108.546C161.808 108.546 161.906 108.55 162.015 108.559C162.126 108.565 162.218 108.575 162.291 108.59V110.052C162.224 110.029 162.117 110.008 161.971 109.991C161.827 109.97 161.688 109.96 161.553 109.96C161.264 109.96 161.003 110.023 160.772 110.149C160.543 110.272 160.363 110.443 160.232 110.663C160.1 110.882 160.034 111.136 160.034 111.422V115.388H158.444Z" fill="#292831"/>
<circle cx="83.9137" cy="126.588" r="2.65007" fill="#22C55E"/>
<path d="M97.6403 126.433C97.6403 127.257 97.4898 127.964 97.1886 128.557C96.8875 129.146 96.4747 129.6 95.9502 129.919C95.4282 130.235 94.8347 130.393 94.1697 130.393C93.5021 130.393 92.9061 130.235 92.3816 129.919C91.8596 129.6 91.4481 129.145 91.1469 128.553C90.8458 127.96 90.6952 127.254 90.6952 126.433C90.6952 125.61 90.8458 124.904 91.1469 124.314C91.4481 123.722 91.8596 123.268 92.3816 122.951C92.9061 122.633 93.5021 122.473 94.1697 122.473C94.8347 122.473 95.4282 122.633 95.9502 122.951C96.4747 123.268 96.8875 123.722 97.1886 124.314C97.4898 124.904 97.6403 125.61 97.6403 126.433ZM96.4885 126.433C96.4885 125.806 96.3868 125.278 96.1836 124.849C95.9828 124.417 95.7067 124.091 95.3554 123.87C95.0066 123.647 94.6113 123.535 94.1697 123.535C93.7255 123.535 93.329 123.647 92.9801 123.87C92.6313 124.091 92.3553 124.417 92.152 124.849C91.9512 125.278 91.8508 125.806 91.8508 126.433C91.8508 127.061 91.9512 127.59 92.152 128.022C92.3553 128.451 92.6313 128.777 92.9801 129.001C93.329 129.222 93.7255 129.332 94.1697 129.332C94.6113 129.332 95.0066 129.222 95.3554 129.001C95.7067 128.777 95.9828 128.451 96.1836 128.022C96.3868 127.59 96.4885 127.061 96.4885 126.433ZM100.126 126.855V130.288H99.0002V124.506H100.081V125.447H100.152C100.285 125.141 100.493 124.895 100.777 124.709C101.063 124.524 101.423 124.431 101.857 124.431C102.251 124.431 102.596 124.514 102.892 124.679C103.189 124.842 103.418 125.086 103.581 125.41C103.744 125.733 103.826 126.134 103.826 126.61V130.288H102.7V126.746C102.7 126.327 102.591 125.999 102.373 125.763C102.155 125.525 101.855 125.406 101.473 125.406C101.212 125.406 100.98 125.462 100.777 125.575C100.576 125.688 100.417 125.854 100.299 126.072C100.183 126.288 100.126 126.549 100.126 126.855ZM106.461 122.579V130.288H105.336V122.579H106.461ZM107.975 130.288V124.506H109.101V130.288H107.975ZM108.544 123.614C108.348 123.614 108.18 123.549 108.039 123.418C107.901 123.285 107.832 123.127 107.832 122.944C107.832 122.758 107.901 122.6 108.039 122.47C108.18 122.337 108.348 122.27 108.544 122.27C108.739 122.27 108.906 122.337 109.044 122.47C109.185 122.6 109.255 122.758 109.255 122.944C109.255 123.127 109.185 123.285 109.044 123.418C108.906 123.549 108.739 123.614 108.544 123.614ZM111.74 126.855V130.288H110.615V124.506H111.695V125.447H111.767C111.9 125.141 112.108 124.895 112.392 124.709C112.678 124.524 113.038 124.431 113.472 124.431C113.866 124.431 114.211 124.514 114.507 124.679C114.803 124.842 115.033 125.086 115.196 125.41C115.359 125.733 115.441 126.134 115.441 126.61V130.288H114.315V126.746C114.315 126.327 114.206 125.999 113.988 125.763C113.769 125.525 113.47 125.406 113.088 125.406C112.827 125.406 112.595 125.462 112.392 125.575C112.191 125.688 112.032 125.854 111.914 126.072C111.798 126.288 111.74 126.549 111.74 126.855ZM119.442 130.405C118.873 130.405 118.382 130.283 117.97 130.04C117.561 129.794 117.245 129.449 117.022 129.004C116.801 128.558 116.691 128.035 116.691 127.435C116.691 126.842 116.801 126.321 117.022 125.869C117.245 125.417 117.556 125.064 117.955 124.811C118.357 124.558 118.826 124.431 119.363 124.431C119.689 124.431 120.006 124.485 120.312 124.593C120.618 124.701 120.893 124.87 121.136 125.101C121.38 125.332 121.572 125.632 121.712 126.001C121.853 126.367 121.923 126.812 121.923 127.337V127.736H117.327V126.893H120.82C120.82 126.597 120.76 126.334 120.639 126.106C120.519 125.875 120.349 125.693 120.131 125.56C119.915 125.427 119.662 125.361 119.371 125.361C119.054 125.361 118.778 125.438 118.543 125.594C118.309 125.747 118.128 125.948 118 126.196C117.875 126.442 117.812 126.709 117.812 126.998V127.657C117.812 128.043 117.88 128.372 118.016 128.643C118.154 128.914 118.346 129.121 118.591 129.264C118.837 129.405 119.125 129.475 119.454 129.475C119.667 129.475 119.861 129.445 120.037 129.385C120.213 129.322 120.364 129.229 120.492 129.106C120.62 128.983 120.718 128.831 120.786 128.651L121.851 128.843C121.766 129.156 121.613 129.431 121.392 129.667C121.174 129.9 120.899 130.082 120.568 130.213C120.239 130.341 119.864 130.405 119.442 130.405ZM127.103 126.855V130.288H125.977V124.506H127.057V125.447H127.129C127.262 125.141 127.47 124.895 127.754 124.709C128.04 124.524 128.4 124.431 128.834 124.431C129.228 124.431 129.573 124.514 129.869 124.679C130.165 124.842 130.395 125.086 130.558 125.41C130.721 125.733 130.803 126.134 130.803 126.61V130.288H129.677V126.746C129.677 126.327 129.568 125.999 129.35 125.763C129.132 125.525 128.832 125.406 128.45 125.406C128.189 125.406 127.957 125.462 127.754 125.575C127.553 125.688 127.394 125.854 127.276 126.072C127.16 126.288 127.103 126.549 127.103 126.855ZM134.748 130.405C134.206 130.405 133.733 130.281 133.329 130.032C132.925 129.784 132.611 129.436 132.388 128.989C132.164 128.543 132.053 128.021 132.053 127.423C132.053 126.824 132.164 126.299 132.388 125.85C132.611 125.401 132.925 125.052 133.329 124.804C133.733 124.555 134.206 124.431 134.748 124.431C135.29 124.431 135.763 124.555 136.167 124.804C136.571 125.052 136.885 125.401 137.108 125.85C137.331 126.299 137.443 126.824 137.443 127.423C137.443 128.021 137.331 128.543 137.108 128.989C136.885 129.436 136.571 129.784 136.167 130.032C135.763 130.281 135.29 130.405 134.748 130.405ZM134.752 129.46C135.103 129.46 135.394 129.367 135.625 129.181C135.856 128.996 136.026 128.748 136.137 128.44C136.25 128.131 136.306 127.791 136.306 127.42C136.306 127.051 136.25 126.712 136.137 126.403C136.026 126.092 135.856 125.842 135.625 125.654C135.394 125.466 135.103 125.372 134.752 125.372C134.398 125.372 134.104 125.466 133.871 125.654C133.64 125.842 133.468 126.092 133.355 126.403C133.245 126.712 133.189 127.051 133.189 127.42C133.189 127.791 133.245 128.131 133.355 128.44C133.468 128.748 133.64 128.996 133.871 129.181C134.104 129.367 134.398 129.46 134.752 129.46ZM139.777 130.288L138.075 124.506H139.239L140.372 128.752H140.428L141.565 124.506H142.728L143.857 128.733H143.914L145.039 124.506H146.203L144.505 130.288H143.357L142.182 126.113H142.096L140.921 130.288H139.777Z" fill="#76767C"/>
<path d="M82.3344 161.173V152.179H85.7072C86.3982 152.179 86.9779 152.308 87.4463 152.565C87.9177 152.823 88.2734 153.177 88.5135 153.628C88.7565 154.076 88.878 154.585 88.878 155.156C88.878 155.733 88.7565 156.245 88.5135 156.693C88.2705 157.141 87.9118 157.494 87.4375 157.752C86.9632 158.006 86.3791 158.134 85.6852 158.134H83.4499V156.794H85.4657C85.8697 156.794 86.2005 156.724 86.4582 156.584C86.7158 156.443 86.9061 156.25 87.0291 156.004C87.155 155.758 87.2179 155.475 87.2179 155.156C87.2179 154.837 87.155 154.556 87.0291 154.313C86.9061 154.07 86.7144 153.881 86.4538 153.747C86.1961 153.609 85.8638 153.54 85.4569 153.54H83.9637V161.173H82.3344ZM92.0433 161.309C91.6158 161.309 91.2308 161.233 90.8883 161.081C90.5487 160.925 90.2793 160.697 90.0802 160.396C89.8841 160.094 89.786 159.722 89.786 159.28C89.786 158.899 89.8562 158.585 89.9968 158.336C90.1373 158.087 90.3291 157.888 90.5721 157.739C90.8151 157.589 91.0888 157.477 91.3933 157.4C91.7007 157.321 92.0184 157.264 92.3463 157.229C92.7416 157.188 93.0622 157.152 93.3081 157.119C93.554 157.084 93.7326 157.031 93.8439 156.961C93.9581 156.888 94.0152 156.775 94.0152 156.623V156.597C94.0152 156.266 93.9171 156.01 93.7209 155.828C93.5248 155.647 93.2422 155.556 92.8733 155.556C92.4839 155.556 92.175 155.641 91.9467 155.811C91.7212 155.98 91.569 156.181 91.4899 156.412L90.0056 156.201C90.1227 155.792 90.3159 155.449 90.5853 155.174C90.8546 154.896 91.184 154.688 91.5734 154.55C91.9628 154.41 92.3932 154.339 92.8645 154.339C93.1895 154.339 93.513 154.377 93.8351 154.454C94.1572 154.53 94.4514 154.656 94.7178 154.831C94.9843 155.004 95.198 155.24 95.359 155.538C95.523 155.837 95.605 156.21 95.605 156.658V161.173H94.0766V160.246H94.0239C93.9273 160.434 93.7912 160.609 93.6155 160.773C93.4428 160.934 93.2247 161.065 92.9612 161.164C92.7006 161.261 92.3946 161.309 92.0433 161.309ZM92.4561 160.141C92.7752 160.141 93.0519 160.078 93.2861 159.952C93.5204 159.823 93.7004 159.653 93.8263 159.443C93.9551 159.232 94.0196 159.002 94.0196 158.753V157.958C93.9698 157.999 93.8849 158.037 93.7648 158.072C93.6477 158.107 93.516 158.138 93.3696 158.165C93.2232 158.191 93.0783 158.214 92.9348 158.235C92.7913 158.255 92.6669 158.273 92.5615 158.288C92.3244 158.32 92.1121 158.372 91.9247 158.446C91.7373 158.519 91.5895 158.621 91.4812 158.753C91.3728 158.882 91.3187 159.049 91.3187 159.254C91.3187 159.546 91.4255 159.768 91.6393 159.917C91.853 160.066 92.1253 160.141 92.4561 160.141ZM101.503 158.336V154.427H103.093V161.173H101.551V159.974H101.481C101.329 160.352 101.078 160.66 100.73 160.901C100.385 161.141 99.9586 161.261 99.4521 161.261C99.01 161.261 98.6191 161.163 98.2795 160.966C97.9428 160.767 97.6793 160.479 97.489 160.101C97.2987 159.721 97.2035 159.261 97.2035 158.722V154.427H98.7933V158.476C98.7933 158.904 98.9104 159.243 99.1446 159.495C99.3789 159.747 99.6863 159.873 100.067 159.873C100.301 159.873 100.528 159.816 100.748 159.702C100.967 159.587 101.147 159.418 101.288 159.192C101.431 158.964 101.503 158.678 101.503 158.336ZM106.317 152.179V161.173H104.728V152.179H106.317ZM111.09 161.173V152.179H112.719V156.311H112.829L116.338 152.179H118.328L114.849 156.215L118.358 161.173H116.4L113.716 157.317L112.719 158.494V161.173H111.09ZM119.812 161.173V154.427H121.402V161.173H119.812ZM120.611 153.47C120.359 153.47 120.143 153.386 119.961 153.22C119.78 153.05 119.689 152.846 119.689 152.609C119.689 152.369 119.78 152.166 119.961 151.999C120.143 151.829 120.359 151.744 120.611 151.744C120.866 151.744 121.083 151.829 121.261 151.999C121.443 152.166 121.533 152.369 121.533 152.609C121.533 152.846 121.443 153.05 121.261 153.22C121.083 153.386 120.866 153.47 120.611 153.47ZM124.626 157.22V161.173H123.036V154.427H124.556V155.573H124.635C124.79 155.196 125.038 154.896 125.377 154.673C125.72 154.451 126.143 154.339 126.646 154.339C127.112 154.339 127.517 154.439 127.863 154.638C128.211 154.837 128.481 155.126 128.671 155.503C128.864 155.881 128.959 156.339 128.956 156.878V161.173H127.367V157.124C127.367 156.673 127.25 156.32 127.015 156.065C126.784 155.811 126.463 155.683 126.054 155.683C125.775 155.683 125.528 155.745 125.311 155.868C125.098 155.988 124.929 156.162 124.806 156.39C124.686 156.619 124.626 156.895 124.626 157.22ZM133.506 163.843C132.935 163.843 132.445 163.765 132.035 163.61C131.625 163.458 131.296 163.253 131.047 162.995C130.798 162.738 130.625 162.452 130.529 162.139L131.96 161.792C132.025 161.924 132.118 162.054 132.241 162.183C132.364 162.315 132.53 162.423 132.738 162.508C132.949 162.596 133.213 162.64 133.533 162.64C133.983 162.64 134.357 162.53 134.652 162.31C134.948 162.094 135.096 161.736 135.096 161.239V159.961H135.017C134.935 160.125 134.815 160.293 134.657 160.466C134.502 160.639 134.295 160.783 134.038 160.901C133.783 161.018 133.462 161.076 133.076 161.076C132.558 161.076 132.088 160.955 131.666 160.712C131.247 160.466 130.914 160.1 130.665 159.614C130.419 159.125 130.296 158.513 130.296 157.778C130.296 157.037 130.419 156.412 130.665 155.903C130.914 155.39 131.249 155.003 131.671 154.739C132.092 154.473 132.562 154.339 133.08 154.339C133.476 154.339 133.801 154.407 134.055 154.541C134.313 154.673 134.518 154.833 134.67 155.02C134.822 155.205 134.938 155.379 135.017 155.543H135.105V154.427H136.673V161.283C136.673 161.859 136.535 162.337 136.26 162.714C135.985 163.092 135.608 163.375 135.131 163.562C134.654 163.749 134.112 163.843 133.506 163.843ZM133.519 159.829C133.856 159.829 134.143 159.747 134.38 159.583C134.617 159.419 134.797 159.183 134.92 158.876C135.043 158.569 135.105 158.2 135.105 157.769C135.105 157.345 135.043 156.973 134.92 156.654C134.8 156.335 134.622 156.087 134.385 155.912C134.15 155.733 133.862 155.644 133.519 155.644C133.165 155.644 132.869 155.736 132.632 155.92C132.395 156.105 132.217 156.358 132.097 156.68C131.976 156.999 131.916 157.362 131.916 157.769C131.916 158.182 131.976 158.544 132.097 158.854C132.22 159.161 132.4 159.402 132.637 159.574C132.877 159.744 133.171 159.829 133.519 159.829Z" fill="#292831"/>
<circle cx="84.0973" cy="172.374" r="2.65007" fill="#22C55E"/>
<path d="M97.8249 172.219C97.8249 173.042 97.6743 173.75 97.3732 174.342C97.072 174.932 96.6592 175.386 96.1347 175.705C95.6128 176.021 95.0192 176.179 94.3542 176.179C93.6867 176.179 93.0907 176.021 92.5662 175.705C92.0442 175.386 91.6326 174.931 91.3315 174.338C91.0303 173.746 90.8798 173.04 90.8798 172.219C90.8798 171.396 91.0303 170.69 91.3315 170.1C91.6326 169.508 92.0442 169.053 92.5662 168.737C93.0907 168.418 93.6867 168.259 94.3542 168.259C95.0192 168.259 95.6128 168.418 96.1347 168.737C96.6592 169.053 97.072 169.508 97.3732 170.1C97.6743 170.69 97.8249 171.396 97.8249 172.219ZM96.673 172.219C96.673 171.592 96.5714 171.063 96.3681 170.634C96.1674 170.203 95.8913 169.876 95.54 169.656C95.1912 169.432 94.7959 169.321 94.3542 169.321C93.91 169.321 93.5135 169.432 93.1647 169.656C92.8159 169.876 92.5398 170.203 92.3366 170.634C92.1358 171.063 92.0354 171.592 92.0354 172.219C92.0354 172.846 92.1358 173.376 92.3366 173.808C92.5398 174.237 92.8159 174.563 93.1647 174.786C93.5135 175.007 93.91 175.118 94.3542 175.118C94.7959 175.118 95.1912 175.007 95.54 174.786C95.8913 174.563 96.1674 174.237 96.3681 173.808C96.5714 173.376 96.673 172.846 96.673 172.219ZM100.31 172.641V176.074H99.1848V170.292H100.265V171.233H100.337C100.47 170.927 100.678 170.681 100.962 170.495C101.248 170.309 101.608 170.216 102.042 170.216C102.436 170.216 102.781 170.299 103.077 170.465C103.373 170.628 103.603 170.871 103.766 171.195C103.929 171.519 104.011 171.919 104.011 172.396V176.074H102.885V172.532C102.885 172.112 102.776 171.785 102.558 171.549C102.339 171.311 102.039 171.191 101.658 171.191C101.397 171.191 101.165 171.248 100.962 171.361C100.761 171.474 100.601 171.639 100.483 171.858C100.368 172.074 100.31 172.335 100.31 172.641ZM106.646 168.364V176.074H105.52V168.364H106.646ZM108.16 176.074V170.292H109.285V176.074H108.16ZM108.728 169.4C108.532 169.4 108.364 169.334 108.224 169.204C108.086 169.071 108.017 168.913 108.017 168.73C108.017 168.544 108.086 168.386 108.224 168.255C108.364 168.122 108.532 168.056 108.728 168.056C108.924 168.056 109.091 168.122 109.229 168.255C109.369 168.386 109.44 168.544 109.44 168.73C109.44 168.913 109.369 169.071 109.229 169.204C109.091 169.334 108.924 169.4 108.728 169.4ZM111.925 172.641V176.074H110.799V170.292H111.88V171.233H111.951C112.084 170.927 112.293 170.681 112.576 170.495C112.862 170.309 113.222 170.216 113.657 170.216C114.051 170.216 114.396 170.299 114.692 170.465C114.988 170.628 115.218 170.871 115.381 171.195C115.544 171.519 115.625 171.919 115.625 172.396V176.074H114.5V172.532C114.5 172.112 114.391 171.785 114.172 171.549C113.954 171.311 113.654 171.191 113.273 171.191C113.012 171.191 112.78 171.248 112.576 171.361C112.375 171.474 112.216 171.639 112.098 171.858C111.983 172.074 111.925 172.335 111.925 172.641ZM119.627 176.19C119.057 176.19 118.567 176.069 118.155 175.825C117.746 175.579 117.43 175.234 117.206 174.79C116.985 174.343 116.875 173.82 116.875 173.22C116.875 172.628 116.985 172.106 117.206 171.654C117.43 171.203 117.741 170.85 118.14 170.597C118.541 170.343 119.011 170.216 119.548 170.216C119.874 170.216 120.19 170.27 120.496 170.378C120.802 170.486 121.077 170.656 121.321 170.887C121.564 171.117 121.756 171.417 121.897 171.786C122.037 172.153 122.107 172.598 122.107 173.123V173.522H117.511V172.678H121.005C121.005 172.382 120.944 172.12 120.824 171.892C120.703 171.661 120.534 171.479 120.316 171.346C120.1 171.213 119.846 171.146 119.555 171.146C119.239 171.146 118.963 171.224 118.727 171.38C118.494 171.533 118.313 171.733 118.185 171.982C118.06 172.228 117.997 172.495 117.997 172.784V173.442C117.997 173.829 118.065 174.158 118.2 174.429C118.338 174.7 118.53 174.907 118.776 175.05C119.022 175.19 119.309 175.261 119.638 175.261C119.851 175.261 120.046 175.231 120.222 175.17C120.397 175.108 120.549 175.015 120.677 174.892C120.805 174.769 120.903 174.617 120.971 174.436L122.036 174.628C121.951 174.942 121.798 175.217 121.577 175.453C121.358 175.686 121.084 175.868 120.752 175.998C120.424 176.126 120.048 176.19 119.627 176.19ZM127.287 172.641V176.074H126.162V170.292H127.242V171.233H127.313C127.446 170.927 127.655 170.681 127.938 170.495C128.224 170.309 128.585 170.216 129.019 170.216C129.413 170.216 129.758 170.299 130.054 170.465C130.35 170.628 130.58 170.871 130.743 171.195C130.906 171.519 130.987 171.919 130.987 172.396V176.074H129.862V172.532C129.862 172.112 129.753 171.785 129.534 171.549C129.316 171.311 129.016 171.191 128.635 171.191C128.374 171.191 128.142 171.248 127.938 171.361C127.738 171.474 127.578 171.639 127.46 171.858C127.345 172.074 127.287 172.335 127.287 172.641ZM134.932 176.19C134.39 176.19 133.917 176.066 133.513 175.818C133.109 175.569 132.796 175.222 132.572 174.775C132.349 174.328 132.237 173.806 132.237 173.209C132.237 172.609 132.349 172.085 132.572 171.636C132.796 171.186 133.109 170.838 133.513 170.589C133.917 170.341 134.39 170.216 134.932 170.216C135.474 170.216 135.948 170.341 136.352 170.589C136.756 170.838 137.069 171.186 137.293 171.636C137.516 172.085 137.628 172.609 137.628 173.209C137.628 173.806 137.516 174.328 137.293 174.775C137.069 175.222 136.756 175.569 136.352 175.818C135.948 176.066 135.474 176.19 134.932 176.19ZM134.936 175.246C135.288 175.246 135.579 175.153 135.809 174.967C136.04 174.781 136.211 174.534 136.321 174.225C136.434 173.917 136.491 173.577 136.491 173.205C136.491 172.836 136.434 172.498 136.321 172.189C136.211 171.878 136.04 171.628 135.809 171.44C135.579 171.252 135.288 171.158 134.936 171.158C134.582 171.158 134.289 171.252 134.055 171.44C133.824 171.628 133.653 171.878 133.54 172.189C133.429 172.498 133.374 172.836 133.374 173.205C133.374 173.577 133.429 173.917 133.54 174.225C133.653 174.534 133.824 174.781 134.055 174.967C134.289 175.153 134.582 175.246 134.936 175.246ZM139.962 176.074L138.26 170.292H139.423L140.556 174.538H140.613L141.75 170.292H142.913L144.042 174.519H144.098L145.224 170.292H146.387L144.689 176.074H143.541L142.367 171.899H142.28L141.106 176.074H139.962Z" fill="#76767C"/>
<circle cx="40.9696" cy="69.3539" r="20.3158" fill="#F8C100" stroke="#FAFAFB" stroke-width="2.02058"/>
<circle cx="26.4907" cy="83.833" r="4.62529" fill="#11CB24" stroke="#F6F6F7" stroke-width="1.2066"/>
<path d="M35.893 74.4834H32.3614V63.5743H36.0048C37.0737 63.5743 37.9917 63.7927 38.7587 64.2295C39.5258 64.6627 40.1135 65.286 40.5219 66.0992C40.9338 66.9088 41.1398 67.8801 41.1398 69.0129C41.1398 70.1492 40.932 71.1258 40.5165 71.9426C40.1046 72.7593 39.508 73.3879 38.7268 73.8282C37.9455 74.265 37.0009 74.4834 35.893 74.4834ZM34.0073 73.0452H35.8024C36.6334 73.0452 37.3241 72.8889 37.8745 72.5764C38.4249 72.2604 38.8369 71.8041 39.1103 71.2075C39.3837 70.6073 39.5205 69.8758 39.5205 69.0129C39.5205 68.157 39.3837 67.4308 39.1103 66.8343C38.8404 66.2377 38.4374 65.7849 37.9011 65.4759C37.3649 65.167 36.6991 65.0125 35.9036 65.0125H34.0073V73.0452ZM43.1866 74.4834V63.5743H49.9515V64.9912H44.8325V68.3151H49.4667V69.7267H44.8325V74.4834H43.1866Z" fill="white"/>
<circle cx="71.2225" cy="69.3539" r="20.3158" fill="#FF17D2" stroke="#FAFAFB" stroke-width="2.02058"/>
<circle cx="56.7437" cy="83.833" r="4.62529" fill="#11CB24" stroke="#F6F6F7" stroke-width="1.2066"/>
<path d="M63.354 74.4834V63.5743H65V73.0665H69.9432V74.4834H63.354ZM71.8208 74.4834V63.5743H75.7093C76.5545 63.5743 77.2558 63.7199 77.8134 64.0111C78.3745 64.3023 78.7935 64.7053 79.0705 65.2203C79.3475 65.7316 79.486 66.3229 79.486 66.9941C79.486 67.6617 79.3457 68.2494 79.0652 68.7572C78.7882 69.2615 78.3691 69.6539 77.808 69.9344C77.2505 70.2149 76.5492 70.3552 75.704 70.3552H72.7583V68.9383H75.5549C76.0875 68.9383 76.5208 68.8619 76.8546 68.7093C77.1919 68.5566 77.4387 68.3346 77.595 68.0434C77.7512 67.7522 77.8294 67.4024 77.8294 66.9941C77.8294 66.5821 77.7495 66.2252 77.5897 65.9234C77.4334 65.6215 77.1866 65.3907 76.8492 65.2309C76.5154 65.0676 76.0769 64.9859 75.5335 64.9859H73.4668V74.4834H71.8208ZM77.2061 69.5615L79.9014 74.4834H78.0264L75.3844 69.5615H77.2061Z" fill="white"/>
<circle cx="101.476" cy="69.3539" r="20.3158" fill="#791BF0" stroke="#FAFAFB" stroke-width="2.02058"/>
<circle cx="86.9976" cy="83.833" r="4.62529" fill="#11CB24" stroke="#F6F6F7" stroke-width="1.2066"/>
<path d="M90.8247 74.4834V63.5743H97.6642V64.9912H92.4707V68.3151H97.3073V69.7267H92.4707V73.0665H97.7281V74.4834H90.8247ZM101.999 74.4834L98.9733 63.5743H100.704L102.83 72.0225H102.931L105.142 63.5743H106.857L109.067 72.0278H109.169L111.289 63.5743H113.025L109.994 74.4834H108.338L106.042 66.3122H105.957L103.661 74.4834H101.999Z" fill="white"/>
<g filter="url(#filter1_d_567_16710)">
<circle cx="131.904" cy="69.3538" r="19.1761" fill="#AEB6BF"/>
<circle cx="131.904" cy="69.3538" r="20.4003" stroke="#F9F9FA" stroke-width="2.44848"/>
</g>
<path d="M126.502 73.3458V66.1441H127.935V73.3458H126.502ZM123.621 70.4588V69.0312H130.822V70.4588H123.621ZM132.825 75.1782V73.985L136.516 70.1605C136.911 69.745 137.236 69.381 137.491 69.0685C137.75 68.7524 137.944 68.4524 138.072 68.1683C138.2 67.8842 138.264 67.5823 138.264 67.2627C138.264 66.9005 138.178 66.588 138.008 66.3252C137.837 66.0589 137.605 65.8547 137.31 65.7127C137.015 65.5671 136.683 65.4943 136.314 65.4943C135.923 65.4943 135.583 65.5742 135.291 65.734C135 65.8938 134.776 66.1193 134.62 66.4105C134.464 66.7017 134.386 67.0426 134.386 67.4332H132.814C132.814 66.7691 132.967 66.1885 133.272 65.6914C133.578 65.1942 133.997 64.8089 134.53 64.5355C135.062 64.2585 135.668 64.12 136.346 64.12C137.031 64.12 137.635 64.2567 138.157 64.5301C138.683 64.8 139.093 65.1693 139.388 65.6381C139.682 66.1033 139.83 66.6289 139.83 67.2148C139.83 67.6196 139.753 68.0156 139.601 68.4027C139.451 68.7897 139.19 69.2212 138.818 69.697C138.445 70.1693 137.926 70.7429 137.262 71.4176L135.094 73.6867V73.7666H140.005V75.1782H132.825Z" fill="white"/>
<defs>
<filter id="filter0_dd_567_16710" x="62.048" y="92.9025" width="140.454" height="98.0739" filterUnits="userSpaceOnUse" color-interpolation-filters="sRGB">
<feFlood flood-opacity="0" result="BackgroundImageFix"/>
<feColorMatrix in="SourceAlpha" type="matrix" values="0 0 0 0 0 0 0 0 0 0 0 0 0 0 0 0 0 0 127 0" result="hardAlpha"/>
<feMorphology radius="0.500918" operator="erode" in="SourceAlpha" result="effect1_dropShadow_567_16710"/>
<feOffset dy="0.500918"/>
<feGaussianBlur stdDeviation="0.500918"/>
<feComposite in2="hardAlpha" operator="out"/>
<feColorMatrix type="matrix" values="0 0 0 0 0 0 0 0 0 0 0 0 0 0 0 0 0 0 0.1 0"/>
<feBlend mode="normal" in2="BackgroundImageFix" result="effect1_dropShadow_567_16710"/>
<feColorMatrix in="SourceAlpha" type="matrix" values="0 0 0 0 0 0 0 0 0 0 0 0 0 0 0 0 0 0 127 0" result="hardAlpha"/>
<feOffset dy="0.500918"/>
<feGaussianBlur stdDeviation="0.751377"/>
<feComposite in2="hardAlpha" operator="out"/>
<feColorMatrix type="matrix" values="0 0 0 0 0 0 0 0 0 0 0 0 0 0 0 0 0 0 0.1 0"/>
<feBlend mode="normal" in2="effect1_dropShadow_567_16710" result="effect2_dropShadow_567_16710"/>
<feBlend mode="normal" in="SourceGraphic" in2="effect2_dropShadow_567_16710" result="shape"/>
</filter>
<filter id="filter1_d_567_16710" x="47.5967" y="1.76226" width="168.614" height="168.614" filterUnits="userSpaceOnUse" color-interpolation-filters="sRGB">
<feFlood flood-opacity="0" result="BackgroundImageFix"/>
<feColorMatrix in="SourceAlpha" type="matrix" values="0 0 0 0 0 0 0 0 0 0 0 0 0 0 0 0 0 0 127 0" result="hardAlpha"/>
<feOffset dy="16.7154"/>
<feGaussianBlur stdDeviation="31.3413"/>
<feColorMatrix type="matrix" values="0 0 0 0 0 0 0 0 0 0 0 0 0 0 0 0 0 0 0.07 0"/>
<feBlend mode="normal" in2="BackgroundImageFix" result="effect1_dropShadow_567_16710"/>
<feBlend mode="normal" in="SourceGraphic" in2="effect1_dropShadow_567_16710" result="shape"/>
</filter>
</defs>
</svg>
