<svg width="230" height="238" viewBox="0 0 196 152" fill="none" xmlns="http://www.w3.org/2000/svg">
<g filter="url(#filter0_dddd_2317_26)">
<rect x="21.6812" y="2" width="154.121" height="117.316" rx="6.75957" fill="white"/>
</g>
<circle cx="39.1253" cy="21.299" r="9.60283" fill="#00C008" stroke="#FAFAFB" stroke-width="0.955083"/>
<path d="M34.2253 24.2155V19.059H36.0633C36.4628 19.059 36.7943 19.1278 37.0578 19.2654C37.323 19.4031 37.5211 19.5936 37.652 19.837C37.783 20.0787 37.8484 20.3582 37.8484 20.6754C37.8484 20.991 37.7821 21.2688 37.6495 21.5088C37.5186 21.7472 37.3205 21.9326 37.0553 22.0652C36.7918 22.1978 36.4603 22.2642 36.0608 22.2642H34.6684V21.5944H35.9903C36.2421 21.5944 36.4468 21.5583 36.6046 21.4861C36.7641 21.414 36.8808 21.3091 36.9546 21.1714C37.0285 21.0338 37.0654 20.8684 37.0654 20.6754C37.0654 20.4807 37.0276 20.312 36.9521 20.1693C36.8782 20.0267 36.7616 19.9176 36.6021 19.842C36.4443 19.7648 36.237 19.7262 35.9802 19.7262H35.0033V24.2155H34.2253ZM36.7708 21.889L38.0448 24.2155H37.1586L35.9097 21.889H36.7708ZM38.7951 19.059H39.7393L41.3809 23.0673H41.4413L43.083 19.059H44.0271V24.2155H43.2869V20.4841H43.2391L41.7183 24.2079H41.104L39.5832 20.4815H39.5354V24.2155H38.7951V19.059Z" fill="white"/>
<path d="M54.5472 22.8824H55.3591L56.9831 25.6157H57.0517L58.6756 22.8824H59.4876L57.3719 26.3247V28.7378H56.6629V26.3247L54.5472 22.8824ZM61.6175 28.8293C61.2211 28.8293 60.8732 28.7349 60.574 28.5462C60.2766 28.3575 60.0441 28.0936 59.8764 27.7543C59.7105 27.415 59.6276 27.0185 59.6276 26.5649C59.6276 26.1075 59.7105 25.7081 59.8764 25.367C60.0441 25.0258 60.2766 24.7608 60.574 24.5721C60.8732 24.3834 61.2211 24.2891 61.6175 24.2891C62.014 24.2891 62.3609 24.3834 62.6582 24.5721C62.9575 24.7608 63.19 25.0258 63.3558 25.367C63.5236 25.7081 63.6074 26.1075 63.6074 26.5649C63.6074 27.0185 63.5236 27.415 63.3558 27.7543C63.19 28.0936 62.9575 28.3575 62.6582 28.5462C62.3609 28.7349 62.014 28.8293 61.6175 28.8293ZM61.6175 28.2232C61.9187 28.2232 62.1665 28.146 62.3609 27.9916C62.5553 27.8372 62.6992 27.6342 62.7926 27.3826C62.886 27.131 62.9327 26.8584 62.9327 26.5649C62.9327 26.2714 62.886 25.9979 62.7926 25.7444C62.6992 25.4909 62.5553 25.286 62.3609 25.1297C62.1665 24.9734 61.9187 24.8952 61.6175 24.8952C61.3164 24.8952 61.0686 24.9734 60.8742 25.1297C60.6798 25.286 60.5358 25.4909 60.4425 25.7444C60.3491 25.9979 60.3024 26.2714 60.3024 26.5649C60.3024 26.8584 60.3491 27.131 60.4425 27.3826C60.5358 27.6342 60.6798 27.8372 60.8742 27.9916C61.0686 28.146 61.3164 28.2232 61.6175 28.2232ZM67.5464 26.9423V24.3463H68.2211V28.7378H67.5464V27.9944H67.5007C67.3977 28.2174 67.2376 28.4071 67.0203 28.5634C66.8031 28.7178 66.5286 28.795 66.1969 28.795C65.9225 28.795 65.6785 28.7349 65.465 28.6149C65.2515 28.4929 65.0838 28.3099 64.9618 28.0659C64.8398 27.82 64.7788 27.5103 64.7788 27.1367V24.3463H65.4536V27.091C65.4536 27.4112 65.5432 27.6666 65.7223 27.8572C65.9034 28.0478 66.134 28.1431 66.4142 28.1431C66.582 28.1431 66.7525 28.1002 66.926 28.0145C67.1013 27.9287 67.2481 27.7972 67.3663 27.6199C67.4864 27.4426 67.5464 27.2168 67.5464 26.9423ZM73.2965 28.8407C73.0182 28.8407 72.7657 28.7883 72.5389 28.6835C72.312 28.5767 72.1319 28.4233 71.9985 28.2232C71.8651 28.0211 71.7984 27.7771 71.7984 27.4912C71.7984 27.2396 71.8479 27.0357 71.947 26.8794C72.0461 26.7212 72.1786 26.5973 72.3444 26.5077C72.5103 26.4181 72.6932 26.3514 72.8934 26.3076C73.0954 26.2618 73.2984 26.2256 73.5024 26.1989C73.7692 26.1646 73.9855 26.1389 74.1514 26.1218C74.3191 26.1027 74.4411 26.0712 74.5173 26.0274C74.5955 25.9836 74.6345 25.9073 74.6345 25.7987V25.7758C74.6345 25.4937 74.5574 25.2745 74.403 25.1182C74.2505 24.9619 74.0189 24.8838 73.7082 24.8838C73.3861 24.8838 73.1335 24.9543 72.9506 25.0953C72.7676 25.2364 72.6389 25.387 72.5646 25.5471L71.9242 25.3184C72.0385 25.0515 72.191 24.8438 72.3816 24.6951C72.5741 24.5445 72.7838 24.4397 73.0106 24.3806C73.2393 24.3196 73.4642 24.2891 73.6853 24.2891C73.8264 24.2891 73.9884 24.3062 74.1714 24.3406C74.3563 24.373 74.5345 24.4406 74.706 24.5435C74.8795 24.6465 75.0234 24.8018 75.1377 25.0096C75.2521 25.2173 75.3093 25.4956 75.3093 25.8444V28.7378H74.6345V28.1431H74.6002C74.5545 28.2384 74.4783 28.3404 74.3715 28.449C74.2648 28.5577 74.1228 28.6501 73.9455 28.7264C73.7683 28.8026 73.5519 28.8407 73.2965 28.8407ZM73.3994 28.2346C73.6663 28.2346 73.8912 28.1822 74.0742 28.0773C74.2591 27.9725 74.3982 27.8372 74.4916 27.6714C74.5869 27.5055 74.6345 27.3311 74.6345 27.1482V26.5306C74.606 26.5649 74.5431 26.5964 74.4458 26.6249C74.3505 26.6516 74.24 26.6755 74.1142 26.6964C73.9903 26.7155 73.8693 26.7326 73.7511 26.7479C73.6348 26.7612 73.5405 26.7727 73.4681 26.7822C73.2927 26.8051 73.1288 26.8422 72.9763 26.8937C72.8257 26.9433 72.7037 27.0185 72.6103 27.1196C72.5188 27.2187 72.4731 27.354 72.4731 27.5256C72.4731 27.76 72.5598 27.9373 72.7333 28.0573C72.9086 28.1755 73.1307 28.2346 73.3994 28.2346ZM76.6823 28.7378V24.3463H77.3341V25.0096H77.3799C77.4599 24.7923 77.6048 24.616 77.8144 24.4807C78.0241 24.3453 78.2605 24.2777 78.5235 24.2777C78.573 24.2777 78.635 24.2786 78.7093 24.2805C78.7837 24.2824 78.8399 24.2853 78.878 24.2891V24.9753C78.8551 24.9695 78.8027 24.961 78.7208 24.9495C78.6407 24.9362 78.5559 24.9295 78.4663 24.9295C78.2528 24.9295 78.0622 24.9743 77.8945 25.0639C77.7287 25.1516 77.5972 25.2736 77.4999 25.4299C77.4046 25.5842 77.357 25.7606 77.357 25.9588V28.7378H76.6823ZM81.5268 28.8293C81.1037 28.8293 80.7387 28.7359 80.4318 28.5491C80.1269 28.3604 79.8915 28.0974 79.7256 27.76C79.5617 27.4207 79.4798 27.0262 79.4798 26.5763C79.4798 26.1265 79.5617 25.7301 79.7256 25.387C79.8915 25.042 80.1221 24.7732 80.4175 24.5807C80.7149 24.3863 81.0618 24.2891 81.4582 24.2891C81.6869 24.2891 81.9128 24.3272 82.1358 24.4035C82.3588 24.4797 82.5618 24.6036 82.7448 24.7751C82.9278 24.9448 83.0736 25.1697 83.1822 25.4499C83.2909 25.7301 83.3452 26.0751 83.3452 26.4849V26.7708H79.9601V26.1875H82.659C82.659 25.9397 82.6095 25.7186 82.5104 25.5242C82.4131 25.3298 82.274 25.1764 82.0929 25.0639C81.9138 24.9514 81.7022 24.8952 81.4582 24.8952C81.1895 24.8952 80.9569 24.9619 80.7606 25.0953C80.5662 25.2269 80.4166 25.3984 80.3117 25.61C80.2069 25.8216 80.1545 26.0484 80.1545 26.2904V26.6793C80.1545 27.0109 80.2117 27.2921 80.326 27.5227C80.4423 27.7514 80.6034 27.9258 80.8092 28.0459C81.0151 28.1641 81.2543 28.2232 81.5268 28.2232C81.7041 28.2232 81.8642 28.1984 82.0072 28.1488C82.152 28.0974 82.2769 28.0211 82.3817 27.9201C82.4865 27.8172 82.5675 27.6895 82.6247 27.537L83.2766 27.72C83.208 27.9411 83.0927 28.1355 82.9306 28.3032C82.7686 28.469 82.5685 28.5987 82.3302 28.692C82.092 28.7835 81.8242 28.8293 81.5268 28.8293ZM88.8287 24.3463V24.9181H86.5529V24.3463H88.8287ZM87.2162 23.2941H87.8909V27.4798C87.8909 27.6704 87.9186 27.8134 87.9738 27.9087C88.031 28.0021 88.1034 28.065 88.1911 28.0974C88.2807 28.1279 88.3751 28.1431 88.4742 28.1431C88.5485 28.1431 88.6095 28.1393 88.6571 28.1317C88.7048 28.1221 88.7429 28.1145 88.7715 28.1088L88.9087 28.7149C88.863 28.7321 88.7991 28.7492 88.7172 28.7664C88.6352 28.7854 88.5314 28.795 88.4056 28.795C88.2149 28.795 88.0282 28.754 87.8452 28.672C87.6641 28.5901 87.5135 28.4652 87.3934 28.2975C87.2753 28.1298 87.2162 27.9182 87.2162 27.6628V23.2941ZM91.722 28.8293C91.3255 28.8293 90.9777 28.7349 90.6784 28.5462C90.3811 28.3575 90.1485 28.0936 89.9808 27.7543C89.815 27.415 89.7321 27.0185 89.7321 26.5649C89.7321 26.1075 89.815 25.7081 89.9808 25.367C90.1485 25.0258 90.3811 24.7608 90.6784 24.5721C90.9777 24.3834 91.3255 24.2891 91.722 24.2891C92.1184 24.2891 92.4653 24.3834 92.7627 24.5721C93.0619 24.7608 93.2945 25.0258 93.4603 25.367C93.628 25.7081 93.7119 26.1075 93.7119 26.5649C93.7119 27.0185 93.628 27.415 93.4603 27.7543C93.2945 28.0936 93.0619 28.3575 92.7627 28.5462C92.4653 28.7349 92.1184 28.8293 91.722 28.8293ZM91.722 28.2232C92.0231 28.2232 92.2709 28.146 92.4653 27.9916C92.6597 27.8372 92.8036 27.6342 92.897 27.3826C92.9904 27.131 93.0371 26.8584 93.0371 26.5649C93.0371 26.2714 92.9904 25.9979 92.897 25.7444C92.8036 25.4909 92.6597 25.286 92.4653 25.1297C92.2709 24.9734 92.0231 24.8952 91.722 24.8952C91.4208 24.8952 91.173 24.9734 90.9786 25.1297C90.7842 25.286 90.6403 25.4909 90.5469 25.7444C90.4535 25.9979 90.4068 26.2714 90.4068 26.5649C90.4068 26.8584 90.4535 27.131 90.5469 27.3826C90.6403 27.6342 90.7842 27.8372 90.9786 27.9916C91.173 28.146 91.4208 28.2232 91.722 28.2232ZM96.6673 28.8293C96.2709 28.8293 95.923 28.7349 95.6238 28.5462C95.3264 28.3575 95.0939 28.0936 94.9262 27.7543C94.7603 27.415 94.6774 27.0185 94.6774 26.5649C94.6774 26.1075 94.7603 25.7081 94.9262 25.367C95.0939 25.0258 95.3264 24.7608 95.6238 24.5721C95.923 24.3834 96.2709 24.2891 96.6673 24.2891C97.0638 24.2891 97.4107 24.3834 97.708 24.5721C98.0073 24.7608 98.2398 25.0258 98.4056 25.367C98.5734 25.7081 98.6572 26.1075 98.6572 26.5649C98.6572 27.0185 98.5734 27.415 98.4056 27.7543C98.2398 28.0936 98.0073 28.3575 97.708 28.5462C97.4107 28.7349 97.0638 28.8293 96.6673 28.8293ZM96.6673 28.2232C96.9685 28.2232 97.2163 28.146 97.4107 27.9916C97.6051 27.8372 97.749 27.6342 97.8424 27.3826C97.9358 27.131 97.9825 26.8584 97.9825 26.5649C97.9825 26.2714 97.9358 25.9979 97.8424 25.7444C97.749 25.4909 97.6051 25.286 97.4107 25.1297C97.2163 24.9734 96.9685 24.8952 96.6673 24.8952C96.3662 24.8952 96.1184 24.9734 95.924 25.1297C95.7296 25.286 95.5857 25.4909 95.4923 25.7444C95.3989 25.9979 95.3522 26.2714 95.3522 26.5649C95.3522 26.8584 95.3989 27.131 95.4923 27.3826C95.5857 27.6342 95.7296 27.8372 95.924 27.9916C96.1184 28.146 96.3662 28.2232 96.6673 28.2232ZM104.007 30.4761C103.681 30.4761 103.401 30.4342 103.167 30.3503C102.932 30.2683 102.737 30.1597 102.58 30.0244C102.426 29.8909 102.303 29.748 102.212 29.5955L102.749 29.2181C102.81 29.2982 102.887 29.3897 102.981 29.4926C103.074 29.5974 103.202 29.688 103.364 29.7642C103.528 29.8423 103.742 29.8814 104.007 29.8814C104.362 29.8814 104.654 29.7956 104.885 29.6241C105.115 29.4526 105.231 29.1838 105.231 28.8178V27.9258H105.174C105.124 28.0059 105.053 28.105 104.962 28.2232C104.872 28.3394 104.743 28.4433 104.573 28.5348C104.405 28.6244 104.179 28.6692 103.893 28.6692C103.538 28.6692 103.22 28.5853 102.938 28.4176C102.658 28.2498 102.436 28.0059 102.272 27.6857C102.11 27.3654 102.029 26.9766 102.029 26.5192C102.029 26.0693 102.108 25.6776 102.266 25.3441C102.424 25.0086 102.644 24.7494 102.926 24.5664C103.208 24.3815 103.534 24.2891 103.904 24.2891C104.19 24.2891 104.417 24.3367 104.585 24.432C104.754 24.5254 104.884 24.6322 104.973 24.7523C105.065 24.8704 105.135 24.9676 105.185 25.0439H105.254V24.3463H105.905V28.8636C105.905 29.241 105.82 29.5479 105.648 29.7842C105.479 30.0225 105.25 30.1969 104.962 30.3074C104.676 30.4199 104.358 30.4761 104.007 30.4761ZM103.984 28.0631C104.255 28.0631 104.484 28.0011 104.67 27.8772C104.857 27.7533 104.999 27.5751 105.096 27.3426C105.194 27.11 105.242 26.8318 105.242 26.5077C105.242 26.1913 105.195 25.9121 105.099 25.67C105.004 25.428 104.863 25.2383 104.676 25.1011C104.489 24.9638 104.259 24.8952 103.984 24.8952C103.698 24.8952 103.46 24.9676 103.269 25.1125C103.081 25.2574 102.939 25.4518 102.843 25.6958C102.75 25.9397 102.703 26.2104 102.703 26.5077C102.703 26.8127 102.751 27.0824 102.846 27.3168C102.944 27.5494 103.086 27.7324 103.275 27.8658C103.466 27.9973 103.702 28.0631 103.984 28.0631ZM109.066 28.8293C108.67 28.8293 108.322 28.7349 108.023 28.5462C107.725 28.3575 107.493 28.0936 107.325 27.7543C107.159 27.415 107.076 27.0185 107.076 26.5649C107.076 26.1075 107.159 25.7081 107.325 25.367C107.493 25.0258 107.725 24.7608 108.023 24.5721C108.322 24.3834 108.67 24.2891 109.066 24.2891C109.463 24.2891 109.809 24.3834 110.107 24.5721C110.406 24.7608 110.639 25.0258 110.804 25.367C110.972 25.7081 111.056 26.1075 111.056 26.5649C111.056 27.0185 110.972 27.415 110.804 27.7543C110.639 28.0936 110.406 28.3575 110.107 28.5462C109.809 28.7349 109.463 28.8293 109.066 28.8293ZM109.066 28.2232C109.367 28.2232 109.615 28.146 109.809 27.9916C110.004 27.8372 110.148 27.6342 110.241 27.3826C110.335 27.131 110.381 26.8584 110.381 26.5649C110.381 26.2714 110.335 25.9979 110.241 25.7444C110.148 25.4909 110.004 25.286 109.809 25.1297C109.615 24.9734 109.367 24.8952 109.066 24.8952C108.765 24.8952 108.517 24.9734 108.323 25.1297C108.128 25.286 107.984 25.4909 107.891 25.7444C107.798 25.9979 107.751 26.2714 107.751 26.5649C107.751 26.8584 107.798 27.131 107.891 27.3826C107.984 27.6342 108.128 27.8372 108.323 27.9916C108.517 28.146 108.765 28.2232 109.066 28.2232ZM114.011 28.8293C113.615 28.8293 113.267 28.7349 112.968 28.5462C112.671 28.3575 112.438 28.0936 112.27 27.7543C112.104 27.415 112.022 27.0185 112.022 26.5649C112.022 26.1075 112.104 25.7081 112.27 25.367C112.438 25.0258 112.671 24.7608 112.968 24.5721C113.267 24.3834 113.615 24.2891 114.011 24.2891C114.408 24.2891 114.755 24.3834 115.052 24.5721C115.351 24.7608 115.584 25.0258 115.75 25.367C115.917 25.7081 116.001 26.1075 116.001 26.5649C116.001 27.0185 115.917 27.415 115.75 27.7543C115.584 28.0936 115.351 28.3575 115.052 28.5462C114.755 28.7349 114.408 28.8293 114.011 28.8293ZM114.011 28.2232C114.313 28.2232 114.56 28.146 114.755 27.9916C114.949 27.8372 115.093 27.6342 115.187 27.3826C115.28 27.131 115.327 26.8584 115.327 26.5649C115.327 26.2714 115.28 25.9979 115.187 25.7444C115.093 25.4909 114.949 25.286 114.755 25.1297C114.56 24.9734 114.313 24.8952 114.011 24.8952C113.71 24.8952 113.463 24.9734 113.268 25.1297C113.074 25.286 112.93 25.4909 112.836 25.7444C112.743 25.9979 112.696 26.2714 112.696 26.5649C112.696 26.8584 112.743 27.131 112.836 27.3826C112.93 27.6342 113.074 27.8372 113.268 27.9916C113.463 28.146 113.71 28.2232 114.011 28.2232ZM118.831 28.8293C118.465 28.8293 118.142 28.7368 117.862 28.552C117.582 28.3652 117.362 28.1021 117.204 27.7629C117.046 27.4217 116.967 27.0185 116.967 26.5535C116.967 26.0922 117.046 25.6919 117.204 25.3527C117.362 25.0134 117.583 24.7513 117.865 24.5664C118.147 24.3815 118.473 24.2891 118.842 24.2891C119.128 24.2891 119.354 24.3367 119.52 24.432C119.688 24.5254 119.815 24.6322 119.903 24.7523C119.993 24.8704 120.062 24.9676 120.112 25.0439H120.169V22.8824H120.844V28.7378H120.192V28.0631H120.112C120.062 28.1431 119.992 28.2441 119.9 28.3661C119.809 28.4862 119.678 28.5939 119.509 28.6892C119.339 28.7826 119.113 28.8293 118.831 28.8293ZM118.923 28.2232C119.193 28.2232 119.422 28.1526 119.609 28.0116C119.795 27.8686 119.937 27.6714 120.035 27.4198C120.132 27.1663 120.18 26.8737 120.18 26.542C120.18 26.2142 120.133 25.9273 120.038 25.6815C119.942 25.4337 119.801 25.2412 119.614 25.1039C119.428 24.9648 119.197 24.8952 118.923 24.8952C118.637 24.8952 118.398 24.9686 118.208 25.1154C118.019 25.2602 117.877 25.4575 117.782 25.7072C117.688 25.955 117.642 26.2333 117.642 26.542C117.642 26.8546 117.689 27.1386 117.785 27.394C117.882 27.6475 118.025 27.8496 118.213 28.0002C118.404 28.1488 118.64 28.2232 118.923 28.2232ZM126.013 28.8407C125.735 28.8407 125.482 28.7883 125.255 28.6835C125.028 28.5767 124.848 28.4233 124.715 28.2232C124.581 28.0211 124.515 27.7771 124.515 27.4912C124.515 27.2396 124.564 27.0357 124.663 26.8794C124.762 26.7212 124.895 26.5973 125.061 26.5077C125.227 26.4181 125.41 26.3514 125.61 26.3076C125.812 26.2618 126.015 26.2256 126.219 26.1989C126.485 26.1646 126.702 26.1389 126.868 26.1218C127.035 26.1027 127.157 26.0712 127.234 26.0274C127.312 25.9836 127.351 25.9073 127.351 25.7987V25.7758C127.351 25.4937 127.274 25.2745 127.119 25.1182C126.967 24.9619 126.735 24.8838 126.425 24.8838C126.102 24.8838 125.85 24.9543 125.667 25.0953C125.484 25.2364 125.355 25.387 125.281 25.5471L124.64 25.3184C124.755 25.0515 124.907 24.8438 125.098 24.6951C125.29 24.5445 125.5 24.4397 125.727 24.3806C125.956 24.3196 126.181 24.2891 126.402 24.2891C126.543 24.2891 126.705 24.3062 126.888 24.3406C127.073 24.373 127.251 24.4406 127.422 24.5435C127.596 24.6465 127.74 24.8018 127.854 25.0096C127.968 25.2173 128.026 25.4956 128.026 25.8444V28.7378H127.351V28.1431H127.317C127.271 28.2384 127.195 28.3404 127.088 28.449C126.981 28.5577 126.839 28.6501 126.662 28.7264C126.485 28.8026 126.268 28.8407 126.013 28.8407ZM126.116 28.2346C126.383 28.2346 126.607 28.1822 126.79 28.0773C126.975 27.9725 127.114 27.8372 127.208 27.6714C127.303 27.5055 127.351 27.3311 127.351 27.1482V26.5306C127.322 26.5649 127.259 26.5964 127.162 26.6249C127.067 26.6516 126.956 26.6755 126.83 26.6964C126.707 26.7155 126.586 26.7326 126.467 26.7479C126.351 26.7612 126.257 26.7727 126.184 26.7822C126.009 26.8051 125.845 26.8422 125.693 26.8937C125.542 26.9433 125.42 27.0185 125.327 27.1196C125.235 27.2187 125.189 27.354 125.189 27.5256C125.189 27.76 125.276 27.9373 125.45 28.0573C125.625 28.1755 125.847 28.2346 126.116 28.2346ZM131.308 24.3463V24.9181H129.033V24.3463H131.308ZM129.696 23.2941H130.371V27.4798C130.371 27.6704 130.398 27.8134 130.454 27.9087C130.511 28.0021 130.583 28.065 130.671 28.0974C130.76 28.1279 130.855 28.1431 130.954 28.1431C131.028 28.1431 131.089 28.1393 131.137 28.1317C131.185 28.1221 131.223 28.1145 131.251 28.1088L131.388 28.7149C131.343 28.7321 131.279 28.7492 131.197 28.7664C131.115 28.7854 131.011 28.795 130.885 28.795C130.695 28.795 130.508 28.754 130.325 28.672C130.144 28.5901 129.993 28.4652 129.873 28.2975C129.755 28.1298 129.696 27.9182 129.696 27.6628V23.2941ZM136.78 24.3463V24.9181H134.505V24.3463H136.78ZM135.168 23.2941H135.843V27.4798C135.843 27.6704 135.87 27.8134 135.926 27.9087C135.983 28.0021 136.055 28.065 136.143 28.0974C136.232 28.1279 136.327 28.1431 136.426 28.1431C136.5 28.1431 136.561 28.1393 136.609 28.1317C136.657 28.1221 136.695 28.1145 136.723 28.1088L136.861 28.7149C136.815 28.7321 136.751 28.7492 136.669 28.7664C136.587 28.7854 136.483 28.795 136.357 28.795C136.167 28.795 135.98 28.754 135.797 28.672C135.616 28.5901 135.465 28.4652 135.345 28.2975C135.227 28.1298 135.168 27.9182 135.168 27.6628V23.2941ZM138.706 26.096V28.7378H138.031V22.8824H138.706V25.0324H138.763C138.866 24.8056 139.02 24.6255 139.226 24.4921C139.434 24.3568 139.71 24.2891 140.055 24.2891C140.355 24.2891 140.617 24.3491 140.842 24.4692C141.067 24.5874 141.241 24.7694 141.365 25.0153C141.491 25.2593 141.554 25.57 141.554 25.9473V28.7378H140.879V25.9931C140.879 25.6443 140.788 25.3746 140.607 25.184C140.428 24.9915 140.179 24.8952 139.861 24.8952C139.64 24.8952 139.442 24.9419 139.266 25.0353C139.093 25.1287 138.956 25.265 138.855 25.4442C138.755 25.6233 138.706 25.8406 138.706 26.096ZM142.929 28.7378V24.3463H143.604V28.7378H142.929ZM143.272 23.6144C143.141 23.6144 143.028 23.5696 142.932 23.48C142.839 23.3904 142.792 23.2827 142.792 23.1569C142.792 23.0311 142.839 22.9234 142.932 22.8338C143.028 22.7442 143.141 22.6995 143.272 22.6995C143.404 22.6995 143.516 22.7442 143.61 22.8338C143.705 22.9234 143.753 23.0311 143.753 23.1569C143.753 23.2827 143.705 23.3904 143.61 23.48C143.516 23.5696 143.404 23.6144 143.272 23.6144ZM148.092 25.3298L147.486 25.5013C147.448 25.4003 147.392 25.3022 147.317 25.2069C147.245 25.1096 147.146 25.0296 147.02 24.9667C146.894 24.9038 146.733 24.8723 146.537 24.8723C146.268 24.8723 146.044 24.9343 145.865 25.0582C145.688 25.1802 145.599 25.3355 145.599 25.5242C145.599 25.6919 145.66 25.8244 145.782 25.9216C145.904 26.0188 146.095 26.0998 146.354 26.1646L147.006 26.3247C147.398 26.42 147.691 26.5659 147.883 26.7622C148.076 26.9566 148.172 27.2072 148.172 27.5141C148.172 27.7657 148.1 27.9906 147.955 28.1889C147.812 28.3871 147.612 28.5434 147.354 28.6577C147.097 28.7721 146.798 28.8293 146.457 28.8293C146.009 28.8293 145.638 28.7321 145.344 28.5377C145.051 28.3432 144.865 28.0592 144.787 27.6857L145.427 27.5256C145.488 27.7619 145.604 27.9392 145.773 28.0573C145.945 28.1755 146.169 28.2346 146.445 28.2346C146.76 28.2346 147.009 28.1679 147.194 28.0345C147.381 27.8991 147.474 27.7371 147.474 27.5484C147.474 27.3959 147.421 27.2682 147.314 27.1653C147.208 27.0605 147.044 26.9823 146.823 26.9309L146.091 26.7593C145.689 26.664 145.393 26.5163 145.204 26.3162C145.018 26.1141 144.924 25.8616 144.924 25.5585C144.924 25.3107 144.994 25.0915 145.133 24.9009C145.274 24.7103 145.466 24.5607 145.708 24.4521C145.952 24.3434 146.228 24.2891 146.537 24.2891C146.971 24.2891 147.312 24.3844 147.56 24.575C147.81 24.7656 147.987 25.0172 148.092 25.3298ZM150.221 22.8824L150.164 27.091H149.501L149.444 22.8824H150.221ZM149.832 28.7835C149.691 28.7835 149.57 28.733 149.469 28.632C149.368 28.531 149.318 28.41 149.318 28.2689C149.318 28.1279 149.368 28.0068 149.469 27.9058C149.57 27.8048 149.691 27.7543 149.832 27.7543C149.973 27.7543 150.094 27.8048 150.195 27.9058C150.297 28.0068 150.347 28.1279 150.347 28.2689C150.347 28.3623 150.323 28.4481 150.276 28.5262C150.23 28.6044 150.168 28.6673 150.09 28.7149C150.013 28.7607 149.928 28.7835 149.832 28.7835ZM152.603 22.8824L152.546 27.091H151.883L151.826 22.8824H152.603ZM152.215 28.7835C152.074 28.7835 151.953 28.733 151.852 28.632C151.75 28.531 151.7 28.41 151.7 28.2689C151.7 28.1279 151.75 28.0068 151.852 27.9058C151.953 27.8048 152.074 27.7543 152.215 27.7543C152.356 27.7543 152.477 27.8048 152.578 27.9058C152.679 28.0068 152.729 28.1279 152.729 28.2689C152.729 28.3623 152.705 28.4481 152.658 28.5262C152.612 28.6044 152.55 28.6673 152.472 28.7149C152.396 28.7607 152.31 28.7835 152.215 28.7835Z" fill="#39414E"/>
<path d="M54.7451 18.6434V15.5577H55.3257V16.0479H55.3578C55.4141 15.8818 55.5132 15.7512 55.6551 15.6562C55.7985 15.5597 55.9605 15.5115 56.1413 15.5115C56.1788 15.5115 56.223 15.5128 56.2739 15.5155C56.3261 15.5182 56.367 15.5216 56.3964 15.5256V16.1001C56.3723 16.0934 56.3295 16.0861 56.2679 16.078C56.2063 16.0687 56.1447 16.064 56.0831 16.064C55.9411 16.064 55.8145 16.0941 55.7034 16.1544C55.5935 16.2133 55.5065 16.2957 55.4422 16.4015C55.3779 16.5059 55.3458 16.6251 55.3458 16.7591V18.6434H54.7451ZM57.0577 18.6434V15.5577H57.6342V16.0599H57.6724C57.7367 15.8899 57.8418 15.7573 57.9878 15.6622C58.1338 15.5658 58.3086 15.5175 58.5122 15.5175C58.7184 15.5175 58.8912 15.5658 59.0305 15.6622C59.1711 15.7586 59.2749 15.8912 59.3418 16.0599H59.374C59.4476 15.8952 59.5648 15.764 59.7255 15.6662C59.8863 15.5671 60.0778 15.5175 60.3001 15.5175C60.58 15.5175 60.8084 15.6053 60.9851 15.7807C61.1633 15.9562 61.2523 16.2207 61.2523 16.5742V18.6434H60.6517V16.6305C60.6517 16.4216 60.5947 16.2702 60.4809 16.1765C60.3671 16.0827 60.2311 16.0358 60.0731 16.0358C59.8776 16.0358 59.7255 16.0961 59.6171 16.2166C59.5086 16.3358 59.4543 16.4892 59.4543 16.6767V18.6434H58.8557V16.5923C58.8557 16.4249 58.8034 16.2903 58.699 16.1885C58.5945 16.0867 58.4586 16.0358 58.2912 16.0358C58.1773 16.0358 58.0722 16.066 57.9758 16.1262C57.8807 16.1852 57.8037 16.2675 57.7447 16.3733C57.6871 16.4791 57.6584 16.6017 57.6584 16.741V18.6434H57.0577ZM62.1988 18.6434V15.5577H62.7995V18.6434H62.1988ZM62.5022 15.0816C62.3977 15.0816 62.308 15.0468 62.233 14.9771C62.1593 14.9062 62.1225 14.8218 62.1225 14.724C62.1225 14.6249 62.1593 14.5405 62.233 14.4709C62.308 14.3999 62.3977 14.3644 62.5022 14.3644C62.6067 14.3644 62.6957 14.3999 62.7694 14.4709C62.8444 14.5405 62.8819 14.6249 62.8819 14.724C62.8819 14.8218 62.8444 14.9062 62.7694 14.9771C62.6957 15.0468 62.6067 15.0816 62.5022 15.0816ZM66.0613 16.3111L65.5169 16.4075C65.4941 16.3378 65.458 16.2716 65.4084 16.2086C65.3602 16.1457 65.2946 16.0941 65.2115 16.0539C65.1285 16.0137 65.0247 15.9937 64.9001 15.9937C64.7301 15.9937 64.5881 16.0318 64.4743 16.1082C64.3604 16.1832 64.3035 16.2803 64.3035 16.3995C64.3035 16.5026 64.3417 16.5856 64.418 16.6486C64.4943 16.7115 64.6176 16.7631 64.7876 16.8033L65.2778 16.9158C65.5618 16.9814 65.7734 17.0825 65.9127 17.2191C66.0519 17.3557 66.1216 17.5332 66.1216 17.7515C66.1216 17.9363 66.068 18.101 65.9609 18.2457C65.8551 18.389 65.7071 18.5015 65.5169 18.5832C65.3281 18.6649 65.1091 18.7057 64.86 18.7057C64.5144 18.7057 64.2325 18.632 64.0142 18.4847C63.7959 18.3361 63.662 18.1251 63.6124 17.8519L64.193 17.7635C64.2292 17.9149 64.3035 18.0294 64.416 18.107C64.5285 18.1834 64.6751 18.2216 64.856 18.2216C65.0528 18.2216 65.2102 18.1807 65.3281 18.099C65.4459 18.016 65.5048 17.9149 65.5048 17.7957C65.5048 17.6992 65.4687 17.6182 65.3964 17.5526C65.3254 17.487 65.2162 17.4374 65.0689 17.4039L64.5466 17.2894C64.2586 17.2238 64.0457 17.1193 63.9077 16.976C63.7711 16.8327 63.7028 16.6512 63.7028 16.4316C63.7028 16.2495 63.7537 16.0901 63.8555 15.9535C63.9573 15.8169 64.0979 15.7104 64.2774 15.6341C64.4568 15.5564 64.6624 15.5175 64.8941 15.5175C65.2276 15.5175 65.4901 15.5899 65.6816 15.7345C65.8731 15.8778 65.9997 16.07 66.0613 16.3111ZM66.9234 18.6434V15.5577H67.5V16.0599H67.5382C67.6025 15.8899 67.7076 15.7573 67.8536 15.6622C67.9996 15.5658 68.1743 15.5175 68.3779 15.5175C68.5842 15.5175 68.7569 15.5658 68.8962 15.6622C69.0368 15.7586 69.1406 15.8912 69.2076 16.0599H69.2397C69.3134 15.8952 69.4306 15.764 69.5913 15.6662C69.752 15.5671 69.9435 15.5175 70.1659 15.5175C70.4458 15.5175 70.6741 15.6053 70.8509 15.7807C71.029 15.9562 71.1181 16.2207 71.1181 16.5742V18.6434H70.5174V16.6305C70.5174 16.4216 70.4605 16.2702 70.3467 16.1765C70.2328 16.0827 70.0969 16.0358 69.9388 16.0358C69.7433 16.0358 69.5913 16.0961 69.4828 16.2166C69.3743 16.3358 69.3201 16.4892 69.3201 16.6767V18.6434H68.7214V16.5923C68.7214 16.4249 68.6692 16.2903 68.5647 16.1885C68.4603 16.0867 68.3243 16.0358 68.1569 16.0358C68.0431 16.0358 67.938 16.066 67.8415 16.1262C67.7464 16.1852 67.6694 16.2675 67.6105 16.3733C67.5529 16.4791 67.5241 16.6017 67.5241 16.741V18.6434H66.9234ZM73.3644 18.7057C73.0751 18.7057 72.8226 18.6394 72.607 18.5068C72.3914 18.3742 72.224 18.1887 72.1048 17.9504C71.9856 17.712 71.926 17.4334 71.926 17.1146C71.926 16.7945 71.9856 16.5146 72.1048 16.2749C72.224 16.0352 72.3914 15.849 72.607 15.7164C72.8226 15.5838 73.0751 15.5175 73.3644 15.5175C73.6537 15.5175 73.9061 15.5838 74.1217 15.7164C74.3374 15.849 74.5048 16.0352 74.624 16.2749C74.7432 16.5146 74.8028 16.7945 74.8028 17.1146C74.8028 17.4334 74.7432 17.712 74.624 17.9504C74.5048 18.1887 74.3374 18.3742 74.1217 18.5068C73.9061 18.6394 73.6537 18.7057 73.3644 18.7057ZM73.3664 18.2015C73.5539 18.2015 73.7092 18.1519 73.8325 18.0528C73.9557 17.9537 74.0467 17.8218 74.1057 17.657C74.1659 17.4923 74.1961 17.3108 74.1961 17.1126C74.1961 16.9158 74.1659 16.7349 74.1057 16.5702C74.0467 16.4041 73.9557 16.2709 73.8325 16.1704C73.7092 16.07 73.5539 16.0198 73.3664 16.0198C73.1775 16.0198 73.0209 16.07 72.8963 16.1704C72.7731 16.2709 72.6813 16.4041 72.6211 16.5702C72.5621 16.7349 72.5327 16.9158 72.5327 17.1126C72.5327 17.3108 72.5621 17.4923 72.6211 17.657C72.6813 17.8218 72.7731 17.9537 72.8963 18.0528C73.0209 18.1519 73.1775 18.2015 73.3664 18.2015ZM75.6629 18.6434V14.5291H76.2636V16.0579H76.2997C76.3345 15.9937 76.3848 15.9193 76.4504 15.8349C76.516 15.7506 76.6071 15.6769 76.7236 15.614C76.8401 15.5497 76.9941 15.5175 77.1857 15.5175C77.4348 15.5175 77.6571 15.5805 77.8526 15.7064C78.0482 15.8323 78.2015 16.0137 78.3127 16.2508C78.4252 16.4878 78.4814 16.7731 78.4814 17.1066C78.4814 17.4401 78.4258 17.726 78.3147 17.9644C78.2035 18.2015 78.0508 18.3843 77.8566 18.5129C77.6625 18.6401 77.4408 18.7037 77.1917 18.7037C77.0042 18.7037 76.8508 18.6722 76.7316 18.6093C76.6138 18.5463 76.5214 18.4727 76.4544 18.3883C76.3874 18.3039 76.3359 18.2289 76.2997 18.1633H76.2495V18.6434H75.6629ZM76.2515 17.1006C76.2515 17.3175 76.283 17.5077 76.3459 17.6711C76.4089 17.8345 76.5 17.9624 76.6191 18.0548C76.7383 18.1459 76.8843 18.1914 77.0571 18.1914C77.2366 18.1914 77.3866 18.1439 77.5071 18.0488C77.6276 17.9524 77.7187 17.8218 77.7803 17.657C77.8433 17.4923 77.8747 17.3068 77.8747 17.1006C77.8747 16.897 77.8439 16.7142 77.7823 16.5521C77.722 16.3901 77.631 16.2622 77.5091 16.1684C77.3886 16.0747 77.2379 16.0278 77.0571 16.0278C76.883 16.0278 76.7357 16.0727 76.6151 16.1624C76.4959 16.2521 76.4055 16.3774 76.3439 16.5381C76.2823 16.6988 76.2515 16.8863 76.2515 17.1006ZM81.6096 16.3111L81.0652 16.4075C81.0424 16.3378 81.0063 16.2716 80.9567 16.2086C80.9085 16.1457 80.8429 16.0941 80.7599 16.0539C80.6768 16.0137 80.573 15.9937 80.4485 15.9937C80.2784 15.9937 80.1364 16.0318 80.0226 16.1082C79.9087 16.1832 79.8518 16.2803 79.8518 16.3995C79.8518 16.5026 79.89 16.5856 79.9663 16.6486C80.0427 16.7115 80.1659 16.7631 80.336 16.8033L80.8262 16.9158C81.1101 16.9814 81.3217 17.0825 81.461 17.2191C81.6003 17.3557 81.6699 17.5332 81.6699 17.7515C81.6699 17.9363 81.6163 18.101 81.5092 18.2457C81.4034 18.389 81.2554 18.5015 81.0652 18.5832C80.8764 18.6649 80.6574 18.7057 80.4083 18.7057C80.0628 18.7057 79.7808 18.632 79.5625 18.4847C79.3442 18.3361 79.2103 18.1251 79.1607 17.8519L79.7413 17.7635C79.7775 17.9149 79.8518 18.0294 79.9643 18.107C80.0768 18.1834 80.2235 18.2216 80.4043 18.2216C80.6011 18.2216 80.7585 18.1807 80.8764 18.099C80.9942 18.016 81.0532 17.9149 81.0532 17.7957C81.0532 17.6992 81.017 17.6182 80.9447 17.5526C80.8737 17.487 80.7645 17.4374 80.6172 17.4039L80.0949 17.2894C79.807 17.2238 79.594 17.1193 79.4561 16.976C79.3195 16.8327 79.2511 16.6512 79.2511 16.4316C79.2511 16.2495 79.302 16.0901 79.4038 15.9535C79.5056 15.8169 79.6462 15.7104 79.8257 15.6341C80.0052 15.5564 80.2107 15.5175 80.4424 15.5175C80.7759 15.5175 81.0384 15.5899 81.2299 15.7345C81.4215 15.8778 81.548 16.07 81.6096 16.3111Z" fill="#89929F"/>
<circle cx="39.1253" cy="49.299" r="9.60283" fill="#FF723F" stroke="#FAFAFB" stroke-width="0.955083"/>
<path d="M35.3256 52.2155H34.4997L36.3554 47.059H37.2542L39.1099 52.2155H38.284L36.8262 47.9956H36.7859L35.3256 52.2155ZM35.4641 50.1962H38.143V50.8508H35.4641V50.1962ZM39.8545 52.2155V47.059H41.7429C42.1088 47.059 42.4118 47.1194 42.6518 47.2403C42.8918 47.3594 43.0714 47.5214 43.1906 47.7262C43.3098 47.9293 43.3694 48.1584 43.3694 48.4136C43.3694 48.6284 43.3299 48.8097 43.251 48.9574C43.1721 49.1034 43.0664 49.2209 42.9338 49.3099C42.8029 49.3972 42.6585 49.461 42.5007 49.5013V49.5516C42.6719 49.56 42.8389 49.6154 43.0018 49.7178C43.1663 49.8185 43.3022 49.962 43.4096 50.1483C43.5171 50.3347 43.5708 50.5613 43.5708 50.8281C43.5708 51.0917 43.5087 51.3283 43.3845 51.5382C43.2619 51.7463 43.0723 51.9116 42.8154 52.0342C42.5586 52.155 42.2305 52.2155 41.831 52.2155H39.8545ZM40.6325 51.5482H41.7554C42.1281 51.5482 42.395 51.4761 42.5561 51.3317C42.7172 51.1873 42.7978 51.0069 42.7978 50.7904C42.7978 50.6276 42.7567 50.4782 42.6744 50.3422C42.5922 50.2062 42.4747 50.098 42.3219 50.0174C42.1709 49.9368 41.9913 49.8966 41.7831 49.8966H40.6325V51.5482ZM40.6325 49.2898H41.6749C41.8494 49.2898 42.0064 49.2562 42.1457 49.189C42.2867 49.1219 42.3983 49.0279 42.4806 48.9071C42.5645 48.7845 42.6065 48.6402 42.6065 48.474C42.6065 48.2608 42.5318 48.082 42.3824 47.9377C42.233 47.7933 42.0039 47.7212 41.695 47.7212H40.6325V49.2898Z" fill="white"/>
<path d="M55.0739 50.665V50.036H59.4654V50.665H57.6242V55.8914H56.9151V50.665H55.0739ZM61.2844 53.2496V55.8914H60.6097V50.036H61.2844V52.186H61.3416C61.4445 51.9592 61.5989 51.7791 61.8047 51.6457C62.0125 51.5103 62.2889 51.4427 62.6339 51.4427C62.9331 51.4427 63.1952 51.5027 63.4201 51.6228C63.645 51.741 63.8194 51.923 63.9433 52.1689C64.0691 52.4128 64.132 52.7235 64.132 53.1009V55.8914H63.4573V53.1467C63.4573 52.7979 63.3667 52.5281 63.1857 52.3375C63.0065 52.145 62.7578 52.0488 62.4395 52.0488C62.2184 52.0488 62.0201 52.0955 61.8448 52.1889C61.6713 52.2823 61.5341 52.4186 61.4331 52.5977C61.3339 52.7769 61.2844 52.9942 61.2844 53.2496ZM66.8001 55.9943C66.5219 55.9943 66.2693 55.9419 66.0425 55.837C65.8157 55.7303 65.6356 55.5769 65.5021 55.3767C65.3687 55.1747 65.302 54.9307 65.302 54.6448C65.302 54.3932 65.3516 54.1893 65.4507 54.033C65.5498 53.8748 65.6822 53.7509 65.8481 53.6613C66.0139 53.5717 66.1969 53.505 66.397 53.4612C66.5991 53.4154 66.802 53.3792 67.006 53.3525C67.2728 53.3182 67.4892 53.2925 67.655 53.2753C67.8227 53.2563 67.9447 53.2248 68.021 53.181C68.0991 53.1371 68.1382 53.0609 68.1382 52.9522V52.9294C68.1382 52.6473 68.061 52.4281 67.9066 52.2718C67.7541 52.1155 67.5225 52.0373 67.2118 52.0373C66.8897 52.0373 66.6372 52.1079 66.4542 52.2489C66.2712 52.39 66.1426 52.5405 66.0682 52.7006L65.4278 52.4719C65.5422 52.2051 65.6946 51.9973 65.8852 51.8486C66.0778 51.6981 66.2874 51.5932 66.5142 51.5341C66.743 51.4732 66.9679 51.4427 67.189 51.4427C67.33 51.4427 67.492 51.4598 67.675 51.4941C67.8599 51.5265 68.0381 51.5942 68.2097 51.6971C68.3831 51.8 68.527 51.9554 68.6414 52.1631C68.7557 52.3709 68.8129 52.6492 68.8129 52.998V55.8914H68.1382V55.2967H68.1039C68.0581 55.392 67.9819 55.4939 67.8751 55.6026C67.7684 55.7112 67.6264 55.8037 67.4491 55.8799C67.2719 55.9562 67.0556 55.9943 66.8001 55.9943ZM66.9031 55.3882C67.1699 55.3882 67.3948 55.3357 67.5778 55.2309C67.7627 55.1261 67.9018 54.9908 67.9952 54.8249C68.0905 54.6591 68.1382 54.4847 68.1382 54.3017V53.6842C68.1096 53.7185 68.0467 53.7499 67.9495 53.7785C67.8542 53.8052 67.7436 53.829 67.6178 53.85C67.4939 53.869 67.3729 53.8862 67.2547 53.9015C67.1385 53.9148 67.0441 53.9262 66.9717 53.9358C66.7963 53.9586 66.6324 53.9958 66.4799 54.0473C66.3294 54.0968 66.2074 54.1721 66.114 54.2731C66.0225 54.3722 65.9767 54.5076 65.9767 54.6791C65.9767 54.9136 66.0635 55.0908 66.2369 55.2109C66.4123 55.3291 66.6343 55.3882 66.9031 55.3882ZM70.8606 53.2496V55.8914H70.1859V51.4998H70.8378V52.186H70.8949C70.9979 51.963 71.1542 51.7838 71.3638 51.6485C71.5735 51.5113 71.8441 51.4427 72.1758 51.4427C72.4731 51.4427 72.7333 51.5037 72.9563 51.6256C73.1793 51.7457 73.3528 51.9287 73.4767 52.1746C73.6006 52.4186 73.6625 52.7273 73.6625 53.1009V55.8914H72.9878V53.1467C72.9878 52.8017 72.8982 52.5329 72.719 52.3404C72.5399 52.146 72.294 52.0488 71.9814 52.0488C71.766 52.0488 71.5735 52.0955 71.4039 52.1889C71.2361 52.2823 71.1036 52.4186 71.0064 52.5977C70.9092 52.7769 70.8606 52.9942 70.8606 53.2496ZM75.6659 54.2903L75.6545 53.4554H75.7917L77.713 51.4998H78.5478L76.5007 53.5698H76.4436L75.6659 54.2903ZM75.0369 55.8914V50.036H75.7116V55.8914H75.0369ZM77.8274 55.8914L76.1119 53.7185L76.5922 53.2496L78.6851 55.8914H77.8274ZM82.6684 52.4834L82.0622 52.6549C82.0241 52.5539 81.9679 52.4557 81.8936 52.3604C81.8211 52.2632 81.722 52.1832 81.5962 52.1203C81.4704 52.0574 81.3094 52.0259 81.113 52.0259C80.8443 52.0259 80.6203 52.0879 80.4412 52.2117C80.2639 52.3337 80.1753 52.4891 80.1753 52.6778C80.1753 52.8455 80.2363 52.978 80.3582 53.0752C80.4802 53.1724 80.6708 53.2534 80.9301 53.3182L81.5819 53.4783C81.9746 53.5736 82.2671 53.7194 82.4597 53.9157C82.6522 54.1102 82.7484 54.3608 82.7484 54.6677C82.7484 54.9193 82.676 55.1442 82.5311 55.3424C82.3882 55.5406 82.188 55.6969 81.9307 55.8113C81.6734 55.9257 81.3742 55.9828 81.033 55.9828C80.5851 55.9828 80.2143 55.8856 79.9208 55.6912C79.6273 55.4968 79.4414 55.2128 79.3633 54.8392L80.0037 54.6791C80.0647 54.9155 80.18 55.0927 80.3497 55.2109C80.5212 55.3291 80.7452 55.3882 81.0215 55.3882C81.336 55.3882 81.5857 55.3215 81.7706 55.188C81.9574 55.0527 82.0508 54.8907 82.0508 54.702C82.0508 54.5495 81.9974 54.4218 81.8907 54.3189C81.784 54.214 81.62 54.1359 81.3989 54.0844L80.667 53.9129C80.2648 53.8176 79.9694 53.6699 79.7807 53.4697C79.5939 53.2677 79.5005 53.0151 79.5005 52.7121C79.5005 52.4643 79.5701 52.2451 79.7092 52.0545C79.8503 51.8639 80.0418 51.7143 80.2839 51.6056C80.5279 51.497 80.8043 51.4427 81.113 51.4427C81.5476 51.4427 81.8888 51.538 82.1366 51.7286C82.3863 51.9192 82.5635 52.1708 82.6684 52.4834ZM88.2669 51.4998V52.0717H85.8996V51.4998H88.2669ZM86.6087 55.8914V50.8937C86.6087 50.6421 86.6678 50.4325 86.7859 50.2647C86.9041 50.097 87.0575 49.9712 87.2462 49.8873C87.4349 49.8035 87.6341 49.7615 87.8438 49.7615C88.0096 49.7615 88.1449 49.7749 88.2498 49.8016C88.3546 49.8282 88.4328 49.853 88.4842 49.8759L88.2898 50.4591C88.2555 50.4477 88.2078 50.4334 88.1468 50.4163C88.0878 50.3991 88.0096 50.3905 87.9124 50.3905C87.6894 50.3905 87.5283 50.4468 87.4292 50.5592C87.332 50.6717 87.2834 50.8365 87.2834 51.0538V55.8914H86.6087ZM90.9572 55.9828C90.5608 55.9828 90.2129 55.8885 89.9137 55.6998C89.6163 55.5111 89.3838 55.2471 89.216 54.9078C89.0502 54.5686 88.9673 54.1721 88.9673 53.7185C88.9673 53.261 89.0502 52.8617 89.216 52.5205C89.3838 52.1793 89.6163 51.9144 89.9137 51.7257C90.2129 51.537 90.5608 51.4427 90.9572 51.4427C91.3537 51.4427 91.7006 51.537 91.9979 51.7257C92.2972 51.9144 92.5297 52.1793 92.6955 52.5205C92.8633 52.8617 92.9471 53.261 92.9471 53.7185C92.9471 54.1721 92.8633 54.5686 92.6955 54.9078C92.5297 55.2471 92.2972 55.5111 91.9979 55.6998C91.7006 55.8885 91.3537 55.9828 90.9572 55.9828ZM90.9572 55.3767C91.2584 55.3767 91.5062 55.2995 91.7006 55.1451C91.895 54.9908 92.0389 54.7878 92.1323 54.5362C92.2257 54.2846 92.2724 54.012 92.2724 53.7185C92.2724 53.4249 92.2257 53.1514 92.1323 52.8979C92.0389 52.6444 91.895 52.4395 91.7006 52.2832C91.5062 52.1269 91.2584 52.0488 90.9572 52.0488C90.6561 52.0488 90.4083 52.1269 90.2139 52.2832C90.0194 52.4395 89.8755 52.6444 89.7821 52.8979C89.6887 53.1514 89.642 53.4249 89.642 53.7185C89.642 54.012 89.6887 54.2846 89.7821 54.5362C89.8755 54.7878 90.0194 54.9908 90.2139 55.1451C90.4083 55.2995 90.6561 55.3767 90.9572 55.3767ZM94.1185 55.8914V51.4998H94.7704V52.1631H94.8161C94.8962 51.9459 95.0411 51.7695 95.2507 51.6342C95.4604 51.4989 95.6967 51.4312 95.9598 51.4312C96.0093 51.4312 96.0713 51.4322 96.1456 51.4341C96.2199 51.436 96.2762 51.4388 96.3143 51.4427V52.1288C96.2914 52.1231 96.239 52.1145 96.157 52.1031C96.077 52.0898 95.9922 52.0831 95.9026 52.0831C95.6891 52.0831 95.4985 52.1279 95.3308 52.2175C95.1649 52.3051 95.0334 52.4271 94.9362 52.5834C94.8409 52.7378 94.7933 52.9141 94.7933 53.1123V55.8914H94.1185ZM101.571 51.4998V52.0717H99.2954V51.4998H101.571ZM99.9587 50.4477H100.633V54.6334C100.633 54.824 100.661 54.9669 100.716 55.0622C100.774 55.1556 100.846 55.2185 100.934 55.2509C101.023 55.2814 101.118 55.2967 101.217 55.2967C101.291 55.2967 101.352 55.2929 101.4 55.2852C101.447 55.2757 101.485 55.2681 101.514 55.2624L101.651 55.8685C101.606 55.8856 101.542 55.9028 101.46 55.9199C101.378 55.939 101.274 55.9485 101.148 55.9485C100.957 55.9485 100.771 55.9076 100.588 55.8256C100.407 55.7436 100.256 55.6188 100.136 55.4511C100.018 55.2833 99.9587 55.0718 99.9587 54.8164V50.4477ZM103.497 53.2496V55.8914H102.822V50.036H103.497V52.186H103.554C103.657 51.9592 103.811 51.7791 104.017 51.6457C104.225 51.5103 104.501 51.4427 104.846 51.4427C105.145 51.4427 105.407 51.5027 105.632 51.6228C105.857 51.741 106.032 51.923 106.156 52.1689C106.281 52.4128 106.344 52.7235 106.344 53.1009V55.8914H105.67V53.1467C105.67 52.7979 105.579 52.5281 105.398 52.3375C105.219 52.145 104.97 52.0488 104.652 52.0488C104.431 52.0488 104.232 52.0955 104.057 52.1889C103.884 52.2823 103.746 52.4186 103.645 52.5977C103.546 52.7769 103.497 52.9942 103.497 53.2496ZM109.561 55.9828C109.138 55.9828 108.773 55.8895 108.466 55.7027C108.161 55.514 107.926 55.2509 107.76 54.9136C107.596 54.5743 107.514 54.1797 107.514 53.7299C107.514 53.2801 107.596 52.8836 107.76 52.5405C107.926 52.1955 108.157 51.9268 108.452 51.7343C108.749 51.5399 109.096 51.4427 109.493 51.4427C109.721 51.4427 109.947 51.4808 110.17 51.557C110.393 51.6333 110.596 51.7572 110.779 51.9287C110.962 52.0983 111.108 52.3232 111.217 52.6034C111.325 52.8836 111.38 53.2286 111.38 53.6384V53.9243H107.995V53.3411H110.694C110.694 53.0933 110.644 52.8722 110.545 52.6778C110.448 52.4834 110.309 52.3299 110.127 52.2175C109.948 52.105 109.737 52.0488 109.493 52.0488C109.224 52.0488 108.991 52.1155 108.795 52.2489C108.601 52.3804 108.451 52.552 108.346 52.7635C108.241 52.9751 108.189 53.2019 108.189 53.444V53.8328C108.189 54.1645 108.246 54.4456 108.361 54.6763C108.477 54.905 108.638 55.0794 108.844 55.1995C109.05 55.3176 109.289 55.3767 109.561 55.3767C109.739 55.3767 109.899 55.3519 110.042 55.3024C110.187 55.2509 110.311 55.1747 110.416 55.0737C110.521 54.9707 110.602 54.843 110.659 54.6906L111.311 54.8735C111.242 55.0946 111.127 55.289 110.965 55.4568C110.803 55.6226 110.603 55.7522 110.365 55.8456C110.127 55.9371 109.859 55.9828 109.561 55.9828ZM116.863 51.4998V52.0717H114.587V51.4998H116.863ZM115.251 50.4477H115.925V54.6334C115.925 54.824 115.953 54.9669 116.008 55.0622C116.066 55.1556 116.138 55.2185 116.226 55.2509C116.315 55.2814 116.41 55.2967 116.509 55.2967C116.583 55.2967 116.644 55.2929 116.692 55.2852C116.739 55.2757 116.777 55.2681 116.806 55.2624L116.943 55.8685C116.898 55.8856 116.834 55.9028 116.752 55.9199C116.67 55.939 116.566 55.9485 116.44 55.9485C116.249 55.9485 116.063 55.9076 115.88 55.8256C115.699 55.7436 115.548 55.6188 115.428 55.4511C115.31 55.2833 115.251 55.0718 115.251 54.8164V50.4477ZM118.02 55.8914V51.4998H118.694V55.8914H118.02ZM118.363 50.7679C118.231 50.7679 118.118 50.7231 118.022 50.6335C117.929 50.544 117.882 50.4363 117.882 50.3105C117.882 50.1847 117.929 50.077 118.022 49.9874C118.118 49.8978 118.231 49.853 118.363 49.853C118.494 49.853 118.607 49.8978 118.7 49.9874C118.795 50.077 118.843 50.1847 118.843 50.3105C118.843 50.4363 118.795 50.544 118.7 50.6335C118.607 50.7231 118.494 50.7679 118.363 50.7679ZM120.072 57.5382V51.4998H120.723V52.1974H120.804C120.853 52.1212 120.922 52.024 121.009 51.9058C121.099 51.7857 121.227 51.679 121.392 51.5856C121.56 51.4903 121.787 51.4427 122.073 51.4427C122.443 51.4427 122.769 51.5351 123.051 51.72C123.333 51.9049 123.553 52.167 123.711 52.5062C123.869 52.8455 123.949 53.2458 123.949 53.707C123.949 54.1721 123.869 54.5752 123.711 54.9164C123.553 55.2557 123.334 55.5187 123.054 55.7055C122.773 55.8904 122.45 55.9828 122.084 55.9828C121.802 55.9828 121.576 55.9361 121.407 55.8428C121.237 55.7475 121.107 55.6398 121.015 55.5197C120.924 55.3977 120.853 55.2967 120.804 55.2166H120.746V57.5382H120.072ZM120.735 53.6956C120.735 54.0272 120.784 54.3198 120.881 54.5733C120.978 54.8249 121.12 55.0222 121.307 55.1652C121.494 55.3062 121.722 55.3767 121.993 55.3767C122.275 55.3767 122.51 55.3024 122.699 55.1537C122.89 55.0031 123.033 54.8011 123.128 54.5476C123.225 54.2922 123.274 54.0082 123.274 53.6956C123.274 53.3868 123.226 53.1085 123.131 52.8608C123.037 52.6111 122.895 52.4138 122.705 52.2689C122.516 52.1222 122.279 52.0488 121.993 52.0488C121.718 52.0488 121.488 52.1183 121.301 52.2575C121.114 52.3947 120.973 52.5872 120.878 52.835C120.783 53.0809 120.735 53.3678 120.735 53.6956ZM128.23 52.4834L127.624 52.6549C127.586 52.5539 127.529 52.4557 127.455 52.3604C127.383 52.2632 127.283 52.1832 127.158 52.1203C127.032 52.0574 126.871 52.0259 126.675 52.0259C126.406 52.0259 126.182 52.0879 126.003 52.2117C125.825 52.3337 125.737 52.4891 125.737 52.6778C125.737 52.8455 125.798 52.978 125.92 53.0752C126.042 53.1724 126.232 53.2534 126.492 53.3182L127.143 53.4783C127.536 53.5736 127.829 53.7194 128.021 53.9157C128.214 54.1102 128.31 54.3608 128.31 54.6677C128.31 54.9193 128.237 55.1442 128.093 55.3424C127.95 55.5406 127.75 55.6969 127.492 55.8113C127.235 55.9257 126.936 55.9828 126.594 55.9828C126.147 55.9828 125.776 55.8856 125.482 55.6912C125.189 55.4968 125.003 55.2128 124.925 54.8392L125.565 54.6791C125.626 54.9155 125.742 55.0927 125.911 55.2109C126.083 55.3291 126.307 55.3882 126.583 55.3882C126.898 55.3882 127.147 55.3215 127.332 55.188C127.519 55.0527 127.612 54.8907 127.612 54.702C127.612 54.5495 127.559 54.4218 127.452 54.3189C127.345 54.214 127.182 54.1359 126.96 54.0844L126.229 53.9129C125.826 53.8176 125.531 53.6699 125.342 53.4697C125.155 53.2677 125.062 53.0151 125.062 52.7121C125.062 52.4643 125.132 52.2451 125.271 52.0545C125.412 51.8639 125.603 51.7143 125.845 51.6056C126.089 51.497 126.366 51.4427 126.675 51.4427C127.109 51.4427 127.45 51.538 127.698 51.7286C127.948 51.9192 128.125 52.1708 128.23 52.4834ZM130.359 50.036L130.302 54.2445H129.639L129.581 50.036H130.359ZM129.97 55.9371C129.829 55.9371 129.708 55.8866 129.607 55.7856C129.506 55.6846 129.456 55.5635 129.456 55.4225C129.456 55.2814 129.506 55.1604 129.607 55.0594C129.708 54.9584 129.829 54.9078 129.97 54.9078C130.111 54.9078 130.232 54.9584 130.333 55.0594C130.434 55.1604 130.485 55.2814 130.485 55.4225C130.485 55.5159 130.461 55.6016 130.413 55.6798C130.368 55.7579 130.306 55.8208 130.228 55.8685C130.151 55.9142 130.066 55.9371 129.97 55.9371Z" fill="#39414E"/>
<path d="M55.9868 45.8751C55.7913 45.8751 55.6145 45.8389 55.4565 45.7666C55.2985 45.6929 55.1732 45.5864 55.0808 45.4472C54.9897 45.3079 54.9442 45.1371 54.9442 44.9349C54.9442 44.7608 54.9777 44.6175 55.0447 44.505C55.1116 44.3925 55.202 44.3034 55.3159 44.2378C55.4297 44.1722 55.5569 44.1226 55.6976 44.0891C55.8382 44.0556 55.9815 44.0302 56.1275 44.0128C56.3123 43.9914 56.4623 43.9739 56.5775 43.9606C56.6927 43.9458 56.7764 43.9224 56.8286 43.8902C56.8808 43.8581 56.9069 43.8059 56.9069 43.7335V43.7195C56.9069 43.544 56.8574 43.4081 56.7583 43.3117C56.6605 43.2152 56.5145 43.167 56.3203 43.167C56.1181 43.167 55.9587 43.2119 55.8422 43.3016C55.727 43.39 55.6473 43.4885 55.6031 43.5969L55.0386 43.4684C55.1056 43.2809 55.2034 43.1295 55.3319 43.0143C55.4618 42.8978 55.6112 42.8135 55.7799 42.7612C55.9487 42.7077 56.1261 42.6809 56.3123 42.6809C56.4355 42.6809 56.5661 42.6956 56.704 42.7251C56.8433 42.7532 56.9732 42.8054 57.0938 42.8818C57.2156 42.9581 57.3154 43.0673 57.3931 43.2092C57.4708 43.3498 57.5096 43.5327 57.5096 43.7577V45.8068H56.923V45.3849H56.8989C56.8601 45.4626 56.8018 45.5389 56.7241 45.6139C56.6464 45.6889 56.5467 45.7512 56.4248 45.8007C56.3029 45.8503 56.1569 45.8751 55.9868 45.8751ZM56.1174 45.3929C56.2835 45.3929 56.4255 45.3601 56.5433 45.2945C56.6625 45.2289 56.7529 45.1431 56.8145 45.0373C56.8775 44.9302 56.9089 44.8157 56.9089 44.6938V44.296C56.8875 44.3175 56.846 44.3376 56.7844 44.3563C56.7241 44.3737 56.6552 44.3891 56.5775 44.4025C56.4998 44.4146 56.4241 44.426 56.3505 44.4367C56.2768 44.446 56.2152 44.4541 56.1656 44.4608C56.0491 44.4755 55.9426 44.5003 55.8462 44.5351C55.7511 44.5699 55.6748 44.6202 55.6172 44.6858C55.561 44.7501 55.5328 44.8358 55.5328 44.9429C55.5328 45.0916 55.5877 45.2041 55.6976 45.2804C55.8074 45.3554 55.9473 45.3929 56.1174 45.3929ZM58.4511 45.8068V42.721H59.0277V43.2233H59.0658C59.1301 43.0532 59.2353 42.9206 59.3812 42.8255C59.5272 42.7291 59.702 42.6809 59.9056 42.6809C60.1118 42.6809 60.2846 42.7291 60.4239 42.8255C60.5645 42.9219 60.6683 43.0545 60.7353 43.2233H60.7674C60.8411 43.0585 60.9582 42.9273 61.119 42.8295C61.2797 42.7304 61.4712 42.6809 61.6935 42.6809C61.9734 42.6809 62.2018 42.7686 62.3786 42.944C62.5567 43.1195 62.6457 43.384 62.6457 43.7376V45.8068H62.0451V43.7938C62.0451 43.5849 61.9882 43.4335 61.8743 43.3398C61.7605 43.246 61.6245 43.1992 61.4665 43.1992C61.271 43.1992 61.119 43.2594 61.0105 43.38C60.902 43.4992 60.8478 43.6525 60.8478 43.84V45.8068H60.2491V43.7556C60.2491 43.5882 60.1969 43.4536 60.0924 43.3518C59.9879 43.2501 59.852 43.1992 59.6846 43.1992C59.5707 43.1992 59.4656 43.2293 59.3692 43.2896C59.2741 43.3485 59.1971 43.4309 59.1382 43.5367C59.0806 43.6425 59.0518 43.765 59.0518 43.9043V45.8068H58.4511ZM63.6405 45.8068V41.6925H64.2411V43.2213H64.2773C64.3121 43.157 64.3623 43.0827 64.428 42.9983C64.4936 42.9139 64.5847 42.8402 64.7012 42.7773C64.8177 42.713 64.9717 42.6809 65.1632 42.6809C65.4123 42.6809 65.6347 42.7438 65.8302 42.8697C66.0257 42.9956 66.1791 43.1771 66.2903 43.4141C66.4028 43.6512 66.459 43.9364 66.459 44.2699C66.459 44.6034 66.4034 44.8894 66.2923 45.1277C66.1811 45.3648 66.0284 45.5476 65.8342 45.6762C65.64 45.8034 65.4184 45.867 65.1693 45.867C64.9818 45.867 64.8284 45.8356 64.7092 45.7726C64.5914 45.7097 64.499 45.636 64.432 45.5516C64.365 45.4673 64.3135 45.3923 64.2773 45.3266H64.2271V45.8068H63.6405ZM64.2291 44.2639C64.2291 44.4809 64.2606 44.671 64.3235 44.8344C64.3865 44.9978 64.4775 45.1257 64.5967 45.2181C64.7159 45.3092 64.8619 45.3548 65.0347 45.3548C65.2141 45.3548 65.3641 45.3072 65.4847 45.2121C65.6052 45.1157 65.6963 44.9851 65.7579 44.8204C65.8208 44.6556 65.8523 44.4702 65.8523 44.2639C65.8523 44.0603 65.8215 43.8775 65.7599 43.7155C65.6996 43.5534 65.6086 43.4255 65.4867 43.3318C65.3661 43.238 65.2155 43.1911 65.0347 43.1911C64.8606 43.1911 64.7132 43.236 64.5927 43.3257C64.4735 43.4155 64.3831 43.5407 64.3215 43.7014C64.2599 43.8621 64.2291 44.0496 64.2291 44.2639ZM68.1729 45.8751C67.9774 45.8751 67.8006 45.8389 67.6426 45.7666C67.4845 45.6929 67.3593 45.5864 67.2669 45.4472C67.1758 45.3079 67.1303 45.1371 67.1303 44.9349C67.1303 44.7608 67.1638 44.6175 67.2307 44.505C67.2977 44.3925 67.3881 44.3034 67.5019 44.2378C67.6158 44.1722 67.743 44.1226 67.8836 44.0891C68.0243 44.0556 68.1676 44.0302 68.3135 44.0128C68.4984 43.9914 68.6484 43.9739 68.7635 43.9606C68.8787 43.9458 68.9624 43.9224 69.0147 43.8902C69.0669 43.8581 69.093 43.8059 69.093 43.7335V43.7195C69.093 43.544 69.0435 43.4081 68.9443 43.3117C68.8466 43.2152 68.7006 43.167 68.5064 43.167C68.3042 43.167 68.1448 43.2119 68.0283 43.3016C67.9131 43.39 67.8334 43.4885 67.7892 43.5969L67.2247 43.4684C67.2917 43.2809 67.3894 43.1295 67.518 43.0143C67.6479 42.8978 67.7973 42.8135 67.966 42.7612C68.1348 42.7077 68.3122 42.6809 68.4984 42.6809C68.6216 42.6809 68.7522 42.6956 68.8901 42.7251C69.0294 42.7532 69.1593 42.8054 69.2798 42.8818C69.4017 42.9581 69.5015 43.0673 69.5792 43.2092C69.6569 43.3498 69.6957 43.5327 69.6957 43.7577V45.8068H69.1091V45.3849H69.085C69.0461 45.4626 68.9879 45.5389 68.9102 45.6139C68.8325 45.6889 68.7327 45.7512 68.6109 45.8007C68.489 45.8503 68.343 45.8751 68.1729 45.8751ZM68.3035 45.3929C68.4696 45.3929 68.6115 45.3601 68.7294 45.2945C68.8486 45.2289 68.939 45.1431 69.0006 45.0373C69.0635 44.9302 69.095 44.8157 69.095 44.6938V44.296C69.0736 44.3175 69.0321 44.3376 68.9705 44.3563C68.9102 44.3737 68.8412 44.3891 68.7635 44.4025C68.6859 44.4146 68.6102 44.426 68.5365 44.4367C68.4629 44.446 68.4013 44.4541 68.3517 44.4608C68.2352 44.4755 68.1287 44.5003 68.0323 44.5351C67.9372 44.5699 67.8609 44.6202 67.8033 44.6858C67.747 44.7501 67.7189 44.8358 67.7189 44.9429C67.7189 45.0916 67.7738 45.2041 67.8836 45.2804C67.9935 45.3554 68.1334 45.3929 68.3035 45.3929ZM71.937 45.869C71.6383 45.869 71.3811 45.8014 71.1655 45.6661C70.9512 45.5295 70.7865 45.3414 70.6713 45.1016C70.5561 44.8619 70.4986 44.5873 70.4986 44.278C70.4986 43.9646 70.5575 43.688 70.6753 43.4483C70.7932 43.2072 70.9593 43.019 71.1736 42.8838C71.3878 42.7485 71.6403 42.6809 71.9309 42.6809C72.1653 42.6809 72.3742 42.7244 72.5577 42.8114C72.7412 42.8972 72.8892 43.0177 73.0017 43.1731C73.1155 43.3284 73.1832 43.5099 73.2046 43.7175H72.62C72.5878 43.5728 72.5142 43.4483 72.399 43.3438C72.2852 43.2393 72.1325 43.1871 71.941 43.1871C71.7736 43.1871 71.6269 43.2313 71.501 43.3197C71.3765 43.4068 71.2794 43.5313 71.2097 43.6934C71.1401 43.8541 71.1053 44.0443 71.1053 44.2639C71.1053 44.4889 71.1394 44.6831 71.2077 44.8465C71.276 45.0099 71.3724 45.1364 71.497 45.2262C71.6229 45.3159 71.7709 45.3608 71.941 45.3608C72.0548 45.3608 72.1579 45.34 72.2503 45.2985C72.3441 45.2556 72.4224 45.1947 72.4854 45.1157C72.5497 45.0367 72.5945 44.9416 72.62 44.8304H73.2046C73.1832 45.03 73.1182 45.2081 73.0097 45.3648C72.9012 45.5215 72.7559 45.6447 72.5738 45.7344C72.393 45.8242 72.1807 45.869 71.937 45.869ZM74.5408 44.7601L74.5368 44.0268H74.6413L75.8707 42.721H76.5899L75.1877 44.2077H75.0933L74.5408 44.7601ZM73.9884 45.8068V41.6925H74.589V45.8068H73.9884ZM75.937 45.8068L74.8321 44.3402L75.246 43.9204L76.6743 45.8068H75.937ZM78.4816 45.869C78.1776 45.869 77.9158 45.8041 77.6962 45.6742C77.4779 45.5429 77.3091 45.3588 77.1899 45.1217C77.072 44.8833 77.0131 44.6041 77.0131 44.284C77.0131 43.9679 77.072 43.6893 77.1899 43.4483C77.3091 43.2072 77.4752 43.019 77.6881 42.8838C77.9024 42.7485 78.1529 42.6809 78.4395 42.6809C78.6136 42.6809 78.7823 42.7097 78.9457 42.7673C79.1091 42.8248 79.2558 42.9152 79.3857 43.0385C79.5156 43.1617 79.618 43.3217 79.693 43.5186C79.768 43.7141 79.8055 43.9518 79.8055 44.2318V44.4447H77.3526V43.9947H79.2169C79.2169 43.8367 79.1848 43.6967 79.1205 43.5748C79.0562 43.4516 78.9658 43.3545 78.8493 43.2835C78.7341 43.2126 78.5988 43.1771 78.4435 43.1771C78.2747 43.1771 78.1274 43.2186 78.0015 43.3016C77.877 43.3833 77.7805 43.4905 77.7122 43.6231C77.6453 43.7543 77.6118 43.8969 77.6118 44.051V44.4025C77.6118 44.6088 77.6479 44.7842 77.7203 44.9289C77.7939 45.0735 77.8964 45.184 78.0276 45.2603C78.1589 45.3353 78.3122 45.3728 78.4877 45.3728C78.6015 45.3728 78.7053 45.3568 78.7991 45.3246C78.8928 45.2911 78.9738 45.2416 79.0421 45.176C79.1104 45.1103 79.1627 45.0293 79.1988 44.9329L79.7674 45.0353C79.7218 45.2027 79.6401 45.3494 79.5223 45.4753C79.4058 45.5998 79.2591 45.6969 79.0823 45.7666C78.9069 45.8349 78.7066 45.869 78.4816 45.869ZM80.6134 45.8068V42.721H81.194V43.2112H81.2261C81.2824 43.0452 81.3815 42.9146 81.5235 42.8195C81.6668 42.7231 81.8288 42.6748 82.0096 42.6748C82.0471 42.6748 82.0913 42.6762 82.1422 42.6789C82.1945 42.6815 82.2353 42.6849 82.2648 42.6889V43.2635C82.2407 43.2568 82.1978 43.2494 82.1362 43.2414C82.0746 43.232 82.013 43.2273 81.9514 43.2273C81.8094 43.2273 81.6828 43.2574 81.5717 43.3177C81.4619 43.3766 81.3748 43.459 81.3105 43.5648C81.2462 43.6693 81.2141 43.7885 81.2141 43.9224V45.8068H80.6134Z" fill="#89929F"/>
<circle cx="59.3778" cy="66.6532" r="4.5707" fill="#F8C100" stroke="#FAFAFB" stroke-width="0.454595"/>
<path d="M57.6074 67.7576V65.3033H57.9777V67.4389H59.0899V67.7576H57.6074ZM59.5123 67.7576V65.3033H60.3871C60.5773 65.3033 60.7351 65.336 60.8605 65.4015C60.9867 65.4671 61.081 65.5577 61.1433 65.6736C61.2057 65.7886 61.2368 65.9217 61.2368 66.0727C61.2368 66.2229 61.2053 66.3551 61.1421 66.4693C61.0798 66.5828 60.9856 66.6711 60.8593 66.7342C60.7339 66.7973 60.5761 66.8289 60.3859 66.8289H59.7232V66.5101H60.3524C60.4722 66.5101 60.5697 66.4929 60.6448 66.4585C60.7207 66.4242 60.7762 66.3743 60.8114 66.3087C60.8465 66.2432 60.8641 66.1645 60.8641 66.0727C60.8641 65.98 60.8461 65.8997 60.8102 65.8318C60.775 65.7639 60.7195 65.7119 60.6436 65.676C60.5685 65.6392 60.4698 65.6209 60.3476 65.6209H59.8826V67.7576H59.5123ZM60.7239 66.6503L61.3303 67.7576H60.9085L60.314 66.6503H60.7239Z" fill="white"/>
<circle cx="66.1842" cy="66.6532" r="4.5707" fill="#FF723F" stroke="#FAFAFB" stroke-width="0.454595"/>
<path d="M65.0419 67.7576H64.2474V65.3033H65.0671C65.3076 65.3033 65.5141 65.3524 65.6867 65.4507C65.8593 65.5482 65.9915 65.6884 66.0834 65.8713C66.176 66.0535 66.2224 66.272 66.2224 66.5269C66.2224 66.7825 66.1756 67.0022 66.0822 67.186C65.9895 67.3697 65.8553 67.5112 65.6795 67.6102C65.5037 67.7085 65.2912 67.7576 65.0419 67.7576ZM64.6177 67.4341H65.0216C65.2085 67.4341 65.3639 67.3989 65.4877 67.3286C65.6116 67.2575 65.7043 67.1548 65.7658 67.0206C65.8273 66.8856 65.8581 66.721 65.8581 66.5269C65.8581 66.3343 65.8273 66.1709 65.7658 66.0367C65.7051 65.9025 65.6144 65.8006 65.4937 65.7311C65.3731 65.6616 65.2233 65.6269 65.0443 65.6269H64.6177V67.4341ZM66.6829 67.7576V65.3033H68.2049V65.6221H67.0532V66.3699H68.0958V66.6874H67.0532V67.7576H66.6829Z" fill="white"/>
<circle cx="72.9909" cy="66.6532" r="4.5707" fill="#791BF0" stroke="#FAFAFB" stroke-width="0.454595"/>
<path d="M70.5943 67.7576V65.3033H72.1331V65.6221H70.9646V66.3699H72.0528V66.6874H70.9646V67.4389H72.1474V67.7576H70.5943ZM73.1083 67.7576L72.4276 65.3033H72.817L73.2952 67.204H73.318L73.8153 65.3033H74.2012L74.6986 67.2052H74.7213L75.1983 65.3033H75.589L74.9071 67.7576H74.5344L74.0179 65.9193H73.9987L73.4822 67.7576H73.1083Z" fill="white"/>
<path d="M82.0073 68.7047C81.7549 68.7047 81.5294 68.6612 81.3309 68.5742C81.1336 68.4872 80.9774 68.3665 80.8622 68.2121C80.7483 68.0565 80.687 67.8764 80.6784 67.6717H81.2555C81.2629 67.7832 81.3003 67.88 81.3677 67.9621C81.4363 68.043 81.5257 68.1055 81.636 68.1496C81.7463 68.1937 81.8688 68.2158 82.0036 68.2158C82.1519 68.2158 82.283 68.19 82.3969 68.1386C82.5121 68.0871 82.6022 68.0154 82.6671 67.9235C82.732 67.8304 82.7645 67.7232 82.7645 67.6019C82.7645 67.4757 82.732 67.3648 82.6671 67.2692C82.6034 67.1724 82.5096 67.0964 82.3859 67.0413C82.2634 66.9862 82.1151 66.9586 81.9411 66.9586H81.6231V66.4954H81.9411C82.0808 66.4954 82.2033 66.4703 82.3087 66.4201C82.4153 66.3698 82.4986 66.3 82.5587 66.2105C82.6187 66.1199 82.6487 66.0139 82.6487 65.8926C82.6487 65.7762 82.6224 65.6751 82.5697 65.5893C82.5182 65.5023 82.4447 65.4343 82.3491 65.3853C82.2548 65.3363 82.1433 65.3118 82.0146 65.3118C81.8921 65.3118 81.7775 65.3344 81.6709 65.3798C81.5655 65.4239 81.4798 65.4876 81.4136 65.5709C81.3474 65.653 81.3119 65.7517 81.307 65.8668H80.7574C80.7636 65.6634 80.8236 65.4845 80.9376 65.3302C81.0527 65.1758 81.2047 65.0551 81.3934 64.9681C81.5821 64.8811 81.7916 64.8376 82.022 64.8376C82.2634 64.8376 82.4717 64.8848 82.6469 64.9791C82.8233 65.0722 82.9593 65.1966 83.0549 65.3522C83.1517 65.5078 83.1995 65.6781 83.1983 65.8632C83.1995 66.0739 83.1407 66.2528 83.0218 66.3998C82.9042 66.5469 82.7474 66.6455 82.5513 66.6958V66.7252C82.8013 66.7632 82.9949 66.8624 83.1321 67.0229C83.2706 67.1834 83.3392 67.3825 83.338 67.6203C83.3392 67.8273 83.2816 68.013 83.1652 68.1772C83.05 68.3414 82.8926 68.4706 82.6928 68.565C82.4931 68.6581 82.2646 68.7047 82.0073 68.7047ZM85.4098 68.6532V65.8301H85.941V66.2785H85.9704C86.0218 66.1266 86.1125 66.0071 86.2424 65.9201C86.3735 65.8319 86.5218 65.7878 86.6872 65.7878C86.7215 65.7878 86.7619 65.789 86.8085 65.7915C86.8563 65.7939 86.8937 65.797 86.9206 65.8007V66.3263C86.8986 66.3202 86.8594 66.3135 86.803 66.3061C86.7466 66.2975 86.6903 66.2932 86.6339 66.2932C86.504 66.2932 86.3882 66.3208 86.2865 66.376C86.186 66.4299 86.1064 66.5052 86.0476 66.602C85.9888 66.6976 85.9594 66.8067 85.9594 66.9292V68.6532H85.4098ZM88.5118 68.7102C88.2337 68.7102 87.9941 68.6507 87.7932 68.5319C87.5935 68.4118 87.4391 68.2433 87.33 68.0265C87.2222 67.8083 87.1683 67.5529 87.1683 67.26C87.1683 66.9708 87.2222 66.716 87.33 66.4954C87.4391 66.2749 87.591 66.1027 87.7858 65.979C87.9819 65.8552 88.211 65.7933 88.4732 65.7933C88.6325 65.7933 88.7869 65.8197 88.9364 65.8724C89.0859 65.925 89.2201 66.0077 89.3389 66.1205C89.4578 66.2332 89.5515 66.3796 89.6201 66.5598C89.6887 66.7386 89.7231 66.9561 89.7231 67.2122V67.4071H87.4789V66.9954H89.1845C89.1845 66.8508 89.1551 66.7227 89.0963 66.6112C89.0375 66.4985 88.9548 66.4097 88.8482 66.3447C88.7428 66.2798 88.6191 66.2473 88.4769 66.2473C88.3225 66.2473 88.1877 66.2853 88.0726 66.3613C87.9586 66.436 87.8704 66.534 87.8079 66.6553C87.7466 66.7754 87.716 66.9059 87.716 67.0468V67.3685C87.716 67.5572 87.7491 67.7177 87.8152 67.85C87.8826 67.9823 87.9764 68.0834 88.0965 68.1533C88.2165 68.2219 88.3568 68.2562 88.5174 68.2562C88.6215 68.2562 88.7165 68.2415 88.8022 68.2121C88.888 68.1815 88.9621 68.1361 89.0246 68.0761C89.0871 68.016 89.1349 67.9419 89.168 67.8537L89.6881 67.9474C89.6465 68.1006 89.5717 68.2348 89.4639 68.3499C89.3573 68.4639 89.2231 68.5527 89.0614 68.6164C88.9009 68.6789 88.7177 68.7102 88.5118 68.7102ZM90.3328 69.7119V65.8301H90.8695V66.2877H90.9154C90.9473 66.2289 90.9932 66.1609 91.0533 66.0837C91.1133 66.0065 91.1966 65.9391 91.3033 65.8815C91.4099 65.8227 91.5508 65.7933 91.726 65.7933C91.9539 65.7933 92.1573 65.8509 92.3362 65.9661C92.5151 66.0813 92.6554 66.2473 92.7571 66.4642C92.86 66.6811 92.9115 66.942 92.9115 67.2472C92.9115 67.5523 92.8606 67.8139 92.7589 68.032C92.6572 68.2488 92.5175 68.4161 92.3399 68.5337C92.1622 68.6501 91.9594 68.7083 91.7315 68.7083C91.56 68.7083 91.4197 68.6795 91.3106 68.622C91.2028 68.5644 91.1182 68.497 91.057 68.4198C90.9957 68.3426 90.9485 68.274 90.9154 68.2139H90.8824V69.7119H90.3328ZM90.8713 67.2416C90.8713 67.4401 90.9001 67.6141 90.9577 67.7636C91.0153 67.9131 91.0986 68.0301 91.2077 68.1147C91.3167 68.198 91.4503 68.2397 91.6084 68.2397C91.7725 68.2397 91.9098 68.1962 92.0201 68.1092C92.1303 68.0209 92.2137 67.9015 92.27 67.7508C92.3276 67.6 92.3564 67.4303 92.3564 67.2416C92.3564 67.0554 92.3282 66.8881 92.2719 66.7399C92.2167 66.5916 92.1334 66.4746 92.0219 66.3888C91.9116 66.303 91.7738 66.2602 91.6084 66.2602C91.4491 66.2602 91.3143 66.3012 91.204 66.3833C91.0949 66.4654 91.0122 66.58 90.9559 66.727C90.8995 66.874 90.8713 67.0456 90.8713 67.2416ZM94.0767 64.889V68.6532H93.5272V64.889H94.0767ZM94.8161 68.6532V65.8301H95.3656V68.6532H94.8161ZM95.0936 65.3945C94.998 65.3945 94.9159 65.3626 94.8473 65.2989C94.7799 65.234 94.7462 65.1568 94.7462 65.0673C94.7462 64.9766 94.7799 64.8995 94.8473 64.8357C94.9159 64.7708 94.998 64.7383 95.0936 64.7383C95.1892 64.7383 95.2707 64.7708 95.3381 64.8357C95.4067 64.8995 95.441 64.9766 95.441 65.0673C95.441 65.1568 95.4067 65.234 95.3381 65.2989C95.2707 65.3626 95.1892 65.3945 95.0936 65.3945ZM97.3217 68.7102C97.0435 68.7102 96.804 68.6507 96.603 68.5319C96.4033 68.4118 96.2489 68.2433 96.1399 68.0265C96.032 67.8083 95.9781 67.5529 95.9781 67.26C95.9781 66.9708 96.032 66.716 96.1399 66.4954C96.2489 66.2749 96.4009 66.1027 96.5957 65.979C96.7917 65.8552 97.0209 65.7933 97.2831 65.7933C97.4424 65.7933 97.5968 65.8197 97.7462 65.8724C97.8957 65.925 98.0299 66.0077 98.1488 66.1205C98.2676 66.2332 98.3614 66.3796 98.43 66.5598C98.4986 66.7386 98.5329 66.9561 98.5329 67.2122V67.4071H96.2887V66.9954H97.9944C97.9944 66.8508 97.965 66.7227 97.9062 66.6112C97.8473 66.4985 97.7646 66.4097 97.658 66.3447C97.5526 66.2798 97.4289 66.2473 97.2868 66.2473C97.1324 66.2473 96.9976 66.2853 96.8824 66.3613C96.7684 66.436 96.6802 66.534 96.6177 66.6553C96.5565 66.7754 96.5258 66.9059 96.5258 67.0468V67.3685C96.5258 67.5572 96.5589 67.7177 96.6251 67.85C96.6925 67.9823 96.7862 68.0834 96.9063 68.1533C97.0264 68.2219 97.1667 68.2562 97.3272 68.2562C97.4313 68.2562 97.5263 68.2415 97.6121 68.2121C97.6978 68.1815 97.772 68.1361 97.8345 68.0761C97.897 68.016 97.9447 67.9419 97.9778 67.8537L98.498 67.9474C98.4563 68.1006 98.3816 68.2348 98.2737 68.3499C98.1671 68.4639 98.033 68.5527 97.8712 68.6164C97.7107 68.6789 97.5275 68.7102 97.3217 68.7102ZM101.258 66.5193L100.76 66.6075C100.739 66.5438 100.706 66.4832 100.661 66.4256C100.617 66.368 100.557 66.3208 100.481 66.2841C100.405 66.2473 100.31 66.2289 100.196 66.2289C100.04 66.2289 99.9103 66.2638 99.8062 66.3337C99.702 66.4023 99.6499 66.4911 99.6499 66.6002C99.6499 66.6945 99.6848 66.7705 99.7547 66.8281C99.8245 66.8857 99.9373 66.9329 100.093 66.9696L100.541 67.0725C100.801 67.1326 100.995 67.2251 101.122 67.3501C101.25 67.4751 101.313 67.6374 101.313 67.8371C101.313 68.0062 101.264 68.1569 101.166 68.2893C101.069 68.4204 100.934 68.5233 100.76 68.5981C100.587 68.6728 100.387 68.7102 100.159 68.7102C99.8429 68.7102 99.585 68.6428 99.3853 68.508C99.1855 68.372 99.063 68.179 99.0177 67.929L99.5488 67.8482C99.5819 67.9866 99.6499 68.0914 99.7528 68.1625C99.8558 68.2323 99.9899 68.2672 100.155 68.2672C100.335 68.2672 100.479 68.2299 100.587 68.1551C100.695 68.0791 100.749 67.9866 100.749 67.8776C100.749 67.7894 100.716 67.7152 100.65 67.6552C100.585 67.5951 100.485 67.5498 100.35 67.5192L99.8723 67.4144C99.6089 67.3544 99.4141 67.2588 99.2878 67.1277C99.1629 66.9966 99.1004 66.8305 99.1004 66.6296C99.1004 66.463 99.1469 66.3171 99.2401 66.1922C99.3332 66.0672 99.4618 65.9698 99.626 65.8999C99.7902 65.8289 99.9783 65.7933 100.19 65.7933C100.495 65.7933 100.736 65.8595 100.911 65.9918C101.086 66.1229 101.202 66.2988 101.258 66.5193Z" fill="#667085"/>
<g filter="url(#filter1_dddd_2317_26)">
<rect x="8" y="82.1736" width="180" height="26" rx="13" fill="white"/>
<rect x="7.80913" y="81.9828" width="180.382" height="26.3817" rx="13.1909" stroke="#E7E6EB" stroke-width="0.381743"/>
</g>
<circle cx="173.615" cy="94.7886" r="10.6149" fill="#EDF1F7"/>
<path d="M170.927 94.2505L173.556 91.6213M173.556 91.6213L176.185 94.2505M173.556 91.6213V97.9313" stroke="#667085" stroke-width="1.05166" stroke-linecap="round" stroke-linejoin="round"/>
<path d="M21.0231 92.9805V92.3555H25.3867V92.9805H23.5572V98.1736H22.8526V92.9805H21.0231ZM26.315 99.81C26.2013 99.81 26.1 99.8005 26.011 99.7816C25.922 99.7646 25.8604 99.7475 25.8263 99.7305L25.9968 99.1396C26.1597 99.1812 26.3036 99.1964 26.4286 99.185C26.5536 99.1736 26.6644 99.1178 26.761 99.0174C26.8595 98.9189 26.9495 98.7589 27.0309 98.5373L27.1559 98.1964L25.5423 93.81H26.2695L27.4741 97.2873H27.5195L28.7241 93.81H29.4513L27.5991 98.81C27.5157 99.0354 27.4125 99.2219 27.2894 99.3697C27.1663 99.5193 27.0233 99.6301 26.8604 99.7021C26.6995 99.774 26.5176 99.81 26.315 99.81ZM30.3363 99.81V93.81H30.984V94.5032H31.0636C31.1128 94.4274 31.181 94.3308 31.2681 94.2134C31.3571 94.0941 31.484 93.988 31.6488 93.8952C31.8155 93.8005 32.0408 93.7532 32.3249 93.7532C32.6924 93.7532 33.0162 93.845 33.2965 94.0288C33.5768 94.2125 33.7956 94.4729 33.9528 94.81C34.11 95.1471 34.1886 95.5449 34.1886 96.0032C34.1886 96.4653 34.11 96.8659 33.9528 97.2049C33.7956 97.542 33.5778 97.8034 33.2994 97.989C33.021 98.1727 32.6999 98.2646 32.3363 98.2646C32.056 98.2646 31.8316 98.2182 31.663 98.1253C31.4944 98.0307 31.3647 97.9236 31.2738 97.8043C31.1829 97.6831 31.1128 97.5827 31.0636 97.5032H31.0067V99.81H30.3363ZM30.9954 95.9918C30.9954 96.3214 31.0437 96.6121 31.1403 96.864C31.2369 97.114 31.378 97.31 31.5636 97.4521C31.7492 97.5922 31.9764 97.6623 32.2454 97.6623C32.5257 97.6623 32.7596 97.5884 32.9471 97.4407C33.1365 97.2911 33.2785 97.0903 33.3732 96.8384C33.4698 96.5846 33.5181 96.3024 33.5181 95.9918C33.5181 95.685 33.4708 95.4085 33.3761 95.1623C33.2833 94.9142 33.1422 94.7182 32.9528 94.5742C32.7653 94.4284 32.5295 94.3555 32.2454 94.3555C31.9727 94.3555 31.7435 94.4246 31.5579 94.5628C31.3723 94.6992 31.2321 94.8905 31.1374 95.1367C31.0427 95.381 30.9954 95.6661 30.9954 95.9918ZM37.0408 98.2646C36.6204 98.2646 36.2577 98.1718 35.9528 97.9861C35.6497 97.7986 35.4158 97.5373 35.2511 97.2021C35.0882 96.8649 35.0067 96.4729 35.0067 96.0259C35.0067 95.5789 35.0882 95.185 35.2511 94.8441C35.4158 94.5013 35.645 94.2343 35.9386 94.043C36.234 93.8498 36.5787 93.7532 36.9727 93.7532C37.1999 93.7532 37.4244 93.7911 37.646 93.8668C37.8675 93.9426 38.0692 94.0657 38.2511 94.2361C38.4329 94.4047 38.5778 94.6282 38.6857 94.9066C38.7937 95.185 38.8477 95.5278 38.8477 95.935V96.2191H35.484V95.6396H38.1658C38.1658 95.3933 38.1166 95.1736 38.0181 94.9805C37.9215 94.7873 37.7833 94.6348 37.6033 94.5231C37.4253 94.4113 37.2151 94.3555 36.9727 94.3555C36.7056 94.3555 36.4746 94.4218 36.2795 94.5543C36.0863 94.685 35.9376 94.8555 35.8335 95.0657C35.7293 95.2759 35.6772 95.5013 35.6772 95.7418V96.1282C35.6772 96.4577 35.734 96.7371 35.8477 96.9663C35.9632 97.1935 36.1232 97.3668 36.3278 97.4861C36.5323 97.6036 36.77 97.6623 37.0408 97.6623C37.217 97.6623 37.3761 97.6377 37.5181 97.5884C37.6621 97.5373 37.7861 97.4615 37.8903 97.3611C37.9944 97.2589 38.0749 97.132 38.1317 96.9805L38.7795 97.1623C38.7113 97.382 38.5967 97.5752 38.4357 97.7418C38.2747 97.9066 38.0759 98.0354 37.8391 98.1282C37.6024 98.2191 37.3363 98.2646 37.0408 98.2646ZM45.2085 94.7873L44.6062 94.9577C44.5683 94.8574 44.5124 94.7598 44.4386 94.6651C44.3666 94.5685 44.2681 94.489 44.1431 94.4265C44.0181 94.364 43.8581 94.3327 43.663 94.3327C43.396 94.3327 43.1734 94.3943 42.9954 94.5174C42.8192 94.6386 42.7312 94.793 42.7312 94.9805C42.7312 95.1471 42.7918 95.2788 42.913 95.3753C43.0342 95.4719 43.2236 95.5524 43.4812 95.6168L44.1289 95.7759C44.5191 95.8706 44.8098 96.0155 45.0011 96.2106C45.1924 96.4038 45.288 96.6528 45.288 96.9577C45.288 97.2077 45.216 97.4312 45.0721 97.6282C44.93 97.8252 44.7312 97.9805 44.4755 98.0941C44.2198 98.2077 43.9225 98.2646 43.5835 98.2646C43.1384 98.2646 42.77 98.168 42.4783 97.9748C42.1867 97.7816 42.002 97.4994 41.9244 97.1282L42.5607 96.9691C42.6213 97.2039 42.7359 97.3801 42.9045 97.4975C43.0749 97.6149 43.2975 97.6736 43.5721 97.6736C43.8846 97.6736 44.1327 97.6074 44.3164 97.4748C44.502 97.3403 44.5948 97.1793 44.5948 96.9918C44.5948 96.8403 44.5418 96.7134 44.4357 96.6111C44.3297 96.507 44.1668 96.4293 43.9471 96.3782L43.2198 96.2077C42.8202 96.113 42.5266 95.9663 42.3391 95.7674C42.1535 95.5666 42.0607 95.3157 42.0607 95.0146C42.0607 94.7683 42.1299 94.5505 42.2681 94.3611C42.4083 94.1718 42.5986 94.0231 42.8391 93.9151C43.0816 93.8072 43.3562 93.7532 43.663 93.7532C44.0948 93.7532 44.4338 93.8479 44.68 94.0373C44.9281 94.2267 45.1043 94.4767 45.2085 94.7873ZM48.07 98.2646C47.676 98.2646 47.3304 98.1708 47.033 97.9833C46.7376 97.7958 46.5065 97.5335 46.3398 97.1964C46.1751 96.8593 46.0927 96.4653 46.0927 96.0146C46.0927 95.56 46.1751 95.1632 46.3398 94.8242C46.5065 94.4852 46.7376 94.2219 47.033 94.0344C47.3304 93.8469 47.676 93.7532 48.07 93.7532C48.4639 93.7532 48.8086 93.8469 49.104 94.0344C49.4014 94.2219 49.6325 94.4852 49.7972 94.8242C49.9639 95.1632 50.0472 95.56 50.0472 96.0146C50.0472 96.4653 49.9639 96.8593 49.7972 97.1964C49.6325 97.5335 49.4014 97.7958 49.104 97.9833C48.8086 98.1708 48.4639 98.2646 48.07 98.2646ZM48.07 97.6623C48.3692 97.6623 48.6154 97.5856 48.8086 97.4322C49.0018 97.2788 49.1448 97.0771 49.2376 96.8271C49.3304 96.5771 49.3768 96.3062 49.3768 96.0146C49.3768 95.7229 49.3304 95.4511 49.2376 95.1992C49.1448 94.9473 49.0018 94.7437 48.8086 94.5884C48.6154 94.4331 48.3692 94.3555 48.07 94.3555C47.7707 94.3555 47.5245 94.4331 47.3313 94.5884C47.1381 94.7437 46.9951 94.9473 46.9023 95.1992C46.8095 95.4511 46.7631 95.7229 46.7631 96.0146C46.7631 96.3062 46.8095 96.5771 46.9023 96.8271C46.9951 97.0771 47.1381 97.2788 47.3313 97.4322C47.5245 97.5856 47.7707 97.6623 48.07 97.6623ZM51.0707 98.1736V93.81H51.7184V94.4918H51.7752C51.8661 94.2589 52.0129 94.078 52.2156 93.9492C52.4182 93.8185 52.6616 93.7532 52.9457 93.7532C53.2335 93.7532 53.4731 93.8185 53.6644 93.9492C53.8576 94.078 54.0082 94.2589 54.1161 94.4918H54.1616C54.2733 94.2664 54.4409 94.0875 54.6644 93.9549C54.8879 93.8204 55.1559 93.7532 55.4684 93.7532C55.8585 93.7532 56.1777 93.8753 56.4258 94.1197C56.6739 94.3621 56.7979 94.7399 56.7979 95.2532V98.1736H56.1275V95.2532C56.1275 94.9312 56.0394 94.7011 55.8633 94.5628C55.6871 94.4246 55.4798 94.3555 55.2411 94.3555C54.9343 94.3555 54.6966 94.4483 54.5281 94.6339C54.3595 94.8176 54.2752 95.0505 54.2752 95.3327V98.1736H53.5934V95.185C53.5934 94.9369 53.5129 94.7371 53.3519 94.5856C53.1909 94.4322 52.9835 94.3555 52.7298 94.3555C52.5555 94.3555 52.3926 94.4019 52.2411 94.4947C52.0915 94.5875 51.9703 94.7163 51.8775 94.881C51.7866 95.0439 51.7411 95.2324 51.7411 95.4464V98.1736H51.0707ZM59.8533 98.2646C59.4329 98.2646 59.0702 98.1718 58.7653 97.9861C58.4622 97.7986 58.2283 97.5373 58.0636 97.2021C57.9007 96.8649 57.8192 96.4729 57.8192 96.0259C57.8192 95.5789 57.9007 95.185 58.0636 94.8441C58.2283 94.5013 58.4575 94.2343 58.7511 94.043C59.0465 93.8498 59.3912 93.7532 59.7852 93.7532C60.0124 93.7532 60.2369 93.7911 60.4585 93.8668C60.68 93.9426 60.8817 94.0657 61.0636 94.2361C61.2454 94.4047 61.3903 94.6282 61.4982 94.9066C61.6062 95.185 61.6602 95.5278 61.6602 95.935V96.2191H58.2965V95.6396H60.9783C60.9783 95.3933 60.9291 95.1736 60.8306 94.9805C60.734 94.7873 60.5958 94.6348 60.4158 94.5231C60.2378 94.4113 60.0276 94.3555 59.7852 94.3555C59.5181 94.3555 59.2871 94.4218 59.092 94.5543C58.8988 94.685 58.7501 94.8555 58.646 95.0657C58.5418 95.2759 58.4897 95.5013 58.4897 95.7418V96.1282C58.4897 96.4577 58.5465 96.7371 58.6602 96.9663C58.7757 97.1935 58.9357 97.3668 59.1403 97.4861C59.3448 97.6036 59.5825 97.6623 59.8533 97.6623C60.0295 97.6623 60.1886 97.6377 60.3306 97.5884C60.4746 97.5373 60.5986 97.4615 60.7028 97.3611C60.8069 97.2589 60.8874 97.132 60.9442 96.9805L61.592 97.1623C61.5238 97.382 61.4092 97.5752 61.2482 97.7418C61.0872 97.9066 60.8884 98.0354 60.6516 98.1282C60.4149 98.2191 60.1488 98.2646 59.8533 98.2646ZM64.5778 93.81V94.3782H62.3164V93.81H64.5778ZM62.9755 92.7646H63.646V96.9236C63.646 97.113 63.6734 97.2551 63.7283 97.3498C63.7852 97.4426 63.8571 97.5051 63.9442 97.5373C64.0333 97.5676 64.127 97.5827 64.2255 97.5827C64.2994 97.5827 64.36 97.5789 64.4073 97.5714C64.4547 97.5619 64.4925 97.5543 64.521 97.5486L64.6573 98.1509C64.6119 98.168 64.5484 98.185 64.467 98.2021C64.3855 98.221 64.2823 98.2305 64.1573 98.2305C63.9679 98.2305 63.7823 98.1897 63.6005 98.1083C63.4206 98.0269 63.271 97.9028 63.1516 97.7361C63.0342 97.5695 62.9755 97.3593 62.9755 97.1055V92.7646ZM66.3505 95.5486V98.1736H65.68V92.3555H66.3505V94.4918H66.4073C66.5096 94.2664 66.663 94.0875 66.8675 93.9549C67.074 93.8204 67.3486 93.7532 67.6914 93.7532C67.9888 93.7532 68.2492 93.8128 68.4727 93.9322C68.6961 94.0496 68.8694 94.2305 68.9925 94.4748C69.1175 94.7172 69.18 95.0259 69.18 95.4009V98.1736H68.5096V95.4464C68.5096 95.0998 68.4196 94.8318 68.2397 94.6424C68.0617 94.4511 67.8145 94.3555 67.4982 94.3555C67.2785 94.3555 67.0816 94.4019 66.9073 94.4947C66.735 94.5875 66.5986 94.7229 66.4982 94.9009C66.3997 95.0789 66.3505 95.2949 66.3505 95.5486ZM70.4066 98.1736V93.81H71.0771V98.1736H70.4066ZM70.7475 93.0827C70.6168 93.0827 70.5041 93.0382 70.4094 92.9492C70.3166 92.8602 70.2702 92.7532 70.2702 92.6282C70.2702 92.5032 70.3166 92.3962 70.4094 92.3072C70.5041 92.2182 70.6168 92.1736 70.7475 92.1736C70.8782 92.1736 70.9899 92.2182 71.0827 92.3072C71.1774 92.3962 71.2248 92.5032 71.2248 92.6282C71.2248 92.7532 71.1774 92.8602 71.0827 92.9492C70.9899 93.0382 70.8782 93.0827 70.7475 93.0827ZM72.9755 95.5486V98.1736H72.305V93.81H72.9528V94.4918H73.0096C73.1119 94.2702 73.2672 94.0922 73.4755 93.9577C73.6838 93.8214 73.9528 93.7532 74.2823 93.7532C74.5778 93.7532 74.8363 93.8138 75.0579 93.935C75.2795 94.0543 75.4518 94.2361 75.5749 94.4805C75.698 94.7229 75.7596 95.0297 75.7596 95.4009V98.1736H75.0891V95.4464C75.0891 95.1036 75.0001 94.8365 74.8221 94.6452C74.6441 94.4521 74.3997 94.3555 74.0891 94.3555C73.8751 94.3555 73.6838 94.4019 73.5153 94.4947C73.3486 94.5875 73.217 94.7229 73.1204 94.9009C73.0238 95.0789 72.9755 95.2949 72.9755 95.5486ZM78.7461 99.9009C78.4222 99.9009 78.1438 99.8593 77.9109 99.7759C77.6779 99.6945 77.4838 99.5865 77.3285 99.4521C77.1751 99.3195 77.0529 99.1774 76.962 99.0259L77.4961 98.6509C77.5567 98.7305 77.6334 98.8214 77.7262 98.9236C77.819 99.0278 77.9459 99.1178 78.1069 99.1935C78.2698 99.2712 78.4828 99.31 78.7461 99.31C79.0984 99.31 79.3891 99.2248 79.6183 99.0543C79.8474 98.8839 79.962 98.6168 79.962 98.2532V97.3668H79.9052C79.8559 97.4464 79.7859 97.5449 79.695 97.6623C79.6059 97.7778 79.4772 97.881 79.3086 97.9719C79.1419 98.061 78.9165 98.1055 78.6325 98.1055C78.2802 98.1055 77.9639 98.0221 77.6836 97.8555C77.4052 97.6888 77.1845 97.4464 77.0217 97.1282C76.8607 96.81 76.7802 96.4236 76.7802 95.9691C76.7802 95.5221 76.8588 95.1329 77.016 94.8015C77.1732 94.4682 77.3919 94.2106 77.6722 94.0288C77.9525 93.845 78.2764 93.7532 78.6438 93.7532C78.9279 93.7532 79.1533 93.8005 79.32 93.8952C79.4885 93.988 79.6173 94.0941 79.7063 94.2134C79.7972 94.3308 79.8673 94.4274 79.9165 94.5032H79.9847V93.81H80.6325V98.2986C80.6325 98.6736 80.5472 98.9786 80.3768 99.2134C80.2082 99.4502 79.9809 99.6235 79.695 99.7333C79.4109 99.845 79.0946 99.9009 78.7461 99.9009ZM78.7234 97.5032C78.9923 97.5032 79.2196 97.4416 79.4052 97.3185C79.5908 97.1954 79.7319 97.0183 79.8285 96.7873C79.9251 96.5562 79.9734 96.2797 79.9734 95.9577C79.9734 95.6433 79.926 95.3659 79.8313 95.1253C79.7366 94.8848 79.5965 94.6964 79.4109 94.56C79.2253 94.4236 78.9961 94.3555 78.7234 94.3555C78.4393 94.3555 78.2025 94.4274 78.0131 94.5714C77.8256 94.7153 77.6845 94.9085 77.5898 95.1509C77.497 95.3933 77.4506 95.6623 77.4506 95.9577C77.4506 96.2608 77.498 96.5288 77.5927 96.7617C77.6893 96.9928 77.8313 97.1746 78.0188 97.3072C78.2082 97.4378 78.4431 97.5032 78.7234 97.5032ZM82.3484 98.2191C82.2082 98.2191 82.0879 98.1689 81.9876 98.0685C81.8872 97.9682 81.837 97.8479 81.837 97.7077C81.837 97.5676 81.8872 97.4473 81.9876 97.3469C82.0879 97.2466 82.2082 97.1964 82.3484 97.1964C82.4885 97.1964 82.6088 97.2466 82.7092 97.3469C82.8095 97.4473 82.8597 97.5676 82.8597 97.7077C82.8597 97.8005 82.8361 97.8858 82.7887 97.9634C82.7433 98.0411 82.6817 98.1036 82.604 98.1509C82.5283 98.1964 82.4431 98.2191 82.3484 98.2191ZM84.5515 98.2191C84.4113 98.2191 84.2911 98.1689 84.1907 98.0685C84.0903 97.9682 84.0401 97.8479 84.0401 97.7077C84.0401 97.5676 84.0903 97.4473 84.1907 97.3469C84.2911 97.2466 84.4113 97.1964 84.5515 97.1964C84.6916 97.1964 84.8119 97.2466 84.9123 97.3469C85.0127 97.4473 85.0629 97.5676 85.0629 97.7077C85.0629 97.8005 85.0392 97.8858 84.9918 97.9634C84.9464 98.0411 84.8848 98.1036 84.8072 98.1509C84.7314 98.1964 84.6462 98.2191 84.5515 98.2191ZM86.7546 98.2191C86.6145 98.2191 86.4942 98.1689 86.3938 98.0685C86.2934 97.9682 86.2433 97.8479 86.2433 97.7077C86.2433 97.5676 86.2934 97.4473 86.3938 97.3469C86.4942 97.2466 86.6145 97.1964 86.7546 97.1964C86.8948 97.1964 87.015 97.2466 87.1154 97.3469C87.2158 97.4473 87.266 97.5676 87.266 97.7077C87.266 97.8005 87.2423 97.8858 87.195 97.9634C87.1495 98.0411 87.0879 98.1036 87.0103 98.1509C86.9345 98.1964 86.8493 98.2191 86.7546 98.2191Z" fill="#89929F"/>
<defs>
<filter id="filter0_dddd_2317_26" x="12.6684" y="0.361318" width="172.147" height="150.909" filterUnits="userSpaceOnUse" color-interpolation-filters="sRGB">
<feFlood flood-opacity="0" result="BackgroundImageFix"/>
<feColorMatrix in="SourceAlpha" type="matrix" values="0 0 0 0 0 0 0 0 0 0 0 0 0 0 0 0 0 0 127 0" result="hardAlpha"/>
<feOffset dy="1.63868"/>
<feGaussianBlur stdDeviation="1.63868"/>
<feColorMatrix type="matrix" values="0 0 0 0 0.0117647 0 0 0 0 0.00784314 0 0 0 0 0.0509804 0 0 0 0.06 0"/>
<feBlend mode="normal" in2="BackgroundImageFix" result="effect1_dropShadow_2317_26"/>
<feColorMatrix in="SourceAlpha" type="matrix" values="0 0 0 0 0 0 0 0 0 0 0 0 0 0 0 0 0 0 127 0" result="hardAlpha"/>
<feOffset dy="5.73539"/>
<feGaussianBlur stdDeviation="2.86769"/>
<feColorMatrix type="matrix" values="0 0 0 0 0.0117647 0 0 0 0 0.00784314 0 0 0 0 0.0509804 0 0 0 0.05 0"/>
<feBlend mode="normal" in2="effect1_dropShadow_2317_26" result="effect2_dropShadow_2317_26"/>
<feColorMatrix in="SourceAlpha" type="matrix" values="0 0 0 0 0 0 0 0 0 0 0 0 0 0 0 0 0 0 127 0" result="hardAlpha"/>
<feOffset dy="13.1095"/>
<feGaussianBlur stdDeviation="3.68704"/>
<feColorMatrix type="matrix" values="0 0 0 0 0.0117647 0 0 0 0 0.00784314 0 0 0 0 0.0509804 0 0 0 0.03 0"/>
<feBlend mode="normal" in2="effect2_dropShadow_2317_26" result="effect3_dropShadow_2317_26"/>
<feColorMatrix in="SourceAlpha" type="matrix" values="0 0 0 0 0 0 0 0 0 0 0 0 0 0 0 0 0 0 127 0" result="hardAlpha"/>
<feOffset dy="22.9416"/>
<feGaussianBlur stdDeviation="4.50638"/>
<feColorMatrix type="matrix" values="0 0 0 0 0.0117647 0 0 0 0 0.00784314 0 0 0 0 0.0509804 0 0 0 0.01 0"/>
<feBlend mode="normal" in2="effect3_dropShadow_2317_26" result="effect4_dropShadow_2317_26"/>
<feBlend mode="normal" in="SourceGraphic" in2="effect4_dropShadow_2317_26" result="shape"/>
</filter>
<filter id="filter1_dddd_2317_26" x="0.23686" y="80.4499" width="195.526" height="54.2756" filterUnits="userSpaceOnUse" color-interpolation-filters="sRGB">
<feFlood flood-opacity="0" result="BackgroundImageFix"/>
<feColorMatrix in="SourceAlpha" type="matrix" values="0 0 0 0 0 0 0 0 0 0 0 0 0 0 0 0 0 0 127 0" result="hardAlpha"/>
<feOffset dy="1.34206"/>
<feGaussianBlur stdDeviation="1.34206"/>
<feColorMatrix type="matrix" values="0 0 0 0 0.0117647 0 0 0 0 0.00784314 0 0 0 0 0.0509804 0 0 0 0.06 0"/>
<feBlend mode="normal" in2="BackgroundImageFix" result="effect1_dropShadow_2317_26"/>
<feColorMatrix in="SourceAlpha" type="matrix" values="0 0 0 0 0 0 0 0 0 0 0 0 0 0 0 0 0 0 127 0" result="hardAlpha"/>
<feOffset dy="4.69719"/>
<feGaussianBlur stdDeviation="2.3486"/>
<feColorMatrix type="matrix" values="0 0 0 0 0.0117647 0 0 0 0 0.00784314 0 0 0 0 0.0509804 0 0 0 0.05 0"/>
<feBlend mode="normal" in2="effect1_dropShadow_2317_26" result="effect2_dropShadow_2317_26"/>
<feColorMatrix in="SourceAlpha" type="matrix" values="0 0 0 0 0 0 0 0 0 0 0 0 0 0 0 0 0 0 127 0" result="hardAlpha"/>
<feOffset dy="10.7364"/>
<feGaussianBlur stdDeviation="3.01962"/>
<feColorMatrix type="matrix" values="0 0 0 0 0.0117647 0 0 0 0 0.00784314 0 0 0 0 0.0509804 0 0 0 0.03 0"/>
<feBlend mode="normal" in2="effect2_dropShadow_2317_26" result="effect3_dropShadow_2317_26"/>
<feColorMatrix in="SourceAlpha" type="matrix" values="0 0 0 0 0 0 0 0 0 0 0 0 0 0 0 0 0 0 127 0" result="hardAlpha"/>
<feOffset dy="18.7888"/>
<feGaussianBlur stdDeviation="3.69065"/>
<feColorMatrix type="matrix" values="0 0 0 0 0.0117647 0 0 0 0 0.00784314 0 0 0 0 0.0509804 0 0 0 0.01 0"/>
<feBlend mode="normal" in2="effect3_dropShadow_2317_26" result="effect4_dropShadow_2317_26"/>
<feBlend mode="normal" in="SourceGraphic" in2="effect4_dropShadow_2317_26" result="shape"/>
</filter>
</defs>
</svg>
