<svg width="230" height="238" viewBox="0 0 211 87" fill="none" xmlns="http://www.w3.org/2000/svg">
<g filter="url(#filter0_ddd_2317_188)">
<path d="M39.5256 7.57287C39.5256 3.39174 36.1362 0.0022583 31.955 0.0022583H18.5128C14.3316 0.0022583 10.9422 3.39174 10.9422 7.57287V14.9125C10.9422 15.4582 11.3845 15.9005 11.9302 15.9005H31.955C36.1362 15.9005 39.5256 12.5111 39.5256 8.32993V7.57287Z" fill="#9951F5"/>
<ellipse cx="19.9942" cy="7.95137" rx="1.31011" ry="1.31367" fill="white"/>
<ellipse cx="25.2347" cy="7.95137" rx="1.31011" ry="1.31367" fill="white"/>
<ellipse cx="30.4744" cy="7.95137" rx="1.31011" ry="1.31367" fill="white"/>
</g>
<path d="M50.0473 5.70187C50.0067 5.34141 49.8392 5.06219 49.5447 4.86419C49.2503 4.66366 48.8796 4.56339 48.4329 4.56339C48.113 4.56339 47.8364 4.61416 47.6028 4.7157C47.3693 4.81469 47.1878 4.95177 47.0583 5.12692C46.9314 5.29953 46.868 5.49626 46.868 5.7171C46.868 5.9024 46.9111 6.06232 46.9974 6.19686C47.0863 6.33139 47.2018 6.44435 47.3439 6.53573C47.4886 6.62458 47.6434 6.69946 47.8084 6.76038C47.9734 6.81877 48.1321 6.867 48.2844 6.90507L49.0459 7.10307C49.2947 7.16399 49.5498 7.24649 49.8112 7.35056C50.0727 7.45464 50.3151 7.59171 50.5385 7.76178C50.7619 7.93186 50.9421 8.14254 51.0792 8.39385C51.2188 8.64515 51.2886 8.94595 51.2886 9.29625C51.2886 9.73793 51.1744 10.1301 50.9459 10.4728C50.72 10.8155 50.3913 11.0858 49.9597 11.2838C49.5307 11.4818 49.0116 11.5808 48.4024 11.5808C47.8186 11.5808 47.3134 11.4882 46.887 11.3029C46.4605 11.1176 46.1267 10.8548 45.8856 10.5147C45.6444 10.172 45.5112 9.76585 45.4858 9.29625H46.6662C46.689 9.57801 46.7804 9.81281 46.9403 10.0007C47.1028 10.186 47.3096 10.3243 47.5609 10.4157C47.8148 10.5045 48.0927 10.549 48.3948 10.549C48.7273 10.549 49.0231 10.4969 49.282 10.3928C49.5434 10.2862 49.749 10.139 49.8988 9.95116C50.0486 9.76078 50.1235 9.53867 50.1235 9.28483C50.1235 9.05383 50.0575 8.86472 49.9255 8.71749C49.796 8.57027 49.6196 8.44842 49.3962 8.35196C49.1754 8.2555 48.9253 8.17047 48.6461 8.09685L47.7247 7.84555C47.1002 7.67548 46.6052 7.42544 46.2397 7.09545C45.8767 6.76546 45.6952 6.32885 45.6952 5.78563C45.6952 5.33634 45.8171 4.94415 46.0607 4.60908C46.3044 4.27401 46.6344 4.01383 47.0507 3.82853C47.467 3.64068 47.9366 3.54676 48.4595 3.54676C48.9875 3.54676 49.4533 3.63941 49.8569 3.82472C50.2631 4.01002 50.5829 4.26513 50.8164 4.59005C51.05 4.91242 51.1718 5.28303 51.182 5.70187H50.0473ZM55.0667 11.5694C54.5184 11.5694 54.0399 11.4437 53.6312 11.1924C53.2225 10.9411 52.9052 10.5896 52.6793 10.1377C52.4534 9.68589 52.3404 9.15791 52.3404 8.55377C52.3404 7.94709 52.4534 7.41656 52.6793 6.96219C52.9052 6.50781 53.2225 6.15497 53.6312 5.90367C54.0399 5.65237 54.5184 5.52672 55.0667 5.52672C55.615 5.52672 56.0935 5.65237 56.5022 5.90367C56.9108 6.15497 57.2281 6.50781 57.4541 6.96219C57.68 7.41656 57.7929 7.94709 57.7929 8.55377C57.7929 9.15791 57.68 9.68589 57.4541 10.1377C57.2281 10.5896 56.9108 10.9411 56.5022 11.1924C56.0935 11.4437 55.615 11.5694 55.0667 11.5694ZM55.0705 10.6137C55.4259 10.6137 55.7203 10.5198 55.9539 10.3319C56.1874 10.1441 56.36 9.89404 56.4717 9.58182C56.5859 9.2696 56.643 8.92564 56.643 8.54996C56.643 8.17681 56.5859 7.83413 56.4717 7.5219C56.36 7.20714 56.1874 6.95457 55.9539 6.76419C55.7203 6.57381 55.4259 6.47862 55.0705 6.47862C54.7126 6.47862 54.4156 6.57381 54.1795 6.76419C53.946 6.95457 53.7721 7.20714 53.6579 7.5219C53.5462 7.83413 53.4903 8.17681 53.4903 8.54996C53.4903 8.92564 53.5462 9.2696 53.6579 9.58182C53.7721 9.89404 53.946 10.1441 54.1795 10.3319C54.4156 10.5198 54.7126 10.6137 55.0705 10.6137ZM59.0637 13.6445V5.60287H60.1755V6.55096H60.2707C60.3367 6.42912 60.4319 6.28824 60.5563 6.12832C60.6807 5.9684 60.8533 5.82879 61.0741 5.70948C61.295 5.58764 61.5869 5.52672 61.9499 5.52672C62.422 5.52672 62.8434 5.64602 63.214 5.88463C63.5846 6.12324 63.8753 6.4672 64.086 6.91649C64.2992 7.36579 64.4058 7.90647 64.4058 8.53854C64.4058 9.1706 64.3005 9.71255 64.0898 10.1644C63.8791 10.6137 63.5897 10.9602 63.2216 11.2039C62.8536 11.445 62.4335 11.5656 61.9613 11.5656C61.6059 11.5656 61.3153 11.5059 61.0894 11.3866C60.866 11.2673 60.6908 11.1277 60.5639 10.9678C60.437 10.8079 60.3393 10.6657 60.2707 10.5413H60.2022V13.6445H59.0637ZM60.1794 8.52711C60.1794 8.93833 60.239 9.29879 60.3583 9.60847C60.4776 9.91816 60.6502 10.1606 60.8761 10.3357C61.1021 10.5083 61.3787 10.5946 61.7062 10.5946C62.0463 10.5946 62.3307 10.5045 62.5591 10.3243C62.7876 10.1415 62.9602 9.89404 63.0769 9.58182C63.1962 9.2696 63.2559 8.91803 63.2559 8.52711C63.2559 8.14127 63.1975 7.79478 63.0807 7.48764C62.9665 7.18049 62.7939 6.93807 62.5629 6.76038C62.3345 6.58269 62.0489 6.49385 61.7062 6.49385C61.3762 6.49385 61.097 6.57889 60.8685 6.74896C60.6426 6.91903 60.4713 7.15637 60.3545 7.46098C60.2377 7.76559 60.1794 8.12097 60.1794 8.52711ZM66.8198 7.97882V11.4514H65.6813V3.65337H66.8046V6.55477H66.8769C67.014 6.24001 67.2234 5.98998 67.5052 5.80467C67.787 5.61937 68.155 5.52672 68.6094 5.52672C69.0105 5.52672 69.3608 5.60922 69.6603 5.77421C69.9624 5.93921 70.1959 6.18543 70.3609 6.51289C70.5284 6.8378 70.6122 7.24395 70.6122 7.73132V11.4514H69.4737V7.8684C69.4737 7.43941 69.3633 7.10687 69.1425 6.8708C68.9216 6.63219 68.6145 6.51289 68.221 6.51289C67.9519 6.51289 67.7108 6.57 67.4976 6.68423C67.2869 6.79846 67.1206 6.96599 66.9988 7.18683C66.8795 7.40514 66.8198 7.66913 66.8198 7.97882ZM72.1314 11.4514V5.60287H73.2699V11.4514H72.1314ZM72.7064 4.70047C72.5084 4.70047 72.3383 4.63447 72.1962 4.50247C72.0565 4.36794 71.9867 4.20802 71.9867 4.02271C71.9867 3.83487 72.0565 3.67495 72.1962 3.54295C72.3383 3.40842 72.5084 3.34115 72.7064 3.34115C72.9044 3.34115 73.0732 3.40842 73.2128 3.54295C73.3549 3.67495 73.426 3.83487 73.426 4.02271C73.426 4.20802 73.3549 4.36794 73.2128 4.50247C73.0732 4.63447 72.9044 4.70047 72.7064 4.70047ZM77.3222 11.5694C76.7459 11.5694 76.2497 11.4463 75.8334 11.2001C75.4196 10.9513 75.0998 10.6023 74.8739 10.153C74.6505 9.70112 74.5388 9.17187 74.5388 8.56519C74.5388 7.96612 74.6505 7.43814 74.8739 6.98122C75.0998 6.52431 75.4145 6.16766 75.8181 5.91129C76.2243 5.65491 76.699 5.52672 77.2422 5.52672C77.5722 5.52672 77.892 5.58129 78.2017 5.69044C78.5114 5.7996 78.7894 5.97094 79.0356 6.20447C79.2818 6.43801 79.476 6.74134 79.6181 7.11449C79.7603 7.4851 79.8314 7.93566 79.8314 8.46619V8.8698H75.1823V8.01689H78.7157C78.7157 7.71736 78.6548 7.4521 78.533 7.2211C78.4111 6.98757 78.2398 6.80354 78.0189 6.669C77.8006 6.53446 77.5443 6.4672 77.2498 6.4672C76.93 6.4672 76.6507 6.54589 76.4121 6.70327C76.1761 6.85811 75.9933 7.06118 75.8638 7.31249C75.7369 7.56125 75.6735 7.83159 75.6735 8.12351V8.78984C75.6735 9.18075 75.742 9.51328 75.8791 9.78743C76.0187 10.0616 76.2129 10.271 76.4616 10.4157C76.7104 10.5578 77.001 10.6289 77.3336 10.6289C77.5493 10.6289 77.7461 10.5985 77.9238 10.5375C78.1014 10.4741 78.255 10.3801 78.3845 10.2558C78.5139 10.1314 78.6129 9.97781 78.6815 9.79505L79.759 9.98923C79.6727 10.3065 79.5179 10.5845 79.2945 10.8231C79.0737 11.0592 78.7957 11.2432 78.4606 11.3752C78.1281 11.5047 77.7486 11.5694 77.3222 11.5694ZM83.9322 11.4514V5.60287H85.0706V11.4514H83.9322ZM84.5071 4.70047C84.3091 4.70047 84.139 4.63447 83.9969 4.50247C83.8573 4.36794 83.7875 4.20802 83.7875 4.02271C83.7875 3.83487 83.8573 3.67495 83.9969 3.54295C84.139 3.40842 84.3091 3.34115 84.5071 3.34115C84.7051 3.34115 84.8739 3.40842 85.0135 3.54295C85.1557 3.67495 85.2267 3.83487 85.2267 4.02271C85.2267 4.20802 85.1557 4.36794 85.0135 4.50247C84.8739 4.63447 84.7051 4.70047 84.5071 4.70047ZM90.9848 7.03072L89.9529 7.21349C89.9098 7.08149 89.8412 6.95584 89.7473 6.83653C89.6559 6.71723 89.5316 6.6195 89.3742 6.54335C89.2168 6.4672 89.0201 6.42912 88.784 6.42912C88.4616 6.42912 88.1926 6.50147 87.9768 6.64615C87.761 6.7883 87.6531 6.97234 87.6531 7.19826C87.6531 7.39371 87.7255 7.5511 87.8702 7.6704C88.0149 7.78971 88.2484 7.88743 88.5708 7.96359L89.4998 8.17681C90.038 8.30119 90.439 8.49284 90.703 8.75176C90.967 9.01068 91.099 9.34702 91.099 9.76078C91.099 10.1111 90.9975 10.4233 90.7944 10.6974C90.5939 10.9691 90.3134 11.1823 89.9529 11.3371C89.595 11.492 89.18 11.5694 88.7079 11.5694C88.0529 11.5694 87.5186 11.4298 87.1048 11.1506C86.6911 10.8688 86.4372 10.469 86.3433 9.95116L87.4437 9.78362C87.5123 10.0705 87.6531 10.2875 87.8664 10.4347C88.0796 10.5794 88.3576 10.6518 88.7002 10.6518C89.0734 10.6518 89.3716 10.5743 89.595 10.4195C89.8184 10.2621 89.9301 10.0705 89.9301 9.84454C89.9301 9.66178 89.8616 9.50821 89.7245 9.38382C89.5899 9.25944 89.3831 9.16552 89.1038 9.10206L88.1139 8.88503C87.5681 8.76065 87.1645 8.56265 86.903 8.29104C86.6441 8.01943 86.5147 7.67548 86.5147 7.25918C86.5147 6.91396 86.6111 6.61189 86.804 6.35297C86.997 6.09405 87.2635 5.89225 87.6036 5.74756C87.9438 5.60033 88.3334 5.52672 88.7726 5.52672C89.4046 5.52672 89.9022 5.66379 90.2652 5.93794C90.6282 6.20955 90.868 6.57381 90.9848 7.03072ZM97.9185 5.60287V6.5167H94.7239V5.60287H97.9185ZM95.5806 4.20167H96.7191V9.73412C96.7191 9.95497 96.7521 10.1212 96.8181 10.2329C96.8841 10.3421 96.9691 10.417 97.0732 10.4576C97.1798 10.4956 97.2953 10.5147 97.4197 10.5147C97.511 10.5147 97.591 10.5083 97.6595 10.4956C97.7281 10.483 97.7814 10.4728 97.8195 10.4652L98.0251 11.4057C97.9591 11.431 97.8651 11.4564 97.7433 11.4818C97.6215 11.5097 97.4692 11.525 97.2864 11.5275C96.9869 11.5326 96.7076 11.4793 96.4487 11.3676C96.1898 11.2559 95.9804 11.0833 95.8205 10.8498C95.6605 10.6162 95.5806 10.323 95.5806 9.9702V4.20167ZM99.8975 13.6445C99.7274 13.6445 99.5725 13.6306 99.4329 13.6027C99.2933 13.5773 99.1892 13.5493 99.1207 13.5189L99.3949 12.586C99.603 12.6419 99.7883 12.666 99.9508 12.6584C100.113 12.6508 100.257 12.5898 100.381 12.4756C100.508 12.3614 100.62 12.1748 100.716 11.9159L100.857 11.5275L98.7171 5.60287H99.9355L101.417 10.1415H101.478L102.959 5.60287H104.181L101.771 12.2319C101.659 12.5365 101.517 12.7942 101.344 13.0049C101.172 13.2181 100.966 13.378 100.728 13.4846C100.489 13.5912 100.212 13.6445 99.8975 13.6445ZM105.251 13.6445V5.60287H106.363V6.55096H106.458C106.524 6.42912 106.619 6.28824 106.744 6.12832C106.868 5.9684 107.041 5.82879 107.261 5.70948C107.482 5.58764 107.774 5.52672 108.137 5.52672C108.609 5.52672 109.031 5.64602 109.401 5.88463C109.772 6.12324 110.062 6.4672 110.273 6.91649C110.486 7.36579 110.593 7.90647 110.593 8.53854C110.593 9.1706 110.488 9.71255 110.277 10.1644C110.066 10.6137 109.777 10.9602 109.409 11.2039C109.041 11.445 108.621 11.5656 108.149 11.5656C107.793 11.5656 107.503 11.5059 107.277 11.3866C107.053 11.2673 106.878 11.1277 106.751 10.9678C106.624 10.8079 106.527 10.6657 106.458 10.5413H106.389V13.6445H105.251ZM106.367 8.52711C106.367 8.93833 106.426 9.29879 106.546 9.60847C106.665 9.91816 106.837 10.1606 107.063 10.3357C107.289 10.5083 107.566 10.5946 107.893 10.5946C108.234 10.5946 108.518 10.5045 108.746 10.3243C108.975 10.1415 109.147 9.89404 109.264 9.58182C109.383 9.2696 109.443 8.91803 109.443 8.52711C109.443 8.14127 109.385 7.79478 109.268 7.48764C109.154 7.18049 108.981 6.93807 108.75 6.76038C108.522 6.58269 108.236 6.49385 107.893 6.49385C107.563 6.49385 107.284 6.57889 107.056 6.74896C106.83 6.91903 106.658 7.15637 106.542 7.46098C106.425 7.76559 106.367 8.12097 106.367 8.52711ZM111.869 11.4514V5.60287H113.007V11.4514H111.869ZM112.444 4.70047C112.246 4.70047 112.075 4.63447 111.933 4.50247C111.794 4.36794 111.724 4.20802 111.724 4.02271C111.724 3.83487 111.794 3.67495 111.933 3.54295C112.075 3.40842 112.246 3.34115 112.444 3.34115C112.642 3.34115 112.81 3.40842 112.95 3.54295C113.092 3.67495 113.163 3.83487 113.163 4.02271C113.163 4.20802 113.092 4.36794 112.95 4.50247C112.81 4.63447 112.642 4.70047 112.444 4.70047ZM115.677 7.97882V11.4514H114.539V5.60287H115.631V6.55477H115.704C115.838 6.24509 116.049 5.99632 116.336 5.80848C116.625 5.62064 116.989 5.52672 117.429 5.52672C117.827 5.52672 118.176 5.61049 118.476 5.77802C118.775 5.94302 119.008 6.18924 119.173 6.5167C119.338 6.84415 119.42 7.24903 119.42 7.73132V11.4514H118.282V7.8684C118.282 7.44448 118.171 7.11322 117.95 6.87461C117.729 6.63346 117.426 6.51289 117.04 6.51289C116.776 6.51289 116.541 6.57 116.336 6.68423C116.133 6.79846 115.972 6.96599 115.852 7.18683C115.736 7.40514 115.677 7.66913 115.677 7.97882ZM123.399 13.7664C122.934 13.7664 122.535 13.7055 122.2 13.5836C121.867 13.4618 121.595 13.3006 121.385 13.1C121.174 12.8995 121.017 12.6799 120.913 12.4413L121.891 12.0377C121.96 12.1494 122.051 12.2675 122.165 12.3918C122.282 12.5188 122.439 12.6266 122.637 12.7155C122.838 12.8043 123.096 12.8487 123.41 12.8487C123.842 12.8487 124.199 12.7434 124.48 12.5327C124.762 12.3246 124.903 11.992 124.903 11.5351V10.3852H124.831C124.762 10.5096 124.663 10.6479 124.534 10.8003C124.407 10.9526 124.232 11.0846 124.008 11.1962C123.785 11.3079 123.494 11.3638 123.136 11.3638C122.674 11.3638 122.258 11.2559 121.887 11.0401C121.519 10.8218 121.227 10.5007 121.012 10.0768C120.798 9.65036 120.692 9.12618 120.692 8.50427C120.692 7.88236 120.797 7.34929 121.008 6.90507C121.221 6.46085 121.513 6.1207 121.884 5.88463C122.254 5.64602 122.674 5.52672 123.144 5.52672C123.507 5.52672 123.8 5.58764 124.023 5.70948C124.247 5.82879 124.421 5.9684 124.545 6.12832C124.672 6.28824 124.77 6.42912 124.838 6.55096H124.922V5.60287H126.038V11.5808C126.038 12.0834 125.921 12.4959 125.687 12.8183C125.454 13.1407 125.138 13.3793 124.739 13.5341C124.343 13.689 123.896 13.7664 123.399 13.7664ZM123.388 10.4195C123.715 10.4195 123.992 10.3433 124.218 10.191C124.446 10.0362 124.619 9.81535 124.735 9.52851C124.855 9.23914 124.914 8.89264 124.914 8.48904C124.914 8.09558 124.856 7.74909 124.739 7.44956C124.622 7.15003 124.451 6.91649 124.225 6.74896C123.999 6.57889 123.72 6.49385 123.388 6.49385C123.045 6.49385 122.759 6.58269 122.531 6.76038C122.302 6.93553 122.13 7.17414 122.013 7.47621C121.899 7.77828 121.842 8.11589 121.842 8.48904C121.842 8.87234 121.9 9.20867 122.017 9.49805C122.134 9.78743 122.306 10.0133 122.535 10.1758C122.766 10.3383 123.05 10.4195 123.388 10.4195ZM128.315 11.5237C128.106 11.5237 127.927 11.4501 127.778 11.3029C127.628 11.1531 127.553 10.9729 127.553 10.7622C127.553 10.554 127.628 10.3763 127.778 10.2291C127.927 10.0793 128.106 10.0045 128.315 10.0045C128.523 10.0045 128.702 10.0793 128.851 10.2291C129.001 10.3763 129.076 10.554 129.076 10.7622C129.076 10.9018 129.041 11.03 128.969 11.1467C128.901 11.261 128.81 11.3524 128.695 11.4209C128.581 11.4894 128.454 11.5237 128.315 11.5237ZM131.351 11.5237C131.143 11.5237 130.964 11.4501 130.814 11.3029C130.665 11.1531 130.59 10.9729 130.59 10.7622C130.59 10.554 130.665 10.3763 130.814 10.2291C130.964 10.0793 131.143 10.0045 131.351 10.0045C131.559 10.0045 131.738 10.0793 131.888 10.2291C132.038 10.3763 132.113 10.554 132.113 10.7622C132.113 10.9018 132.077 11.03 132.006 11.1467C131.938 11.261 131.846 11.3524 131.732 11.4209C131.618 11.4894 131.491 11.5237 131.351 11.5237ZM134.388 11.5237C134.18 11.5237 134.001 11.4501 133.851 11.3029C133.701 11.1531 133.626 10.9729 133.626 10.7622C133.626 10.554 133.701 10.3763 133.851 10.2291C134.001 10.0793 134.18 10.0045 134.388 10.0045C134.596 10.0045 134.775 10.0793 134.925 10.2291C135.074 10.3763 135.149 10.554 135.149 10.7622C135.149 10.9018 135.114 11.03 135.043 11.1467C134.974 11.261 134.883 11.3524 134.768 11.4209C134.654 11.4894 134.527 11.5237 134.388 11.5237Z" fill="#667085"/>
<g filter="url(#filter1_dddd_2317_188)">
<rect x="9" y="24.3607" width="193" height="32.4949" rx="16.2357" fill="white"/>
<rect x="8.78352" y="24.1442" width="193.433" height="32.9279" rx="16.4522" stroke="#E7E6EB" stroke-width="0.432953"/>
</g>
<path d="M24.4031 36.6934V35.6805H30.4381V36.6934H28.005V43.4785H26.8323V36.6934H24.4031ZM31.7298 45.6717C31.5598 45.6717 31.4049 45.6577 31.2653 45.6298C31.1257 45.6044 31.0216 45.5765 30.9531 45.546L31.2272 44.6132C31.4354 44.669 31.6207 44.6931 31.7831 44.6855C31.9456 44.6779 32.089 44.617 32.2134 44.5028C32.3403 44.3885 32.452 44.202 32.5485 43.943L32.6894 43.5547L30.5495 37.63H31.7679L33.2491 42.1687H33.31L34.7912 37.63H36.0134L33.6032 44.2591C33.4915 44.5637 33.3493 44.8213 33.1767 45.032C33.0041 45.2452 32.7985 45.4052 32.5599 45.5118C32.3213 45.6184 32.0446 45.6717 31.7298 45.6717ZM37.0833 45.6717V37.63H38.1952V38.5781H38.2903C38.3563 38.4563 38.4515 38.3154 38.5759 38.1555C38.7003 37.9956 38.8729 37.8559 39.0938 37.7366C39.3146 37.6148 39.6065 37.5539 39.9695 37.5539C40.4416 37.5539 40.863 37.6732 41.2336 37.9118C41.6042 38.1504 41.8949 38.4944 42.1056 38.9437C42.3188 39.393 42.4254 39.9336 42.4254 40.5657C42.4254 41.1978 42.3201 41.7397 42.1094 42.1915C41.8987 42.6408 41.6093 42.9873 41.2412 43.231C40.8732 43.4722 40.4531 43.5927 39.9809 43.5927C39.6255 43.5927 39.3349 43.5331 39.109 43.4138C38.8856 43.2945 38.7105 43.1549 38.5835 42.9949C38.4566 42.835 38.3589 42.6929 38.2903 42.5685H38.2218V45.6717H37.0833ZM38.199 40.5543C38.199 40.9655 38.2586 41.3259 38.3779 41.6356C38.4972 41.9453 38.6698 42.1877 38.8958 42.3629C39.1217 42.5355 39.3984 42.6218 39.7258 42.6218C40.066 42.6218 40.3503 42.5317 40.5787 42.3515C40.8072 42.1687 40.9798 41.9212 41.0966 41.609C41.2159 41.2968 41.2755 40.9452 41.2755 40.5543C41.2755 40.1684 41.2171 39.8219 41.1004 39.5148C40.9861 39.2076 40.8135 38.9652 40.5825 38.7875C40.3541 38.6099 40.0685 38.521 39.7258 38.521C39.3958 38.521 39.1166 38.606 38.8881 38.7761C38.6622 38.9462 38.4909 39.1835 38.3741 39.4881C38.2573 39.7928 38.199 40.1481 38.199 40.5543ZM46.2216 43.5966C45.6454 43.5966 45.1491 43.4734 44.7328 43.2272C44.3191 42.9784 43.9992 42.6294 43.7733 42.1801C43.5499 41.7283 43.4382 41.199 43.4382 40.5923C43.4382 39.9933 43.5499 39.4653 43.7733 39.0084C43.9992 38.5515 44.314 38.1948 44.7176 37.9384C45.1237 37.6821 45.5984 37.5539 46.1416 37.5539C46.4716 37.5539 46.7915 37.6085 47.1012 37.7176C47.4108 37.8268 47.6888 37.9981 47.935 38.2316C48.1812 38.4652 48.3754 38.7685 48.5176 39.1417C48.6597 39.5123 48.7308 39.9628 48.7308 40.4934V40.897H44.0817V40.0441H47.6152C47.6152 39.7445 47.5543 39.4793 47.4324 39.2483C47.3106 39.0147 47.1392 38.8307 46.9184 38.6962C46.7001 38.5616 46.4437 38.4944 46.1492 38.4944C45.8294 38.4944 45.5502 38.573 45.3116 38.7304C45.0755 38.8853 44.8927 39.0883 44.7633 39.3396C44.6364 39.5884 44.5729 39.8588 44.5729 40.1507V40.817C44.5729 41.2079 44.6414 41.5404 44.7785 41.8146C44.9181 42.0887 45.1123 42.2982 45.3611 42.4428C45.6098 42.585 45.9005 42.6561 46.233 42.6561C46.4488 42.6561 46.6455 42.6256 46.8232 42.5647C47.0009 42.5012 47.1545 42.4073 47.2839 42.2829C47.4134 42.1585 47.5124 42.005 47.5809 41.8222L48.6585 42.0164C48.5722 42.3337 48.4173 42.6117 48.1939 42.8503C47.9731 43.0863 47.6951 43.2704 47.3601 43.4024C47.0275 43.5318 46.648 43.5966 46.2216 43.5966ZM57.2142 39.0579L56.1823 39.2406C56.1391 39.1087 56.0706 38.983 55.9767 38.8637C55.8853 38.7444 55.7609 38.6467 55.6035 38.5705C55.4462 38.4944 55.2494 38.4563 55.0134 38.4563C54.691 38.4563 54.4219 38.5286 54.2061 38.6733C53.9904 38.8155 53.8825 38.9995 53.8825 39.2254C53.8825 39.4209 53.9548 39.5783 54.0995 39.6976C54.2442 39.8169 54.4778 39.9146 54.8001 39.9907L55.7292 40.204C56.2673 40.3284 56.6684 40.52 56.9324 40.7789C57.1964 41.0378 57.3284 41.3742 57.3284 41.7879C57.3284 42.1382 57.2268 42.4505 57.0238 42.7246C56.8232 42.9962 56.5427 43.2094 56.1823 43.3643C55.8244 43.5191 55.4094 43.5966 54.9372 43.5966C54.2823 43.5966 53.748 43.4569 53.3342 43.1777C52.9204 42.896 52.6666 42.4962 52.5727 41.9783L53.6731 41.8108C53.7416 42.0976 53.8825 42.3147 54.0957 42.4619C54.309 42.6066 54.5869 42.6789 54.9296 42.6789C55.3027 42.6789 55.601 42.6015 55.8244 42.4467C56.0478 42.2893 56.1594 42.0976 56.1594 41.8717C56.1594 41.6889 56.0909 41.5354 55.9538 41.411C55.8193 41.2866 55.6124 41.1927 55.3332 41.1292L54.3432 40.9122C53.7975 40.7878 53.3939 40.5898 53.1324 40.3182C52.8735 40.0466 52.744 39.7026 52.744 39.2863C52.744 38.9411 52.8405 38.639 53.0334 38.3801C53.2263 38.1212 53.4929 37.9194 53.833 37.7747C54.1731 37.6275 54.5628 37.5539 55.0019 37.5539C55.634 37.5539 56.1315 37.691 56.4945 37.9651C56.8575 38.2367 57.0974 38.601 57.2142 39.0579ZM61.0437 43.5966C60.4954 43.5966 60.0169 43.4709 59.6082 43.2196C59.1995 42.9683 58.8822 42.6167 58.6563 42.1649C58.4304 41.7131 58.3174 41.1851 58.3174 40.5809C58.3174 39.9742 58.4304 39.4437 58.6563 38.9893C58.8822 38.535 59.1995 38.1821 59.6082 37.9308C60.0169 37.6795 60.4954 37.5539 61.0437 37.5539C61.592 37.5539 62.0704 37.6795 62.4791 37.9308C62.8878 38.1821 63.2051 38.535 63.431 38.9893C63.6569 39.4437 63.7699 39.9742 63.7699 40.5809C63.7699 41.1851 63.6569 41.7131 63.431 42.1649C63.2051 42.6167 62.8878 42.9683 62.4791 43.2196C62.0704 43.4709 61.592 43.5966 61.0437 43.5966ZM61.0475 42.6408C61.4028 42.6408 61.6973 42.5469 61.9308 42.3591C62.1644 42.1712 62.337 41.9212 62.4487 41.609C62.5629 41.2968 62.62 40.9528 62.62 40.5771C62.62 40.204 62.5629 39.8613 62.4487 39.5491C62.337 39.2343 62.1644 38.9817 61.9308 38.7914C61.6973 38.601 61.4028 38.5058 61.0475 38.5058C60.6895 38.5058 60.3926 38.601 60.1565 38.7914C59.9229 38.9817 59.7491 39.2343 59.6348 39.5491C59.5232 39.8613 59.4673 40.204 59.4673 40.5771C59.4673 40.9528 59.5232 41.2968 59.6348 41.609C59.7491 41.9212 59.9229 42.1712 60.1565 42.3591C60.3926 42.5469 60.6895 42.6408 61.0475 42.6408ZM65.0407 43.4785V37.63H66.1335V38.5819H66.2058C66.3277 38.2596 66.5269 38.0083 66.8036 37.828C67.0803 37.6453 67.4116 37.5539 67.7974 37.5539C68.1883 37.5539 68.5158 37.6453 68.7798 37.828C69.0463 38.0108 69.243 38.2621 69.3699 38.5819H69.4309C69.5705 38.2697 69.7926 38.0209 70.0972 37.8356C70.4018 37.6478 70.7648 37.5539 71.1862 37.5539C71.7167 37.5539 72.1495 37.7201 72.4846 38.0527C72.8222 38.3852 72.991 38.8865 72.991 39.5567V43.4785H71.8525V39.6633C71.8525 39.2673 71.7446 38.9805 71.5289 38.8028C71.3131 38.6251 71.0554 38.5362 70.7559 38.5362C70.3853 38.5362 70.0972 38.6505 69.8916 38.8789C69.686 39.1048 69.5832 39.3955 69.5832 39.7509V43.4785H68.4485V39.5909C68.4485 39.2736 68.3495 39.0185 68.1515 38.8256C67.9535 38.6327 67.6959 38.5362 67.3786 38.5362C67.1628 38.5362 66.9635 38.5934 66.7808 38.7076C66.6005 38.8193 66.4546 38.9754 66.3429 39.1759C66.2337 39.3765 66.1792 39.6087 66.1792 39.8727V43.4785H65.0407ZM77.0375 43.5966C76.4613 43.5966 75.965 43.4734 75.5487 43.2272C75.135 42.9784 74.8151 42.6294 74.5892 42.1801C74.3658 41.7283 74.2542 41.199 74.2542 40.5923C74.2542 39.9933 74.3658 39.4653 74.5892 39.0084C74.8151 38.5515 75.1299 38.1948 75.5335 37.9384C75.9397 37.6821 76.4143 37.5539 76.9576 37.5539C77.2875 37.5539 77.6074 37.6085 77.9171 37.7176C78.2268 37.8268 78.5047 37.9981 78.7509 38.2316C78.9972 38.4652 79.1914 38.7685 79.3335 39.1417C79.4757 39.5123 79.5467 39.9628 79.5467 40.4934V40.897H74.8976V40.0441H78.4311C78.4311 39.7445 78.3702 39.4793 78.2483 39.2483C78.1265 39.0147 77.9551 38.8307 77.7343 38.6962C77.516 38.5616 77.2596 38.4944 76.9652 38.4944C76.6453 38.4944 76.3661 38.573 76.1275 38.7304C75.8914 38.8853 75.7087 39.0883 75.5792 39.3396C75.4523 39.5884 75.3888 39.8588 75.3888 40.1507V40.817C75.3888 41.2079 75.4574 41.5404 75.5944 41.8146C75.734 42.0887 75.9282 42.2982 76.177 42.4428C76.4258 42.585 76.7164 42.6561 77.0489 42.6561C77.2647 42.6561 77.4614 42.6256 77.6391 42.5647C77.8168 42.5012 77.9704 42.4073 78.0998 42.2829C78.2293 42.1585 78.3283 42.005 78.3968 41.8222L79.4744 42.0164C79.3881 42.3337 79.2332 42.6117 79.0099 42.8503C78.789 43.0863 78.5111 43.2704 78.176 43.4024C77.8435 43.5318 77.464 43.5966 77.0375 43.5966ZM83.54 37.63V38.5439H80.3454V37.63H83.54ZM81.2021 36.2288H82.3406V41.7613C82.3406 41.9821 82.3736 42.1484 82.4396 42.2601C82.5056 42.3692 82.5906 42.4441 82.6947 42.4847C82.8013 42.5228 82.9168 42.5418 83.0412 42.5418C83.1325 42.5418 83.2125 42.5355 83.281 42.5228C83.3496 42.5101 83.4029 42.5 83.441 42.4923L83.6466 43.4328C83.5806 43.4582 83.4866 43.4836 83.3648 43.509C83.243 43.5369 83.0907 43.5521 82.9079 43.5547C82.6084 43.5597 82.3291 43.5064 82.0702 43.3947C81.8113 43.2831 81.6019 43.1104 81.442 42.8769C81.282 42.6434 81.2021 42.3502 81.2021 41.9974V36.2288ZM86.0634 40.006V43.4785H84.925V35.6805H86.0482V38.5819H86.1206C86.2576 38.2672 86.4671 38.0171 86.7488 37.8318C87.0306 37.6465 87.3986 37.5539 87.853 37.5539C88.2541 37.5539 88.6044 37.6364 88.9039 37.8014C89.206 37.9664 89.4395 38.2126 89.6045 38.54C89.7721 38.865 89.8558 39.2711 89.8558 39.7585V43.4785H88.7173V39.8956C88.7173 39.4666 88.6069 39.134 88.3861 38.898C88.1652 38.6594 87.8581 38.54 87.4646 38.54C87.1956 38.54 86.9544 38.5972 86.7412 38.7114C86.5305 38.8256 86.3642 38.9932 86.2424 39.214C86.1231 39.4323 86.0634 39.6963 86.0634 40.006ZM91.3751 43.4785V37.63H92.5135V43.4785H91.3751ZM91.95 36.7276C91.752 36.7276 91.5819 36.6616 91.4398 36.5296C91.3002 36.3951 91.2304 36.2352 91.2304 36.0499C91.2304 35.862 91.3002 35.7021 91.4398 35.5701C91.5819 35.4356 91.752 35.3683 91.95 35.3683C92.148 35.3683 92.3168 35.4356 92.4564 35.5701C92.5986 35.7021 92.6696 35.862 92.6696 36.0499C92.6696 36.2352 92.5986 36.3951 92.4564 36.5296C92.3168 36.6616 92.148 36.7276 91.95 36.7276ZM95.1836 40.006V43.4785H94.0451V37.63H95.1379V38.5819H95.2103C95.3448 38.2722 95.5555 38.0235 95.8423 37.8356C96.1317 37.6478 96.496 37.5539 96.9351 37.5539C97.3336 37.5539 97.6827 37.6376 97.9822 37.8052C98.2817 37.9702 98.514 38.2164 98.679 38.5439C98.844 38.8713 98.9265 39.2762 98.9265 39.7585V43.4785H97.788V39.8956C97.788 39.4716 97.6776 39.1404 97.4568 38.9018C97.2359 38.6606 96.9326 38.54 96.5467 38.54C96.2827 38.54 96.0479 38.5972 95.8423 38.7114C95.6393 38.8256 95.4781 38.9932 95.3588 39.214C95.242 39.4323 95.1836 39.6963 95.1836 40.006ZM102.905 45.7935C102.441 45.7935 102.041 45.7326 101.706 45.6108C101.374 45.4889 101.102 45.3277 100.891 45.1272C100.681 44.9267 100.523 44.7071 100.419 44.4685L101.398 44.0649C101.466 44.1766 101.558 44.2946 101.672 44.419C101.789 44.5459 101.946 44.6538 102.144 44.7426C102.344 44.8315 102.602 44.8759 102.917 44.8759C103.348 44.8759 103.705 44.7706 103.987 44.5599C104.269 44.3517 104.409 44.0192 104.409 43.5623V42.4124H104.337C104.269 42.5368 104.17 42.6751 104.04 42.8274C103.913 42.9797 103.738 43.1117 103.515 43.2234C103.291 43.3351 103.001 43.3909 102.643 43.3909C102.181 43.3909 101.764 43.2831 101.394 43.0673C101.026 42.849 100.734 42.5279 100.518 42.104C100.305 41.6775 100.198 41.1533 100.198 40.5314C100.198 39.9095 100.304 39.3765 100.514 38.9322C100.727 38.488 101.019 38.1479 101.39 37.9118C101.761 37.6732 102.181 37.5539 102.65 37.5539C103.013 37.5539 103.307 37.6148 103.53 37.7366C103.753 37.8559 103.927 37.9956 104.052 38.1555C104.178 38.3154 104.276 38.4563 104.345 38.5781H104.428V37.63H105.544V43.608C105.544 44.1106 105.427 44.5231 105.194 44.8454C104.96 45.1678 104.644 45.4064 104.246 45.5613C103.85 45.7161 103.403 45.7935 102.905 45.7935ZM102.894 42.4467C103.221 42.4467 103.498 42.3705 103.724 42.2182C103.953 42.0634 104.125 41.8425 104.242 41.5557C104.361 41.2663 104.421 40.9198 104.421 40.5162C104.421 40.1227 104.362 39.7763 104.246 39.4767C104.129 39.1772 103.958 38.9437 103.732 38.7761C103.506 38.606 103.227 38.521 102.894 38.521C102.551 38.521 102.266 38.6099 102.037 38.7875C101.809 38.9627 101.636 39.2013 101.519 39.5034C101.405 39.8054 101.348 40.1431 101.348 40.5162C101.348 40.8995 101.407 41.2358 101.523 41.5252C101.64 41.8146 101.813 42.0405 102.041 42.203C102.272 42.3654 102.556 42.4467 102.894 42.4467ZM107.821 43.5509C107.613 43.5509 107.434 43.4772 107.284 43.33C107.134 43.1803 107.06 43 107.06 42.7893C107.06 42.5812 107.134 42.4035 107.284 42.2563C107.434 42.1065 107.613 42.0316 107.821 42.0316C108.029 42.0316 108.208 42.1065 108.358 42.2563C108.508 42.4035 108.583 42.5812 108.583 42.7893C108.583 42.929 108.547 43.0571 108.476 43.1739C108.407 43.2881 108.316 43.3795 108.202 43.4481C108.088 43.5166 107.961 43.5509 107.821 43.5509ZM110.858 43.5509C110.649 43.5509 110.471 43.4772 110.321 43.33C110.171 43.1803 110.096 43 110.096 42.7893C110.096 42.5812 110.171 42.4035 110.321 42.2563C110.471 42.1065 110.649 42.0316 110.858 42.0316C111.066 42.0316 111.245 42.1065 111.395 42.2563C111.544 42.4035 111.619 42.5812 111.619 42.7893C111.619 42.929 111.584 43.0571 111.513 43.1739C111.444 43.2881 111.353 43.3795 111.238 43.4481C111.124 43.5166 110.997 43.5509 110.858 43.5509ZM113.894 43.5509C113.686 43.5509 113.507 43.4772 113.357 43.33C113.208 43.1803 113.133 43 113.133 42.7893C113.133 42.5812 113.208 42.4035 113.357 42.2563C113.507 42.1065 113.686 42.0316 113.894 42.0316C114.102 42.0316 114.281 42.1065 114.431 42.2563C114.581 42.4035 114.656 42.5812 114.656 42.7893C114.656 42.929 114.62 43.0571 114.549 43.1739C114.481 43.2881 114.389 43.3795 114.275 43.4481C114.161 43.5166 114.034 43.5509 113.894 43.5509Z" fill="#89929F"/>
<circle cx="185.621" cy="40.6195" r="12.1768" fill="#EDF1F7"/>
<path d="M182.537 40.0022L185.553 36.9862M185.553 36.9862L188.569 40.0022M185.553 36.9862V44.2246" stroke="#667085" stroke-width="1.2064" stroke-linecap="round" stroke-linejoin="round"/>
<defs>
<filter id="filter0_ddd_2317_188" x="8.17267" y="0.0022583" width="34.1224" height="22.1296" filterUnits="userSpaceOnUse" color-interpolation-filters="sRGB">
<feFlood flood-opacity="0" result="BackgroundImageFix"/>
<feColorMatrix in="SourceAlpha" type="matrix" values="0 0 0 0 0 0 0 0 0 0 0 0 0 0 0 0 0 0 127 0" result="hardAlpha"/>
<feOffset dy="0.765065"/>
<feGaussianBlur stdDeviation="0.306026"/>
<feColorMatrix type="matrix" values="0 0 0 0 0 0 0 0 0 0 0 0 0 0 0 0 0 0 0.0196802 0"/>
<feBlend mode="normal" in2="BackgroundImageFix" result="effect1_dropShadow_2317_188"/>
<feColorMatrix in="SourceAlpha" type="matrix" values="0 0 0 0 0 0 0 0 0 0 0 0 0 0 0 0 0 0 127 0" result="hardAlpha"/>
<feOffset dy="1.83856"/>
<feGaussianBlur stdDeviation="0.735423"/>
<feColorMatrix type="matrix" values="0 0 0 0 0 0 0 0 0 0 0 0 0 0 0 0 0 0 0.0282725 0"/>
<feBlend mode="normal" in2="effect1_dropShadow_2317_188" result="effect2_dropShadow_2317_188"/>
<feColorMatrix in="SourceAlpha" type="matrix" values="0 0 0 0 0 0 0 0 0 0 0 0 0 0 0 0 0 0 127 0" result="hardAlpha"/>
<feOffset dy="3.46184"/>
<feGaussianBlur stdDeviation="1.38474"/>
<feColorMatrix type="matrix" values="0 0 0 0 0 0 0 0 0 0 0 0 0 0 0 0 0 0 0.035 0"/>
<feBlend mode="normal" in2="effect2_dropShadow_2317_188" result="effect3_dropShadow_2317_188"/>
<feBlend mode="normal" in="SourceGraphic" in2="effect3_dropShadow_2317_188" result="shape"/>
</filter>
<filter id="filter1_dddd_2317_188" x="0.195664" y="22.4056" width="210.609" height="64.5635" filterUnits="userSpaceOnUse" color-interpolation-filters="sRGB">
<feFlood flood-opacity="0" result="BackgroundImageFix"/>
<feColorMatrix in="SourceAlpha" type="matrix" values="0 0 0 0 0 0 0 0 0 0 0 0 0 0 0 0 0 0 127 0" result="hardAlpha"/>
<feOffset dy="1.52209"/>
<feGaussianBlur stdDeviation="1.52209"/>
<feColorMatrix type="matrix" values="0 0 0 0 0.0117647 0 0 0 0 0.00784314 0 0 0 0 0.0509804 0 0 0 0.06 0"/>
<feBlend mode="normal" in2="BackgroundImageFix" result="effect1_dropShadow_2317_188"/>
<feColorMatrix in="SourceAlpha" type="matrix" values="0 0 0 0 0 0 0 0 0 0 0 0 0 0 0 0 0 0 127 0" result="hardAlpha"/>
<feOffset dy="5.3273"/>
<feGaussianBlur stdDeviation="2.66365"/>
<feColorMatrix type="matrix" values="0 0 0 0 0.0117647 0 0 0 0 0.00784314 0 0 0 0 0.0509804 0 0 0 0.05 0"/>
<feBlend mode="normal" in2="effect1_dropShadow_2317_188" result="effect2_dropShadow_2317_188"/>
<feColorMatrix in="SourceAlpha" type="matrix" values="0 0 0 0 0 0 0 0 0 0 0 0 0 0 0 0 0 0 127 0" result="hardAlpha"/>
<feOffset dy="12.1767"/>
<feGaussianBlur stdDeviation="3.42469"/>
<feColorMatrix type="matrix" values="0 0 0 0 0.0117647 0 0 0 0 0.00784314 0 0 0 0 0.0509804 0 0 0 0.03 0"/>
<feBlend mode="normal" in2="effect2_dropShadow_2317_188" result="effect3_dropShadow_2317_188"/>
<feColorMatrix in="SourceAlpha" type="matrix" values="0 0 0 0 0 0 0 0 0 0 0 0 0 0 0 0 0 0 127 0" result="hardAlpha"/>
<feOffset dy="21.3092"/>
<feGaussianBlur stdDeviation="4.18574"/>
<feColorMatrix type="matrix" values="0 0 0 0 0.0117647 0 0 0 0 0.00784314 0 0 0 0 0.0509804 0 0 0 0.01 0"/>
<feBlend mode="normal" in2="effect3_dropShadow_2317_188" result="effect4_dropShadow_2317_188"/>
<feBlend mode="normal" in="SourceGraphic" in2="effect4_dropShadow_2317_188" result="shape"/>
</filter>
</defs>
</svg>
