<svg width="230" height="238" viewBox="0 0 230 238" fill="none" xmlns="http://www.w3.org/2000/svg">
<g clip-path="url(#clip0_54_5444)">
<path d="M171.455 100.673L171.477 100.673L171.494 100.672L171.495 100.672L171.495 100.672L171.497 100.672L171.501 100.671C171.51 100.671 171.528 100.671 171.554 100.671C171.606 100.672 171.69 100.675 171.802 100.685C172.026 100.706 172.358 100.755 172.763 100.871C173.569 101.103 174.674 101.603 175.793 102.691C178.027 104.863 180.455 109.516 180.455 119.491C180.455 129.465 178.027 134.118 175.793 136.291C174.674 137.379 173.569 137.879 172.763 138.111C172.358 138.227 172.026 138.276 171.802 138.296C171.69 138.307 171.606 138.31 171.554 138.31C171.538 138.31 171.525 138.31 171.515 138.31C171.509 138.31 171.505 138.31 171.501 138.31L171.497 138.31L171.495 138.31L171.495 138.31L171.494 138.31L171.477 138.309L171.455 138.309L103.823 138.309L103.821 138.309L103.823 138.309L103.816 138.309C103.812 138.309 103.805 138.308 103.797 138.308C103.787 138.308 103.776 138.307 103.762 138.306C103.71 138.303 103.625 138.295 103.512 138.279C103.287 138.247 102.951 138.18 102.543 138.044C101.728 137.773 100.615 137.221 99.4876 136.094C97.2406 133.847 94.8182 129.183 94.8182 119.491C94.8182 109.799 97.2406 105.135 99.4876 102.888C100.615 101.76 101.728 101.209 102.543 100.937C102.951 100.801 103.287 100.735 103.512 100.703C103.625 100.687 103.71 100.679 103.762 100.676C103.789 100.674 103.807 100.673 103.816 100.673L103.823 100.673L171.455 100.673Z" fill="white" stroke="#D9D9DA" stroke-width="1.63636"/>
<path d="M112.818 119.491C112.818 124.814 111.738 129.592 110.029 133.01C108.296 136.476 106.053 138.309 103.818 138.309C101.584 138.309 99.3407 136.476 97.6075 133.01C95.8987 129.592 94.8182 124.814 94.8182 119.491C94.8182 114.168 95.8987 109.389 97.6075 105.972C99.3407 102.505 101.584 100.673 103.818 100.673C106.053 100.673 108.296 102.505 110.029 105.972C111.738 109.389 112.818 114.168 112.818 119.491Z" fill="#FAFAFB" stroke="#D9D9DA" stroke-width="1.63636"/>
<path d="M123.124 123.216C120.532 123.216 118.54 121.404 118.54 118.74C118.54 116.076 120.532 114.264 123.124 114.264C124.156 114.264 125.104 114.564 125.752 114.876V115.992L123.124 115.2C121.072 115.2 119.548 116.676 119.548 118.74C119.548 120.792 121.096 122.28 123.172 122.28C123.976 122.28 124.9 122.064 125.512 121.548L125.908 122.436C125.092 122.94 124.228 123.216 123.124 123.216ZM128.063 123H127.103V114.48H128.063V117.996C128.471 117.36 129.167 117 130.019 117C131.375 117 132.359 117.912 132.359 119.412V123H131.399V119.544C131.399 118.416 130.703 117.828 129.731 117.828C128.759 117.828 128.063 118.416 128.063 119.544V123ZM140.148 123H139.2L138.948 121.932C138.408 122.7 137.556 123.144 136.656 123.144C135.084 123.144 133.656 121.92 133.656 120.072C133.656 118.224 135.084 117 136.656 117C137.556 117 138.396 117.456 138.936 118.212V117.144H139.824V121.572L140.148 123ZM136.752 122.268C137.94 122.268 138.864 121.332 138.864 120.072V119.976C138.816 118.764 137.904 117.876 136.752 117.876C135.564 117.876 134.64 118.812 134.64 120.072C134.64 121.332 135.564 122.268 136.752 122.268ZM142.582 123H141.622V117.144H142.51V118.116C142.906 117.408 143.638 117 144.538 117C145.894 117 146.878 117.912 146.878 119.412V123H145.918V119.544C145.918 118.416 145.222 117.828 144.25 117.828C143.278 117.828 142.582 118.416 142.582 119.544V123ZM149.531 123H148.571V117.144H149.459V118.116C149.855 117.408 150.587 117 151.487 117C152.843 117 153.827 117.912 153.827 119.412V123H152.867V119.544C152.867 118.416 152.171 117.828 151.199 117.828C150.227 117.828 149.531 118.416 149.531 119.544V123ZM158.317 123.144C156.421 123.144 155.137 121.884 155.137 120.072C155.137 118.26 156.421 117 158.029 117C159.565 117 160.645 118.02 160.813 119.496V120.408H156.133C156.217 121.62 157.165 122.304 158.401 122.304L160.369 121.632V122.508C159.973 122.784 159.157 123.144 158.317 123.144ZM158.029 117.852C157.045 117.852 156.241 118.476 156.121 119.58H159.877C159.781 118.488 159.013 117.852 158.029 117.852ZM163.149 123H162.189V114.48H163.149V123ZM172.973 123H167.381V122.196L170.345 118.824C171.245 117.792 171.605 117.276 171.605 116.544C171.605 115.8 171.029 115.224 170.093 115.224L167.645 116.088V114.948C168.545 114.612 169.409 114.336 170.177 114.336C171.509 114.336 172.577 115.224 172.577 116.568C172.577 117.468 172.193 118.092 171.173 119.244L168.665 122.088H172.973V123Z" fill="#292831"/>
</g>
<g clip-path="url(#clip1_54_5444)">
<path d="M171.455 47.8182L171.477 47.8182L171.494 47.8172L171.495 47.8172L171.495 47.8172L171.497 47.8171L171.501 47.817C171.51 47.8168 171.528 47.8166 171.554 47.8169C171.606 47.8176 171.69 47.8206 171.802 47.8308C172.026 47.8512 172.358 47.9003 172.763 48.0165C173.569 48.248 174.674 48.7481 175.793 49.8366C178.027 52.0087 180.455 56.6618 180.455 66.6363C180.455 76.6109 178.027 81.264 175.793 83.4361C174.674 84.5245 173.569 85.0247 172.763 85.2562C172.358 85.3724 172.026 85.4215 171.802 85.4419C171.69 85.4521 171.606 85.4551 171.554 85.4558C171.538 85.456 171.525 85.456 171.515 85.4559C171.509 85.4558 171.505 85.4558 171.501 85.4557L171.497 85.4556L171.495 85.4555L171.495 85.4555L171.494 85.4555L171.477 85.4545L171.455 85.4545L103.823 85.4545L103.821 85.4545L103.823 85.4545L103.816 85.4543C103.812 85.4542 103.805 85.4539 103.797 85.4535C103.787 85.4531 103.776 85.4524 103.762 85.4515C103.71 85.448 103.625 85.4405 103.512 85.4244C103.287 85.3922 102.951 85.3259 102.543 85.1897C101.728 84.9182 100.615 84.3669 99.4876 83.2396C97.2406 80.9926 94.8182 76.3284 94.8182 66.6363C94.8182 56.9443 97.2406 52.28 99.4876 50.0331C100.615 48.9057 101.728 48.3544 102.543 48.083C102.951 47.9468 103.287 47.8805 103.512 47.8483C103.625 47.8322 103.71 47.8246 103.762 47.8211C103.789 47.8194 103.807 47.8186 103.816 47.8183L103.823 47.8182L171.455 47.8182Z" fill="white" stroke="#D9D9DA" stroke-width="1.63636"/>
<path d="M112.818 66.6364C112.818 71.9593 111.738 76.7379 110.029 80.1555C108.296 83.622 106.053 85.4545 103.818 85.4545C101.584 85.4545 99.3407 83.622 97.6075 80.1555C95.8987 76.7379 94.8182 71.9593 94.8182 66.6364C94.8182 61.3134 95.8987 56.5348 97.6075 53.1173C99.3407 49.6508 101.584 47.8182 103.818 47.8182C106.053 47.8182 108.296 49.6508 110.029 53.1173C111.738 56.5348 112.818 61.3134 112.818 66.6364Z" fill="#FAFAFB" stroke="#D9D9DA" stroke-width="1.63636"/>
<path d="M123.124 71.216C120.532 71.216 118.54 69.404 118.54 66.74C118.54 64.076 120.532 62.264 123.124 62.264C124.156 62.264 125.104 62.564 125.752 62.876V63.992L123.124 63.2C121.072 63.2 119.548 64.676 119.548 66.74C119.548 68.792 121.096 70.28 123.172 70.28C123.976 70.28 124.9 70.064 125.512 69.548L125.908 70.436C125.092 70.94 124.228 71.216 123.124 71.216ZM128.063 71H127.103V62.48H128.063V65.996C128.471 65.36 129.167 65 130.019 65C131.375 65 132.359 65.912 132.359 67.412V71H131.399V67.544C131.399 66.416 130.703 65.828 129.731 65.828C128.759 65.828 128.063 66.416 128.063 67.544V71ZM140.148 71H139.2L138.948 69.932C138.408 70.7 137.556 71.144 136.656 71.144C135.084 71.144 133.656 69.92 133.656 68.072C133.656 66.224 135.084 65 136.656 65C137.556 65 138.396 65.456 138.936 66.212V65.144H139.824V69.572L140.148 71ZM136.752 70.268C137.94 70.268 138.864 69.332 138.864 68.072V67.976C138.816 66.764 137.904 65.876 136.752 65.876C135.564 65.876 134.64 66.812 134.64 68.072C134.64 69.332 135.564 70.268 136.752 70.268ZM142.582 71H141.622V65.144H142.51V66.116C142.906 65.408 143.638 65 144.538 65C145.894 65 146.878 65.912 146.878 67.412V71H145.918V67.544C145.918 66.416 145.222 65.828 144.25 65.828C143.278 65.828 142.582 66.416 142.582 67.544V71ZM149.531 71H148.571V65.144H149.459V66.116C149.855 65.408 150.587 65 151.487 65C152.843 65 153.827 65.912 153.827 67.412V71H152.867V67.544C152.867 66.416 152.171 65.828 151.199 65.828C150.227 65.828 149.531 66.416 149.531 67.544V71ZM158.317 71.144C156.421 71.144 155.137 69.884 155.137 68.072C155.137 66.26 156.421 65 158.029 65C159.565 65 160.645 66.02 160.813 67.496V68.408H156.133C156.217 69.62 157.165 70.304 158.401 70.304L160.369 69.632V70.508C159.973 70.784 159.157 71.144 158.317 71.144ZM158.029 65.852C157.045 65.852 156.241 66.476 156.121 67.58H159.877C159.781 66.488 159.013 65.852 158.029 65.852ZM163.149 71H162.189V62.48H163.149V71ZM173.033 71H167.489V70.088H169.781V63.644L167.621 65.084V64.004L169.997 62.48H170.789V70.088H173.033V71Z" fill="#292831"/>
</g>
<g clip-path="url(#clip2_54_5444)">
<path d="M171.455 152.546L171.477 152.546L171.494 152.545L171.495 152.545L171.495 152.545L171.497 152.545L171.501 152.545C171.51 152.544 171.528 152.544 171.554 152.544C171.606 152.545 171.69 152.548 171.802 152.558C172.026 152.579 172.358 152.628 172.763 152.744C173.569 152.976 174.674 153.476 175.793 154.564C178.027 156.736 180.455 161.389 180.455 171.364C180.455 181.338 178.027 185.992 175.793 188.164C174.674 189.252 173.569 189.752 172.763 189.984C172.358 190.1 172.026 190.149 171.802 190.169C171.69 190.18 171.606 190.183 171.554 190.183C171.538 190.184 171.525 190.184 171.515 190.183C171.509 190.183 171.505 190.183 171.501 190.183L171.497 190.183L171.495 190.183L171.495 190.183L171.494 190.183L171.477 190.182L171.455 190.182L103.823 190.182L103.821 190.182L103.823 190.182L103.816 190.182C103.812 190.182 103.805 190.181 103.797 190.181C103.787 190.181 103.776 190.18 103.762 190.179C103.71 190.176 103.625 190.168 103.512 190.152C103.287 190.12 102.951 190.053 102.543 189.917C101.728 189.646 100.615 189.094 99.4876 187.967C97.2406 185.72 94.8182 181.056 94.8182 171.364C94.8182 161.672 97.2406 157.008 99.4876 154.761C100.615 153.633 101.728 153.082 102.543 152.811C102.951 152.674 103.287 152.608 103.512 152.576C103.625 152.56 103.71 152.552 103.762 152.549C103.789 152.547 103.807 152.546 103.816 152.546L103.823 152.546L171.455 152.546Z" fill="white" stroke="#D9D9DA" stroke-width="1.63636"/>
<path d="M112.818 171.364C112.818 176.687 111.738 181.465 110.029 184.883C108.296 188.349 106.053 190.182 103.818 190.182C101.584 190.182 99.3407 188.349 97.6075 184.883C95.8987 181.465 94.8182 176.687 94.8182 171.364C94.8182 166.041 95.8987 161.262 97.6075 157.845C99.3407 154.378 101.584 152.545 103.818 152.545C106.053 152.545 108.296 154.378 110.029 157.845C111.738 161.262 112.818 166.041 112.818 171.364Z" fill="#FAFAFB" stroke="#D9D9DA" stroke-width="1.63636"/>
<path d="M123.124 175.216C120.532 175.216 118.54 173.404 118.54 170.74C118.54 168.076 120.532 166.264 123.124 166.264C124.156 166.264 125.104 166.564 125.752 166.876V167.992L123.124 167.2C121.072 167.2 119.548 168.676 119.548 170.74C119.548 172.792 121.096 174.28 123.172 174.28C123.976 174.28 124.9 174.064 125.512 173.548L125.908 174.436C125.092 174.94 124.228 175.216 123.124 175.216ZM128.063 175H127.103V166.48H128.063V169.996C128.471 169.36 129.167 169 130.019 169C131.375 169 132.359 169.912 132.359 171.412V175H131.399V171.544C131.399 170.416 130.703 169.828 129.731 169.828C128.759 169.828 128.063 170.416 128.063 171.544V175ZM140.148 175H139.2L138.948 173.932C138.408 174.7 137.556 175.144 136.656 175.144C135.084 175.144 133.656 173.92 133.656 172.072C133.656 170.224 135.084 169 136.656 169C137.556 169 138.396 169.456 138.936 170.212V169.144H139.824V173.572L140.148 175ZM136.752 174.268C137.94 174.268 138.864 173.332 138.864 172.072V171.976C138.816 170.764 137.904 169.876 136.752 169.876C135.564 169.876 134.64 170.812 134.64 172.072C134.64 173.332 135.564 174.268 136.752 174.268ZM142.582 175H141.622V169.144H142.51V170.116C142.906 169.408 143.638 169 144.538 169C145.894 169 146.878 169.912 146.878 171.412V175H145.918V171.544C145.918 170.416 145.222 169.828 144.25 169.828C143.278 169.828 142.582 170.416 142.582 171.544V175ZM149.531 175H148.571V169.144H149.459V170.116C149.855 169.408 150.587 169 151.487 169C152.843 169 153.827 169.912 153.827 171.412V175H152.867V171.544C152.867 170.416 152.171 169.828 151.199 169.828C150.227 169.828 149.531 170.416 149.531 171.544V175ZM158.317 175.144C156.421 175.144 155.137 173.884 155.137 172.072C155.137 170.26 156.421 169 158.029 169C159.565 169 160.645 170.02 160.813 171.496V172.408H156.133C156.217 173.62 157.165 174.304 158.401 174.304L160.369 173.632V174.508C159.973 174.784 159.157 175.144 158.317 175.144ZM158.029 169.852C157.045 169.852 156.241 170.476 156.121 171.58H159.877C159.781 170.488 159.013 169.852 158.029 169.852ZM163.149 175H162.189V166.48H163.149V175ZM170.033 175.144C168.797 175.144 167.933 174.688 167.297 173.848L168.029 173.152C168.485 173.872 169.193 174.256 170.033 174.244C171.077 174.232 171.893 173.488 171.893 172.384C171.893 171.304 171.077 170.536 170.033 170.536L168.725 170.872L168.185 170.26L170.933 167.392H167.729V166.48H172.397V167.2L169.985 169.636H170.033C171.521 169.636 172.865 170.74 172.865 172.384C172.865 174.04 171.521 175.144 170.033 175.144Z" fill="#292831"/>
</g>
<g clip-path="url(#clip3_54_5444)">
<rect width="30.3487" height="21.1521" transform="translate(6 109)" fill="white"/>
<path d="M8.48531 128.883H33.8627C34.8785 128.883 35.702 128.06 35.702 127.044V111.69C35.702 110.672 34.8762 109.848 33.8589 109.85L8.48154 109.902C7.46719 109.904 6.646 110.727 6.646 111.742V127.044C6.646 128.06 7.46949 128.883 8.48531 128.883Z" stroke="#FF5416" stroke-width="1.37949" stroke-linecap="round" stroke-linejoin="round"/>
<path d="M7.15234 110.522L17.4983 119.572C19.5895 121.401 22.7204 121.398 24.8073 119.564L35.0957 110.522" stroke="#FF5416" stroke-width="1.37949" stroke-linecap="round"/>
<path d="M35.3413 128.51L25.0252 119.46M7.15796 128.51L17.3396 119.614" stroke="#FF5416" stroke-width="1.37949"/>
</g>
<path d="M82.1767 119.208C82.4655 118.919 82.4655 118.451 82.1767 118.162L77.4702 113.456C77.1814 113.167 76.7131 113.167 76.4243 113.456C76.1355 113.745 76.1355 114.213 76.4243 114.502L80.6079 118.685L76.4243 122.869C76.1355 123.158 76.1355 123.626 76.4243 123.915C76.7131 124.204 77.1814 124.204 77.4702 123.915L82.1767 119.208ZM48 119.425L81.6537 119.425L81.6537 117.946L48 117.946L48 119.425Z" fill="#D9D9DA"/>
<path d="M82.2719 61.5229C82.5607 61.2341 82.5607 60.7659 82.2719 60.4771L77.5654 55.7706C77.2766 55.4818 76.8084 55.4818 76.5196 55.7706C76.2307 56.0594 76.2307 56.5276 76.5196 56.8165L80.7031 61L76.5196 65.1835C76.2307 65.4724 76.2307 65.9406 76.5196 66.2294C76.8084 66.5182 77.2766 66.5182 77.5654 66.2294L82.2719 61.5229ZM69.6904 106.731V73.7982H68.2112V106.731H69.6904ZM69.6904 73.7982C69.6904 67.1384 75.0892 61.7396 81.749 61.7396V60.2604C74.2723 60.2604 68.2112 66.3215 68.2112 73.7982H69.6904ZM56.9966 119.425C64.0072 119.425 69.6904 113.742 69.6904 106.731H68.2112C68.2112 112.925 63.1903 117.946 56.9966 117.946V119.425Z" fill="#D9D9DA"/>
<path d="M82.2719 175.848C82.5607 176.137 82.5607 176.605 82.2719 176.894L77.5654 181.6C77.2766 181.889 76.8084 181.889 76.5196 181.6C76.2307 181.311 76.2307 180.843 76.5196 180.554L80.7031 176.371L76.5196 172.187C76.2307 171.898 76.2307 171.43 76.5196 171.141C76.8084 170.853 77.2766 170.853 77.5654 171.141L82.2719 175.848ZM69.6904 130.64L69.6904 163.573L68.2112 163.573L68.2112 130.64L69.6904 130.64ZM69.6904 163.573C69.6904 170.232 75.0892 175.631 81.749 175.631L81.749 177.11C74.2723 177.11 68.2112 171.049 68.2112 163.573L69.6904 163.573ZM56.9966 117.946C64.0072 117.946 69.6904 123.629 69.6904 130.64L68.2112 130.64C68.2112 124.446 63.1903 119.425 56.9966 119.425L56.9966 117.946Z" fill="#D9D9DA"/>
<defs>
<clipPath id="clip0_54_5444">
<rect width="87.2727" height="39.2727" fill="white" transform="translate(94 99.8545)"/>
</clipPath>
<clipPath id="clip1_54_5444">
<rect width="87.2727" height="39.2727" fill="white" transform="translate(94 47)"/>
</clipPath>
<clipPath id="clip2_54_5444">
<rect width="87.2727" height="39.2727" fill="white" transform="translate(94 151.727)"/>
</clipPath>
<clipPath id="clip3_54_5444">
<rect width="30.3487" height="21.1521" fill="white" transform="translate(6 109)"/>
</clipPath>
</defs>
</svg>
