<svg width="179" height="131" viewBox="0 0 179 131" fill="none" xmlns="http://www.w3.org/2000/svg" style="cursor: pointer;">
<line x1="57.6864" y1="36.4159" x2="131.595" y2="36.4159" stroke="#E4E4E7" stroke-width="0.809289" stroke-linecap="round" stroke-dasharray="3.24 3.24"/>
<line x1="57.684" y1="76.1875" x2="131.597" y2="76.1875" stroke="#E4E4E7" stroke-width="0.804492" stroke-linecap="round" stroke-dasharray="3.22 3.22"/>
<line x1="57.6864" y1="112.339" x2="131.595" y2="112.339" stroke="#E2E8F0" stroke-width="0.809289" stroke-linecap="round"/>
<path d="M51.6648 114.574C51.2591 114.572 50.9124 114.465 50.6248 114.253C50.3372 114.041 50.1173 113.732 49.9649 113.326C49.8126 112.92 49.7364 112.432 49.7364 111.86C49.7364 111.29 49.8126 110.803 49.9649 110.399C50.119 109.995 50.3398 109.687 50.6274 109.474C50.9167 109.262 51.2625 109.156 51.6648 109.156C52.0671 109.156 52.412 109.263 52.6996 109.477C52.9872 109.689 53.2071 109.997 53.3595 110.401C53.5135 110.804 53.5906 111.29 53.5906 111.86C53.5906 112.433 53.5144 112.923 53.3621 113.329C53.2097 113.733 52.9897 114.042 52.7021 114.256C52.4146 114.468 52.0688 114.574 51.6648 114.574ZM51.6648 113.888C52.0208 113.888 52.299 113.715 52.4993 113.367C52.7013 113.02 52.8023 112.517 52.8023 111.86C52.8023 111.423 52.7561 111.054 52.6636 110.753C52.5729 110.45 52.4419 110.221 52.2708 110.065C52.1013 109.908 51.8993 109.829 51.6648 109.829C51.3104 109.829 51.0323 110.003 50.8303 110.353C50.6283 110.702 50.5264 111.204 50.5247 111.86C50.5247 112.298 50.5701 112.669 50.6608 112.972C50.7532 113.273 50.8842 113.502 51.0536 113.657C51.2231 113.811 51.4268 113.888 51.6648 113.888Z" fill="#94A3B8"/>
<path d="M45.0981 78.5364C44.7763 78.5364 44.487 78.4747 44.2302 78.3515C43.9751 78.2265 43.7714 78.0554 43.6191 77.8379C43.4667 77.6205 43.3854 77.3723 43.3751 77.0933H44.1455C44.1643 77.3193 44.2644 77.505 44.4459 77.6505C44.6273 77.796 44.8447 77.8688 45.0981 77.8688C45.3001 77.8688 45.479 77.8225 45.6347 77.7301C45.7922 77.636 45.9155 77.5067 46.0045 77.3424C46.0952 77.178 46.1406 76.9906 46.1406 76.78C46.1406 76.5661 46.0944 76.3752 46.0019 76.2074C45.9095 76.0397 45.782 75.9079 45.6193 75.812C45.4584 75.7161 45.2735 75.6673 45.0647 75.6656C44.9055 75.6656 44.7454 75.693 44.5845 75.7478C44.4236 75.8026 44.2935 75.8745 44.1942 75.9635L43.4676 75.8556L43.7629 73.2057H46.6541V73.8862H44.4228L44.2559 75.3575H44.2867C44.3894 75.2582 44.5255 75.1752 44.695 75.1084C44.8661 75.0417 45.0493 75.0083 45.2444 75.0083C45.5646 75.0083 45.8496 75.0845 46.0995 75.2368C46.3511 75.3892 46.5489 75.5972 46.6927 75.8608C46.8382 76.1227 46.9101 76.424 46.9083 76.7646C46.9101 77.1053 46.833 77.4091 46.6772 77.6762C46.5232 77.9432 46.3092 78.1538 46.0353 78.3078C45.7631 78.4602 45.4507 78.5364 45.0981 78.5364ZM49.677 78.5518C49.2713 78.5501 48.9247 78.4431 48.6371 78.2308C48.3495 78.0185 48.1295 77.7096 47.9772 77.3039C47.8248 76.8982 47.7486 76.4094 47.7486 75.8377C47.7486 75.2676 47.8248 74.7806 47.9772 74.3766C48.1312 73.9726 48.3521 73.6645 48.6396 73.4522C48.9289 73.24 49.2747 73.1338 49.677 73.1338C50.0793 73.1338 50.4242 73.2408 50.7118 73.4548C50.9994 73.6671 51.2194 73.9752 51.3717 74.3792C51.5258 74.7815 51.6028 75.2676 51.6028 75.8377C51.6028 76.4111 51.5266 76.9007 51.3743 77.3064C51.2219 77.7104 51.002 78.0194 50.7144 78.2334C50.4268 78.4456 50.081 78.5518 49.677 78.5518ZM49.677 77.8662C50.0331 77.8662 50.3113 77.6924 50.5115 77.3449C50.7135 76.9974 50.8145 76.495 50.8145 75.8377C50.8145 75.4012 50.7683 75.0323 50.6759 74.731C50.5851 74.428 50.4542 74.1986 50.283 74.0428C50.1135 73.8853 49.9115 73.8066 49.677 73.8066C49.3227 73.8066 49.0445 73.9812 48.8425 74.3304C48.6405 74.6796 48.5387 75.182 48.5369 75.8377C48.5369 76.2759 48.5823 76.6465 48.673 76.9495C48.7655 77.2508 48.8964 77.4793 49.0659 77.6351C49.2354 77.7892 49.4391 77.8662 49.677 77.8662Z" fill="#94A3B8"/>
<path d="M40.501 32.7413V38H39.705V33.5373H39.6742L38.416 34.3589V33.5989L39.7281 32.7413H40.501ZM43.7543 38.0873C43.3486 38.0856 43.002 37.9786 42.7144 37.7663C42.4268 37.5541 42.2068 37.2451 42.0545 36.8394C41.9021 36.4337 41.8259 35.9449 41.8259 35.3732C41.8259 34.8032 41.9021 34.3161 42.0545 33.9121C42.2085 33.5082 42.4294 33.2 42.7169 32.9878C43.0062 32.7755 43.352 32.6694 43.7543 32.6694C44.1566 32.6694 44.5015 32.7764 44.7891 32.9903C45.0767 33.2026 45.2967 33.5107 45.449 33.9147C45.6031 34.317 45.6801 34.8032 45.6801 35.3732C45.6801 35.9467 45.6039 36.4362 45.4516 36.8419C45.2992 37.2459 45.0793 37.5549 44.7917 37.7689C44.5041 37.9812 44.1583 38.0873 43.7543 38.0873ZM43.7543 37.4017C44.1104 37.4017 44.3885 37.228 44.5888 36.8805C44.7908 36.533 44.8918 36.0305 44.8918 35.3732C44.8918 34.9367 44.8456 34.5678 44.7532 34.2665C44.6624 33.9635 44.5315 33.7341 44.3603 33.5783C44.1908 33.4209 43.9888 33.3421 43.7543 33.3421C43.4 33.3421 43.1218 33.5167 42.9198 33.8659C42.7178 34.2151 42.6159 34.7176 42.6142 35.3732C42.6142 35.8114 42.6596 36.182 42.7503 36.485C42.8428 36.7863 42.9737 37.0148 43.1432 37.1706C43.3127 37.3247 43.5164 37.4017 43.7543 37.4017ZM48.4218 38.0873C48.0161 38.0856 47.6695 37.9786 47.3819 37.7663C47.0943 37.5541 46.8743 37.2451 46.722 36.8394C46.5696 36.4337 46.4935 35.9449 46.4935 35.3732C46.4935 34.8032 46.5696 34.3161 46.722 33.9121C46.8761 33.5082 47.0969 33.2 47.3845 32.9878C47.6738 32.7755 48.0196 32.6694 48.4218 32.6694C48.8241 32.6694 49.169 32.7764 49.4566 32.9903C49.7442 33.2026 49.9642 33.5107 50.1165 33.9147C50.2706 34.317 50.3476 34.8032 50.3476 35.3732C50.3476 35.9467 50.2715 36.4362 50.1191 36.8419C49.9668 37.2459 49.7468 37.5549 49.4592 37.7689C49.1716 37.9812 48.8258 38.0873 48.4218 38.0873ZM48.4218 37.4017C48.7779 37.4017 49.0561 37.228 49.2564 36.8805C49.4583 36.533 49.5593 36.0305 49.5593 35.3732C49.5593 34.9367 49.5131 34.5678 49.4207 34.2665C49.33 33.9635 49.199 33.7341 49.0278 33.5783C48.8584 33.4209 48.6564 33.3421 48.4218 33.3421C48.0675 33.3421 47.7893 33.5167 47.5873 33.8659C47.3853 34.2151 47.2835 34.7176 47.2818 35.3732C47.2818 35.8114 47.3271 36.182 47.4178 36.485C47.5103 36.7863 47.6412 37.0148 47.8107 37.1706C47.9802 37.3247 48.1839 37.4017 48.4218 37.4017Z" fill="#94A3B8"/>
<g filter="url(#filter0_d_52_1870)">
<path d="M62.416 64.7773C62.416 62.9899 63.865 61.5409 65.6524 61.5409V61.5409C67.4398 61.5409 68.8888 62.9899 68.8888 64.7773V113.323H62.416V64.7773Z" fill="#008E06"/>
</g>
<g filter="url(#filter1_d_52_1870)">
<path d="M76.981 84.1956C76.981 82.4082 78.4299 80.9592 80.2174 80.9592V80.9592C82.0048 80.9592 83.4538 82.4082 83.4538 84.1956V113.323H76.981V84.1956Z" fill="#00C008"/>
</g>
<g filter="url(#filter2_d_52_1870)">
<path d="M91.5439 35.6496C91.5439 33.8622 92.9929 32.4132 94.7803 32.4132V32.4132C96.5678 32.4132 98.0168 33.8622 98.0168 35.6496V113.323H91.5439V35.6496Z" fill="#008E06"/>
</g>
<g filter="url(#filter3_d_52_1870)">
<path d="M106.107 55.068C106.107 53.2806 107.556 51.8316 109.343 51.8316V51.8316C111.131 51.8316 112.58 53.2806 112.58 55.068V113.323H106.107V55.068Z" fill="#00C008"/>
</g>
<g filter="url(#filter4_d_52_1870)">
<path d="M120.672 82.5773C120.672 80.7899 122.121 79.3409 123.908 79.3409V79.3409C125.696 79.3409 127.145 80.7899 127.145 82.5773V113.323H120.672V82.5773Z" fill="#008E06"/>
</g>
<defs>
<filter id="filter0_d_52_1870" x="50.416" y="57.5409" width="30.4727" height="75.7825" filterUnits="userSpaceOnUse" color-interpolation-filters="sRGB">
<feFlood flood-opacity="0" result="BackgroundImageFix"/>
<feColorMatrix in="SourceAlpha" type="matrix" values="0 0 0 0 0 0 0 0 0 0 0 0 0 0 0 0 0 0 127 0" result="hardAlpha"/>
<feOffset dy="8"/>
<feGaussianBlur stdDeviation="6"/>
<feColorMatrix type="matrix" values="0 0 0 0 0 0 0 0 0 0 0 0 0 0 0 0 0 0 0.05 0"/>
<feBlend mode="normal" in2="BackgroundImageFix" result="effect1_dropShadow_52_1870"/>
<feBlend mode="normal" in="SourceGraphic" in2="effect1_dropShadow_52_1870" result="shape"/>
</filter>
<filter id="filter1_d_52_1870" x="64.981" y="76.9592" width="30.4727" height="56.364" filterUnits="userSpaceOnUse" color-interpolation-filters="sRGB">
<feFlood flood-opacity="0" result="BackgroundImageFix"/>
<feColorMatrix in="SourceAlpha" type="matrix" values="0 0 0 0 0 0 0 0 0 0 0 0 0 0 0 0 0 0 127 0" result="hardAlpha"/>
<feOffset dy="8"/>
<feGaussianBlur stdDeviation="6"/>
<feColorMatrix type="matrix" values="0 0 0 0 0 0 0 0 0 0 0 0 0 0 0 0 0 0 0.05 0"/>
<feBlend mode="normal" in2="BackgroundImageFix" result="effect1_dropShadow_52_1870"/>
<feBlend mode="normal" in="SourceGraphic" in2="effect1_dropShadow_52_1870" result="shape"/>
</filter>
<filter id="filter2_d_52_1870" x="79.5439" y="28.4132" width="30.4727" height="104.91" filterUnits="userSpaceOnUse" color-interpolation-filters="sRGB">
<feFlood flood-opacity="0" result="BackgroundImageFix"/>
<feColorMatrix in="SourceAlpha" type="matrix" values="0 0 0 0 0 0 0 0 0 0 0 0 0 0 0 0 0 0 127 0" result="hardAlpha"/>
<feOffset dy="8"/>
<feGaussianBlur stdDeviation="6"/>
<feColorMatrix type="matrix" values="0 0 0 0 0 0 0 0 0 0 0 0 0 0 0 0 0 0 0.05 0"/>
<feBlend mode="normal" in2="BackgroundImageFix" result="effect1_dropShadow_52_1870"/>
<feBlend mode="normal" in="SourceGraphic" in2="effect1_dropShadow_52_1870" result="shape"/>
</filter>
<filter id="filter3_d_52_1870" x="94.1069" y="47.8316" width="30.4727" height="85.4917" filterUnits="userSpaceOnUse" color-interpolation-filters="sRGB">
<feFlood flood-opacity="0" result="BackgroundImageFix"/>
<feColorMatrix in="SourceAlpha" type="matrix" values="0 0 0 0 0 0 0 0 0 0 0 0 0 0 0 0 0 0 127 0" result="hardAlpha"/>
<feOffset dy="8"/>
<feGaussianBlur stdDeviation="6"/>
<feColorMatrix type="matrix" values="0 0 0 0 0 0 0 0 0 0 0 0 0 0 0 0 0 0 0.05 0"/>
<feBlend mode="normal" in2="BackgroundImageFix" result="effect1_dropShadow_52_1870"/>
<feBlend mode="normal" in="SourceGraphic" in2="effect1_dropShadow_52_1870" result="shape"/>
</filter>
<filter id="filter4_d_52_1870" x="108.672" y="75.3409" width="30.4727" height="57.9822" filterUnits="userSpaceOnUse" color-interpolation-filters="sRGB">
<feFlood flood-opacity="0" result="BackgroundImageFix"/>
<feColorMatrix in="SourceAlpha" type="matrix" values="0 0 0 0 0 0 0 0 0 0 0 0 0 0 0 0 0 0 127 0" result="hardAlpha"/>
<feOffset dy="8"/>
<feGaussianBlur stdDeviation="6"/>
<feColorMatrix type="matrix" values="0 0 0 0 0 0 0 0 0 0 0 0 0 0 0 0 0 0 0.05 0"/>
<feBlend mode="normal" in2="BackgroundImageFix" result="effect1_dropShadow_52_1870"/>
<feBlend mode="normal" in="SourceGraphic" in2="effect1_dropShadow_52_1870" result="shape"/>
</filter>
</defs>
</svg>
