<svg width="179" height="131" viewBox="0 0 179 131" fill="none" xmlns="http://www.w3.org/2000/svg" style="cursor: pointer;">
<g filter="url(#filter0_d_52_1692)">
<rect x="88.2686" y="21" width="43.5872" height="27.242" rx="13.621" fill="white"/>
<rect x="88.5686" y="21.3" width="42.9872" height="26.642" rx="13.321" stroke="#D9D9DA" stroke-width="0.6"/>
</g>
<g clip-path="url(#clip0_52_1692)">
<path d="M101.888 42.0276C106.402 42.0276 110.061 38.3861 110.061 33.8939C110.061 29.4018 106.402 25.7603 101.888 25.7603C97.3748 25.7603 93.7158 29.4018 93.7158 33.8939C93.7158 38.3861 97.3748 42.0276 101.888 42.0276Z" fill="#FFCC4D"/>
<path d="M101.888 35.2496C100.243 35.2496 99.152 35.0589 97.8021 34.7977C97.4938 34.7385 96.894 34.7977 96.894 35.7014C96.894 37.5089 98.9803 39.7683 101.888 39.7683C104.796 39.7683 106.883 37.5089 106.883 35.7014C106.883 34.7977 106.283 34.738 105.975 34.7977C104.625 35.0589 103.533 35.2496 101.888 35.2496Z" fill="#664500"/>
<path d="M97.8022 35.7014C97.8022 35.7014 99.1643 36.1533 101.889 36.1533C104.613 36.1533 105.975 35.7014 105.975 35.7014C105.975 35.7014 105.067 37.5089 101.889 37.5089C98.7103 37.5089 97.8022 35.7014 97.8022 35.7014Z" fill="white"/>
<path d="M99.1644 33.4421C99.7913 33.4421 100.299 32.734 100.299 31.8605C100.299 30.987 99.7913 30.279 99.1644 30.279C98.5375 30.279 98.0293 30.987 98.0293 31.8605C98.0293 32.734 98.5375 33.4421 99.1644 33.4421Z" fill="#664500"/>
<path d="M104.613 33.4421C105.24 33.4421 105.748 32.734 105.748 31.8605C105.748 30.987 105.24 30.279 104.613 30.279C103.986 30.279 103.478 30.987 103.478 31.8605C103.478 32.734 103.986 33.4421 104.613 33.4421Z" fill="#664500"/>
</g>
<path d="M118.234 38.5526C117.699 38.5526 117.223 38.4609 116.807 38.2775C116.393 38.0941 116.066 37.8388 115.825 37.5117C115.585 37.1845 115.457 36.8066 115.442 36.3778H116.84C116.852 36.5835 116.921 36.7632 117.045 36.9169C117.168 37.0681 117.333 37.1858 117.539 37.27C117.745 37.3543 117.975 37.3964 118.23 37.3964C118.503 37.3964 118.745 37.3493 118.955 37.2552C119.166 37.1585 119.331 37.0247 119.45 36.8537C119.569 36.6827 119.627 36.4856 119.625 36.2626C119.627 36.0321 119.567 35.8289 119.446 35.6529C119.325 35.477 119.149 35.3394 118.918 35.2403C118.69 35.1412 118.415 35.0916 118.093 35.0916H117.42V34.0284H118.093C118.358 34.0284 118.59 33.9825 118.788 33.8908C118.989 33.7991 119.146 33.6703 119.26 33.5042C119.374 33.3357 119.43 33.1411 119.427 32.9206C119.43 32.7049 119.382 32.5178 119.282 32.3592C119.186 32.1981 119.048 32.073 118.87 31.9838C118.694 31.8945 118.487 31.8499 118.249 31.8499C118.016 31.8499 117.8 31.8921 117.602 31.9763C117.404 32.0606 117.244 32.1808 117.123 32.3369C117.001 32.4906 116.937 32.674 116.929 32.8871H115.602C115.612 32.4608 115.735 32.0866 115.97 31.7644C116.208 31.4398 116.525 31.187 116.922 31.0061C117.318 30.8227 117.763 30.731 118.256 30.731C118.765 30.731 119.206 30.8264 119.58 31.0172C119.957 31.2056 120.248 31.4596 120.454 31.7793C120.659 32.099 120.762 32.4522 120.762 32.8388C120.765 33.2675 120.638 33.6269 120.383 33.9169C120.13 34.2068 119.798 34.3964 119.387 34.4856V34.5451C119.922 34.6195 120.332 34.8177 120.617 35.1399C120.905 35.4596 121.047 35.8574 121.045 36.3332C121.045 36.7595 120.923 37.1412 120.68 37.4782C120.44 37.8128 120.108 38.0755 119.684 38.2663C119.263 38.4572 118.779 38.5526 118.234 38.5526Z" fill="#292831"/>
<g filter="url(#filter1_d_52_1692)">
<rect x="88.2686" y="55.3027" width="43.8922" height="27.4326" rx="13.7163" fill="white"/>
<rect x="88.5686" y="55.6027" width="43.2922" height="26.8326" rx="13.4163" stroke="#D9D9DA" stroke-width="0.6"/>
</g>
<path d="M115.869 72.7892V71.793L118.512 69.2019C118.765 68.9466 118.975 68.7198 119.144 68.5216C119.312 68.3233 119.439 68.1312 119.523 67.9453C119.607 67.7595 119.649 67.5612 119.649 67.3505C119.649 67.1101 119.595 66.9044 119.486 66.7334C119.377 66.56 119.227 66.4261 119.036 66.3319C118.845 66.2378 118.628 66.1907 118.386 66.1907C118.135 66.1907 117.916 66.2427 117.728 66.3468C117.539 66.4484 117.393 66.5934 117.289 66.7818C117.187 66.9701 117.136 67.1944 117.136 67.4546H115.824C115.824 66.9714 115.934 66.5513 116.155 66.1944C116.376 65.8375 116.679 65.5612 117.066 65.3654C117.455 65.1696 117.901 65.0717 118.404 65.0717C118.915 65.0717 119.363 65.1671 119.75 65.358C120.136 65.5488 120.436 65.8103 120.649 66.1424C120.865 66.4745 120.973 66.8536 120.973 67.2799C120.973 67.5649 120.918 67.845 120.809 68.1201C120.7 68.3952 120.508 68.7 120.233 69.0346C119.961 69.3691 119.578 69.7744 119.084 70.2502L117.772 71.5848V71.6368H121.088V72.7892H115.869Z" fill="#292831"/>
<g clip-path="url(#clip1_52_1692)">
<path d="M110.162 67.0059C110.162 64.5259 108.142 62.5156 105.651 62.5156C104.138 62.5156 102.804 63.2587 101.985 64.3944C101.166 63.2587 99.8314 62.5156 98.3194 62.5156C95.8276 62.5156 93.8076 64.5255 93.8076 67.0059C93.8076 67.3571 93.8524 67.6975 93.9292 68.0256C94.5556 71.8993 98.8831 75.9859 101.985 77.108C105.086 75.9859 109.414 71.8993 110.039 68.026C110.117 67.698 110.162 67.3576 110.162 67.0059V67.0059Z" fill="#DD2E44"/>
</g>
<g filter="url(#filter2_d_52_1692)">
<rect x="88.2686" y="89.7863" width="43.9073" height="27.4421" rx="13.721" fill="white"/>
<rect x="88.5686" y="90.0863" width="43.3073" height="26.8421" rx="13.421" stroke="#D9D9DA" stroke-width="0.6"/>
</g>
<path d="M119.713 99.6612V107.275H118.334V101.003H118.289L116.509 102.141V100.877L118.401 99.6612H119.713Z" fill="#292831"/>
<g clip-path="url(#clip2_52_1692)">
<path d="M95.98 99.3171C96.41 99.018 97.058 99.0753 97.4441 99.3926L97.0013 98.7522C96.645 98.2464 96.7726 97.6993 97.2812 97.3443C97.7898 96.9906 99.231 97.9415 99.231 97.9415C98.8715 97.4307 98.9387 96.7835 99.4519 96.4252C99.9651 96.0684 100.673 96.1917 101.033 96.7034L105.798 103.404L105.191 109.264L100.122 107.424L95.7006 100.9C95.3379 100.386 95.4632 99.6776 95.98 99.3171Z" fill="#EF9645"/>
<path d="M94.9895 103.045C94.9895 103.045 94.4718 102.294 95.2269 101.779C95.9811 101.264 96.4984 102.015 96.4984 102.015L98.9 105.5C98.9828 105.363 99.0734 105.227 99.1745 105.093L95.8412 100.256C95.8412 100.256 95.3239 99.5055 96.0785 98.9907C96.8327 98.4759 97.35 99.2265 97.35 99.2265L100.485 103.777C100.602 103.682 100.721 103.587 100.844 103.494L97.2096 98.2178C97.2096 98.2178 96.6923 97.4672 97.447 96.9524C98.2012 96.4375 98.7185 97.1881 98.7185 97.1881L102.353 102.463C102.487 102.382 102.619 102.311 102.752 102.237L99.3542 97.306C99.3542 97.306 98.8369 96.5554 99.5911 96.0406C100.345 95.5258 100.863 96.2764 100.863 96.2764L104.455 101.49L105.001 102.283C102.738 103.828 102.522 106.734 103.815 108.611C104.074 108.987 104.451 108.729 104.451 108.729C102.899 106.477 103.373 103.945 105.637 102.401L104.969 99.0772C104.969 99.0772 104.72 98.2014 105.6 97.9529C106.48 97.7048 106.729 98.5806 106.729 98.5806L107.5 100.858C107.805 101.761 108.131 102.661 108.561 103.513C109.776 105.916 109.05 108.903 106.759 110.467C104.259 112.173 100.842 111.539 99.1283 109.052L94.9895 103.045Z" fill="#FFDC5D"/>
<path d="M99.2452 109.739C97.4158 109.739 95.5671 107.899 95.5671 106.078C95.5671 105.826 95.3818 105.623 95.1289 105.623C94.876 105.623 94.6523 105.826 94.6523 106.078C94.6523 108.809 96.501 110.649 99.2452 110.649C99.4982 110.649 99.7026 110.426 99.7026 110.175C99.7026 109.923 99.4982 109.739 99.2452 109.739Z" fill="#5DADEC"/>
<path d="M96.9584 110.63C95.5863 110.63 94.6716 109.72 94.6716 108.354C94.6716 108.102 94.4671 107.899 94.2142 107.899C93.9613 107.899 93.7568 108.102 93.7568 108.354C93.7568 110.175 95.1289 111.54 96.9584 111.54C97.2113 111.54 97.4158 111.337 97.4158 111.085C97.4158 110.833 97.2113 110.63 96.9584 110.63ZM104.734 96.0638C104.481 96.0638 104.276 96.2677 104.276 96.519C104.276 96.7703 104.481 96.9742 104.734 96.9742C106.563 96.9742 108.393 98.6079 108.393 100.616C108.393 100.867 108.598 101.071 108.85 101.071C109.102 101.071 109.307 100.867 109.307 100.616C109.307 98.1058 107.478 96.0638 104.734 96.0638Z" fill="#5DADEC"/>
<path d="M107.02 95.1725C106.768 95.1725 106.563 95.3574 106.563 95.6086C106.563 95.8599 106.768 96.0829 107.02 96.0829C108.392 96.0829 109.288 97.0957 109.288 98.3398C109.288 98.591 109.512 98.7949 109.765 98.7949C110.017 98.7949 110.203 98.591 110.203 98.3398C110.203 96.5932 108.85 95.1725 107.02 95.1725Z" fill="#5DADEC"/>
</g>
<g filter="url(#filter3_d_52_1692)">
<rect x="47" y="52.4053" width="34.7363" height="34.7363" rx="17.3682" fill="#00A5EC"/>
</g>
<path fill-rule="evenodd" clip-rule="evenodd" d="M71.9674 59.8778H70.6648V62.7001H67.8408V64.0027H70.6648V66.825H71.9674V64.0027H74.7881V62.7001H71.9674V59.8778Z" fill="white"/>
<path fill-rule="evenodd" clip-rule="evenodd" d="M74.792 69.3741C74.792 75.1019 70.1264 79.7453 64.3711 79.7453C58.6158 79.7453 53.9502 75.1019 53.9502 69.3741C53.9502 63.6462 58.6158 59.0028 64.3711 59.0028C66.544 59.0028 68.5616 59.6646 70.2313 60.7969V62.2672H67.4093V64.4382H70.2313V67.2604H72.4024V64.4382H73.5385C74.338 65.9059 74.792 67.5872 74.792 69.3741ZM59.1607 70.5268C60.8819 70.8599 62.2737 71.103 64.3712 71.103C66.4687 71.103 67.8604 70.8599 69.5816 70.5268C69.9747 70.4508 70.7395 70.5268 70.7395 71.6792C70.7395 73.9839 68.0787 76.8648 64.3712 76.8648C60.6631 76.8648 58.0028 73.9839 58.0028 71.6792C58.0028 70.5268 58.7676 70.4514 59.1607 70.5268ZM60.8981 68.7975C61.6974 68.7975 62.3454 67.8946 62.3454 66.7808C62.3454 65.6671 61.6974 64.7642 60.8981 64.7642C60.0987 64.7642 59.4507 65.6671 59.4507 66.7808C59.4507 67.8946 60.0987 68.7975 60.8981 68.7975ZM69.2921 66.7808C69.2921 67.8946 68.6441 68.7975 67.8448 68.7975C67.0454 68.7975 66.3974 67.8946 66.3974 66.7808C66.3974 65.6671 67.0454 64.7642 67.8448 64.7642C68.6441 64.7642 69.2921 65.6671 69.2921 66.7808ZM59.1595 71.6782C59.1595 71.6782 60.8963 72.2544 64.37 72.2544C67.8436 72.2544 69.5804 71.6782 69.5804 71.6782C69.5804 71.6782 68.4225 73.9829 64.37 73.9829C60.3174 73.9829 59.1595 71.6782 59.1595 71.6782Z" fill="white"/>
<defs>
<filter id="filter0_d_52_1692" x="76.2686" y="17" width="67.5874" height="51.242" filterUnits="userSpaceOnUse" color-interpolation-filters="sRGB">
<feFlood flood-opacity="0" result="BackgroundImageFix"/>
<feColorMatrix in="SourceAlpha" type="matrix" values="0 0 0 0 0 0 0 0 0 0 0 0 0 0 0 0 0 0 127 0" result="hardAlpha"/>
<feOffset dy="8"/>
<feGaussianBlur stdDeviation="6"/>
<feColorMatrix type="matrix" values="0 0 0 0 0 0 0 0 0 0 0 0 0 0 0 0 0 0 0.05 0"/>
<feBlend mode="normal" in2="BackgroundImageFix" result="effect1_dropShadow_52_1692"/>
<feBlend mode="normal" in="SourceGraphic" in2="effect1_dropShadow_52_1692" result="shape"/>
</filter>
<filter id="filter1_d_52_1692" x="76.2686" y="51.3027" width="67.8921" height="51.4326" filterUnits="userSpaceOnUse" color-interpolation-filters="sRGB">
<feFlood flood-opacity="0" result="BackgroundImageFix"/>
<feColorMatrix in="SourceAlpha" type="matrix" values="0 0 0 0 0 0 0 0 0 0 0 0 0 0 0 0 0 0 127 0" result="hardAlpha"/>
<feOffset dy="8"/>
<feGaussianBlur stdDeviation="6"/>
<feColorMatrix type="matrix" values="0 0 0 0 0 0 0 0 0 0 0 0 0 0 0 0 0 0 0.05 0"/>
<feBlend mode="normal" in2="BackgroundImageFix" result="effect1_dropShadow_52_1692"/>
<feBlend mode="normal" in="SourceGraphic" in2="effect1_dropShadow_52_1692" result="shape"/>
</filter>
<filter id="filter2_d_52_1692" x="76.2686" y="85.7863" width="67.9072" height="51.4421" filterUnits="userSpaceOnUse" color-interpolation-filters="sRGB">
<feFlood flood-opacity="0" result="BackgroundImageFix"/>
<feColorMatrix in="SourceAlpha" type="matrix" values="0 0 0 0 0 0 0 0 0 0 0 0 0 0 0 0 0 0 127 0" result="hardAlpha"/>
<feOffset dy="8"/>
<feGaussianBlur stdDeviation="6"/>
<feColorMatrix type="matrix" values="0 0 0 0 0 0 0 0 0 0 0 0 0 0 0 0 0 0 0.05 0"/>
<feBlend mode="normal" in2="BackgroundImageFix" result="effect1_dropShadow_52_1692"/>
<feBlend mode="normal" in="SourceGraphic" in2="effect1_dropShadow_52_1692" result="shape"/>
</filter>
<filter id="filter3_d_52_1692" x="35" y="48.4053" width="58.7363" height="58.7363" filterUnits="userSpaceOnUse" color-interpolation-filters="sRGB">
<feFlood flood-opacity="0" result="BackgroundImageFix"/>
<feColorMatrix in="SourceAlpha" type="matrix" values="0 0 0 0 0 0 0 0 0 0 0 0 0 0 0 0 0 0 127 0" result="hardAlpha"/>
<feOffset dy="8"/>
<feGaussianBlur stdDeviation="6"/>
<feColorMatrix type="matrix" values="0 0 0 0 0 0 0 0 0 0 0 0 0 0 0 0 0 0 0.05 0"/>
<feBlend mode="normal" in2="BackgroundImageFix" result="effect1_dropShadow_52_1692"/>
<feBlend mode="normal" in="SourceGraphic" in2="effect1_dropShadow_52_1692" result="shape"/>
</filter>
<clipPath id="clip0_52_1692">
<rect width="16.3452" height="16.2674" fill="white" transform="translate(93.7158 25.7603)"/>
</clipPath>
<clipPath id="clip1_52_1692">
<rect width="16.4596" height="16.3812" fill="white" transform="translate(93.7549 61.6215)"/>
</clipPath>
<clipPath id="clip2_52_1692">
<rect width="16.4653" height="16.3868" fill="white" transform="translate(93.7568 95.1534)"/>
</clipPath>
</defs>
</svg>
