<svg width="234" height="238" viewBox="0 0 234 238" fill="none" xmlns="http://www.w3.org/2000/svg">
<g filter="url(#filter0_d_0_1829)">
<circle cx="66.5702" cy="77.6332" r="24.6332" fill="white"/>
<g clip-path="url(#clip0_0_1829)">
<path d="M65.0119 75.0125C63.8075 77.0372 62.6536 78.9979 61.4756 80.9438C61.1731 81.4434 61.0234 81.8503 61.265 82.4854C61.9323 84.2397 60.991 85.9468 59.2219 86.4102C57.5536 86.8474 55.9281 85.7509 55.5971 83.9647C55.3038 82.3838 56.5307 80.8339 58.2738 80.5868C58.4198 80.5659 58.569 80.5635 58.8144 80.5451L61.466 76.0989C59.7983 74.4406 58.8057 72.5023 59.0253 70.1003C59.1806 68.4024 59.8483 66.9351 61.0686 65.7325C63.406 63.4294 66.9718 63.0565 69.7239 64.8242C72.367 66.5222 73.5776 69.8296 72.5457 72.6604C71.7677 72.4495 70.9842 72.2368 70.1229 72.0032C70.4469 70.4292 70.2072 69.016 69.1457 67.8052C68.4444 67.0058 67.5445 66.5868 66.5212 66.4324C64.4697 66.1225 62.4556 67.4404 61.8579 69.454C61.1796 71.7391 62.2063 73.6059 65.0119 75.0126V75.0125Z" fill="#C73A63"/>
<path d="M68.4519 72.618C69.3004 74.1149 70.162 75.6345 71.0159 77.1401C75.3318 75.8048 78.5859 78.194 79.7533 80.7519C81.1634 83.8417 80.1994 87.5013 77.4302 89.4076C74.5877 91.3644 70.993 91.0301 68.4746 88.5163C69.1164 87.9791 69.7614 87.4394 70.4506 86.8628C72.938 88.4739 75.1135 88.398 76.7287 86.4903C78.106 84.8628 78.0761 82.4361 76.6588 80.8428C75.0233 79.0041 72.8325 78.9481 70.1844 80.713C69.0859 78.7642 67.9683 76.8308 66.9045 74.8679C66.5458 74.2063 66.1499 73.8224 65.3414 73.6824C63.9913 73.4484 63.1197 72.289 63.0674 70.9902C63.016 69.7056 63.7728 68.5444 64.9557 68.0921C66.1274 67.6438 67.5024 68.0056 68.2906 69.0018C68.9347 69.8157 69.1393 70.7318 68.8004 71.7356C68.7062 72.0156 68.5841 72.2864 68.4519 72.6181V72.618Z" fill="#4B4B4B"/>
<path d="M70.4799 84.8554H65.2842C64.7862 86.9037 63.7105 88.5574 61.8571 89.609C60.4163 90.4264 58.8633 90.7035 57.2105 90.4366C54.1674 89.9459 51.6791 87.2063 51.46 84.1216C51.2121 80.6271 53.614 77.5209 56.8155 76.8232C57.0365 77.6259 57.2599 78.4363 57.4809 79.2371C54.5436 80.7357 53.5269 82.624 54.349 84.9851C55.0727 87.063 57.1284 88.2019 59.3604 87.7614C61.6399 87.3117 62.7891 85.4173 62.6488 82.3771C64.8097 82.3771 66.9725 82.3547 69.1336 82.3881C69.9775 82.4014 70.629 82.3139 71.2647 81.5699C72.3113 80.3457 74.2378 80.4561 75.365 81.6123C76.517 82.7939 76.4618 84.6951 75.2428 85.8269C74.0666 86.9189 72.2085 86.8606 71.108 85.6838C70.8819 85.4414 70.7037 85.1534 70.4799 84.8554Z" fill="#4A4A4A"/>
</g>
<circle cx="166.949" cy="146.73" r="20.5345" fill="white"/>
<g clip-path="url(#clip1_0_1829)">
<path fill-rule="evenodd" clip-rule="evenodd" d="M174.53 150.404C175.352 150.304 177.165 150.089 177.487 150.504C177.81 150.911 177.126 152.624 176.819 153.385C176.727 153.615 176.927 153.707 177.134 153.531C178.486 152.394 178.839 150.02 178.563 149.674C178.286 149.336 175.913 149.045 174.468 150.059C174.246 150.22 174.284 150.435 174.53 150.404ZM167.079 154.56C170.236 154.56 173.908 153.569 176.435 151.703C176.85 151.395 176.489 150.927 176.066 151.119C173.232 152.317 170.151 152.901 167.347 152.901C163.191 152.901 159.174 151.756 155.917 149.867C155.633 149.698 155.417 149.99 155.656 150.205C158.667 152.924 162.654 154.56 167.079 154.56Z" fill="#FF9900"/>
<path d="M162.062 145.764C162.062 146.049 162.093 146.279 162.146 146.448C162.208 146.617 162.285 146.801 162.392 147.001C162.431 147.063 162.446 147.124 162.446 147.178C162.446 147.255 162.4 147.331 162.3 147.408L161.816 147.731C161.747 147.777 161.678 147.8 161.616 147.8C161.539 147.8 161.463 147.762 161.386 147.692C161.278 147.577 161.186 147.454 161.109 147.331C161.032 147.201 160.956 147.055 160.871 146.878C160.272 147.585 159.519 147.938 158.613 147.938C157.967 147.938 157.453 147.754 157.076 147.385C156.7 147.016 156.508 146.525 156.508 145.91C156.508 145.257 156.738 144.727 157.207 144.328C157.675 143.928 158.298 143.729 159.089 143.729C159.35 143.729 159.619 143.752 159.903 143.79C160.187 143.828 160.479 143.89 160.787 143.959V143.398C160.787 142.814 160.664 142.407 160.426 142.169C160.18 141.931 159.765 141.816 159.173 141.816C158.905 141.816 158.628 141.847 158.344 141.916C158.06 141.985 157.783 142.069 157.514 142.177C157.391 142.231 157.299 142.261 157.245 142.277C157.192 142.292 157.153 142.3 157.122 142.3C157.015 142.3 156.961 142.223 156.961 142.062V141.685C156.961 141.562 156.976 141.47 157.015 141.416C157.053 141.363 157.122 141.309 157.23 141.255C157.499 141.117 157.821 141.002 158.198 140.909C158.574 140.81 158.974 140.763 159.396 140.763C160.31 140.763 160.979 140.971 161.409 141.386C161.831 141.8 162.046 142.43 162.046 143.275V145.764H162.062ZM158.943 146.932C159.196 146.932 159.458 146.886 159.734 146.794C160.011 146.702 160.257 146.533 160.464 146.302C160.587 146.156 160.679 145.995 160.725 145.81C160.771 145.626 160.802 145.403 160.802 145.142V144.819C160.579 144.766 160.341 144.72 160.095 144.689C159.849 144.658 159.611 144.643 159.373 144.643C158.858 144.643 158.482 144.743 158.229 144.95C157.975 145.157 157.852 145.449 157.852 145.833C157.852 146.195 157.944 146.463 158.136 146.648C158.321 146.84 158.59 146.932 158.943 146.932ZM165.112 147.762C164.973 147.762 164.881 147.739 164.82 147.685C164.758 147.639 164.704 147.531 164.658 147.385L162.853 141.447C162.807 141.293 162.784 141.194 162.784 141.14C162.784 141.017 162.845 140.948 162.968 140.948H163.721C163.867 140.948 163.967 140.971 164.021 141.025C164.082 141.071 164.128 141.178 164.174 141.324L165.465 146.41L166.663 141.324C166.702 141.171 166.748 141.071 166.809 141.025C166.871 140.979 166.978 140.948 167.117 140.948H167.731C167.877 140.948 167.977 140.971 168.038 141.025C168.1 141.071 168.154 141.178 168.184 141.324L169.398 146.471L170.727 141.324C170.773 141.171 170.827 141.071 170.881 141.025C170.942 140.979 171.042 140.948 171.18 140.948H171.895C172.018 140.948 172.087 141.009 172.087 141.14C172.087 141.178 172.079 141.217 172.071 141.263C172.064 141.309 172.048 141.37 172.018 141.455L170.166 147.393C170.12 147.547 170.066 147.646 170.005 147.692C169.943 147.739 169.844 147.769 169.713 147.769H169.052C168.906 147.769 168.807 147.746 168.745 147.692C168.684 147.639 168.63 147.539 168.599 147.385L167.408 142.43L166.225 147.378C166.187 147.531 166.141 147.631 166.079 147.685C166.018 147.739 165.91 147.762 165.772 147.762H165.112ZM174.983 147.969C174.583 147.969 174.184 147.923 173.8 147.831C173.416 147.739 173.116 147.639 172.916 147.523C172.793 147.454 172.709 147.378 172.678 147.308C172.647 147.239 172.632 147.162 172.632 147.093V146.702C172.632 146.54 172.694 146.463 172.809 146.463C172.855 146.463 172.901 146.471 172.947 146.486C172.993 146.502 173.062 146.533 173.139 146.563C173.4 146.678 173.685 146.771 173.984 146.832C174.291 146.894 174.591 146.924 174.898 146.924C175.382 146.924 175.759 146.84 176.02 146.671C176.281 146.502 176.419 146.256 176.419 145.941C176.419 145.726 176.35 145.549 176.212 145.403C176.074 145.257 175.812 145.127 175.436 145.004L174.322 144.658C173.761 144.481 173.347 144.22 173.093 143.875C172.84 143.537 172.709 143.16 172.709 142.761C172.709 142.438 172.778 142.154 172.916 141.908C173.055 141.662 173.239 141.447 173.469 141.278C173.7 141.101 173.961 140.971 174.268 140.879C174.576 140.786 174.898 140.748 175.236 140.748C175.405 140.748 175.582 140.756 175.751 140.779C175.928 140.802 176.089 140.833 176.25 140.863C176.404 140.902 176.55 140.94 176.688 140.986C176.826 141.032 176.934 141.078 177.011 141.124C177.118 141.186 177.195 141.247 177.241 141.317C177.287 141.378 177.31 141.462 177.31 141.57V141.931C177.31 142.092 177.249 142.177 177.134 142.177C177.072 142.177 176.972 142.146 176.842 142.085C176.404 141.885 175.912 141.785 175.367 141.785C174.929 141.785 174.583 141.854 174.345 142C174.107 142.146 173.984 142.369 173.984 142.684C173.984 142.899 174.061 143.083 174.215 143.229C174.368 143.375 174.652 143.521 175.06 143.652L176.15 143.997C176.704 144.174 177.103 144.42 177.341 144.735C177.579 145.05 177.694 145.411 177.694 145.81C177.694 146.141 177.625 146.44 177.495 146.702C177.356 146.963 177.172 147.193 176.934 147.378C176.696 147.57 176.412 147.708 176.081 147.808C175.736 147.915 175.375 147.969 174.983 147.969Z" fill="#03020D"/>
</g>
<circle cx="164.85" cy="80.1497" r="27.1497" fill="white"/>
<g clip-path="url(#clip2_0_1829)">
<path d="M179.724 80.144C179.724 78.2047 177.296 76.3668 173.572 75.2271C174.431 71.4321 174.049 68.4127 172.367 67.4461C171.979 67.2193 171.525 67.1119 171.03 67.1119V68.4426C171.305 68.4426 171.525 68.4963 171.71 68.5977C172.522 69.0632 172.874 70.8354 172.599 73.1148C172.534 73.6757 172.426 74.2664 172.295 74.8691C171.126 74.5827 169.849 74.3619 168.506 74.2187C167.7 73.1148 166.865 72.1123 166.024 71.2352C167.969 69.4271 169.795 68.4366 171.036 68.4366V67.106C169.395 67.106 167.247 68.2755 165.075 70.3043C162.903 68.2874 160.755 67.1298 159.114 67.1298V68.4605C160.349 68.4605 162.181 69.445 164.126 71.2411C163.291 72.1183 162.455 73.1148 161.662 74.2187C160.313 74.3619 159.036 74.5827 157.867 74.8751C157.73 74.2784 157.628 73.6996 157.556 73.1446C157.276 70.8652 157.622 69.093 158.428 68.6216C158.607 68.5142 158.839 68.4664 159.114 68.4664V67.1358C158.613 67.1358 158.159 67.2432 157.765 67.4699C156.089 68.4366 155.713 71.45 156.578 75.2331C152.866 76.3788 150.45 78.2107 150.45 80.144C150.45 82.0833 152.878 83.9212 156.602 85.0609C155.742 88.8559 156.124 91.8753 157.807 92.8419C158.195 93.0687 158.648 93.1761 159.15 93.1761C160.791 93.1761 162.939 92.0065 165.111 89.9777C167.283 91.9946 169.431 93.1522 171.072 93.1522C171.573 93.1522 172.027 93.0448 172.42 92.818C174.097 91.8514 174.473 88.838 173.608 85.0549C177.307 83.9152 179.724 82.0773 179.724 80.144ZM171.955 76.164C171.734 76.9337 171.46 77.7273 171.149 78.521C170.905 78.0436 170.648 77.5662 170.368 77.0889C170.093 76.6115 169.801 76.1461 169.509 75.6926C170.356 75.8179 171.173 75.973 171.955 76.164ZM169.222 82.5189C168.757 83.3244 168.279 84.0882 167.784 84.7983C166.895 84.8759 165.994 84.9177 165.087 84.9177C164.186 84.9177 163.285 84.8759 162.402 84.8043C161.906 84.0942 161.423 83.3364 160.958 82.5368C160.504 81.7551 160.092 80.9615 159.717 80.1619C160.087 79.3623 160.504 78.5627 160.952 77.781C161.417 76.9755 161.895 76.2117 162.39 75.5016C163.279 75.424 164.18 75.3823 165.087 75.3823C165.988 75.3823 166.889 75.424 167.772 75.4957C168.267 76.2057 168.751 76.9636 169.216 77.7631C169.67 78.5448 170.081 79.3384 170.457 80.138C170.081 80.9376 169.67 81.7372 169.222 82.5189ZM171.149 81.7432C171.472 82.5428 171.746 83.3423 171.973 84.1181C171.191 84.309 170.368 84.4701 169.514 84.5954C169.807 84.136 170.099 83.6646 170.374 83.1812C170.648 82.7039 170.905 82.2205 171.149 81.7432ZM165.099 88.11C164.544 87.5372 163.989 86.8987 163.44 86.2006C163.977 86.2244 164.526 86.2423 165.081 86.2423C165.642 86.2423 166.197 86.2304 166.74 86.2006C166.203 86.8987 165.648 87.5372 165.099 88.11ZM160.659 84.5954C159.812 84.4701 158.995 84.315 158.213 84.124C158.434 83.3543 158.708 82.5607 159.018 81.767C159.263 82.2444 159.52 82.7218 159.8 83.1991C160.081 83.6765 160.367 84.1419 160.659 84.5954ZM165.069 72.178C165.624 72.7508 166.179 73.3893 166.728 74.0874C166.191 74.0636 165.642 74.0457 165.087 74.0457C164.526 74.0457 163.971 74.0576 163.428 74.0874C163.965 73.3893 164.52 72.7508 165.069 72.178ZM160.653 75.6926C160.361 76.152 160.069 76.6234 159.794 77.1068C159.52 77.5841 159.263 78.0615 159.018 78.5389C158.696 77.7393 158.422 76.9397 158.195 76.164C158.977 75.979 159.8 75.8179 160.653 75.6926ZM155.253 83.1633C153.141 82.2623 151.774 81.0808 151.774 80.144C151.774 79.2072 153.141 78.0197 155.253 77.1247C155.766 76.9039 156.327 76.707 156.906 76.522C157.246 77.6915 157.694 78.9088 158.249 80.1559C157.7 81.3971 157.258 82.6084 156.924 83.772C156.333 83.587 155.772 83.3841 155.253 83.1633ZM158.463 91.6903C157.652 91.2248 157.3 89.4526 157.574 87.1732C157.64 86.6123 157.747 86.0216 157.879 85.4189C159.048 85.7053 160.325 85.9261 161.668 86.0693C162.473 87.1732 163.309 88.1757 164.15 89.0528C162.205 90.8609 160.379 91.8514 159.138 91.8514C158.869 91.8454 158.642 91.7917 158.463 91.6903ZM172.617 87.1434C172.898 89.4228 172.552 91.195 171.746 91.6664C171.567 91.7738 171.334 91.8216 171.06 91.8216C169.825 91.8216 167.993 90.837 166.048 89.0409C166.883 88.1637 167.718 87.1672 168.512 86.0633C169.861 85.9201 171.138 85.6993 172.307 85.407C172.444 86.0096 172.552 86.5884 172.617 87.1434ZM174.915 83.1633C174.402 83.3841 173.841 83.581 173.262 83.766C172.922 82.5965 172.474 81.3792 171.919 80.1321C172.468 78.8909 172.91 77.6796 173.244 76.516C173.835 76.701 174.396 76.9039 174.921 77.1247C177.033 78.0257 178.399 79.2072 178.399 80.144C178.393 81.0808 177.027 82.2683 174.915 83.1633Z" fill="#61DAFB"/>
<path d="M165.081 82.8709C166.587 82.8709 167.808 81.65 167.808 80.1439C167.808 78.6379 166.587 77.417 165.081 77.417C163.575 77.417 162.354 78.6379 162.354 80.1439C162.354 81.65 163.575 82.8709 165.081 82.8709Z" fill="#61DAFB"/>
</g>
<circle cx="121.26" cy="109.76" r="35.924" fill="#FF5416"/>
<path d="M121.357 90.4507L103.24 123.609L99.7061 121.131L116.469 90.4507H121.357ZM121.609 90.4507L139.726 123.609L143.26 121.131L126.497 90.4507H121.609Z" fill="white"/>
<path d="M139.474 123.805L121.483 109.715L103.493 123.805L107.164 126.375L121.483 115.165L135.802 126.375L139.474 123.805Z" fill="white"/>
<circle cx="65.8457" cy="159.218" r="25.8452" fill="white"/>
<g clip-path="url(#clip3_0_1829)">
<path d="M71.199 161.328C69.9919 161.328 68.9098 161.863 68.1688 162.705L66.2699 161.361C66.4715 160.806 66.5872 160.21 66.5872 159.586C66.5872 158.973 66.4755 158.387 66.2806 157.84L68.1752 156.51C68.9161 157.348 69.9954 157.88 71.199 157.88C73.4268 157.88 75.2396 156.067 75.2396 153.839C75.2396 151.611 73.4268 149.798 71.199 149.798C68.9711 149.798 67.1583 151.611 67.1583 153.839C67.1583 154.238 67.2185 154.623 67.3267 154.987L65.4308 156.317C64.6388 155.335 63.4985 154.649 62.1993 154.44V152.155C64.0297 151.77 65.4087 150.144 65.4087 148.201C65.4087 145.973 63.5959 144.16 61.3681 144.16C59.1402 144.16 57.3274 145.973 57.3274 148.201C57.3274 150.118 58.6708 151.724 60.4645 152.136V154.451C58.0165 154.88 56.1489 157.017 56.1489 159.586C56.1489 162.168 58.035 164.312 60.5006 164.727V167.171C58.6886 167.569 57.3274 169.185 57.3274 171.116C57.3274 173.344 59.1402 175.156 61.3681 175.156C63.5959 175.156 65.4087 173.344 65.4087 171.116C65.4087 169.185 64.0476 167.569 62.2355 167.171V164.727C63.5091 164.512 64.6285 163.84 65.4123 162.879L67.3238 164.232C67.2177 164.593 67.1583 164.974 67.1583 165.369C67.1583 167.597 68.9711 169.409 71.199 169.409C73.4268 169.409 75.2396 167.597 75.2396 165.369C75.2396 163.141 73.4268 161.328 71.199 161.328ZM71.199 151.88C72.2793 151.88 73.158 152.759 73.158 153.839C73.158 154.919 72.2793 155.798 71.199 155.798C70.1186 155.798 69.2399 154.919 69.2399 153.839C69.2399 152.759 70.1186 151.88 71.199 151.88ZM59.409 148.201C59.409 147.121 60.2877 146.242 61.3681 146.242C62.4484 146.242 63.3271 147.121 63.3271 148.201C63.3271 149.281 62.4484 150.16 61.3681 150.16C60.2877 150.16 59.409 149.281 59.409 148.201ZM63.3271 171.116C63.3271 172.196 62.4484 173.075 61.3681 173.075C60.2877 173.075 59.409 172.196 59.409 171.116C59.409 170.036 60.2877 169.157 61.3681 169.157C62.4484 169.157 63.3271 170.036 63.3271 171.116ZM61.3679 162.318C59.8612 162.318 58.6354 161.093 58.6354 159.586C58.6354 158.079 59.8612 156.853 61.3679 156.853C62.8746 156.853 64.1003 158.079 64.1003 159.586C64.1003 161.093 62.8746 162.318 61.3679 162.318ZM71.199 167.328C70.1186 167.328 69.2399 166.449 69.2399 165.369C69.2399 164.289 70.1186 163.41 71.199 163.41C72.2793 163.41 73.158 164.289 73.158 165.369C73.158 166.449 72.2793 167.328 71.199 167.328Z" fill="#03020D"/>
</g>
</g>
<defs>
<filter id="filter0_d_0_1829" x="-32" y="-30" width="310" height="318" filterUnits="userSpaceOnUse" color-interpolation-filters="sRGB">
<feFlood flood-opacity="0" result="BackgroundImageFix"/>
<feColorMatrix in="SourceAlpha" type="matrix" values="0 0 0 0 0 0 0 0 0 0 0 0 0 0 0 0 0 0 127 0" result="hardAlpha"/>
<feOffset dy="10"/>
<feGaussianBlur stdDeviation="20"/>
<feComposite in2="hardAlpha" operator="out"/>
<feColorMatrix type="matrix" values="0 0 0 0 0 0 0 0 0 0 0 0 0 0 0 0 0 0 0.06 0"/>
<feBlend mode="normal" in2="BackgroundImageFix" result="effect1_dropShadow_0_1829"/>
<feBlend mode="normal" in="SourceGraphic" in2="effect1_dropShadow_0_1829" result="shape"/>
</filter>
<clipPath id="clip0_0_1829">
<rect width="28.9548" height="28.9548" fill="white" transform="translate(51.4424 62.5076)"/>
</clipPath>
<clipPath id="clip1_0_1829">
<rect width="23.5701" height="23.5701" fill="white" transform="translate(155.343 135.838)"/>
</clipPath>
<clipPath id="clip2_0_1829">
<rect width="29.2744" height="29.2744" fill="white" transform="translate(150.45 65.2764)"/>
</clipPath>
<clipPath id="clip3_0_1829">
<rect width="30.9961" height="30.9961" fill="white" transform="translate(50.3369 144.16)"/>
</clipPath>
</defs>
</svg>
