<svg width="230" height="238" viewBox="0 0 230 238" fill="none" xmlns="http://www.w3.org/2000/svg">
<g filter="url(#filter0_d_0_1726)">
<rect x="73.5513" y="102.878" width="137.449" height="95.0686" rx="7.06684" fill="white"/>
<rect x="73.9013" y="103.228" width="136.749" height="94.3686" rx="6.71684" stroke="#D9D9DA" stroke-width="0.7"/>
</g>
<rect x="77.1309" y="106.411" width="129.853" height="42.4011" rx="3.53342" fill="#F3F4F4"/>
<path d="M92.1523 124.362V115.367H93.7816V122.996H97.7429V124.362H92.1523ZM101.028 124.498C100.6 124.498 100.215 124.422 99.8728 124.269C99.5332 124.114 99.2639 123.886 99.0648 123.584C98.8686 123.283 98.7705 122.911 98.7705 122.469C98.7705 122.088 98.8408 121.773 98.9813 121.525C99.1219 121.276 99.3136 121.077 99.5566 120.927C99.7996 120.778 100.073 120.665 100.378 120.589C100.685 120.51 101.003 120.453 101.331 120.418C101.726 120.377 102.047 120.34 102.293 120.308C102.539 120.273 102.717 120.22 102.828 120.15C102.943 120.077 103 119.964 103 119.812V119.785C103 119.455 102.902 119.198 102.705 119.017C102.509 118.835 102.227 118.745 101.858 118.745C101.468 118.745 101.16 118.83 100.931 118.999C100.706 119.169 100.554 119.37 100.474 119.601L98.9901 119.39C99.1072 118.98 99.3005 118.638 99.5698 118.363C99.8392 118.084 100.169 117.877 100.558 117.739C100.947 117.598 101.378 117.528 101.849 117.528C102.174 117.528 102.498 117.566 102.82 117.642C103.142 117.718 103.436 117.844 103.702 118.02C103.969 118.193 104.183 118.428 104.344 118.727C104.508 119.026 104.59 119.399 104.59 119.847V124.362H103.061V123.435H103.008C102.912 123.622 102.776 123.798 102.6 123.962C102.427 124.123 102.209 124.253 101.946 124.353C101.685 124.449 101.379 124.498 101.028 124.498ZM101.441 123.33C101.76 123.33 102.036 123.267 102.271 123.141C102.505 123.012 102.685 122.842 102.811 122.631C102.94 122.42 103.004 122.191 103.004 121.942V121.147C102.954 121.188 102.869 121.226 102.749 121.261C102.632 121.296 102.501 121.327 102.354 121.353C102.208 121.38 102.063 121.403 101.919 121.424C101.776 121.444 101.651 121.462 101.546 121.476C101.309 121.508 101.097 121.561 100.909 121.634C100.722 121.708 100.574 121.81 100.466 121.942C100.357 122.071 100.303 122.237 100.303 122.442C100.303 122.735 100.41 122.956 100.624 123.106C100.838 123.255 101.11 123.33 101.441 123.33ZM110.488 121.525V117.616H112.077V124.362H110.536V123.163H110.466C110.313 123.54 110.063 123.849 109.715 124.089C109.369 124.329 108.943 124.449 108.437 124.449C107.995 124.449 107.604 124.351 107.264 124.155C106.927 123.956 106.664 123.668 106.474 123.29C106.283 122.909 106.188 122.45 106.188 121.911V117.616H107.778V121.665C107.778 122.093 107.895 122.432 108.129 122.684C108.363 122.936 108.671 123.062 109.051 123.062C109.286 123.062 109.513 123.005 109.732 122.89C109.952 122.776 110.132 122.606 110.272 122.381C110.416 122.153 110.488 121.867 110.488 121.525ZM113.712 124.362V117.616H115.254V118.74H115.324C115.447 118.351 115.658 118.051 115.956 117.84C116.258 117.626 116.602 117.519 116.988 117.519C117.076 117.519 117.174 117.524 117.283 117.533C117.394 117.538 117.486 117.549 117.559 117.563V119.026C117.492 119.002 117.385 118.982 117.239 118.964C117.095 118.944 116.956 118.933 116.821 118.933C116.532 118.933 116.271 118.996 116.04 119.122C115.811 119.245 115.631 119.417 115.5 119.636C115.368 119.856 115.302 120.109 115.302 120.396V124.362H113.712ZM121.324 124.493C120.648 124.493 120.064 124.353 119.572 124.072C119.083 123.788 118.707 123.387 118.443 122.868C118.18 122.347 118.048 121.734 118.048 121.028C118.048 120.334 118.18 119.725 118.443 119.201C118.709 118.674 119.081 118.264 119.559 117.972C120.036 117.676 120.596 117.528 121.241 117.528C121.656 117.528 122.049 117.595 122.418 117.73C122.789 117.862 123.117 118.067 123.401 118.345C123.688 118.623 123.914 118.977 124.078 119.408C124.242 119.835 124.324 120.345 124.324 120.936V121.424H118.794V120.352H122.8C122.797 120.047 122.731 119.777 122.602 119.54C122.473 119.299 122.293 119.111 122.062 118.973C121.833 118.835 121.567 118.767 121.263 118.767C120.938 118.767 120.652 118.846 120.406 119.004C120.16 119.159 119.968 119.364 119.831 119.619C119.696 119.87 119.627 120.147 119.624 120.449V121.384C119.624 121.776 119.696 122.113 119.84 122.394C119.983 122.672 120.184 122.886 120.441 123.035C120.699 123.182 121 123.255 121.346 123.255C121.577 123.255 121.787 123.223 121.974 123.158C122.161 123.091 122.324 122.993 122.461 122.864C122.599 122.735 122.703 122.576 122.773 122.385L124.258 122.552C124.164 122.945 123.985 123.287 123.722 123.58C123.461 123.87 123.128 124.095 122.721 124.256C122.314 124.414 121.848 124.493 121.324 124.493ZM127.258 120.409V124.362H125.668V117.616H127.188V118.762H127.267C127.422 118.384 127.67 118.084 128.009 117.862C128.352 117.639 128.775 117.528 129.278 117.528C129.744 117.528 130.149 117.628 130.495 117.827C130.843 118.026 131.113 118.314 131.303 118.692C131.496 119.07 131.591 119.528 131.588 120.067V124.362H129.999V120.312C129.999 119.862 129.882 119.509 129.647 119.254C129.416 118.999 129.095 118.872 128.686 118.872C128.407 118.872 128.16 118.933 127.943 119.056C127.73 119.176 127.561 119.351 127.438 119.579C127.318 119.807 127.258 120.084 127.258 120.409ZM136.342 124.362V115.367H142.104V116.733H137.972V119.175H141.709V120.541H137.972V124.362H136.342ZM143.518 124.362V117.616H145.108V124.362H143.518ZM144.318 116.659C144.066 116.659 143.849 116.575 143.668 116.408C143.486 116.238 143.396 116.035 143.396 115.798C143.396 115.558 143.486 115.354 143.668 115.187C143.849 115.018 144.066 114.933 144.318 114.933C144.572 114.933 144.789 115.018 144.968 115.187C145.149 115.354 145.24 115.558 145.24 115.798C145.24 116.035 145.149 116.238 144.968 116.408C144.789 116.575 144.572 116.659 144.318 116.659ZM152.075 119.399L150.625 119.557C150.584 119.411 150.513 119.273 150.41 119.144C150.311 119.015 150.176 118.911 150.006 118.832C149.836 118.753 149.628 118.714 149.382 118.714C149.052 118.714 148.773 118.786 148.548 118.929C148.326 119.073 148.216 119.258 148.219 119.487C148.216 119.683 148.287 119.843 148.434 119.965C148.583 120.088 148.829 120.189 149.172 120.269L150.322 120.514C150.961 120.652 151.435 120.87 151.745 121.169C152.058 121.467 152.217 121.858 152.219 122.341C152.217 122.766 152.092 123.141 151.846 123.466C151.603 123.788 151.265 124.04 150.832 124.221C150.398 124.403 149.901 124.493 149.339 124.493C148.513 124.493 147.848 124.321 147.345 123.975C146.841 123.627 146.541 123.142 146.444 122.521L147.995 122.372C148.065 122.677 148.214 122.906 148.443 123.062C148.671 123.217 148.968 123.294 149.334 123.294C149.712 123.294 150.015 123.217 150.243 123.062C150.475 122.906 150.59 122.715 150.59 122.486C150.59 122.293 150.516 122.134 150.366 122.008C150.22 121.882 149.991 121.785 149.681 121.718L148.53 121.476C147.883 121.342 147.405 121.115 147.094 120.796C146.784 120.473 146.63 120.067 146.633 119.575C146.63 119.159 146.743 118.799 146.971 118.494C147.203 118.187 147.523 117.95 147.933 117.783C148.346 117.613 148.822 117.528 149.361 117.528C150.151 117.528 150.773 117.696 151.227 118.033C151.684 118.37 151.966 118.825 152.075 119.399ZM155.12 120.409V124.362H153.53V115.367H155.085V118.762H155.164C155.322 118.382 155.567 118.081 155.898 117.862C156.231 117.639 156.656 117.528 157.171 117.528C157.64 117.528 158.048 117.626 158.396 117.822C158.745 118.019 159.014 118.305 159.204 118.683C159.398 119.061 159.494 119.522 159.494 120.067V124.362H157.905V120.312C157.905 119.859 157.787 119.506 157.553 119.254C157.322 118.999 156.997 118.872 156.578 118.872C156.297 118.872 156.045 118.933 155.823 119.056C155.603 119.176 155.431 119.351 155.305 119.579C155.182 119.807 155.12 120.084 155.12 120.409ZM164.101 124.493C163.425 124.493 162.841 124.353 162.349 124.072C161.86 123.788 161.484 123.387 161.22 122.868C160.957 122.347 160.825 121.734 160.825 121.028C160.825 120.334 160.957 119.725 161.22 119.201C161.487 118.674 161.859 118.264 162.336 117.972C162.813 117.676 163.374 117.528 164.018 117.528C164.433 117.528 164.826 117.595 165.195 117.73C165.567 117.862 165.894 118.067 166.178 118.345C166.465 118.623 166.691 118.977 166.855 119.408C167.019 119.835 167.101 120.345 167.101 120.936V121.424H161.572V120.352H165.577C165.574 120.047 165.508 119.777 165.379 119.54C165.25 119.299 165.07 119.111 164.839 118.973C164.611 118.835 164.344 118.767 164.04 118.767C163.715 118.767 163.429 118.846 163.183 119.004C162.937 119.159 162.746 119.364 162.608 119.619C162.473 119.87 162.405 120.147 162.402 120.449V121.384C162.402 121.776 162.473 122.113 162.617 122.394C162.76 122.672 162.961 122.886 163.218 123.035C163.476 123.182 163.778 123.255 164.123 123.255C164.354 123.255 164.564 123.223 164.751 123.158C164.939 123.091 165.101 122.993 165.239 122.864C165.376 122.735 165.48 122.576 165.55 122.385L167.035 122.552C166.941 122.945 166.763 123.287 166.499 123.58C166.238 123.87 165.905 124.095 165.498 124.256C165.091 124.414 164.625 124.493 164.101 124.493ZM168.446 124.362V117.616H169.987V118.74H170.057C170.18 118.351 170.391 118.051 170.69 117.84C170.991 117.626 171.335 117.519 171.722 117.519C171.81 117.519 171.908 117.524 172.016 117.533C172.127 117.538 172.22 117.549 172.293 117.563V119.026C172.225 119.002 172.119 118.982 171.972 118.964C171.829 118.944 171.69 118.933 171.555 118.933C171.265 118.933 171.005 118.996 170.773 119.122C170.545 119.245 170.365 119.417 170.233 119.636C170.101 119.856 170.035 120.109 170.035 120.396V124.362H168.446Z" fill="#292831"/>
<circle cx="93.9152" cy="135.562" r="2.65007" fill="#22C55E"/>
<path d="M107.642 135.407C107.642 136.23 107.491 136.938 107.19 137.53C106.889 138.12 106.476 138.574 105.952 138.893C105.43 139.209 104.836 139.367 104.171 139.367C103.504 139.367 102.908 139.209 102.383 138.893C101.861 138.574 101.45 138.119 101.148 137.526C100.847 136.934 100.697 136.228 100.697 135.407C100.697 134.584 100.847 133.878 101.148 133.288C101.45 132.696 101.861 132.241 102.383 131.925C102.908 131.606 103.504 131.447 104.171 131.447C104.836 131.447 105.43 131.606 105.952 131.925C106.476 132.241 106.889 132.696 107.19 133.288C107.491 133.878 107.642 134.584 107.642 135.407ZM106.49 135.407C106.49 134.78 106.388 134.251 106.185 133.822C105.984 133.391 105.708 133.064 105.357 132.844C105.008 132.62 104.613 132.509 104.171 132.509C103.727 132.509 103.33 132.62 102.982 132.844C102.633 133.064 102.357 133.391 102.153 133.822C101.953 134.251 101.852 134.78 101.852 135.407C101.852 136.034 101.953 136.564 102.153 136.996C102.357 137.425 102.633 137.751 102.982 137.974C103.33 138.195 103.727 138.306 104.171 138.306C104.613 138.306 105.008 138.195 105.357 137.974C105.708 137.751 105.984 137.425 106.185 136.996C106.388 136.564 106.49 136.034 106.49 135.407ZM110.127 135.829V139.262H109.002V133.48H110.082V134.421H110.154C110.287 134.115 110.495 133.869 110.778 133.683C111.064 133.497 111.425 133.404 111.859 133.404C112.253 133.404 112.598 133.487 112.894 133.653C113.19 133.816 113.42 134.059 113.583 134.383C113.746 134.707 113.827 135.107 113.827 135.584V139.262H112.702V135.72C112.702 135.3 112.593 134.973 112.374 134.737C112.156 134.499 111.856 134.379 111.475 134.379C111.214 134.379 110.982 134.436 110.778 134.549C110.578 134.662 110.418 134.827 110.3 135.046C110.185 135.262 110.127 135.523 110.127 135.829ZM116.462 131.552V139.262H115.337V131.552H116.462ZM117.977 139.262V133.48H119.102V139.262H117.977ZM118.545 132.588C118.349 132.588 118.181 132.522 118.041 132.392C117.903 132.259 117.834 132.101 117.834 131.918C117.834 131.732 117.903 131.574 118.041 131.443C118.181 131.31 118.349 131.244 118.545 131.244C118.741 131.244 118.908 131.31 119.046 131.443C119.186 131.574 119.257 131.732 119.257 131.918C119.257 132.101 119.186 132.259 119.046 132.392C118.908 132.522 118.741 132.588 118.545 132.588ZM121.742 135.829V139.262H120.616V133.48H121.697V134.421H121.768C121.901 134.115 122.11 133.869 122.393 133.683C122.679 133.497 123.039 133.404 123.473 133.404C123.867 133.404 124.213 133.487 124.509 133.653C124.805 133.816 125.034 134.059 125.198 134.383C125.361 134.707 125.442 135.107 125.442 135.584V139.262H124.317V135.72C124.317 135.3 124.208 134.973 123.989 134.737C123.771 134.499 123.471 134.379 123.09 134.379C122.829 134.379 122.596 134.436 122.393 134.549C122.192 134.662 122.033 134.827 121.915 135.046C121.8 135.262 121.742 135.523 121.742 135.829ZM129.444 139.378C128.874 139.378 128.383 139.257 127.972 139.013C127.563 138.767 127.247 138.422 127.023 137.978C126.802 137.531 126.692 137.008 126.692 136.408C126.692 135.816 126.802 135.294 127.023 134.842C127.247 134.391 127.558 134.038 127.957 133.785C128.358 133.531 128.828 133.404 129.365 133.404C129.691 133.404 130.007 133.458 130.313 133.566C130.619 133.674 130.894 133.844 131.138 134.075C131.381 134.305 131.573 134.605 131.714 134.974C131.854 135.341 131.924 135.786 131.924 136.311V136.71H127.328V135.866H130.821C130.821 135.57 130.761 135.308 130.641 135.08C130.52 134.849 130.351 134.667 130.133 134.534C129.917 134.401 129.663 134.334 129.372 134.334C129.056 134.334 128.78 134.412 128.544 134.568C128.311 134.721 128.13 134.921 128.002 135.17C127.876 135.416 127.814 135.683 127.814 135.972V136.63C127.814 137.017 127.881 137.346 128.017 137.617C128.155 137.888 128.347 138.095 128.593 138.238C128.839 138.378 129.126 138.449 129.455 138.449C129.668 138.449 129.863 138.419 130.038 138.358C130.214 138.296 130.366 138.203 130.494 138.08C130.622 137.957 130.72 137.805 130.788 137.624L131.853 137.816C131.768 138.13 131.614 138.405 131.394 138.641C131.175 138.874 130.9 139.056 130.569 139.186C130.24 139.314 129.865 139.378 129.444 139.378ZM137.104 135.829V139.262H135.978V133.48H137.059V134.421H137.13C137.263 134.115 137.472 133.869 137.755 133.683C138.041 133.497 138.401 133.404 138.836 133.404C139.23 133.404 139.575 133.487 139.871 133.653C140.167 133.816 140.397 134.059 140.56 134.383C140.723 134.707 140.804 135.107 140.804 135.584V139.262H139.679V135.72C139.679 135.3 139.57 134.973 139.351 134.737C139.133 134.499 138.833 134.379 138.452 134.379C138.191 134.379 137.959 134.436 137.755 134.549C137.554 134.662 137.395 134.827 137.277 135.046C137.162 135.262 137.104 135.523 137.104 135.829ZM144.749 139.378C144.207 139.378 143.734 139.254 143.33 139.006C142.926 138.757 142.612 138.41 142.389 137.963C142.166 137.516 142.054 136.994 142.054 136.397C142.054 135.797 142.166 135.273 142.389 134.824C142.612 134.374 142.926 134.026 143.33 133.777C143.734 133.529 144.207 133.404 144.749 133.404C145.291 133.404 145.764 133.529 146.168 133.777C146.572 134.026 146.886 134.374 147.11 134.824C147.333 135.273 147.445 135.797 147.445 136.397C147.445 136.994 147.333 137.516 147.11 137.963C146.886 138.41 146.572 138.757 146.168 139.006C145.764 139.254 145.291 139.378 144.749 139.378ZM144.753 138.434C145.104 138.434 145.396 138.341 145.626 138.155C145.857 137.969 146.028 137.722 146.138 137.413C146.251 137.105 146.308 136.765 146.308 136.393C146.308 136.024 146.251 135.686 146.138 135.377C146.028 135.066 145.857 134.816 145.626 134.628C145.396 134.44 145.104 134.346 144.753 134.346C144.399 134.346 144.106 134.44 143.872 134.628C143.641 134.816 143.469 135.066 143.357 135.377C143.246 135.686 143.191 136.024 143.191 136.393C143.191 136.765 143.246 137.105 143.357 137.413C143.469 137.722 143.641 137.969 143.872 138.155C144.106 138.341 144.399 138.434 144.753 138.434ZM149.778 139.262L148.077 133.48H149.24L150.373 137.726H150.43L151.566 133.48H152.73L153.859 137.707H153.915L155.041 133.48H156.204L154.506 139.262H153.358L152.184 135.087H152.097L150.923 139.262H149.778Z" fill="#76767C"/>
<path d="M92.3354 170.146V161.152H95.7082C96.3991 161.152 96.9788 161.281 97.4473 161.539C97.9187 161.796 98.2744 162.151 98.5145 162.602C98.7575 163.05 98.879 163.559 98.879 164.13C98.879 164.707 98.7575 165.219 98.5145 165.667C98.2715 166.115 97.9128 166.468 97.4385 166.725C96.9642 166.98 96.3801 167.107 95.6862 167.107H93.4508V165.768H95.4666C95.8707 165.768 96.2015 165.698 96.4592 165.557C96.7168 165.417 96.9071 165.223 97.0301 164.977C97.156 164.732 97.2189 164.449 97.2189 164.13C97.2189 163.811 97.156 163.53 97.0301 163.287C96.9071 163.044 96.7153 162.855 96.4548 162.72C96.1971 162.583 95.8648 162.514 95.4578 162.514H93.9647V170.146H92.3354ZM102.044 170.283C101.617 170.283 101.232 170.207 100.889 170.054C100.55 169.899 100.28 169.671 100.081 169.369C99.885 169.068 99.7869 168.696 99.7869 168.254C99.7869 167.873 99.8572 167.558 99.9977 167.309C100.138 167.061 100.33 166.862 100.573 166.712C100.816 166.563 101.09 166.45 101.394 166.374C101.702 166.295 102.019 166.238 102.347 166.203C102.743 166.162 103.063 166.125 103.309 166.093C103.555 166.058 103.734 166.005 103.845 165.935C103.959 165.862 104.016 165.749 104.016 165.597V165.57C104.016 165.24 103.918 164.983 103.722 164.802C103.526 164.62 103.243 164.53 102.874 164.53C102.485 164.53 102.176 164.614 101.948 164.784C101.722 164.954 101.57 165.155 101.491 165.386L100.007 165.175C100.124 164.765 100.317 164.423 100.586 164.147C100.856 163.869 101.185 163.661 101.574 163.524C101.964 163.383 102.394 163.313 102.866 163.313C103.191 163.313 103.514 163.351 103.836 163.427C104.158 163.503 104.452 163.629 104.719 163.805C104.985 163.978 105.199 164.213 105.36 164.512C105.524 164.811 105.606 165.184 105.606 165.632V170.146H104.078V169.22H104.025C103.928 169.407 103.792 169.583 103.616 169.747C103.444 169.908 103.226 170.038 102.962 170.138C102.702 170.234 102.396 170.283 102.044 170.283ZM102.457 169.114C102.776 169.114 103.053 169.051 103.287 168.926C103.521 168.797 103.701 168.627 103.827 168.416C103.956 168.205 104.021 167.976 104.021 167.727V166.932C103.971 166.973 103.886 167.011 103.766 167.046C103.649 167.081 103.517 167.112 103.371 167.138C103.224 167.165 103.079 167.188 102.936 167.208C102.792 167.229 102.668 167.247 102.562 167.261C102.325 167.293 102.113 167.346 101.926 167.419C101.738 167.492 101.59 167.595 101.482 167.727C101.374 167.855 101.32 168.022 101.32 168.227C101.32 168.52 101.427 168.741 101.64 168.89C101.854 169.04 102.126 169.114 102.457 169.114ZM111.504 167.309V163.401H113.094V170.146H111.552V168.948H111.482C111.33 169.325 111.079 169.634 110.731 169.874C110.386 170.114 109.96 170.234 109.453 170.234C109.011 170.234 108.62 170.136 108.28 169.94C107.944 169.741 107.68 169.453 107.49 169.075C107.3 168.694 107.204 168.235 107.204 167.696V163.401H108.794V167.45C108.794 167.877 108.911 168.217 109.146 168.469C109.38 168.721 109.687 168.847 110.068 168.847C110.302 168.847 110.529 168.789 110.749 168.675C110.968 168.561 111.148 168.391 111.289 168.166C111.432 167.937 111.504 167.652 111.504 167.309ZM116.318 161.152V170.146H114.729V161.152H116.318ZM121.091 170.146V161.152H122.72V165.285H122.83L126.339 161.152H128.328L124.85 165.188L128.359 170.146H126.401L123.717 166.291L122.72 167.468V170.146H121.091ZM129.813 170.146V163.401H131.403V170.146H129.813ZM130.612 162.443C130.36 162.443 130.144 162.36 129.962 162.193C129.781 162.023 129.69 161.82 129.69 161.583C129.69 161.343 129.781 161.139 129.962 160.972C130.144 160.802 130.36 160.718 130.612 160.718C130.867 160.718 131.084 160.802 131.262 160.972C131.444 161.139 131.534 161.343 131.534 161.583C131.534 161.82 131.444 162.023 131.262 162.193C131.084 162.36 130.867 162.443 130.612 162.443ZM134.627 166.194V170.146H133.037V163.401H134.557V164.547H134.636C134.791 164.169 135.039 163.869 135.378 163.647C135.721 163.424 136.144 163.313 136.647 163.313C137.113 163.313 137.518 163.413 137.864 163.612C138.212 163.811 138.482 164.099 138.672 164.477C138.865 164.855 138.96 165.313 138.957 165.851V170.146H137.368V166.097C137.368 165.646 137.251 165.294 137.016 165.039C136.785 164.784 136.464 164.657 136.055 164.657C135.776 164.657 135.529 164.718 135.312 164.841C135.099 164.961 134.93 165.136 134.807 165.364C134.687 165.592 134.627 165.869 134.627 166.194ZM143.507 172.817C142.936 172.817 142.446 172.739 142.036 172.584C141.626 172.432 141.297 172.227 141.048 171.969C140.799 171.711 140.626 171.426 140.53 171.113L141.961 170.766C142.026 170.897 142.119 171.028 142.242 171.157C142.365 171.288 142.531 171.397 142.739 171.482C142.949 171.569 143.214 171.613 143.534 171.613C143.984 171.613 144.358 171.504 144.653 171.284C144.949 171.067 145.097 170.71 145.097 170.212V168.934H145.018C144.936 169.098 144.816 169.267 144.658 169.439C144.503 169.612 144.296 169.757 144.039 169.874C143.784 169.991 143.463 170.05 143.077 170.05C142.559 170.05 142.089 169.928 141.667 169.685C141.248 169.439 140.915 169.073 140.666 168.587C140.42 168.098 140.297 167.487 140.297 166.752C140.297 166.011 140.42 165.386 140.666 164.876C140.915 164.364 141.25 163.976 141.672 163.713C142.093 163.446 142.563 163.313 143.081 163.313C143.476 163.313 143.801 163.38 144.056 163.515C144.314 163.647 144.519 163.806 144.671 163.994C144.823 164.178 144.939 164.352 145.018 164.516H145.106V163.401H146.674V170.256C146.674 170.833 146.536 171.31 146.261 171.688C145.986 172.066 145.609 172.348 145.132 172.536C144.655 172.723 144.113 172.817 143.507 172.817ZM143.52 168.803C143.857 168.803 144.144 168.721 144.381 168.557C144.618 168.393 144.798 168.157 144.921 167.85C145.044 167.542 145.106 167.173 145.106 166.743C145.106 166.318 145.044 165.947 144.921 165.627C144.801 165.308 144.623 165.061 144.386 164.885C144.151 164.707 143.863 164.617 143.52 164.617C143.166 164.617 142.87 164.71 142.633 164.894C142.396 165.078 142.218 165.332 142.098 165.654C141.977 165.973 141.917 166.336 141.917 166.743C141.917 167.156 141.977 167.517 142.098 167.828C142.22 168.135 142.401 168.375 142.638 168.548C142.878 168.718 143.172 168.803 143.52 168.803Z" fill="#292831"/>
<circle cx="94.0983" cy="181.347" r="2.65007" fill="#AEB6BF"/>
<path d="M103.949 177.338V185.047H102.782V178.505H102.737L100.892 179.709V178.595L102.816 177.338H103.949ZM108.854 185.047V179.265H109.935V180.206H110.006C110.127 179.887 110.324 179.639 110.597 179.461C110.871 179.28 111.198 179.19 111.58 179.19C111.966 179.19 112.29 179.28 112.551 179.461C112.815 179.641 113.009 179.89 113.134 180.206H113.195C113.333 179.897 113.552 179.651 113.853 179.468C114.155 179.282 114.513 179.19 114.93 179.19C115.455 179.19 115.882 179.354 116.214 179.683C116.547 180.011 116.714 180.507 116.714 181.17V185.047H115.589V181.275C115.589 180.884 115.482 180.6 115.269 180.424C115.056 180.249 114.801 180.161 114.505 180.161C114.138 180.161 113.853 180.274 113.65 180.5C113.447 180.723 113.345 181.01 113.345 181.362V185.047H112.224V181.204C112.224 180.89 112.126 180.638 111.93 180.447C111.734 180.256 111.479 180.161 111.166 180.161C110.952 180.161 110.755 180.217 110.575 180.33C110.397 180.441 110.252 180.595 110.142 180.793C110.034 180.991 109.98 181.221 109.98 181.482V185.047H108.854ZM118.223 185.047V179.265H119.348V185.047H118.223ZM118.791 178.373C118.596 178.373 118.427 178.308 118.287 178.177C118.149 178.044 118.08 177.886 118.08 177.703C118.08 177.517 118.149 177.359 118.287 177.228C118.427 177.095 118.596 177.029 118.791 177.029C118.987 177.029 119.154 177.095 119.292 177.228C119.432 177.359 119.503 177.517 119.503 177.703C119.503 177.886 119.432 178.044 119.292 178.177C119.154 178.308 118.987 178.373 118.791 178.373ZM121.988 181.614V185.047H120.863V179.265H121.943V180.206H122.014C122.147 179.9 122.356 179.654 122.639 179.468C122.925 179.282 123.286 179.19 123.72 179.19C124.114 179.19 124.459 179.272 124.755 179.438C125.051 179.601 125.281 179.845 125.444 180.168C125.607 180.492 125.688 180.892 125.688 181.369V185.047H124.563V181.505C124.563 181.086 124.454 180.758 124.235 180.522C124.017 180.284 123.717 180.165 123.336 180.165C123.075 180.165 122.843 180.221 122.639 180.334C122.439 180.447 122.279 180.613 122.161 180.831C122.046 181.047 121.988 181.308 121.988 181.614ZM131.686 185.175C131.319 185.175 130.988 185.107 130.692 184.972C130.396 184.834 130.161 184.634 129.988 184.373C129.818 184.112 129.732 183.792 129.732 183.413C129.732 183.087 129.795 182.818 129.92 182.608C130.046 182.397 130.215 182.23 130.429 182.107C130.642 181.984 130.88 181.891 131.144 181.828C131.407 181.766 131.676 181.718 131.949 181.685C132.296 181.645 132.577 181.613 132.793 181.587C133.008 181.56 133.165 181.516 133.263 181.456C133.361 181.396 133.41 181.298 133.41 181.162V181.136C133.41 180.807 133.317 180.552 133.131 180.372C132.948 180.191 132.675 180.101 132.311 180.101C131.932 180.101 131.633 180.185 131.415 180.353C131.199 180.518 131.05 180.703 130.967 180.906L129.909 180.665C130.035 180.314 130.218 180.03 130.459 179.814C130.702 179.596 130.982 179.438 131.298 179.34C131.614 179.24 131.947 179.19 132.296 179.19C132.527 179.19 132.771 179.217 133.03 179.272C133.291 179.325 133.534 179.423 133.76 179.566C133.988 179.709 134.175 179.914 134.321 180.18C134.466 180.443 134.539 180.786 134.539 181.207V185.047H133.44V184.256H133.395C133.322 184.402 133.213 184.545 133.067 184.686C132.922 184.826 132.735 184.943 132.507 185.036C132.278 185.128 132.005 185.175 131.686 185.175ZM131.931 184.271C132.242 184.271 132.508 184.21 132.729 184.087C132.952 183.964 133.121 183.803 133.237 183.605C133.355 183.404 133.414 183.19 133.414 182.961V182.216C133.374 182.256 133.296 182.294 133.18 182.329C133.067 182.362 132.938 182.391 132.793 182.416C132.647 182.438 132.505 182.46 132.367 182.48C132.229 182.497 132.114 182.512 132.021 182.525C131.803 182.552 131.603 182.599 131.422 182.664C131.244 182.729 131.101 182.823 130.993 182.946C130.888 183.067 130.835 183.227 130.835 183.428C130.835 183.707 130.938 183.918 131.144 184.061C131.35 184.201 131.612 184.271 131.931 184.271ZM138.463 187.336C138.003 187.336 137.608 187.275 137.277 187.155C136.948 187.034 136.68 186.875 136.471 186.677C136.263 186.479 136.107 186.261 136.004 186.026L136.972 185.627C137.04 185.737 137.13 185.854 137.243 185.977C137.358 186.102 137.514 186.209 137.71 186.297C137.908 186.384 138.163 186.428 138.474 186.428C138.9 186.428 139.253 186.324 139.532 186.116C139.81 185.91 139.949 185.581 139.949 185.13V183.993H139.878C139.81 184.116 139.712 184.253 139.584 184.403C139.459 184.554 139.286 184.684 139.065 184.795C138.844 184.905 138.557 184.96 138.203 184.96C137.746 184.96 137.335 184.854 136.968 184.64C136.604 184.425 136.316 184.107 136.102 183.688C135.892 183.266 135.786 182.748 135.786 182.133C135.786 181.518 135.89 180.991 136.099 180.552C136.309 180.113 136.598 179.777 136.964 179.543C137.331 179.308 137.746 179.19 138.21 179.19C138.569 179.19 138.859 179.25 139.08 179.37C139.301 179.488 139.473 179.626 139.596 179.784C139.721 179.942 139.818 180.082 139.885 180.202H139.968V179.265H141.071V185.175C141.071 185.672 140.956 186.08 140.725 186.398C140.494 186.717 140.182 186.953 139.788 187.106C139.396 187.259 138.954 187.336 138.463 187.336ZM138.451 184.027C138.775 184.027 139.049 183.951 139.272 183.801C139.498 183.648 139.668 183.429 139.784 183.146C139.902 182.86 139.961 182.517 139.961 182.118C139.961 181.729 139.903 181.387 139.788 181.091C139.672 180.794 139.503 180.564 139.279 180.398C139.056 180.23 138.78 180.146 138.451 180.146C138.112 180.146 137.83 180.234 137.604 180.409C137.378 180.582 137.208 180.818 137.092 181.117C136.979 181.416 136.923 181.749 136.923 182.118C136.923 182.497 136.981 182.83 137.096 183.116C137.212 183.402 137.382 183.625 137.608 183.786C137.836 183.946 138.118 184.027 138.451 184.027ZM145.016 185.164C144.474 185.164 144.001 185.039 143.597 184.791C143.193 184.542 142.879 184.195 142.656 183.748C142.433 183.301 142.321 182.78 142.321 182.182C142.321 181.582 142.433 181.058 142.656 180.609C142.879 180.16 143.193 179.811 143.597 179.562C144.001 179.314 144.474 179.19 145.016 179.19C145.558 179.19 146.031 179.314 146.435 179.562C146.839 179.811 147.153 180.16 147.376 180.609C147.6 181.058 147.711 181.582 147.711 182.182C147.711 182.78 147.6 183.301 147.376 183.748C147.153 184.195 146.839 184.542 146.435 184.791C146.031 185.039 145.558 185.164 145.016 185.164ZM145.02 184.219C145.371 184.219 145.662 184.126 145.893 183.94C146.124 183.754 146.295 183.507 146.405 183.199C146.518 182.89 146.575 182.55 146.575 182.178C146.575 181.81 146.518 181.471 146.405 181.162C146.295 180.851 146.124 180.601 145.893 180.413C145.662 180.225 145.371 180.131 145.02 180.131C144.666 180.131 144.373 180.225 144.139 180.413C143.908 180.601 143.736 180.851 143.623 181.162C143.513 181.471 143.458 181.81 143.458 182.178C143.458 182.55 143.513 182.89 143.623 183.199C143.736 183.507 143.908 183.754 144.139 183.94C144.373 184.126 144.666 184.219 145.02 184.219Z" fill="#76767C"/>
<g filter="url(#filter1_d_0_1726)">
<circle cx="81.223" cy="78.327" r="20.3158" fill="#FF17D2" stroke="#FAFAFB" stroke-width="2.02058"/>
<circle cx="66.7437" cy="92.8062" r="4.62529" fill="#11CB24" stroke="#F6F6F7" stroke-width="1.2066"/>
<path d="M73.354 83.4568V72.5477H75V82.0399H79.9432V83.4568H73.354ZM81.8208 83.4568V72.5477H85.7093C86.5545 72.5477 87.2558 72.6933 87.8134 72.9845C88.3745 73.2757 88.7935 73.6787 89.0705 74.1936C89.3475 74.705 89.486 75.2963 89.486 75.9674C89.486 76.6351 89.3457 77.2228 89.0652 77.7306C88.7882 78.2348 88.3691 78.6272 87.808 78.9078C87.2505 79.1883 86.5492 79.3286 85.704 79.3286H82.7583V77.9117H85.5549C86.0875 77.9117 86.5208 77.8353 86.8546 77.6826C87.1919 77.5299 87.4387 77.308 87.595 77.0168C87.7512 76.7256 87.8294 76.3758 87.8294 75.9674C87.8294 75.5555 87.7495 75.1986 87.5897 74.8968C87.4334 74.5949 87.1866 74.3641 86.8492 74.2043C86.5154 74.0409 86.0769 73.9593 85.5335 73.9593H83.4668V83.4568H81.8208ZM87.2061 78.5349L89.9014 83.4568H88.0264L85.3844 78.5349H87.2061Z" fill="white"/>
</g>
<g filter="url(#filter2_d_0_1726)">
<circle cx="111.476" cy="78.327" r="20.3158" fill="#791BF0" stroke="#FAFAFB" stroke-width="2.02058"/>
<circle cx="96.9971" cy="92.8062" r="4.62529" fill="#11CB24" stroke="#F6F6F7" stroke-width="1.2066"/>
<path d="M100.824 83.4568V72.5477H107.664V73.9646H102.47V77.2885H107.307V78.7H102.47V82.0399H107.728V83.4568H100.824ZM111.998 83.4568L108.973 72.5477H110.704L112.829 80.9958H112.931L115.141 72.5477H116.856L119.067 81.0012H119.168L121.288 72.5477H123.025L119.994 83.4568H118.337L116.041 75.2856H115.956L113.66 83.4568H111.998Z" fill="white"/>
</g>
<g filter="url(#filter3_d_0_1726)">
<circle cx="141.905" cy="78.327" r="19.1761" fill="#AEB6BF"/>
<circle cx="141.905" cy="78.327" r="20.4003" stroke="#F9F9FA" stroke-width="2.44848"/>
</g>
<path d="M136.503 82.319V75.1173H137.936V82.319H136.503ZM133.621 79.4319V78.0043H140.823V79.4319H133.621ZM142.826 84.1514V82.9582L146.517 79.1336C146.911 78.7181 147.236 78.3541 147.492 78.0416C147.751 77.7256 147.945 77.4255 148.072 77.1414C148.2 76.8573 148.264 76.5555 148.264 76.2359C148.264 75.8737 148.179 75.5612 148.008 75.2984C147.838 75.032 147.605 74.8279 147.311 74.6858C147.016 74.5402 146.684 74.4674 146.315 74.4674C145.924 74.4674 145.583 74.5473 145.292 74.7071C145.001 74.8669 144.777 75.0924 144.621 75.3836C144.464 75.6748 144.386 76.0157 144.386 76.4063H142.815C142.815 75.7423 142.968 75.1617 143.273 74.6645C143.578 74.1673 143.997 73.782 144.53 73.5086C145.063 73.2316 145.668 73.0931 146.346 73.0931C147.032 73.0931 147.636 73.2298 148.158 73.5033C148.683 73.7732 149.093 74.1425 149.388 74.6112C149.683 75.0764 149.83 75.602 149.83 76.1879C149.83 76.5928 149.754 76.9887 149.601 77.3758C149.452 77.7629 149.191 78.1943 148.818 78.6702C148.445 79.1425 147.927 79.716 147.263 80.3907L145.095 82.6599V82.7398H150.006V84.1514H142.826Z" fill="white"/>
<defs>
<filter id="filter0_d_0_1726" x="33.5513" y="72.8777" width="217.449" height="175.069" filterUnits="userSpaceOnUse" color-interpolation-filters="sRGB">
<feFlood flood-opacity="0" result="BackgroundImageFix"/>
<feColorMatrix in="SourceAlpha" type="matrix" values="0 0 0 0 0 0 0 0 0 0 0 0 0 0 0 0 0 0 127 0" result="hardAlpha"/>
<feOffset dy="10"/>
<feGaussianBlur stdDeviation="20"/>
<feComposite in2="hardAlpha" operator="out"/>
<feColorMatrix type="matrix" values="0 0 0 0 0 0 0 0 0 0 0 0 0 0 0 0 0 0 0.06 0"/>
<feBlend mode="normal" in2="BackgroundImageFix" result="effect1_dropShadow_0_1726"/>
<feBlend mode="normal" in="SourceGraphic" in2="effect1_dropShadow_0_1726" result="shape"/>
</filter>
<filter id="filter1_d_0_1726" x="19.897" y="27.001" width="122.652" height="122.652" filterUnits="userSpaceOnUse" color-interpolation-filters="sRGB">
<feFlood flood-opacity="0" result="BackgroundImageFix"/>
<feColorMatrix in="SourceAlpha" type="matrix" values="0 0 0 0 0 0 0 0 0 0 0 0 0 0 0 0 0 0 127 0" result="hardAlpha"/>
<feOffset dy="10"/>
<feGaussianBlur stdDeviation="20"/>
<feComposite in2="hardAlpha" operator="out"/>
<feColorMatrix type="matrix" values="0 0 0 0 0 0 0 0 0 0 0 0 0 0 0 0 0 0 0.06 0"/>
<feBlend mode="normal" in2="BackgroundImageFix" result="effect1_dropShadow_0_1726"/>
<feBlend mode="normal" in="SourceGraphic" in2="effect1_dropShadow_0_1726" result="shape"/>
</filter>
<filter id="filter2_d_0_1726" x="57.9745" y="32.869" width="107.004" height="107.004" filterUnits="userSpaceOnUse" color-interpolation-filters="sRGB">
<feFlood flood-opacity="0" result="BackgroundImageFix"/>
<feColorMatrix in="SourceAlpha" type="matrix" values="0 0 0 0 0 0 0 0 0 0 0 0 0 0 0 0 0 0 127 0" result="hardAlpha"/>
<feOffset dy="8.04398"/>
<feGaussianBlur stdDeviation="16.088"/>
<feComposite in2="hardAlpha" operator="out"/>
<feColorMatrix type="matrix" values="0 0 0 0 0 0 0 0 0 0 0 0 0 0 0 0 0 0 0.06 0"/>
<feBlend mode="normal" in2="BackgroundImageFix" result="effect1_dropShadow_0_1726"/>
<feBlend mode="normal" in="SourceGraphic" in2="effect1_dropShadow_0_1726" result="shape"/>
</filter>
<filter id="filter3_d_0_1726" x="80.2803" y="26.7024" width="123.249" height="123.249" filterUnits="userSpaceOnUse" color-interpolation-filters="sRGB">
<feFlood flood-opacity="0" result="BackgroundImageFix"/>
<feColorMatrix in="SourceAlpha" type="matrix" values="0 0 0 0 0 0 0 0 0 0 0 0 0 0 0 0 0 0 127 0" result="hardAlpha"/>
<feOffset dy="10"/>
<feGaussianBlur stdDeviation="20"/>
<feComposite in2="hardAlpha" operator="out"/>
<feColorMatrix type="matrix" values="0 0 0 0 0 0 0 0 0 0 0 0 0 0 0 0 0 0 0.06 0"/>
<feBlend mode="normal" in2="BackgroundImageFix" result="effect1_dropShadow_0_1726"/>
<feBlend mode="normal" in="SourceGraphic" in2="effect1_dropShadow_0_1726" result="shape"/>
</filter>
</defs>
</svg>
