<svg width="48" height="48" viewBox="0 0 48 48" fill="none" xmlns="http://www.w3.org/2000/svg">
<path d="M11 12C11 12 11.5 12 10 12C8.5 12 7 13.5 7 15C7 16.5 7 39.5 7 41C7 42.5 8.5 44 10 44C11.5 44 28.5 44 30 44C31.5 44 33 42.5 33 41C33 39.5 33 40 33 40" stroke="#03020D" stroke-width="1.5" stroke-linecap="round"/>
<path d="M15 8C15 8 15.5 8 14 8C12.5 8 11 9.5 11 11C11 12.5 11 35.5 11 37C11 38.5 12.5 40 14 40C15.5 40 32.5 40 34 40C35.5 40 37 38.5 37 37C37 35.5 37 36 37 36" stroke="#03020D" stroke-width="1.5" stroke-linecap="round"/>
<path d="M29.7618 4C29.7618 4 20.5 4 18.5 4C16.5 4 15 5.65625 15 7.5C15 9.34375 15 30.5 15 32.5C15 34.5 16.5 36 18.5 36C20.5 36 35.5 36 37.5 36C39.5 36 41 34.5 41 32.5C41 30.5 41 15.1756 41 15.1756" stroke="#03020D" stroke-width="1.5" stroke-linecap="round"/>
<path d="M31.6077 17C33.6405 18.2249 35 20.4537 35 23C35 26.8659 31.866 30 28 30C24.134 30 21 26.8659 21 23C21 20.4537 22.3595 18.2249 24.3923 17" stroke="#03020D" stroke-width="1.5" stroke-linecap="round"/>
<path d="M28 23V14.5" stroke="#03020D" stroke-width="1.5" stroke-linecap="round"/>
<path fill-rule="evenodd" clip-rule="evenodd" d="M40.5945 10.6524C41.4608 11.5187 40.8472 13 39.6221 13L35.2326 13C33.1712 13 31.5 11.3288 31.5 9.26736L31.5 4.87794C31.5 3.65278 32.9813 3.03922 33.8476 3.90554L40.5945 10.6524Z" fill="#FF5416"/>
</svg>
