<svg width="52" height="102" viewBox="0 0 52 102" fill="none" xmlns="http://www.w3.org/2000/svg">
<path d="M15.817 93.693H36.984" stroke="#03020D" stroke-width="1.22905" stroke-linecap="round"/>
<path d="M5.01495 1H47.622C49.546 1 51.1049 2.55899 51.1049 4.48199V97.89C51.1049 99.813 49.546 101.372 47.622 101.372H5.01495C3.09195 101.372 1.53296 99.813 1.53296 97.89V4.48199C1.53296 2.55899 3.09195 1 5.01495 1Z" stroke="#03020D" stroke-width="1.22905"/>
<path d="M27.049 6.75998C27.049 7.11798 26.758 7.40799 26.4 7.40799C26.042 7.40799 25.752 7.11798 25.752 6.75998C25.752 6.40098 26.042 6.11099 26.4 6.11099C26.758 6.11099 27.049 6.40098 27.049 6.75998Z" stroke="#03020D" stroke-width="0.819369" stroke-linecap="round" stroke-linejoin="round"/>
<path d="M38.3351 31.124L25.6021 40.339L32.355 41.422L35.997 46.677L38.3351 31.124Z" fill="#FF5416" stroke="#03020D" stroke-width="1.22905" stroke-linejoin="round"/>
<path d="M17.933 44.414H1" stroke="#03020D" stroke-width="1.22905"/>
<path d="M50.742 44.593H42.276" stroke="#03020D" stroke-width="1.22905"/>
<path d="M10.7899 56.235H1.79395" stroke="#03020D" stroke-width="1.22905" stroke-linecap="round"/>
<path d="M50.7421 56.055H35.925" stroke="#03020D" stroke-width="1.22905"/>
<path d="M1.52691 72.066C1.35591 72.359 1.45593 72.735 1.74893 72.906C2.04193 73.077 2.41893 72.977 2.58893 72.684L1.52691 72.066ZM37.1329 10.872L1.52691 72.066L2.58893 72.684L38.1959 11.49L37.1329 10.872Z" fill="#03020D"/>
<path d="M50.742 29.511L17.746 88.117" stroke="#03020D" stroke-width="1.22905" stroke-linecap="round" stroke-linejoin="round"/>
<path d="M2.05798 11.434H50.742" stroke="#03020D" stroke-width="1.22905"/>
<path d="M2.05798 88.694H50.742" stroke="#03020D" stroke-width="1.22905"/>
</svg>
