<svg width="48" height="48" viewBox="0 0 48 48" fill="none" xmlns="http://www.w3.org/2000/svg">
<path d="M40 35.5C42.2091 35.5 44 33.7091 44 31.5C44 29.2909 42.2091 27.5 40 27.5C37.7909 27.5 36 29.2909 36 31.5C36 33.7091 37.7909 35.5 40 35.5Z" stroke="#03020D" stroke-width="1.5" stroke-miterlimit="10" stroke-linejoin="bevel"/>
<path d="M40.0199 44.5L39.4631 45.0024C39.6054 45.1602 39.808 45.2502 40.0205 45.25C40.233 45.2498 40.4354 45.1595 40.5775 45.0016L40.0199 44.5ZM33.75 31.54C33.75 28.0702 36.5603 25.25 40 25.25V23.75C35.7238 23.75 32.25 27.2498 32.25 31.54H33.75ZM40 25.25C43.4582 25.25 46.25 28.0688 46.25 31.54H47.75C47.75 27.2512 44.2975 23.75 40 23.75V25.25ZM46.25 31.54C46.25 32.6876 45.8604 34.0354 45.2251 35.4518C44.5942 36.858 43.7465 38.2767 42.8879 39.5509C42.0309 40.823 41.1723 41.9375 40.5275 42.7345C40.2054 43.1326 39.9374 43.4504 39.7507 43.6679C39.6574 43.7766 39.5844 43.8602 39.5352 43.9162C39.5106 43.9441 39.4919 43.9652 39.4796 43.979C39.4735 43.9859 39.4689 43.991 39.466 43.9943C39.4646 43.9959 39.4635 43.997 39.4629 43.9977C39.4626 43.9981 39.4624 43.9983 39.4623 43.9984C39.4622 43.9985 39.4622 43.9985 39.4622 43.9985C39.4622 43.9985 39.4623 43.9984 40.0199 44.5C40.5775 45.0016 40.5776 45.0014 40.5777 45.0013C40.5778 45.0012 40.578 45.001 40.5781 45.0009C40.5785 45.0005 40.5789 45 40.5794 44.9994C40.5805 44.9982 40.582 44.9966 40.5839 44.9945C40.5877 44.9902 40.5931 44.9841 40.6002 44.9762C40.6143 44.9603 40.6348 44.9371 40.6614 44.907C40.7144 44.8467 40.7914 44.7585 40.8889 44.6449C41.0839 44.4177 41.3613 44.0887 41.6936 43.678C42.3575 42.8575 43.244 41.707 44.1319 40.3891C45.0184 39.0733 45.9157 37.577 46.5937 36.0657C47.267 34.5646 47.75 32.9924 47.75 31.54H46.25ZM40.0199 44.5C40.5767 43.9976 40.5768 43.9976 40.5768 43.9977C40.5768 43.9976 40.5768 43.9976 40.5767 43.9976C40.5766 43.9975 40.5764 43.9972 40.5761 43.9969C40.5755 43.9962 40.5744 43.995 40.5729 43.9934C40.57 43.9901 40.5654 43.985 40.5592 43.9781C40.5469 43.9642 40.5281 43.9431 40.5033 43.915C40.4538 43.8589 40.3804 43.7751 40.2865 43.6661C40.0987 43.4481 39.8292 43.1295 39.5052 42.7306C38.8566 41.932 37.9931 40.8155 37.131 39.5421C36.2675 38.2665 35.4149 36.8471 34.7804 35.4417C34.1413 34.0259 33.75 32.6814 33.75 31.54H32.25C32.25 32.9886 32.7362 34.5591 33.4133 36.0589C34.0951 37.5692 34.9974 39.066 35.8889 40.3829C36.7818 41.702 37.6732 42.8542 38.3409 43.6763C38.675 44.0877 38.9539 44.4174 39.15 44.6451C39.2481 44.7589 39.3255 44.8473 39.3788 44.9077C39.4054 44.9379 39.4261 44.9611 39.4403 44.977C39.4473 44.9849 39.4528 44.9911 39.4566 44.9953C39.4586 44.9974 39.4601 44.9991 39.4611 45.0003C39.4617 45.0009 39.4621 45.0014 39.4624 45.0017C39.4626 45.0019 39.4627 45.0021 39.4628 45.0022C39.4629 45.0023 39.4631 45.0024 40.0199 44.5Z" fill="#03020D"/>
<path d="M8 13.5C10.2091 13.5 12 11.7091 12 9.5C12 7.29086 10.2091 5.5 8 5.5C5.79086 5.5 4 7.29086 4 9.5C4 11.7091 5.79086 13.5 8 13.5Z" stroke="#03020D" stroke-width="1.5" stroke-miterlimit="10" stroke-linejoin="bevel"/>
<path d="M8.01989 22.5L7.46305 23.0024C7.6054 23.1602 7.80798 23.2502 8.02047 23.25C8.23295 23.2498 8.43539 23.1595 8.5775 23.0016L8.01989 22.5ZM1.75 9.54C1.75 6.07018 4.56028 3.25 8 3.25V1.75C3.72381 1.75 0.25 5.24982 0.25 9.54H1.75ZM8 3.25C11.4582 3.25 14.25 6.06879 14.25 9.54H15.75C15.75 5.25121 12.2975 1.75 8 1.75V3.25ZM14.25 9.54C14.25 10.6876 13.8604 12.0354 13.2251 13.4518C12.5942 14.858 11.7465 16.2767 10.8879 17.5509C10.0309 18.823 9.17233 19.9375 8.52748 20.7345C8.20539 21.1326 7.93744 21.4504 7.75073 21.6679C7.65739 21.7766 7.58442 21.8602 7.5352 21.9162C7.51059 21.9441 7.49193 21.9652 7.47963 21.979C7.47348 21.9859 7.46893 21.991 7.46602 21.9943C7.46456 21.9959 7.46352 21.997 7.46289 21.9977C7.46258 21.9981 7.46237 21.9983 7.46227 21.9984C7.46222 21.9985 7.46222 21.9985 7.46219 21.9985C7.46222 21.9985 7.46228 21.9984 8.01989 22.5C8.5775 23.0016 8.5776 23.0014 8.57774 23.0013C8.57782 23.0012 8.57798 23.001 8.57814 23.0009C8.57846 23.0005 8.57889 23 8.57942 22.9994C8.58049 22.9982 8.58197 22.9966 8.58387 22.9945C8.58768 22.9902 8.59313 22.9841 8.60019 22.9762C8.61431 22.9603 8.63484 22.9371 8.66135 22.907C8.71438 22.8467 8.79137 22.7585 8.8889 22.6449C9.08391 22.4177 9.36128 22.0887 9.69357 21.678C10.3575 20.8575 11.244 19.707 12.1319 18.3891C13.0184 17.0733 13.9157 15.577 14.5937 14.0657C15.267 12.5646 15.75 10.9924 15.75 9.54H14.25ZM8.01989 22.5C8.57672 21.9976 8.57677 21.9976 8.5768 21.9977C8.57678 21.9976 8.57678 21.9976 8.57672 21.9976C8.57662 21.9975 8.57641 21.9972 8.57609 21.9969C8.57546 21.9962 8.57441 21.995 8.57295 21.9934C8.57002 21.9901 8.56543 21.985 8.55924 21.9781C8.54687 21.9642 8.52809 21.9431 8.50333 21.915C8.45381 21.8589 8.3804 21.7751 8.28651 21.6661C8.0987 21.4481 7.82918 21.1295 7.50521 20.7306C6.8566 19.932 5.99306 18.8155 5.13102 17.5421C4.26751 16.2665 3.41486 14.8471 2.78043 13.4417C2.14129 12.0259 1.75 10.6814 1.75 9.54H0.25C0.25 10.9886 0.736196 12.5591 1.41328 14.0589C2.09508 15.5692 2.99741 17.066 3.88887 18.3829C4.7818 19.702 5.67323 20.8542 6.34085 21.6763C6.67499 22.0877 6.9539 22.4174 7.14999 22.6451C7.24805 22.7589 7.32546 22.8473 7.37877 22.9077C7.40543 22.9379 7.42607 22.9611 7.44025 22.977C7.44735 22.9849 7.45283 22.9911 7.45665 22.9953C7.45856 22.9974 7.46005 22.9991 7.46112 23.0003C7.46165 23.0009 7.46208 23.0014 7.46241 23.0017C7.46257 23.0019 7.46273 23.0021 7.46281 23.0022C7.46294 23.0023 7.46305 23.0024 8.01989 22.5Z" fill="#03020D"/>
<path d="M34 44.5H12C9.79087 44.5 8.00001 42.7091 8.00001 40.5L8 37.5C8 35.2909 9.79086 33.5 12 33.5H13" stroke="#03020D" stroke-width="1.5" stroke-linecap="round"/>
<circle cx="18" cy="33.5" r="3" fill="#FF5416"/>
<circle cx="14.25" cy="23.25" r="0.75" fill="#FF5416"/>
<circle cx="23.25" cy="33.5" r="0.75" fill="#FF5416"/>
<circle cx="23.25" cy="23.25" r="0.75" fill="#FF5416"/>
<circle cx="26.25" cy="33.5" r="0.75" fill="#FF5416"/>
<circle cx="26.25" cy="23.25" r="0.75" fill="#FF5416"/>
<circle cx="28.25" cy="28.5" r="0.75" fill="#FF5416"/>
<circle cx="28.25" cy="25.5" r="0.75" fill="#FF5416"/>
<circle cx="28.25" cy="31.5" r="0.75" fill="#FF5416"/>
<circle cx="20.25" cy="23.25" r="0.75" fill="#FF5416"/>
<circle cx="17.25" cy="23.25" r="0.75" fill="#FF5416"/>
</svg>
